%FSDAX24Y24*%
%MOIN*%
%SFA1B1*%

%IPPOS*%
%ADD9500C,0.020000*%
%ADD9501C,0.023600*%
%ADD9502C,0.030000*%
%ADD9503C,0.040000*%
%ADD9504C,0.078700*%
%ADD9505C,0.125000*%
%ADD9506C,0.196900*%
%LNrwsv3-1*%
%LPD*%
G54D9500*
X048790Y011200D03*
Y012200D03*
X049590Y012650D03*
X050390Y012200D03*
Y011200D03*
X049590Y010750D03*
X064990Y012000D03*
X082540Y012700D03*
Y013700D03*
X083340Y014150D03*
X084140Y013700D03*
Y012700D03*
X083340Y012250D03*
X070090Y016550D03*
Y017150D03*
Y017650D03*
X070640Y018050D03*
X068740Y016500D03*
X068640Y015950D03*
X067490Y017650D03*
X065213Y017500D03*
X065713Y018300D03*
X065340Y018950D03*
X063690Y018600D03*
Y019450D03*
Y020300D03*
X064340Y016500D03*
X067413Y021250D03*
X067790Y021700D03*
X065340Y024500D03*
X064590Y024750D03*
X062890Y028500D03*
X060990Y031100D03*
X060090Y030500D03*
Y023150D03*
X059340Y022800D03*
X060990Y023500D03*
X062090Y020300D03*
Y019450D03*
Y018600D03*
X057890Y016500D03*
Y021300D03*
X054690Y022150D03*
X055740Y025350D03*
X056901Y024745D03*
X059140Y031900D03*
X058240Y035300D03*
X058490Y036550D03*
X061990Y036050D03*
X061190Y034700D03*
X057438Y043948D03*
X050390Y043690D03*
Y042690D03*
X049590Y042240D03*
X048790Y042690D03*
Y043690D03*
X049590Y044140D03*
X064740Y043950D03*
X065190Y040950D03*
X064934Y039694D03*
X068390Y039900D03*
X067840Y038750D03*
X065840Y036300D03*
X063940Y036200D03*
X069490Y035450D03*
X070740Y037050D03*
X071890Y034500D03*
X072440Y033200D03*
X076090Y035100D03*
X077290Y035900D03*
X076640Y036650D03*
X078490Y031350D03*
X082590Y041750D03*
Y042700D03*
X083340Y043100D03*
X084040Y042700D03*
Y041750D03*
X083340Y041340D03*
G54D9501*
X062940Y011623D03*
Y012450D03*
X064940Y012623D03*
Y013450D03*
Y011300D03*
Y010473D03*
G54D9502*
X069590Y010300D03*
Y012300D03*
X070690Y014100D03*
X071690D03*
X072690D03*
X072590Y012300D03*
Y010300D03*
G54D9503*
X074440Y013200D03*
X075440D03*
X076440D03*
X077440D03*
X078440D03*
X079440D03*
X079340Y015200D03*
X080340D03*
X081340D03*
X082340D03*
Y016200D03*
X081340D03*
Y017200D03*
X082340D03*
Y018200D03*
X081340D03*
Y019200D03*
X082340D03*
Y020200D03*
X081340D03*
Y021200D03*
X082340D03*
Y022200D03*
X081340D03*
Y023200D03*
X082340D03*
Y024200D03*
X081340D03*
Y025200D03*
X082340D03*
Y026200D03*
X081340D03*
Y027200D03*
X082340D03*
Y028200D03*
X081340D03*
Y029200D03*
X082340D03*
Y030200D03*
X081340D03*
Y031200D03*
X082340D03*
X080340D03*
Y030200D03*
Y029200D03*
Y028200D03*
Y027200D03*
Y026200D03*
Y025200D03*
Y024200D03*
Y023200D03*
Y022200D03*
Y021200D03*
Y020200D03*
Y019200D03*
Y018200D03*
Y017200D03*
Y016200D03*
X079340D03*
Y017200D03*
Y018200D03*
Y019200D03*
Y020200D03*
Y021200D03*
Y022200D03*
Y023200D03*
Y024200D03*
Y025200D03*
Y026200D03*
Y027200D03*
Y028200D03*
Y029200D03*
Y030200D03*
Y031200D03*
X077290Y030500D03*
Y029500D03*
Y028500D03*
Y027500D03*
Y026500D03*
Y025500D03*
Y024500D03*
Y023500D03*
Y022500D03*
Y021500D03*
Y020500D03*
X076790Y019500D03*
X075790D03*
X074790D03*
X073790D03*
X072790D03*
X071790D03*
X071290Y020500D03*
Y021500D03*
Y022500D03*
Y023500D03*
Y024500D03*
Y025500D03*
Y026500D03*
Y027500D03*
Y028500D03*
Y029500D03*
Y030500D03*
X072440Y024950D03*
Y023950D03*
X071290Y031500D03*
X077290D03*
X076790Y041000D03*
X075790D03*
X077790D03*
X079340Y040200D03*
Y039200D03*
Y038200D03*
Y037200D03*
Y036200D03*
Y035200D03*
Y034200D03*
Y033200D03*
Y032200D03*
X080340D03*
X081340D03*
X082340D03*
Y033200D03*
X081340D03*
Y034200D03*
X082340D03*
Y035200D03*
X081340D03*
Y036200D03*
X082340D03*
Y037200D03*
X081340D03*
Y038200D03*
X082340D03*
Y039200D03*
X081340D03*
Y040200D03*
X082340D03*
X080340D03*
Y039200D03*
Y038200D03*
Y037200D03*
Y036200D03*
Y035200D03*
Y034200D03*
Y033200D03*
G54D9504*
X068074Y010523D03*
Y025877D03*
X063732Y022495D03*
X058673Y026865D03*
X048377Y022495D03*
X058673Y042220D03*
X063051Y033928D03*
X078405D03*
G54D9505*
X049590Y011700D03*
X083340Y013200D03*
X049590Y043200D03*
X083340Y042200D03*
G54D9506*
X068074Y012850D03*
X050840Y022495D03*
X058673Y039900D03*
X065540Y033928D03*
M02*