G04 Layer_Color=32768*
%FSLAX25Y25*%
%MOIN*%
G70*
G01*
G75*
%ADD63C,0.00197*%
%ADD64C,0.00394*%
D63*
X-200244Y181768D02*
X-186071D01*
X-200244Y165232D02*
X-186071D01*
Y181768D01*
X-200244Y165232D02*
Y181768D01*
X-200130Y213032D02*
Y241968D01*
X-178870Y213032D02*
Y241968D01*
X-200130Y213032D02*
X-178870D01*
X-200130Y241968D02*
X-178870D01*
X-141587Y181768D02*
X-127413D01*
X-141587Y165232D02*
X-127413D01*
Y181768D01*
X-141587Y165232D02*
Y181768D01*
X-83087D02*
X-68913D01*
X-83087Y165232D02*
X-68913D01*
Y181768D01*
X-83087Y165232D02*
Y181768D01*
X-82630Y213032D02*
Y241968D01*
X-61370Y213032D02*
Y241968D01*
X-82630Y213032D02*
X-61370D01*
X-82630Y241968D02*
X-61370D01*
X-141630Y213032D02*
Y241968D01*
X-120370Y213032D02*
Y241968D01*
X-141630Y213032D02*
X-120370D01*
X-141630Y241968D02*
X-120370D01*
D64*
X-193157Y171531D02*
Y175469D01*
X-195126Y173500D02*
X-191189D01*
X-191469Y227500D02*
X-187531D01*
X-189500Y225532D02*
Y229468D01*
X-134500Y171531D02*
Y175469D01*
X-136469Y173500D02*
X-132531D01*
X-76000Y171531D02*
Y175469D01*
X-77969Y173500D02*
X-74032D01*
X-73968Y227500D02*
X-70031D01*
X-72000Y225532D02*
Y229468D01*
X-132968Y227500D02*
X-129032D01*
X-131000Y225532D02*
Y229468D01*
M02*
