G04 Layer_Physical_Order=2*
G04 Layer_Color=16711680*
%FSLAX25Y25*%
%MOIN*%
G70*
G01*
G75*
%ADD14C,0.01000*%
%ADD15C,0.03000*%
%ADD16C,0.05000*%
%ADD17C,0.04000*%
%ADD18C,0.02000*%
%ADD19C,0.08000*%
%ADD20R,0.07000X0.07000*%
%ADD21C,0.07000*%
%ADD22O,0.08000X0.05000*%
%ADD23O,0.06000X0.08000*%
%ADD24C,0.06000*%
%ADD25C,0.08000*%
%ADD26O,0.08000X0.06000*%
%ADD27R,0.08000X0.08000*%
%ADD28C,0.23622*%
%ADD29C,0.04724*%
%ADD30R,0.08000X0.08000*%
%ADD31C,0.04000*%
%ADD32C,0.07874*%
%ADD33C,0.10000*%
%ADD34C,0.25000*%
G36*
X-17556Y347286D02*
X-15973Y346862D01*
X-14459Y346235D01*
X-13040Y345416D01*
X-11740Y344418D01*
X-10582Y343260D01*
X-9584Y341960D01*
X-8765Y340541D01*
X-8138Y339027D01*
X-7714Y337444D01*
X-7500Y335819D01*
Y335000D01*
Y20000D01*
Y19181D01*
X-7714Y17556D01*
X-8138Y15973D01*
X-8765Y14459D01*
X-9584Y13040D01*
X-10582Y11740D01*
X-11740Y10582D01*
X-13040Y9584D01*
X-14459Y8765D01*
X-15973Y8138D01*
X-17556Y7714D01*
X-19181Y7500D01*
X-330000D01*
X-345000Y22500D01*
X-358319D01*
X-359944Y22714D01*
X-361527Y23138D01*
X-363040Y23765D01*
X-364459Y24584D01*
X-365759Y25582D01*
X-366918Y26741D01*
X-367916Y28041D01*
X-368735Y29460D01*
X-369362Y30973D01*
X-369786Y32556D01*
X-370000Y34181D01*
Y35000D01*
Y325000D01*
Y325819D01*
X-369786Y327444D01*
X-369362Y329027D01*
X-368735Y330540D01*
X-367916Y331960D01*
X-366918Y333260D01*
X-365759Y334418D01*
X-364459Y335416D01*
X-363040Y336235D01*
X-361527Y336862D01*
X-359944Y337286D01*
X-358319Y337500D01*
X-345000D01*
X-335000Y347500D01*
X-19181D01*
X-17556Y347286D01*
D02*
G37*
%LPC*%
G36*
X-35500Y329480D02*
X-36789Y329310D01*
X-37990Y328813D01*
X-39021Y328021D01*
X-39812Y326990D01*
X-40310Y325789D01*
X-40480Y324500D01*
X-40310Y323211D01*
X-39812Y322010D01*
X-39021Y320979D01*
X-37990Y320187D01*
X-36789Y319690D01*
X-35500Y319520D01*
X-34211Y319690D01*
X-33010Y320187D01*
X-31979Y320979D01*
X-31187Y322010D01*
X-30690Y323211D01*
X-30520Y324500D01*
X-30690Y325789D01*
X-31187Y326990D01*
X-31979Y328021D01*
X-33010Y328813D01*
X-34211Y329310D01*
X-35500Y329480D01*
D02*
G37*
G36*
X-342400Y314526D02*
X-343183Y314423D01*
X-343913Y314121D01*
X-344540Y313640D01*
X-345021Y313013D01*
X-345323Y312283D01*
X-345426Y311500D01*
X-345323Y310717D01*
X-345021Y309987D01*
X-344540Y309360D01*
X-343913Y308879D01*
X-343183Y308577D01*
X-342400Y308474D01*
X-341696Y308567D01*
X-341531Y308393D01*
X-341406Y308123D01*
X-341867Y307522D01*
X-342291Y306499D01*
X-342832D01*
X-342943Y306765D01*
X-343504Y307496D01*
X-344235Y308057D01*
X-345086Y308410D01*
X-346000Y308530D01*
X-349000D01*
X-349914Y308410D01*
X-350765Y308057D01*
X-351496Y307496D01*
X-352057Y306765D01*
X-352229Y306349D01*
X-352771D01*
X-352943Y306765D01*
X-353504Y307496D01*
X-354235Y308057D01*
X-355086Y308410D01*
X-356000Y308530D01*
X-359000D01*
X-359914Y308410D01*
X-360765Y308057D01*
X-361496Y307496D01*
X-362057Y306765D01*
X-362410Y305914D01*
X-362530Y305000D01*
X-362410Y304086D01*
X-362057Y303235D01*
X-361496Y302504D01*
X-360765Y301943D01*
X-359914Y301590D01*
X-359000Y301470D01*
X-356000D01*
X-355086Y301590D01*
X-354235Y301943D01*
X-353504Y302504D01*
X-352943Y303235D01*
X-352771Y303650D01*
X-352229D01*
X-352057Y303235D01*
X-351496Y302504D01*
X-350765Y301943D01*
X-349914Y301590D01*
X-349000Y301470D01*
X-346000D01*
X-345086Y301590D01*
X-344235Y301943D01*
X-343504Y302504D01*
X-342943Y303235D01*
X-342832Y303501D01*
X-342291D01*
X-341867Y302478D01*
X-341066Y301434D01*
X-340022Y300633D01*
X-338805Y300129D01*
X-337500Y299957D01*
X-336195Y300129D01*
X-334978Y300633D01*
X-333934Y301434D01*
X-333133Y302478D01*
X-332771Y303352D01*
X-332229D01*
X-331868Y302478D01*
X-331066Y301434D01*
X-330022Y300633D01*
X-328805Y300129D01*
X-327500Y299957D01*
X-326195Y300129D01*
X-324978Y300633D01*
X-323934Y301434D01*
X-323132Y302478D01*
X-322629Y303695D01*
X-322457Y305000D01*
X-322629Y306305D01*
X-323132Y307522D01*
X-323934Y308566D01*
X-324978Y309367D01*
X-326195Y309871D01*
X-327500Y310043D01*
X-328771Y309876D01*
X-332198Y313302D01*
X-333025Y313855D01*
X-334000Y314049D01*
X-340794D01*
X-340887Y314121D01*
X-341617Y314423D01*
X-342400Y314526D01*
D02*
G37*
G36*
X-326500Y299035D02*
X-328500D01*
X-329544Y298897D01*
X-330517Y298494D01*
X-331353Y297853D01*
X-331994Y297017D01*
X-332250Y296399D01*
X-332791D01*
X-332943Y296765D01*
X-333504Y297496D01*
X-334235Y298057D01*
X-335086Y298410D01*
X-336000Y298530D01*
X-339000D01*
X-339914Y298410D01*
X-340765Y298057D01*
X-341496Y297496D01*
X-342057Y296765D01*
X-342229Y296350D01*
X-342771D01*
X-342943Y296765D01*
X-343504Y297496D01*
X-344235Y298057D01*
X-345086Y298410D01*
X-346000Y298530D01*
X-349000D01*
X-349914Y298410D01*
X-350765Y298057D01*
X-351496Y297496D01*
X-352057Y296765D01*
X-352229Y296350D01*
X-352771D01*
X-352943Y296765D01*
X-353504Y297496D01*
X-354235Y298057D01*
X-355086Y298410D01*
X-356000Y298530D01*
X-359000D01*
X-359914Y298410D01*
X-360765Y298057D01*
X-361496Y297496D01*
X-362057Y296765D01*
X-362410Y295914D01*
X-362530Y295000D01*
X-362410Y294086D01*
X-362057Y293235D01*
X-361496Y292504D01*
X-360765Y291943D01*
X-359914Y291590D01*
X-359000Y291470D01*
X-356000D01*
X-355086Y291590D01*
X-354235Y291943D01*
X-353504Y292504D01*
X-352943Y293235D01*
X-352771Y293651D01*
X-352229D01*
X-352057Y293235D01*
X-351496Y292504D01*
X-350765Y291943D01*
X-349914Y291590D01*
X-349000Y291470D01*
X-346000D01*
X-345086Y291590D01*
X-344235Y291943D01*
X-343504Y292504D01*
X-342943Y293235D01*
X-342771Y293651D01*
X-342229D01*
X-342057Y293235D01*
X-341496Y292504D01*
X-340765Y291943D01*
X-339914Y291590D01*
X-339000Y291470D01*
X-336000D01*
X-335086Y291590D01*
X-334235Y291943D01*
X-333504Y292504D01*
X-332943Y293235D01*
X-332791Y293601D01*
X-332250D01*
X-331994Y292983D01*
X-331353Y292147D01*
X-330517Y291506D01*
X-329544Y291103D01*
X-328500Y290966D01*
X-326500D01*
X-325456Y291103D01*
X-324483Y291506D01*
X-323647Y292147D01*
X-323006Y292983D01*
X-322603Y293956D01*
X-322465Y295000D01*
X-322603Y296044D01*
X-323006Y297017D01*
X-323647Y297853D01*
X-324483Y298494D01*
X-325456Y298897D01*
X-326500Y299035D01*
D02*
G37*
G36*
Y289035D02*
X-328500D01*
X-329544Y288897D01*
X-330517Y288494D01*
X-331353Y287853D01*
X-331994Y287017D01*
X-332229Y286449D01*
X-332771D01*
X-333006Y287017D01*
X-333647Y287853D01*
X-334483Y288494D01*
X-335456Y288897D01*
X-336500Y289035D01*
X-338500D01*
X-339544Y288897D01*
X-340517Y288494D01*
X-341353Y287853D01*
X-341994Y287017D01*
X-342397Y286044D01*
X-342534Y285000D01*
X-342397Y283956D01*
X-341994Y282983D01*
X-341353Y282147D01*
X-340517Y281506D01*
X-339544Y281103D01*
X-338500Y280965D01*
X-336500D01*
X-335456Y281103D01*
X-334483Y281506D01*
X-333647Y282147D01*
X-333006Y282983D01*
X-332771Y283551D01*
X-332229D01*
X-331994Y282983D01*
X-331353Y282147D01*
X-330517Y281506D01*
X-329544Y281103D01*
X-328500Y280965D01*
X-326500D01*
X-325456Y281103D01*
X-324483Y281506D01*
X-323647Y282147D01*
X-323006Y282983D01*
X-322603Y283956D01*
X-322465Y285000D01*
X-322603Y286044D01*
X-323006Y287017D01*
X-323647Y287853D01*
X-324483Y288494D01*
X-325456Y288897D01*
X-326500Y289035D01*
D02*
G37*
G36*
X-317500Y294035D02*
X-318544Y293897D01*
X-319517Y293494D01*
X-320353Y292853D01*
X-320994Y292017D01*
X-321397Y291044D01*
X-321534Y290000D01*
X-321397Y288956D01*
X-320994Y287983D01*
X-320353Y287147D01*
X-319517Y286506D01*
X-318544Y286103D01*
X-317500Y285965D01*
X-316456Y286103D01*
X-315483Y286506D01*
X-314647Y287147D01*
X-314006Y287983D01*
X-313603Y288956D01*
X-313465Y290000D01*
X-313603Y291044D01*
X-314006Y292017D01*
X-314647Y292853D01*
X-315483Y293494D01*
X-316456Y293897D01*
X-317500Y294035D01*
D02*
G37*
G36*
X-347500Y289035D02*
X-348544Y288897D01*
X-349517Y288494D01*
X-350353Y287853D01*
X-350994Y287017D01*
X-351397Y286044D01*
X-351535Y285000D01*
X-351397Y283956D01*
X-350994Y282983D01*
X-350353Y282147D01*
X-349517Y281506D01*
X-348544Y281103D01*
X-347500Y280965D01*
X-346456Y281103D01*
X-345483Y281506D01*
X-344647Y282147D01*
X-344006Y282983D01*
X-343603Y283956D01*
X-343465Y285000D01*
X-343603Y286044D01*
X-344006Y287017D01*
X-344647Y287853D01*
X-345483Y288494D01*
X-346456Y288897D01*
X-347500Y289035D01*
D02*
G37*
G36*
X-317500Y284034D02*
X-318544Y283897D01*
X-319517Y283494D01*
X-320353Y282853D01*
X-320994Y282017D01*
X-321397Y281044D01*
X-321534Y280000D01*
X-321397Y278956D01*
X-320994Y277983D01*
X-320353Y277147D01*
X-319517Y276506D01*
X-318544Y276103D01*
X-317500Y275965D01*
X-316456Y276103D01*
X-315483Y276506D01*
X-314647Y277147D01*
X-314006Y277983D01*
X-313603Y278956D01*
X-313465Y280000D01*
X-313603Y281044D01*
X-314006Y282017D01*
X-314647Y282853D01*
X-315483Y283494D01*
X-316456Y283897D01*
X-317500Y284034D01*
D02*
G37*
G36*
X-357500Y290035D02*
X-358544Y289897D01*
X-359517Y289494D01*
X-360353Y288853D01*
X-360994Y288017D01*
X-361397Y287044D01*
X-361535Y286000D01*
Y284000D01*
X-361397Y282956D01*
X-360994Y281983D01*
X-360353Y281147D01*
X-359517Y280506D01*
X-359048Y280312D01*
Y279771D01*
X-360022Y279367D01*
X-361066Y278566D01*
X-361867Y277522D01*
X-362371Y276305D01*
X-362543Y275000D01*
X-362371Y273695D01*
X-361867Y272478D01*
X-361066Y271434D01*
X-360022Y270633D01*
X-359048Y270229D01*
Y269688D01*
X-359517Y269494D01*
X-360353Y268853D01*
X-360994Y268017D01*
X-361397Y267044D01*
X-361535Y266000D01*
Y264000D01*
X-361397Y262956D01*
X-360994Y261983D01*
X-360353Y261147D01*
X-359517Y260506D01*
X-359048Y260312D01*
Y259771D01*
X-360022Y259367D01*
X-361066Y258566D01*
X-361867Y257522D01*
X-362371Y256305D01*
X-362543Y255000D01*
X-362371Y253695D01*
X-361867Y252478D01*
X-361066Y251434D01*
X-360022Y250633D01*
X-359148Y250271D01*
Y249729D01*
X-360022Y249367D01*
X-361066Y248566D01*
X-361867Y247522D01*
X-362371Y246305D01*
X-362543Y245000D01*
X-362371Y243695D01*
X-361867Y242478D01*
X-361066Y241434D01*
X-360022Y240633D01*
X-359148Y240271D01*
Y239729D01*
X-360022Y239368D01*
X-361066Y238566D01*
X-361867Y237522D01*
X-362371Y236305D01*
X-362543Y235000D01*
X-362371Y233695D01*
X-361867Y232478D01*
X-361066Y231434D01*
X-360022Y230632D01*
X-359148Y230271D01*
Y229729D01*
X-360022Y229367D01*
X-361066Y228566D01*
X-361867Y227522D01*
X-362371Y226305D01*
X-362543Y225000D01*
X-362371Y223695D01*
X-361867Y222478D01*
X-361066Y221434D01*
X-360022Y220633D01*
X-359148Y220271D01*
Y219729D01*
X-360022Y219368D01*
X-361066Y218566D01*
X-361867Y217522D01*
X-362371Y216305D01*
X-362477Y215500D01*
X-357500D01*
Y214500D01*
X-362543D01*
Y210000D01*
Y205500D01*
X-357500D01*
Y204500D01*
X-362477D01*
X-362371Y203695D01*
X-361867Y202478D01*
X-361066Y201434D01*
X-360022Y200633D01*
X-359148Y200271D01*
Y199729D01*
X-360022Y199367D01*
X-361066Y198566D01*
X-361867Y197522D01*
X-362371Y196305D01*
X-362477Y195500D01*
X-357500D01*
Y194500D01*
X-362477D01*
X-362371Y193695D01*
X-361867Y192478D01*
X-361066Y191434D01*
X-360022Y190632D01*
X-359148Y190271D01*
Y189729D01*
X-360022Y189367D01*
X-361066Y188566D01*
X-361867Y187522D01*
X-362371Y186305D01*
X-362543Y185000D01*
X-362371Y183695D01*
X-361867Y182478D01*
X-361066Y181434D01*
X-360022Y180632D01*
X-359148Y180271D01*
Y179729D01*
X-360022Y179367D01*
X-361066Y178566D01*
X-361867Y177522D01*
X-362371Y176305D01*
X-362543Y175000D01*
X-362371Y173695D01*
X-361867Y172478D01*
X-361066Y171434D01*
X-360022Y170633D01*
X-359148Y170271D01*
Y169729D01*
X-360022Y169368D01*
X-361066Y168566D01*
X-361867Y167522D01*
X-362371Y166305D01*
X-362543Y165000D01*
X-362371Y163695D01*
X-361867Y162478D01*
X-361066Y161434D01*
X-360022Y160633D01*
X-359148Y160271D01*
Y159729D01*
X-360022Y159368D01*
X-361066Y158566D01*
X-361867Y157522D01*
X-362371Y156305D01*
X-362543Y155000D01*
X-362371Y153695D01*
X-361867Y152478D01*
X-361066Y151434D01*
X-360022Y150633D01*
X-359148Y150271D01*
Y149729D01*
X-360022Y149367D01*
X-361066Y148566D01*
X-361867Y147522D01*
X-362371Y146305D01*
X-362543Y145000D01*
X-362371Y143695D01*
X-361867Y142478D01*
X-361066Y141434D01*
X-360022Y140632D01*
X-359148Y140271D01*
Y139729D01*
X-360022Y139367D01*
X-361066Y138566D01*
X-361867Y137522D01*
X-362371Y136305D01*
X-362543Y135000D01*
X-362371Y133695D01*
X-361867Y132478D01*
X-361066Y131434D01*
X-360022Y130632D01*
X-359148Y130271D01*
Y129729D01*
X-360022Y129367D01*
X-361066Y128566D01*
X-361867Y127522D01*
X-362371Y126305D01*
X-362543Y125000D01*
X-362371Y123695D01*
X-361867Y122478D01*
X-361066Y121434D01*
X-360022Y120633D01*
X-359148Y120271D01*
Y119729D01*
X-360022Y119368D01*
X-361066Y118566D01*
X-361867Y117522D01*
X-362371Y116305D01*
X-362543Y115000D01*
X-362371Y113695D01*
X-361867Y112478D01*
X-361066Y111434D01*
X-360022Y110633D01*
X-359148Y110271D01*
Y109729D01*
X-360022Y109368D01*
X-361066Y108566D01*
X-361867Y107522D01*
X-362371Y106305D01*
X-362543Y105000D01*
X-362371Y103695D01*
X-361867Y102478D01*
X-361066Y101434D01*
X-360022Y100633D01*
X-359148Y100271D01*
Y99729D01*
X-360022Y99367D01*
X-361066Y98566D01*
X-361867Y97522D01*
X-362371Y96305D01*
X-362543Y95000D01*
X-362371Y93695D01*
X-361867Y92478D01*
X-361066Y91434D01*
X-360022Y90632D01*
X-359148Y90271D01*
Y89729D01*
X-360022Y89368D01*
X-361066Y88566D01*
X-361867Y87522D01*
X-362371Y86305D01*
X-362543Y85000D01*
X-362371Y83695D01*
X-361867Y82478D01*
X-361066Y81434D01*
X-360022Y80633D01*
X-359148Y80271D01*
Y79729D01*
X-360022Y79368D01*
X-361066Y78566D01*
X-361867Y77522D01*
X-362371Y76305D01*
X-362543Y75000D01*
X-362371Y73695D01*
X-361867Y72478D01*
X-361066Y71434D01*
X-360022Y70632D01*
X-359148Y70271D01*
Y69729D01*
X-360022Y69367D01*
X-361066Y68566D01*
X-361867Y67522D01*
X-362371Y66305D01*
X-362543Y65000D01*
X-362371Y63695D01*
X-361867Y62478D01*
X-361066Y61434D01*
X-360022Y60632D01*
X-359148Y60271D01*
Y59729D01*
X-360022Y59368D01*
X-361066Y58566D01*
X-361867Y57522D01*
X-362371Y56305D01*
X-362543Y55000D01*
X-362371Y53695D01*
X-361867Y52478D01*
X-361066Y51434D01*
X-360022Y50633D01*
X-358805Y50129D01*
X-357500Y49957D01*
X-356195Y50129D01*
X-354978Y50633D01*
X-353934Y51434D01*
X-353133Y52478D01*
X-353000Y52798D01*
X-352500Y52699D01*
Y50000D01*
X-342500D01*
Y52699D01*
X-342000Y52798D01*
X-341867Y52478D01*
X-341066Y51434D01*
X-340022Y50633D01*
X-338805Y50129D01*
X-337500Y49957D01*
X-336195Y50129D01*
X-334978Y50633D01*
X-333934Y51434D01*
X-333133Y52478D01*
X-333000Y52798D01*
X-332500Y52699D01*
Y50000D01*
X-322500D01*
Y60000D01*
X-325199D01*
X-325298Y60500D01*
X-324978Y60632D01*
X-323934Y61434D01*
X-323132Y62478D01*
X-322629Y63695D01*
X-322457Y65000D01*
X-322629Y66305D01*
X-323132Y67522D01*
X-323934Y68566D01*
X-324978Y69367D01*
X-325852Y69729D01*
Y70271D01*
X-324978Y70632D01*
X-323934Y71434D01*
X-323132Y72478D01*
X-322629Y73695D01*
X-322457Y75000D01*
X-322629Y76305D01*
X-323132Y77522D01*
X-323934Y78566D01*
X-324978Y79368D01*
X-325852Y79729D01*
Y80271D01*
X-324978Y80633D01*
X-323934Y81434D01*
X-323132Y82478D01*
X-322629Y83695D01*
X-322457Y85000D01*
X-322629Y86305D01*
X-323132Y87522D01*
X-323934Y88566D01*
X-324978Y89368D01*
X-325852Y89729D01*
Y90271D01*
X-324978Y90632D01*
X-323934Y91434D01*
X-323132Y92478D01*
X-322629Y93695D01*
X-322457Y95000D01*
X-322629Y96305D01*
X-323132Y97522D01*
X-323934Y98566D01*
X-324978Y99367D01*
X-325852Y99729D01*
Y100271D01*
X-324978Y100633D01*
X-323934Y101434D01*
X-323132Y102478D01*
X-322629Y103695D01*
X-322457Y105000D01*
X-322629Y106305D01*
X-323132Y107522D01*
X-323934Y108566D01*
X-324978Y109368D01*
X-325852Y109729D01*
Y110271D01*
X-324978Y110633D01*
X-323934Y111434D01*
X-323132Y112478D01*
X-322629Y113695D01*
X-322457Y115000D01*
X-322629Y116305D01*
X-323132Y117522D01*
X-323934Y118566D01*
X-324978Y119368D01*
X-325852Y119729D01*
Y120271D01*
X-324978Y120633D01*
X-323934Y121434D01*
X-323132Y122478D01*
X-322629Y123695D01*
X-322457Y125000D01*
X-322629Y126305D01*
X-323132Y127522D01*
X-323934Y128566D01*
X-324978Y129367D01*
X-325852Y129729D01*
Y130271D01*
X-324978Y130632D01*
X-323934Y131434D01*
X-323132Y132478D01*
X-322629Y133695D01*
X-322457Y135000D01*
X-322629Y136305D01*
X-323132Y137522D01*
X-323934Y138566D01*
X-324978Y139367D01*
X-325852Y139729D01*
Y140271D01*
X-324978Y140632D01*
X-323934Y141434D01*
X-323132Y142478D01*
X-322629Y143695D01*
X-322457Y145000D01*
X-322629Y146305D01*
X-323132Y147522D01*
X-323934Y148566D01*
X-324978Y149367D01*
X-325852Y149729D01*
Y150271D01*
X-324978Y150633D01*
X-323934Y151434D01*
X-323132Y152478D01*
X-322629Y153695D01*
X-322457Y155000D01*
X-322629Y156305D01*
X-323132Y157522D01*
X-323934Y158566D01*
X-324978Y159368D01*
X-325852Y159729D01*
Y160271D01*
X-324978Y160633D01*
X-323934Y161434D01*
X-323132Y162478D01*
X-322629Y163695D01*
X-322457Y165000D01*
X-322629Y166305D01*
X-323132Y167522D01*
X-323934Y168566D01*
X-324978Y169368D01*
X-325852Y169729D01*
Y170271D01*
X-324978Y170633D01*
X-323934Y171434D01*
X-323132Y172478D01*
X-322629Y173695D01*
X-322457Y175000D01*
X-322629Y176305D01*
X-323132Y177522D01*
X-323934Y178566D01*
X-324978Y179367D01*
X-326195Y179871D01*
X-327500Y180043D01*
X-328805Y179871D01*
X-330022Y179367D01*
X-331066Y178566D01*
X-331868Y177522D01*
X-332229Y176648D01*
X-332771D01*
X-333133Y177522D01*
X-333934Y178566D01*
X-334978Y179367D01*
X-336195Y179871D01*
X-337500Y180043D01*
X-338805Y179871D01*
X-340022Y179367D01*
X-341066Y178566D01*
X-341867Y177522D01*
X-342229Y176648D01*
X-342771D01*
X-343132Y177522D01*
X-343934Y178566D01*
X-344978Y179367D01*
X-345852Y179729D01*
Y180271D01*
X-344978Y180632D01*
X-343934Y181434D01*
X-343132Y182478D01*
X-342729Y183452D01*
X-342188D01*
X-341994Y182983D01*
X-341353Y182147D01*
X-340517Y181506D01*
X-339544Y181103D01*
X-338500Y180965D01*
X-336500D01*
X-335456Y181103D01*
X-334483Y181506D01*
X-333647Y182147D01*
X-333006Y182983D01*
X-332771Y183551D01*
X-332229D01*
X-331994Y182983D01*
X-331353Y182147D01*
X-330517Y181506D01*
X-329544Y181103D01*
X-328500Y180965D01*
X-326500D01*
X-325456Y181103D01*
X-324483Y181506D01*
X-323647Y182147D01*
X-323006Y182983D01*
X-322603Y183956D01*
X-322465Y185000D01*
X-322603Y186044D01*
X-323006Y187017D01*
X-323647Y187853D01*
X-324483Y188494D01*
X-325456Y188897D01*
X-326500Y189034D01*
X-328500D01*
X-329544Y188897D01*
X-330517Y188494D01*
X-331353Y187853D01*
X-331994Y187017D01*
X-332229Y186449D01*
X-332771D01*
X-333006Y187017D01*
X-333647Y187853D01*
X-334483Y188494D01*
X-335456Y188897D01*
X-336500Y189034D01*
X-338500D01*
X-339544Y188897D01*
X-340517Y188494D01*
X-341353Y187853D01*
X-341994Y187017D01*
X-342188Y186548D01*
X-342729D01*
X-343132Y187522D01*
X-343934Y188566D01*
X-344978Y189367D01*
X-346195Y189871D01*
X-347500Y190043D01*
X-348805Y189871D01*
X-350022Y189367D01*
X-351066Y188566D01*
X-351868Y187522D01*
X-352229Y186648D01*
X-352771D01*
X-353133Y187522D01*
X-353934Y188566D01*
X-354978Y189367D01*
X-355852Y189729D01*
Y190271D01*
X-354978Y190632D01*
X-353934Y191434D01*
X-353133Y192478D01*
X-352729Y193452D01*
X-352188D01*
X-351994Y192983D01*
X-351353Y192147D01*
X-350517Y191506D01*
X-349544Y191103D01*
X-348500Y190965D01*
X-348000D01*
Y195000D01*
X-347000D01*
Y190965D01*
X-346500D01*
X-345456Y191103D01*
X-344483Y191506D01*
X-343647Y192147D01*
X-343006Y192983D01*
X-342771Y193551D01*
X-342229D01*
X-341994Y192983D01*
X-341353Y192147D01*
X-340517Y191506D01*
X-339544Y191103D01*
X-338500Y190965D01*
X-336500D01*
X-335456Y191103D01*
X-334483Y191506D01*
X-333647Y192147D01*
X-333006Y192983D01*
X-332771Y193551D01*
X-332229D01*
X-331994Y192983D01*
X-331353Y192147D01*
X-330517Y191506D01*
X-329544Y191103D01*
X-328500Y190965D01*
X-326500D01*
X-325456Y191103D01*
X-324483Y191506D01*
X-323647Y192147D01*
X-323006Y192983D01*
X-322603Y193956D01*
X-322465Y195000D01*
X-322603Y196044D01*
X-323006Y197017D01*
X-323346Y197461D01*
X-323100Y197961D01*
X-317500D01*
X-316720Y198116D01*
X-316058Y198558D01*
X-315616Y199220D01*
X-315461Y200000D01*
X-315616Y200780D01*
X-316058Y201442D01*
X-316720Y201884D01*
X-317500Y202039D01*
X-323100D01*
X-323346Y202539D01*
X-323006Y202983D01*
X-322603Y203956D01*
X-322465Y205000D01*
X-322603Y206044D01*
X-323006Y207017D01*
X-323346Y207461D01*
X-323100Y207961D01*
X-317500D01*
X-316720Y208116D01*
X-316058Y208558D01*
X-315616Y209220D01*
X-315461Y210000D01*
X-315616Y210780D01*
X-316058Y211442D01*
X-316720Y211884D01*
X-317500Y212039D01*
X-323100D01*
X-323346Y212539D01*
X-323006Y212983D01*
X-322603Y213956D01*
X-322465Y215000D01*
X-322603Y216044D01*
X-323006Y217017D01*
X-323346Y217461D01*
X-323100Y217961D01*
X-317500D01*
X-316720Y218116D01*
X-316058Y218558D01*
X-315616Y219220D01*
X-315461Y220000D01*
X-315616Y220780D01*
X-316058Y221442D01*
X-316720Y221884D01*
X-317500Y222039D01*
X-323100D01*
X-323346Y222539D01*
X-323006Y222983D01*
X-322603Y223956D01*
X-322465Y225000D01*
X-322603Y226044D01*
X-323006Y227017D01*
X-323647Y227853D01*
X-324483Y228494D01*
X-325456Y228897D01*
X-326500Y229034D01*
X-328500D01*
X-329544Y228897D01*
X-330517Y228494D01*
X-331353Y227853D01*
X-331994Y227017D01*
X-332229Y226449D01*
X-332771D01*
X-333006Y227017D01*
X-333647Y227853D01*
X-334483Y228494D01*
X-335456Y228897D01*
X-336500Y229034D01*
X-338500D01*
X-339544Y228897D01*
X-340517Y228494D01*
X-341353Y227853D01*
X-341994Y227017D01*
X-342229Y226449D01*
X-342771D01*
X-343006Y227017D01*
X-343647Y227853D01*
X-344483Y228494D01*
X-345456Y228897D01*
X-346500Y229034D01*
X-348500D01*
X-349544Y228897D01*
X-350517Y228494D01*
X-351353Y227853D01*
X-351994Y227017D01*
X-352188Y226548D01*
X-352729D01*
X-353133Y227522D01*
X-353934Y228566D01*
X-354978Y229367D01*
X-355852Y229729D01*
Y230271D01*
X-354978Y230632D01*
X-353934Y231434D01*
X-353133Y232478D01*
X-352771Y233352D01*
X-352229D01*
X-351868Y232478D01*
X-351066Y231434D01*
X-350022Y230632D01*
X-348805Y230129D01*
X-347500Y229957D01*
X-346195Y230129D01*
X-344978Y230632D01*
X-343934Y231434D01*
X-343132Y232478D01*
X-342771Y233352D01*
X-342229D01*
X-341867Y232478D01*
X-341066Y231434D01*
X-340022Y230632D01*
X-338805Y230129D01*
X-337500Y229957D01*
X-336195Y230129D01*
X-334978Y230632D01*
X-333934Y231434D01*
X-333133Y232478D01*
X-332771Y233352D01*
X-332229D01*
X-331868Y232478D01*
X-331066Y231434D01*
X-330022Y230632D01*
X-328805Y230129D01*
X-327500Y229957D01*
X-326195Y230129D01*
X-324978Y230632D01*
X-323934Y231434D01*
X-323132Y232478D01*
X-322629Y233695D01*
X-322457Y235000D01*
X-322629Y236305D01*
X-323132Y237522D01*
X-323934Y238566D01*
X-324978Y239368D01*
X-325852Y239729D01*
Y240271D01*
X-324978Y240633D01*
X-323934Y241434D01*
X-323132Y242478D01*
X-322629Y243695D01*
X-322457Y245000D01*
X-322629Y246305D01*
X-323132Y247522D01*
X-323934Y248566D01*
X-324978Y249367D01*
X-326195Y249871D01*
X-327500Y250043D01*
X-328805Y249871D01*
X-330022Y249367D01*
X-331066Y248566D01*
X-331868Y247522D01*
X-332229Y246648D01*
X-332771D01*
X-333133Y247522D01*
X-333934Y248566D01*
X-334978Y249367D01*
X-336195Y249871D01*
X-337500Y250043D01*
X-338805Y249871D01*
X-340022Y249367D01*
X-341066Y248566D01*
X-341867Y247522D01*
X-342229Y246648D01*
X-342771D01*
X-343132Y247522D01*
X-343934Y248566D01*
X-344978Y249367D01*
X-346195Y249871D01*
X-347500Y250043D01*
X-348805Y249871D01*
X-350022Y249367D01*
X-351066Y248566D01*
X-351868Y247522D01*
X-352229Y246648D01*
X-352771D01*
X-353133Y247522D01*
X-353934Y248566D01*
X-354978Y249367D01*
X-355852Y249729D01*
Y250271D01*
X-354978Y250633D01*
X-353934Y251434D01*
X-353133Y252478D01*
X-352729Y253452D01*
X-352188D01*
X-351994Y252983D01*
X-351353Y252147D01*
X-350517Y251506D01*
X-349544Y251103D01*
X-348500Y250965D01*
X-346500D01*
X-345456Y251103D01*
X-344483Y251506D01*
X-343647Y252147D01*
X-343006Y252983D01*
X-342771Y253551D01*
X-342229D01*
X-341994Y252983D01*
X-341353Y252147D01*
X-340517Y251506D01*
X-339544Y251103D01*
X-338500Y250965D01*
X-336500D01*
X-335456Y251103D01*
X-334483Y251506D01*
X-333647Y252147D01*
X-333006Y252983D01*
X-332771Y253551D01*
X-332229D01*
X-331994Y252983D01*
X-331353Y252147D01*
X-330517Y251506D01*
X-329544Y251103D01*
X-328500Y250965D01*
X-326500D01*
X-325456Y251103D01*
X-324483Y251506D01*
X-323647Y252147D01*
X-323006Y252983D01*
X-322603Y253956D01*
X-322465Y255000D01*
X-322576Y255842D01*
X-322103Y256076D01*
X-199229Y133202D01*
X-199141Y132647D01*
X-199233Y132518D01*
X-199620Y132013D01*
X-199923Y131283D01*
X-200026Y130500D01*
X-199923Y129717D01*
X-199620Y128987D01*
X-199140Y128360D01*
X-198529Y127892D01*
Y102134D01*
X-220203Y80460D01*
X-221195Y80871D01*
X-222500Y81043D01*
X-223805Y80871D01*
X-225022Y80367D01*
X-226066Y79566D01*
X-226868Y78522D01*
X-227229Y77648D01*
X-227771D01*
X-228133Y78522D01*
X-228934Y79566D01*
X-229978Y80367D01*
X-231195Y80871D01*
X-232500Y81043D01*
X-233805Y80871D01*
X-235022Y80367D01*
X-236066Y79566D01*
X-236867Y78522D01*
X-237229Y77648D01*
X-237771D01*
X-238133Y78522D01*
X-238934Y79566D01*
X-239978Y80367D01*
X-241195Y80871D01*
X-242500Y81043D01*
X-243805Y80871D01*
X-245022Y80367D01*
X-246066Y79566D01*
X-246867Y78522D01*
X-247229Y77648D01*
X-247771D01*
X-248132Y78522D01*
X-248934Y79566D01*
X-249978Y80367D01*
X-251195Y80871D01*
X-252000Y80977D01*
Y76000D01*
Y71023D01*
X-251195Y71129D01*
X-249978Y71632D01*
X-248934Y72434D01*
X-248132Y73478D01*
X-247771Y74352D01*
X-247229D01*
X-246867Y73478D01*
X-246066Y72434D01*
X-245022Y71632D01*
X-243805Y71129D01*
X-242500Y70957D01*
X-241195Y71129D01*
X-239978Y71632D01*
X-238934Y72434D01*
X-238133Y73478D01*
X-237771Y74352D01*
X-237229D01*
X-236867Y73478D01*
X-236066Y72434D01*
X-235022Y71632D01*
X-233805Y71129D01*
X-232500Y70957D01*
X-231195Y71129D01*
X-229978Y71632D01*
X-228934Y72434D01*
X-228133Y73478D01*
X-227771Y74352D01*
X-227229D01*
X-226868Y73478D01*
X-226066Y72434D01*
X-225022Y71632D01*
X-223805Y71129D01*
X-222500Y70957D01*
X-221195Y71129D01*
X-219978Y71632D01*
X-218934Y72434D01*
X-218132Y73478D01*
X-217771Y74352D01*
X-217229D01*
X-216867Y73478D01*
X-216066Y72434D01*
X-215022Y71632D01*
X-213805Y71129D01*
X-212500Y70957D01*
X-211195Y71129D01*
X-209978Y71632D01*
X-208934Y72434D01*
X-208133Y73478D01*
X-207771Y74352D01*
X-207229D01*
X-206868Y73478D01*
X-206066Y72434D01*
X-205022Y71632D01*
X-203805Y71129D01*
X-202500Y70957D01*
X-201195Y71129D01*
X-199978Y71632D01*
X-198934Y72434D01*
X-198133Y73478D01*
X-197771Y74352D01*
X-197229D01*
X-196868Y73478D01*
X-196066Y72434D01*
X-195022Y71632D01*
X-193805Y71129D01*
X-192500Y70957D01*
X-191195Y71129D01*
X-189978Y71632D01*
X-188934Y72434D01*
X-188133Y73478D01*
X-187771Y74352D01*
X-187229D01*
X-186867Y73478D01*
X-186066Y72434D01*
X-185022Y71632D01*
X-183805Y71129D01*
X-182500Y70957D01*
X-181195Y71129D01*
X-179978Y71632D01*
X-178934Y72434D01*
X-178132Y73478D01*
X-177771Y74352D01*
X-177229D01*
X-176867Y73478D01*
X-176066Y72434D01*
X-175022Y71632D01*
X-173805Y71129D01*
X-172500Y70957D01*
X-171195Y71129D01*
X-169978Y71632D01*
X-168934Y72434D01*
X-168132Y73478D01*
X-167771Y74352D01*
X-167229D01*
X-166867Y73478D01*
X-166066Y72434D01*
X-165022Y71632D01*
X-163805Y71129D01*
X-162500Y70957D01*
X-161195Y71129D01*
X-159978Y71632D01*
X-158934Y72434D01*
X-158133Y73478D01*
X-157771Y74352D01*
X-157229D01*
X-156868Y73478D01*
X-156066Y72434D01*
X-155022Y71632D01*
X-153805Y71129D01*
X-152619Y70973D01*
X-152372Y70513D01*
X-156855Y66029D01*
X-213222D01*
X-213632Y67022D01*
X-214434Y68066D01*
X-215478Y68867D01*
X-216695Y69371D01*
X-218000Y69543D01*
X-219305Y69371D01*
X-220522Y68867D01*
X-221566Y68066D01*
X-222368Y67022D01*
X-222729Y66148D01*
X-223271D01*
X-223633Y67022D01*
X-224434Y68066D01*
X-225478Y68867D01*
X-226695Y69371D01*
X-228000Y69543D01*
X-229305Y69371D01*
X-230522Y68867D01*
X-231566Y68066D01*
X-232367Y67022D01*
X-232871Y65805D01*
X-233043Y64500D01*
X-232871Y63195D01*
X-232367Y61978D01*
X-231566Y60934D01*
X-230522Y60132D01*
X-229305Y59629D01*
X-228000Y59457D01*
X-226695Y59629D01*
X-225703Y60040D01*
X-223581Y57919D01*
X-223085Y57587D01*
X-222500Y57471D01*
X-158893D01*
X-158308Y57587D01*
X-157812Y57919D01*
X-144230Y71500D01*
X-140500D01*
Y76000D01*
Y80500D01*
X-143471D01*
Y132367D01*
X-133263Y142575D01*
X-132500Y142474D01*
X-131717Y142577D01*
X-130987Y142879D01*
X-130360Y143360D01*
X-129879Y143987D01*
X-129577Y144717D01*
X-129474Y145500D01*
X-129577Y146283D01*
X-129644Y146444D01*
X-129220Y146728D01*
X-126780Y144288D01*
Y82613D01*
X-127140Y82566D01*
X-127870Y82264D01*
X-128496Y81783D01*
X-129771Y80509D01*
X-130000Y80539D01*
X-131175Y80384D01*
X-132269Y79931D01*
X-133209Y79210D01*
X-133931Y78269D01*
X-134384Y77175D01*
X-134539Y76000D01*
X-134384Y74825D01*
X-133931Y73731D01*
X-133209Y72791D01*
X-132269Y72069D01*
X-131175Y71616D01*
X-130000Y71461D01*
X-128825Y71616D01*
X-127731Y72069D01*
X-126791Y72791D01*
X-126069Y73731D01*
X-125616Y74825D01*
X-125461Y76000D01*
X-125012Y76284D01*
X-124883Y76284D01*
X-118459Y69860D01*
X-118371Y69195D01*
X-117868Y67978D01*
X-117066Y66934D01*
X-116022Y66132D01*
X-115148Y65771D01*
Y65229D01*
X-116022Y64868D01*
X-117066Y64066D01*
X-117868Y63022D01*
X-118371Y61805D01*
X-118543Y60500D01*
X-118371Y59195D01*
X-117868Y57978D01*
X-117154Y57049D01*
X-117323Y56549D01*
X-119000D01*
X-119975Y56355D01*
X-120802Y55802D01*
X-129675Y46930D01*
X-130500Y47039D01*
X-131675Y46884D01*
X-132769Y46431D01*
X-133709Y45709D01*
X-134431Y44769D01*
X-134884Y43675D01*
X-135039Y42500D01*
X-134884Y41325D01*
X-134431Y40231D01*
X-133709Y39291D01*
X-132769Y38569D01*
X-131675Y38116D01*
X-130500Y37961D01*
X-129325Y38116D01*
X-128231Y38569D01*
X-127291Y39291D01*
X-126569Y40231D01*
X-126116Y41325D01*
X-125961Y42500D01*
X-126070Y43325D01*
X-125217Y44179D01*
X-124793Y43895D01*
X-124884Y43675D01*
X-125039Y42500D01*
X-124884Y41325D01*
X-124431Y40231D01*
X-123709Y39291D01*
X-122769Y38569D01*
X-121675Y38116D01*
X-120500Y37961D01*
X-119325Y38116D01*
X-118231Y38569D01*
X-117290Y39291D01*
X-116569Y40231D01*
X-116116Y41325D01*
X-115961Y42500D01*
X-116116Y43675D01*
X-116569Y44769D01*
X-117290Y45709D01*
X-118231Y46431D01*
X-119325Y46884D01*
X-120500Y47039D01*
X-121675Y46884D01*
X-121895Y46793D01*
X-122178Y47217D01*
X-117944Y51451D01*
X-110808D01*
X-109832Y51645D01*
X-109005Y52198D01*
X-105198Y56005D01*
X-104645Y56832D01*
X-104451Y57808D01*
Y74000D01*
X-104645Y74976D01*
X-105198Y75802D01*
X-106884Y77489D01*
X-106693Y77951D01*
X-79347D01*
X-78566Y76934D01*
X-77522Y76133D01*
X-76648Y75771D01*
Y75229D01*
X-77522Y74867D01*
X-78566Y74066D01*
X-79368Y73022D01*
X-79871Y71805D01*
X-80043Y70500D01*
X-79871Y69195D01*
X-79368Y67978D01*
X-78566Y66934D01*
X-77522Y66132D01*
X-76648Y65771D01*
Y65229D01*
X-77522Y64868D01*
X-78566Y64066D01*
X-79368Y63022D01*
X-79871Y61805D01*
X-80043Y60500D01*
X-79871Y59195D01*
X-79368Y57978D01*
X-78566Y56934D01*
X-77522Y56133D01*
X-76305Y55629D01*
X-75000Y55457D01*
X-73695Y55629D01*
X-72478Y56133D01*
X-71434Y56934D01*
X-70632Y57978D01*
X-70129Y59195D01*
X-69957Y60500D01*
X-70129Y61805D01*
X-70632Y63022D01*
X-71434Y64066D01*
X-72478Y64868D01*
X-73352Y65229D01*
Y65771D01*
X-72478Y66132D01*
X-71434Y66934D01*
X-70632Y67978D01*
X-70129Y69195D01*
X-69957Y70500D01*
X-70129Y71805D01*
X-70632Y73022D01*
X-71434Y74066D01*
X-72478Y74867D01*
X-73352Y75229D01*
Y75771D01*
X-72478Y76133D01*
X-71434Y76934D01*
X-70653Y77951D01*
X-41346D01*
X-40566Y76934D01*
X-39522Y76133D01*
X-38648Y75771D01*
Y75229D01*
X-39522Y74867D01*
X-40566Y74066D01*
X-41368Y73022D01*
X-41871Y71805D01*
X-42043Y70500D01*
X-41871Y69195D01*
X-41368Y67978D01*
X-40566Y66934D01*
X-39522Y66132D01*
X-38648Y65771D01*
Y65229D01*
X-39522Y64868D01*
X-40566Y64066D01*
X-41368Y63022D01*
X-41871Y61805D01*
X-42043Y60500D01*
X-41871Y59195D01*
X-41368Y57978D01*
X-40566Y56934D01*
X-39522Y56133D01*
X-38305Y55629D01*
X-37000Y55457D01*
X-35695Y55629D01*
X-34478Y56133D01*
X-33434Y56934D01*
X-32632Y57978D01*
X-32129Y59195D01*
X-31957Y60500D01*
X-32129Y61805D01*
X-32632Y63022D01*
X-33434Y64066D01*
X-34478Y64868D01*
X-35352Y65229D01*
Y65771D01*
X-34478Y66132D01*
X-33434Y66934D01*
X-32632Y67978D01*
X-32129Y69195D01*
X-31957Y70500D01*
X-32129Y71805D01*
X-32632Y73022D01*
X-33434Y74066D01*
X-34478Y74867D01*
X-35352Y75229D01*
Y75771D01*
X-34478Y76133D01*
X-33434Y76934D01*
X-32632Y77978D01*
X-32129Y79195D01*
X-31957Y80500D01*
X-32129Y81805D01*
X-32632Y83022D01*
X-33434Y84066D01*
X-34478Y84868D01*
X-35695Y85371D01*
X-37000Y85543D01*
X-38305Y85371D01*
X-39522Y84868D01*
X-40566Y84066D01*
X-41346Y83049D01*
X-70653D01*
X-71434Y84066D01*
X-72478Y84868D01*
X-73695Y85371D01*
X-75000Y85543D01*
X-76305Y85371D01*
X-77522Y84868D01*
X-78566Y84066D01*
X-79347Y83049D01*
X-109153D01*
X-109934Y84066D01*
X-110978Y84868D01*
X-112195Y85371D01*
X-113500Y85543D01*
X-114805Y85371D01*
X-116022Y84868D01*
X-117066Y84066D01*
X-117868Y83022D01*
X-118371Y81805D01*
X-118527Y80620D01*
X-118987Y80373D01*
X-119720Y81106D01*
Y145750D01*
X-119840Y146664D01*
X-120193Y147515D01*
X-120754Y148246D01*
X-171470Y198962D01*
Y233135D01*
X-170737Y233737D01*
X-169987Y234650D01*
X-169430Y235693D01*
X-169087Y236824D01*
X-168971Y238000D01*
X-169087Y239176D01*
X-169430Y240307D01*
X-169987Y241350D01*
X-170737Y242263D01*
X-171651Y243013D01*
X-172693Y243570D01*
X-173824Y243913D01*
X-175000Y244029D01*
X-176176Y243913D01*
X-177307Y243570D01*
X-178349Y243013D01*
X-179263Y242263D01*
X-180013Y241350D01*
X-180570Y240307D01*
X-180913Y239176D01*
X-181029Y238000D01*
X-180913Y236824D01*
X-180570Y235693D01*
X-180013Y234650D01*
X-179263Y233737D01*
X-178530Y233135D01*
Y197500D01*
X-178410Y196586D01*
X-178057Y195735D01*
X-177496Y195004D01*
X-174272Y191780D01*
X-174556Y191356D01*
X-174717Y191423D01*
X-175500Y191526D01*
X-176283Y191423D01*
X-177013Y191121D01*
X-177640Y190640D01*
X-178108Y190029D01*
X-191500D01*
X-192085Y189913D01*
X-192581Y189581D01*
X-200237Y181925D01*
X-201000Y182026D01*
X-201783Y181923D01*
X-202513Y181621D01*
X-203140Y181140D01*
X-203621Y180513D01*
X-203923Y179783D01*
X-204026Y179000D01*
X-203923Y178217D01*
X-203621Y177487D01*
X-203140Y176860D01*
X-202513Y176380D01*
X-201783Y176077D01*
X-201000Y175974D01*
X-200217Y176077D01*
X-199487Y176380D01*
X-198860Y176860D01*
X-198380Y177487D01*
X-198077Y178217D01*
X-197974Y179000D01*
X-198074Y179763D01*
X-190866Y186971D01*
X-178108D01*
X-177640Y186360D01*
X-177013Y185880D01*
X-176283Y185577D01*
X-175500Y185474D01*
X-174717Y185577D01*
X-173987Y185880D01*
X-173360Y186360D01*
X-172880Y186987D01*
X-172577Y187717D01*
X-172474Y188500D01*
X-172577Y189283D01*
X-172644Y189444D01*
X-172220Y189728D01*
X-131272Y148780D01*
X-131555Y148356D01*
X-131717Y148423D01*
X-132500Y148526D01*
X-133283Y148423D01*
X-134013Y148120D01*
X-134640Y147640D01*
X-135120Y147013D01*
X-135229Y146750D01*
X-135771D01*
X-135880Y147013D01*
X-136360Y147640D01*
X-136987Y148120D01*
X-137717Y148423D01*
X-138500Y148526D01*
X-139283Y148423D01*
X-140013Y148120D01*
X-140640Y147640D01*
X-141121Y147013D01*
X-141423Y146283D01*
X-141526Y145500D01*
X-141426Y144737D01*
X-148081Y138081D01*
X-148413Y137585D01*
X-148529Y137000D01*
Y79789D01*
X-149029Y79639D01*
X-149978Y80367D01*
X-151195Y80871D01*
X-152500Y81043D01*
X-153805Y80871D01*
X-155022Y80367D01*
X-156066Y79566D01*
X-156868Y78522D01*
X-157229Y77648D01*
X-157771D01*
X-158133Y78522D01*
X-158934Y79566D01*
X-159978Y80367D01*
X-161195Y80871D01*
X-162500Y81043D01*
X-163805Y80871D01*
X-165022Y80367D01*
X-166066Y79566D01*
X-166867Y78522D01*
X-167229Y77648D01*
X-167771D01*
X-168132Y78522D01*
X-168934Y79566D01*
X-169978Y80367D01*
X-171195Y80871D01*
X-171750Y80944D01*
X-171941Y81406D01*
X-171879Y81487D01*
X-171577Y82217D01*
X-171474Y83000D01*
X-171574Y83763D01*
X-161866Y93471D01*
X-160108D01*
X-159640Y92860D01*
X-159013Y92379D01*
X-158283Y92077D01*
X-157500Y91974D01*
X-156849Y92060D01*
X-156665Y91940D01*
X-156560Y91835D01*
X-156440Y91651D01*
X-156526Y91000D01*
X-156423Y90217D01*
X-156121Y89487D01*
X-155640Y88860D01*
X-155013Y88380D01*
X-154283Y88077D01*
X-153500Y87974D01*
X-152717Y88077D01*
X-151987Y88380D01*
X-151360Y88860D01*
X-150880Y89487D01*
X-150577Y90217D01*
X-150474Y91000D01*
X-150577Y91783D01*
X-150880Y92513D01*
X-151360Y93140D01*
X-151987Y93621D01*
X-152471Y93821D01*
Y96450D01*
X-152587Y97035D01*
X-152919Y97531D01*
X-158469Y103081D01*
X-158965Y103413D01*
X-159550Y103529D01*
X-169328D01*
X-169914Y103413D01*
X-170410Y103081D01*
X-172962Y100529D01*
X-177510D01*
X-177731Y101029D01*
X-177380Y101487D01*
X-177077Y102217D01*
X-176974Y103000D01*
X-177077Y103783D01*
X-177380Y104513D01*
X-177860Y105140D01*
X-178471Y105608D01*
Y106510D01*
X-177971Y106731D01*
X-177513Y106379D01*
X-176783Y106077D01*
X-176000Y105974D01*
X-175217Y106077D01*
X-174487Y106379D01*
X-173860Y106860D01*
X-173380Y107487D01*
X-173077Y108217D01*
X-173062Y108333D01*
X-168333Y113062D01*
X-168217Y113077D01*
X-167487Y113380D01*
X-166860Y113860D01*
X-166379Y114487D01*
X-166077Y115217D01*
X-165974Y116000D01*
X-166077Y116783D01*
X-166379Y117513D01*
X-166451Y117606D01*
Y168342D01*
X-166645Y169318D01*
X-167198Y170145D01*
X-173562Y176509D01*
X-173577Y176626D01*
X-173880Y177356D01*
X-174360Y177982D01*
X-174987Y178463D01*
X-175717Y178765D01*
X-176500Y178868D01*
X-177283Y178765D01*
X-178013Y178463D01*
X-178640Y177982D01*
X-179121Y177356D01*
X-179423Y176626D01*
X-179526Y175842D01*
X-179423Y175059D01*
X-179121Y174330D01*
X-178640Y173703D01*
X-178013Y173222D01*
X-177283Y172920D01*
X-177167Y172904D01*
X-171549Y167287D01*
Y117606D01*
X-171621Y117513D01*
X-171923Y116783D01*
X-171938Y116667D01*
X-176667Y111938D01*
X-176783Y111923D01*
X-177513Y111620D01*
X-177971Y111269D01*
X-178471Y111490D01*
Y118450D01*
X-178587Y119035D01*
X-178919Y119531D01*
X-194469Y135081D01*
X-194965Y135413D01*
X-195550Y135529D01*
X-197231D01*
X-317201Y255501D01*
X-317022Y256028D01*
X-316456Y256103D01*
X-315483Y256506D01*
X-314647Y257147D01*
X-314006Y257983D01*
X-313603Y258956D01*
X-313465Y260000D01*
X-313603Y261044D01*
X-314006Y262017D01*
X-314647Y262853D01*
X-315483Y263494D01*
X-316456Y263897D01*
X-317500Y264035D01*
X-318544Y263897D01*
X-319517Y263494D01*
X-320353Y262853D01*
X-320994Y262017D01*
X-321220Y261471D01*
X-321711Y261373D01*
X-323142Y262805D01*
X-323006Y262983D01*
X-322603Y263956D01*
X-322465Y265000D01*
X-322603Y266044D01*
X-323006Y267017D01*
X-323647Y267853D01*
X-324483Y268494D01*
X-325456Y268897D01*
X-326500Y269035D01*
X-328500D01*
X-329544Y268897D01*
X-330517Y268494D01*
X-331353Y267853D01*
X-331994Y267017D01*
X-332229Y266449D01*
X-332771D01*
X-333006Y267017D01*
X-333647Y267853D01*
X-334483Y268494D01*
X-335456Y268897D01*
X-336500Y269035D01*
X-338500D01*
X-339544Y268897D01*
X-340517Y268494D01*
X-341353Y267853D01*
X-341994Y267017D01*
X-342397Y266044D01*
X-342534Y265000D01*
X-342397Y263956D01*
X-341994Y262983D01*
X-341353Y262147D01*
X-340517Y261506D01*
X-339544Y261103D01*
X-338500Y260965D01*
X-336500D01*
X-335456Y261103D01*
X-334483Y261506D01*
X-333647Y262147D01*
X-333006Y262983D01*
X-332771Y263551D01*
X-332229D01*
X-331994Y262983D01*
X-331353Y262147D01*
X-330517Y261506D01*
X-329544Y261103D01*
X-328500Y260965D01*
X-326500D01*
X-325730Y261067D01*
X-323529Y258867D01*
Y258393D01*
X-324029Y258146D01*
X-324483Y258494D01*
X-325456Y258897D01*
X-326500Y259034D01*
X-328500D01*
X-329544Y258897D01*
X-330517Y258494D01*
X-331353Y257853D01*
X-331994Y257017D01*
X-332229Y256449D01*
X-332771D01*
X-333006Y257017D01*
X-333647Y257853D01*
X-334483Y258494D01*
X-335456Y258897D01*
X-336500Y259034D01*
X-338500D01*
X-339544Y258897D01*
X-340517Y258494D01*
X-341353Y257853D01*
X-341994Y257017D01*
X-342229Y256449D01*
X-342771D01*
X-343006Y257017D01*
X-343647Y257853D01*
X-344483Y258494D01*
X-345456Y258897D01*
X-346500Y259034D01*
X-348500D01*
X-349544Y258897D01*
X-350517Y258494D01*
X-351353Y257853D01*
X-351994Y257017D01*
X-352188Y256548D01*
X-352729D01*
X-353133Y257522D01*
X-353934Y258566D01*
X-354978Y259367D01*
X-355952Y259771D01*
Y260312D01*
X-355483Y260506D01*
X-354647Y261147D01*
X-354006Y261983D01*
X-353603Y262956D01*
X-353466Y264000D01*
Y266000D01*
X-353603Y267044D01*
X-354006Y268017D01*
X-354647Y268853D01*
X-355483Y269494D01*
X-355952Y269688D01*
Y270229D01*
X-354978Y270633D01*
X-353934Y271434D01*
X-353133Y272478D01*
X-352771Y273352D01*
X-352229D01*
X-351868Y272478D01*
X-351066Y271434D01*
X-350022Y270633D01*
X-348805Y270129D01*
X-347500Y269957D01*
X-346195Y270129D01*
X-344978Y270633D01*
X-343934Y271434D01*
X-343132Y272478D01*
X-342729Y273452D01*
X-342188D01*
X-341994Y272983D01*
X-341353Y272147D01*
X-340517Y271506D01*
X-339544Y271103D01*
X-338500Y270966D01*
X-336500D01*
X-335456Y271103D01*
X-334483Y271506D01*
X-333647Y272147D01*
X-333006Y272983D01*
X-332771Y273551D01*
X-332229D01*
X-331994Y272983D01*
X-331353Y272147D01*
X-330517Y271506D01*
X-329544Y271103D01*
X-328500Y270966D01*
X-326500D01*
X-325456Y271103D01*
X-324483Y271506D01*
X-323647Y272147D01*
X-323006Y272983D01*
X-322603Y273956D01*
X-322465Y275000D01*
X-322603Y276044D01*
X-323006Y277017D01*
X-323647Y277853D01*
X-324483Y278494D01*
X-325456Y278897D01*
X-326500Y279034D01*
X-328500D01*
X-329544Y278897D01*
X-330517Y278494D01*
X-331353Y277853D01*
X-331994Y277017D01*
X-332229Y276449D01*
X-332771D01*
X-333006Y277017D01*
X-333647Y277853D01*
X-334483Y278494D01*
X-335456Y278897D01*
X-336500Y279034D01*
X-338500D01*
X-339544Y278897D01*
X-340517Y278494D01*
X-341353Y277853D01*
X-341994Y277017D01*
X-342188Y276548D01*
X-342729D01*
X-343132Y277522D01*
X-343934Y278566D01*
X-344978Y279367D01*
X-346195Y279871D01*
X-347500Y280043D01*
X-348805Y279871D01*
X-350022Y279367D01*
X-351066Y278566D01*
X-351868Y277522D01*
X-352229Y276648D01*
X-352771D01*
X-353133Y277522D01*
X-353934Y278566D01*
X-354978Y279367D01*
X-355952Y279771D01*
Y280312D01*
X-355483Y280506D01*
X-354647Y281147D01*
X-354006Y281983D01*
X-353603Y282956D01*
X-353466Y284000D01*
Y286000D01*
X-353603Y287044D01*
X-354006Y288017D01*
X-354647Y288853D01*
X-355483Y289494D01*
X-356456Y289897D01*
X-357500Y290035D01*
D02*
G37*
G36*
X-317500Y274035D02*
X-318544Y273897D01*
X-319517Y273494D01*
X-320353Y272853D01*
X-320994Y272017D01*
X-321397Y271044D01*
X-321534Y270000D01*
X-321397Y268956D01*
X-320994Y267983D01*
X-320353Y267147D01*
X-319517Y266506D01*
X-318544Y266103D01*
X-317500Y265966D01*
X-316456Y266103D01*
X-315483Y266506D01*
X-314647Y267147D01*
X-314006Y267983D01*
X-313603Y268956D01*
X-313465Y270000D01*
X-313603Y271044D01*
X-314006Y272017D01*
X-314647Y272853D01*
X-315483Y273494D01*
X-316456Y273897D01*
X-317500Y274035D01*
D02*
G37*
G36*
X-244571Y275571D02*
Y263260D01*
X-232260D01*
X-232379Y264770D01*
X-232849Y266731D01*
X-233621Y268594D01*
X-234675Y270313D01*
X-235984Y271847D01*
X-237517Y273156D01*
X-239237Y274210D01*
X-241100Y274981D01*
X-243061Y275452D01*
X-244571Y275571D01*
D02*
G37*
G36*
X-245571D02*
X-247081Y275452D01*
X-249042Y274981D01*
X-250905Y274210D01*
X-252624Y273156D01*
X-254158Y271847D01*
X-255467Y270313D01*
X-256521Y268594D01*
X-257293Y266731D01*
X-257763Y264770D01*
X-257882Y263260D01*
X-245571D01*
Y275571D01*
D02*
G37*
G36*
X-347500Y269035D02*
X-348544Y268897D01*
X-349517Y268494D01*
X-350353Y267853D01*
X-350994Y267017D01*
X-351397Y266044D01*
X-351535Y265000D01*
X-351397Y263956D01*
X-350994Y262983D01*
X-350353Y262147D01*
X-349517Y261506D01*
X-348544Y261103D01*
X-347500Y260965D01*
X-346456Y261103D01*
X-345483Y261506D01*
X-344647Y262147D01*
X-344006Y262983D01*
X-343603Y263956D01*
X-343465Y265000D01*
X-343603Y266044D01*
X-344006Y267017D01*
X-344647Y267853D01*
X-345483Y268494D01*
X-346456Y268897D01*
X-347500Y269035D01*
D02*
G37*
G36*
X-232260Y262260D02*
X-244571D01*
Y249949D01*
X-243061Y250067D01*
X-241100Y250538D01*
X-239237Y251310D01*
X-237517Y252363D01*
X-235984Y253673D01*
X-234675Y255206D01*
X-233621Y256926D01*
X-232849Y258789D01*
X-232379Y260750D01*
X-232260Y262260D01*
D02*
G37*
G36*
X-245571D02*
X-257882D01*
X-257763Y260750D01*
X-257293Y258789D01*
X-256521Y256926D01*
X-255467Y255206D01*
X-254158Y253673D01*
X-252624Y252363D01*
X-250905Y251310D01*
X-249042Y250538D01*
X-247081Y250067D01*
X-245571Y249949D01*
Y262260D01*
D02*
G37*
G36*
X-116500Y241026D02*
X-117283Y240923D01*
X-118013Y240620D01*
X-118640Y240140D01*
X-119121Y239513D01*
X-119423Y238783D01*
X-119526Y238000D01*
X-119423Y237217D01*
X-119121Y236487D01*
X-119049Y236394D01*
Y204000D01*
X-118855Y203025D01*
X-118302Y202198D01*
X-84049Y167944D01*
Y96606D01*
X-84121Y96513D01*
X-84423Y95783D01*
X-84526Y95000D01*
X-84423Y94217D01*
X-84121Y93487D01*
X-83640Y92860D01*
X-83013Y92379D01*
X-82283Y92077D01*
X-81500Y91974D01*
X-80717Y92077D01*
X-79987Y92379D01*
X-79360Y92860D01*
X-78879Y93487D01*
X-78577Y94217D01*
X-78474Y95000D01*
X-78577Y95783D01*
X-78879Y96513D01*
X-78951Y96606D01*
Y169000D01*
X-79145Y169975D01*
X-79698Y170802D01*
X-84420Y175525D01*
X-84187Y175999D01*
X-84000Y175974D01*
X-83217Y176077D01*
X-82487Y176380D01*
X-81860Y176860D01*
X-81379Y177487D01*
X-81077Y178217D01*
X-80974Y179000D01*
X-81075Y179763D01*
X-72866Y187971D01*
X-61108D01*
X-60640Y187360D01*
X-60013Y186880D01*
X-59283Y186577D01*
X-58500Y186474D01*
X-57717Y186577D01*
X-56987Y186880D01*
X-56360Y187360D01*
X-55879Y187987D01*
X-55577Y188717D01*
X-55474Y189500D01*
X-55577Y190283D01*
X-55879Y191013D01*
X-56360Y191640D01*
X-56987Y192121D01*
X-57717Y192423D01*
X-58500Y192526D01*
X-59283Y192423D01*
X-60013Y192121D01*
X-60640Y191640D01*
X-61108Y191029D01*
X-73500D01*
X-74085Y190913D01*
X-74581Y190581D01*
X-83237Y181925D01*
X-84000Y182026D01*
X-84783Y181923D01*
X-85513Y181621D01*
X-86140Y181140D01*
X-86620Y180513D01*
X-86923Y179783D01*
X-87026Y179000D01*
X-87001Y178813D01*
X-87475Y178580D01*
X-113951Y205056D01*
Y236394D01*
X-113880Y236487D01*
X-113577Y237217D01*
X-113474Y238000D01*
X-113577Y238783D01*
X-113880Y239513D01*
X-114360Y240140D01*
X-114987Y240620D01*
X-115717Y240923D01*
X-116500Y241026D01*
D02*
G37*
G36*
X-117000Y191526D02*
X-117783Y191423D01*
X-118513Y191121D01*
X-119140Y190640D01*
X-119608Y190029D01*
X-133000D01*
X-133585Y189913D01*
X-134081Y189581D01*
X-141737Y181925D01*
X-142500Y182026D01*
X-143283Y181923D01*
X-144013Y181621D01*
X-144640Y181140D01*
X-145121Y180513D01*
X-145423Y179783D01*
X-145526Y179000D01*
X-145423Y178217D01*
X-145121Y177487D01*
X-144640Y176860D01*
X-144013Y176380D01*
X-143283Y176077D01*
X-142500Y175974D01*
X-141717Y176077D01*
X-140987Y176380D01*
X-140360Y176860D01*
X-139880Y177487D01*
X-139577Y178217D01*
X-139474Y179000D01*
X-139575Y179763D01*
X-132367Y186971D01*
X-119608D01*
X-119140Y186360D01*
X-118513Y185880D01*
X-117783Y185577D01*
X-117000Y185474D01*
X-116217Y185577D01*
X-115487Y185880D01*
X-114860Y186360D01*
X-114380Y186987D01*
X-114077Y187717D01*
X-113974Y188500D01*
X-114077Y189283D01*
X-114380Y190013D01*
X-114860Y190640D01*
X-115487Y191121D01*
X-116217Y191423D01*
X-117000Y191526D01*
D02*
G37*
G36*
X-244571Y157461D02*
Y145150D01*
X-232260D01*
X-232379Y146660D01*
X-232849Y148621D01*
X-233621Y150484D01*
X-234675Y152203D01*
X-235984Y153736D01*
X-237517Y155046D01*
X-239237Y156100D01*
X-241100Y156871D01*
X-243061Y157342D01*
X-244571Y157461D01*
D02*
G37*
G36*
X-245571D02*
X-247081Y157342D01*
X-249042Y156871D01*
X-250905Y156100D01*
X-252624Y155046D01*
X-254158Y153736D01*
X-255467Y152203D01*
X-256521Y150484D01*
X-257293Y148621D01*
X-257763Y146660D01*
X-257882Y145150D01*
X-245571D01*
Y157461D01*
D02*
G37*
G36*
X-117500Y178526D02*
X-118283Y178423D01*
X-119013Y178121D01*
X-119640Y177640D01*
X-120121Y177013D01*
X-120423Y176283D01*
X-120526Y175500D01*
X-120423Y174717D01*
X-120121Y173987D01*
X-119640Y173360D01*
X-119013Y172880D01*
X-118283Y172577D01*
X-118167Y172562D01*
X-110049Y164444D01*
Y141106D01*
X-110120Y141013D01*
X-110423Y140283D01*
X-110526Y139500D01*
X-110423Y138717D01*
X-110120Y137987D01*
X-109640Y137360D01*
X-109013Y136880D01*
X-108283Y136577D01*
X-107500Y136474D01*
X-106717Y136577D01*
X-105987Y136880D01*
X-105360Y137360D01*
X-104879Y137987D01*
X-104577Y138717D01*
X-104474Y139500D01*
X-104577Y140283D01*
X-104879Y141013D01*
X-104951Y141106D01*
Y165500D01*
X-105145Y166475D01*
X-105698Y167302D01*
X-114562Y176167D01*
X-114577Y176283D01*
X-114880Y177013D01*
X-115360Y177640D01*
X-115987Y178121D01*
X-116717Y178423D01*
X-117500Y178526D01*
D02*
G37*
G36*
X-232260Y144150D02*
X-244571D01*
Y131838D01*
X-243061Y131957D01*
X-241100Y132428D01*
X-239237Y133200D01*
X-237517Y134253D01*
X-235984Y135563D01*
X-234675Y137096D01*
X-233621Y138816D01*
X-232849Y140679D01*
X-232379Y142639D01*
X-232260Y144150D01*
D02*
G37*
G36*
X-245571D02*
X-257882D01*
X-257763Y142639D01*
X-257293Y140679D01*
X-256521Y138816D01*
X-255467Y137096D01*
X-254158Y135563D01*
X-252624Y134253D01*
X-250905Y133200D01*
X-249042Y132428D01*
X-247081Y131957D01*
X-245571Y131838D01*
Y144150D01*
D02*
G37*
G36*
X-57500Y241026D02*
X-58283Y240923D01*
X-59013Y240620D01*
X-59640Y240140D01*
X-60120Y239513D01*
X-60423Y238783D01*
X-60526Y238000D01*
X-60423Y237217D01*
X-60120Y236487D01*
X-59640Y235860D01*
X-59013Y235380D01*
X-58283Y235077D01*
X-58167Y235062D01*
X-46049Y222944D01*
Y96606D01*
X-46121Y96513D01*
X-46423Y95783D01*
X-46526Y95000D01*
X-46423Y94217D01*
X-46121Y93487D01*
X-45640Y92860D01*
X-45013Y92379D01*
X-44283Y92077D01*
X-43500Y91974D01*
X-42717Y92077D01*
X-41987Y92379D01*
X-41360Y92860D01*
X-40879Y93487D01*
X-40577Y94217D01*
X-40474Y95000D01*
X-40577Y95783D01*
X-40879Y96513D01*
X-40951Y96606D01*
Y224000D01*
X-41145Y224975D01*
X-41698Y225802D01*
X-54562Y238667D01*
X-54577Y238783D01*
X-54879Y239513D01*
X-55360Y240140D01*
X-55987Y240620D01*
X-56717Y240923D01*
X-57500Y241026D01*
D02*
G37*
G36*
X-284500Y90980D02*
X-285789Y90810D01*
X-286990Y90312D01*
X-288021Y89521D01*
X-288812Y88490D01*
X-289310Y87289D01*
X-289480Y86000D01*
X-289310Y84711D01*
X-288812Y83510D01*
X-288021Y82479D01*
X-286990Y81687D01*
X-285789Y81190D01*
X-284500Y81020D01*
X-283211Y81190D01*
X-282010Y81687D01*
X-280979Y82479D01*
X-280188Y83510D01*
X-279690Y84711D01*
X-279520Y86000D01*
X-279690Y87289D01*
X-280188Y88490D01*
X-280979Y89521D01*
X-282010Y90312D01*
X-283211Y90810D01*
X-284500Y90980D01*
D02*
G37*
G36*
X-135500Y80500D02*
X-139500D01*
Y76500D01*
X-135500D01*
Y80500D01*
D02*
G37*
G36*
Y75500D02*
X-139500D01*
Y71500D01*
X-135500D01*
Y75500D01*
D02*
G37*
G36*
X-262500Y81043D02*
X-263805Y80871D01*
X-265022Y80367D01*
X-266066Y79566D01*
X-266867Y78522D01*
X-267371Y77305D01*
X-267543Y76000D01*
X-267371Y74695D01*
X-266867Y73478D01*
X-266066Y72434D01*
X-265022Y71632D01*
X-263805Y71129D01*
X-262500Y70957D01*
X-261195Y71129D01*
X-259978Y71632D01*
X-258934Y72434D01*
X-258133Y73478D01*
X-257771Y74352D01*
X-257229D01*
X-256868Y73478D01*
X-256066Y72434D01*
X-255022Y71632D01*
X-253805Y71129D01*
X-253000Y71023D01*
Y76000D01*
Y80977D01*
X-253805Y80871D01*
X-255022Y80367D01*
X-256066Y79566D01*
X-256868Y78522D01*
X-257229Y77648D01*
X-257771D01*
X-258133Y78522D01*
X-258934Y79566D01*
X-259978Y80367D01*
X-261195Y80871D01*
X-262500Y81043D01*
D02*
G37*
G36*
X-135500Y68000D02*
X-139500D01*
Y64000D01*
X-135500D01*
Y68000D01*
D02*
G37*
G36*
X-140500D02*
X-144500D01*
Y64000D01*
X-140500D01*
Y68000D01*
D02*
G37*
G36*
X-135500Y63000D02*
X-139500D01*
Y59000D01*
X-135500D01*
Y63000D01*
D02*
G37*
G36*
X-140500D02*
X-144500D01*
Y59000D01*
X-140500D01*
Y63000D01*
D02*
G37*
G36*
X-130000Y68039D02*
X-131175Y67884D01*
X-132269Y67431D01*
X-133209Y66710D01*
X-133931Y65769D01*
X-134384Y64675D01*
X-134539Y63500D01*
X-134384Y62325D01*
X-133931Y61231D01*
X-133209Y60291D01*
X-132269Y59569D01*
X-131175Y59116D01*
X-130000Y58961D01*
X-128825Y59116D01*
X-127731Y59569D01*
X-126791Y60291D01*
X-126069Y61231D01*
X-125616Y62325D01*
X-125461Y63500D01*
X-125616Y64675D01*
X-126069Y65769D01*
X-126791Y66710D01*
X-127731Y67431D01*
X-128825Y67884D01*
X-130000Y68039D01*
D02*
G37*
G36*
X-297500Y47543D02*
X-298805Y47371D01*
X-300022Y46867D01*
X-301066Y46066D01*
X-301868Y45022D01*
X-302229Y44148D01*
X-302771D01*
X-303133Y45022D01*
X-303934Y46066D01*
X-304978Y46867D01*
X-306195Y47371D01*
X-307500Y47543D01*
X-308805Y47371D01*
X-310022Y46867D01*
X-311066Y46066D01*
X-311867Y45022D01*
X-312229Y44148D01*
X-312771D01*
X-313133Y45022D01*
X-313934Y46066D01*
X-314978Y46867D01*
X-316195Y47371D01*
X-317500Y47543D01*
X-318805Y47371D01*
X-320022Y46867D01*
X-321066Y46066D01*
X-321867Y45022D01*
X-322229Y44148D01*
X-322771D01*
X-323132Y45022D01*
X-323934Y46066D01*
X-324978Y46867D01*
X-326195Y47371D01*
X-327500Y47543D01*
X-328805Y47371D01*
X-330022Y46867D01*
X-331066Y46066D01*
X-331868Y45022D01*
X-332229Y44148D01*
X-332771D01*
X-333133Y45022D01*
X-333934Y46066D01*
X-334978Y46867D01*
X-336195Y47371D01*
X-337500Y47543D01*
X-338805Y47371D01*
X-340022Y46867D01*
X-341066Y46066D01*
X-341867Y45022D01*
X-342371Y43805D01*
X-342543Y42500D01*
X-342371Y41195D01*
X-341867Y39978D01*
X-341066Y38934D01*
X-340022Y38133D01*
X-338805Y37629D01*
X-337500Y37457D01*
X-336195Y37629D01*
X-334978Y38133D01*
X-333934Y38934D01*
X-333133Y39978D01*
X-332771Y40852D01*
X-332229D01*
X-331868Y39978D01*
X-331066Y38934D01*
X-330022Y38133D01*
X-328805Y37629D01*
X-327500Y37457D01*
X-326195Y37629D01*
X-324978Y38133D01*
X-323934Y38934D01*
X-323132Y39978D01*
X-322771Y40852D01*
X-322229D01*
X-321867Y39978D01*
X-321066Y38934D01*
X-320022Y38133D01*
X-318805Y37629D01*
X-317500Y37457D01*
X-316195Y37629D01*
X-314978Y38133D01*
X-313934Y38934D01*
X-313133Y39978D01*
X-312771Y40852D01*
X-312229D01*
X-311867Y39978D01*
X-311066Y38934D01*
X-310022Y38133D01*
X-308805Y37629D01*
X-307500Y37457D01*
X-306195Y37629D01*
X-304978Y38133D01*
X-303934Y38934D01*
X-303133Y39978D01*
X-302771Y40852D01*
X-302229D01*
X-301868Y39978D01*
X-301066Y38934D01*
X-300022Y38133D01*
X-298805Y37629D01*
X-297500Y37457D01*
X-296195Y37629D01*
X-294978Y38133D01*
X-293934Y38934D01*
X-293132Y39978D01*
X-293000Y40298D01*
X-292500Y40199D01*
Y37500D01*
X-288000D01*
Y42500D01*
Y47500D01*
X-292500D01*
Y44801D01*
X-293000Y44702D01*
X-293132Y45022D01*
X-293934Y46066D01*
X-294978Y46867D01*
X-296195Y47371D01*
X-297500Y47543D01*
D02*
G37*
G36*
X-282500Y47500D02*
X-287000D01*
Y43000D01*
X-282500D01*
Y47500D01*
D02*
G37*
G36*
X-136000Y47000D02*
X-140000D01*
Y43000D01*
X-136000D01*
Y47000D01*
D02*
G37*
G36*
X-141000D02*
X-145000D01*
Y43000D01*
X-141000D01*
Y47000D01*
D02*
G37*
G36*
X-136000Y42000D02*
X-140000D01*
Y38000D01*
X-136000D01*
Y42000D01*
D02*
G37*
G36*
X-141000D02*
X-145000D01*
Y38000D01*
X-141000D01*
Y42000D01*
D02*
G37*
G36*
X-282500D02*
X-287000D01*
Y37500D01*
X-282500D01*
Y42000D01*
D02*
G37*
G36*
X-42500Y30891D02*
X-43378Y30776D01*
X-44196Y30437D01*
X-44898Y29898D01*
X-45437Y29196D01*
X-45776Y28378D01*
X-45891Y27500D01*
X-45776Y26622D01*
X-45437Y25804D01*
X-44898Y25102D01*
X-44196Y24563D01*
X-43378Y24224D01*
X-42500Y24109D01*
X-41622Y24224D01*
X-40804Y24563D01*
X-40102Y25102D01*
X-39563Y25804D01*
X-39224Y26622D01*
X-39109Y27500D01*
X-39224Y28378D01*
X-39563Y29196D01*
X-40102Y29898D01*
X-40804Y30437D01*
X-41622Y30776D01*
X-42500Y30891D01*
D02*
G37*
G36*
X-62500D02*
X-63378Y30776D01*
X-64196Y30437D01*
X-64898Y29898D01*
X-65437Y29196D01*
X-65776Y28378D01*
X-65891Y27500D01*
X-65776Y26622D01*
X-65437Y25804D01*
X-64898Y25102D01*
X-64196Y24563D01*
X-63378Y24224D01*
X-62500Y24109D01*
X-61622Y24224D01*
X-60804Y24563D01*
X-60102Y25102D01*
X-59563Y25804D01*
X-59224Y26622D01*
X-59109Y27500D01*
X-59224Y28378D01*
X-59563Y29196D01*
X-60102Y29898D01*
X-60804Y30437D01*
X-61622Y30776D01*
X-62500Y30891D01*
D02*
G37*
G36*
X-82500D02*
X-83378Y30776D01*
X-84196Y30437D01*
X-84898Y29898D01*
X-85437Y29196D01*
X-85776Y28378D01*
X-85891Y27500D01*
X-85776Y26622D01*
X-85437Y25804D01*
X-84898Y25102D01*
X-84196Y24563D01*
X-83378Y24224D01*
X-82500Y24109D01*
X-81622Y24224D01*
X-80804Y24563D01*
X-80102Y25102D01*
X-79563Y25804D01*
X-79224Y26622D01*
X-79109Y27500D01*
X-79224Y28378D01*
X-79563Y29196D01*
X-80102Y29898D01*
X-80804Y30437D01*
X-81622Y30776D01*
X-82500Y30891D01*
D02*
G37*
G36*
X-102500D02*
X-103378Y30776D01*
X-104196Y30437D01*
X-104898Y29898D01*
X-105437Y29196D01*
X-105776Y28378D01*
X-105891Y27500D01*
X-105776Y26622D01*
X-105437Y25804D01*
X-104898Y25102D01*
X-104196Y24563D01*
X-103378Y24224D01*
X-102500Y24109D01*
X-101622Y24224D01*
X-100804Y24563D01*
X-100102Y25102D01*
X-99563Y25804D01*
X-99224Y26622D01*
X-99109Y27500D01*
X-99224Y28378D01*
X-99563Y29196D01*
X-100102Y29898D01*
X-100804Y30437D01*
X-101622Y30776D01*
X-102500Y30891D01*
D02*
G37*
G36*
X-272500Y76043D02*
X-273805Y75871D01*
X-275022Y75367D01*
X-276066Y74566D01*
X-276868Y73522D01*
X-277371Y72305D01*
X-277543Y71000D01*
X-277371Y69695D01*
X-276868Y68478D01*
X-276066Y67434D01*
X-275022Y66632D01*
X-274148Y66271D01*
Y65729D01*
X-275022Y65368D01*
X-276066Y64566D01*
X-276868Y63522D01*
X-277371Y62305D01*
X-277543Y61000D01*
X-277371Y59695D01*
X-276868Y58478D01*
X-276066Y57434D01*
X-275022Y56633D01*
X-274148Y56271D01*
Y55729D01*
X-275022Y55367D01*
X-276066Y54566D01*
X-276868Y53522D01*
X-277371Y52305D01*
X-277543Y51000D01*
X-277371Y49695D01*
X-276868Y48478D01*
X-276066Y47434D01*
X-275022Y46633D01*
X-274148Y46271D01*
Y45729D01*
X-275022Y45368D01*
X-276066Y44566D01*
X-276868Y43522D01*
X-277371Y42305D01*
X-277543Y41000D01*
X-277371Y39695D01*
X-276868Y38478D01*
X-276066Y37434D01*
X-275022Y36632D01*
X-274148Y36271D01*
Y35729D01*
X-275022Y35368D01*
X-276066Y34566D01*
X-276868Y33522D01*
X-277371Y32305D01*
X-277543Y31000D01*
X-277371Y29695D01*
X-276868Y28478D01*
X-276066Y27434D01*
X-275022Y26632D01*
X-274148Y26271D01*
Y25729D01*
X-275022Y25368D01*
X-276066Y24566D01*
X-276868Y23522D01*
X-277371Y22305D01*
X-277477Y21500D01*
X-272500D01*
Y21000D01*
D01*
Y21500D01*
X-267523D01*
X-267629Y22305D01*
X-268132Y23522D01*
X-268934Y24566D01*
X-269978Y25368D01*
X-270852Y25729D01*
Y26271D01*
X-269978Y26632D01*
X-268934Y27434D01*
X-268132Y28478D01*
X-267629Y29695D01*
X-267457Y31000D01*
X-267629Y32305D01*
X-268132Y33522D01*
X-268934Y34566D01*
X-269978Y35368D01*
X-270852Y35729D01*
Y36271D01*
X-269978Y36632D01*
X-268934Y37434D01*
X-268132Y38478D01*
X-267629Y39695D01*
X-267457Y41000D01*
X-267629Y42305D01*
X-268132Y43522D01*
X-268934Y44566D01*
X-269978Y45368D01*
X-270852Y45729D01*
Y46271D01*
X-269978Y46633D01*
X-268934Y47434D01*
X-268132Y48478D01*
X-267629Y49695D01*
X-267457Y51000D01*
X-267629Y52305D01*
X-268132Y53522D01*
X-268934Y54566D01*
X-269978Y55367D01*
X-270852Y55729D01*
Y56271D01*
X-269978Y56633D01*
X-268934Y57434D01*
X-268132Y58478D01*
X-267629Y59695D01*
X-267457Y61000D01*
X-267629Y62305D01*
X-268132Y63522D01*
X-268934Y64566D01*
X-269978Y65368D01*
X-270852Y65729D01*
Y66271D01*
X-269978Y66632D01*
X-268934Y67434D01*
X-268132Y68478D01*
X-267629Y69695D01*
X-267457Y71000D01*
X-267629Y72305D01*
X-268132Y73522D01*
X-268934Y74566D01*
X-269978Y75367D01*
X-271195Y75871D01*
X-272500Y76043D01*
D02*
G37*
G36*
X-42000Y22558D02*
Y19732D01*
X-39175D01*
X-39224Y20110D01*
X-39563Y20928D01*
X-40102Y21630D01*
X-40804Y22169D01*
X-41622Y22508D01*
X-42000Y22558D01*
D02*
G37*
G36*
X-43000D02*
X-43378Y22508D01*
X-44196Y22169D01*
X-44898Y21630D01*
X-45437Y20928D01*
X-45776Y20110D01*
X-45825Y19732D01*
X-43000D01*
Y22558D01*
D02*
G37*
G36*
X-62000D02*
Y19732D01*
X-59175D01*
X-59224Y20110D01*
X-59563Y20928D01*
X-60102Y21630D01*
X-60804Y22169D01*
X-61622Y22508D01*
X-62000Y22558D01*
D02*
G37*
G36*
X-63000D02*
X-63378Y22508D01*
X-64196Y22169D01*
X-64898Y21630D01*
X-65437Y20928D01*
X-65776Y20110D01*
X-65825Y19732D01*
X-63000D01*
Y22558D01*
D02*
G37*
G36*
X-82000D02*
Y19732D01*
X-79175D01*
X-79224Y20110D01*
X-79563Y20928D01*
X-80102Y21630D01*
X-80804Y22169D01*
X-81622Y22508D01*
X-82000Y22558D01*
D02*
G37*
G36*
X-83000D02*
X-83378Y22508D01*
X-84196Y22169D01*
X-84898Y21630D01*
X-85437Y20928D01*
X-85776Y20110D01*
X-85825Y19732D01*
X-83000D01*
Y22558D01*
D02*
G37*
G36*
X-102000D02*
Y19732D01*
X-99175D01*
X-99224Y20110D01*
X-99563Y20928D01*
X-100102Y21630D01*
X-100804Y22169D01*
X-101622Y22508D01*
X-102000Y22558D01*
D02*
G37*
G36*
X-103000D02*
X-103378Y22508D01*
X-104196Y22169D01*
X-104898Y21630D01*
X-105437Y20928D01*
X-105776Y20110D01*
X-105825Y19732D01*
X-103000D01*
Y22558D01*
D02*
G37*
G36*
X-152500Y21043D02*
X-153805Y20871D01*
X-155022Y20368D01*
X-156066Y19566D01*
X-156868Y18522D01*
X-157229Y17648D01*
X-157771D01*
X-158133Y18522D01*
X-158934Y19566D01*
X-159978Y20368D01*
X-161195Y20871D01*
X-162500Y21043D01*
X-163805Y20871D01*
X-165022Y20368D01*
X-166066Y19566D01*
X-166867Y18522D01*
X-167229Y17648D01*
X-167771D01*
X-168132Y18522D01*
X-168934Y19566D01*
X-169978Y20368D01*
X-171195Y20871D01*
X-172500Y21043D01*
X-173805Y20871D01*
X-175022Y20368D01*
X-176066Y19566D01*
X-176867Y18522D01*
X-177229Y17648D01*
X-177771D01*
X-178132Y18522D01*
X-178934Y19566D01*
X-179978Y20368D01*
X-181195Y20871D01*
X-182500Y21043D01*
X-183805Y20871D01*
X-185022Y20368D01*
X-186066Y19566D01*
X-186867Y18522D01*
X-187229Y17648D01*
X-187771D01*
X-188133Y18522D01*
X-188934Y19566D01*
X-189978Y20368D01*
X-191195Y20871D01*
X-192500Y21043D01*
X-193805Y20871D01*
X-195022Y20368D01*
X-196066Y19566D01*
X-196868Y18522D01*
X-197229Y17648D01*
X-197771D01*
X-198133Y18522D01*
X-198934Y19566D01*
X-199978Y20368D01*
X-201195Y20871D01*
X-202500Y21043D01*
X-203805Y20871D01*
X-205022Y20368D01*
X-206066Y19566D01*
X-206868Y18522D01*
X-207229Y17648D01*
X-207771D01*
X-208133Y18522D01*
X-208934Y19566D01*
X-209978Y20368D01*
X-211195Y20871D01*
X-212500Y21043D01*
X-213805Y20871D01*
X-215022Y20368D01*
X-216066Y19566D01*
X-216867Y18522D01*
X-217229Y17648D01*
X-217771D01*
X-218132Y18522D01*
X-218934Y19566D01*
X-219978Y20368D01*
X-221195Y20871D01*
X-222500Y21043D01*
X-223805Y20871D01*
X-225022Y20368D01*
X-226066Y19566D01*
X-226868Y18522D01*
X-227229Y17648D01*
X-227771D01*
X-228133Y18522D01*
X-228934Y19566D01*
X-229978Y20368D01*
X-231195Y20871D01*
X-232000Y20977D01*
Y16000D01*
Y11023D01*
X-231195Y11129D01*
X-229978Y11632D01*
X-228934Y12434D01*
X-228133Y13478D01*
X-227771Y14352D01*
X-227229D01*
X-226868Y13478D01*
X-226066Y12434D01*
X-225022Y11632D01*
X-223805Y11129D01*
X-222500Y10957D01*
X-221195Y11129D01*
X-219978Y11632D01*
X-218934Y12434D01*
X-218132Y13478D01*
X-217771Y14352D01*
X-217229D01*
X-216867Y13478D01*
X-216066Y12434D01*
X-215022Y11632D01*
X-213805Y11129D01*
X-212500Y10957D01*
X-211195Y11129D01*
X-209978Y11632D01*
X-208934Y12434D01*
X-208133Y13478D01*
X-207771Y14352D01*
X-207229D01*
X-206868Y13478D01*
X-206066Y12434D01*
X-205022Y11632D01*
X-203805Y11129D01*
X-202500Y10957D01*
X-201195Y11129D01*
X-199978Y11632D01*
X-198934Y12434D01*
X-198133Y13478D01*
X-197771Y14352D01*
X-197229D01*
X-196868Y13478D01*
X-196066Y12434D01*
X-195022Y11632D01*
X-193805Y11129D01*
X-192500Y10957D01*
X-191195Y11129D01*
X-189978Y11632D01*
X-188934Y12434D01*
X-188133Y13478D01*
X-187771Y14352D01*
X-187229D01*
X-186867Y13478D01*
X-186066Y12434D01*
X-185022Y11632D01*
X-183805Y11129D01*
X-182500Y10957D01*
X-181195Y11129D01*
X-179978Y11632D01*
X-178934Y12434D01*
X-178132Y13478D01*
X-177771Y14352D01*
X-177229D01*
X-176867Y13478D01*
X-176066Y12434D01*
X-175022Y11632D01*
X-173805Y11129D01*
X-172500Y10957D01*
X-171195Y11129D01*
X-169978Y11632D01*
X-168934Y12434D01*
X-168132Y13478D01*
X-167771Y14352D01*
X-167229D01*
X-166867Y13478D01*
X-166066Y12434D01*
X-165022Y11632D01*
X-163805Y11129D01*
X-162500Y10957D01*
X-161195Y11129D01*
X-159978Y11632D01*
X-158934Y12434D01*
X-158133Y13478D01*
X-157771Y14352D01*
X-157229D01*
X-156868Y13478D01*
X-156066Y12434D01*
X-155022Y11632D01*
X-153805Y11129D01*
X-152500Y10957D01*
X-151195Y11129D01*
X-149978Y11632D01*
X-148934Y12434D01*
X-148133Y13478D01*
X-147629Y14695D01*
X-147457Y16000D01*
X-147629Y17305D01*
X-148133Y18522D01*
X-148934Y19566D01*
X-149978Y20368D01*
X-151195Y20871D01*
X-152500Y21043D01*
D02*
G37*
G36*
X-242500D02*
X-243805Y20871D01*
X-245022Y20368D01*
X-246066Y19566D01*
X-246867Y18522D01*
X-247229Y17648D01*
X-247771D01*
X-248132Y18522D01*
X-248934Y19566D01*
X-249978Y20368D01*
X-251195Y20871D01*
X-252500Y21043D01*
X-253805Y20871D01*
X-255022Y20368D01*
X-256066Y19566D01*
X-256868Y18522D01*
X-257229Y17648D01*
X-257771D01*
X-258133Y18522D01*
X-258934Y19566D01*
X-259978Y20368D01*
X-261195Y20871D01*
X-262500Y21043D01*
X-263805Y20871D01*
X-265022Y20368D01*
X-266066Y19566D01*
X-266867Y18522D01*
X-267371Y17305D01*
X-267543Y16000D01*
X-267371Y14695D01*
X-266867Y13478D01*
X-266066Y12434D01*
X-265022Y11632D01*
X-263805Y11129D01*
X-262500Y10957D01*
X-261195Y11129D01*
X-259978Y11632D01*
X-258934Y12434D01*
X-258133Y13478D01*
X-257771Y14352D01*
X-257229D01*
X-256868Y13478D01*
X-256066Y12434D01*
X-255022Y11632D01*
X-253805Y11129D01*
X-252500Y10957D01*
X-251195Y11129D01*
X-249978Y11632D01*
X-248934Y12434D01*
X-248132Y13478D01*
X-247771Y14352D01*
X-247229D01*
X-246867Y13478D01*
X-246066Y12434D01*
X-245022Y11632D01*
X-243805Y11129D01*
X-242500Y10957D01*
X-241195Y11129D01*
X-239978Y11632D01*
X-238934Y12434D01*
X-238133Y13478D01*
X-237771Y14352D01*
X-237229D01*
X-236867Y13478D01*
X-236066Y12434D01*
X-235022Y11632D01*
X-233805Y11129D01*
X-233000Y11023D01*
Y16000D01*
Y20977D01*
X-233805Y20871D01*
X-235022Y20368D01*
X-236066Y19566D01*
X-236867Y18522D01*
X-237229Y17648D01*
X-237771D01*
X-238133Y18522D01*
X-238934Y19566D01*
X-239978Y20368D01*
X-241195Y20871D01*
X-242500Y21043D01*
D02*
G37*
G36*
X-267523Y20500D02*
X-272000D01*
Y16023D01*
X-271195Y16129D01*
X-269978Y16633D01*
X-268934Y17434D01*
X-268132Y18478D01*
X-267629Y19695D01*
X-267523Y20500D01*
D02*
G37*
G36*
X-273000D02*
X-277477D01*
X-277371Y19695D01*
X-276868Y18478D01*
X-276066Y17434D01*
X-275022Y16633D01*
X-273805Y16129D01*
X-273000Y16023D01*
Y20500D01*
D02*
G37*
G36*
X-39175Y18732D02*
X-42000D01*
Y15907D01*
X-41622Y15957D01*
X-40804Y16295D01*
X-40102Y16834D01*
X-39563Y17537D01*
X-39224Y18355D01*
X-39175Y18732D01*
D02*
G37*
G36*
X-43000D02*
X-45825D01*
X-45776Y18355D01*
X-45437Y17537D01*
X-44898Y16834D01*
X-44196Y16295D01*
X-43378Y15957D01*
X-43000Y15907D01*
Y18732D01*
D02*
G37*
G36*
X-59175D02*
X-62000D01*
Y15907D01*
X-61622Y15957D01*
X-60804Y16295D01*
X-60102Y16834D01*
X-59563Y17537D01*
X-59224Y18355D01*
X-59175Y18732D01*
D02*
G37*
G36*
X-63000D02*
X-65825D01*
X-65776Y18355D01*
X-65437Y17537D01*
X-64898Y16834D01*
X-64196Y16295D01*
X-63378Y15957D01*
X-63000Y15907D01*
Y18732D01*
D02*
G37*
G36*
X-79175D02*
X-82000D01*
Y15907D01*
X-81622Y15957D01*
X-80804Y16295D01*
X-80102Y16834D01*
X-79563Y17537D01*
X-79224Y18355D01*
X-79175Y18732D01*
D02*
G37*
G36*
X-83000D02*
X-85825D01*
X-85776Y18355D01*
X-85437Y17537D01*
X-84898Y16834D01*
X-84196Y16295D01*
X-83378Y15957D01*
X-83000Y15907D01*
Y18732D01*
D02*
G37*
G36*
X-99175D02*
X-102000D01*
Y15907D01*
X-101622Y15957D01*
X-100804Y16295D01*
X-100102Y16834D01*
X-99563Y17537D01*
X-99224Y18355D01*
X-99175Y18732D01*
D02*
G37*
G36*
X-103000D02*
X-105825D01*
X-105776Y18355D01*
X-105437Y17537D01*
X-104898Y16834D01*
X-104196Y16295D01*
X-103378Y15957D01*
X-103000Y15907D01*
Y18732D01*
D02*
G37*
%LPD*%
G36*
X-181529Y117816D02*
Y105608D01*
X-182140Y105140D01*
X-182621Y104513D01*
X-182923Y103783D01*
X-183026Y103000D01*
X-182923Y102217D01*
X-182621Y101487D01*
X-182269Y101029D01*
X-182490Y100529D01*
X-191892D01*
X-192360Y101140D01*
X-192987Y101620D01*
X-193717Y101923D01*
X-194500Y102026D01*
X-194971Y101964D01*
X-195471Y102348D01*
Y127892D01*
X-194860Y128360D01*
X-194379Y128987D01*
X-194095Y129674D01*
X-193744Y129841D01*
X-193602Y129889D01*
X-181529Y117816D01*
D02*
G37*
G36*
X-163784Y96548D02*
X-163667Y96278D01*
X-163805Y95857D01*
X-173737Y85926D01*
X-174500Y86026D01*
X-175283Y85923D01*
X-176013Y85620D01*
X-176640Y85140D01*
X-177120Y84513D01*
X-177423Y83783D01*
X-177526Y83000D01*
X-177423Y82217D01*
X-177120Y81487D01*
X-176640Y80860D01*
X-176013Y80379D01*
X-175821Y80300D01*
X-175756Y79804D01*
X-176066Y79566D01*
X-176867Y78522D01*
X-177229Y77648D01*
X-177771D01*
X-178132Y78522D01*
X-178934Y79566D01*
X-179978Y80367D01*
X-181195Y80871D01*
X-182500Y81043D01*
X-183805Y80871D01*
X-185022Y80367D01*
X-186066Y79566D01*
X-186867Y78522D01*
X-187229Y77648D01*
X-187771D01*
X-188040Y78297D01*
X-169367Y96971D01*
X-164108D01*
X-163784Y96548D01*
D02*
G37*
G36*
X-197430Y98273D02*
X-197423Y98217D01*
X-197120Y97487D01*
X-196640Y96860D01*
X-196013Y96380D01*
X-195283Y96077D01*
X-194500Y95974D01*
X-193717Y96077D01*
X-192987Y96380D01*
X-192360Y96860D01*
X-191892Y97471D01*
X-173846D01*
X-173654Y97009D01*
X-190203Y80460D01*
X-191195Y80871D01*
X-192500Y81043D01*
X-193805Y80871D01*
X-195022Y80367D01*
X-196066Y79566D01*
X-196868Y78522D01*
X-197229Y77648D01*
X-197771D01*
X-198133Y78522D01*
X-198934Y79566D01*
X-199978Y80367D01*
X-201195Y80871D01*
X-202500Y81043D01*
X-203805Y80871D01*
X-205022Y80367D01*
X-206066Y79566D01*
X-206868Y78522D01*
X-207229Y77648D01*
X-207771D01*
X-208133Y78522D01*
X-208934Y79566D01*
X-209978Y80367D01*
X-211195Y80871D01*
X-212500Y81043D01*
X-213805Y80871D01*
X-215022Y80367D01*
X-216066Y79566D01*
X-216867Y78522D01*
X-217229Y77648D01*
X-217771D01*
X-218040Y78298D01*
X-197904Y98434D01*
X-197430Y98273D01*
D02*
G37*
G36*
X-157548Y62509D02*
X-159527Y60529D01*
X-214211D01*
X-214361Y61029D01*
X-213632Y61978D01*
X-213222Y62971D01*
X-157739D01*
X-157548Y62509D01*
D02*
G37*
D14*
X-133000Y188500D02*
X-117000D01*
X-73500Y189500D02*
X-58500D01*
X-145000Y133000D02*
X-132500Y145500D01*
X-145000Y72893D02*
Y133000D01*
X-156222Y64500D02*
X-147000Y73722D01*
X-216500Y64500D02*
X-156222D01*
X-218000Y66000D02*
X-216500Y64500D01*
X-228000D02*
X-222500Y59000D01*
X-158893D01*
X-145000Y72893D01*
X-147000Y73722D02*
Y137000D01*
X-138500Y145500D01*
X-222500Y76000D02*
X-197000Y101500D01*
Y130500D01*
X-191500Y188500D02*
X-175500D01*
X-201000Y179000D02*
X-191500Y188500D01*
X-84000Y179000D02*
X-73500Y189500D01*
X-142500Y179000D02*
X-133000Y188500D01*
X-327500Y265000D02*
X-322000Y259500D01*
Y258136D02*
Y259500D01*
Y258136D02*
X-197864Y134000D01*
X-195550D01*
X-180000Y118450D01*
Y103000D02*
Y118450D01*
X-162500Y95000D02*
X-157500D01*
X-174500Y83000D02*
X-162500Y95000D01*
X-170000Y98500D02*
X-161500D01*
X-192500Y76000D02*
X-170000Y98500D01*
X-154000Y91500D02*
X-153500Y91000D01*
X-154000Y91500D02*
Y96450D01*
X-159550Y102000D02*
X-154000Y96450D01*
X-169328Y102000D02*
X-159550D01*
X-172328Y99000D02*
X-169328Y102000D01*
X-194500Y99000D02*
X-172328D01*
D15*
X-342400Y311500D02*
X-334000D01*
X-327500Y305000D01*
X-43500Y95000D02*
Y224000D01*
X-57500Y238000D02*
X-43500Y224000D01*
X-116500Y204000D02*
Y238000D01*
Y204000D02*
X-81500Y169000D01*
Y95000D02*
Y169000D01*
X-130500Y42500D02*
X-119000Y54000D01*
X-110808D01*
X-107000Y57808D01*
Y74000D01*
X-113500Y80500D02*
X-107000Y74000D01*
X-113500Y80500D02*
X-38000D01*
X-176000Y109000D02*
X-169000Y116000D01*
X-107500Y139500D02*
Y165500D01*
X-117500Y175500D02*
X-107500Y165500D01*
X-169000Y116000D02*
Y168342D01*
X-176500Y175842D02*
X-169000Y168342D01*
D16*
X-123250Y79643D02*
Y145750D01*
Y79643D02*
X-114107Y70500D01*
X-113500D01*
X-175000Y197500D02*
X-123250Y145750D01*
X-175000Y197500D02*
Y238000D01*
D17*
X-126357Y79643D02*
X-123250D01*
X-130000Y76000D02*
X-126357Y79643D01*
D18*
X-352500Y200000D02*
X-317500D01*
X-357500Y205000D02*
X-352500Y200000D01*
X-357500Y210000D02*
X-317500D01*
X-357500Y215000D02*
X-352500Y220000D01*
X-317500D01*
D19*
X-357500Y210000D02*
Y215000D01*
Y205000D02*
Y210000D01*
D20*
X-140000Y76000D02*
D03*
Y63500D02*
D03*
X-140500Y42500D02*
D03*
D21*
X-130000Y76000D02*
D03*
Y63500D02*
D03*
X-130500Y42500D02*
D03*
X-120500Y42500D02*
D03*
D22*
X-347500Y305000D02*
D03*
X-357500D02*
D03*
Y295000D02*
D03*
X-347500D02*
D03*
X-337500D02*
D03*
D23*
X-357500Y285000D02*
D03*
Y265000D02*
D03*
D24*
X-347500Y285000D02*
D03*
Y265000D02*
D03*
X-317500Y280000D02*
D03*
Y270000D02*
D03*
Y290000D02*
D03*
Y260000D02*
D03*
D25*
X-357500Y275000D02*
D03*
X-347500D02*
D03*
X-357500Y255000D02*
D03*
Y245000D02*
D03*
X-347500D02*
D03*
X-357500Y235000D02*
D03*
X-347500D02*
D03*
X-357500Y225000D02*
D03*
Y215000D02*
D03*
Y205000D02*
D03*
Y195000D02*
D03*
Y185000D02*
D03*
X-347500D02*
D03*
X-357500Y175000D02*
D03*
X-347500D02*
D03*
X-357500Y165000D02*
D03*
X-347500D02*
D03*
X-357500Y155000D02*
D03*
X-347500D02*
D03*
X-357500Y145000D02*
D03*
X-347500D02*
D03*
X-357500Y135000D02*
D03*
X-347500D02*
D03*
X-357500Y125000D02*
D03*
X-347500D02*
D03*
X-357500Y115000D02*
D03*
X-347500D02*
D03*
X-357500Y105000D02*
D03*
X-347500D02*
D03*
X-357500Y95000D02*
D03*
X-347500D02*
D03*
X-357500Y85000D02*
D03*
X-347500D02*
D03*
X-357500Y75000D02*
D03*
X-347500D02*
D03*
X-357500Y65000D02*
D03*
X-347500D02*
D03*
X-357500Y55000D02*
D03*
X-327500Y305000D02*
D03*
X-337500D02*
D03*
Y245000D02*
D03*
X-327500D02*
D03*
X-337500Y235000D02*
D03*
X-327500D02*
D03*
X-337500Y175000D02*
D03*
X-327500D02*
D03*
X-337500Y165000D02*
D03*
X-327500D02*
D03*
X-337500Y155000D02*
D03*
X-327500D02*
D03*
X-337500Y145000D02*
D03*
X-327500D02*
D03*
X-337500Y135000D02*
D03*
X-327500D02*
D03*
X-337500Y125000D02*
D03*
X-327500D02*
D03*
X-337500Y115000D02*
D03*
X-327500D02*
D03*
X-337500Y105000D02*
D03*
X-327500D02*
D03*
X-337500Y95000D02*
D03*
X-327500D02*
D03*
X-337500Y85000D02*
D03*
X-327500D02*
D03*
X-337500Y75000D02*
D03*
X-327500D02*
D03*
X-337500Y65000D02*
D03*
X-327500D02*
D03*
X-337500Y55000D02*
D03*
Y42500D02*
D03*
X-327500D02*
D03*
X-317500D02*
D03*
X-307500D02*
D03*
X-297500D02*
D03*
X-113500Y60500D02*
D03*
Y70500D02*
D03*
Y80500D02*
D03*
X-75000Y60500D02*
D03*
Y70500D02*
D03*
Y80500D02*
D03*
X-37000Y60500D02*
D03*
Y70500D02*
D03*
Y80500D02*
D03*
X-272500Y71000D02*
D03*
Y61000D02*
D03*
Y51000D02*
D03*
Y41000D02*
D03*
Y31000D02*
D03*
Y21000D02*
D03*
X-218000Y64500D02*
D03*
X-228000D02*
D03*
X-152500Y76000D02*
D03*
X-162500D02*
D03*
X-172500D02*
D03*
X-182500D02*
D03*
X-192500D02*
D03*
X-202500D02*
D03*
X-212500D02*
D03*
X-222500D02*
D03*
X-232500D02*
D03*
X-242500D02*
D03*
X-252500D02*
D03*
X-262500D02*
D03*
X-152500Y16000D02*
D03*
X-162500D02*
D03*
X-172500D02*
D03*
X-182500D02*
D03*
X-192500D02*
D03*
X-202500D02*
D03*
X-212500D02*
D03*
X-222500D02*
D03*
X-232500D02*
D03*
X-242500D02*
D03*
X-252500D02*
D03*
X-262500D02*
D03*
D26*
X-347500Y255000D02*
D03*
Y225000D02*
D03*
Y215000D02*
D03*
Y205000D02*
D03*
Y195000D02*
D03*
X-327500Y295000D02*
D03*
X-337500Y285000D02*
D03*
X-327500D02*
D03*
X-337500Y275000D02*
D03*
X-327500D02*
D03*
X-337500Y265000D02*
D03*
X-327500D02*
D03*
X-337500Y255000D02*
D03*
X-327500D02*
D03*
X-337500Y225000D02*
D03*
X-327500D02*
D03*
X-337500Y215000D02*
D03*
X-327500D02*
D03*
X-337500Y205000D02*
D03*
X-327500D02*
D03*
X-337500Y195000D02*
D03*
X-327500D02*
D03*
X-337500Y185000D02*
D03*
X-327500D02*
D03*
D27*
X-347500Y55000D02*
D03*
X-327500D02*
D03*
D28*
X-245071Y262760D02*
D03*
Y144650D02*
D03*
D29*
X-102500Y19232D02*
D03*
Y27500D02*
D03*
X-82500Y19232D02*
D03*
Y27500D02*
D03*
X-62500Y19232D02*
D03*
Y27500D02*
D03*
X-42500Y19232D02*
D03*
Y27500D02*
D03*
D30*
X-287500Y42500D02*
D03*
D31*
X-117000Y188500D02*
D03*
X-58500Y189500D02*
D03*
X-342400Y311500D02*
D03*
X-317500Y200000D02*
D03*
X-312500Y190000D02*
D03*
X-317500D02*
D03*
Y210000D02*
D03*
Y220000D02*
D03*
X-57500Y238000D02*
D03*
X-116500D02*
D03*
X-43500Y95000D02*
D03*
X-81500D02*
D03*
X-132500Y145500D02*
D03*
X-138500D02*
D03*
X-197000Y130500D02*
D03*
X-88000Y68500D02*
D03*
X-50500D02*
D03*
X-13000D02*
D03*
X-201000Y179000D02*
D03*
X-175500Y188500D02*
D03*
X-142500Y179000D02*
D03*
X-84000D02*
D03*
X-180000Y103000D02*
D03*
X-204250Y86000D02*
D03*
X-174500Y83000D02*
D03*
X-157500Y95000D02*
D03*
X-161500Y98500D02*
D03*
X-153500Y91000D02*
D03*
X-194500Y99000D02*
D03*
X-175000Y102500D02*
D03*
X-178000Y95500D02*
D03*
X-197158Y195500D02*
D03*
X-138500D02*
D03*
X-80000Y196500D02*
D03*
X-176000Y109000D02*
D03*
X-169000Y116000D02*
D03*
X-107500Y139500D02*
D03*
X-117500Y175500D02*
D03*
X-176500Y175842D02*
D03*
X-349500Y30000D02*
D03*
Y40000D02*
D03*
X-365500Y30000D02*
D03*
Y40000D02*
D03*
X-357500Y25500D02*
D03*
Y44500D02*
D03*
X-349500Y320000D02*
D03*
Y330000D02*
D03*
X-365500Y320000D02*
D03*
Y330000D02*
D03*
X-357500Y315500D02*
D03*
Y334500D02*
D03*
X-12000Y330000D02*
D03*
Y340000D02*
D03*
X-28000Y330000D02*
D03*
Y340000D02*
D03*
X-20000Y325500D02*
D03*
Y344500D02*
D03*
X-12000Y15000D02*
D03*
Y25000D02*
D03*
X-28000Y15000D02*
D03*
Y25000D02*
D03*
X-20000Y10500D02*
D03*
Y29500D02*
D03*
D32*
X-35500Y324500D02*
D03*
X-284500Y86000D02*
D03*
D33*
X-175000Y238000D02*
D03*
D34*
X-357500Y325000D02*
D03*
X-20000Y20000D02*
D03*
X-357500Y35000D02*
D03*
X-20000Y335000D02*
D03*
M02*
