G04 Layer_Color=16711935*
%FSLAX25Y25*%
%MOIN*%
G70*
G01*
G75*
%ADD45C,0.05800*%
%ADD46C,0.04800*%
%ADD47C,0.03800*%
%ADD48R,0.07800X0.07800*%
%ADD49C,0.07800*%
%ADD50O,0.08800X0.05800*%
%ADD51O,0.06800X0.08800*%
%ADD52C,0.06800*%
%ADD53C,0.08800*%
%ADD54O,0.08800X0.06800*%
%ADD55R,0.08800X0.08800*%
%ADD56C,0.24422*%
%ADD57C,0.05524*%
%ADD58R,0.08800X0.08800*%
%ADD59C,0.04800*%
%ADD60C,0.08674*%
%ADD61C,0.10800*%
%ADD62C,0.25800*%
D45*
X-123250Y79643D02*
Y145750D01*
Y79643D02*
X-114107Y70500D01*
X-113500D01*
X-175000Y197500D02*
X-123250Y145750D01*
X-175000Y197500D02*
Y238000D01*
D46*
X-126357Y79643D02*
X-123250D01*
X-130000Y76000D02*
X-126357Y79643D01*
D47*
X-130500Y42500D02*
X-119000Y54000D01*
X-110808D01*
X-107000Y57808D01*
Y74000D01*
X-113500Y80500D02*
X-107000Y74000D01*
D48*
X-140000Y76000D02*
D03*
Y63500D02*
D03*
X-140500Y42500D02*
D03*
D49*
X-130000Y76000D02*
D03*
Y63500D02*
D03*
X-130500Y42500D02*
D03*
X-120500Y42500D02*
D03*
D50*
X-347500Y305000D02*
D03*
X-357500D02*
D03*
Y295000D02*
D03*
X-347500D02*
D03*
X-337500D02*
D03*
D51*
X-357500Y285000D02*
D03*
Y265000D02*
D03*
D52*
X-347500Y285000D02*
D03*
Y265000D02*
D03*
X-317500Y280000D02*
D03*
Y270000D02*
D03*
Y290000D02*
D03*
Y260000D02*
D03*
D53*
X-357500Y275000D02*
D03*
X-347500D02*
D03*
X-357500Y255000D02*
D03*
Y245000D02*
D03*
X-347500D02*
D03*
X-357500Y235000D02*
D03*
X-347500D02*
D03*
X-357500Y225000D02*
D03*
Y215000D02*
D03*
Y205000D02*
D03*
Y195000D02*
D03*
Y185000D02*
D03*
X-347500D02*
D03*
X-357500Y175000D02*
D03*
X-347500D02*
D03*
X-357500Y165000D02*
D03*
X-347500D02*
D03*
X-357500Y155000D02*
D03*
X-347500D02*
D03*
X-357500Y145000D02*
D03*
X-347500D02*
D03*
X-357500Y135000D02*
D03*
X-347500D02*
D03*
X-357500Y125000D02*
D03*
X-347500D02*
D03*
X-357500Y115000D02*
D03*
X-347500D02*
D03*
X-357500Y105000D02*
D03*
X-347500D02*
D03*
X-357500Y95000D02*
D03*
X-347500D02*
D03*
X-357500Y85000D02*
D03*
X-347500D02*
D03*
X-357500Y75000D02*
D03*
X-347500D02*
D03*
X-357500Y65000D02*
D03*
X-347500D02*
D03*
X-357500Y55000D02*
D03*
X-327500Y305000D02*
D03*
X-337500D02*
D03*
Y245000D02*
D03*
X-327500D02*
D03*
X-337500Y235000D02*
D03*
X-327500D02*
D03*
X-337500Y175000D02*
D03*
X-327500D02*
D03*
X-337500Y165000D02*
D03*
X-327500D02*
D03*
X-337500Y155000D02*
D03*
X-327500D02*
D03*
X-337500Y145000D02*
D03*
X-327500D02*
D03*
X-337500Y135000D02*
D03*
X-327500D02*
D03*
X-337500Y125000D02*
D03*
X-327500D02*
D03*
X-337500Y115000D02*
D03*
X-327500D02*
D03*
X-337500Y105000D02*
D03*
X-327500D02*
D03*
X-337500Y95000D02*
D03*
X-327500D02*
D03*
X-337500Y85000D02*
D03*
X-327500D02*
D03*
X-337500Y75000D02*
D03*
X-327500D02*
D03*
X-337500Y65000D02*
D03*
X-327500D02*
D03*
X-337500Y55000D02*
D03*
Y42500D02*
D03*
X-327500D02*
D03*
X-317500D02*
D03*
X-307500D02*
D03*
X-297500D02*
D03*
X-113500Y60500D02*
D03*
Y70500D02*
D03*
Y80500D02*
D03*
X-75000Y60500D02*
D03*
Y70500D02*
D03*
Y80500D02*
D03*
X-37000Y60500D02*
D03*
Y70500D02*
D03*
Y80500D02*
D03*
X-272500Y71000D02*
D03*
Y61000D02*
D03*
Y51000D02*
D03*
Y41000D02*
D03*
Y31000D02*
D03*
Y21000D02*
D03*
X-218000Y64500D02*
D03*
X-228000D02*
D03*
X-152500Y76000D02*
D03*
X-162500D02*
D03*
X-172500D02*
D03*
X-182500D02*
D03*
X-192500D02*
D03*
X-202500D02*
D03*
X-212500D02*
D03*
X-222500D02*
D03*
X-232500D02*
D03*
X-242500D02*
D03*
X-252500D02*
D03*
X-262500D02*
D03*
X-152500Y16000D02*
D03*
X-162500D02*
D03*
X-172500D02*
D03*
X-182500D02*
D03*
X-192500D02*
D03*
X-202500D02*
D03*
X-212500D02*
D03*
X-222500D02*
D03*
X-232500D02*
D03*
X-242500D02*
D03*
X-252500D02*
D03*
X-262500D02*
D03*
D54*
X-347500Y255000D02*
D03*
Y225000D02*
D03*
Y215000D02*
D03*
Y205000D02*
D03*
Y195000D02*
D03*
X-327500Y295000D02*
D03*
X-337500Y285000D02*
D03*
X-327500D02*
D03*
X-337500Y275000D02*
D03*
X-327500D02*
D03*
X-337500Y265000D02*
D03*
X-327500D02*
D03*
X-337500Y255000D02*
D03*
X-327500D02*
D03*
X-337500Y225000D02*
D03*
X-327500D02*
D03*
X-337500Y215000D02*
D03*
X-327500D02*
D03*
X-337500Y205000D02*
D03*
X-327500D02*
D03*
X-337500Y195000D02*
D03*
X-327500D02*
D03*
X-337500Y185000D02*
D03*
X-327500D02*
D03*
D55*
X-347500Y55000D02*
D03*
X-327500D02*
D03*
D56*
X-245071Y262760D02*
D03*
Y144650D02*
D03*
D57*
X-102500Y19232D02*
D03*
Y27500D02*
D03*
X-82500Y19232D02*
D03*
Y27500D02*
D03*
X-62500Y19232D02*
D03*
Y27500D02*
D03*
X-42500Y19232D02*
D03*
Y27500D02*
D03*
D58*
X-287500Y42500D02*
D03*
D59*
X-117000Y188500D02*
D03*
X-58500Y189500D02*
D03*
X-342400Y311500D02*
D03*
X-317500Y200000D02*
D03*
X-312500Y190000D02*
D03*
X-317500D02*
D03*
Y210000D02*
D03*
Y220000D02*
D03*
X-57500Y238000D02*
D03*
X-116500D02*
D03*
X-43500Y95000D02*
D03*
X-81500D02*
D03*
X-132500Y145500D02*
D03*
X-138500D02*
D03*
X-197000Y130500D02*
D03*
X-88000Y68500D02*
D03*
X-50500D02*
D03*
X-13000D02*
D03*
X-201000Y179000D02*
D03*
X-175500Y188500D02*
D03*
X-142500Y179000D02*
D03*
X-84000D02*
D03*
X-180000Y103000D02*
D03*
X-204250Y86000D02*
D03*
X-174500Y83000D02*
D03*
X-157500Y95000D02*
D03*
X-161500Y98500D02*
D03*
X-153500Y91000D02*
D03*
X-194500Y99000D02*
D03*
X-175000Y102500D02*
D03*
X-178000Y95500D02*
D03*
X-197158Y195500D02*
D03*
X-138500D02*
D03*
X-80000Y196500D02*
D03*
X-176000Y109000D02*
D03*
X-169000Y116000D02*
D03*
X-107500Y139500D02*
D03*
X-117500Y175500D02*
D03*
X-176500Y175842D02*
D03*
X-349500Y30000D02*
D03*
Y40000D02*
D03*
X-365500Y30000D02*
D03*
Y40000D02*
D03*
X-357500Y25500D02*
D03*
Y44500D02*
D03*
X-349500Y320000D02*
D03*
Y330000D02*
D03*
X-365500Y320000D02*
D03*
Y330000D02*
D03*
X-357500Y315500D02*
D03*
Y334500D02*
D03*
X-12000Y330000D02*
D03*
Y340000D02*
D03*
X-28000Y330000D02*
D03*
Y340000D02*
D03*
X-20000Y325500D02*
D03*
Y344500D02*
D03*
X-12000Y15000D02*
D03*
Y25000D02*
D03*
X-28000Y15000D02*
D03*
Y25000D02*
D03*
X-20000Y10500D02*
D03*
Y29500D02*
D03*
D60*
X-35500Y324500D02*
D03*
X-284500Y86000D02*
D03*
D61*
X-175000Y238000D02*
D03*
D62*
X-357500Y325000D02*
D03*
X-20000Y20000D02*
D03*
X-357500Y35000D02*
D03*
X-20000Y335000D02*
D03*
M02*
