G04 Layer_Physical_Order=1*
G04 Layer_Color=255*
%FSLAX25Y25*%
%MOIN*%
G70*
G01*
G75*
%ADD10R,0.05000X0.04000*%
%ADD11R,0.04000X0.05000*%
%ADD12R,0.02362X0.03937*%
%ADD13O,0.02362X0.05906*%
%ADD14C,0.01000*%
%ADD15C,0.03000*%
%ADD16C,0.05000*%
%ADD17C,0.04000*%
%ADD18C,0.02000*%
%ADD19C,0.08000*%
%ADD20R,0.07000X0.07000*%
%ADD21C,0.07000*%
%ADD22O,0.08000X0.05000*%
%ADD23O,0.06000X0.08000*%
%ADD24C,0.06000*%
%ADD25C,0.08000*%
%ADD26O,0.08000X0.06000*%
%ADD27R,0.08000X0.08000*%
%ADD28C,0.23622*%
%ADD29C,0.04724*%
%ADD30R,0.08000X0.08000*%
%ADD31C,0.04000*%
%ADD32C,0.07874*%
%ADD33C,0.10000*%
%ADD34C,0.25000*%
D10*
X-42500Y43500D02*
D03*
Y35500D02*
D03*
X-62500Y43500D02*
D03*
Y35500D02*
D03*
X-82500Y43500D02*
D03*
Y35500D02*
D03*
X-102500Y43500D02*
D03*
Y35500D02*
D03*
X-90500Y53500D02*
D03*
Y61500D02*
D03*
X-99000D02*
D03*
Y53500D02*
D03*
Y76500D02*
D03*
Y68500D02*
D03*
X-90500Y76500D02*
D03*
Y68500D02*
D03*
X-53000Y53500D02*
D03*
Y61500D02*
D03*
X-61000D02*
D03*
Y53500D02*
D03*
X-53000Y76500D02*
D03*
Y68500D02*
D03*
X-61000Y76500D02*
D03*
Y68500D02*
D03*
X-23500Y61500D02*
D03*
Y53500D02*
D03*
X-15500D02*
D03*
Y61500D02*
D03*
Y76500D02*
D03*
Y68500D02*
D03*
X-23500Y76500D02*
D03*
Y68500D02*
D03*
X-197158Y203500D02*
D03*
Y195500D02*
D03*
X-189157Y203500D02*
D03*
Y195500D02*
D03*
X-181158Y203500D02*
D03*
Y195500D02*
D03*
Y180500D02*
D03*
Y188500D02*
D03*
X-138500Y203500D02*
D03*
Y195500D02*
D03*
X-122500Y203500D02*
D03*
Y195500D02*
D03*
X-130500Y203500D02*
D03*
Y195500D02*
D03*
X-122500Y180500D02*
D03*
Y188500D02*
D03*
X-64000Y181500D02*
D03*
Y189500D02*
D03*
Y204500D02*
D03*
Y196500D02*
D03*
X-80000Y204500D02*
D03*
Y196500D02*
D03*
X-72000Y204500D02*
D03*
Y196500D02*
D03*
X-197000Y144000D02*
D03*
Y136000D02*
D03*
X-189000Y144000D02*
D03*
Y136000D02*
D03*
D11*
X-229000Y86000D02*
D03*
X-221000D02*
D03*
X-215000D02*
D03*
X-207000D02*
D03*
X-179500D02*
D03*
X-187500D02*
D03*
X-193500D02*
D03*
X-201500D02*
D03*
X-99000Y84500D02*
D03*
X-91000D02*
D03*
X-61000Y84000D02*
D03*
X-53000D02*
D03*
X-23500D02*
D03*
X-15500D02*
D03*
X-189657Y188000D02*
D03*
X-197658D02*
D03*
X-197500Y159500D02*
D03*
X-189500D02*
D03*
Y151500D02*
D03*
X-197500D02*
D03*
X-131000Y188000D02*
D03*
X-139000D02*
D03*
X-138500Y159500D02*
D03*
X-130500D02*
D03*
Y151500D02*
D03*
X-138500D02*
D03*
X-72500Y151000D02*
D03*
X-80500D02*
D03*
Y159500D02*
D03*
X-72500D02*
D03*
Y189000D02*
D03*
X-80500D02*
D03*
X-186000Y115000D02*
D03*
X-194000D02*
D03*
X-186000Y107000D02*
D03*
X-194000D02*
D03*
D12*
X-189417Y178913D02*
D03*
X-193157D02*
D03*
X-196898D02*
D03*
Y168087D02*
D03*
X-189417D02*
D03*
X-130760Y178913D02*
D03*
X-134500D02*
D03*
X-138240D02*
D03*
Y168087D02*
D03*
X-130760D02*
D03*
X-72260Y178913D02*
D03*
X-76000D02*
D03*
X-79740D02*
D03*
Y168087D02*
D03*
X-72260D02*
D03*
D13*
X-197000Y216870D02*
D03*
X-192000D02*
D03*
X-187000D02*
D03*
X-182000D02*
D03*
X-197000Y238130D02*
D03*
X-192000D02*
D03*
X-187000D02*
D03*
X-182000D02*
D03*
X-79500Y216870D02*
D03*
X-74500D02*
D03*
X-69500D02*
D03*
X-64500D02*
D03*
X-79500Y238130D02*
D03*
X-74500D02*
D03*
X-69500D02*
D03*
X-64500D02*
D03*
X-138500Y216870D02*
D03*
X-133500D02*
D03*
X-128500D02*
D03*
X-123500D02*
D03*
X-138500Y238130D02*
D03*
X-133500D02*
D03*
X-128500D02*
D03*
X-123500D02*
D03*
D14*
X-64000Y189500D02*
X-58500D01*
X-122500Y188500D02*
X-117000D01*
X-113500Y187050D02*
Y194500D01*
X-120050Y180500D02*
X-113500Y187050D01*
X-122500Y203500D02*
X-113500Y194500D01*
X-122500Y180500D02*
X-120050D01*
X-130500Y188500D02*
X-122500D01*
X-307000Y61000D02*
X-272500D01*
X-325500Y42500D02*
X-307000Y61000D01*
X-327500Y42500D02*
X-325500D01*
X-279500Y48000D02*
X-272500Y41000D01*
X-302000Y48000D02*
X-279500D01*
X-307500Y42500D02*
X-302000Y48000D01*
X-309000Y51000D02*
X-272500D01*
X-287000Y31000D02*
X-272500D01*
X-297500Y41500D02*
X-287000Y31000D01*
X-297500Y41500D02*
Y42500D01*
X-322000Y49500D02*
X-300500Y71000D01*
X-330500Y49500D02*
X-322000D01*
X-138240Y151760D02*
Y168087D01*
X-138500Y145500D02*
Y151500D01*
X-79740Y152260D02*
Y168087D01*
X-80500Y145500D02*
Y151500D01*
X-132500Y145500D02*
X-80500D01*
X-197000Y130500D02*
Y136000D01*
X-189000D01*
X-186658Y206000D02*
Y219843D01*
X-185177Y221323D01*
X-180889D01*
X-170000Y210433D01*
Y163000D02*
Y210433D01*
X-189000Y144000D02*
X-170000Y163000D01*
X-197500Y144500D02*
X-197000Y144000D01*
X-197500Y144500D02*
Y151500D01*
X-327500Y42500D02*
X-327050D01*
X-317500D02*
X-309000Y51000D01*
X-300500Y71000D02*
X-272500D01*
X-337500Y42500D02*
X-330500Y49500D01*
X-102500Y27500D02*
Y35500D01*
X-82500Y27500D02*
Y35500D01*
X-62500Y27500D02*
Y35500D01*
X-42500Y27500D02*
Y35500D01*
X-43500Y65000D02*
X-38000Y70500D01*
X-43500Y44500D02*
Y65000D01*
Y44500D02*
X-42500Y43500D01*
X-81000Y65000D02*
X-75500Y70500D01*
X-81000Y56000D02*
Y65000D01*
Y56000D02*
X-68500Y43500D01*
X-62500D01*
X-119000Y65000D02*
X-113500Y70500D01*
X-119000Y58222D02*
Y65000D01*
Y58222D02*
X-110778Y50000D01*
X-89000D01*
X-82500Y43500D01*
X-130500Y42500D02*
X-125500Y37500D01*
X-108500D01*
X-102500Y43500D01*
X-181658Y204000D02*
X-181158Y203500D01*
X-197000Y210279D02*
Y216870D01*
X-201157Y206121D02*
X-197000Y210279D01*
X-201157Y199500D02*
Y206121D01*
Y199500D02*
X-197158Y195500D01*
X-189157Y188500D02*
X-181158D01*
X-189417Y178913D02*
Y180760D01*
X-193157Y178913D02*
Y181000D01*
X-181158Y176347D02*
Y180500D01*
X-189417Y168087D02*
X-181158Y176347D01*
X-197158Y185000D02*
X-193157Y181000D01*
Y184500D02*
X-189417Y180760D01*
X-193157Y191500D02*
X-189157Y195500D01*
X-193157Y184500D02*
Y191500D01*
X-184658Y199000D02*
X-181158Y195500D01*
X-193658Y199000D02*
X-184658D01*
X-197158Y195500D02*
X-193658Y199000D01*
X-197158Y185000D02*
Y195500D01*
X-189157Y203500D02*
X-186658Y206000D01*
X-189417Y173357D02*
Y178913D01*
X-192098Y170676D02*
X-189417Y173357D01*
X-192098Y165497D02*
Y170676D01*
Y165497D02*
X-189417Y162816D01*
Y151583D02*
Y162816D01*
X-197500Y167484D02*
X-196898Y168087D01*
X-197500Y159500D02*
Y167484D01*
Y151500D02*
Y159500D01*
X-181158Y188500D02*
X-175500D01*
X-201000Y179000D02*
X-196984D01*
X-191657Y209000D02*
Y216870D01*
X-197158Y203500D02*
X-191657Y209000D01*
X-181158Y203500D02*
X-172000Y194343D01*
Y187050D02*
Y194343D01*
X-178550Y180500D02*
X-172000Y187050D01*
X-181158Y180500D02*
X-178550D01*
X-181658Y204000D02*
Y216870D01*
X-123500Y204500D02*
Y216870D01*
Y204500D02*
X-122500Y203500D01*
Y176347D02*
Y180500D01*
X-130760Y168087D02*
X-122500Y176347D01*
X-128500Y205500D02*
Y216870D01*
X-130500Y203500D02*
X-128500Y205500D01*
X-64500Y205000D02*
Y216870D01*
X-64000Y176347D02*
Y181500D01*
X-72260Y168087D02*
X-64000Y176347D01*
X-64500Y205000D02*
X-64000Y204500D01*
X-69500Y207000D02*
Y216870D01*
X-72000Y204500D02*
X-69500Y207000D01*
X-133500Y208500D02*
Y216870D01*
X-138500Y203500D02*
X-133500Y208500D01*
X-74500Y210000D02*
Y216870D01*
X-80000Y204500D02*
X-74500Y210000D01*
X-138500Y210121D02*
Y216870D01*
X-142500Y206121D02*
X-138500Y210121D01*
X-142500Y199500D02*
Y206121D01*
Y199500D02*
X-138500Y195500D01*
X-135000Y199000D01*
X-126000D01*
X-122500Y195500D01*
X-138500Y185000D02*
X-134500Y181000D01*
Y178913D02*
Y181000D01*
X-138500Y185000D02*
Y195500D01*
X-80000Y196500D02*
X-76500Y200000D01*
X-67500D01*
X-64000Y196500D01*
X-80000Y185500D02*
X-76000Y181500D01*
Y178913D02*
Y181500D01*
X-79500Y211621D02*
Y216870D01*
X-84000Y207121D02*
X-79500Y211621D01*
X-84000Y200500D02*
Y207121D01*
Y200500D02*
X-80000Y196500D01*
Y185500D02*
Y196500D01*
X-72000Y189500D02*
X-64000D01*
X-76000Y192500D02*
X-72000Y196500D01*
X-76000Y185500D02*
Y192500D01*
Y185500D02*
X-72260Y181760D01*
Y178913D02*
Y181760D01*
Y173357D02*
Y178913D01*
X-74941Y170676D02*
X-72260Y173357D01*
X-74941Y165497D02*
X-72260Y162816D01*
Y151740D02*
Y162816D01*
X-134500Y191500D02*
X-130500Y195500D01*
X-134500Y184500D02*
Y191500D01*
Y184500D02*
X-130760Y180760D01*
X-133441Y170676D02*
X-130760Y173357D01*
X-133441Y165441D02*
Y170676D01*
Y165441D02*
X-130500Y162500D01*
X-130760Y178913D02*
Y180760D01*
Y173357D02*
Y178913D01*
X-130500Y159500D02*
Y162500D01*
Y151500D02*
Y159500D01*
X-64000Y204500D02*
X-55000Y195500D01*
Y188050D02*
Y195500D01*
X-61550Y181500D02*
X-55000Y188050D01*
X-64000Y181500D02*
X-61550D01*
X-142413Y178913D02*
X-138240D01*
X-83913D02*
X-79740D01*
X-74941Y165497D02*
Y170676D01*
X-327500Y255000D02*
X-327379D01*
X-190500Y118121D01*
Y118000D02*
Y118121D01*
Y118000D02*
X-187500Y115000D01*
X-186000Y107000D02*
X-184000D01*
X-180000Y103000D01*
X-221000Y86000D02*
X-215000D01*
X-212500Y76000D02*
Y83500D01*
X-215000Y86000D02*
X-212500Y83500D01*
X-202500Y76000D02*
Y77000D01*
X-193500Y86000D01*
X-187500D01*
X-157500Y95000D02*
X-81500D01*
X-47000Y98500D02*
X-43500Y95000D01*
X-161500Y98500D02*
X-47000D01*
X-134000Y91000D02*
X-113500Y70500D01*
X-153500Y91000D02*
X-134000D01*
X-177500Y86000D02*
X-174500Y83000D01*
X-179500Y86000D02*
X-177500D01*
X-216000Y99000D02*
X-194500D01*
X-229000Y86000D02*
X-216000Y99000D01*
X-165000Y97050D02*
X-152500Y84550D01*
Y76000D02*
Y84550D01*
X-186000Y98000D02*
Y107000D01*
X-164000Y76000D02*
X-162500D01*
X-186000Y98000D02*
X-178000Y90000D01*
X-176500D01*
X-162500Y76000D01*
X-186000Y115000D02*
X-176500D01*
X-165000Y103500D01*
Y97050D02*
Y103500D01*
X-178000Y111000D02*
X-176000Y109000D01*
X-194000Y107000D02*
X-190000Y111000D01*
X-178000D01*
D15*
X-122500Y180500D02*
X-117500Y175500D01*
X-343900Y310000D02*
X-342400Y311500D01*
X-368000Y185500D02*
X-357500Y175000D01*
X-368000Y185500D02*
Y303071D01*
X-361071Y310000D01*
X-343900D01*
X-364000Y297071D02*
X-361071Y300000D01*
X-364000Y191500D02*
Y297071D01*
Y191500D02*
X-357500Y185000D01*
X-361071Y300000D02*
X-337500D01*
Y305000D01*
Y295000D02*
Y300000D01*
X-327500Y305000D02*
X-205370D01*
X-327500Y295000D02*
Y305000D01*
X-205370D02*
X-138500Y238130D01*
X-337500Y305000D02*
X-331000Y311500D01*
X-152870D01*
X-79500Y238130D01*
X-74500D01*
X-138500D02*
X-133500D01*
X-69370Y238000D02*
X-57500D01*
X-128370D02*
X-116500D01*
X-128500Y238130D02*
X-128370Y238000D01*
X-37000Y70500D02*
X-35500D01*
X-38000D02*
X-37000D01*
X-43500Y77000D02*
Y95000D01*
Y77000D02*
X-37000Y70500D01*
X-75250Y70750D02*
X-69500Y76500D01*
X-75500Y70500D02*
X-75250Y70750D01*
X-75000Y70500D01*
X-81500Y77000D02*
X-75250Y70750D01*
X-81500Y77000D02*
Y95000D01*
X-29500Y76500D02*
X-23500D01*
X-35500Y70500D02*
X-29500Y76500D01*
X-69500D02*
X-61000D01*
X-85500Y58464D02*
Y64535D01*
X-90465Y53500D02*
X-85500Y58464D01*
X-91000Y84500D02*
X-90465D01*
X-85500Y73465D02*
Y79536D01*
X-90465Y68500D02*
X-85500Y73465D01*
X-90465Y68500D02*
X-89464D01*
X-99000Y76500D02*
X-90500D01*
X-99000Y53500D02*
X-90500D01*
X-99000Y61500D02*
X-90500D01*
X-99000D02*
Y68500D01*
X-89464D02*
X-85500Y64535D01*
X-90465Y84500D02*
X-85500Y79536D01*
X-53000Y84000D02*
X-52464D01*
X-48000Y79536D01*
Y73465D02*
Y79536D01*
X-52965Y68500D02*
X-48000Y73465D01*
X-52965Y68500D02*
X-51964D01*
X-48000Y64535D01*
Y58464D02*
Y64535D01*
X-52965Y53500D02*
X-48000Y58464D01*
X-61000Y53500D02*
X-53000D01*
X-52965D01*
X-15500Y84000D02*
X-14965D01*
X-10500Y79536D01*
Y73465D02*
Y79536D01*
X-15464Y68500D02*
X-10500Y73465D01*
X-15464Y68500D02*
X-14465D01*
X-10500Y64535D01*
Y58464D02*
Y64535D01*
X-15464Y53500D02*
X-10500Y58464D01*
X-23500Y53500D02*
X-15500D01*
X-15464D01*
X-113500Y60500D02*
X-112500Y61500D01*
X-99000D01*
X-113500Y70500D02*
X-107500Y76500D01*
X-99000D01*
X-61000D02*
X-53000D01*
X-75500Y60500D02*
X-62000D01*
X-61000Y61500D01*
X-53000D01*
X-61000D02*
Y68500D01*
X-75500Y80500D02*
Y81000D01*
X-113500Y80500D02*
X-109500Y84500D01*
X-99000D01*
X-75500Y81000D02*
X-72500Y84000D01*
X-61000D01*
X-38000Y80500D02*
X-34500Y84000D01*
X-23500D01*
Y76500D02*
X-15500D01*
X-38000Y60500D02*
X-24500D01*
X-23500Y61500D01*
Y68500D01*
Y61500D02*
X-15500D01*
X-130000Y52000D02*
Y63500D01*
Y52000D02*
X-120500Y42500D01*
X-194000Y107000D02*
Y115000D01*
X-262500Y76000D02*
X-235000Y48500D01*
X-135965D01*
X-130500Y43036D01*
Y42500D02*
Y43036D01*
X-225500Y107000D02*
X-194000D01*
X-234000Y77500D02*
X-232500Y76000D01*
X-234000Y77500D02*
Y98500D01*
X-225500Y107000D01*
X-181158Y180500D02*
X-176500Y175842D01*
X-169000Y116000D02*
X-131000D01*
X-107500Y139500D01*
X-74500D01*
X-59500Y154500D01*
Y177000D01*
X-64000Y181500D02*
X-59500Y177000D01*
D16*
X-317500Y260000D02*
Y290000D01*
X-295630Y238130D02*
X-197000D01*
X-317500Y260000D02*
X-295630Y238130D01*
D17*
X-197000D02*
X-192000D01*
X-186870Y238000D02*
X-175000D01*
D18*
X-349571Y260000D02*
X-317500D01*
X-357500Y275000D02*
X-352500Y280000D01*
X-347500Y275000D02*
X-342500Y270000D01*
X-347500Y275000D02*
X-342500Y280000D01*
X-317500D01*
X-342500Y270000D02*
X-317500D01*
X-352500Y280000D02*
Y287071D01*
X-349571Y290000D01*
X-317500D01*
X-352500Y262929D02*
X-349571Y260000D01*
X-357500Y275000D02*
X-352500Y270000D01*
Y262929D02*
Y270000D01*
X-322500Y200000D02*
X-312500Y190000D01*
X-342500Y200000D02*
X-322500D01*
X-342500Y190000D02*
X-317500D01*
X-347500Y195000D02*
X-342500Y200000D01*
X-347500Y195000D02*
X-342500Y190000D01*
X-207000Y86000D02*
X-201500D01*
X-175000Y98500D02*
Y102500D01*
X-178000Y95500D02*
X-175000Y98500D01*
D19*
X-357500Y275000D02*
X-347500D01*
X-357500Y185000D02*
X-347500D01*
X-357500Y195000D02*
X-347500D01*
D20*
X-140000Y76000D02*
D03*
Y63500D02*
D03*
X-140500Y42500D02*
D03*
D21*
X-130000Y76000D02*
D03*
Y63500D02*
D03*
X-130500Y42500D02*
D03*
X-120500Y42500D02*
D03*
D22*
X-347500Y305000D02*
D03*
X-357500D02*
D03*
Y295000D02*
D03*
X-347500D02*
D03*
X-337500D02*
D03*
D23*
X-357500Y285000D02*
D03*
Y265000D02*
D03*
D24*
X-347500Y285000D02*
D03*
Y265000D02*
D03*
X-317500Y280000D02*
D03*
Y270000D02*
D03*
Y290000D02*
D03*
Y260000D02*
D03*
D25*
X-357500Y275000D02*
D03*
X-347500D02*
D03*
X-357500Y255000D02*
D03*
Y245000D02*
D03*
X-347500D02*
D03*
X-357500Y235000D02*
D03*
X-347500D02*
D03*
X-357500Y225000D02*
D03*
Y215000D02*
D03*
Y205000D02*
D03*
Y195000D02*
D03*
Y185000D02*
D03*
X-347500D02*
D03*
X-357500Y175000D02*
D03*
X-347500D02*
D03*
X-357500Y165000D02*
D03*
X-347500D02*
D03*
X-357500Y155000D02*
D03*
X-347500D02*
D03*
X-357500Y145000D02*
D03*
X-347500D02*
D03*
X-357500Y135000D02*
D03*
X-347500D02*
D03*
X-357500Y125000D02*
D03*
X-347500D02*
D03*
X-357500Y115000D02*
D03*
X-347500D02*
D03*
X-357500Y105000D02*
D03*
X-347500D02*
D03*
X-357500Y95000D02*
D03*
X-347500D02*
D03*
X-357500Y85000D02*
D03*
X-347500D02*
D03*
X-357500Y75000D02*
D03*
X-347500D02*
D03*
X-357500Y65000D02*
D03*
X-347500D02*
D03*
X-357500Y55000D02*
D03*
X-327500Y305000D02*
D03*
X-337500D02*
D03*
Y245000D02*
D03*
X-327500D02*
D03*
X-337500Y235000D02*
D03*
X-327500D02*
D03*
X-337500Y175000D02*
D03*
X-327500D02*
D03*
X-337500Y165000D02*
D03*
X-327500D02*
D03*
X-337500Y155000D02*
D03*
X-327500D02*
D03*
X-337500Y145000D02*
D03*
X-327500D02*
D03*
X-337500Y135000D02*
D03*
X-327500D02*
D03*
X-337500Y125000D02*
D03*
X-327500D02*
D03*
X-337500Y115000D02*
D03*
X-327500D02*
D03*
X-337500Y105000D02*
D03*
X-327500D02*
D03*
X-337500Y95000D02*
D03*
X-327500D02*
D03*
X-337500Y85000D02*
D03*
X-327500D02*
D03*
X-337500Y75000D02*
D03*
X-327500D02*
D03*
X-337500Y65000D02*
D03*
X-327500D02*
D03*
X-337500Y55000D02*
D03*
Y42500D02*
D03*
X-327500D02*
D03*
X-317500D02*
D03*
X-307500D02*
D03*
X-297500D02*
D03*
X-113500Y60500D02*
D03*
Y70500D02*
D03*
Y80500D02*
D03*
X-75000Y60500D02*
D03*
Y70500D02*
D03*
Y80500D02*
D03*
X-37000Y60500D02*
D03*
Y70500D02*
D03*
Y80500D02*
D03*
X-272500Y71000D02*
D03*
Y61000D02*
D03*
Y51000D02*
D03*
Y41000D02*
D03*
Y31000D02*
D03*
Y21000D02*
D03*
X-218000Y64500D02*
D03*
X-228000D02*
D03*
X-152500Y76000D02*
D03*
X-162500D02*
D03*
X-172500D02*
D03*
X-182500D02*
D03*
X-192500D02*
D03*
X-202500D02*
D03*
X-212500D02*
D03*
X-222500D02*
D03*
X-232500D02*
D03*
X-242500D02*
D03*
X-252500D02*
D03*
X-262500D02*
D03*
X-152500Y16000D02*
D03*
X-162500D02*
D03*
X-172500D02*
D03*
X-182500D02*
D03*
X-192500D02*
D03*
X-202500D02*
D03*
X-212500D02*
D03*
X-222500D02*
D03*
X-232500D02*
D03*
X-242500D02*
D03*
X-252500D02*
D03*
X-262500D02*
D03*
D26*
X-347500Y255000D02*
D03*
Y225000D02*
D03*
Y215000D02*
D03*
Y205000D02*
D03*
Y195000D02*
D03*
X-327500Y295000D02*
D03*
X-337500Y285000D02*
D03*
X-327500D02*
D03*
X-337500Y275000D02*
D03*
X-327500D02*
D03*
X-337500Y265000D02*
D03*
X-327500D02*
D03*
X-337500Y255000D02*
D03*
X-327500D02*
D03*
X-337500Y225000D02*
D03*
X-327500D02*
D03*
X-337500Y215000D02*
D03*
X-327500D02*
D03*
X-337500Y205000D02*
D03*
X-327500D02*
D03*
X-337500Y195000D02*
D03*
X-327500D02*
D03*
X-337500Y185000D02*
D03*
X-327500D02*
D03*
D27*
X-347500Y55000D02*
D03*
X-327500D02*
D03*
D28*
X-245071Y262760D02*
D03*
Y144650D02*
D03*
D29*
X-102500Y19232D02*
D03*
Y27500D02*
D03*
X-82500Y19232D02*
D03*
Y27500D02*
D03*
X-62500Y19232D02*
D03*
Y27500D02*
D03*
X-42500Y19232D02*
D03*
Y27500D02*
D03*
D30*
X-287500Y42500D02*
D03*
D31*
X-117000Y188500D02*
D03*
X-58500Y189500D02*
D03*
X-342400Y311500D02*
D03*
X-317500Y200000D02*
D03*
X-312500Y190000D02*
D03*
X-317500D02*
D03*
Y210000D02*
D03*
Y220000D02*
D03*
X-57500Y238000D02*
D03*
X-116500D02*
D03*
X-43500Y95000D02*
D03*
X-81500D02*
D03*
X-132500Y145500D02*
D03*
X-138500D02*
D03*
X-197000Y130500D02*
D03*
X-88000Y68500D02*
D03*
X-50500D02*
D03*
X-13000D02*
D03*
X-201000Y179000D02*
D03*
X-175500Y188500D02*
D03*
X-142500Y179000D02*
D03*
X-84000D02*
D03*
X-180000Y103000D02*
D03*
X-204250Y86000D02*
D03*
X-174500Y83000D02*
D03*
X-157500Y95000D02*
D03*
X-161500Y98500D02*
D03*
X-153500Y91000D02*
D03*
X-194500Y99000D02*
D03*
X-175000Y102500D02*
D03*
X-178000Y95500D02*
D03*
X-197158Y195500D02*
D03*
X-138500D02*
D03*
X-80000Y196500D02*
D03*
X-176000Y109000D02*
D03*
X-169000Y116000D02*
D03*
X-107500Y139500D02*
D03*
X-117500Y175500D02*
D03*
X-176500Y175842D02*
D03*
X-349500Y30000D02*
D03*
Y40000D02*
D03*
X-365500Y30000D02*
D03*
Y40000D02*
D03*
X-357500Y25500D02*
D03*
Y44500D02*
D03*
X-349500Y320000D02*
D03*
Y330000D02*
D03*
X-365500Y320000D02*
D03*
Y330000D02*
D03*
X-357500Y315500D02*
D03*
Y334500D02*
D03*
X-12000Y330000D02*
D03*
Y340000D02*
D03*
X-28000Y330000D02*
D03*
Y340000D02*
D03*
X-20000Y325500D02*
D03*
Y344500D02*
D03*
X-12000Y15000D02*
D03*
Y25000D02*
D03*
X-28000Y15000D02*
D03*
Y25000D02*
D03*
X-20000Y10500D02*
D03*
Y29500D02*
D03*
D32*
X-35500Y324500D02*
D03*
X-284500Y86000D02*
D03*
D33*
X-175000Y238000D02*
D03*
D34*
X-357500Y325000D02*
D03*
X-20000Y20000D02*
D03*
X-357500Y35000D02*
D03*
X-20000Y335000D02*
D03*
M02*
