G04 Layer_Color=12632256*
%FSLAX25Y25*%
%MOIN*%
G70*
G01*
G75*
%ADD20R,0.07000X0.07000*%
%ADD21C,0.07000*%
%ADD22O,0.08000X0.05000*%
%ADD23O,0.06000X0.08000*%
%ADD24C,0.06000*%
%ADD25C,0.08000*%
%ADD26O,0.08000X0.06000*%
%ADD27R,0.08000X0.08000*%
%ADD28C,0.23622*%
%ADD29C,0.04724*%
%ADD30R,0.08000X0.08000*%
D20*
X-140000Y76000D02*
D03*
Y63500D02*
D03*
X-140500Y42500D02*
D03*
D21*
X-130000Y76000D02*
D03*
Y63500D02*
D03*
X-130500Y42500D02*
D03*
X-120500Y42500D02*
D03*
D22*
X-347500Y305000D02*
D03*
X-357500D02*
D03*
Y295000D02*
D03*
X-347500D02*
D03*
X-337500D02*
D03*
D23*
X-357500Y285000D02*
D03*
Y265000D02*
D03*
D24*
X-347500Y285000D02*
D03*
Y265000D02*
D03*
D25*
X-357500Y275000D02*
D03*
X-347500D02*
D03*
X-357500Y255000D02*
D03*
Y245000D02*
D03*
X-347500D02*
D03*
X-357500Y235000D02*
D03*
X-347500D02*
D03*
X-357500Y225000D02*
D03*
Y215000D02*
D03*
Y205000D02*
D03*
Y195000D02*
D03*
Y185000D02*
D03*
X-347500D02*
D03*
X-357500Y175000D02*
D03*
X-347500D02*
D03*
X-357500Y165000D02*
D03*
X-347500D02*
D03*
X-357500Y155000D02*
D03*
X-347500D02*
D03*
X-357500Y145000D02*
D03*
X-347500D02*
D03*
X-357500Y135000D02*
D03*
X-347500D02*
D03*
X-357500Y125000D02*
D03*
X-347500D02*
D03*
X-357500Y115000D02*
D03*
X-347500D02*
D03*
X-357500Y105000D02*
D03*
X-347500D02*
D03*
X-357500Y95000D02*
D03*
X-347500D02*
D03*
X-357500Y85000D02*
D03*
X-347500D02*
D03*
X-357500Y75000D02*
D03*
X-347500D02*
D03*
X-357500Y65000D02*
D03*
X-347500D02*
D03*
X-357500Y55000D02*
D03*
X-327500Y305000D02*
D03*
X-337500D02*
D03*
Y245000D02*
D03*
X-327500D02*
D03*
X-337500Y235000D02*
D03*
X-327500D02*
D03*
X-337500Y175000D02*
D03*
X-327500D02*
D03*
X-337500Y165000D02*
D03*
X-327500D02*
D03*
X-337500Y155000D02*
D03*
X-327500D02*
D03*
X-337500Y145000D02*
D03*
X-327500D02*
D03*
X-337500Y135000D02*
D03*
X-327500D02*
D03*
X-337500Y125000D02*
D03*
X-327500D02*
D03*
X-337500Y115000D02*
D03*
X-327500D02*
D03*
X-337500Y105000D02*
D03*
X-327500D02*
D03*
X-337500Y95000D02*
D03*
X-327500D02*
D03*
X-337500Y85000D02*
D03*
X-327500D02*
D03*
X-337500Y75000D02*
D03*
X-327500D02*
D03*
X-337500Y65000D02*
D03*
X-327500D02*
D03*
X-337500Y55000D02*
D03*
Y42500D02*
D03*
X-327500D02*
D03*
X-317500D02*
D03*
X-307500D02*
D03*
X-297500D02*
D03*
X-113500Y60500D02*
D03*
Y70500D02*
D03*
Y80500D02*
D03*
X-75000Y60500D02*
D03*
Y70500D02*
D03*
Y80500D02*
D03*
X-37000Y60500D02*
D03*
Y70500D02*
D03*
Y80500D02*
D03*
X-272500Y71000D02*
D03*
Y61000D02*
D03*
Y51000D02*
D03*
Y41000D02*
D03*
Y31000D02*
D03*
Y21000D02*
D03*
X-218000Y64500D02*
D03*
X-228000D02*
D03*
X-152500Y76000D02*
D03*
X-162500D02*
D03*
X-172500D02*
D03*
X-182500D02*
D03*
X-192500D02*
D03*
X-202500D02*
D03*
X-212500D02*
D03*
X-222500D02*
D03*
X-232500D02*
D03*
X-242500D02*
D03*
X-252500D02*
D03*
X-262500D02*
D03*
X-152500Y16000D02*
D03*
X-162500D02*
D03*
X-172500D02*
D03*
X-182500D02*
D03*
X-192500D02*
D03*
X-202500D02*
D03*
X-212500D02*
D03*
X-222500D02*
D03*
X-232500D02*
D03*
X-242500D02*
D03*
X-252500D02*
D03*
X-262500D02*
D03*
D26*
X-347500Y255000D02*
D03*
Y225000D02*
D03*
Y215000D02*
D03*
Y205000D02*
D03*
Y195000D02*
D03*
X-327500Y295000D02*
D03*
X-337500Y285000D02*
D03*
X-327500D02*
D03*
X-337500Y275000D02*
D03*
X-327500D02*
D03*
X-337500Y265000D02*
D03*
X-327500D02*
D03*
X-337500Y255000D02*
D03*
X-327500D02*
D03*
X-337500Y225000D02*
D03*
X-327500D02*
D03*
X-337500Y215000D02*
D03*
X-327500D02*
D03*
X-337500Y205000D02*
D03*
X-327500D02*
D03*
X-337500Y195000D02*
D03*
X-327500D02*
D03*
X-337500Y185000D02*
D03*
X-327500D02*
D03*
D27*
X-347500Y55000D02*
D03*
X-327500D02*
D03*
D28*
X-245071Y262760D02*
D03*
Y144650D02*
D03*
D29*
X-102500Y19232D02*
D03*
Y27500D02*
D03*
X-82500Y19232D02*
D03*
Y27500D02*
D03*
X-62500Y19232D02*
D03*
Y27500D02*
D03*
X-42500Y19232D02*
D03*
Y27500D02*
D03*
D30*
X-287500Y42500D02*
D03*
M02*
