G04 Layer_Color=8421504*
%FSLAX25Y25*%
%MOIN*%
G70*
G01*
G75*
%ADD10R,0.05000X0.04000*%
%ADD11R,0.04000X0.05000*%
%ADD12R,0.02362X0.03937*%
%ADD13O,0.02362X0.05906*%
%ADD15C,0.03000*%
D10*
X-42500Y43500D02*
D03*
Y35500D02*
D03*
X-62500Y43500D02*
D03*
Y35500D02*
D03*
X-82500Y43500D02*
D03*
Y35500D02*
D03*
X-102500Y43500D02*
D03*
Y35500D02*
D03*
X-90500Y53500D02*
D03*
Y61500D02*
D03*
X-99000D02*
D03*
Y53500D02*
D03*
Y76500D02*
D03*
Y68500D02*
D03*
X-90500Y76500D02*
D03*
Y68500D02*
D03*
X-53000Y53500D02*
D03*
Y61500D02*
D03*
X-61000D02*
D03*
Y53500D02*
D03*
X-53000Y76500D02*
D03*
Y68500D02*
D03*
X-61000Y76500D02*
D03*
Y68500D02*
D03*
X-23500Y61500D02*
D03*
Y53500D02*
D03*
X-15500D02*
D03*
Y61500D02*
D03*
Y76500D02*
D03*
Y68500D02*
D03*
X-23500Y76500D02*
D03*
Y68500D02*
D03*
X-197158Y203500D02*
D03*
Y195500D02*
D03*
X-189157Y203500D02*
D03*
Y195500D02*
D03*
X-181158Y203500D02*
D03*
Y195500D02*
D03*
Y180500D02*
D03*
Y188500D02*
D03*
X-138500Y203500D02*
D03*
Y195500D02*
D03*
X-122500Y203500D02*
D03*
Y195500D02*
D03*
X-130500Y203500D02*
D03*
Y195500D02*
D03*
X-122500Y180500D02*
D03*
Y188500D02*
D03*
X-64000Y181500D02*
D03*
Y189500D02*
D03*
Y204500D02*
D03*
Y196500D02*
D03*
X-80000Y204500D02*
D03*
Y196500D02*
D03*
X-72000Y204500D02*
D03*
Y196500D02*
D03*
X-197000Y144000D02*
D03*
Y136000D02*
D03*
X-189000Y144000D02*
D03*
Y136000D02*
D03*
D11*
X-229000Y86000D02*
D03*
X-221000D02*
D03*
X-215000D02*
D03*
X-207000D02*
D03*
X-179500D02*
D03*
X-187500D02*
D03*
X-193500D02*
D03*
X-201500D02*
D03*
X-99000Y84500D02*
D03*
X-91000D02*
D03*
X-61000Y84000D02*
D03*
X-53000D02*
D03*
X-23500D02*
D03*
X-15500D02*
D03*
X-189657Y188000D02*
D03*
X-197658D02*
D03*
X-197500Y159500D02*
D03*
X-189500D02*
D03*
Y151500D02*
D03*
X-197500D02*
D03*
X-131000Y188000D02*
D03*
X-139000D02*
D03*
X-138500Y159500D02*
D03*
X-130500D02*
D03*
Y151500D02*
D03*
X-138500D02*
D03*
X-72500Y151000D02*
D03*
X-80500D02*
D03*
Y159500D02*
D03*
X-72500D02*
D03*
Y189000D02*
D03*
X-80500D02*
D03*
X-186000Y115000D02*
D03*
X-194000D02*
D03*
X-186000Y107000D02*
D03*
X-194000D02*
D03*
D12*
X-189417Y178913D02*
D03*
X-193157D02*
D03*
X-196898D02*
D03*
Y168087D02*
D03*
X-189417D02*
D03*
X-130760Y178913D02*
D03*
X-134500D02*
D03*
X-138240D02*
D03*
Y168087D02*
D03*
X-130760D02*
D03*
X-72260Y178913D02*
D03*
X-76000D02*
D03*
X-79740D02*
D03*
Y168087D02*
D03*
X-72260D02*
D03*
D13*
X-197000Y216870D02*
D03*
X-192000D02*
D03*
X-187000D02*
D03*
X-182000D02*
D03*
X-197000Y238130D02*
D03*
X-192000D02*
D03*
X-187000D02*
D03*
X-182000D02*
D03*
X-79500Y216870D02*
D03*
X-74500D02*
D03*
X-69500D02*
D03*
X-64500D02*
D03*
X-79500Y238130D02*
D03*
X-74500D02*
D03*
X-69500D02*
D03*
X-64500D02*
D03*
X-138500Y216870D02*
D03*
X-133500D02*
D03*
X-128500D02*
D03*
X-123500D02*
D03*
X-138500Y238130D02*
D03*
X-133500D02*
D03*
X-128500D02*
D03*
X-123500D02*
D03*
D15*
X-85500Y58464D02*
Y64535D01*
M02*
