G04 Layer_Color=255*
%FSLAX25Y25*%
%MOIN*%
G70*
G01*
G75*
%ADD10R,0.05000X0.04000*%
%ADD11R,0.04000X0.05000*%
%ADD15C,0.06000*%
%ADD16C,0.04724*%
%ADD17O,0.08000X0.06000*%
%ADD18C,0.08000*%
%ADD19R,0.08000X0.08000*%
%ADD20R,0.08000X0.08000*%
%ADD21O,0.08000X0.05000*%
D10*
X-210500Y71000D02*
D03*
Y63000D02*
D03*
X-180500Y71000D02*
D03*
Y63000D02*
D03*
X-190500Y71000D02*
D03*
Y63000D02*
D03*
X-200500Y71000D02*
D03*
Y63000D02*
D03*
X-220500Y71000D02*
D03*
Y63000D02*
D03*
X-239500Y294000D02*
D03*
Y302000D02*
D03*
X-249500Y294000D02*
D03*
Y302000D02*
D03*
X-269500Y294000D02*
D03*
Y302000D02*
D03*
X-259500Y294000D02*
D03*
Y302000D02*
D03*
X-367000Y185500D02*
D03*
Y177500D02*
D03*
D11*
X-117000Y288500D02*
D03*
X-109000D02*
D03*
D15*
X-312500Y81000D02*
D03*
X-302500D02*
D03*
X-292500D02*
D03*
X-227500Y77500D02*
D03*
Y57500D02*
D03*
X-257500Y77500D02*
D03*
Y57500D02*
D03*
X-292500Y64700D02*
D03*
X-302500D02*
D03*
X-312500D02*
D03*
D16*
X-270000Y70000D02*
D03*
Y61732D02*
D03*
X-250000Y50000D02*
D03*
Y41732D02*
D03*
X-270000Y50000D02*
D03*
Y41732D02*
D03*
X-230000D02*
D03*
Y50000D02*
D03*
D17*
X-307500Y42500D02*
D03*
X-317500D02*
D03*
X-327500D02*
D03*
X-337500D02*
D03*
D18*
X-297500D02*
D03*
X-337500Y55000D02*
D03*
X-327500Y65000D02*
D03*
X-337500D02*
D03*
X-327500Y75000D02*
D03*
X-337500D02*
D03*
X-327500Y85000D02*
D03*
X-337500D02*
D03*
X-327500Y95000D02*
D03*
X-337500D02*
D03*
X-327500Y105000D02*
D03*
X-337500D02*
D03*
X-327500Y115000D02*
D03*
X-337500D02*
D03*
X-327500Y125000D02*
D03*
X-337500D02*
D03*
X-327500Y135000D02*
D03*
X-337500D02*
D03*
X-327500Y145000D02*
D03*
X-337500D02*
D03*
X-327500Y155000D02*
D03*
X-337500D02*
D03*
X-327500Y165000D02*
D03*
X-337500D02*
D03*
X-327500Y195000D02*
D03*
X-337500D02*
D03*
X-327500Y205000D02*
D03*
X-337500D02*
D03*
X-327500Y215000D02*
D03*
X-337500D02*
D03*
X-327500Y225000D02*
D03*
X-337500D02*
D03*
X-327500Y235000D02*
D03*
X-337500D02*
D03*
X-327500Y245000D02*
D03*
X-337500D02*
D03*
X-327500Y255000D02*
D03*
X-337500D02*
D03*
X-327500Y265000D02*
D03*
X-337500D02*
D03*
X-327500Y275000D02*
D03*
X-337500D02*
D03*
X-327500Y285000D02*
D03*
X-337500D02*
D03*
X-327500Y295000D02*
D03*
X-337500D02*
D03*
Y305000D02*
D03*
X-327500D02*
D03*
X-357500Y55000D02*
D03*
X-347500Y65000D02*
D03*
X-357500D02*
D03*
X-347500Y75000D02*
D03*
X-357500D02*
D03*
X-347500Y85000D02*
D03*
X-357500D02*
D03*
X-347500Y95000D02*
D03*
X-357500D02*
D03*
X-347500Y105000D02*
D03*
X-357500D02*
D03*
X-347500Y115000D02*
D03*
X-357500D02*
D03*
X-347500Y125000D02*
D03*
X-357500D02*
D03*
X-347500Y135000D02*
D03*
X-357500D02*
D03*
X-347500Y145000D02*
D03*
X-357500D02*
D03*
X-347500Y155000D02*
D03*
X-357500D02*
D03*
X-347500Y165000D02*
D03*
X-357500D02*
D03*
X-347500Y175000D02*
D03*
X-357500D02*
D03*
X-347500Y185000D02*
D03*
X-357500D02*
D03*
X-347500Y195000D02*
D03*
X-357500D02*
D03*
X-347500Y205000D02*
D03*
X-357500D02*
D03*
X-347500Y215000D02*
D03*
X-357500D02*
D03*
X-347500Y225000D02*
D03*
X-357500D02*
D03*
X-347500Y235000D02*
D03*
X-357500D02*
D03*
X-347500Y245000D02*
D03*
X-357500D02*
D03*
X-347500Y255000D02*
D03*
X-357500D02*
D03*
X-347500Y265000D02*
D03*
X-357500D02*
D03*
X-347500Y275000D02*
D03*
X-357500D02*
D03*
X-347500Y285000D02*
D03*
X-357500D02*
D03*
X-347500Y295000D02*
D03*
X-357500D02*
D03*
Y305000D02*
D03*
X-347500D02*
D03*
X-291500Y278000D02*
D03*
X-281500D02*
D03*
X-271500D02*
D03*
X-261500D02*
D03*
X-251500D02*
D03*
X-241500D02*
D03*
X-271500Y138000D02*
D03*
X-261500D02*
D03*
X-251500D02*
D03*
X-281500D02*
D03*
X-146000Y147500D02*
D03*
Y157500D02*
D03*
Y167500D02*
D03*
Y177500D02*
D03*
Y187500D02*
D03*
Y197500D02*
D03*
Y207500D02*
D03*
Y217500D02*
D03*
Y227500D02*
D03*
Y237500D02*
D03*
Y247500D02*
D03*
Y257500D02*
D03*
X-206000Y147500D02*
D03*
Y157500D02*
D03*
Y167500D02*
D03*
Y177500D02*
D03*
Y187500D02*
D03*
Y197500D02*
D03*
Y207500D02*
D03*
Y217500D02*
D03*
Y227500D02*
D03*
Y237500D02*
D03*
Y247500D02*
D03*
Y257500D02*
D03*
X-194500Y182000D02*
D03*
Y192000D02*
D03*
X-151000Y137500D02*
D03*
X-161000D02*
D03*
X-171000D02*
D03*
X-181000D02*
D03*
X-191000D02*
D03*
X-201000D02*
D03*
X-118000Y278500D02*
D03*
Y268500D02*
D03*
Y258500D02*
D03*
Y248500D02*
D03*
X-108000D02*
D03*
Y258500D02*
D03*
Y268500D02*
D03*
Y278500D02*
D03*
X-56000Y160500D02*
D03*
X-66000D02*
D03*
X-76000D02*
D03*
X-86000D02*
D03*
X-96000D02*
D03*
X-106000D02*
D03*
D19*
X-287500Y42500D02*
D03*
D20*
X-327500Y55000D02*
D03*
X-347500D02*
D03*
D21*
X-327500Y175000D02*
D03*
X-337500D02*
D03*
X-327500Y185000D02*
D03*
X-337500D02*
D03*
M02*
