M48
;Layer_Color=9474304
;FILE_FORMAT=2:5
INCH,TZ
;TYPE=PLATED
T1F00S00C0.02000
T2F00S00C0.02362
T3F00S00C0.03000
T4F00S00C0.04000
T5F00S00C0.12500
%
T01
X-365000Y31000
Y39000
X-357500Y43500
X-350000Y39000
Y31000
X-357500Y26500
X-28000Y25000
Y15000
X-20000Y10500
X-12000Y15000
Y25000
X-20000Y29500
X-129500Y107000
X-175500Y67000
X-185500
X-195500
X-226000Y70000
X-251000Y107000
X-287000Y127000
X-300000Y126500
X-221000Y212500
X-349500Y320000
Y330000
X-357500Y334500
X-365500Y330000
Y320000
X-357500Y315500
X-254500Y306500
X-256500Y263000
X-226000Y257500
X-124000Y291500
X-86000Y236500
X-28000Y330000
Y340000
X-20000Y344500
X-12000Y340000
Y330000
X-20000Y325500
T02
X-270000Y41732
Y50000
X-250000
Y41732
X-230000
Y50000
X-270000Y61732
Y70000
T03
X-257500Y57500
X-227500
Y77500
X-257500
X-292500Y81000
X-302500
X-312500
Y64700
X-302500
X-292500
T04
X-357500Y55000
X-347500
X-337500
X-327500
Y42500
X-337500
X-317500
X-307500
X-297500
X-287500
X-161000Y137500
X-151000
X-146000Y147500
Y157500
Y167500
Y177500
Y187500
Y197500
Y207500
X-106000Y160500
X-96000
X-86000
X-76000
X-66000
X-56000
X-171000Y137500
X-181000
X-191000
X-201000
X-206000Y147500
Y157500
Y167500
Y177500
Y187500
Y197500
Y207500
X-194500Y192000
Y182000
X-251500Y138000
X-261500
X-271500
X-281500
X-327500Y135000
Y125000
Y115000
Y105000
Y95000
Y85000
Y75000
Y65000
X-337500
Y75000
Y85000
Y95000
Y105000
Y115000
Y125000
Y135000
Y145000
X-327500
Y155000
X-337500
Y165000
X-327500
Y175000
X-337500
Y185000
X-327500
Y195000
X-337500
Y205000
X-327500
Y215000
X-337500
X-347500
Y205000
Y195000
Y185000
Y175000
Y165000
Y155000
Y145000
Y135000
Y125000
Y115000
Y105000
Y95000
Y85000
Y75000
Y65000
X-357500
Y75000
Y85000
Y95000
Y105000
Y115000
Y125000
Y135000
Y145000
Y155000
Y165000
Y175000
Y185000
Y195000
Y205000
Y215000
X-366000Y191500
X-357500Y225000
X-347500
X-337500
X-327500
Y235000
X-337500
Y245000
X-327500
Y255000
X-337500
Y265000
X-327500
Y275000
X-337500
Y285000
X-327500
Y295000
X-337500
Y305000
X-327500
X-347500
Y295000
Y285000
Y275000
Y265000
Y255000
Y245000
Y235000
X-357500
Y245000
Y255000
Y265000
Y275000
Y285000
Y295000
Y305000
X-291500Y278000
X-281500
X-271500
X-261500
X-251500
X-241500
X-206000Y257500
Y247500
Y237500
Y227500
Y217500
X-146000
Y227500
Y237500
Y247500
Y257500
X-118000Y258500
Y268500
Y278500
X-108000
Y268500
Y258500
Y248500
X-118000
T05
X-357500Y35000
X-20000Y20000
X-357500Y325000
X-20000Y335000
M30
