G04 Layer_Color=65535*
%FSLAX25Y25*%
%MOIN*%
G70*
G01*
G75*
%ADD15C,0.01000*%
%ADD27C,0.00984*%
%ADD28C,0.01575*%
%ADD29C,0.00800*%
%ADD30C,0.00500*%
%ADD31C,0.00787*%
%ADD32R,0.10000X0.09962*%
G36*
X-186881Y32153D02*
X-197284D01*
Y30029D01*
X-187428D01*
Y27295D01*
X-197284D01*
Y25171D01*
X-186647D01*
Y22000D01*
X-201345D01*
Y35214D01*
X-186881D01*
Y32153D01*
D02*
G37*
G36*
X-172808Y35355D02*
X-172526Y35339D01*
X-172261Y35324D01*
X-172011Y35308D01*
X-171792Y35277D01*
X-171574Y35246D01*
X-171386Y35230D01*
X-171230Y35199D01*
X-171074Y35168D01*
X-170949Y35136D01*
X-170855Y35121D01*
X-170777Y35105D01*
X-170714Y35090D01*
X-170683Y35074D01*
X-170668D01*
X-170308Y34965D01*
X-169996Y34824D01*
X-169730Y34699D01*
X-169527Y34574D01*
X-169355Y34449D01*
X-169231Y34355D01*
X-169168Y34293D01*
X-169137Y34277D01*
X-168949Y34074D01*
X-168809Y33871D01*
X-168684Y33668D01*
X-168606Y33465D01*
X-168543Y33293D01*
X-168496Y33168D01*
X-168465Y33075D01*
Y33059D01*
Y33043D01*
X-168418Y32778D01*
X-168371Y32497D01*
X-168340Y32231D01*
X-168325Y31997D01*
X-168309Y31778D01*
Y31606D01*
Y31544D01*
Y31513D01*
Y31481D01*
Y31466D01*
Y31044D01*
X-172370D01*
Y31294D01*
X-172386Y31388D01*
Y31481D01*
X-172401Y31559D01*
Y31606D01*
X-172417Y31637D01*
Y31653D01*
X-172479Y31825D01*
X-172558Y31966D01*
X-172636Y32044D01*
X-172651Y32075D01*
X-172667D01*
X-172745Y32137D01*
X-172839Y32184D01*
X-173026Y32262D01*
X-173120Y32294D01*
X-173198Y32309D01*
X-173245Y32325D01*
X-173260D01*
X-173417Y32356D01*
X-173589Y32387D01*
X-173776Y32403D01*
X-173948D01*
X-174104Y32419D01*
X-178837D01*
X-179087Y32403D01*
X-179306Y32387D01*
X-179508Y32340D01*
X-179665Y32294D01*
X-179790Y32247D01*
X-179883Y32215D01*
X-179946Y32184D01*
X-179962Y32169D01*
X-180102Y32059D01*
X-180196Y31934D01*
X-180274Y31809D01*
X-180321Y31684D01*
X-180352Y31575D01*
X-180368Y31481D01*
Y31419D01*
Y31388D01*
Y31231D01*
X-180352Y31091D01*
X-180321Y30981D01*
X-180289Y30888D01*
X-180274Y30810D01*
X-180243Y30747D01*
X-180227Y30716D01*
Y30700D01*
X-180165Y30622D01*
X-180071Y30544D01*
X-179852Y30435D01*
X-179759Y30404D01*
X-179665Y30372D01*
X-179602Y30357D01*
X-179587D01*
X-179368Y30325D01*
X-179134Y30294D01*
X-178899Y30263D01*
X-178665Y30247D01*
X-178446D01*
X-178275Y30232D01*
X-177728D01*
X-177306Y30216D01*
X-174698D01*
X-174307Y30200D01*
X-173948D01*
X-173604Y30185D01*
X-173276D01*
X-172979Y30169D01*
X-172714Y30154D01*
X-172479Y30138D01*
X-172276D01*
X-172089Y30122D01*
X-171933Y30107D01*
X-171824D01*
X-171730Y30091D01*
X-171667D01*
X-171386Y30060D01*
X-171136Y30044D01*
X-170886Y29997D01*
X-170652Y29966D01*
X-170449Y29919D01*
X-170246Y29873D01*
X-170074Y29826D01*
X-169918Y29779D01*
X-169762Y29732D01*
X-169637Y29685D01*
X-169543Y29654D01*
X-169449Y29623D01*
X-169387Y29591D01*
X-169340Y29560D01*
X-169309Y29544D01*
X-169293D01*
X-168996Y29357D01*
X-168746Y29154D01*
X-168543Y28951D01*
X-168371Y28748D01*
X-168262Y28560D01*
X-168168Y28404D01*
X-168137Y28342D01*
X-168122Y28295D01*
X-168106Y28279D01*
Y28264D01*
X-167997Y27936D01*
X-167903Y27561D01*
X-167840Y27186D01*
X-167809Y26827D01*
X-167794Y26655D01*
X-167778Y26499D01*
Y26358D01*
X-167762Y26233D01*
Y26139D01*
Y26061D01*
Y26014D01*
Y25999D01*
X-167778Y25515D01*
X-167809Y25093D01*
X-167856Y24734D01*
X-167872Y24562D01*
X-167903Y24421D01*
X-167934Y24281D01*
X-167950Y24171D01*
X-167981Y24078D01*
X-167997Y23999D01*
X-168012Y23921D01*
X-168028Y23874D01*
X-168043Y23859D01*
Y23843D01*
X-168168Y23562D01*
X-168325Y23297D01*
X-168481Y23093D01*
X-168653Y22906D01*
X-168809Y22765D01*
X-168934Y22656D01*
X-169027Y22594D01*
X-169043Y22578D01*
X-169059D01*
X-169355Y22422D01*
X-169668Y22297D01*
X-170012Y22203D01*
X-170324Y22125D01*
X-170621Y22062D01*
X-170746Y22047D01*
X-170839Y22031D01*
X-170933Y22016D01*
X-170996Y22000D01*
X-171058D01*
X-171308Y21969D01*
X-171574Y21953D01*
X-172120Y21922D01*
X-172667Y21891D01*
X-173198Y21875D01*
X-173667D01*
X-173854Y21859D01*
X-179774D01*
X-180227Y21875D01*
X-180633Y21906D01*
X-180821Y21922D01*
X-180977Y21937D01*
X-181133D01*
X-181258Y21953D01*
X-181383Y21969D01*
X-181477Y21984D01*
X-181555D01*
X-181602Y22000D01*
X-181649D01*
X-181992Y22062D01*
X-182320Y22156D01*
X-182586Y22250D01*
X-182820Y22328D01*
X-183007Y22422D01*
X-183148Y22484D01*
X-183226Y22531D01*
X-183257Y22547D01*
X-183476Y22718D01*
X-183648Y22890D01*
X-183804Y23078D01*
X-183945Y23250D01*
X-184038Y23406D01*
X-184101Y23531D01*
X-184148Y23609D01*
X-184163Y23640D01*
X-184257Y23921D01*
X-184319Y24202D01*
X-184382Y24499D01*
X-184413Y24780D01*
X-184429Y25030D01*
Y25140D01*
X-184444Y25233D01*
Y25296D01*
Y25358D01*
Y25390D01*
Y25405D01*
Y26327D01*
X-180383D01*
Y26139D01*
X-180368Y25967D01*
X-180352Y25827D01*
X-180321Y25702D01*
X-180305Y25608D01*
X-180289Y25546D01*
X-180274Y25499D01*
Y25483D01*
X-180180Y25280D01*
X-180071Y25140D01*
X-179977Y25062D01*
X-179962Y25030D01*
X-179946D01*
X-179774Y24937D01*
X-179587Y24874D01*
X-179508Y24859D01*
X-179446D01*
X-179415Y24843D01*
X-179399D01*
X-179134Y24827D01*
X-178899Y24812D01*
X-173432D01*
X-173229Y24827D01*
X-173042D01*
X-172823Y24859D01*
X-172636Y24905D01*
X-172573Y24937D01*
X-172526Y24952D01*
X-172495Y24968D01*
X-172479D01*
X-172308Y25077D01*
X-172183Y25186D01*
X-172120Y25280D01*
X-172089Y25296D01*
Y25311D01*
X-172042Y25405D01*
X-171995Y25499D01*
X-171949Y25702D01*
X-171933Y25780D01*
Y25858D01*
Y25905D01*
Y25921D01*
Y26077D01*
X-171964Y26217D01*
X-171980Y26327D01*
X-172011Y26421D01*
X-172042Y26499D01*
X-172058Y26545D01*
X-172089Y26577D01*
Y26592D01*
X-172167Y26686D01*
X-172276Y26764D01*
X-172386Y26827D01*
X-172511Y26873D01*
X-172636Y26920D01*
X-172730Y26952D01*
X-172792Y26967D01*
X-172823D01*
X-173057Y27014D01*
X-173339Y27045D01*
X-173620Y27077D01*
X-173901Y27092D01*
X-174151Y27108D01*
X-174260D01*
X-174354Y27123D01*
X-174760D01*
X-174994Y27139D01*
X-175510D01*
X-176025Y27155D01*
X-178446D01*
X-178821Y27170D01*
X-179181Y27186D01*
X-179493D01*
X-179805Y27202D01*
X-180071Y27217D01*
X-180321Y27233D01*
X-180540Y27248D01*
X-180743Y27264D01*
X-180899Y27280D01*
X-181039D01*
X-181149Y27295D01*
X-181227Y27311D01*
X-181289D01*
X-181758Y27389D01*
X-182180Y27483D01*
X-182523Y27576D01*
X-182679Y27623D01*
X-182820Y27686D01*
X-182929Y27733D01*
X-183039Y27779D01*
X-183132Y27811D01*
X-183211Y27842D01*
X-183257Y27873D01*
X-183304Y27904D01*
X-183320Y27920D01*
X-183335D01*
X-183570Y28092D01*
X-183773Y28295D01*
X-183929Y28498D01*
X-184054Y28685D01*
X-184132Y28857D01*
X-184195Y28998D01*
X-184226Y29092D01*
X-184241Y29107D01*
Y29123D01*
X-184304Y29435D01*
X-184351Y29763D01*
X-184382Y30107D01*
X-184398Y30419D01*
X-184413Y30700D01*
X-184429Y30810D01*
Y30919D01*
Y31013D01*
Y31075D01*
Y31106D01*
Y31122D01*
Y31450D01*
X-184413Y31762D01*
X-184398Y32044D01*
X-184366Y32294D01*
X-184351Y32497D01*
X-184335Y32653D01*
Y32715D01*
X-184319Y32762D01*
Y32778D01*
Y32793D01*
X-184257Y33075D01*
X-184179Y33340D01*
X-184070Y33559D01*
X-183960Y33762D01*
X-183867Y33918D01*
X-183773Y34043D01*
X-183710Y34106D01*
X-183695Y34137D01*
X-183476Y34340D01*
X-183226Y34512D01*
X-182961Y34668D01*
X-182711Y34793D01*
X-182476Y34887D01*
X-182367Y34933D01*
X-182273Y34965D01*
X-182211Y34996D01*
X-182148Y35012D01*
X-182117Y35027D01*
X-182102D01*
X-181883Y35090D01*
X-181664Y35136D01*
X-181180Y35230D01*
X-180680Y35293D01*
X-180196Y35324D01*
X-179977Y35339D01*
X-179774Y35355D01*
X-179587D01*
X-179415Y35371D01*
X-173120D01*
X-172808Y35355D01*
D02*
G37*
G36*
X-146863Y22000D02*
X-151377D01*
X-152642Y24343D01*
X-160858D01*
X-162045Y22000D01*
X-166575D01*
X-159421Y35214D01*
X-154142D01*
X-146863Y22000D01*
D02*
G37*
G36*
X-130962Y31934D02*
X-136647D01*
Y22000D01*
X-140708D01*
Y31934D01*
X-146410D01*
Y35214D01*
X-130962D01*
Y31934D01*
D02*
G37*
G36*
X-204063Y26702D02*
X-204079Y26249D01*
X-204126Y25827D01*
X-204188Y25436D01*
X-204266Y25077D01*
X-204360Y24749D01*
X-204485Y24452D01*
X-204594Y24171D01*
X-204719Y23937D01*
X-204844Y23718D01*
X-204954Y23531D01*
X-205063Y23390D01*
X-205172Y23250D01*
X-205250Y23156D01*
X-205313Y23093D01*
X-205360Y23046D01*
X-205375Y23031D01*
X-205641Y22828D01*
X-205922Y22640D01*
X-206250Y22484D01*
X-206578Y22359D01*
X-206906Y22234D01*
X-207250Y22141D01*
X-207593Y22062D01*
X-207921Y22000D01*
X-208249Y21953D01*
X-208546Y21922D01*
X-208812Y21891D01*
X-209046Y21875D01*
X-209233D01*
X-209374Y21859D01*
X-215310D01*
X-215825Y21875D01*
X-216294Y21906D01*
X-216731Y21969D01*
X-217137Y22047D01*
X-217512Y22125D01*
X-217856Y22234D01*
X-218152Y22344D01*
X-218418Y22453D01*
X-218668Y22562D01*
X-218871Y22656D01*
X-219043Y22765D01*
X-219183Y22843D01*
X-219293Y22922D01*
X-219371Y22984D01*
X-219418Y23015D01*
X-219433Y23031D01*
X-219668Y23265D01*
X-219855Y23531D01*
X-220027Y23812D01*
X-220183Y24109D01*
X-220308Y24406D01*
X-220417Y24718D01*
X-220495Y25015D01*
X-220573Y25311D01*
X-220620Y25593D01*
X-220667Y25858D01*
X-220683Y26092D01*
X-220714Y26296D01*
Y26467D01*
X-220730Y26592D01*
Y26670D01*
Y26702D01*
Y35214D01*
X-216669D01*
Y27576D01*
Y27342D01*
X-216653Y27139D01*
X-216622Y26936D01*
X-216590Y26764D01*
X-216559Y26592D01*
X-216512Y26452D01*
X-216419Y26202D01*
X-216325Y26014D01*
X-216247Y25889D01*
X-216184Y25811D01*
X-216169Y25780D01*
X-216059Y25686D01*
X-215950Y25608D01*
X-215685Y25468D01*
X-215388Y25374D01*
X-215107Y25311D01*
X-214841Y25280D01*
X-214716Y25265D01*
X-214622D01*
X-214529Y25249D01*
X-210171D01*
X-209952Y25265D01*
X-209765Y25296D01*
X-209593Y25327D01*
X-209436Y25374D01*
X-209296Y25421D01*
X-209046Y25515D01*
X-208874Y25608D01*
X-208734Y25702D01*
X-208671Y25764D01*
X-208640Y25780D01*
X-208546Y25889D01*
X-208468Y26014D01*
X-208343Y26280D01*
X-208249Y26577D01*
X-208187Y26873D01*
X-208156Y27155D01*
X-208140Y27264D01*
X-208124Y27373D01*
Y27451D01*
Y27514D01*
Y27561D01*
Y27576D01*
Y35214D01*
X-204063D01*
Y26702D01*
D02*
G37*
G36*
X-19333Y86235D02*
X-20809Y85438D01*
Y80262D01*
X-19333Y79514D01*
Y76661D01*
X-27657Y81168D01*
Y84493D01*
X-19333Y89079D01*
Y86235D01*
D02*
G37*
G36*
X-21547Y113443D02*
X-21370Y113433D01*
X-21202Y113413D01*
X-21055Y113393D01*
X-20927Y113364D01*
X-20838Y113344D01*
X-20779Y113334D01*
X-20769Y113325D01*
X-20760D01*
X-20592Y113275D01*
X-20445Y113207D01*
X-20307Y113128D01*
X-20189Y113059D01*
X-20100Y112980D01*
X-20022Y112931D01*
X-19982Y112892D01*
X-19963Y112872D01*
X-19844Y112734D01*
X-19736Y112587D01*
X-19648Y112429D01*
X-19569Y112282D01*
X-19510Y112144D01*
X-19470Y112036D01*
X-19451Y111996D01*
X-19441Y111967D01*
X-19431Y111947D01*
Y111937D01*
X-19372Y111701D01*
X-19323Y111435D01*
X-19293Y111179D01*
X-19264Y110933D01*
Y110815D01*
X-19254Y110707D01*
Y110619D01*
X-19244Y110530D01*
Y110461D01*
Y110412D01*
Y110382D01*
Y110373D01*
Y106260D01*
X-19254Y105945D01*
X-19264Y105649D01*
X-19284Y105394D01*
X-19293Y105275D01*
X-19303Y105167D01*
X-19313Y105059D01*
X-19323Y104980D01*
X-19333Y104902D01*
X-19343Y104833D01*
X-19352Y104783D01*
X-19362Y104744D01*
Y104724D01*
Y104715D01*
X-19421Y104469D01*
X-19490Y104242D01*
X-19569Y104045D01*
X-19638Y103878D01*
X-19716Y103740D01*
X-19776Y103642D01*
X-19795Y103603D01*
X-19815Y103573D01*
X-19825Y103563D01*
Y103553D01*
X-19963Y103386D01*
X-20110Y103239D01*
X-20268Y103121D01*
X-20415Y103022D01*
X-20553Y102934D01*
X-20651Y102884D01*
X-20691Y102865D01*
X-20720Y102845D01*
X-20740Y102835D01*
X-20750D01*
X-20986Y102756D01*
X-21232Y102697D01*
X-21478Y102648D01*
X-21724Y102619D01*
X-21832Y102609D01*
X-21930Y102599D01*
X-22019D01*
X-22098Y102589D01*
X-24735D01*
X-25060Y102599D01*
X-25355Y102629D01*
X-25483Y102648D01*
X-25611Y102668D01*
X-25719Y102688D01*
X-25827Y102717D01*
X-25916Y102737D01*
X-25994Y102756D01*
X-26073Y102776D01*
X-26122Y102796D01*
X-26172Y102815D01*
X-26201Y102825D01*
X-26221Y102835D01*
X-26231D01*
X-26437Y102934D01*
X-26624Y103052D01*
X-26782Y103170D01*
X-26919Y103288D01*
X-27018Y103396D01*
X-27097Y103475D01*
X-27136Y103534D01*
X-27156Y103544D01*
Y103553D01*
X-27274Y103740D01*
X-27372Y103937D01*
X-27461Y104134D01*
X-27520Y104311D01*
X-27569Y104478D01*
X-27588Y104547D01*
X-27598Y104596D01*
X-27618Y104646D01*
Y104685D01*
X-27628Y104705D01*
Y104715D01*
X-27667Y104980D01*
X-27707Y105246D01*
X-27726Y105502D01*
X-27736Y105738D01*
X-27746Y105846D01*
Y105945D01*
X-27756Y106033D01*
Y106102D01*
Y106171D01*
Y106210D01*
Y106240D01*
Y106250D01*
Y109261D01*
Y109507D01*
X-27746Y109743D01*
X-27736Y109959D01*
X-27726Y110166D01*
X-27716Y110363D01*
X-27707Y110540D01*
X-27687Y110697D01*
X-27677Y110845D01*
X-27657Y110983D01*
X-27638Y111101D01*
X-27628Y111199D01*
X-27618Y111278D01*
X-27608Y111337D01*
X-27598Y111386D01*
X-27588Y111416D01*
Y111425D01*
X-27520Y111711D01*
X-27441Y111967D01*
X-27352Y112173D01*
X-27264Y112350D01*
X-27185Y112488D01*
X-27116Y112587D01*
X-27077Y112646D01*
X-27057Y112665D01*
X-26910Y112813D01*
X-26752Y112941D01*
X-26595Y113029D01*
X-26437Y113108D01*
X-26300Y113167D01*
X-26191Y113197D01*
X-26152Y113216D01*
X-26122D01*
X-26103Y113226D01*
X-26093D01*
X-25857Y113266D01*
X-25611Y113295D01*
X-25365Y113325D01*
X-25138Y113334D01*
X-25030D01*
X-24932Y113344D01*
X-24617D01*
Y110786D01*
X-24843D01*
X-25001Y110776D01*
X-25128Y110737D01*
X-25237Y110687D01*
X-25315Y110628D01*
X-25384Y110569D01*
X-25424Y110520D01*
X-25443Y110481D01*
X-25453Y110471D01*
X-25512Y110343D01*
X-25552Y110196D01*
X-25581Y110048D01*
X-25601Y109910D01*
X-25611Y109782D01*
X-25620Y109684D01*
Y109644D01*
Y109615D01*
Y109595D01*
Y109585D01*
Y106810D01*
Y106624D01*
X-25601Y106466D01*
X-25581Y106328D01*
X-25561Y106210D01*
X-25542Y106112D01*
X-25522Y106043D01*
X-25512Y106004D01*
X-25502Y105984D01*
X-25453Y105876D01*
X-25404Y105777D01*
X-25345Y105699D01*
X-25296Y105630D01*
X-25247Y105571D01*
X-25207Y105531D01*
X-25178Y105512D01*
X-25168Y105502D01*
X-25079Y105443D01*
X-24991Y105394D01*
X-24912Y105354D01*
X-24824Y105325D01*
X-24755Y105305D01*
X-24696Y105285D01*
X-24656Y105275D01*
X-24646D01*
X-24410Y105246D01*
X-24292Y105226D01*
X-24184D01*
X-24085Y105216D01*
X-22885D01*
X-22737Y105226D01*
X-22610Y105236D01*
X-22491Y105246D01*
X-22403D01*
X-22334Y105256D01*
X-22295Y105266D01*
X-22275D01*
X-22157Y105295D01*
X-22058Y105325D01*
X-21970Y105364D01*
X-21891Y105394D01*
X-21832Y105433D01*
X-21793Y105453D01*
X-21763Y105472D01*
X-21753Y105482D01*
X-21685Y105551D01*
X-21625Y105620D01*
X-21537Y105768D01*
X-21507Y105836D01*
X-21488Y105886D01*
X-21468Y105925D01*
Y105935D01*
X-21439Y106053D01*
X-21419Y106171D01*
X-21399Y106299D01*
X-21389Y106407D01*
Y106515D01*
X-21380Y106594D01*
Y106653D01*
Y106673D01*
Y109398D01*
Y109546D01*
X-21389Y109684D01*
Y109812D01*
X-21399Y109910D01*
Y109999D01*
X-21409Y110058D01*
Y110097D01*
Y110107D01*
X-21429Y110205D01*
X-21448Y110294D01*
X-21478Y110373D01*
X-21507Y110442D01*
X-21527Y110491D01*
X-21547Y110530D01*
X-21566Y110550D01*
Y110560D01*
X-21616Y110619D01*
X-21675Y110678D01*
X-21783Y110756D01*
X-21832Y110786D01*
X-21871Y110806D01*
X-21901Y110815D01*
X-21911D01*
X-21999Y110845D01*
X-22098Y110865D01*
X-22206Y110874D01*
X-22304Y110884D01*
X-22383Y110894D01*
X-22521D01*
Y113452D01*
X-21744D01*
X-21547Y113443D01*
D02*
G37*
G36*
Y125329D02*
X-21281Y125310D01*
X-21055Y125280D01*
X-20946Y125270D01*
X-20858Y125251D01*
X-20769Y125231D01*
X-20700Y125221D01*
X-20641Y125201D01*
X-20592Y125192D01*
X-20543Y125182D01*
X-20514Y125172D01*
X-20504Y125162D01*
X-20494D01*
X-20317Y125083D01*
X-20150Y124985D01*
X-20022Y124887D01*
X-19904Y124778D01*
X-19815Y124680D01*
X-19746Y124601D01*
X-19707Y124542D01*
X-19697Y124532D01*
Y124522D01*
X-19598Y124336D01*
X-19520Y124139D01*
X-19461Y123922D01*
X-19411Y123725D01*
X-19372Y123538D01*
X-19362Y123460D01*
X-19352Y123401D01*
X-19343Y123342D01*
X-19333Y123302D01*
Y123273D01*
Y123263D01*
X-19313Y123106D01*
X-19303Y122938D01*
X-19284Y122594D01*
X-19264Y122249D01*
X-19254Y121915D01*
Y121767D01*
Y121620D01*
X-19244Y121502D01*
Y121393D01*
Y121305D01*
Y121236D01*
Y121197D01*
Y121177D01*
Y118087D01*
Y117772D01*
X-19254Y117487D01*
X-19274Y117231D01*
X-19284Y117113D01*
X-19293Y117015D01*
Y116916D01*
X-19303Y116838D01*
X-19313Y116759D01*
X-19323Y116700D01*
Y116650D01*
X-19333Y116621D01*
Y116601D01*
Y116592D01*
X-19372Y116375D01*
X-19431Y116168D01*
X-19490Y116001D01*
X-19539Y115854D01*
X-19598Y115735D01*
X-19638Y115647D01*
X-19667Y115598D01*
X-19677Y115578D01*
X-19785Y115440D01*
X-19894Y115332D01*
X-20012Y115234D01*
X-20120Y115145D01*
X-20218Y115086D01*
X-20297Y115047D01*
X-20346Y115017D01*
X-20366Y115007D01*
X-20543Y114948D01*
X-20720Y114909D01*
X-20907Y114869D01*
X-21084Y114850D01*
X-21242Y114840D01*
X-21311D01*
X-21370Y114830D01*
X-22058D01*
Y117388D01*
X-21940D01*
X-21832Y117398D01*
X-21744Y117408D01*
X-21665Y117428D01*
X-21606Y117438D01*
X-21566Y117448D01*
X-21537Y117457D01*
X-21527D01*
X-21399Y117516D01*
X-21311Y117585D01*
X-21261Y117644D01*
X-21242Y117654D01*
Y117664D01*
X-21183Y117772D01*
X-21143Y117890D01*
X-21134Y117940D01*
Y117979D01*
X-21124Y117999D01*
Y118008D01*
X-21114Y118176D01*
X-21104Y118323D01*
Y118392D01*
Y118441D01*
Y118481D01*
Y118491D01*
Y121620D01*
Y121767D01*
X-21114Y121895D01*
Y121944D01*
Y121984D01*
Y122003D01*
Y122013D01*
X-21134Y122151D01*
X-21163Y122269D01*
X-21183Y122309D01*
X-21192Y122338D01*
X-21202Y122358D01*
Y122368D01*
X-21271Y122476D01*
X-21340Y122555D01*
X-21399Y122594D01*
X-21409Y122614D01*
X-21419D01*
X-21478Y122643D01*
X-21537Y122673D01*
X-21665Y122702D01*
X-21714Y122712D01*
X-21901D01*
X-21990Y122692D01*
X-22058Y122682D01*
X-22118Y122663D01*
X-22167Y122643D01*
X-22196Y122633D01*
X-22216Y122614D01*
X-22226D01*
X-22285Y122564D01*
X-22334Y122495D01*
X-22373Y122427D01*
X-22403Y122348D01*
X-22432Y122269D01*
X-22452Y122210D01*
X-22462Y122171D01*
Y122151D01*
X-22491Y122003D01*
X-22511Y121826D01*
X-22531Y121649D01*
X-22541Y121472D01*
X-22550Y121315D01*
Y121246D01*
X-22560Y121187D01*
Y121138D01*
Y121098D01*
Y121079D01*
Y121069D01*
Y120931D01*
X-22570Y120783D01*
Y120459D01*
X-22580Y120134D01*
Y119829D01*
Y119681D01*
Y119544D01*
Y119425D01*
Y119327D01*
Y119238D01*
Y119179D01*
Y119130D01*
Y119120D01*
Y118855D01*
Y118609D01*
X-22590Y118372D01*
X-22600Y118146D01*
Y117949D01*
X-22610Y117753D01*
X-22619Y117585D01*
X-22629Y117428D01*
X-22639Y117290D01*
X-22649Y117162D01*
X-22659Y117064D01*
Y116975D01*
X-22669Y116906D01*
X-22678Y116857D01*
Y116828D01*
Y116818D01*
X-22728Y116523D01*
X-22787Y116257D01*
X-22846Y116040D01*
X-22875Y115942D01*
X-22915Y115854D01*
X-22944Y115785D01*
X-22974Y115716D01*
X-22993Y115657D01*
X-23013Y115608D01*
X-23033Y115578D01*
X-23052Y115548D01*
X-23062Y115539D01*
Y115529D01*
X-23170Y115381D01*
X-23298Y115253D01*
X-23426Y115155D01*
X-23544Y115076D01*
X-23652Y115027D01*
X-23741Y114988D01*
X-23800Y114968D01*
X-23810Y114958D01*
X-23820D01*
X-24017Y114919D01*
X-24223Y114889D01*
X-24440Y114869D01*
X-24636Y114860D01*
X-24814Y114850D01*
X-24882Y114840D01*
X-25286D01*
X-25483Y114850D01*
X-25660Y114860D01*
X-25817Y114879D01*
X-25945Y114889D01*
X-26044Y114899D01*
X-26083D01*
X-26112Y114909D01*
X-26132D01*
X-26309Y114948D01*
X-26477Y114997D01*
X-26614Y115066D01*
X-26742Y115135D01*
X-26841Y115194D01*
X-26919Y115253D01*
X-26959Y115293D01*
X-26978Y115302D01*
X-27106Y115440D01*
X-27215Y115598D01*
X-27313Y115765D01*
X-27392Y115922D01*
X-27451Y116070D01*
X-27480Y116139D01*
X-27500Y116198D01*
X-27520Y116237D01*
X-27529Y116277D01*
X-27539Y116296D01*
Y116306D01*
X-27579Y116444D01*
X-27608Y116582D01*
X-27667Y116887D01*
X-27707Y117202D01*
X-27726Y117507D01*
X-27736Y117644D01*
X-27746Y117772D01*
Y117890D01*
X-27756Y117999D01*
Y118077D01*
Y118146D01*
Y118186D01*
Y118195D01*
Y121767D01*
Y121964D01*
X-27746Y122161D01*
X-27736Y122338D01*
X-27726Y122505D01*
X-27716Y122663D01*
X-27697Y122801D01*
X-27677Y122938D01*
X-27667Y123056D01*
X-27648Y123155D01*
X-27628Y123253D01*
X-27608Y123332D01*
X-27598Y123391D01*
X-27588Y123440D01*
X-27579Y123479D01*
X-27569Y123499D01*
Y123509D01*
X-27500Y123735D01*
X-27411Y123932D01*
X-27333Y124099D01*
X-27254Y124227D01*
X-27175Y124336D01*
X-27116Y124414D01*
X-27077Y124454D01*
X-27067Y124473D01*
X-26939Y124591D01*
X-26811Y124680D01*
X-26683Y124759D01*
X-26555Y124808D01*
X-26447Y124847D01*
X-26368Y124877D01*
X-26309Y124896D01*
X-26290D01*
X-26122Y124926D01*
X-25945Y124955D01*
X-25778Y124975D01*
X-25630Y124985D01*
X-25493Y124995D01*
X-25030D01*
Y122436D01*
X-25188D01*
X-25247Y122427D01*
X-25306D01*
X-25355Y122417D01*
X-25384D01*
X-25404Y122407D01*
X-25414D01*
X-25522Y122368D01*
X-25611Y122318D01*
X-25660Y122269D01*
X-25680Y122259D01*
Y122249D01*
X-25719Y122200D01*
X-25748Y122141D01*
X-25798Y122023D01*
X-25817Y121964D01*
X-25827Y121915D01*
X-25837Y121885D01*
Y121876D01*
X-25857Y121777D01*
X-25876Y121669D01*
X-25886Y121551D01*
Y121443D01*
X-25896Y121344D01*
Y121256D01*
Y121206D01*
Y121197D01*
Y121187D01*
Y118363D01*
X-25886Y118205D01*
X-25876Y118068D01*
X-25847Y117940D01*
X-25817Y117841D01*
X-25788Y117762D01*
X-25768Y117703D01*
X-25748Y117664D01*
X-25739Y117654D01*
X-25670Y117566D01*
X-25591Y117507D01*
X-25512Y117457D01*
X-25434Y117428D01*
X-25365Y117408D01*
X-25306Y117398D01*
X-25148D01*
X-25060Y117408D01*
X-24991Y117428D01*
X-24932Y117448D01*
X-24882Y117457D01*
X-24843Y117477D01*
X-24824Y117487D01*
X-24814D01*
X-24764Y117526D01*
X-24715Y117585D01*
X-24646Y117723D01*
X-24627Y117782D01*
X-24607Y117841D01*
X-24597Y117880D01*
Y117890D01*
X-24577Y118028D01*
X-24558Y118176D01*
X-24538Y118323D01*
X-24528Y118471D01*
Y118609D01*
X-24518Y118717D01*
Y118756D01*
Y118786D01*
Y118806D01*
Y118815D01*
Y118933D01*
Y119061D01*
X-24509Y119327D01*
Y119593D01*
Y119849D01*
Y119976D01*
Y120085D01*
Y120183D01*
Y120272D01*
Y120341D01*
Y120390D01*
Y120429D01*
Y120439D01*
Y120714D01*
Y120970D01*
X-24499Y121216D01*
Y121443D01*
X-24489Y121659D01*
Y121866D01*
X-24479Y122053D01*
X-24469Y122220D01*
X-24459Y122368D01*
Y122495D01*
X-24450Y122614D01*
X-24440Y122712D01*
Y122781D01*
X-24430Y122840D01*
Y122869D01*
Y122879D01*
X-24410Y123056D01*
X-24400Y123214D01*
X-24371Y123371D01*
X-24351Y123519D01*
X-24322Y123647D01*
X-24292Y123775D01*
X-24263Y123883D01*
X-24233Y123981D01*
X-24204Y124080D01*
X-24174Y124158D01*
X-24154Y124217D01*
X-24135Y124276D01*
X-24115Y124316D01*
X-24095Y124345D01*
X-24085Y124365D01*
Y124375D01*
X-23967Y124562D01*
X-23840Y124719D01*
X-23712Y124847D01*
X-23584Y124955D01*
X-23466Y125024D01*
X-23367Y125083D01*
X-23328Y125103D01*
X-23298Y125113D01*
X-23288Y125123D01*
X-23279D01*
X-23072Y125192D01*
X-22836Y125251D01*
X-22600Y125290D01*
X-22373Y125310D01*
X-22265Y125320D01*
X-22167Y125329D01*
X-22078D01*
X-21999Y125339D01*
X-21852D01*
X-21547Y125329D01*
D02*
G37*
G36*
X-242473Y35183D02*
X-242113Y35152D01*
X-241817Y35121D01*
X-241676Y35105D01*
X-241551Y35090D01*
X-241458Y35074D01*
X-241364Y35058D01*
X-241301Y35043D01*
X-241254D01*
X-241223Y35027D01*
X-241208D01*
X-240880Y34949D01*
X-240583Y34871D01*
X-240333Y34762D01*
X-240114Y34668D01*
X-239942Y34590D01*
X-239817Y34512D01*
X-239739Y34465D01*
X-239708Y34449D01*
X-239489Y34293D01*
X-239302Y34106D01*
X-239146Y33934D01*
X-239021Y33762D01*
X-238927Y33606D01*
X-238864Y33481D01*
X-238818Y33403D01*
X-238802Y33387D01*
Y33371D01*
X-238708Y33121D01*
X-238630Y32840D01*
X-238583Y32575D01*
X-238537Y32309D01*
X-238521Y32090D01*
X-238505Y31903D01*
Y31841D01*
Y31794D01*
Y31762D01*
Y31747D01*
Y31435D01*
X-238537Y31169D01*
X-238552Y30935D01*
X-238583Y30732D01*
X-238615Y30575D01*
X-238630Y30450D01*
X-238662Y30388D01*
Y30357D01*
X-238724Y30169D01*
X-238786Y29997D01*
X-238849Y29857D01*
X-238911Y29732D01*
X-238974Y29623D01*
X-239021Y29560D01*
X-239052Y29513D01*
X-239068Y29498D01*
X-239271Y29279D01*
X-239474Y29123D01*
X-239567Y29076D01*
X-239630Y29029D01*
X-239677Y29013D01*
X-239692Y28998D01*
X-239958Y28888D01*
X-240099Y28842D01*
X-240224Y28795D01*
X-240317Y28763D01*
X-240395Y28732D01*
X-240458Y28717D01*
X-240473D01*
Y28654D01*
X-240239Y28623D01*
X-240005Y28576D01*
X-239802Y28514D01*
X-239614Y28451D01*
X-239442Y28373D01*
X-239302Y28295D01*
X-239161Y28217D01*
X-239036Y28139D01*
X-238849Y27998D01*
X-238708Y27873D01*
X-238630Y27779D01*
X-238599Y27764D01*
Y27748D01*
X-238505Y27608D01*
X-238412Y27436D01*
X-238271Y27077D01*
X-238177Y26702D01*
X-238099Y26342D01*
X-238068Y26014D01*
X-238052Y25874D01*
Y25749D01*
X-238037Y25640D01*
Y25561D01*
Y25515D01*
Y25499D01*
X-238052Y25108D01*
X-238084Y24765D01*
X-238130Y24452D01*
X-238193Y24202D01*
X-238255Y23999D01*
X-238302Y23843D01*
X-238334Y23749D01*
X-238349Y23734D01*
Y23718D01*
X-238474Y23468D01*
X-238599Y23265D01*
X-238740Y23078D01*
X-238880Y22922D01*
X-239005Y22797D01*
X-239099Y22718D01*
X-239161Y22656D01*
X-239193Y22640D01*
X-239396Y22515D01*
X-239614Y22406D01*
X-239833Y22312D01*
X-240036Y22250D01*
X-240208Y22187D01*
X-240348Y22156D01*
X-240442Y22125D01*
X-240473D01*
X-241036Y22047D01*
X-241301Y22031D01*
X-241551Y22016D01*
X-241770Y22000D01*
X-255000D01*
Y35214D01*
X-242879D01*
X-242473Y35183D01*
D02*
G37*
G36*
X-231554Y25390D02*
X-222448D01*
Y22000D01*
X-235616D01*
Y35214D01*
X-231554D01*
Y25390D01*
D02*
G37*
G36*
X-21950Y101221D02*
X-21694Y101202D01*
X-21468Y101172D01*
X-21281Y101143D01*
X-21192Y101123D01*
X-21124Y101103D01*
X-21055Y101084D01*
X-21006Y101074D01*
X-20966Y101064D01*
X-20937Y101054D01*
X-20917Y101044D01*
X-20907D01*
X-20710Y100966D01*
X-20533Y100877D01*
X-20376Y100779D01*
X-20248Y100680D01*
X-20140Y100592D01*
X-20071Y100523D01*
X-20022Y100474D01*
X-20002Y100454D01*
X-19874Y100296D01*
X-19776Y100119D01*
X-19687Y99942D01*
X-19618Y99775D01*
X-19559Y99617D01*
X-19539Y99558D01*
X-19520Y99499D01*
X-19510Y99450D01*
X-19500Y99421D01*
X-19490Y99401D01*
Y99391D01*
X-19441Y99135D01*
X-19402Y98860D01*
X-19372Y98594D01*
X-19352Y98338D01*
X-19343Y98220D01*
Y98112D01*
Y98023D01*
X-19333Y97935D01*
Y97866D01*
Y97817D01*
Y97787D01*
Y97777D01*
Y90073D01*
X-27657D01*
Y97777D01*
X-27648Y98122D01*
X-27628Y98437D01*
X-27618Y98574D01*
X-27608Y98712D01*
X-27588Y98830D01*
X-27579Y98939D01*
X-27559Y99047D01*
X-27539Y99135D01*
X-27529Y99214D01*
X-27520Y99273D01*
X-27510Y99322D01*
X-27500Y99362D01*
X-27490Y99381D01*
Y99391D01*
X-27421Y99627D01*
X-27343Y99834D01*
X-27264Y100021D01*
X-27175Y100169D01*
X-27097Y100296D01*
X-27038Y100385D01*
X-26998Y100434D01*
X-26978Y100454D01*
X-26841Y100601D01*
X-26693Y100720D01*
X-26546Y100818D01*
X-26398Y100907D01*
X-26270Y100966D01*
X-26162Y101015D01*
X-26132Y101025D01*
X-26103Y101034D01*
X-26083Y101044D01*
X-26073D01*
X-25857Y101103D01*
X-25630Y101153D01*
X-25414Y101182D01*
X-25207Y101212D01*
X-25030Y101221D01*
X-24951D01*
X-24882Y101231D01*
X-22226D01*
X-21950Y101221D01*
D02*
G37*
%LPC*%
G36*
X-156781Y32137D02*
X-159343Y27186D01*
X-154157D01*
X-156781Y32137D01*
D02*
G37*
G36*
X-22600Y84484D02*
X-25719Y82830D01*
X-22600Y81217D01*
Y84484D01*
D02*
G37*
G36*
X-243675Y32044D02*
X-250939D01*
Y29982D01*
X-243769D01*
X-243566Y29997D01*
X-243379Y30013D01*
X-243238Y30044D01*
X-243113Y30091D01*
X-243004Y30138D01*
X-242941Y30169D01*
X-242895Y30185D01*
X-242879Y30200D01*
X-242770Y30310D01*
X-242691Y30419D01*
X-242645Y30560D01*
X-242598Y30685D01*
X-242582Y30810D01*
X-242566Y30903D01*
Y30966D01*
Y30997D01*
X-242582Y31200D01*
X-242613Y31372D01*
X-242660Y31513D01*
X-242723Y31622D01*
X-242785Y31700D01*
X-242832Y31762D01*
X-242863Y31794D01*
X-242879Y31809D01*
X-243004Y31888D01*
X-243144Y31950D01*
X-243301Y31981D01*
X-243441Y32012D01*
X-243566Y32028D01*
X-243675Y32044D01*
D02*
G37*
G36*
X-243566Y27248D02*
X-250939D01*
Y25171D01*
X-243675D01*
X-243441Y25186D01*
X-243238Y25202D01*
X-243051Y25233D01*
X-242895Y25265D01*
X-242770Y25296D01*
X-242691Y25327D01*
X-242629Y25358D01*
X-242613D01*
X-242473Y25452D01*
X-242379Y25561D01*
X-242301Y25686D01*
X-242254Y25827D01*
X-242223Y25936D01*
X-242207Y26046D01*
Y26108D01*
Y26139D01*
X-242223Y26374D01*
X-242270Y26561D01*
X-242332Y26717D01*
X-242410Y26842D01*
X-242488Y26920D01*
X-242551Y26983D01*
X-242598Y27014D01*
X-242613Y27030D01*
X-242770Y27108D01*
X-242957Y27155D01*
X-243129Y27202D01*
X-243301Y27217D01*
X-243441Y27233D01*
X-243566Y27248D01*
D02*
G37*
G36*
X-22806Y98673D02*
X-24243D01*
X-24390Y98663D01*
X-24518Y98643D01*
X-24627Y98633D01*
X-24705Y98614D01*
X-24774Y98594D01*
X-24814Y98584D01*
X-24824D01*
X-24932Y98545D01*
X-25020Y98506D01*
X-25099Y98466D01*
X-25158Y98417D01*
X-25207Y98378D01*
X-25247Y98348D01*
X-25266Y98328D01*
X-25276Y98319D01*
X-25335Y98250D01*
X-25384Y98171D01*
X-25453Y98014D01*
X-25483Y97945D01*
X-25502Y97895D01*
X-25512Y97856D01*
Y97846D01*
X-25542Y97738D01*
X-25561Y97620D01*
X-25571Y97502D01*
X-25581Y97394D01*
X-25591Y97295D01*
Y97216D01*
Y97167D01*
Y97148D01*
Y92631D01*
X-21468D01*
Y97148D01*
Y97295D01*
X-21478Y97433D01*
X-21488Y97551D01*
X-21507Y97650D01*
X-21517Y97738D01*
X-21527Y97797D01*
X-21537Y97836D01*
Y97846D01*
X-21566Y97954D01*
X-21606Y98043D01*
X-21635Y98122D01*
X-21675Y98191D01*
X-21714Y98250D01*
X-21734Y98289D01*
X-21753Y98309D01*
X-21763Y98319D01*
X-21832Y98378D01*
X-21901Y98437D01*
X-22049Y98515D01*
X-22118Y98545D01*
X-22167Y98565D01*
X-22206Y98584D01*
X-22216D01*
X-22334Y98614D01*
X-22462Y98633D01*
X-22580Y98653D01*
X-22698Y98663D01*
X-22806Y98673D01*
D02*
G37*
%LPD*%
D15*
X-271972Y79056D02*
G03*
X-271972Y96944I4472J8944D01*
G01*
X-266176Y58339D02*
G03*
X-273851Y58353I-3824J7330D01*
G01*
X-246176Y38339D02*
G03*
X-253851Y38353I-3824J7330D01*
G01*
X-266176Y38339D02*
G03*
X-273851Y38353I-3824J7330D01*
G01*
X-260500Y23500D02*
G03*
X-260500Y23500I-11000J0D01*
G01*
X-264500D02*
G03*
X-264500Y23500I-9000J0D01*
G01*
X-268500D02*
G03*
X-268500Y23500I-7000J0D01*
G01*
X-271972Y79056D02*
Y96944D01*
X-12500Y180000D02*
Y225000D01*
X-72500D02*
X-12500D01*
X-72500Y180000D02*
X-12500D01*
X-72500D02*
Y225000D01*
X-12500Y230500D02*
Y320500D01*
X-77500D02*
X-12500D01*
X-77500Y230500D02*
X-12500D01*
X-77500D02*
Y320500D01*
X-181063Y96012D02*
X-129488D01*
X-181063Y38138D02*
Y96012D01*
X-129488Y38138D02*
Y96012D01*
X-181063Y38138D02*
X-129488D01*
X-33000Y11000D02*
Y177000D01*
X-126000D02*
X-33000D01*
X-126000Y11000D02*
X-33000D01*
X-126000D02*
Y177000D01*
X-85000Y180000D02*
Y250000D01*
X-215000D02*
X-85000D01*
X-215000Y180000D02*
X-85000D01*
X-215000D02*
Y250000D01*
X-311500Y251500D02*
X-231500D01*
X-311500Y189000D02*
Y251500D01*
X-231500Y189000D02*
Y251500D01*
X-311500Y189000D02*
X-231500D01*
X-85000Y252000D02*
Y332000D01*
X-165000D02*
X-85000D01*
X-165000Y252000D02*
X-85000D01*
X-165000D02*
Y332000D01*
X-167500Y257500D02*
Y342500D01*
X-317500D02*
X-167500D01*
X-317500Y257500D02*
X-167500D01*
X-317500D02*
Y342500D01*
X-273851Y58353D02*
X-266176Y58339D01*
X-247500Y72500D02*
X-237500D01*
X-232500Y57500D02*
Y77500D01*
X-247500Y62500D02*
X-237500D01*
X-252500Y77500D02*
X-232500D01*
X-252500Y57500D02*
Y77500D01*
Y57500D02*
X-232500D01*
X-253851Y38353D02*
X-246176Y38339D01*
X-273851Y38353D02*
X-266176Y38339D01*
X-280000Y26000D02*
X-275500Y28500D01*
X-271000Y26000D01*
X-275500Y23500D02*
X-271000Y26000D01*
Y21000D02*
Y26000D01*
X-280000Y21000D02*
Y26000D01*
X-275500Y23500D01*
Y18500D02*
X-271000Y21000D01*
X-280000D02*
X-275500Y18500D01*
Y23500D01*
X-30500Y55000D02*
Y144000D01*
X-8500D01*
X-16500Y113000D02*
X-8500D01*
Y55000D02*
Y144000D01*
X-30500Y55000D02*
X-8500D01*
X-16500D02*
Y144000D01*
X-364500Y180000D02*
X-320000D01*
X-365000Y245000D02*
X-362500D01*
X-323000D02*
X-320000D01*
X-364500Y115000D02*
X-362500D01*
X-323000D02*
X-320000D01*
X-16500Y103000D02*
X-8500D01*
X-320000Y57200D02*
X-285000D01*
X-320000D02*
Y72200D01*
X-285000D01*
Y57200D02*
Y72200D01*
X-320000Y74000D02*
X-285000D01*
X-320000D02*
Y89000D01*
X-285000D01*
Y74000D02*
Y89000D01*
X-55500Y206498D02*
Y201500D01*
X-53001D01*
X-52168Y202333D01*
Y203166D01*
X-53001Y203999D01*
X-55500D01*
X-53001D01*
X-52168Y204832D01*
Y205665D01*
X-53001Y206498D01*
X-55500D01*
X-50502Y201500D02*
Y206498D01*
X-48836Y204832D01*
X-47169Y206498D01*
Y201500D01*
X-45503D02*
Y206498D01*
X-43004D01*
X-42171Y205665D01*
Y203999D01*
X-43004Y203166D01*
X-45503D01*
X-37173Y201500D02*
X-40505D01*
X-37173Y204832D01*
Y205665D01*
X-38006Y206498D01*
X-39672D01*
X-40505Y205665D01*
X-35506D02*
X-34673Y206498D01*
X-33007D01*
X-32174Y205665D01*
Y204832D01*
X-33007Y203999D01*
X-32174Y203166D01*
Y202333D01*
X-33007Y201500D01*
X-34673D01*
X-35506Y202333D01*
Y203166D01*
X-34673Y203999D01*
X-35506Y204832D01*
Y205665D01*
X-34673Y203999D02*
X-33007D01*
X-30508Y205665D02*
X-29675Y206498D01*
X-28009D01*
X-27176Y205665D01*
Y202333D01*
X-28009Y201500D01*
X-29675D01*
X-30508Y202333D01*
Y205665D01*
X-96500Y93730D02*
Y91231D01*
X-95667Y90398D01*
X-93168D01*
Y93730D01*
X-88169Y94563D02*
X-89002Y95396D01*
X-90669D01*
X-91502Y94563D01*
Y93730D01*
X-90669Y92897D01*
X-89002D01*
X-88169Y92064D01*
Y91231D01*
X-89002Y90398D01*
X-90669D01*
X-91502Y91231D01*
X-86503Y95396D02*
Y90398D01*
X-84004D01*
X-83171Y91231D01*
Y94563D01*
X-84004Y95396D01*
X-86503D01*
X-73174Y94563D02*
X-74007Y95396D01*
X-75673D01*
X-76507Y94563D01*
Y91231D01*
X-75673Y90398D01*
X-74007D01*
X-73174Y91231D01*
X-70675Y93730D02*
X-69009D01*
X-68176Y92897D01*
Y90398D01*
X-70675D01*
X-71508Y91231D01*
X-70675Y92064D01*
X-68176D01*
X-66510Y93730D02*
Y90398D01*
Y92064D01*
X-65677Y92897D01*
X-64844Y93730D01*
X-64011D01*
X-58179Y95396D02*
Y90398D01*
X-60678D01*
X-61511Y91231D01*
Y92897D01*
X-60678Y93730D01*
X-58179D01*
X-91085Y82000D02*
Y86998D01*
X-89419Y85332D01*
X-87753Y86998D01*
Y82000D01*
X-85254D02*
X-83587D01*
X-82754Y82833D01*
Y84499D01*
X-83587Y85332D01*
X-85254D01*
X-86087Y84499D01*
Y82833D01*
X-85254Y82000D01*
X-77756Y86998D02*
Y82000D01*
X-80255D01*
X-81088Y82833D01*
Y84499D01*
X-80255Y85332D01*
X-77756D01*
X-76090D02*
Y82833D01*
X-75257Y82000D01*
X-72758D01*
Y85332D01*
X-71092Y82000D02*
X-69425D01*
X-70258D01*
Y86998D01*
X-71092D01*
X-64427Y82000D02*
X-66093D01*
X-66926Y82833D01*
Y84499D01*
X-66093Y85332D01*
X-64427D01*
X-63594Y84499D01*
Y83666D01*
X-66926D01*
X-10751Y115088D02*
X-14249D01*
X-13083Y116254D01*
X-14249Y117420D01*
X-10751D01*
X-13083Y119170D02*
Y120336D01*
X-12500Y120919D01*
X-10751D01*
Y119170D01*
X-11334Y118587D01*
X-11917Y119170D01*
Y120919D01*
X-13083Y122085D02*
X-10751D01*
X-11917D01*
X-12500Y122669D01*
X-13083Y123252D01*
Y123835D01*
X-10751Y125584D02*
X-14249D01*
X-11917D02*
X-13083Y127334D01*
X-11917Y125584D02*
X-10751Y127334D01*
X-14249Y132582D02*
X-13666D01*
X-12500Y133748D01*
X-13666Y134915D01*
X-14249D01*
X-12500Y133748D02*
X-10751D01*
Y137830D02*
Y136664D01*
X-11334Y136081D01*
X-12500D01*
X-13083Y136664D01*
Y137830D01*
X-12500Y138414D01*
X-11917D01*
Y136081D01*
X-10751Y140163D02*
Y141329D01*
X-11334Y141912D01*
X-12500D01*
X-13083Y141329D01*
Y140163D01*
X-12500Y139580D01*
X-11334D01*
X-10751Y140163D01*
X-13666Y59173D02*
X-14249Y58590D01*
Y57424D01*
X-13666Y56840D01*
X-13083D01*
X-12500Y57424D01*
Y58590D01*
X-11917Y59173D01*
X-11334D01*
X-10751Y58590D01*
Y57424D01*
X-11334Y56840D01*
X-14249Y62672D02*
Y60339D01*
X-10751D01*
Y62672D01*
X-12500Y60339D02*
Y61506D01*
X-10751Y63838D02*
X-14249D01*
X-10751Y66171D01*
X-14249D01*
X-13666Y69670D02*
X-14249Y69086D01*
Y67920D01*
X-13666Y67337D01*
X-13083D01*
X-12500Y67920D01*
Y69086D01*
X-11917Y69670D01*
X-11334D01*
X-10751Y69086D01*
Y67920D01*
X-11334Y67337D01*
X-14249Y72585D02*
Y71419D01*
X-13666Y70836D01*
X-11334D01*
X-10751Y71419D01*
Y72585D01*
X-11334Y73169D01*
X-13666D01*
X-14249Y72585D01*
X-10751Y74335D02*
X-14249D01*
Y76084D01*
X-13666Y76667D01*
X-12500D01*
X-11917Y76084D01*
Y74335D01*
Y75501D02*
X-10751Y76667D01*
X-14249Y81333D02*
X-10751D01*
Y83665D01*
X-14249Y86581D02*
Y85415D01*
X-13666Y84831D01*
X-11334D01*
X-10751Y85415D01*
Y86581D01*
X-11334Y87164D01*
X-13666D01*
X-14249Y86581D01*
X-13666Y90663D02*
X-14249Y90080D01*
Y88914D01*
X-13666Y88330D01*
X-11334D01*
X-10751Y88914D01*
Y90080D01*
X-11334Y90663D01*
X-12500D01*
Y89497D01*
X-13666Y94162D02*
X-14249Y93579D01*
Y92412D01*
X-13666Y91829D01*
X-11334D01*
X-10751Y92412D01*
Y93579D01*
X-11334Y94162D01*
X-12500D01*
Y92996D01*
X-14249Y97661D02*
Y95328D01*
X-10751D01*
Y97661D01*
X-12500Y95328D02*
Y96494D01*
X-10751Y98827D02*
X-14249D01*
Y100576D01*
X-13666Y101160D01*
X-12500D01*
X-11917Y100576D01*
Y98827D01*
Y99993D02*
X-10751Y101160D01*
X-14249Y105084D02*
X-11917D01*
X-10751Y106251D01*
X-11917Y107417D01*
X-14249D01*
X-10751Y110916D02*
Y108583D01*
X-13083Y110916D01*
X-13666D01*
X-14249Y110333D01*
Y109166D01*
X-13666Y108583D01*
X-271500Y108899D02*
Y104900D01*
Y106899D01*
X-268834D01*
Y108899D01*
Y104900D01*
X-267501D02*
X-266168D01*
X-266835D01*
Y108899D01*
X-267501Y108232D01*
X-264169D02*
X-263503Y108899D01*
X-262170D01*
X-261503Y108232D01*
Y107566D01*
X-262170Y106899D01*
X-262836D01*
X-262170D01*
X-261503Y106233D01*
Y105567D01*
X-262170Y104900D01*
X-263503D01*
X-264169Y105567D01*
X-244034Y99132D02*
X-244701Y99799D01*
X-246034D01*
X-246700Y99132D01*
Y96466D01*
X-246034Y95800D01*
X-244701D01*
X-244034Y96466D01*
X-240036Y99799D02*
X-242701D01*
Y97799D01*
X-241368Y98466D01*
X-240702D01*
X-240036Y97799D01*
Y96466D01*
X-240702Y95800D01*
X-242035D01*
X-242701Y96466D01*
X-252634Y107132D02*
X-253301Y107799D01*
X-254634D01*
X-255300Y107132D01*
Y104466D01*
X-254634Y103800D01*
X-253301D01*
X-252634Y104466D01*
X-249302Y103800D02*
Y107799D01*
X-251301Y105799D01*
X-248636D01*
X-337634Y336532D02*
X-338301Y337199D01*
X-339634D01*
X-340300Y336532D01*
Y333866D01*
X-339634Y333200D01*
X-338301D01*
X-337634Y333866D01*
X-333635Y333200D02*
X-336301D01*
X-333635Y335866D01*
Y336532D01*
X-334302Y337199D01*
X-335635D01*
X-336301Y336532D01*
X-327634D02*
X-328301Y337199D01*
X-329634D01*
X-330300Y336532D01*
Y333866D01*
X-329634Y333200D01*
X-328301D01*
X-327634Y333866D01*
X-326301Y333200D02*
X-324968D01*
X-325635D01*
Y337199D01*
X-326301Y336532D01*
X-210300Y91800D02*
Y95799D01*
X-208301D01*
X-207634Y95132D01*
Y93799D01*
X-208301Y93133D01*
X-210300D01*
X-208967D02*
X-207634Y91800D01*
X-206301Y95132D02*
X-205635Y95799D01*
X-204302D01*
X-203636Y95132D01*
Y94466D01*
X-204302Y93799D01*
X-203636Y93133D01*
Y92466D01*
X-204302Y91800D01*
X-205635D01*
X-206301Y92466D01*
Y93133D01*
X-205635Y93799D01*
X-206301Y94466D01*
Y95132D01*
X-205635Y93799D02*
X-204302D01*
X-220500Y91500D02*
Y95499D01*
X-218501D01*
X-217834Y94832D01*
Y93499D01*
X-218501Y92833D01*
X-220500D01*
X-219167D02*
X-217834Y91500D01*
X-216501Y95499D02*
X-213836D01*
Y94832D01*
X-216501Y92166D01*
Y91500D01*
X-200500Y50000D02*
Y53999D01*
X-198501D01*
X-197834Y53332D01*
Y51999D01*
X-198501Y51333D01*
X-200500D01*
X-199167D02*
X-197834Y50000D01*
X-193835Y53999D02*
X-195168Y53332D01*
X-196501Y51999D01*
Y50666D01*
X-195835Y50000D01*
X-194502D01*
X-193835Y50666D01*
Y51333D01*
X-194502Y51999D01*
X-196501D01*
X-190500Y50000D02*
Y53999D01*
X-188501D01*
X-187834Y53332D01*
Y51999D01*
X-188501Y51333D01*
X-190500D01*
X-189167D02*
X-187834Y50000D01*
X-183835Y53999D02*
X-186501D01*
Y51999D01*
X-185168Y52666D01*
X-184502D01*
X-183835Y51999D01*
Y50666D01*
X-184502Y50000D01*
X-185835D01*
X-186501Y50666D01*
X-220500Y50000D02*
Y53999D01*
X-218501D01*
X-217834Y53332D01*
Y51999D01*
X-218501Y51333D01*
X-220500D01*
X-219167D02*
X-217834Y50000D01*
X-214502D02*
Y53999D01*
X-216501Y51999D01*
X-213836D01*
X-211000Y50000D02*
Y53999D01*
X-209001D01*
X-208334Y53332D01*
Y51999D01*
X-209001Y51333D01*
X-211000D01*
X-209667D02*
X-208334Y50000D01*
X-207001Y53332D02*
X-206335Y53999D01*
X-205002D01*
X-204335Y53332D01*
Y52666D01*
X-205002Y51999D01*
X-205668D01*
X-205002D01*
X-204335Y51333D01*
Y50666D01*
X-205002Y50000D01*
X-206335D01*
X-207001Y50666D01*
X-39000Y323000D02*
X-42999D01*
Y324999D01*
X-42332Y325666D01*
X-40999D01*
X-40333Y324999D01*
Y323000D01*
Y324333D02*
X-39000Y325666D01*
Y329664D02*
Y326999D01*
X-41666Y329664D01*
X-42332D01*
X-42999Y328998D01*
Y327665D01*
X-42332Y326999D01*
X-39000Y332000D02*
X-42999D01*
Y333999D01*
X-42332Y334666D01*
X-40999D01*
X-40333Y333999D01*
Y332000D01*
Y333333D02*
X-39000Y334666D01*
Y335999D02*
Y337332D01*
Y336665D01*
X-42999D01*
X-42332Y335999D01*
X-334500Y62499D02*
Y58500D01*
Y60499D01*
X-331834D01*
Y62499D01*
Y58500D01*
X-330501D02*
X-329168D01*
X-329835D01*
Y62499D01*
X-330501Y61832D01*
X-356000Y62499D02*
Y58500D01*
Y60499D01*
X-353334D01*
Y62499D01*
Y58500D01*
X-349336D02*
X-352001D01*
X-349336Y61166D01*
Y61832D01*
X-350002Y62499D01*
X-351335D01*
X-352001Y61832D01*
X-268000Y67999D02*
Y64000D01*
X-266001D01*
X-265334Y64666D01*
Y67332D01*
X-266001Y67999D01*
X-268000D01*
X-264001Y64000D02*
X-262668D01*
X-263335D01*
Y67999D01*
X-264001Y67332D01*
X-269500Y47999D02*
Y44000D01*
X-267501D01*
X-266834Y44666D01*
Y47332D01*
X-267501Y47999D01*
X-269500D01*
X-262836Y44000D02*
X-265501D01*
X-262836Y46666D01*
Y47332D01*
X-263502Y47999D01*
X-264835D01*
X-265501Y47332D01*
X-249500Y47499D02*
Y43500D01*
X-247501D01*
X-246834Y44166D01*
Y46832D01*
X-247501Y47499D01*
X-249500D01*
X-245501Y46832D02*
X-244835Y47499D01*
X-243502D01*
X-242835Y46832D01*
Y46166D01*
X-243502Y45499D01*
X-244168D01*
X-243502D01*
X-242835Y44833D01*
Y44166D01*
X-243502Y43500D01*
X-244835D01*
X-245501Y44166D01*
X-309000Y237499D02*
Y233500D01*
Y235499D01*
X-306334D01*
Y237499D01*
Y233500D01*
X-303002D02*
Y237499D01*
X-305001Y235499D01*
X-302336D01*
X-70500Y222499D02*
Y218500D01*
Y220499D01*
X-67834D01*
Y222499D01*
Y218500D01*
X-63836Y222499D02*
X-66501D01*
Y220499D01*
X-65168Y221166D01*
X-64502D01*
X-63836Y220499D01*
Y219166D01*
X-64502Y218500D01*
X-65835D01*
X-66501Y219166D01*
X-212500Y247999D02*
Y244000D01*
Y245999D01*
X-209834D01*
Y247999D01*
Y244000D01*
X-208501Y247999D02*
X-205836D01*
Y247332D01*
X-208501Y244666D01*
Y244000D01*
X-162500Y315999D02*
Y312000D01*
Y313999D01*
X-159834D01*
Y315999D01*
Y312000D01*
X-155835Y315999D02*
X-157168Y315332D01*
X-158501Y313999D01*
Y312666D01*
X-157835Y312000D01*
X-156502D01*
X-155835Y312666D01*
Y313333D01*
X-156502Y313999D01*
X-158501D01*
X-314500Y339499D02*
Y335500D01*
Y337499D01*
X-311834D01*
Y339499D01*
Y335500D01*
X-310501Y338832D02*
X-309835Y339499D01*
X-308502D01*
X-307836Y338832D01*
Y338166D01*
X-308502Y337499D01*
X-307836Y336833D01*
Y336166D01*
X-308502Y335500D01*
X-309835D01*
X-310501Y336166D01*
Y336833D01*
X-309835Y337499D01*
X-310501Y338166D01*
Y338832D01*
X-309835Y337499D02*
X-308502D01*
X-179000Y83999D02*
Y80000D01*
Y81999D01*
X-176334D01*
Y83999D01*
Y80000D01*
X-175001Y80666D02*
X-174335Y80000D01*
X-173002D01*
X-172336Y80666D01*
Y83332D01*
X-173002Y83999D01*
X-174335D01*
X-175001Y83332D01*
Y82666D01*
X-174335Y81999D01*
X-172336D01*
X-75500Y317999D02*
Y314000D01*
Y315999D01*
X-72834D01*
Y317999D01*
Y314000D01*
X-71501D02*
X-70168D01*
X-70835D01*
Y317999D01*
X-71501Y317332D01*
X-68169D02*
X-67503Y317999D01*
X-66170D01*
X-65503Y317332D01*
Y314666D01*
X-66170Y314000D01*
X-67503D01*
X-68169Y314666D01*
Y317332D01*
X-123500Y174499D02*
Y170500D01*
Y172499D01*
X-120834D01*
Y174499D01*
Y170500D01*
X-119501D02*
X-118168D01*
X-118835D01*
Y174499D01*
X-119501Y173832D01*
X-116169Y170500D02*
X-114836D01*
X-115503D01*
Y174499D01*
X-116169Y173832D01*
X-315834Y70332D02*
X-316501Y70999D01*
X-317834D01*
X-318500Y70332D01*
Y69666D01*
X-317834Y68999D01*
X-316501D01*
X-315834Y68333D01*
Y67666D01*
X-316501Y67000D01*
X-317834D01*
X-318500Y67666D01*
X-314501Y70999D02*
Y67000D01*
X-313168Y68333D01*
X-311836Y67000D01*
Y70999D01*
X-310503Y67000D02*
X-309170D01*
X-309836D01*
Y70999D01*
X-310503Y70332D01*
X-247500Y65500D02*
Y69499D01*
X-245501D01*
X-244834Y68832D01*
Y67499D01*
X-245501Y66833D01*
X-247500D01*
X-243501Y69499D02*
Y65500D01*
X-241502D01*
X-240835Y66166D01*
Y66833D01*
X-241502Y67499D01*
X-243501D01*
X-241502D01*
X-240835Y68166D01*
Y68832D01*
X-241502Y69499D01*
X-243501D01*
X-239503Y65500D02*
X-238170D01*
X-238836D01*
Y69499D01*
X-239503Y68832D01*
X-341500Y35499D02*
Y31500D01*
Y33499D01*
X-338834D01*
Y35499D01*
Y31500D01*
X-337501Y34832D02*
X-336835Y35499D01*
X-335502D01*
X-334836Y34832D01*
Y34166D01*
X-335502Y33499D01*
X-336168D01*
X-335502D01*
X-334836Y32833D01*
Y32166D01*
X-335502Y31500D01*
X-336835D01*
X-337501Y32166D01*
X-96832Y335666D02*
X-97499Y334999D01*
Y333666D01*
X-96832Y333000D01*
X-94166D01*
X-93500Y333666D01*
Y334999D01*
X-94166Y335666D01*
X-96832Y336999D02*
X-97499Y337665D01*
Y338998D01*
X-96832Y339665D01*
X-96166D01*
X-95499Y338998D01*
Y338332D01*
Y338998D01*
X-94833Y339665D01*
X-94166D01*
X-93500Y338998D01*
Y337665D01*
X-94166Y336999D01*
X-61832Y341166D02*
X-62499Y340499D01*
Y339166D01*
X-61832Y338500D01*
X-59166D01*
X-58500Y339166D01*
Y340499D01*
X-59166Y341166D01*
X-62499Y345164D02*
X-61832Y343832D01*
X-60499Y342499D01*
X-59166D01*
X-58500Y343165D01*
Y344498D01*
X-59166Y345164D01*
X-59833D01*
X-60499Y344498D01*
Y342499D01*
X-123000Y338500D02*
Y342499D01*
X-121001D01*
X-120334Y341832D01*
Y340499D01*
X-121001Y339833D01*
X-123000D01*
X-121667D02*
X-120334Y338500D01*
X-119001Y339166D02*
X-118335Y338500D01*
X-117002D01*
X-116335Y339166D01*
Y341832D01*
X-117002Y342499D01*
X-118335D01*
X-119001Y341832D01*
Y341166D01*
X-118335Y340499D01*
X-116335D01*
X-105000Y342000D02*
Y338001D01*
X-106999D01*
X-107666Y338668D01*
Y340001D01*
X-106999Y340667D01*
X-105000D01*
X-106333D02*
X-107666Y342000D01*
X-108999D02*
X-110332D01*
X-109665D01*
Y338001D01*
X-108999Y338668D01*
X-112331D02*
X-112997Y338001D01*
X-114330D01*
X-114997Y338668D01*
Y341334D01*
X-114330Y342000D01*
X-112997D01*
X-112331Y341334D01*
Y338668D01*
X-39000Y338500D02*
X-42999D01*
Y340499D01*
X-42332Y341166D01*
X-40999D01*
X-40333Y340499D01*
Y338500D01*
Y339833D02*
X-39000Y341166D01*
Y342499D02*
Y343832D01*
Y343165D01*
X-42999D01*
X-42332Y342499D01*
X-39000Y345831D02*
Y347164D01*
Y346497D01*
X-42999D01*
X-42332Y345831D01*
X-64000Y330999D02*
Y327666D01*
X-63334Y327000D01*
X-62001D01*
X-61334Y327666D01*
Y330999D01*
X-60001Y327000D02*
X-58668D01*
X-59335D01*
Y330999D01*
X-60001Y330332D01*
X-93500Y346999D02*
Y343000D01*
Y344999D01*
X-90834D01*
Y346999D01*
Y343000D01*
X-89501D02*
X-88168D01*
X-88835D01*
Y346999D01*
X-89501Y346332D01*
X-83503Y343000D02*
X-86169D01*
X-83503Y345666D01*
Y346332D01*
X-84170Y346999D01*
X-85503D01*
X-86169Y346332D01*
X-316834Y95832D02*
X-317501Y96499D01*
X-318834D01*
X-319500Y95832D01*
Y95166D01*
X-318834Y94499D01*
X-317501D01*
X-316834Y93833D01*
Y93166D01*
X-317501Y92500D01*
X-318834D01*
X-319500Y93166D01*
X-315501Y96499D02*
Y92500D01*
X-314168Y93833D01*
X-312836Y92500D01*
Y96499D01*
X-308837Y92500D02*
X-311503D01*
X-308837Y95166D01*
Y95832D01*
X-309503Y96499D01*
X-310836D01*
X-311503Y95832D01*
X-64000Y280498D02*
Y275500D01*
X-60668D01*
X-59002Y279665D02*
X-58169Y280498D01*
X-56502D01*
X-55669Y279665D01*
Y278832D01*
X-56502Y277999D01*
X-57336D01*
X-56502D01*
X-55669Y277166D01*
Y276333D01*
X-56502Y275500D01*
X-58169D01*
X-59002Y276333D01*
X-50671Y279665D02*
X-51504Y280498D01*
X-53170D01*
X-54003Y279665D01*
Y276333D01*
X-53170Y275500D01*
X-51504D01*
X-50671Y276333D01*
Y277999D01*
X-52337D01*
X-49005Y280498D02*
Y275500D01*
X-46506D01*
X-45673Y276333D01*
Y279665D01*
X-46506Y280498D01*
X-49005D01*
X-40674Y275500D02*
X-44006D01*
X-40674Y278832D01*
Y279665D01*
X-41507Y280498D01*
X-43173D01*
X-44006Y279665D01*
X-39008D02*
X-38175Y280498D01*
X-36509D01*
X-35676Y279665D01*
Y276333D01*
X-36509Y275500D01*
X-38175D01*
X-39008Y276333D01*
Y279665D01*
X-34010Y280498D02*
Y275500D01*
Y277999D01*
X-30678D01*
Y280498D01*
Y275500D01*
X-173000Y67498D02*
Y62500D01*
Y64999D01*
X-169668D01*
Y67498D01*
Y62500D01*
X-168002D02*
Y67498D01*
X-166335Y65832D01*
X-164669Y67498D01*
Y62500D01*
X-159671Y66665D02*
X-160504Y67498D01*
X-162170D01*
X-163003Y66665D01*
Y63333D01*
X-162170Y62500D01*
X-160504D01*
X-159671Y63333D01*
X-154673Y67498D02*
X-158005D01*
Y64999D01*
X-156339Y65832D01*
X-155506D01*
X-154673Y64999D01*
Y63333D01*
X-155506Y62500D01*
X-157172D01*
X-158005Y63333D01*
X-153006Y66665D02*
X-152173Y67498D01*
X-150507D01*
X-149674Y66665D01*
Y65832D01*
X-150507Y64999D01*
X-149674Y64166D01*
Y63333D01*
X-150507Y62500D01*
X-152173D01*
X-153006Y63333D01*
Y64166D01*
X-152173Y64999D01*
X-153006Y65832D01*
Y66665D01*
X-152173Y64999D02*
X-150507D01*
X-148008Y66665D02*
X-147175Y67498D01*
X-145509D01*
X-144676Y66665D01*
Y65832D01*
X-145509Y64999D01*
X-144676Y64166D01*
Y63333D01*
X-145509Y62500D01*
X-147175D01*
X-148008Y63333D01*
Y64166D01*
X-147175Y64999D01*
X-148008Y65832D01*
Y66665D01*
X-147175Y64999D02*
X-145509D01*
X-143010Y66665D02*
X-142177Y67498D01*
X-140510D01*
X-139678Y66665D01*
Y65832D01*
X-140510Y64999D01*
X-141344D01*
X-140510D01*
X-139678Y64166D01*
Y63333D01*
X-140510Y62500D01*
X-142177D01*
X-143010Y63333D01*
X-138011Y67498D02*
Y62500D01*
X-134679D01*
X-183000Y213500D02*
Y216832D01*
X-181334Y218498D01*
X-179668Y216832D01*
Y213500D01*
Y215999D01*
X-183000D01*
X-178002Y216832D02*
Y213500D01*
Y215166D01*
X-177169Y215999D01*
X-176336Y216832D01*
X-175502D01*
X-169671Y218498D02*
Y213500D01*
X-172170D01*
X-173003Y214333D01*
Y215999D01*
X-172170Y216832D01*
X-169671D01*
X-168005D02*
Y214333D01*
X-167172Y213500D01*
X-164673D01*
Y216832D01*
X-163006Y213500D02*
X-161340D01*
X-162173D01*
Y216832D01*
X-163006D01*
X-158841Y213500D02*
Y216832D01*
X-156342D01*
X-155509Y215999D01*
Y213500D01*
X-153010D02*
X-151344D01*
X-150511Y214333D01*
Y215999D01*
X-151344Y216832D01*
X-153010D01*
X-153843Y215999D01*
Y214333D01*
X-153010Y213500D01*
X-143846D02*
Y218498D01*
X-141347D01*
X-140514Y217665D01*
Y215999D01*
X-141347Y215166D01*
X-143846D01*
X-138848Y216832D02*
Y213500D01*
Y215166D01*
X-138015Y215999D01*
X-137181Y216832D01*
X-136348D01*
X-133016Y213500D02*
X-131350D01*
X-130517Y214333D01*
Y215999D01*
X-131350Y216832D01*
X-133016D01*
X-133849Y215999D01*
Y214333D01*
X-133016Y213500D01*
X-123853D02*
Y218498D01*
X-122186Y216832D01*
X-120520Y218498D01*
Y213500D01*
X-118854D02*
X-117188D01*
X-118021D01*
Y216832D01*
X-118854D01*
X-114689Y213500D02*
Y216832D01*
X-112190D01*
X-111356Y215999D01*
Y213500D01*
X-109690D02*
X-108024D01*
X-108857D01*
Y216832D01*
X-109690D01*
X-286000Y216000D02*
Y219332D01*
X-284334Y220998D01*
X-282668Y219332D01*
Y216000D01*
Y218499D01*
X-286000D01*
X-281002Y220998D02*
Y216000D01*
X-278502D01*
X-277669Y216833D01*
Y220165D01*
X-278502Y220998D01*
X-281002D01*
X-276003D02*
X-272671Y216000D01*
Y220998D02*
X-276003Y216000D01*
X-271005Y220998D02*
Y216000D01*
X-267673D01*
X-266006Y220165D02*
X-265173Y220998D01*
X-263507D01*
X-262674Y220165D01*
Y219332D01*
X-263507Y218499D01*
X-264340D01*
X-263507D01*
X-262674Y217666D01*
Y216833D01*
X-263507Y216000D01*
X-265173D01*
X-266006Y216833D01*
X-258509Y216000D02*
Y220998D01*
X-261008Y218499D01*
X-257676D01*
X-252677Y220998D02*
X-256010D01*
Y218499D01*
X-254344Y219332D01*
X-253510D01*
X-252677Y218499D01*
Y216833D01*
X-253510Y216000D01*
X-255177D01*
X-256010Y216833D01*
X-137500Y294498D02*
Y289500D01*
X-135001D01*
X-134168Y290333D01*
Y291166D01*
X-135001Y291999D01*
X-137500D01*
X-135001D01*
X-134168Y292832D01*
Y293665D01*
X-135001Y294498D01*
X-137500D01*
X-132502Y289500D02*
Y294498D01*
X-129169Y289500D01*
Y294498D01*
X-125004D02*
X-126670D01*
X-127503Y293665D01*
Y290333D01*
X-126670Y289500D01*
X-125004D01*
X-124171Y290333D01*
Y293665D01*
X-125004Y294498D01*
X-122505Y293665D02*
X-121672Y294498D01*
X-120006D01*
X-119173Y293665D01*
Y290333D01*
X-120006Y289500D01*
X-121672D01*
X-122505Y290333D01*
Y293665D01*
X-114174Y294498D02*
X-117507D01*
Y291999D01*
X-115840Y292832D01*
X-115007D01*
X-114174Y291999D01*
Y290333D01*
X-115007Y289500D01*
X-116673D01*
X-117507Y290333D01*
X-109176Y294498D02*
X-112508D01*
Y291999D01*
X-110842Y292832D01*
X-110009D01*
X-109176Y291999D01*
Y290333D01*
X-110009Y289500D01*
X-111675D01*
X-112508Y290333D01*
X-248000Y297000D02*
Y301998D01*
X-245501D01*
X-244668Y301165D01*
Y299499D01*
X-245501Y298666D01*
X-248000D01*
X-246334D02*
X-244668Y297000D01*
X-243002Y301998D02*
X-239669D01*
X-241336D01*
Y297000D01*
X-234671Y301165D02*
X-235504Y301998D01*
X-237170D01*
X-238003Y301165D01*
Y297833D01*
X-237170Y297000D01*
X-235504D01*
X-234671Y297833D01*
X-254000Y18223D02*
Y14287D01*
X-253213Y13500D01*
X-251639D01*
X-250851Y14287D01*
Y18223D01*
X-249277Y13500D02*
Y18223D01*
X-246129Y13500D01*
Y18223D01*
X-241406Y17436D02*
X-242193Y18223D01*
X-243767D01*
X-244554Y17436D01*
Y16649D01*
X-243767Y15861D01*
X-242193D01*
X-241406Y15074D01*
Y14287D01*
X-242193Y13500D01*
X-243767D01*
X-244554Y14287D01*
X-239831Y18223D02*
Y13500D01*
X-238257Y15074D01*
X-236683Y13500D01*
Y18223D01*
X-227237Y17436D02*
X-228024Y18223D01*
X-229598D01*
X-230386Y17436D01*
Y16649D01*
X-229598Y15861D01*
X-228024D01*
X-227237Y15074D01*
Y14287D01*
X-228024Y13500D01*
X-229598D01*
X-230386Y14287D01*
X-225663Y18223D02*
X-222514D01*
X-224088D01*
Y13500D01*
X-220940Y18223D02*
Y14287D01*
X-220153Y13500D01*
X-218578D01*
X-217791Y14287D01*
Y18223D01*
X-216217D02*
Y13500D01*
X-213856D01*
X-213068Y14287D01*
Y17436D01*
X-213856Y18223D01*
X-216217D01*
X-208346D02*
X-211494D01*
Y13500D01*
X-208346D01*
X-211494Y15861D02*
X-209920D01*
X-206771Y13500D02*
Y18223D01*
X-203623Y13500D01*
Y18223D01*
X-202048D02*
X-198900D01*
X-200474D01*
Y13500D01*
X-189454Y17436D02*
X-190241Y18223D01*
X-191815D01*
X-192603Y17436D01*
Y16649D01*
X-191815Y15861D01*
X-190241D01*
X-189454Y15074D01*
Y14287D01*
X-190241Y13500D01*
X-191815D01*
X-192603Y14287D01*
X-187880Y13500D02*
Y18223D01*
X-185518D01*
X-184731Y17436D01*
Y15861D01*
X-185518Y15074D01*
X-187880D01*
X-183157Y13500D02*
Y16649D01*
X-181582Y18223D01*
X-180008Y16649D01*
Y13500D01*
Y15861D01*
X-183157D01*
X-175285Y17436D02*
X-176073Y18223D01*
X-177647D01*
X-178434Y17436D01*
Y14287D01*
X-177647Y13500D01*
X-176073D01*
X-175285Y14287D01*
X-170562Y18223D02*
X-173711D01*
Y13500D01*
X-170562D01*
X-173711Y15861D02*
X-172137D01*
X-164265Y13500D02*
Y18223D01*
X-161904D01*
X-161117Y17436D01*
Y15861D01*
X-161904Y15074D01*
X-164265D01*
X-159542Y13500D02*
Y18223D01*
X-157181D01*
X-156394Y17436D01*
Y15861D01*
X-157181Y15074D01*
X-159542D01*
X-157968D02*
X-156394Y13500D01*
X-152458Y18223D02*
X-154032D01*
X-154820Y17436D01*
Y14287D01*
X-154032Y13500D01*
X-152458D01*
X-151671Y14287D01*
Y17436D01*
X-152458Y18223D01*
X-146948D02*
X-148522D01*
X-147735D01*
Y14287D01*
X-148522Y13500D01*
X-149310D01*
X-150097Y14287D01*
X-142225Y18223D02*
X-145374D01*
Y13500D01*
X-142225D01*
X-145374Y15861D02*
X-143799D01*
X-137502Y17436D02*
X-138289Y18223D01*
X-139864D01*
X-140651Y17436D01*
Y14287D01*
X-139864Y13500D01*
X-138289D01*
X-137502Y14287D01*
X-135928Y18223D02*
X-132779D01*
X-134354D01*
Y13500D01*
X-287832Y12166D02*
X-288499Y11499D01*
Y10166D01*
X-287832Y9500D01*
X-285166D01*
X-284500Y10166D01*
Y11499D01*
X-285166Y12166D01*
X-286499D01*
Y10833D01*
X-284500Y13499D02*
X-288499D01*
X-284500Y16164D01*
X-288499D01*
Y17497D02*
X-284500D01*
Y19497D01*
X-285166Y20163D01*
X-287832D01*
X-288499Y19497D01*
Y17497D01*
X-322499Y304166D02*
Y301500D01*
X-320499D01*
X-321166Y302833D01*
Y303499D01*
X-320499Y304166D01*
X-319166D01*
X-318500Y303499D01*
Y302166D01*
X-319166Y301500D01*
X-322499Y305499D02*
X-319833D01*
X-318500Y306832D01*
X-319833Y308165D01*
X-322499D01*
X-365168Y197334D02*
X-364501Y198001D01*
Y199334D01*
X-365168Y200000D01*
X-367834D01*
X-368500Y199334D01*
Y198001D01*
X-367834Y197334D01*
X-366501D01*
Y198667D01*
X-368500Y196001D02*
X-364501D01*
X-368500Y193335D01*
X-364501D01*
Y192003D02*
X-368500D01*
Y190003D01*
X-367834Y189337D01*
X-365168D01*
X-364501Y190003D01*
Y192003D01*
X-316001Y51500D02*
X-318000Y53499D01*
X-316001Y55499D01*
X-312002D02*
X-313335D01*
X-314001Y54832D01*
Y52166D01*
X-313335Y51500D01*
X-312002D01*
X-311335Y52166D01*
Y54832D01*
X-312002Y55499D01*
X-307337D02*
X-310003D01*
Y53499D01*
X-308670D01*
X-310003D01*
Y51500D01*
X-303338Y55499D02*
X-306004D01*
Y53499D01*
X-304671D01*
X-306004D01*
Y51500D01*
X-302005Y53499D02*
X-299339D01*
X-296007Y55499D02*
X-297340D01*
X-298006Y54832D01*
Y52166D01*
X-297340Y51500D01*
X-296007D01*
X-295341Y52166D01*
Y54832D01*
X-296007Y55499D01*
X-294008Y51500D02*
Y55499D01*
X-291342Y51500D01*
Y55499D01*
X-290009Y51500D02*
X-288010Y53499D01*
X-290009Y55499D01*
D27*
X-68276Y337791D02*
G03*
X-68276Y337791I-492J0D01*
G01*
D28*
X-60697Y334150D02*
G03*
X-60697Y334150I-787J0D01*
G01*
D29*
X-83000Y336000D02*
X-73000D01*
X-83000Y326000D02*
X-73000D01*
X-83000Y346000D02*
X-73000Y346000D01*
Y326000D02*
Y346000D01*
X-83000Y326000D02*
Y346000D01*
D30*
X-233500Y85500D02*
X-233500Y92500D01*
X-247500Y85500D02*
Y92500D01*
X-233500Y92500D01*
X-247500Y85500D02*
X-233500D01*
X-256000Y100500D02*
X-249000Y100500D01*
X-256000Y86500D02*
X-249000D01*
X-256000Y100500D02*
X-256000Y86500D01*
X-249000D02*
Y100500D01*
X-204000Y56500D02*
Y70500D01*
X-211000Y70500D02*
X-211000Y56500D01*
X-204000D01*
X-211000Y70500D02*
X-204000Y70500D01*
X-201000Y56500D02*
X-194000Y56500D01*
X-201000Y70500D02*
X-194000D01*
X-194000Y56500D01*
X-201000Y56500D02*
Y70500D01*
X-191000Y56500D02*
X-184000Y56500D01*
X-191000Y70500D02*
X-184000D01*
X-184000Y56500D01*
X-191000Y56500D02*
Y70500D01*
X-221000Y56500D02*
X-214000Y56500D01*
X-221000Y70500D02*
X-214000D01*
X-214000Y56500D01*
X-221000Y56500D02*
Y70500D01*
X-204000Y74500D02*
Y88500D01*
X-211000Y88500D02*
X-211000Y74500D01*
X-204000D01*
X-211000Y88500D02*
X-204000Y88500D01*
X-214000Y74500D02*
Y88500D01*
X-221000Y88500D02*
X-221000Y74500D01*
X-214000D01*
X-221000Y88500D02*
X-214000Y88500D01*
X-341000Y330000D02*
X-334000Y330000D01*
X-341000Y316000D02*
X-334000D01*
X-341000Y330000D02*
X-341000Y316000D01*
X-334000D02*
Y330000D01*
X-331000Y330000D02*
X-324000Y330000D01*
X-331000Y316000D02*
X-324000D01*
X-331000Y330000D02*
X-331000Y316000D01*
X-324000D02*
Y330000D01*
X-102500Y340000D02*
X-88500D01*
X-102500Y333000D02*
X-88500Y333000D01*
Y340000D01*
X-102500Y333000D02*
X-102500Y340000D01*
X-123500Y333000D02*
X-116500Y333000D01*
X-123500Y347000D02*
X-116500D01*
X-116500Y333000D01*
X-123500Y333000D02*
Y347000D01*
X-113500Y333000D02*
X-106500Y333000D01*
X-113500Y347000D02*
X-106500D01*
X-106500Y333000D01*
X-113500Y333000D02*
Y347000D01*
X-67500Y345500D02*
X-53500D01*
X-67500Y338500D02*
X-53500Y338500D01*
Y345500D01*
X-67500Y338500D02*
X-67500Y345500D01*
X-33500Y338500D02*
X-33500Y345500D01*
X-47500Y338500D02*
Y345500D01*
X-33500Y345500D01*
X-47500Y338500D02*
X-33500D01*
X-47500Y329500D02*
X-33500D01*
X-47500Y322500D02*
X-33500Y322500D01*
Y329500D01*
X-47500Y322500D02*
X-47500Y329500D01*
Y337500D02*
X-33500D01*
X-47500Y330500D02*
X-33500Y330500D01*
Y337500D01*
X-47500Y330500D02*
X-47500Y337500D01*
X-335500Y48682D02*
Y46016D01*
X-338166Y48682D01*
X-338832D01*
X-339499Y48015D01*
Y46682D01*
X-338832Y46016D01*
X-325500Y47016D02*
Y48349D01*
Y47682D01*
X-329499D01*
X-328832Y47016D01*
X-329999Y315181D02*
Y312516D01*
X-327999D01*
X-328666Y313849D01*
Y314515D01*
X-327999Y315181D01*
X-326666D01*
X-326000Y314515D01*
Y313182D01*
X-326666Y312516D01*
X-326000Y316514D02*
Y317847D01*
Y317181D01*
X-329999D01*
X-329332Y316514D01*
X-339499Y314682D02*
Y312016D01*
X-337499D01*
X-338166Y313349D01*
Y314015D01*
X-337499Y314682D01*
X-336166D01*
X-335500Y314015D01*
Y312682D01*
X-336166Y312016D01*
X-335500Y318680D02*
Y316014D01*
X-338166Y318680D01*
X-338832D01*
X-339499Y318014D01*
Y316681D01*
X-338832Y316014D01*
X-355500Y48682D02*
Y46016D01*
X-358166Y48682D01*
X-358832D01*
X-359499Y48015D01*
Y46682D01*
X-358832Y46016D01*
X-345500Y47016D02*
Y48349D01*
Y47682D01*
X-349499D01*
X-348832Y47016D01*
X-349999Y315181D02*
Y312516D01*
X-347999D01*
X-348666Y313849D01*
Y314515D01*
X-347999Y315181D01*
X-346666D01*
X-346000Y314515D01*
Y313182D01*
X-346666Y312516D01*
X-346000Y316514D02*
Y317847D01*
Y317181D01*
X-349999D01*
X-349332Y316514D01*
X-359499Y314682D02*
Y312016D01*
X-357499D01*
X-358166Y313349D01*
Y314015D01*
X-357499Y314682D01*
X-356166D01*
X-355500Y314015D01*
Y312682D01*
X-356166Y312016D01*
X-355500Y318680D02*
Y316014D01*
X-358166Y318680D01*
X-358832D01*
X-359499Y318014D01*
Y316681D01*
X-358832Y316014D01*
D31*
X-282500Y37500D02*
Y47500D01*
X-342500D02*
X-282500D01*
X-342500Y37500D02*
X-282500D01*
X-342500D02*
Y47500D01*
X-341000Y311016D02*
X-324500D01*
X-340500Y50016D02*
X-324500D01*
X-361000Y311016D02*
X-344500D01*
X-360500Y50016D02*
X-344500D01*
X-64634Y324701D02*
Y337299D01*
X-56366Y324701D02*
Y337299D01*
X-64634D02*
X-56366D01*
X-64634Y324701D02*
X-56366D01*
D32*
X-78000Y341019D02*
D03*
M02*
