M48
;Layer_Color=9474304
;FILE_FORMAT=2:5
INCH,TZ
;TYPE=PLATED
T1F00S00C0.02000
T2F00S00C0.02362
T3F00S00C0.03000
T4F00S00C0.03500
T5F00S00C0.03937
T6F00S00C0.04000
T7F00S00C0.12500
%
T01
X-365400Y30000
Y40000
X-357400Y44500
X-349400Y40000
Y30000
X-357400Y25500
X-28000Y25000
Y15000
X-20000Y10500
X-12000Y15000
Y25000
X-20000Y29500
X-25500Y161000
X-113000Y90500
X-109500Y86000
X-110000Y80500
X-135500Y77500
X-182500Y71500
X-193000
X-202899Y63359
X-212500Y71500
X-207500Y92000
X-217500
X-220000Y179500
X-227500Y175000
X-319000Y173000
X-313000Y157000
Y146500
X-302500Y112000
X-292500
X-284500Y119000
X-349500Y320000
Y330000
X-357500Y334500
X-365500Y330000
Y320000
X-357500Y315500
X-120000Y264000
X-110000Y258500
X-74000Y245500
X-68000Y228000
X-53000Y233500
Y290000
X-69000Y302500
X-74500Y324500
X-63610Y329610
X-68768Y337732
X-28000Y340000
Y330000
X-20000Y325500
X-12000Y330000
Y340000
X-20000Y344500
X-11500Y257000
T02
X-270000Y41732
Y50000
X-250000
Y41732
X-270000Y61732
Y70000
T03
X-257500Y57500
X-227500
Y77500
X-257500
X-292500Y81500
X-302500
X-312500
Y64700
X-302500
X-292500
T04
X-267500Y78000
Y88000
Y98000
T05
X-155000Y90500
X-145000
X-135000
X-165000
X-175000
T06
X-357500Y55000
X-347500
X-337500
X-327500
Y42500
X-337500
X-317500
X-307500
X-297500
X-287500
X-160000Y185000
X-150000
X-140000
X-130000
X-120000
X-110000
X-100000
X-90000
X-67500
X-57500
X-47500
X-37500
X-27500
X-17500
X-55000Y161000
X-65000
X-75000
X-85000
X-95000
X-105000
X-170000Y185000
X-180000
X-190000
X-200000
X-210000Y190000
Y200000
Y210000
X-327500Y205000
Y195000
Y185000
Y175000
Y165000
Y155000
Y145000
Y135000
Y125000
Y115000
Y105000
Y95000
Y85000
Y75000
Y65000
X-337500
Y75000
Y85000
Y95000
Y105000
Y115000
Y125000
Y135000
Y145000
Y155000
Y165000
Y175000
Y185000
Y195000
Y205000
Y215000
X-327500
X-347500
Y205000
Y195000
Y185000
Y175000
Y165000
Y155000
Y145000
Y135000
Y125000
Y115000
Y105000
Y95000
Y85000
Y75000
Y65000
X-357500
Y75000
Y85000
Y95000
Y105000
Y115000
Y125000
Y135000
Y145000
Y155000
Y165000
Y175000
Y185000
Y195000
Y205000
Y215000
Y225000
X-347500
X-337500
X-327500
Y235000
X-337500
Y245000
X-327500
Y255000
X-337500
Y265000
X-327500
Y275000
X-337500
Y285000
X-327500
Y295000
X-337500
Y305000
X-327500
X-347500
Y295000
Y285000
Y275000
Y265000
Y255000
Y245000
Y235000
X-357500
Y245000
Y255000
Y265000
Y275000
Y285000
Y295000
Y305000
X-312500Y302500
Y312500
Y292500
Y282500
X-306500Y244000
X-296500
X-286500
X-276500
X-266500
X-256500
X-246500
X-236500
X-210000Y240000
Y230000
Y220000
X-200000Y245000
X-190000
X-180000
X-170000
X-165500Y233500
X-172500Y272500
Y282500
Y292500
Y302500
Y312500
Y322500
X-160000Y322000
X-150000
X-140000
X-130000
X-120000
X-110000
X-100000
X-90000
X-78000Y331000
X-78000Y341000
X-20000Y315500
Y305500
Y295500
Y285500
Y275500
Y265500
Y255500
Y245500
Y235500
X-90000Y245000
X-100000
X-110000
X-120000
X-130000
X-140000
X-150000
X-160000
X-155500Y233500
T07
X-357500Y35000
X-20000Y20000
X-357500Y325000
X-20000Y335000
M30
