G04 Layer_Physical_Order=1*
G04 Layer_Color=255*
%FSLAX25Y25*%
%MOIN*%
G70*
G01*
G75*
%ADD10R,0.04000X0.05000*%
%ADD11R,0.05000X0.04000*%
%ADD12O,0.05118X0.01575*%
%ADD13C,0.03000*%
%ADD14C,0.04000*%
%ADD15C,0.01000*%
%ADD16C,0.08000*%
%ADD17C,0.07000*%
%ADD18R,0.07000X0.07000*%
%ADD19C,0.08000*%
%ADD20C,0.07874*%
%ADD21C,0.04724*%
%ADD22C,0.06000*%
%ADD23R,0.08000X0.08000*%
%ADD24R,0.08000X0.08000*%
%ADD25C,0.04000*%
%ADD26C,0.25000*%
D10*
X-236500Y89000D02*
D03*
X-244500D02*
D03*
X-91500Y336500D02*
D03*
X-99500D02*
D03*
X-56500Y342000D02*
D03*
X-64500D02*
D03*
X-36500D02*
D03*
X-44500D02*
D03*
X-36500Y326000D02*
D03*
X-44500D02*
D03*
X-36500Y334000D02*
D03*
X-44500D02*
D03*
D11*
X-252500Y97500D02*
D03*
Y89500D02*
D03*
X-207500Y59500D02*
D03*
Y67500D02*
D03*
X-197500Y59500D02*
D03*
Y67500D02*
D03*
X-187500Y59500D02*
D03*
Y67500D02*
D03*
X-217500Y59500D02*
D03*
Y67500D02*
D03*
X-207500Y77500D02*
D03*
Y85500D02*
D03*
X-217500Y77500D02*
D03*
Y85500D02*
D03*
X-337500Y327000D02*
D03*
Y319000D02*
D03*
X-327500Y327000D02*
D03*
Y319000D02*
D03*
X-120000Y336000D02*
D03*
Y344000D02*
D03*
X-110000Y336000D02*
D03*
Y344000D02*
D03*
D12*
X-68768Y334839D02*
D03*
Y332279D02*
D03*
Y329720D02*
D03*
Y327161D02*
D03*
X-52232Y334839D02*
D03*
Y332279D02*
D03*
Y329720D02*
D03*
Y327161D02*
D03*
D13*
X-236500Y77500D02*
X-227500D01*
X-236500D02*
Y89000D01*
X-252500Y89500D02*
X-245000D01*
X-267500Y88000D02*
X-254000D01*
X-252500Y89500D01*
X-257500Y77500D02*
X-236500D01*
X-207500D02*
X-135500D01*
X-217500Y67500D02*
Y77500D01*
X-207500D01*
X-227500D02*
X-217500D01*
X-271922D02*
X-257500D01*
X-290222Y59200D02*
X-271922Y77500D01*
X-297000Y59200D02*
X-290222D01*
X-302500Y64700D02*
X-297000Y59200D01*
X-327500Y305000D02*
Y319000D01*
X-337500Y305000D02*
Y319000D01*
Y327000D02*
X-327500D01*
X-355500D02*
X-337500D01*
X-313000Y157000D02*
X-292500Y136500D01*
Y112000D02*
Y136500D01*
X-313000Y146500D02*
X-302500Y136000D01*
X-78535Y331000D02*
X-78000D01*
X-84035Y336500D02*
X-78535Y331000D01*
X-91500Y336500D02*
X-84035D01*
X-135000Y90500D02*
X-113000D01*
X-172000Y243000D02*
X-170000Y245000D01*
X-172000Y230808D02*
Y243000D01*
Y230808D02*
X-166192Y225000D01*
X-65000Y161000D02*
Y169192D01*
X-166192Y225000D02*
X-120808D01*
X-65000Y169192D01*
X-141437Y96937D02*
X-135000Y90500D01*
X-268563Y96937D02*
X-141437D01*
X-297000Y76000D02*
X-289500D01*
X-268563Y96937D01*
X-284500Y119000D02*
Y138500D01*
X-319000Y173000D02*
X-284500Y138500D01*
X-302500Y81500D02*
X-297000Y76000D01*
X-302500Y112000D02*
Y136000D01*
X-55000Y161000D02*
Y182500D01*
X-57500Y185000D02*
X-55000Y182500D01*
Y161000D02*
X-26500D01*
X-74000Y245500D02*
X-20000D01*
D14*
X-278732Y53000D02*
X-270000Y61732D01*
X-300800Y53000D02*
X-278732D01*
X-312500Y64700D02*
X-300800Y53000D01*
X-99500Y322500D02*
Y336500D01*
X-100000Y322000D02*
X-99500Y322500D01*
X-90000Y322000D02*
Y335000D01*
X-91500Y336500D02*
X-90000Y335000D01*
D15*
X-197000Y67500D02*
X-193000Y71500D01*
X-187500Y67500D02*
X-186500D01*
X-182500Y71500D01*
X-197500Y67500D02*
X-197000D01*
X-165500Y233500D02*
X-160000Y228000D01*
X-207500Y85500D02*
Y92000D01*
X-217500Y85500D02*
Y92000D01*
X-327500Y265000D02*
X-322000Y259500D01*
Y251393D02*
Y259500D01*
Y251393D02*
X-250107Y179500D01*
X-227500Y175000D02*
X-150000D01*
X-248435D02*
X-227500D01*
X-220000Y179500D02*
X-155500D01*
X-250107D02*
X-220000D01*
X-155500D02*
X-150000Y185000D01*
Y175000D02*
X-140000Y185000D01*
X-327500Y254065D02*
X-248435Y175000D01*
X-327500Y42500D02*
X-326500D01*
X-220500Y62500D02*
X-217500Y59500D01*
X-262500Y62500D02*
X-220500D01*
X-270000Y70000D02*
X-262500Y62500D01*
X-208500Y67500D02*
X-207500D01*
X-212500Y71500D02*
X-208500Y67500D01*
X-206757Y59500D02*
X-202899Y63359D01*
X-227500Y57500D02*
X-222121D01*
X-220621Y56000D01*
X-211000D01*
X-207500Y59500D01*
X-270000Y50000D02*
X-266138Y46138D01*
X-200862D02*
X-187500Y59500D01*
X-266138Y46138D02*
X-200862D01*
X-250000Y50000D02*
X-207000D01*
X-197500Y59500D01*
X-56500Y342000D02*
X-52232Y337732D01*
X-51661Y334839D02*
X-44500Y342000D01*
X-52232Y334839D02*
Y337732D01*
Y332279D02*
Y334839D01*
Y329720D02*
X-48779D01*
X-44500Y334000D01*
X-45661Y327161D02*
X-44500Y326000D01*
X-36500D02*
Y334000D01*
Y342000D01*
X-120000Y344000D02*
X-110000D01*
Y322000D02*
Y336000D01*
X-120000Y322000D02*
Y336000D01*
X-110000Y322000D02*
X-104500Y316500D01*
X-82500D01*
X-71839Y327161D02*
X-68768D01*
X-120000Y322000D02*
X-112500Y314500D01*
X-76423D01*
X-69039Y329449D02*
X-68768Y329720D01*
X-63500Y327423D02*
Y329500D01*
X-68768Y329720D02*
X-63721D01*
X-55279D02*
X-52232D01*
X-63721D02*
X-63500Y329500D01*
X-52232Y327161D02*
X-45661D01*
X-82500Y316500D02*
X-74500Y324500D01*
X-71839Y327161D01*
X-20000Y265500D02*
X-11500Y257000D01*
X-76423Y314500D02*
X-63500Y327423D01*
X-110000Y344000D02*
X-81000D01*
X-78000Y341000D01*
X-68768Y334839D02*
Y337732D01*
X-64500Y342000D01*
X-160000Y228000D02*
X-68000D01*
X-53000Y326394D02*
X-52232Y327161D01*
X-155500Y233500D02*
X-53000D01*
X-110437Y85063D02*
X-109500Y86000D01*
X-149563Y85063D02*
X-110437D01*
X-155000Y90500D02*
X-149563Y85063D01*
X-110500Y81000D02*
X-110000Y80500D01*
X-155500Y81000D02*
X-110500D01*
X-165000Y90500D02*
X-155500Y81000D01*
X-53000Y290000D02*
Y326394D01*
X-172500Y282500D02*
X-55550D01*
X-49500Y288550D01*
Y313000D01*
X-36500Y326000D01*
X-306500Y244000D02*
X-286500Y264000D01*
X-120000D01*
X-296500Y244000D02*
X-282000Y258500D01*
X-110000D01*
X-69000Y302500D02*
Y316000D01*
X-55279Y329720D01*
X-172500Y302500D02*
X-69000D01*
X-170000Y290000D02*
X-53000D01*
X-172500Y292500D02*
X-170000Y290000D01*
X-71280Y332279D02*
X-68768D01*
X-78000Y339000D02*
X-71280Y332279D01*
X-78000Y339000D02*
Y341000D01*
D16*
X-357500Y195000D02*
X-347500D01*
D17*
X-78000Y331000D02*
D03*
X-267500Y78000D02*
D03*
Y88000D02*
D03*
Y98000D02*
D03*
D18*
X-78000Y341000D02*
D03*
D19*
X-37500Y185000D02*
D03*
X-47500D02*
D03*
X-17500D02*
D03*
X-27500D02*
D03*
X-57500D02*
D03*
X-67500D02*
D03*
X-20000Y265500D02*
D03*
Y255500D02*
D03*
Y315500D02*
D03*
Y305500D02*
D03*
Y235500D02*
D03*
Y245500D02*
D03*
Y295500D02*
D03*
Y285500D02*
D03*
Y275500D02*
D03*
X-65000Y161000D02*
D03*
X-55000D02*
D03*
X-75000D02*
D03*
X-85000D02*
D03*
X-95000D02*
D03*
X-105000D02*
D03*
X-120000Y245000D02*
D03*
X-110000D02*
D03*
X-130000D02*
D03*
X-90000D02*
D03*
X-100000D02*
D03*
X-150000D02*
D03*
X-140000D02*
D03*
X-160000D02*
D03*
X-155500Y233500D02*
D03*
X-165500D02*
D03*
X-90000Y185000D02*
D03*
X-100000D02*
D03*
X-110000D02*
D03*
X-120000D02*
D03*
X-150000D02*
D03*
X-160000D02*
D03*
X-130000D02*
D03*
X-140000D02*
D03*
X-190000Y245000D02*
D03*
X-170000D02*
D03*
X-180000D02*
D03*
X-200000D02*
D03*
X-210000Y240000D02*
D03*
Y220000D02*
D03*
Y230000D02*
D03*
X-190000Y185000D02*
D03*
X-180000D02*
D03*
X-200000D02*
D03*
X-170000D02*
D03*
X-210000Y210000D02*
D03*
Y190000D02*
D03*
Y200000D02*
D03*
X-266500Y244000D02*
D03*
X-256500D02*
D03*
X-306500D02*
D03*
X-296500D02*
D03*
X-236500D02*
D03*
X-246500D02*
D03*
X-286500D02*
D03*
X-276500D02*
D03*
X-100000Y322000D02*
D03*
X-90000D02*
D03*
X-130000D02*
D03*
X-110000D02*
D03*
X-120000D02*
D03*
X-140000D02*
D03*
X-150000D02*
D03*
X-160000D02*
D03*
X-172500Y322500D02*
D03*
Y312500D02*
D03*
Y302500D02*
D03*
Y272500D02*
D03*
Y292500D02*
D03*
Y282500D02*
D03*
X-312500Y312500D02*
D03*
Y302500D02*
D03*
Y292500D02*
D03*
Y282500D02*
D03*
X-307500Y42500D02*
D03*
X-297500D02*
D03*
X-317500D02*
D03*
X-327500D02*
D03*
X-337500D02*
D03*
Y55000D02*
D03*
X-327500Y65000D02*
D03*
X-337500D02*
D03*
X-327500Y75000D02*
D03*
X-337500D02*
D03*
X-327500Y85000D02*
D03*
X-337500D02*
D03*
X-327500Y95000D02*
D03*
X-337500D02*
D03*
X-327500Y105000D02*
D03*
X-337500D02*
D03*
X-327500Y115000D02*
D03*
X-337500D02*
D03*
X-327500Y125000D02*
D03*
X-337500D02*
D03*
X-327500Y135000D02*
D03*
X-337500D02*
D03*
X-327500Y145000D02*
D03*
X-337500D02*
D03*
X-327500Y155000D02*
D03*
X-337500D02*
D03*
X-327500Y165000D02*
D03*
X-337500D02*
D03*
X-327500Y175000D02*
D03*
X-337500D02*
D03*
X-327500Y185000D02*
D03*
X-337500D02*
D03*
X-327500Y195000D02*
D03*
X-337500D02*
D03*
X-327500Y205000D02*
D03*
X-337500D02*
D03*
X-327500Y215000D02*
D03*
X-337500D02*
D03*
X-327500Y225000D02*
D03*
X-337500D02*
D03*
X-327500Y235000D02*
D03*
X-337500D02*
D03*
X-327500Y245000D02*
D03*
X-337500D02*
D03*
X-327500Y255000D02*
D03*
X-337500D02*
D03*
X-327500Y265000D02*
D03*
X-337500D02*
D03*
X-327500Y275000D02*
D03*
X-337500D02*
D03*
X-327500Y285000D02*
D03*
X-337500D02*
D03*
X-327500Y295000D02*
D03*
X-337500D02*
D03*
Y305000D02*
D03*
X-327500D02*
D03*
X-357500Y55000D02*
D03*
X-347500Y65000D02*
D03*
X-357500D02*
D03*
X-347500Y75000D02*
D03*
X-357500D02*
D03*
X-347500Y85000D02*
D03*
X-357500D02*
D03*
X-347500Y95000D02*
D03*
X-357500D02*
D03*
X-347500Y105000D02*
D03*
X-357500D02*
D03*
X-347500Y115000D02*
D03*
X-357500D02*
D03*
X-347500Y125000D02*
D03*
X-357500D02*
D03*
X-347500Y135000D02*
D03*
X-357500D02*
D03*
X-347500Y145000D02*
D03*
X-357500D02*
D03*
X-347500Y155000D02*
D03*
X-357500D02*
D03*
X-347500Y165000D02*
D03*
X-357500D02*
D03*
X-347500Y175000D02*
D03*
X-357500D02*
D03*
X-347500Y185000D02*
D03*
X-357500D02*
D03*
X-347500Y195000D02*
D03*
X-357500D02*
D03*
X-347500Y205000D02*
D03*
X-357500D02*
D03*
X-347500Y215000D02*
D03*
X-357500D02*
D03*
X-347500Y225000D02*
D03*
X-357500D02*
D03*
X-347500Y235000D02*
D03*
X-357500D02*
D03*
X-347500Y245000D02*
D03*
X-357500D02*
D03*
X-347500Y255000D02*
D03*
X-357500D02*
D03*
X-347500Y265000D02*
D03*
X-357500D02*
D03*
X-347500Y275000D02*
D03*
X-357500D02*
D03*
X-347500Y285000D02*
D03*
X-357500D02*
D03*
X-347500Y295000D02*
D03*
X-357500D02*
D03*
Y305000D02*
D03*
X-347500D02*
D03*
D20*
X-175000Y90500D02*
D03*
X-165000D02*
D03*
X-155000D02*
D03*
X-145000D02*
D03*
X-135000D02*
D03*
D21*
X-270000Y70000D02*
D03*
Y61732D02*
D03*
X-250000Y50000D02*
D03*
Y41732D02*
D03*
X-270000Y50000D02*
D03*
Y41732D02*
D03*
D22*
X-227500Y77500D02*
D03*
Y57500D02*
D03*
X-257500Y77500D02*
D03*
Y57500D02*
D03*
X-292500Y64700D02*
D03*
X-302500D02*
D03*
X-312500D02*
D03*
X-292500Y81500D02*
D03*
X-302500D02*
D03*
X-312500D02*
D03*
D23*
X-287500Y42500D02*
D03*
D24*
X-327500Y55000D02*
D03*
X-347500D02*
D03*
D25*
X-193000Y71500D02*
D03*
X-20000Y29500D02*
D03*
Y10500D02*
D03*
X-28000Y25000D02*
D03*
Y15000D02*
D03*
X-12000Y25000D02*
D03*
Y15000D02*
D03*
X-20000Y344500D02*
D03*
Y325500D02*
D03*
X-28000Y340000D02*
D03*
Y330000D02*
D03*
X-12000Y340000D02*
D03*
Y330000D02*
D03*
X-357500Y334500D02*
D03*
Y315500D02*
D03*
X-365500Y330000D02*
D03*
Y320000D02*
D03*
X-349500Y330000D02*
D03*
Y320000D02*
D03*
X-357400Y44500D02*
D03*
Y25500D02*
D03*
X-365400Y40000D02*
D03*
Y30000D02*
D03*
X-349400Y40000D02*
D03*
Y30000D02*
D03*
X-207500Y92000D02*
D03*
X-217500D02*
D03*
X-319000Y173000D02*
D03*
X-212500Y71500D02*
D03*
X-220000Y179500D02*
D03*
X-227500Y175000D02*
D03*
X-202899Y63359D02*
D03*
X-182500Y71500D02*
D03*
X-313000Y157000D02*
D03*
Y146500D02*
D03*
X-63610Y329610D02*
D03*
X-74500Y324500D02*
D03*
X-11500Y257000D02*
D03*
X-135500Y77500D02*
D03*
X-113000Y90500D02*
D03*
X-68000Y228000D02*
D03*
X-53000Y233500D02*
D03*
X-109500Y86000D02*
D03*
X-110000Y80500D02*
D03*
X-284500Y119000D02*
D03*
X-292500Y112000D02*
D03*
X-302500D02*
D03*
X-53000Y290000D02*
D03*
X-69000Y302500D02*
D03*
X-68768Y337732D02*
D03*
X-25500Y161000D02*
D03*
X-110000Y258500D02*
D03*
X-120000Y264000D02*
D03*
X-74000Y245500D02*
D03*
D26*
X-357500Y325000D02*
D03*
X-20000Y335000D02*
D03*
Y20000D02*
D03*
X-357500Y35000D02*
D03*
M02*
