G04 Layer_Physical_Order=2*
G04 Layer_Color=16711680*
%FSLAX25Y25*%
%MOIN*%
G70*
G01*
G75*
%ADD13C,0.03000*%
%ADD15C,0.01000*%
%ADD16C,0.08000*%
%ADD17C,0.07000*%
%ADD18R,0.07000X0.07000*%
%ADD19C,0.08000*%
%ADD20C,0.07874*%
%ADD21C,0.04724*%
%ADD22C,0.06000*%
%ADD23R,0.08000X0.08000*%
%ADD24R,0.08000X0.08000*%
%ADD25C,0.04000*%
%ADD26C,0.25000*%
G36*
X-17556Y347286D02*
X-15973Y346862D01*
X-14459Y346235D01*
X-13040Y345416D01*
X-11740Y344418D01*
X-10582Y343260D01*
X-9584Y341960D01*
X-8765Y340541D01*
X-8138Y339027D01*
X-7714Y337444D01*
X-7500Y335819D01*
Y335000D01*
Y20000D01*
Y19181D01*
X-7714Y17556D01*
X-8138Y15973D01*
X-8765Y14459D01*
X-9584Y13040D01*
X-10582Y11740D01*
X-11740Y10582D01*
X-13040Y9584D01*
X-14459Y8765D01*
X-15973Y8138D01*
X-17556Y7714D01*
X-19181Y7500D01*
X-330000D01*
X-345000Y22500D01*
X-358319D01*
X-359944Y22714D01*
X-361527Y23138D01*
X-363040Y23765D01*
X-364459Y24584D01*
X-365759Y25582D01*
X-366918Y26741D01*
X-367916Y28041D01*
X-368735Y29460D01*
X-369362Y30973D01*
X-369786Y32556D01*
X-370000Y34181D01*
Y35000D01*
Y325000D01*
Y325819D01*
X-369786Y327444D01*
X-369362Y329027D01*
X-368735Y330540D01*
X-367916Y331960D01*
X-366918Y333260D01*
X-365759Y334418D01*
X-364459Y335416D01*
X-363040Y336235D01*
X-361527Y336862D01*
X-359944Y337286D01*
X-358319Y337500D01*
X-345000D01*
X-335000Y347500D01*
X-19181D01*
X-17556Y347286D01*
D02*
G37*
%LPC*%
G36*
X-90000Y327043D02*
X-91305Y326871D01*
X-92522Y326367D01*
X-93566Y325566D01*
X-94367Y324522D01*
X-94729Y323648D01*
X-95271D01*
X-95632Y324522D01*
X-96434Y325566D01*
X-97478Y326367D01*
X-98695Y326871D01*
X-99500Y326977D01*
Y322000D01*
Y317023D01*
X-98695Y317129D01*
X-97478Y317633D01*
X-96434Y318434D01*
X-95632Y319478D01*
X-95271Y320352D01*
X-94729D01*
X-94367Y319478D01*
X-93566Y318434D01*
X-92522Y317633D01*
X-91305Y317129D01*
X-90000Y316957D01*
X-88695Y317129D01*
X-87478Y317633D01*
X-86434Y318434D01*
X-85632Y319478D01*
X-85129Y320695D01*
X-84957Y322000D01*
X-85129Y323305D01*
X-85632Y324522D01*
X-86434Y325566D01*
X-87478Y326367D01*
X-88695Y326871D01*
X-90000Y327043D01*
D02*
G37*
G36*
X-110000D02*
X-111305Y326871D01*
X-112522Y326367D01*
X-113566Y325566D01*
X-114367Y324522D01*
X-114729Y323648D01*
X-115271D01*
X-115632Y324522D01*
X-116434Y325566D01*
X-117478Y326367D01*
X-118695Y326871D01*
X-120000Y327043D01*
X-121305Y326871D01*
X-122522Y326367D01*
X-123566Y325566D01*
X-124367Y324522D01*
X-124729Y323648D01*
X-125271D01*
X-125633Y324522D01*
X-126434Y325566D01*
X-127478Y326367D01*
X-128695Y326871D01*
X-130000Y327043D01*
X-131305Y326871D01*
X-132522Y326367D01*
X-133566Y325566D01*
X-134368Y324522D01*
X-134729Y323648D01*
X-135271D01*
X-135633Y324522D01*
X-136434Y325566D01*
X-137478Y326367D01*
X-138695Y326871D01*
X-140000Y327043D01*
X-141305Y326871D01*
X-142522Y326367D01*
X-143566Y325566D01*
X-144368Y324522D01*
X-144729Y323648D01*
X-145271D01*
X-145633Y324522D01*
X-146434Y325566D01*
X-147478Y326367D01*
X-148695Y326871D01*
X-150000Y327043D01*
X-151305Y326871D01*
X-152522Y326367D01*
X-153566Y325566D01*
X-154367Y324522D01*
X-154729Y323648D01*
X-155271D01*
X-155632Y324522D01*
X-156434Y325566D01*
X-157478Y326367D01*
X-158695Y326871D01*
X-160000Y327043D01*
X-161305Y326871D01*
X-162522Y326367D01*
X-163566Y325566D01*
X-164367Y324522D01*
X-164871Y323305D01*
X-165043Y322000D01*
X-164871Y320695D01*
X-164367Y319478D01*
X-163566Y318434D01*
X-162522Y317633D01*
X-161305Y317129D01*
X-160000Y316957D01*
X-158695Y317129D01*
X-157478Y317633D01*
X-156434Y318434D01*
X-155632Y319478D01*
X-155271Y320352D01*
X-154729D01*
X-154367Y319478D01*
X-153566Y318434D01*
X-152522Y317633D01*
X-151305Y317129D01*
X-150000Y316957D01*
X-148695Y317129D01*
X-147478Y317633D01*
X-146434Y318434D01*
X-145633Y319478D01*
X-145271Y320352D01*
X-144729D01*
X-144368Y319478D01*
X-143566Y318434D01*
X-142522Y317633D01*
X-141305Y317129D01*
X-140000Y316957D01*
X-138695Y317129D01*
X-137478Y317633D01*
X-136434Y318434D01*
X-135633Y319478D01*
X-135271Y320352D01*
X-134729D01*
X-134368Y319478D01*
X-133566Y318434D01*
X-132522Y317633D01*
X-131305Y317129D01*
X-130000Y316957D01*
X-128695Y317129D01*
X-127478Y317633D01*
X-126434Y318434D01*
X-125633Y319478D01*
X-125271Y320352D01*
X-124729D01*
X-124367Y319478D01*
X-123566Y318434D01*
X-122522Y317633D01*
X-121529Y317221D01*
Y266608D01*
X-122140Y266140D01*
X-122620Y265513D01*
X-122923Y264783D01*
X-123026Y264000D01*
X-122923Y263217D01*
X-122620Y262487D01*
X-122140Y261860D01*
X-121513Y261380D01*
X-120783Y261077D01*
X-120000Y260974D01*
X-119217Y261077D01*
X-118487Y261380D01*
X-117860Y261860D01*
X-117379Y262487D01*
X-117077Y263217D01*
X-116974Y264000D01*
X-117077Y264783D01*
X-117379Y265513D01*
X-117860Y266140D01*
X-118471Y266608D01*
Y317221D01*
X-117478Y317633D01*
X-116434Y318434D01*
X-115632Y319478D01*
X-115271Y320352D01*
X-114729D01*
X-114367Y319478D01*
X-113566Y318434D01*
X-112522Y317633D01*
X-111529Y317221D01*
Y261108D01*
X-112140Y260640D01*
X-112620Y260013D01*
X-112923Y259283D01*
X-113026Y258500D01*
X-112923Y257717D01*
X-112620Y256987D01*
X-112140Y256360D01*
X-111513Y255879D01*
X-110783Y255577D01*
X-110000Y255474D01*
X-109217Y255577D01*
X-108487Y255879D01*
X-107860Y256360D01*
X-107379Y256987D01*
X-107077Y257717D01*
X-106974Y258500D01*
X-107077Y259283D01*
X-107379Y260013D01*
X-107860Y260640D01*
X-108471Y261108D01*
Y317221D01*
X-107478Y317633D01*
X-106434Y318434D01*
X-105632Y319478D01*
X-105271Y320352D01*
X-104729D01*
X-104367Y319478D01*
X-103566Y318434D01*
X-102522Y317633D01*
X-101305Y317129D01*
X-100500Y317023D01*
Y322000D01*
Y326977D01*
X-101305Y326871D01*
X-102522Y326367D01*
X-103566Y325566D01*
X-104367Y324522D01*
X-104729Y323648D01*
X-105271D01*
X-105632Y324522D01*
X-106434Y325566D01*
X-107478Y326367D01*
X-108695Y326871D01*
X-110000Y327043D01*
D02*
G37*
G36*
X-309808Y321549D02*
X-323500D01*
X-324476Y321355D01*
X-325302Y320802D01*
X-336229Y309876D01*
X-337500Y310043D01*
X-338805Y309871D01*
X-340022Y309367D01*
X-341066Y308566D01*
X-341867Y307522D01*
X-342229Y306648D01*
X-342771D01*
X-343132Y307522D01*
X-343934Y308566D01*
X-344978Y309367D01*
X-346195Y309871D01*
X-347500Y310043D01*
X-348805Y309871D01*
X-350022Y309367D01*
X-351066Y308566D01*
X-351868Y307522D01*
X-352229Y306648D01*
X-352771D01*
X-353133Y307522D01*
X-353934Y308566D01*
X-354978Y309367D01*
X-356195Y309871D01*
X-357500Y310043D01*
X-358805Y309871D01*
X-360022Y309367D01*
X-361066Y308566D01*
X-361867Y307522D01*
X-362371Y306305D01*
X-362543Y305000D01*
X-362371Y303695D01*
X-361867Y302478D01*
X-361066Y301434D01*
X-360022Y300633D01*
X-359148Y300271D01*
Y299729D01*
X-360022Y299367D01*
X-361066Y298566D01*
X-361867Y297522D01*
X-362371Y296305D01*
X-362543Y295000D01*
X-362371Y293695D01*
X-361867Y292478D01*
X-361066Y291434D01*
X-360022Y290633D01*
X-359148Y290271D01*
Y289729D01*
X-360022Y289368D01*
X-361066Y288566D01*
X-361867Y287522D01*
X-362371Y286305D01*
X-362543Y285000D01*
X-362371Y283695D01*
X-361867Y282478D01*
X-361066Y281434D01*
X-360022Y280632D01*
X-359148Y280271D01*
Y279729D01*
X-360022Y279367D01*
X-361066Y278566D01*
X-361867Y277522D01*
X-362371Y276305D01*
X-362543Y275000D01*
X-362371Y273695D01*
X-361867Y272478D01*
X-361066Y271434D01*
X-360022Y270633D01*
X-359148Y270271D01*
Y269729D01*
X-360022Y269368D01*
X-361066Y268566D01*
X-361867Y267522D01*
X-362371Y266305D01*
X-362543Y265000D01*
X-362371Y263695D01*
X-361867Y262478D01*
X-361066Y261434D01*
X-360022Y260632D01*
X-359148Y260271D01*
Y259729D01*
X-360022Y259367D01*
X-361066Y258566D01*
X-361867Y257522D01*
X-362371Y256305D01*
X-362543Y255000D01*
X-362371Y253695D01*
X-361867Y252478D01*
X-361066Y251434D01*
X-360022Y250633D01*
X-359148Y250271D01*
Y249729D01*
X-360022Y249367D01*
X-361066Y248566D01*
X-361867Y247522D01*
X-362371Y246305D01*
X-362543Y245000D01*
X-362371Y243695D01*
X-361867Y242478D01*
X-361066Y241434D01*
X-360022Y240633D01*
X-359148Y240271D01*
Y239729D01*
X-360022Y239368D01*
X-361066Y238566D01*
X-361867Y237522D01*
X-362371Y236305D01*
X-362543Y235000D01*
X-362371Y233695D01*
X-361867Y232478D01*
X-361066Y231434D01*
X-360022Y230632D01*
X-359148Y230271D01*
Y229729D01*
X-360022Y229367D01*
X-361066Y228566D01*
X-361867Y227522D01*
X-362371Y226305D01*
X-362543Y225000D01*
X-362371Y223695D01*
X-361867Y222478D01*
X-361066Y221434D01*
X-360022Y220633D01*
X-359148Y220271D01*
Y219729D01*
X-360022Y219368D01*
X-361066Y218566D01*
X-361867Y217522D01*
X-362371Y216305D01*
X-362543Y215000D01*
X-362371Y213695D01*
X-361867Y212478D01*
X-361066Y211434D01*
X-360022Y210632D01*
X-359148Y210271D01*
Y209729D01*
X-360022Y209367D01*
X-361066Y208566D01*
X-361867Y207522D01*
X-362371Y206305D01*
X-362543Y205000D01*
X-362371Y203695D01*
X-361867Y202478D01*
X-361066Y201434D01*
X-360022Y200633D01*
X-359148Y200271D01*
Y199729D01*
X-360022Y199367D01*
X-361066Y198566D01*
X-361867Y197522D01*
X-362371Y196305D01*
X-362477Y195500D01*
X-357500D01*
Y194500D01*
X-362477D01*
X-362371Y193695D01*
X-361867Y192478D01*
X-361066Y191434D01*
X-360022Y190632D01*
X-359148Y190271D01*
Y189729D01*
X-360022Y189367D01*
X-361066Y188566D01*
X-361867Y187522D01*
X-362371Y186305D01*
X-362543Y185000D01*
X-362371Y183695D01*
X-361867Y182478D01*
X-361066Y181434D01*
X-360022Y180632D01*
X-359148Y180271D01*
Y179729D01*
X-360022Y179367D01*
X-361066Y178566D01*
X-361867Y177522D01*
X-362371Y176305D01*
X-362543Y175000D01*
X-362371Y173695D01*
X-361867Y172478D01*
X-361066Y171434D01*
X-360022Y170633D01*
X-359148Y170271D01*
Y169729D01*
X-360022Y169368D01*
X-361066Y168566D01*
X-361867Y167522D01*
X-362371Y166305D01*
X-362543Y165000D01*
X-362371Y163695D01*
X-361867Y162478D01*
X-361066Y161434D01*
X-360022Y160633D01*
X-359148Y160271D01*
Y159729D01*
X-360022Y159368D01*
X-361066Y158566D01*
X-361867Y157522D01*
X-362371Y156305D01*
X-362543Y155000D01*
X-362371Y153695D01*
X-361867Y152478D01*
X-361066Y151434D01*
X-360022Y150633D01*
X-359148Y150271D01*
Y149729D01*
X-360022Y149367D01*
X-361066Y148566D01*
X-361867Y147522D01*
X-362371Y146305D01*
X-362543Y145000D01*
X-362371Y143695D01*
X-361867Y142478D01*
X-361066Y141434D01*
X-360022Y140632D01*
X-359148Y140271D01*
Y139729D01*
X-360022Y139367D01*
X-361066Y138566D01*
X-361867Y137522D01*
X-362371Y136305D01*
X-362543Y135000D01*
X-362371Y133695D01*
X-361867Y132478D01*
X-361066Y131434D01*
X-360022Y130632D01*
X-359148Y130271D01*
Y129729D01*
X-360022Y129367D01*
X-361066Y128566D01*
X-361867Y127522D01*
X-362371Y126305D01*
X-362543Y125000D01*
X-362371Y123695D01*
X-361867Y122478D01*
X-361066Y121434D01*
X-360022Y120633D01*
X-359148Y120271D01*
Y119729D01*
X-360022Y119368D01*
X-361066Y118566D01*
X-361867Y117522D01*
X-362371Y116305D01*
X-362543Y115000D01*
X-362371Y113695D01*
X-361867Y112478D01*
X-361066Y111434D01*
X-360022Y110633D01*
X-359148Y110271D01*
Y109729D01*
X-360022Y109368D01*
X-361066Y108566D01*
X-361867Y107522D01*
X-362371Y106305D01*
X-362543Y105000D01*
X-362371Y103695D01*
X-361867Y102478D01*
X-361066Y101434D01*
X-360022Y100633D01*
X-359148Y100271D01*
Y99729D01*
X-360022Y99367D01*
X-361066Y98566D01*
X-361867Y97522D01*
X-362371Y96305D01*
X-362543Y95000D01*
X-362371Y93695D01*
X-361867Y92478D01*
X-361066Y91434D01*
X-360022Y90632D01*
X-359148Y90271D01*
Y89729D01*
X-360022Y89368D01*
X-361066Y88566D01*
X-361867Y87522D01*
X-362371Y86305D01*
X-362543Y85000D01*
X-362371Y83695D01*
X-361867Y82478D01*
X-361066Y81434D01*
X-360022Y80633D01*
X-359148Y80271D01*
Y79729D01*
X-360022Y79368D01*
X-361066Y78566D01*
X-361867Y77522D01*
X-362371Y76305D01*
X-362543Y75000D01*
X-362371Y73695D01*
X-361867Y72478D01*
X-361066Y71434D01*
X-360022Y70632D01*
X-359148Y70271D01*
Y69729D01*
X-360022Y69367D01*
X-361066Y68566D01*
X-361867Y67522D01*
X-362371Y66305D01*
X-362543Y65000D01*
X-362371Y63695D01*
X-361867Y62478D01*
X-361066Y61434D01*
X-360022Y60632D01*
X-359148Y60271D01*
Y59729D01*
X-360022Y59368D01*
X-361066Y58566D01*
X-361867Y57522D01*
X-362371Y56305D01*
X-362543Y55000D01*
X-362371Y53695D01*
X-361867Y52478D01*
X-361066Y51434D01*
X-360022Y50633D01*
X-358805Y50129D01*
X-357500Y49957D01*
X-356195Y50129D01*
X-354978Y50633D01*
X-353934Y51434D01*
X-353133Y52478D01*
X-353000Y52798D01*
X-352500Y52699D01*
Y50000D01*
X-342500D01*
Y52699D01*
X-342000Y52798D01*
X-341867Y52478D01*
X-341066Y51434D01*
X-340022Y50633D01*
X-338805Y50129D01*
X-337500Y49957D01*
X-336195Y50129D01*
X-334978Y50633D01*
X-333934Y51434D01*
X-333133Y52478D01*
X-333000Y52798D01*
X-332500Y52699D01*
Y50000D01*
X-332500Y50000D01*
X-332500D01*
X-332627Y49536D01*
X-335203Y46960D01*
X-336195Y47371D01*
X-337500Y47543D01*
X-338805Y47371D01*
X-340022Y46867D01*
X-341066Y46066D01*
X-341867Y45022D01*
X-342371Y43805D01*
X-342543Y42500D01*
X-342371Y41195D01*
X-341867Y39978D01*
X-341066Y38934D01*
X-340022Y38133D01*
X-338805Y37629D01*
X-337500Y37457D01*
X-336195Y37629D01*
X-334978Y38133D01*
X-333934Y38934D01*
X-333133Y39978D01*
X-332771Y40852D01*
X-332229D01*
X-331868Y39978D01*
X-331066Y38934D01*
X-330022Y38133D01*
X-328805Y37629D01*
X-327500Y37457D01*
X-326195Y37629D01*
X-324978Y38133D01*
X-323934Y38934D01*
X-323132Y39978D01*
X-322771Y40852D01*
X-322229D01*
X-321867Y39978D01*
X-321066Y38934D01*
X-320022Y38133D01*
X-318805Y37629D01*
X-317500Y37457D01*
X-316195Y37629D01*
X-314978Y38133D01*
X-313934Y38934D01*
X-313133Y39978D01*
X-312771Y40852D01*
X-312229D01*
X-311867Y39978D01*
X-311066Y38934D01*
X-310022Y38133D01*
X-308805Y37629D01*
X-307500Y37457D01*
X-306195Y37629D01*
X-304978Y38133D01*
X-303934Y38934D01*
X-303133Y39978D01*
X-302771Y40852D01*
X-302229D01*
X-301868Y39978D01*
X-301066Y38934D01*
X-300022Y38133D01*
X-298805Y37629D01*
X-297500Y37457D01*
X-296195Y37629D01*
X-294978Y38133D01*
X-293934Y38934D01*
X-293132Y39978D01*
X-293000Y40298D01*
X-292500Y40199D01*
Y37500D01*
X-288000D01*
Y42500D01*
Y47500D01*
X-292500D01*
Y44801D01*
X-293000Y44702D01*
X-293132Y45022D01*
X-293934Y46066D01*
X-294978Y46867D01*
X-295971Y47278D01*
Y61875D01*
X-295497Y62035D01*
X-295353Y61847D01*
X-294517Y61206D01*
X-293544Y60803D01*
X-292500Y60666D01*
X-291456Y60803D01*
X-290483Y61206D01*
X-289647Y61847D01*
X-289006Y62683D01*
X-288603Y63656D01*
X-288465Y64700D01*
X-288515Y65080D01*
X-282698Y70898D01*
X-282145Y71724D01*
X-281951Y72700D01*
Y117394D01*
X-281879Y117487D01*
X-281577Y118217D01*
X-281474Y119000D01*
X-281577Y119783D01*
X-281879Y120513D01*
X-282360Y121140D01*
X-282987Y121621D01*
X-283717Y121923D01*
X-284500Y122026D01*
X-285196Y121934D01*
X-285361Y122136D01*
X-285452Y122385D01*
X-212297Y195540D01*
X-211648Y195271D01*
Y194729D01*
X-212522Y194368D01*
X-213566Y193566D01*
X-214368Y192522D01*
X-214871Y191305D01*
X-214977Y190500D01*
X-210000D01*
X-205023D01*
X-205129Y191305D01*
X-205632Y192522D01*
X-206434Y193566D01*
X-207478Y194368D01*
X-208352Y194729D01*
Y195271D01*
X-207478Y195633D01*
X-206434Y196434D01*
X-205632Y197478D01*
X-205129Y198695D01*
X-204957Y200000D01*
X-205129Y201305D01*
X-205632Y202522D01*
X-206434Y203566D01*
X-207478Y204367D01*
X-208352Y204729D01*
Y205271D01*
X-207478Y205632D01*
X-206434Y206434D01*
X-205632Y207478D01*
X-205129Y208695D01*
X-204957Y210000D01*
X-205129Y211305D01*
X-205632Y212522D01*
X-206434Y213566D01*
X-207478Y214368D01*
X-208352Y214729D01*
Y215271D01*
X-207478Y215633D01*
X-206434Y216434D01*
X-205632Y217478D01*
X-205129Y218695D01*
X-204957Y220000D01*
X-205129Y221305D01*
X-205632Y222522D01*
X-206434Y223566D01*
X-207478Y224367D01*
X-208352Y224729D01*
Y225271D01*
X-207478Y225633D01*
X-206434Y226434D01*
X-205632Y227478D01*
X-205129Y228695D01*
X-204957Y230000D01*
X-205129Y231305D01*
X-205632Y232522D01*
X-206434Y233566D01*
X-207478Y234367D01*
X-208352Y234729D01*
Y235271D01*
X-207478Y235632D01*
X-206434Y236434D01*
X-205632Y237478D01*
X-205129Y238695D01*
X-204957Y240000D01*
X-205129Y241305D01*
X-205632Y242522D01*
X-206434Y243566D01*
X-207478Y244368D01*
X-208695Y244871D01*
X-210000Y245043D01*
X-211305Y244871D01*
X-212522Y244368D01*
X-213566Y243566D01*
X-214368Y242522D01*
X-214871Y241305D01*
X-215043Y240000D01*
X-214871Y238695D01*
X-214460Y237703D01*
X-323081Y129081D01*
X-323369Y128651D01*
X-323897Y128518D01*
X-323934Y128566D01*
X-324978Y129367D01*
X-325852Y129729D01*
Y130271D01*
X-324978Y130632D01*
X-323934Y131434D01*
X-323132Y132478D01*
X-322629Y133695D01*
X-322457Y135000D01*
X-322629Y136305D01*
X-323132Y137522D01*
X-323934Y138566D01*
X-324978Y139367D01*
X-325852Y139729D01*
Y140271D01*
X-324978Y140632D01*
X-323934Y141434D01*
X-323132Y142478D01*
X-322629Y143695D01*
X-322457Y145000D01*
X-322629Y146305D01*
X-323132Y147522D01*
X-323934Y148566D01*
X-324978Y149367D01*
X-325852Y149729D01*
Y150271D01*
X-324978Y150633D01*
X-323934Y151434D01*
X-323132Y152478D01*
X-322629Y153695D01*
X-322457Y155000D01*
X-322629Y156305D01*
X-323132Y157522D01*
X-323934Y158566D01*
X-324978Y159368D01*
X-325852Y159729D01*
Y160271D01*
X-324978Y160633D01*
X-323934Y161434D01*
X-323132Y162478D01*
X-322629Y163695D01*
X-322457Y165000D01*
X-322629Y166305D01*
X-323132Y167522D01*
X-323934Y168566D01*
X-324978Y169368D01*
X-325852Y169729D01*
Y170271D01*
X-324978Y170633D01*
X-323934Y171434D01*
X-323132Y172478D01*
X-323032Y172720D01*
X-322443Y172838D01*
X-321938Y172333D01*
X-321923Y172217D01*
X-321620Y171487D01*
X-321140Y170860D01*
X-320513Y170379D01*
X-319783Y170077D01*
X-319000Y169974D01*
X-318217Y170077D01*
X-317487Y170379D01*
X-316860Y170860D01*
X-316379Y171487D01*
X-316077Y172217D01*
X-316049Y172431D01*
X-315549Y172398D01*
Y158606D01*
X-315620Y158513D01*
X-315923Y157783D01*
X-316026Y157000D01*
X-315923Y156217D01*
X-315620Y155487D01*
X-315140Y154860D01*
X-314513Y154379D01*
X-313783Y154077D01*
X-313000Y153974D01*
X-312217Y154077D01*
X-311487Y154379D01*
X-310860Y154860D01*
X-310380Y155487D01*
X-310077Y156217D01*
X-309974Y157000D01*
X-310077Y157783D01*
X-310380Y158513D01*
X-310451Y158606D01*
Y240177D01*
X-309951Y240346D01*
X-309022Y239633D01*
X-307805Y239129D01*
X-306500Y238957D01*
X-305195Y239129D01*
X-303978Y239633D01*
X-302934Y240434D01*
X-302133Y241478D01*
X-301771Y242352D01*
X-301229D01*
X-300868Y241478D01*
X-300066Y240434D01*
X-299022Y239633D01*
X-297805Y239129D01*
X-296500Y238957D01*
X-295195Y239129D01*
X-293978Y239633D01*
X-292934Y240434D01*
X-292132Y241478D01*
X-291771Y242352D01*
X-291229D01*
X-290867Y241478D01*
X-290066Y240434D01*
X-289022Y239633D01*
X-287805Y239129D01*
X-286500Y238957D01*
X-285195Y239129D01*
X-283978Y239633D01*
X-282934Y240434D01*
X-282133Y241478D01*
X-281771Y242352D01*
X-281229D01*
X-280868Y241478D01*
X-280066Y240434D01*
X-279022Y239633D01*
X-277805Y239129D01*
X-276500Y238957D01*
X-275195Y239129D01*
X-273978Y239633D01*
X-272934Y240434D01*
X-272132Y241478D01*
X-271771Y242352D01*
X-271229D01*
X-270867Y241478D01*
X-270066Y240434D01*
X-269022Y239633D01*
X-267805Y239129D01*
X-266500Y238957D01*
X-265195Y239129D01*
X-263978Y239633D01*
X-262934Y240434D01*
X-262133Y241478D01*
X-261771Y242352D01*
X-261229D01*
X-260868Y241478D01*
X-260066Y240434D01*
X-259022Y239633D01*
X-257805Y239129D01*
X-256500Y238957D01*
X-255195Y239129D01*
X-253978Y239633D01*
X-252934Y240434D01*
X-252133Y241478D01*
X-251771Y242352D01*
X-251229D01*
X-250868Y241478D01*
X-250066Y240434D01*
X-249049Y239653D01*
Y214056D01*
X-313667Y149438D01*
X-313783Y149423D01*
X-314513Y149120D01*
X-315140Y148640D01*
X-315620Y148013D01*
X-315923Y147283D01*
X-316026Y146500D01*
X-315923Y145717D01*
X-315620Y144987D01*
X-315140Y144360D01*
X-314513Y143879D01*
X-313783Y143577D01*
X-313000Y143474D01*
X-312217Y143577D01*
X-311487Y143879D01*
X-310860Y144360D01*
X-310380Y144987D01*
X-310077Y145717D01*
X-310062Y145833D01*
X-244698Y211198D01*
X-244145Y212024D01*
X-243951Y213000D01*
Y239653D01*
X-242934Y240434D01*
X-242132Y241478D01*
X-241771Y242352D01*
X-241229D01*
X-240867Y241478D01*
X-240066Y240434D01*
X-239022Y239633D01*
X-237805Y239129D01*
X-237000Y239023D01*
Y244000D01*
Y248977D01*
X-237805Y248871D01*
X-239022Y248368D01*
X-240066Y247566D01*
X-240867Y246522D01*
X-241229Y245648D01*
X-241771D01*
X-242132Y246522D01*
X-242934Y247566D01*
X-243978Y248368D01*
X-245195Y248871D01*
X-246500Y249043D01*
X-247805Y248871D01*
X-249022Y248368D01*
X-250066Y247566D01*
X-250868Y246522D01*
X-251229Y245648D01*
X-251771D01*
X-252133Y246522D01*
X-252934Y247566D01*
X-253978Y248368D01*
X-255195Y248871D01*
X-256500Y249043D01*
X-257805Y248871D01*
X-259022Y248368D01*
X-260066Y247566D01*
X-260868Y246522D01*
X-261229Y245648D01*
X-261771D01*
X-262133Y246522D01*
X-262934Y247566D01*
X-263978Y248368D01*
X-265195Y248871D01*
X-266500Y249043D01*
X-267805Y248871D01*
X-269022Y248368D01*
X-270066Y247566D01*
X-270867Y246522D01*
X-271229Y245648D01*
X-271771D01*
X-272132Y246522D01*
X-272934Y247566D01*
X-273978Y248368D01*
X-275195Y248871D01*
X-276500Y249043D01*
X-277805Y248871D01*
X-279022Y248368D01*
X-280066Y247566D01*
X-280868Y246522D01*
X-281229Y245648D01*
X-281771D01*
X-282133Y246522D01*
X-282934Y247566D01*
X-283978Y248368D01*
X-285195Y248871D01*
X-286500Y249043D01*
X-287805Y248871D01*
X-289022Y248368D01*
X-290066Y247566D01*
X-290867Y246522D01*
X-291229Y245648D01*
X-291771D01*
X-292132Y246522D01*
X-292934Y247566D01*
X-293978Y248368D01*
X-295195Y248871D01*
X-296500Y249043D01*
X-297805Y248871D01*
X-299022Y248368D01*
X-300066Y247566D01*
X-300868Y246522D01*
X-301229Y245648D01*
X-301771D01*
X-302133Y246522D01*
X-302934Y247566D01*
X-303978Y248368D01*
X-305195Y248871D01*
X-306356Y249024D01*
X-306590Y249497D01*
X-304198Y251890D01*
X-303645Y252717D01*
X-303451Y253692D01*
Y315192D01*
X-303645Y316168D01*
X-304198Y316995D01*
X-308005Y320802D01*
X-308832Y321355D01*
X-309808Y321549D01*
D02*
G37*
G36*
X-173000Y272000D02*
X-177477D01*
X-177371Y271195D01*
X-176867Y269978D01*
X-176066Y268934D01*
X-175022Y268132D01*
X-173805Y267629D01*
X-173000Y267523D01*
Y272000D01*
D02*
G37*
G36*
X-172500Y327543D02*
X-173805Y327371D01*
X-175022Y326868D01*
X-176066Y326066D01*
X-176867Y325022D01*
X-177371Y323805D01*
X-177543Y322500D01*
X-177371Y321195D01*
X-176867Y319978D01*
X-176066Y318934D01*
X-175022Y318132D01*
X-174148Y317771D01*
Y317229D01*
X-175022Y316867D01*
X-176066Y316066D01*
X-176867Y315022D01*
X-177371Y313805D01*
X-177543Y312500D01*
X-177371Y311195D01*
X-176867Y309978D01*
X-176066Y308934D01*
X-175022Y308133D01*
X-174148Y307771D01*
Y307229D01*
X-175022Y306868D01*
X-176066Y306066D01*
X-176867Y305022D01*
X-177371Y303805D01*
X-177543Y302500D01*
X-177371Y301195D01*
X-176867Y299978D01*
X-176066Y298934D01*
X-175022Y298132D01*
X-174148Y297771D01*
Y297229D01*
X-175022Y296867D01*
X-176066Y296066D01*
X-176867Y295022D01*
X-177371Y293805D01*
X-177543Y292500D01*
X-177371Y291195D01*
X-176867Y289978D01*
X-176066Y288934D01*
X-175022Y288133D01*
X-174148Y287771D01*
Y287229D01*
X-175022Y286867D01*
X-176066Y286066D01*
X-176867Y285022D01*
X-177371Y283805D01*
X-177543Y282500D01*
X-177371Y281195D01*
X-176867Y279978D01*
X-176066Y278934D01*
X-175022Y278133D01*
X-174148Y277771D01*
Y277229D01*
X-175022Y276868D01*
X-176066Y276066D01*
X-176867Y275022D01*
X-177371Y273805D01*
X-177477Y273000D01*
X-172500D01*
Y272500D01*
X-172000D01*
Y267523D01*
X-171195Y267629D01*
X-169978Y268132D01*
X-169049Y268846D01*
X-168549Y268677D01*
Y250305D01*
X-168989Y249910D01*
X-170000Y250043D01*
X-171305Y249871D01*
X-172522Y249367D01*
X-173566Y248566D01*
X-174367Y247522D01*
X-174729Y246648D01*
X-175271D01*
X-175633Y247522D01*
X-176434Y248566D01*
X-177478Y249367D01*
X-178695Y249871D01*
X-180000Y250043D01*
X-181305Y249871D01*
X-182522Y249367D01*
X-183566Y248566D01*
X-184368Y247522D01*
X-184729Y246648D01*
X-185271D01*
X-185633Y247522D01*
X-186434Y248566D01*
X-187478Y249367D01*
X-188695Y249871D01*
X-189500Y249977D01*
Y245000D01*
Y240023D01*
X-188695Y240129D01*
X-187478Y240633D01*
X-186434Y241434D01*
X-185633Y242478D01*
X-185271Y243352D01*
X-184729D01*
X-184368Y242478D01*
X-183566Y241434D01*
X-182522Y240633D01*
X-181305Y240129D01*
X-180000Y239957D01*
X-178695Y240129D01*
X-177478Y240633D01*
X-176434Y241434D01*
X-175633Y242478D01*
X-175271Y243352D01*
X-174729D01*
X-174367Y242478D01*
X-173566Y241434D01*
X-172522Y240633D01*
X-171305Y240129D01*
X-170000Y239957D01*
X-168695Y240129D01*
X-167478Y240633D01*
X-166434Y241434D01*
X-165632Y242478D01*
X-165271Y243352D01*
X-164729D01*
X-164367Y242478D01*
X-163566Y241434D01*
X-162522Y240633D01*
X-161305Y240129D01*
X-160000Y239957D01*
X-158695Y240129D01*
X-157478Y240633D01*
X-156434Y241434D01*
X-155632Y242478D01*
X-155271Y243352D01*
X-154729D01*
X-154367Y242478D01*
X-153566Y241434D01*
X-152522Y240633D01*
X-151305Y240129D01*
X-150000Y239957D01*
X-148695Y240129D01*
X-147478Y240633D01*
X-146434Y241434D01*
X-145633Y242478D01*
X-145271Y243352D01*
X-144729D01*
X-144368Y242478D01*
X-143566Y241434D01*
X-142522Y240633D01*
X-141305Y240129D01*
X-140000Y239957D01*
X-138695Y240129D01*
X-137478Y240633D01*
X-136434Y241434D01*
X-135633Y242478D01*
X-135271Y243352D01*
X-134729D01*
X-134368Y242478D01*
X-133566Y241434D01*
X-132522Y240633D01*
X-131305Y240129D01*
X-130000Y239957D01*
X-128695Y240129D01*
X-127702Y240540D01*
X-86029Y198866D01*
Y188789D01*
X-86529Y188639D01*
X-87478Y189367D01*
X-88695Y189871D01*
X-90000Y190043D01*
X-91305Y189871D01*
X-92522Y189367D01*
X-93566Y188566D01*
X-94367Y187522D01*
X-94729Y186648D01*
X-95271D01*
X-95632Y187522D01*
X-96434Y188566D01*
X-97478Y189367D01*
X-98695Y189871D01*
X-100000Y190043D01*
X-101305Y189871D01*
X-102522Y189367D01*
X-103566Y188566D01*
X-104367Y187522D01*
X-104729Y186648D01*
X-105271D01*
X-105632Y187522D01*
X-106434Y188566D01*
X-107478Y189367D01*
X-108695Y189871D01*
X-110000Y190043D01*
X-111305Y189871D01*
X-112522Y189367D01*
X-113566Y188566D01*
X-114367Y187522D01*
X-114729Y186648D01*
X-115271D01*
X-115632Y187522D01*
X-116434Y188566D01*
X-117478Y189367D01*
X-118695Y189871D01*
X-120000Y190043D01*
X-121305Y189871D01*
X-122522Y189367D01*
X-123566Y188566D01*
X-124367Y187522D01*
X-124729Y186648D01*
X-125271D01*
X-125633Y187522D01*
X-126434Y188566D01*
X-127478Y189367D01*
X-128695Y189871D01*
X-130000Y190043D01*
X-131305Y189871D01*
X-132522Y189367D01*
X-133566Y188566D01*
X-134368Y187522D01*
X-134729Y186648D01*
X-135271D01*
X-135633Y187522D01*
X-136434Y188566D01*
X-137478Y189367D01*
X-138695Y189871D01*
X-140000Y190043D01*
X-141305Y189871D01*
X-142522Y189367D01*
X-143566Y188566D01*
X-144368Y187522D01*
X-144729Y186648D01*
X-145271D01*
X-145633Y187522D01*
X-146434Y188566D01*
X-147478Y189367D01*
X-148695Y189871D01*
X-150000Y190043D01*
X-151305Y189871D01*
X-152522Y189367D01*
X-153566Y188566D01*
X-154367Y187522D01*
X-154729Y186648D01*
X-155271D01*
X-155632Y187522D01*
X-156434Y188566D01*
X-157478Y189367D01*
X-158695Y189871D01*
X-160000Y190043D01*
X-161305Y189871D01*
X-162522Y189367D01*
X-163566Y188566D01*
X-164367Y187522D01*
X-164729Y186648D01*
X-165271D01*
X-165632Y187522D01*
X-166434Y188566D01*
X-167478Y189367D01*
X-168695Y189871D01*
X-169500Y189977D01*
Y185000D01*
Y180023D01*
X-168695Y180129D01*
X-167478Y180632D01*
X-166434Y181434D01*
X-165632Y182478D01*
X-165271Y183352D01*
X-164729D01*
X-164367Y182478D01*
X-163566Y181434D01*
X-162522Y180632D01*
X-161305Y180129D01*
X-160000Y179957D01*
X-158695Y180129D01*
X-157478Y180632D01*
X-156434Y181434D01*
X-155632Y182478D01*
X-155271Y183352D01*
X-154729D01*
X-154367Y182478D01*
X-153566Y181434D01*
X-152522Y180632D01*
X-151305Y180129D01*
X-150000Y179957D01*
X-148695Y180129D01*
X-147478Y180632D01*
X-146434Y181434D01*
X-145633Y182478D01*
X-145271Y183352D01*
X-144729D01*
X-144368Y182478D01*
X-143566Y181434D01*
X-142522Y180632D01*
X-141305Y180129D01*
X-140000Y179957D01*
X-138695Y180129D01*
X-137478Y180632D01*
X-136434Y181434D01*
X-135633Y182478D01*
X-135271Y183352D01*
X-134729D01*
X-134460Y182703D01*
X-203980Y113183D01*
X-204312Y112687D01*
X-204428Y112101D01*
Y93715D01*
X-204700Y93593D01*
X-204928Y93576D01*
X-205360Y94140D01*
X-205987Y94621D01*
X-206717Y94923D01*
X-207500Y95026D01*
X-208263Y94925D01*
X-218471Y105133D01*
Y176892D01*
X-217860Y177360D01*
X-217379Y177987D01*
X-217077Y178717D01*
X-216974Y179500D01*
X-217077Y180283D01*
X-217379Y181013D01*
X-217860Y181640D01*
X-218487Y182121D01*
X-219217Y182423D01*
X-220000Y182526D01*
X-220783Y182423D01*
X-221513Y182121D01*
X-222140Y181640D01*
X-222621Y181013D01*
X-222923Y180283D01*
X-223026Y179500D01*
X-222923Y178717D01*
X-222621Y177987D01*
X-222140Y177360D01*
X-221529Y176892D01*
Y104500D01*
X-221413Y103915D01*
X-221081Y103419D01*
X-210425Y92763D01*
X-210526Y92000D01*
X-210423Y91217D01*
X-210121Y90487D01*
X-209640Y89860D01*
X-209013Y89380D01*
X-208283Y89077D01*
X-207500Y88974D01*
X-206717Y89077D01*
X-205987Y89380D01*
X-205360Y89860D01*
X-204928Y90424D01*
X-204700Y90407D01*
X-204428Y90285D01*
Y65966D01*
X-205038Y65498D01*
X-205519Y64872D01*
X-205822Y64142D01*
X-205925Y63359D01*
X-205822Y62575D01*
X-205519Y61846D01*
X-205038Y61219D01*
X-204412Y60738D01*
X-203682Y60436D01*
X-202899Y60333D01*
X-202116Y60436D01*
X-201386Y60738D01*
X-200759Y61219D01*
X-200278Y61846D01*
X-199976Y62575D01*
X-199873Y63359D01*
X-199976Y64142D01*
X-200278Y64872D01*
X-200759Y65498D01*
X-201369Y65966D01*
Y111468D01*
X-132298Y180540D01*
X-131305Y180129D01*
X-130000Y179957D01*
X-128695Y180129D01*
X-127478Y180632D01*
X-126434Y181434D01*
X-125633Y182478D01*
X-125271Y183352D01*
X-124729D01*
X-124460Y182703D01*
X-194081Y113081D01*
X-194413Y112585D01*
X-194529Y112000D01*
Y74108D01*
X-195140Y73640D01*
X-195621Y73013D01*
X-195923Y72283D01*
X-196026Y71500D01*
X-195923Y70717D01*
X-195621Y69987D01*
X-195140Y69360D01*
X-194513Y68879D01*
X-193783Y68577D01*
X-193000Y68474D01*
X-192217Y68577D01*
X-191487Y68879D01*
X-190860Y69360D01*
X-190380Y69987D01*
X-190077Y70717D01*
X-189974Y71500D01*
X-190077Y72283D01*
X-190380Y73013D01*
X-190860Y73640D01*
X-191471Y74108D01*
Y111366D01*
X-122298Y180540D01*
X-121305Y180129D01*
X-120000Y179957D01*
X-118695Y180129D01*
X-117478Y180632D01*
X-116434Y181434D01*
X-115632Y182478D01*
X-115271Y183352D01*
X-114729D01*
X-114367Y182478D01*
X-113566Y181434D01*
X-112522Y180632D01*
X-111305Y180129D01*
X-110000Y179957D01*
X-108695Y180129D01*
X-107478Y180632D01*
X-106434Y181434D01*
X-105632Y182478D01*
X-105271Y183352D01*
X-104729D01*
X-104367Y182478D01*
X-103566Y181434D01*
X-102522Y180632D01*
X-101305Y180129D01*
X-100000Y179957D01*
X-98695Y180129D01*
X-97478Y180632D01*
X-96434Y181434D01*
X-95632Y182478D01*
X-95271Y183352D01*
X-94729D01*
X-94460Y182703D01*
X-183581Y93581D01*
X-183913Y93085D01*
X-184029Y92500D01*
Y74108D01*
X-184640Y73640D01*
X-185120Y73013D01*
X-185423Y72283D01*
X-185526Y71500D01*
X-185423Y70717D01*
X-185120Y69987D01*
X-184640Y69360D01*
X-184013Y68879D01*
X-183283Y68577D01*
X-182500Y68474D01*
X-181717Y68577D01*
X-180987Y68879D01*
X-180360Y69360D01*
X-179879Y69987D01*
X-179577Y70717D01*
X-179474Y71500D01*
X-179577Y72283D01*
X-179879Y73013D01*
X-180360Y73640D01*
X-180971Y74108D01*
Y91866D01*
X-179858Y92979D01*
X-179434Y92696D01*
X-179810Y91789D01*
X-179980Y90500D01*
X-179810Y89211D01*
X-179313Y88010D01*
X-178521Y86979D01*
X-177490Y86187D01*
X-176289Y85690D01*
X-175000Y85520D01*
X-173711Y85690D01*
X-172510Y86187D01*
X-171479Y86979D01*
X-170687Y88010D01*
X-170271Y89017D01*
X-169729D01*
X-169313Y88010D01*
X-168521Y86979D01*
X-167490Y86187D01*
X-166289Y85690D01*
X-165000Y85520D01*
X-163711Y85690D01*
X-162510Y86187D01*
X-161479Y86979D01*
X-160687Y88010D01*
X-160271Y89017D01*
X-159729D01*
X-159312Y88010D01*
X-158521Y86979D01*
X-157490Y86187D01*
X-156289Y85690D01*
X-155000Y85520D01*
X-153711Y85690D01*
X-152510Y86187D01*
X-151479Y86979D01*
X-150688Y88010D01*
X-150271Y89017D01*
X-149729D01*
X-149312Y88010D01*
X-148521Y86979D01*
X-147490Y86187D01*
X-146289Y85690D01*
X-145500Y85586D01*
Y90500D01*
Y95414D01*
X-146289Y95310D01*
X-147490Y94813D01*
X-148521Y94021D01*
X-149312Y92990D01*
X-149729Y91983D01*
X-150271D01*
X-150688Y92990D01*
X-151479Y94021D01*
X-152510Y94813D01*
X-153711Y95310D01*
X-155000Y95480D01*
X-156289Y95310D01*
X-157490Y94813D01*
X-158521Y94021D01*
X-159312Y92990D01*
X-159729Y91983D01*
X-160271D01*
X-160687Y92990D01*
X-161479Y94021D01*
X-162510Y94813D01*
X-163711Y95310D01*
X-165000Y95480D01*
X-166289Y95310D01*
X-167490Y94813D01*
X-168521Y94021D01*
X-169313Y92990D01*
X-169729Y91983D01*
X-170271D01*
X-170687Y92990D01*
X-171479Y94021D01*
X-172510Y94813D01*
X-173711Y95310D01*
X-175000Y95480D01*
X-176289Y95310D01*
X-177196Y94934D01*
X-177479Y95358D01*
X-110510Y162327D01*
X-110374Y162313D01*
X-109942Y161769D01*
X-110043Y161000D01*
X-109871Y159695D01*
X-109368Y158478D01*
X-108566Y157434D01*
X-107522Y156632D01*
X-106305Y156129D01*
X-105000Y155957D01*
X-103695Y156129D01*
X-102478Y156632D01*
X-101434Y157434D01*
X-100633Y158478D01*
X-100271Y159352D01*
X-99729D01*
X-99367Y158478D01*
X-98566Y157434D01*
X-97522Y156632D01*
X-96305Y156129D01*
X-95000Y155957D01*
X-93695Y156129D01*
X-92478Y156632D01*
X-91434Y157434D01*
X-90632Y158478D01*
X-90271Y159352D01*
X-89729D01*
X-89368Y158478D01*
X-88566Y157434D01*
X-87522Y156632D01*
X-86305Y156129D01*
X-85000Y155957D01*
X-83695Y156129D01*
X-82478Y156632D01*
X-81434Y157434D01*
X-80633Y158478D01*
X-80271Y159352D01*
X-79729D01*
X-79368Y158478D01*
X-78566Y157434D01*
X-77522Y156632D01*
X-76305Y156129D01*
X-75000Y155957D01*
X-73695Y156129D01*
X-72478Y156632D01*
X-71434Y157434D01*
X-70632Y158478D01*
X-70271Y159352D01*
X-69729D01*
X-69367Y158478D01*
X-68566Y157434D01*
X-67549Y156653D01*
Y149056D01*
X-136167Y80438D01*
X-136283Y80423D01*
X-137013Y80120D01*
X-137640Y79640D01*
X-138120Y79013D01*
X-138423Y78283D01*
X-138526Y77500D01*
X-138423Y76717D01*
X-138120Y75987D01*
X-137640Y75360D01*
X-137013Y74879D01*
X-136283Y74577D01*
X-135500Y74474D01*
X-134717Y74577D01*
X-133987Y74879D01*
X-133360Y75360D01*
X-132879Y75987D01*
X-132577Y76717D01*
X-132562Y76833D01*
X-63198Y146198D01*
X-62645Y147025D01*
X-62451Y148000D01*
Y156653D01*
X-61434Y157434D01*
X-60632Y158478D01*
X-60271Y159352D01*
X-59729D01*
X-59368Y158478D01*
X-58566Y157434D01*
X-57522Y156632D01*
X-56305Y156129D01*
X-55500Y156023D01*
Y161000D01*
Y165977D01*
X-56305Y165871D01*
X-57522Y165367D01*
X-58566Y164566D01*
X-59368Y163522D01*
X-59729Y162648D01*
X-60271D01*
X-60632Y163522D01*
X-61434Y164566D01*
X-62478Y165367D01*
X-63695Y165871D01*
X-65000Y166043D01*
X-66305Y165871D01*
X-67522Y165367D01*
X-68566Y164566D01*
X-69367Y163522D01*
X-69729Y162648D01*
X-70271D01*
X-70632Y163522D01*
X-71434Y164566D01*
X-72478Y165367D01*
X-73471Y165779D01*
Y237778D01*
X-73587Y238364D01*
X-73919Y238860D01*
X-86640Y251581D01*
X-87137Y251913D01*
X-87722Y252029D01*
X-104500D01*
X-105085Y251913D01*
X-105581Y251581D01*
X-107703Y249460D01*
X-108695Y249871D01*
X-110000Y250043D01*
X-111305Y249871D01*
X-112522Y249367D01*
X-113566Y248566D01*
X-114367Y247522D01*
X-114729Y246648D01*
X-115271D01*
X-115632Y247522D01*
X-116434Y248566D01*
X-117478Y249367D01*
X-118695Y249871D01*
X-120000Y250043D01*
X-121305Y249871D01*
X-122522Y249367D01*
X-123566Y248566D01*
X-124367Y247522D01*
X-124729Y246648D01*
X-125271D01*
X-125633Y247522D01*
X-126434Y248566D01*
X-127478Y249367D01*
X-128695Y249871D01*
X-130000Y250043D01*
X-131305Y249871D01*
X-132522Y249367D01*
X-133566Y248566D01*
X-134368Y247522D01*
X-134729Y246648D01*
X-135271D01*
X-135633Y247522D01*
X-136434Y248566D01*
X-137478Y249367D01*
X-138695Y249871D01*
X-140000Y250043D01*
X-141305Y249871D01*
X-142522Y249367D01*
X-143566Y248566D01*
X-144368Y247522D01*
X-144729Y246648D01*
X-145271D01*
X-145633Y247522D01*
X-146434Y248566D01*
X-147478Y249367D01*
X-148695Y249871D01*
X-150000Y250043D01*
X-151305Y249871D01*
X-152522Y249367D01*
X-153566Y248566D01*
X-154367Y247522D01*
X-154729Y246648D01*
X-155271D01*
X-155632Y247522D01*
X-156434Y248566D01*
X-157478Y249367D01*
X-158471Y249779D01*
Y300000D01*
X-158587Y300585D01*
X-158919Y301081D01*
X-168040Y310203D01*
X-167629Y311195D01*
X-167457Y312500D01*
X-167629Y313805D01*
X-168132Y315022D01*
X-168934Y316066D01*
X-169978Y316867D01*
X-170852Y317229D01*
Y317771D01*
X-169978Y318132D01*
X-168934Y318934D01*
X-168132Y319978D01*
X-167629Y321195D01*
X-167457Y322500D01*
X-167629Y323805D01*
X-168132Y325022D01*
X-168934Y326066D01*
X-169978Y326868D01*
X-171195Y327371D01*
X-172500Y327543D01*
D02*
G37*
G36*
X-236000Y248977D02*
Y244500D01*
X-231523D01*
X-231629Y245305D01*
X-232133Y246522D01*
X-232934Y247566D01*
X-233978Y248368D01*
X-235195Y248871D01*
X-236000Y248977D01*
D02*
G37*
G36*
X-200000Y250043D02*
X-201305Y249871D01*
X-202522Y249367D01*
X-203566Y248566D01*
X-204367Y247522D01*
X-204871Y246305D01*
X-205043Y245000D01*
X-204871Y243695D01*
X-204367Y242478D01*
X-203566Y241434D01*
X-202522Y240633D01*
X-201305Y240129D01*
X-200000Y239957D01*
X-198695Y240129D01*
X-197478Y240633D01*
X-196434Y241434D01*
X-195633Y242478D01*
X-195271Y243352D01*
X-194729D01*
X-194368Y242478D01*
X-193566Y241434D01*
X-192522Y240633D01*
X-191305Y240129D01*
X-190500Y240023D01*
Y245000D01*
Y249977D01*
X-191305Y249871D01*
X-192522Y249367D01*
X-193566Y248566D01*
X-194368Y247522D01*
X-194729Y246648D01*
X-195271D01*
X-195633Y247522D01*
X-196434Y248566D01*
X-197478Y249367D01*
X-198695Y249871D01*
X-200000Y250043D01*
D02*
G37*
G36*
X-231523Y243500D02*
X-236000D01*
Y239023D01*
X-235195Y239129D01*
X-233978Y239633D01*
X-232934Y240434D01*
X-232133Y241478D01*
X-231629Y242695D01*
X-231523Y243500D01*
D02*
G37*
G36*
X-155500Y238543D02*
X-156805Y238371D01*
X-158022Y237867D01*
X-159066Y237066D01*
X-159868Y236022D01*
X-160229Y235148D01*
X-160771D01*
X-161133Y236022D01*
X-161934Y237066D01*
X-162978Y237867D01*
X-164195Y238371D01*
X-165500Y238543D01*
X-166805Y238371D01*
X-168022Y237867D01*
X-169066Y237066D01*
X-169868Y236022D01*
X-170371Y234805D01*
X-170543Y233500D01*
X-170371Y232195D01*
X-169868Y230978D01*
X-169066Y229934D01*
X-168022Y229133D01*
X-166805Y228629D01*
X-165500Y228457D01*
X-164195Y228629D01*
X-162978Y229133D01*
X-161934Y229934D01*
X-161133Y230978D01*
X-160771Y231852D01*
X-160229D01*
X-159868Y230978D01*
X-159066Y229934D01*
X-158022Y229133D01*
X-156805Y228629D01*
X-155500Y228457D01*
X-154195Y228629D01*
X-152978Y229133D01*
X-151934Y229934D01*
X-151133Y230978D01*
X-150629Y232195D01*
X-150457Y233500D01*
X-150629Y234805D01*
X-151133Y236022D01*
X-151934Y237066D01*
X-152978Y237867D01*
X-154195Y238371D01*
X-155500Y238543D01*
D02*
G37*
G36*
X-69000Y305526D02*
X-69783Y305423D01*
X-70513Y305120D01*
X-71140Y304640D01*
X-71621Y304013D01*
X-71923Y303283D01*
X-72026Y302500D01*
X-71923Y301717D01*
X-71621Y300987D01*
X-71140Y300360D01*
X-70529Y299892D01*
Y229632D01*
X-70621Y229513D01*
X-70923Y228783D01*
X-71026Y228000D01*
X-70923Y227217D01*
X-70621Y226487D01*
X-70140Y225860D01*
X-69513Y225379D01*
X-68783Y225077D01*
X-68000Y224974D01*
X-67217Y225077D01*
X-66487Y225379D01*
X-65860Y225860D01*
X-65380Y226487D01*
X-65077Y227217D01*
X-64974Y228000D01*
X-65077Y228783D01*
X-65380Y229513D01*
X-65860Y230140D01*
X-66487Y230621D01*
X-67217Y230923D01*
X-67471Y230956D01*
Y299892D01*
X-66860Y300360D01*
X-66379Y300987D01*
X-66077Y301717D01*
X-65974Y302500D01*
X-66077Y303283D01*
X-66379Y304013D01*
X-66860Y304640D01*
X-67487Y305120D01*
X-68217Y305423D01*
X-69000Y305526D01*
D02*
G37*
G36*
X-180000Y190043D02*
X-181305Y189871D01*
X-182522Y189367D01*
X-183566Y188566D01*
X-184368Y187522D01*
X-184729Y186648D01*
X-185271D01*
X-185633Y187522D01*
X-186434Y188566D01*
X-187478Y189367D01*
X-188695Y189871D01*
X-190000Y190043D01*
X-191305Y189871D01*
X-192522Y189367D01*
X-193566Y188566D01*
X-194368Y187522D01*
X-194729Y186648D01*
X-195271D01*
X-195633Y187522D01*
X-196434Y188566D01*
X-197478Y189367D01*
X-198695Y189871D01*
X-200000Y190043D01*
X-201305Y189871D01*
X-202522Y189367D01*
X-203566Y188566D01*
X-204367Y187522D01*
X-204871Y186305D01*
X-205043Y185000D01*
X-204871Y183695D01*
X-204367Y182478D01*
X-203566Y181434D01*
X-202522Y180632D01*
X-201305Y180129D01*
X-200000Y179957D01*
X-198695Y180129D01*
X-197478Y180632D01*
X-196434Y181434D01*
X-195633Y182478D01*
X-195271Y183352D01*
X-194729D01*
X-194368Y182478D01*
X-193566Y181434D01*
X-192522Y180632D01*
X-191305Y180129D01*
X-190000Y179957D01*
X-188695Y180129D01*
X-187478Y180632D01*
X-186434Y181434D01*
X-185633Y182478D01*
X-185271Y183352D01*
X-184729D01*
X-184368Y182478D01*
X-183566Y181434D01*
X-182522Y180632D01*
X-181305Y180129D01*
X-180000Y179957D01*
X-178695Y180129D01*
X-177478Y180632D01*
X-176434Y181434D01*
X-175633Y182478D01*
X-175271Y183352D01*
X-174729D01*
X-174367Y182478D01*
X-173566Y181434D01*
X-172522Y180632D01*
X-171305Y180129D01*
X-170500Y180023D01*
Y185000D01*
Y189977D01*
X-171305Y189871D01*
X-172522Y189367D01*
X-173566Y188566D01*
X-174367Y187522D01*
X-174729Y186648D01*
X-175271D01*
X-175633Y187522D01*
X-176434Y188566D01*
X-177478Y189367D01*
X-178695Y189871D01*
X-180000Y190043D01*
D02*
G37*
G36*
X-205023Y189500D02*
X-209500D01*
Y185023D01*
X-208695Y185129D01*
X-207478Y185633D01*
X-206434Y186434D01*
X-205632Y187478D01*
X-205129Y188695D01*
X-205023Y189500D01*
D02*
G37*
G36*
X-210500D02*
X-214977D01*
X-214871Y188695D01*
X-214368Y187478D01*
X-213566Y186434D01*
X-212522Y185633D01*
X-211305Y185129D01*
X-210500Y185023D01*
Y189500D01*
D02*
G37*
G36*
X-73500Y345500D02*
X-82500D01*
Y340105D01*
X-85802Y336802D01*
X-86355Y335976D01*
X-86549Y335000D01*
Y327500D01*
X-86355Y326524D01*
X-85802Y325698D01*
X-53515Y293410D01*
X-53676Y292937D01*
X-53783Y292923D01*
X-54513Y292620D01*
X-55140Y292140D01*
X-55620Y291513D01*
X-55923Y290783D01*
X-56026Y290000D01*
X-55923Y289217D01*
X-55620Y288487D01*
X-55140Y287860D01*
X-54529Y287392D01*
Y236108D01*
X-55140Y235640D01*
X-55620Y235013D01*
X-55923Y234283D01*
X-56026Y233500D01*
X-55923Y232717D01*
X-55620Y231987D01*
X-55140Y231360D01*
X-54513Y230879D01*
X-53783Y230577D01*
X-53000Y230474D01*
X-52217Y230577D01*
X-51487Y230879D01*
X-50860Y231360D01*
X-50380Y231987D01*
X-50077Y232717D01*
X-49974Y233500D01*
X-50077Y234283D01*
X-50380Y235013D01*
X-50860Y235640D01*
X-51471Y236108D01*
Y287392D01*
X-51049Y287716D01*
X-50549Y287476D01*
Y263500D01*
X-50355Y262525D01*
X-49802Y261698D01*
X-24876Y236771D01*
X-25043Y235500D01*
X-24876Y234229D01*
X-69302Y189802D01*
X-69429Y189613D01*
X-70022Y189367D01*
X-71066Y188566D01*
X-71868Y187522D01*
X-72371Y186305D01*
X-72543Y185000D01*
X-72371Y183695D01*
X-71868Y182478D01*
X-71066Y181434D01*
X-70022Y180632D01*
X-68805Y180129D01*
X-67500Y179957D01*
X-66229Y180124D01*
X-51353Y165248D01*
X-51376Y165152D01*
X-51936Y164951D01*
X-52478Y165367D01*
X-53695Y165871D01*
X-54500Y165977D01*
Y161000D01*
Y156023D01*
X-53695Y156129D01*
X-52478Y156632D01*
X-51549Y157346D01*
X-51049Y157177D01*
Y156056D01*
X-113667Y93438D01*
X-113783Y93423D01*
X-114513Y93120D01*
X-115140Y92640D01*
X-115621Y92013D01*
X-115923Y91283D01*
X-116026Y90500D01*
X-115923Y89717D01*
X-115621Y88987D01*
X-115140Y88360D01*
X-114513Y87880D01*
X-113783Y87577D01*
X-113000Y87474D01*
X-112659Y87519D01*
X-112308Y87061D01*
X-112423Y86783D01*
X-112526Y86000D01*
X-112423Y85217D01*
X-112120Y84487D01*
X-111640Y83860D01*
X-111427Y83697D01*
X-111502Y83125D01*
X-111513Y83121D01*
X-112140Y82640D01*
X-112620Y82013D01*
X-112923Y81283D01*
X-113026Y80500D01*
X-112923Y79717D01*
X-112620Y78987D01*
X-112140Y78360D01*
X-111513Y77880D01*
X-110783Y77577D01*
X-110000Y77474D01*
X-109217Y77577D01*
X-108487Y77880D01*
X-107860Y78360D01*
X-107379Y78987D01*
X-107077Y79717D01*
X-106974Y80500D01*
X-107074Y81263D01*
X-36419Y151919D01*
X-36087Y152415D01*
X-35971Y153000D01*
Y180221D01*
X-34978Y180632D01*
X-33934Y181434D01*
X-33132Y182478D01*
X-32771Y183352D01*
X-32229D01*
X-31868Y182478D01*
X-31066Y181434D01*
X-30022Y180632D01*
X-28805Y180129D01*
X-27500Y179957D01*
X-26195Y180129D01*
X-24978Y180632D01*
X-23934Y181434D01*
X-23133Y182478D01*
X-22771Y183352D01*
X-22229D01*
X-21868Y182478D01*
X-21066Y181434D01*
X-20022Y180632D01*
X-18805Y180129D01*
X-17500Y179957D01*
X-16195Y180129D01*
X-14978Y180632D01*
X-13934Y181434D01*
X-13133Y182478D01*
X-12629Y183695D01*
X-12457Y185000D01*
X-12629Y186305D01*
X-13133Y187522D01*
X-13934Y188566D01*
X-14978Y189367D01*
X-16195Y189871D01*
X-17500Y190043D01*
X-18805Y189871D01*
X-20022Y189367D01*
X-21066Y188566D01*
X-21868Y187522D01*
X-22229Y186648D01*
X-22771D01*
X-23133Y187522D01*
X-23934Y188566D01*
X-24978Y189367D01*
X-26195Y189871D01*
X-27500Y190043D01*
X-28805Y189871D01*
X-30022Y189367D01*
X-31066Y188566D01*
X-31868Y187522D01*
X-32229Y186648D01*
X-32771D01*
X-33040Y187297D01*
X-10419Y209919D01*
X-10087Y210415D01*
X-9971Y211000D01*
Y254392D01*
X-9360Y254860D01*
X-8879Y255487D01*
X-8577Y256217D01*
X-8474Y257000D01*
X-8577Y257783D01*
X-8879Y258513D01*
X-9360Y259140D01*
X-9987Y259620D01*
X-10717Y259923D01*
X-11500Y260026D01*
X-12283Y259923D01*
X-13013Y259620D01*
X-13056Y259588D01*
X-13419Y259919D01*
X-13087Y260415D01*
X-12971Y261000D01*
Y317778D01*
X-13087Y318363D01*
X-13419Y318860D01*
X-16640Y322081D01*
X-17137Y322413D01*
X-17722Y322529D01*
X-54366D01*
X-60685Y328848D01*
X-60584Y329610D01*
X-60687Y330393D01*
X-60990Y331123D01*
X-61471Y331750D01*
X-62097Y332231D01*
X-62827Y332533D01*
X-63610Y332636D01*
X-64393Y332533D01*
X-65123Y332231D01*
X-65750Y331750D01*
X-66231Y331123D01*
X-66533Y330393D01*
X-66636Y329610D01*
X-66533Y328827D01*
X-66231Y328097D01*
X-65750Y327471D01*
X-65123Y326990D01*
X-64393Y326687D01*
X-63610Y326584D01*
X-63131Y326647D01*
X-63040Y326529D01*
X-63285Y326029D01*
X-71892D01*
X-72360Y326640D01*
X-72987Y327120D01*
X-73717Y327423D01*
X-74376Y327509D01*
X-74572Y327822D01*
X-74619Y328015D01*
X-74069Y328731D01*
X-73616Y329825D01*
X-73461Y331000D01*
X-73616Y332175D01*
X-74069Y333269D01*
X-74791Y334209D01*
X-75731Y334931D01*
X-76825Y335384D01*
X-78000Y335539D01*
X-79175Y335384D01*
X-79395Y335293D01*
X-79678Y335717D01*
X-78895Y336500D01*
X-73500D01*
Y345500D01*
D02*
G37*
G36*
X-267500Y102539D02*
X-268675Y102384D01*
X-269769Y101931D01*
X-270709Y101209D01*
X-271431Y100269D01*
X-271884Y99175D01*
X-272039Y98000D01*
X-271884Y96825D01*
X-271431Y95731D01*
X-270709Y94791D01*
X-269769Y94069D01*
X-268675Y93616D01*
X-267500Y93461D01*
X-266325Y93616D01*
X-265231Y94069D01*
X-264291Y94791D01*
X-263569Y95731D01*
X-263116Y96825D01*
X-262961Y98000D01*
X-263116Y99175D01*
X-263569Y100269D01*
X-264291Y101209D01*
X-265231Y101931D01*
X-266325Y102384D01*
X-267500Y102539D01*
D02*
G37*
G36*
X-135000Y95480D02*
X-136289Y95310D01*
X-137490Y94813D01*
X-138521Y94021D01*
X-139313Y92990D01*
X-139729Y91983D01*
X-140271D01*
X-140688Y92990D01*
X-141479Y94021D01*
X-142510Y94813D01*
X-143711Y95310D01*
X-144500Y95414D01*
Y90500D01*
Y85586D01*
X-143711Y85690D01*
X-142510Y86187D01*
X-141479Y86979D01*
X-140688Y88010D01*
X-140271Y89017D01*
X-139729D01*
X-139313Y88010D01*
X-138521Y86979D01*
X-137490Y86187D01*
X-136289Y85690D01*
X-135000Y85520D01*
X-133711Y85690D01*
X-132510Y86187D01*
X-131479Y86979D01*
X-130687Y88010D01*
X-130190Y89211D01*
X-130020Y90500D01*
X-130190Y91789D01*
X-130687Y92990D01*
X-131479Y94021D01*
X-132510Y94813D01*
X-133711Y95310D01*
X-135000Y95480D01*
D02*
G37*
G36*
X-227500Y178026D02*
X-228283Y177923D01*
X-229013Y177620D01*
X-229640Y177140D01*
X-230120Y176513D01*
X-230423Y175783D01*
X-230526Y175000D01*
X-230423Y174217D01*
X-230120Y173487D01*
X-229640Y172860D01*
X-229029Y172392D01*
Y102000D01*
X-228913Y101415D01*
X-228581Y100919D01*
X-220426Y92763D01*
X-220526Y92000D01*
X-220423Y91217D01*
X-220121Y90487D01*
X-219640Y89860D01*
X-219013Y89380D01*
X-218283Y89077D01*
X-217500Y88974D01*
X-216717Y89077D01*
X-215987Y89380D01*
X-215360Y89860D01*
X-214879Y90487D01*
X-214577Y91217D01*
X-214474Y92000D01*
X-214577Y92783D01*
X-214879Y93513D01*
X-215360Y94140D01*
X-215987Y94621D01*
X-216717Y94923D01*
X-217500Y95026D01*
X-218263Y94925D01*
X-225971Y102634D01*
Y172392D01*
X-225360Y172860D01*
X-224880Y173487D01*
X-224577Y174217D01*
X-224474Y175000D01*
X-224577Y175783D01*
X-224880Y176513D01*
X-225360Y177140D01*
X-225987Y177620D01*
X-226717Y177923D01*
X-227500Y178026D01*
D02*
G37*
G36*
X-267000Y92473D02*
Y88500D01*
X-263027D01*
X-263116Y89175D01*
X-263569Y90269D01*
X-264291Y91209D01*
X-265231Y91931D01*
X-266325Y92384D01*
X-267000Y92473D01*
D02*
G37*
G36*
X-268000D02*
X-268675Y92384D01*
X-269769Y91931D01*
X-270709Y91209D01*
X-271431Y90269D01*
X-271884Y89175D01*
X-271973Y88500D01*
X-268000D01*
Y92473D01*
D02*
G37*
G36*
X-263027Y87500D02*
X-267000D01*
Y83527D01*
X-266325Y83616D01*
X-265231Y84069D01*
X-264291Y84791D01*
X-263569Y85731D01*
X-263116Y86825D01*
X-263027Y87500D01*
D02*
G37*
G36*
X-268000D02*
X-271973D01*
X-271884Y86825D01*
X-271431Y85731D01*
X-270709Y84791D01*
X-269769Y84069D01*
X-268675Y83616D01*
X-268000Y83527D01*
Y87500D01*
D02*
G37*
G36*
X-227500Y81534D02*
X-228544Y81397D01*
X-229517Y80994D01*
X-230353Y80353D01*
X-230994Y79517D01*
X-231397Y78544D01*
X-231535Y77500D01*
X-231397Y76456D01*
X-230994Y75483D01*
X-230353Y74647D01*
X-229517Y74006D01*
X-228544Y73603D01*
X-227500Y73466D01*
X-226456Y73603D01*
X-225483Y74006D01*
X-224647Y74647D01*
X-224006Y75483D01*
X-223603Y76456D01*
X-223465Y77500D01*
X-223603Y78544D01*
X-224006Y79517D01*
X-224647Y80353D01*
X-225483Y80994D01*
X-226456Y81397D01*
X-227500Y81534D01*
D02*
G37*
G36*
X-257500D02*
X-258544Y81397D01*
X-259517Y80994D01*
X-260353Y80353D01*
X-260994Y79517D01*
X-261397Y78544D01*
X-261535Y77500D01*
X-261397Y76456D01*
X-260994Y75483D01*
X-260353Y74647D01*
X-259517Y74006D01*
X-258544Y73603D01*
X-257500Y73466D01*
X-256456Y73603D01*
X-255483Y74006D01*
X-254647Y74647D01*
X-254006Y75483D01*
X-253603Y76456D01*
X-253466Y77500D01*
X-253603Y78544D01*
X-254006Y79517D01*
X-254647Y80353D01*
X-255483Y80994D01*
X-256456Y81397D01*
X-257500Y81534D01*
D02*
G37*
G36*
X-267500Y82539D02*
X-268675Y82384D01*
X-269769Y81931D01*
X-270709Y81209D01*
X-271431Y80269D01*
X-271884Y79175D01*
X-272039Y78000D01*
X-271884Y76825D01*
X-271431Y75731D01*
X-270709Y74791D01*
X-269769Y74069D01*
X-269125Y73802D01*
X-268969Y73738D01*
X-269122Y73276D01*
X-269302Y73299D01*
X-270000Y73391D01*
X-270878Y73276D01*
X-271696Y72937D01*
X-272398Y72398D01*
X-272937Y71696D01*
X-273276Y70878D01*
X-273391Y70000D01*
X-273276Y69122D01*
X-272937Y68304D01*
X-272398Y67602D01*
X-271696Y67063D01*
X-270878Y66724D01*
X-270000Y66609D01*
X-269122Y66724D01*
X-268304Y67063D01*
X-267602Y67602D01*
X-267063Y68304D01*
X-266724Y69122D01*
X-266609Y70000D01*
X-266724Y70878D01*
X-267063Y71696D01*
X-267602Y72398D01*
X-268304Y72937D01*
X-268673Y73089D01*
X-268828Y73154D01*
X-268675Y73616D01*
X-268495Y73592D01*
X-267500Y73461D01*
X-266325Y73616D01*
X-265231Y74069D01*
X-264291Y74791D01*
X-263569Y75731D01*
X-263116Y76825D01*
X-262961Y78000D01*
X-263116Y79175D01*
X-263569Y80269D01*
X-264291Y81209D01*
X-265231Y81931D01*
X-266325Y82384D01*
X-267500Y82539D01*
D02*
G37*
G36*
X-269500Y65058D02*
Y62232D01*
X-266675D01*
X-266724Y62610D01*
X-267063Y63428D01*
X-267602Y64130D01*
X-268304Y64669D01*
X-269122Y65008D01*
X-269500Y65058D01*
D02*
G37*
G36*
X-270500D02*
X-270878Y65008D01*
X-271696Y64669D01*
X-272398Y64130D01*
X-272937Y63428D01*
X-273276Y62610D01*
X-273325Y62232D01*
X-270500D01*
Y65058D01*
D02*
G37*
G36*
X-227500Y61535D02*
X-228544Y61397D01*
X-229517Y60994D01*
X-230353Y60353D01*
X-230994Y59517D01*
X-231196Y59029D01*
X-253804D01*
X-254006Y59517D01*
X-254647Y60353D01*
X-255483Y60994D01*
X-256456Y61397D01*
X-257500Y61535D01*
X-258544Y61397D01*
X-259517Y60994D01*
X-260353Y60353D01*
X-260994Y59517D01*
X-261397Y58544D01*
X-261535Y57500D01*
X-261397Y56456D01*
X-260994Y55483D01*
X-260353Y54647D01*
X-259517Y54006D01*
X-258544Y53603D01*
X-257500Y53465D01*
X-256456Y53603D01*
X-255483Y54006D01*
X-254647Y54647D01*
X-254006Y55483D01*
X-253804Y55971D01*
X-231196D01*
X-230994Y55483D01*
X-230353Y54647D01*
X-229517Y54006D01*
X-228544Y53603D01*
X-227500Y53465D01*
X-226456Y53603D01*
X-225483Y54006D01*
X-224647Y54647D01*
X-224006Y55483D01*
X-223603Y56456D01*
X-223465Y57500D01*
X-223603Y58544D01*
X-224006Y59517D01*
X-224647Y60353D01*
X-225483Y60994D01*
X-226456Y61397D01*
X-227500Y61535D01*
D02*
G37*
G36*
X-266675Y61232D02*
X-269500D01*
Y58407D01*
X-269122Y58457D01*
X-268304Y58795D01*
X-267602Y59334D01*
X-267063Y60037D01*
X-266724Y60855D01*
X-266675Y61232D01*
D02*
G37*
G36*
X-270500D02*
X-273325D01*
X-273276Y60855D01*
X-272937Y60037D01*
X-272398Y59334D01*
X-271696Y58795D01*
X-270878Y58457D01*
X-270500Y58407D01*
Y61232D01*
D02*
G37*
G36*
X-250000Y53391D02*
X-250878Y53276D01*
X-251696Y52937D01*
X-252398Y52398D01*
X-252937Y51696D01*
X-253276Y50878D01*
X-253391Y50000D01*
X-253276Y49122D01*
X-252937Y48304D01*
X-252398Y47602D01*
X-251696Y47063D01*
X-250878Y46724D01*
X-250000Y46609D01*
X-249122Y46724D01*
X-248304Y47063D01*
X-247602Y47602D01*
X-247063Y48304D01*
X-246724Y49122D01*
X-246609Y50000D01*
X-246724Y50878D01*
X-247063Y51696D01*
X-247602Y52398D01*
X-248304Y52937D01*
X-249122Y53276D01*
X-250000Y53391D01*
D02*
G37*
G36*
X-270000D02*
X-270878Y53276D01*
X-271696Y52937D01*
X-272398Y52398D01*
X-272937Y51696D01*
X-273276Y50878D01*
X-273391Y50000D01*
X-273276Y49122D01*
X-272937Y48304D01*
X-272398Y47602D01*
X-271696Y47063D01*
X-270878Y46724D01*
X-270000Y46609D01*
X-269122Y46724D01*
X-268304Y47063D01*
X-267602Y47602D01*
X-267063Y48304D01*
X-266724Y49122D01*
X-266609Y50000D01*
X-266724Y50878D01*
X-267063Y51696D01*
X-267602Y52398D01*
X-268304Y52937D01*
X-269122Y53276D01*
X-270000Y53391D01*
D02*
G37*
G36*
X-282500Y47500D02*
X-287000D01*
Y43000D01*
X-282500D01*
Y47500D01*
D02*
G37*
G36*
X-249500Y45058D02*
Y42232D01*
X-246675D01*
X-246724Y42610D01*
X-247063Y43428D01*
X-247602Y44130D01*
X-248304Y44669D01*
X-249122Y45008D01*
X-249500Y45058D01*
D02*
G37*
G36*
X-250500D02*
X-250878Y45008D01*
X-251696Y44669D01*
X-252398Y44130D01*
X-252937Y43428D01*
X-253276Y42610D01*
X-253325Y42232D01*
X-250500D01*
Y45058D01*
D02*
G37*
G36*
X-269500D02*
Y42232D01*
X-266675D01*
X-266724Y42610D01*
X-267063Y43428D01*
X-267602Y44130D01*
X-268304Y44669D01*
X-269122Y45008D01*
X-269500Y45058D01*
D02*
G37*
G36*
X-270500D02*
X-270878Y45008D01*
X-271696Y44669D01*
X-272398Y44130D01*
X-272937Y43428D01*
X-273276Y42610D01*
X-273325Y42232D01*
X-270500D01*
Y45058D01*
D02*
G37*
G36*
X-246675Y41232D02*
X-249500D01*
Y38407D01*
X-249122Y38457D01*
X-248304Y38795D01*
X-247602Y39334D01*
X-247063Y40037D01*
X-246724Y40855D01*
X-246675Y41232D01*
D02*
G37*
G36*
X-250500D02*
X-253325D01*
X-253276Y40855D01*
X-252937Y40037D01*
X-252398Y39334D01*
X-251696Y38795D01*
X-250878Y38457D01*
X-250500Y38407D01*
Y41232D01*
D02*
G37*
G36*
X-266675D02*
X-269500D01*
Y38407D01*
X-269122Y38457D01*
X-268304Y38795D01*
X-267602Y39334D01*
X-267063Y40037D01*
X-266724Y40855D01*
X-266675Y41232D01*
D02*
G37*
G36*
X-270500D02*
X-273325D01*
X-273276Y40855D01*
X-272937Y40037D01*
X-272398Y39334D01*
X-271696Y38795D01*
X-270878Y38457D01*
X-270500Y38407D01*
Y41232D01*
D02*
G37*
G36*
X-282500Y42000D02*
X-287000D01*
Y37500D01*
X-282500D01*
Y42000D01*
D02*
G37*
%LPD*%
G36*
X-316154Y315951D02*
X-316867Y315022D01*
X-317371Y313805D01*
X-317543Y312500D01*
X-317371Y311195D01*
X-316867Y309978D01*
X-316066Y308934D01*
X-315022Y308133D01*
X-314148Y307771D01*
Y307229D01*
X-315022Y306868D01*
X-316066Y306066D01*
X-316867Y305022D01*
X-317371Y303805D01*
X-317543Y302500D01*
X-317371Y301195D01*
X-316867Y299978D01*
X-316066Y298934D01*
X-315022Y298132D01*
X-314148Y297771D01*
Y297229D01*
X-315022Y296867D01*
X-316066Y296066D01*
X-316867Y295022D01*
X-317371Y293805D01*
X-317543Y292500D01*
X-317371Y291195D01*
X-316867Y289978D01*
X-316066Y288934D01*
X-315022Y288133D01*
X-314148Y287771D01*
Y287229D01*
X-315022Y286867D01*
X-316066Y286066D01*
X-316867Y285022D01*
X-317371Y283805D01*
X-317543Y282500D01*
X-317371Y281195D01*
X-316867Y279978D01*
X-316066Y278934D01*
X-315022Y278133D01*
X-313805Y277629D01*
X-312500Y277457D01*
X-311195Y277629D01*
X-309978Y278133D01*
X-309049Y278846D01*
X-308549Y278677D01*
Y254748D01*
X-314802Y248495D01*
X-315355Y247668D01*
X-315549Y246692D01*
Y173601D01*
X-316049Y173569D01*
X-316077Y173783D01*
X-316379Y174513D01*
X-316860Y175140D01*
X-317487Y175620D01*
X-318217Y175923D01*
X-318333Y175938D01*
X-318451Y176056D01*
Y298500D01*
X-318645Y299476D01*
X-319198Y300302D01*
X-322624Y303729D01*
X-322457Y305000D01*
X-322629Y306305D01*
X-323132Y307522D01*
X-323934Y308566D01*
X-324978Y309367D01*
X-326195Y309871D01*
X-327500Y310043D01*
X-328243Y309945D01*
X-328476Y310419D01*
X-322444Y316451D01*
X-316323D01*
X-316154Y315951D01*
D02*
G37*
G36*
X-211648Y235271D02*
Y234729D01*
X-212522Y234367D01*
X-213566Y233566D01*
X-214368Y232522D01*
X-214871Y231305D01*
X-215043Y230000D01*
X-214871Y228695D01*
X-214460Y227703D01*
X-320009Y122154D01*
X-320471Y122346D01*
Y127366D01*
X-212297Y235540D01*
X-211648Y235271D01*
D02*
G37*
G36*
Y225271D02*
Y224729D01*
X-212522Y224367D01*
X-213566Y223566D01*
X-214368Y222522D01*
X-214871Y221305D01*
X-215043Y220000D01*
X-214871Y218695D01*
X-214460Y217703D01*
X-317509Y114654D01*
X-317971Y114846D01*
Y119867D01*
X-212297Y225540D01*
X-211648Y225271D01*
D02*
G37*
G36*
Y205271D02*
Y204729D01*
X-212522Y204367D01*
X-213566Y203566D01*
X-214368Y202522D01*
X-214871Y201305D01*
X-215043Y200000D01*
X-214871Y198695D01*
X-214460Y197703D01*
X-298581Y113581D01*
X-298913Y113085D01*
X-299029Y112500D01*
Y112453D01*
X-299529Y112420D01*
X-299577Y112783D01*
X-299880Y113513D01*
X-300360Y114140D01*
X-300987Y114620D01*
X-301717Y114923D01*
X-302150Y114980D01*
X-302329Y115508D01*
X-212297Y205540D01*
X-211648Y205271D01*
D02*
G37*
G36*
Y215271D02*
Y214729D01*
X-212522Y214368D01*
X-213566Y213566D01*
X-214368Y212522D01*
X-214871Y211305D01*
X-215043Y210000D01*
X-214871Y208695D01*
X-214460Y207703D01*
X-308581Y113581D01*
X-308913Y113085D01*
X-309029Y112500D01*
Y84325D01*
X-309503Y84165D01*
X-309647Y84353D01*
X-310483Y84994D01*
X-311456Y85397D01*
X-312000Y85469D01*
Y81500D01*
Y77531D01*
X-311456Y77603D01*
X-310483Y78006D01*
X-309647Y78647D01*
X-309503Y78835D01*
X-309029Y78675D01*
Y67526D01*
X-309503Y67365D01*
X-309647Y67553D01*
X-310483Y68194D01*
X-311456Y68597D01*
X-312000Y68669D01*
Y64700D01*
Y60731D01*
X-311456Y60803D01*
X-310483Y61206D01*
X-309647Y61847D01*
X-309503Y62035D01*
X-309029Y61875D01*
Y47278D01*
X-310022Y46867D01*
X-311066Y46066D01*
X-311867Y45022D01*
X-312229Y44148D01*
X-312771D01*
X-313133Y45022D01*
X-313934Y46066D01*
X-314978Y46867D01*
X-315971Y47278D01*
Y61875D01*
X-315497Y62035D01*
X-315353Y61847D01*
X-314517Y61206D01*
X-313544Y60803D01*
X-313000Y60731D01*
Y64700D01*
Y68669D01*
X-313544Y68597D01*
X-314517Y68194D01*
X-315353Y67553D01*
X-315497Y67365D01*
X-315971Y67526D01*
Y78675D01*
X-315497Y78835D01*
X-315353Y78647D01*
X-314517Y78006D01*
X-313544Y77603D01*
X-313000Y77531D01*
Y81500D01*
Y85469D01*
X-313544Y85397D01*
X-314517Y84994D01*
X-315353Y84353D01*
X-315497Y84165D01*
X-315971Y84325D01*
Y111866D01*
X-212297Y215540D01*
X-211648Y215271D01*
D02*
G37*
G36*
X-287636Y119861D02*
X-287434Y119696D01*
X-287526Y119000D01*
X-287423Y118217D01*
X-287121Y117487D01*
X-287049Y117394D01*
Y73756D01*
X-292120Y68685D01*
X-292500Y68735D01*
X-293544Y68597D01*
X-294517Y68194D01*
X-295353Y67553D01*
X-295497Y67365D01*
X-295971Y67526D01*
Y78675D01*
X-295497Y78835D01*
X-295353Y78647D01*
X-294517Y78006D01*
X-293544Y77603D01*
X-292500Y77465D01*
X-291456Y77603D01*
X-290483Y78006D01*
X-289647Y78647D01*
X-289006Y79483D01*
X-288603Y80456D01*
X-288465Y81500D01*
X-288603Y82544D01*
X-289006Y83517D01*
X-289647Y84353D01*
X-289951Y84586D01*
Y110394D01*
X-289879Y110487D01*
X-289577Y111217D01*
X-289474Y112000D01*
X-289577Y112783D01*
X-289879Y113513D01*
X-290360Y114140D01*
X-290987Y114620D01*
X-291717Y114923D01*
X-292150Y114980D01*
X-292329Y115508D01*
X-287885Y119952D01*
X-287636Y119861D01*
D02*
G37*
G36*
X-305353Y78647D02*
X-304517Y78006D01*
X-303544Y77603D01*
X-302500Y77465D01*
X-301456Y77603D01*
X-300483Y78006D01*
X-299647Y78647D01*
X-299503Y78835D01*
X-299029Y78675D01*
Y67526D01*
X-299503Y67365D01*
X-299647Y67553D01*
X-300483Y68194D01*
X-301456Y68597D01*
X-302500Y68735D01*
X-303544Y68597D01*
X-304517Y68194D01*
X-305353Y67553D01*
X-305497Y67365D01*
X-305971Y67526D01*
Y78675D01*
X-305497Y78835D01*
X-305353Y78647D01*
D02*
G37*
G36*
Y61847D02*
X-304517Y61206D01*
X-303544Y60803D01*
X-302500Y60666D01*
X-301456Y60803D01*
X-300483Y61206D01*
X-299647Y61847D01*
X-299503Y62035D01*
X-299029Y61875D01*
Y47278D01*
X-300022Y46867D01*
X-301066Y46066D01*
X-301868Y45022D01*
X-302229Y44148D01*
X-302771D01*
X-303133Y45022D01*
X-303934Y46066D01*
X-304978Y46867D01*
X-305971Y47278D01*
Y61875D01*
X-305497Y62035D01*
X-305353Y61847D01*
D02*
G37*
G36*
X-161529Y299366D02*
Y249779D01*
X-162522Y249367D01*
X-162951Y249038D01*
X-163451Y249285D01*
Y276000D01*
X-163645Y276975D01*
X-164198Y277802D01*
X-167624Y281229D01*
X-167457Y282500D01*
X-167629Y283805D01*
X-168132Y285022D01*
X-168934Y286066D01*
X-169978Y286867D01*
X-170852Y287229D01*
Y287771D01*
X-169978Y288133D01*
X-168934Y288934D01*
X-168132Y289978D01*
X-167629Y291195D01*
X-167457Y292500D01*
X-167629Y293805D01*
X-168132Y295022D01*
X-168934Y296066D01*
X-169978Y296867D01*
X-170852Y297229D01*
Y297771D01*
X-169978Y298132D01*
X-168934Y298934D01*
X-168132Y299978D01*
X-167629Y301195D01*
X-167457Y302500D01*
X-167629Y303805D01*
X-168132Y305022D01*
X-168934Y306066D01*
X-169978Y306868D01*
X-170852Y307229D01*
Y307771D01*
X-170203Y308040D01*
X-161529Y299366D01*
D02*
G37*
G36*
X-76529Y237145D02*
Y165779D01*
X-77522Y165367D01*
X-78566Y164566D01*
X-79368Y163522D01*
X-79729Y162648D01*
X-80271D01*
X-80540Y163297D01*
X-79419Y164419D01*
X-79087Y164915D01*
X-78971Y165500D01*
Y225500D01*
X-79087Y226085D01*
X-79419Y226581D01*
X-95540Y242703D01*
X-95271Y243352D01*
X-94729D01*
X-94367Y242478D01*
X-93566Y241434D01*
X-92522Y240633D01*
X-91305Y240129D01*
X-90000Y239957D01*
X-88695Y240129D01*
X-87478Y240633D01*
X-86434Y241434D01*
X-85632Y242478D01*
X-85129Y243695D01*
X-84973Y244881D01*
X-84513Y245128D01*
X-76529Y237145D01*
D02*
G37*
G36*
X-114367Y242478D02*
X-113566Y241434D01*
X-112522Y240633D01*
X-111305Y240129D01*
X-110000Y239957D01*
X-108695Y240129D01*
X-107478Y240633D01*
X-106434Y241434D01*
X-105632Y242478D01*
X-105271Y243352D01*
X-104729D01*
X-104367Y242478D01*
X-103566Y241434D01*
X-102522Y240633D01*
X-101305Y240129D01*
X-100000Y239957D01*
X-98695Y240129D01*
X-97703Y240540D01*
X-82029Y224867D01*
Y209846D01*
X-82491Y209654D01*
X-115540Y242703D01*
X-115271Y243352D01*
X-114729D01*
X-114367Y242478D01*
D02*
G37*
G36*
X-124367D02*
X-123566Y241434D01*
X-122522Y240633D01*
X-121305Y240129D01*
X-120000Y239957D01*
X-118695Y240129D01*
X-117702Y240540D01*
X-84029Y206867D01*
Y201846D01*
X-84491Y201654D01*
X-125540Y242703D01*
X-125271Y243352D01*
X-124729D01*
X-124367Y242478D01*
D02*
G37*
G36*
X-84029Y179154D02*
Y174134D01*
X-92703Y165460D01*
X-93695Y165871D01*
X-95000Y166043D01*
X-96305Y165871D01*
X-97522Y165367D01*
X-98566Y164566D01*
X-99367Y163522D01*
X-99729Y162648D01*
X-100271D01*
X-100540Y163297D01*
X-84491Y179346D01*
X-84029Y179154D01*
D02*
G37*
G36*
X-91305Y180129D02*
X-90000Y179957D01*
X-89231Y180058D01*
X-88687Y179625D01*
X-88673Y179490D01*
X-102702Y165460D01*
X-103695Y165871D01*
X-105000Y166043D01*
X-105769Y165942D01*
X-106314Y166375D01*
X-106327Y166510D01*
X-92297Y180540D01*
X-91305Y180129D01*
D02*
G37*
G36*
X-46029Y306366D02*
Y293841D01*
X-46529Y293634D01*
X-73985Y321090D01*
X-73824Y321563D01*
X-73717Y321577D01*
X-72987Y321880D01*
X-72360Y322360D01*
X-71892Y322971D01*
X-62634D01*
X-46029Y306366D01*
D02*
G37*
G36*
X-23639Y318971D02*
X-24367Y318022D01*
X-24871Y316805D01*
X-25043Y315500D01*
X-24871Y314195D01*
X-24367Y312978D01*
X-23566Y311934D01*
X-22522Y311133D01*
X-21648Y310771D01*
Y310229D01*
X-22522Y309868D01*
X-23566Y309066D01*
X-24367Y308022D01*
X-24871Y306805D01*
X-25043Y305500D01*
X-24871Y304195D01*
X-24367Y302978D01*
X-23566Y301934D01*
X-22522Y301132D01*
X-21648Y300771D01*
Y300229D01*
X-22522Y299868D01*
X-23566Y299066D01*
X-24367Y298022D01*
X-24871Y296805D01*
X-25043Y295500D01*
X-24871Y294195D01*
X-24367Y292978D01*
X-23566Y291934D01*
X-22522Y291132D01*
X-21648Y290771D01*
Y290229D01*
X-22522Y289867D01*
X-23566Y289066D01*
X-24367Y288022D01*
X-24871Y286805D01*
X-25043Y285500D01*
X-24871Y284195D01*
X-24367Y282978D01*
X-23566Y281934D01*
X-22522Y281133D01*
X-21648Y280771D01*
Y280229D01*
X-22522Y279868D01*
X-23566Y279066D01*
X-24367Y278022D01*
X-24871Y276805D01*
X-25043Y275500D01*
X-24871Y274195D01*
X-24367Y272978D01*
X-23566Y271934D01*
X-22522Y271132D01*
X-21648Y270771D01*
Y270229D01*
X-22522Y269867D01*
X-23566Y269066D01*
X-24367Y268022D01*
X-24779Y267029D01*
X-34367D01*
X-42971Y275634D01*
Y307000D01*
X-43087Y307585D01*
X-43419Y308081D01*
X-54346Y319009D01*
X-54154Y319471D01*
X-23789D01*
X-23639Y318971D01*
D02*
G37*
G36*
X-36081Y264419D02*
X-35585Y264087D01*
X-35000Y263971D01*
X-24779D01*
X-24367Y262978D01*
X-23566Y261934D01*
X-22522Y261133D01*
X-21648Y260771D01*
Y260229D01*
X-22522Y259868D01*
X-23566Y259066D01*
X-24367Y258022D01*
X-24871Y256805D01*
X-25043Y255500D01*
X-24871Y254195D01*
X-24367Y252978D01*
X-23566Y251934D01*
X-22522Y251132D01*
X-21648Y250771D01*
Y250229D01*
X-22522Y249868D01*
X-23566Y249066D01*
X-24367Y248022D01*
X-24871Y246805D01*
X-24977Y246000D01*
X-20000D01*
Y245000D01*
X-24977D01*
X-24945Y244757D01*
X-25419Y244524D01*
X-45451Y264556D01*
Y273135D01*
X-44989Y273326D01*
X-36081Y264419D01*
D02*
G37*
G36*
X-16029Y231711D02*
Y218634D01*
X-45203Y189460D01*
X-46195Y189871D01*
X-47500Y190043D01*
X-48805Y189871D01*
X-50022Y189367D01*
X-51066Y188566D01*
X-51868Y187522D01*
X-52229Y186648D01*
X-52771D01*
X-53132Y187522D01*
X-53934Y188566D01*
X-54978Y189367D01*
X-56195Y189871D01*
X-57000Y189977D01*
Y185000D01*
Y180023D01*
X-56195Y180129D01*
X-54978Y180632D01*
X-53934Y181434D01*
X-53132Y182478D01*
X-52771Y183352D01*
X-52229D01*
X-51868Y182478D01*
X-51066Y181434D01*
X-50022Y180632D01*
X-48805Y180129D01*
X-47500Y179957D01*
X-46905Y180035D01*
X-46529Y179706D01*
Y168341D01*
X-47029Y168134D01*
X-58476Y179581D01*
X-58243Y180055D01*
X-58000Y180023D01*
Y185000D01*
Y189977D01*
X-58805Y189871D01*
X-60022Y189367D01*
X-61066Y188566D01*
X-61867Y187522D01*
X-62229Y186648D01*
X-62771D01*
X-63133Y187522D01*
X-63671Y188224D01*
X-21271Y230624D01*
X-20000Y230457D01*
X-18695Y230629D01*
X-17478Y231133D01*
X-16529Y231861D01*
X-16029Y231711D01*
D02*
G37*
G36*
X-13092Y216671D02*
X-13029Y216623D01*
Y211633D01*
X-35203Y189460D01*
X-36195Y189871D01*
X-37500Y190043D01*
X-38805Y189871D01*
X-40022Y189367D01*
X-41066Y188566D01*
X-41868Y187522D01*
X-42229Y186648D01*
X-42771D01*
X-43040Y187297D01*
X-13529Y216808D01*
X-13092Y216671D01*
D02*
G37*
G36*
X-41868Y182478D02*
X-41066Y181434D01*
X-40022Y180632D01*
X-39029Y180221D01*
Y153633D01*
X-43464Y149199D01*
X-43852Y149518D01*
X-43587Y149915D01*
X-43471Y150500D01*
Y182038D01*
X-43132Y182478D01*
X-42771Y183352D01*
X-42229D01*
X-41868Y182478D01*
D02*
G37*
G36*
X-46529Y152659D02*
Y151134D01*
X-108737Y88925D01*
X-109500Y89026D01*
X-109841Y88981D01*
X-110192Y89439D01*
X-110077Y89717D01*
X-110062Y89833D01*
X-47029Y152866D01*
X-46529Y152659D01*
D02*
G37*
D13*
X-172500Y282500D02*
X-166000Y276000D01*
Y249000D02*
Y276000D01*
X-170000Y245000D02*
X-166000Y249000D01*
X-321000Y175000D02*
X-319000Y173000D01*
X-321000Y175000D02*
Y298500D01*
X-327500Y305000D02*
X-321000Y298500D01*
X-337500Y305000D02*
X-323500Y319000D01*
X-309808D01*
X-306000Y315192D01*
Y253692D02*
Y315192D01*
X-313000Y246692D02*
X-306000Y253692D01*
X-313000Y157000D02*
Y246692D01*
Y146500D02*
X-246500Y213000D01*
Y244000D01*
X-84000Y335000D02*
X-78000Y341000D01*
X-84000Y327500D02*
Y335000D01*
X-67500Y188000D02*
X-20000Y235500D01*
X-67500Y185000D02*
Y188000D01*
X-65000Y148000D02*
Y161000D01*
X-135500Y77500D02*
X-65000Y148000D01*
X-67500Y185000D02*
X-48500Y166000D01*
Y155000D02*
Y166000D01*
X-113000Y90500D02*
X-48500Y155000D01*
X-292500Y64700D02*
X-284500Y72700D01*
Y119000D01*
X-302500Y81500D02*
Y112000D01*
X-292500Y81500D02*
Y112000D01*
X-48000Y263500D02*
X-20000Y235500D01*
X-48000Y263500D02*
Y291500D01*
X-84000Y327500D02*
X-48000Y291500D01*
D15*
X-193000Y71500D02*
Y112000D01*
X-182500Y92500D02*
X-90000Y185000D01*
X-182500Y71500D02*
Y92500D01*
X-130000Y245000D02*
X-84500Y199500D01*
Y181500D02*
Y199500D01*
X-105000Y161000D02*
X-84500Y181500D01*
X-120000Y245000D02*
X-82500Y207500D01*
Y173500D02*
Y207500D01*
X-95000Y161000D02*
X-82500Y173500D01*
X-100000Y245000D02*
X-80500Y225500D01*
Y165500D02*
Y225500D01*
X-85000Y161000D02*
X-80500Y165500D01*
X-87722Y250500D02*
X-75000Y237778D01*
Y161000D02*
Y237778D01*
X-110000Y245000D02*
X-104500Y250500D01*
X-87722D01*
X-193000Y112000D02*
X-120000Y185000D01*
X-220000Y104500D02*
X-207500Y92000D01*
X-227500Y102000D02*
X-217500Y92000D01*
X-220000Y104500D02*
Y179500D01*
X-227500Y102000D02*
Y175000D01*
X-257500Y57500D02*
X-227500D01*
X-160000Y245000D02*
Y300000D01*
X-172500Y312500D02*
X-160000Y300000D01*
X-319500Y120500D02*
X-210000Y230000D01*
X-322000Y128000D02*
X-210000Y240000D01*
X-322879Y49500D02*
X-322000Y50379D01*
X-326500Y42500D02*
X-319500Y49500D01*
X-337500Y42500D02*
X-330500Y49500D01*
X-322879D01*
X-322000Y50379D02*
Y128000D01*
X-319500Y49500D02*
Y120500D01*
X-317500Y42500D02*
Y112500D01*
X-210000Y220000D01*
X-307500Y112500D02*
X-210000Y210000D01*
X-297500Y42500D02*
Y112500D01*
X-307500Y42500D02*
Y112500D01*
X-297500D02*
X-210000Y200000D01*
X-202899Y63359D02*
Y112101D01*
X-130000Y185000D01*
X-63610Y329610D02*
X-55000Y321000D01*
X-17722D01*
X-14500Y317778D01*
Y261000D02*
Y317778D01*
X-20000Y255500D02*
X-14500Y261000D01*
X-74500Y324500D02*
X-62000D01*
X-20000Y255500D02*
X-14500Y250000D01*
X-11500Y211000D02*
Y257000D01*
X-37500Y185000D02*
X-11500Y211000D01*
X-47500Y185000D02*
X-14500Y218000D01*
Y250000D01*
X-47500Y185000D02*
X-45000Y182500D01*
Y150500D02*
Y182500D01*
X-37500Y153000D02*
Y185000D01*
X-109500Y86000D02*
X-45000Y150500D01*
X-110000Y80500D02*
X-37500Y153000D01*
X-62000Y324500D02*
X-44500Y307000D01*
Y275000D02*
Y307000D01*
Y275000D02*
X-35000Y265500D01*
X-20000D01*
X-53000Y233500D02*
Y290000D01*
X-120000Y264000D02*
Y322000D01*
X-110000Y258500D02*
Y322000D01*
X-69000Y229000D02*
X-68000Y228000D01*
X-69000Y229000D02*
Y302500D01*
D16*
X-357500Y195000D02*
X-347500D01*
X-365500D02*
X-357500D01*
D17*
X-78000Y331000D02*
D03*
X-267500Y78000D02*
D03*
Y88000D02*
D03*
Y98000D02*
D03*
D18*
X-78000Y341000D02*
D03*
D19*
X-37500Y185000D02*
D03*
X-47500D02*
D03*
X-17500D02*
D03*
X-27500D02*
D03*
X-57500D02*
D03*
X-67500D02*
D03*
X-20000Y265500D02*
D03*
Y255500D02*
D03*
Y315500D02*
D03*
Y305500D02*
D03*
Y235500D02*
D03*
Y245500D02*
D03*
Y295500D02*
D03*
Y285500D02*
D03*
Y275500D02*
D03*
X-65000Y161000D02*
D03*
X-55000D02*
D03*
X-75000D02*
D03*
X-85000D02*
D03*
X-95000D02*
D03*
X-105000D02*
D03*
X-120000Y245000D02*
D03*
X-110000D02*
D03*
X-130000D02*
D03*
X-90000D02*
D03*
X-100000D02*
D03*
X-150000D02*
D03*
X-140000D02*
D03*
X-160000D02*
D03*
X-155500Y233500D02*
D03*
X-165500D02*
D03*
X-90000Y185000D02*
D03*
X-100000D02*
D03*
X-110000D02*
D03*
X-120000D02*
D03*
X-150000D02*
D03*
X-160000D02*
D03*
X-130000D02*
D03*
X-140000D02*
D03*
X-190000Y245000D02*
D03*
X-170000D02*
D03*
X-180000D02*
D03*
X-200000D02*
D03*
X-210000Y240000D02*
D03*
Y220000D02*
D03*
Y230000D02*
D03*
X-190000Y185000D02*
D03*
X-180000D02*
D03*
X-200000D02*
D03*
X-170000D02*
D03*
X-210000Y210000D02*
D03*
Y190000D02*
D03*
Y200000D02*
D03*
X-266500Y244000D02*
D03*
X-256500D02*
D03*
X-306500D02*
D03*
X-296500D02*
D03*
X-236500D02*
D03*
X-246500D02*
D03*
X-286500D02*
D03*
X-276500D02*
D03*
X-100000Y322000D02*
D03*
X-90000D02*
D03*
X-130000D02*
D03*
X-110000D02*
D03*
X-120000D02*
D03*
X-140000D02*
D03*
X-150000D02*
D03*
X-160000D02*
D03*
X-172500Y322500D02*
D03*
Y312500D02*
D03*
Y302500D02*
D03*
Y272500D02*
D03*
Y292500D02*
D03*
Y282500D02*
D03*
X-312500Y312500D02*
D03*
Y302500D02*
D03*
Y292500D02*
D03*
Y282500D02*
D03*
X-307500Y42500D02*
D03*
X-297500D02*
D03*
X-317500D02*
D03*
X-327500D02*
D03*
X-337500D02*
D03*
Y55000D02*
D03*
X-327500Y65000D02*
D03*
X-337500D02*
D03*
X-327500Y75000D02*
D03*
X-337500D02*
D03*
X-327500Y85000D02*
D03*
X-337500D02*
D03*
X-327500Y95000D02*
D03*
X-337500D02*
D03*
X-327500Y105000D02*
D03*
X-337500D02*
D03*
X-327500Y115000D02*
D03*
X-337500D02*
D03*
X-327500Y125000D02*
D03*
X-337500D02*
D03*
X-327500Y135000D02*
D03*
X-337500D02*
D03*
X-327500Y145000D02*
D03*
X-337500D02*
D03*
X-327500Y155000D02*
D03*
X-337500D02*
D03*
X-327500Y165000D02*
D03*
X-337500D02*
D03*
X-327500Y175000D02*
D03*
X-337500D02*
D03*
X-327500Y185000D02*
D03*
X-337500D02*
D03*
X-327500Y195000D02*
D03*
X-337500D02*
D03*
X-327500Y205000D02*
D03*
X-337500D02*
D03*
X-327500Y215000D02*
D03*
X-337500D02*
D03*
X-327500Y225000D02*
D03*
X-337500D02*
D03*
X-327500Y235000D02*
D03*
X-337500D02*
D03*
X-327500Y245000D02*
D03*
X-337500D02*
D03*
X-327500Y255000D02*
D03*
X-337500D02*
D03*
X-327500Y265000D02*
D03*
X-337500D02*
D03*
X-327500Y275000D02*
D03*
X-337500D02*
D03*
X-327500Y285000D02*
D03*
X-337500D02*
D03*
X-327500Y295000D02*
D03*
X-337500D02*
D03*
Y305000D02*
D03*
X-327500D02*
D03*
X-357500Y55000D02*
D03*
X-347500Y65000D02*
D03*
X-357500D02*
D03*
X-347500Y75000D02*
D03*
X-357500D02*
D03*
X-347500Y85000D02*
D03*
X-357500D02*
D03*
X-347500Y95000D02*
D03*
X-357500D02*
D03*
X-347500Y105000D02*
D03*
X-357500D02*
D03*
X-347500Y115000D02*
D03*
X-357500D02*
D03*
X-347500Y125000D02*
D03*
X-357500D02*
D03*
X-347500Y135000D02*
D03*
X-357500D02*
D03*
X-347500Y145000D02*
D03*
X-357500D02*
D03*
X-347500Y155000D02*
D03*
X-357500D02*
D03*
X-347500Y165000D02*
D03*
X-357500D02*
D03*
X-347500Y175000D02*
D03*
X-357500D02*
D03*
X-347500Y185000D02*
D03*
X-357500D02*
D03*
X-347500Y195000D02*
D03*
X-357500D02*
D03*
X-347500Y205000D02*
D03*
X-357500D02*
D03*
X-347500Y215000D02*
D03*
X-357500D02*
D03*
X-347500Y225000D02*
D03*
X-357500D02*
D03*
X-347500Y235000D02*
D03*
X-357500D02*
D03*
X-347500Y245000D02*
D03*
X-357500D02*
D03*
X-347500Y255000D02*
D03*
X-357500D02*
D03*
X-347500Y265000D02*
D03*
X-357500D02*
D03*
X-347500Y275000D02*
D03*
X-357500D02*
D03*
X-347500Y285000D02*
D03*
X-357500D02*
D03*
X-347500Y295000D02*
D03*
X-357500D02*
D03*
Y305000D02*
D03*
X-347500D02*
D03*
D20*
X-175000Y90500D02*
D03*
X-165000D02*
D03*
X-155000D02*
D03*
X-145000D02*
D03*
X-135000D02*
D03*
D21*
X-270000Y70000D02*
D03*
Y61732D02*
D03*
X-250000Y50000D02*
D03*
Y41732D02*
D03*
X-270000Y50000D02*
D03*
Y41732D02*
D03*
D22*
X-227500Y77500D02*
D03*
Y57500D02*
D03*
X-257500Y77500D02*
D03*
Y57500D02*
D03*
X-292500Y64700D02*
D03*
X-302500D02*
D03*
X-312500D02*
D03*
X-292500Y81500D02*
D03*
X-302500D02*
D03*
X-312500D02*
D03*
D23*
X-287500Y42500D02*
D03*
D24*
X-327500Y55000D02*
D03*
X-347500D02*
D03*
D25*
X-193000Y71500D02*
D03*
X-20000Y29500D02*
D03*
Y10500D02*
D03*
X-28000Y25000D02*
D03*
Y15000D02*
D03*
X-12000Y25000D02*
D03*
Y15000D02*
D03*
X-20000Y344500D02*
D03*
Y325500D02*
D03*
X-28000Y340000D02*
D03*
Y330000D02*
D03*
X-12000Y340000D02*
D03*
Y330000D02*
D03*
X-357500Y334500D02*
D03*
Y315500D02*
D03*
X-365500Y330000D02*
D03*
Y320000D02*
D03*
X-349500Y330000D02*
D03*
Y320000D02*
D03*
X-357400Y44500D02*
D03*
Y25500D02*
D03*
X-365400Y40000D02*
D03*
Y30000D02*
D03*
X-349400Y40000D02*
D03*
Y30000D02*
D03*
X-207500Y92000D02*
D03*
X-217500D02*
D03*
X-319000Y173000D02*
D03*
X-212500Y71500D02*
D03*
X-220000Y179500D02*
D03*
X-227500Y175000D02*
D03*
X-202899Y63359D02*
D03*
X-182500Y71500D02*
D03*
X-313000Y157000D02*
D03*
Y146500D02*
D03*
X-63610Y329610D02*
D03*
X-74500Y324500D02*
D03*
X-11500Y257000D02*
D03*
X-135500Y77500D02*
D03*
X-113000Y90500D02*
D03*
X-68000Y228000D02*
D03*
X-53000Y233500D02*
D03*
X-109500Y86000D02*
D03*
X-110000Y80500D02*
D03*
X-284500Y119000D02*
D03*
X-292500Y112000D02*
D03*
X-302500D02*
D03*
X-53000Y290000D02*
D03*
X-69000Y302500D02*
D03*
X-68768Y337732D02*
D03*
X-25500Y161000D02*
D03*
X-110000Y258500D02*
D03*
X-120000Y264000D02*
D03*
X-74000Y245500D02*
D03*
D26*
X-357500Y325000D02*
D03*
X-20000Y335000D02*
D03*
Y20000D02*
D03*
X-357500Y35000D02*
D03*
M02*
