G04 Layer_Color=12632256*
%FSLAX25Y25*%
%MOIN*%
G70*
G01*
G75*
%ADD17C,0.07000*%
%ADD18R,0.07000X0.07000*%
%ADD19C,0.08000*%
%ADD20C,0.07874*%
%ADD21C,0.04724*%
%ADD22C,0.06000*%
%ADD23R,0.08000X0.08000*%
%ADD24R,0.08000X0.08000*%
D17*
X-78000Y331000D02*
D03*
X-267500Y78000D02*
D03*
Y88000D02*
D03*
Y98000D02*
D03*
D18*
X-78000Y341000D02*
D03*
D19*
X-37500Y185000D02*
D03*
X-47500D02*
D03*
X-17500D02*
D03*
X-27500D02*
D03*
X-57500D02*
D03*
X-67500D02*
D03*
X-20000Y265500D02*
D03*
Y255500D02*
D03*
Y315500D02*
D03*
Y305500D02*
D03*
Y235500D02*
D03*
Y245500D02*
D03*
Y295500D02*
D03*
Y285500D02*
D03*
Y275500D02*
D03*
X-65000Y161000D02*
D03*
X-55000D02*
D03*
X-75000D02*
D03*
X-85000D02*
D03*
X-95000D02*
D03*
X-105000D02*
D03*
X-120000Y245000D02*
D03*
X-110000D02*
D03*
X-130000D02*
D03*
X-90000D02*
D03*
X-100000D02*
D03*
X-150000D02*
D03*
X-140000D02*
D03*
X-160000D02*
D03*
X-155500Y233500D02*
D03*
X-165500D02*
D03*
X-90000Y185000D02*
D03*
X-100000D02*
D03*
X-110000D02*
D03*
X-120000D02*
D03*
X-150000D02*
D03*
X-160000D02*
D03*
X-130000D02*
D03*
X-140000D02*
D03*
X-190000Y245000D02*
D03*
X-170000D02*
D03*
X-180000D02*
D03*
X-200000D02*
D03*
X-210000Y240000D02*
D03*
Y220000D02*
D03*
Y230000D02*
D03*
X-190000Y185000D02*
D03*
X-180000D02*
D03*
X-200000D02*
D03*
X-170000D02*
D03*
X-210000Y210000D02*
D03*
Y190000D02*
D03*
Y200000D02*
D03*
X-266500Y244000D02*
D03*
X-256500D02*
D03*
X-306500D02*
D03*
X-296500D02*
D03*
X-236500D02*
D03*
X-246500D02*
D03*
X-286500D02*
D03*
X-276500D02*
D03*
X-100000Y322000D02*
D03*
X-90000D02*
D03*
X-130000D02*
D03*
X-110000D02*
D03*
X-120000D02*
D03*
X-140000D02*
D03*
X-150000D02*
D03*
X-160000D02*
D03*
X-172500Y322500D02*
D03*
Y312500D02*
D03*
Y302500D02*
D03*
Y272500D02*
D03*
Y292500D02*
D03*
Y282500D02*
D03*
X-312500Y312500D02*
D03*
Y302500D02*
D03*
Y292500D02*
D03*
Y282500D02*
D03*
X-307500Y42500D02*
D03*
X-297500D02*
D03*
X-317500D02*
D03*
X-327500D02*
D03*
X-337500D02*
D03*
Y55000D02*
D03*
X-327500Y65000D02*
D03*
X-337500D02*
D03*
X-327500Y75000D02*
D03*
X-337500D02*
D03*
X-327500Y85000D02*
D03*
X-337500D02*
D03*
X-327500Y95000D02*
D03*
X-337500D02*
D03*
X-327500Y105000D02*
D03*
X-337500D02*
D03*
X-327500Y115000D02*
D03*
X-337500D02*
D03*
X-327500Y125000D02*
D03*
X-337500D02*
D03*
X-327500Y135000D02*
D03*
X-337500D02*
D03*
X-327500Y145000D02*
D03*
X-337500D02*
D03*
X-327500Y155000D02*
D03*
X-337500D02*
D03*
X-327500Y165000D02*
D03*
X-337500D02*
D03*
X-327500Y175000D02*
D03*
X-337500D02*
D03*
X-327500Y185000D02*
D03*
X-337500D02*
D03*
X-327500Y195000D02*
D03*
X-337500D02*
D03*
X-327500Y205000D02*
D03*
X-337500D02*
D03*
X-327500Y215000D02*
D03*
X-337500D02*
D03*
X-327500Y225000D02*
D03*
X-337500D02*
D03*
X-327500Y235000D02*
D03*
X-337500D02*
D03*
X-327500Y245000D02*
D03*
X-337500D02*
D03*
X-327500Y255000D02*
D03*
X-337500D02*
D03*
X-327500Y265000D02*
D03*
X-337500D02*
D03*
X-327500Y275000D02*
D03*
X-337500D02*
D03*
X-327500Y285000D02*
D03*
X-337500D02*
D03*
X-327500Y295000D02*
D03*
X-337500D02*
D03*
Y305000D02*
D03*
X-327500D02*
D03*
X-357500Y55000D02*
D03*
X-347500Y65000D02*
D03*
X-357500D02*
D03*
X-347500Y75000D02*
D03*
X-357500D02*
D03*
X-347500Y85000D02*
D03*
X-357500D02*
D03*
X-347500Y95000D02*
D03*
X-357500D02*
D03*
X-347500Y105000D02*
D03*
X-357500D02*
D03*
X-347500Y115000D02*
D03*
X-357500D02*
D03*
X-347500Y125000D02*
D03*
X-357500D02*
D03*
X-347500Y135000D02*
D03*
X-357500D02*
D03*
X-347500Y145000D02*
D03*
X-357500D02*
D03*
X-347500Y155000D02*
D03*
X-357500D02*
D03*
X-347500Y165000D02*
D03*
X-357500D02*
D03*
X-347500Y175000D02*
D03*
X-357500D02*
D03*
X-347500Y185000D02*
D03*
X-357500D02*
D03*
X-347500Y195000D02*
D03*
X-357500D02*
D03*
X-347500Y205000D02*
D03*
X-357500D02*
D03*
X-347500Y215000D02*
D03*
X-357500D02*
D03*
X-347500Y225000D02*
D03*
X-357500D02*
D03*
X-347500Y235000D02*
D03*
X-357500D02*
D03*
X-347500Y245000D02*
D03*
X-357500D02*
D03*
X-347500Y255000D02*
D03*
X-357500D02*
D03*
X-347500Y265000D02*
D03*
X-357500D02*
D03*
X-347500Y275000D02*
D03*
X-357500D02*
D03*
X-347500Y285000D02*
D03*
X-357500D02*
D03*
X-347500Y295000D02*
D03*
X-357500D02*
D03*
Y305000D02*
D03*
X-347500D02*
D03*
D20*
X-175000Y90500D02*
D03*
X-165000D02*
D03*
X-155000D02*
D03*
X-145000D02*
D03*
X-135000D02*
D03*
D21*
X-270000Y70000D02*
D03*
Y61732D02*
D03*
X-250000Y50000D02*
D03*
Y41732D02*
D03*
X-270000Y50000D02*
D03*
Y41732D02*
D03*
D22*
X-227500Y77500D02*
D03*
Y57500D02*
D03*
X-257500Y77500D02*
D03*
Y57500D02*
D03*
X-292500Y64700D02*
D03*
X-302500D02*
D03*
X-312500D02*
D03*
X-292500Y81500D02*
D03*
X-302500D02*
D03*
X-312500D02*
D03*
D23*
X-287500Y42500D02*
D03*
D24*
X-327500Y55000D02*
D03*
X-347500D02*
D03*
M02*
