%FSDAX24Y24*%
%MOIN*%
%SFA1B1*%

%IPPOS*%
%ADD11C,0.010000*%
%ADD12R,0.059100X0.059100*%
%ADD13C,0.059100*%
%ADD14C,0.060000*%
%ADD15R,0.059100X0.059100*%
%ADD16R,0.060000X0.060000*%
%ADD17R,0.070000X0.070000*%
%ADD18C,0.070000*%
%ADD19R,0.060000X0.060000*%
%ADD20C,0.126000*%
%ADD21O,0.050000X0.100000*%
%ADD22R,0.050000X0.100000*%
%ADD23C,0.050000*%
%LNbluesatpc104template-1*%
%LPC*%
G36*
X038940Y044600D02*
X038590D01*
Y044250*
X038940*
Y044600*
G37*
G36*
X038490D02*
X038140D01*
Y044250*
X038490*
Y044600*
G37*
G36*
X038940Y044150D02*
X038590D01*
Y043800*
X038940*
Y044150*
G37*
G36*
X038490D02*
X038140D01*
Y043800*
X038490*
Y044150*
G37*
G36*
X037540Y044603D02*
X037436Y044590D01*
X037338Y044549*
X037255Y044485*
X037191Y044402*
X037150Y044304*
X037137Y044200*
X037150Y044096*
X037191Y043998*
X037255Y043915*
X037338Y043851*
X037436Y043810*
X037540Y043797*
X037644Y043810*
X037742Y043851*
X037825Y043915*
X037889Y043998*
X037930Y044096*
X037943Y044200*
X037930Y044304*
X037889Y044402*
X037825Y044485*
X037742Y044549*
X037644Y044590*
X037540Y044603*
G37*
G36*
X035540D02*
X035436Y044590D01*
X035338Y044549*
X035255Y044485*
X035191Y044402*
X035150Y044304*
X035137Y044200*
X035150Y044096*
X035191Y043998*
X035255Y043915*
X035338Y043851*
X035436Y043810*
X035540Y043797*
X035644Y043810*
X035742Y043851*
X035825Y043915*
X035889Y043998*
X035930Y044096*
X035943Y044200*
X035930Y044304*
X035889Y044402*
X035825Y044485*
X035742Y044549*
X035644Y044590*
X035540Y044603*
G37*
G36*
X034540D02*
X034436Y044590D01*
X034338Y044549*
X034255Y044485*
X034191Y044402*
X034150Y044304*
X034137Y044200*
X034150Y044096*
X034191Y043998*
X034255Y043915*
X034338Y043851*
X034436Y043810*
X034540Y043797*
X034644Y043810*
X034742Y043851*
X034825Y043915*
X034889Y043998*
X034930Y044096*
X034943Y044200*
X034930Y044304*
X034889Y044402*
X034825Y044485*
X034742Y044549*
X034644Y044590*
X034540Y044603*
G37*
G36*
X033540D02*
X033436Y044590D01*
X033338Y044549*
X033255Y044485*
X033191Y044402*
X033150Y044304*
X033137Y044200*
X033150Y044096*
X033191Y043998*
X033255Y043915*
X033338Y043851*
X033436Y043810*
X033540Y043797*
X033644Y043810*
X033742Y043851*
X033825Y043915*
X033889Y043998*
X033930Y044096*
X033943Y044200*
X033930Y044304*
X033889Y044402*
X033825Y044485*
X033742Y044549*
X033644Y044590*
X033540Y044603*
G37*
G36*
X011940Y044234D02*
X011797Y044219D01*
X011659Y044178*
X011532Y044110*
X011421Y044019*
X011330Y043908*
X011262Y043781*
X011221Y043643*
X011206Y043500*
X011221Y043357*
X011262Y043219*
X011330Y043092*
X011421Y042981*
X011532Y042890*
X011659Y042822*
X011797Y042781*
X011940Y042766*
X012083Y042781*
X012221Y042822*
X012348Y042890*
X012459Y042981*
X012550Y043092*
X012618Y043219*
X012659Y043357*
X012674Y043500*
X012659Y043643*
X012618Y043781*
X012550Y043908*
X012459Y044019*
X012348Y044110*
X012221Y044178*
X012083Y044219*
X011940Y044234*
G37*
G36*
X030040Y043100D02*
X029690D01*
Y042750*
X030040*
Y043100*
G37*
G36*
X029590D02*
X029240D01*
Y042750*
X029590*
Y043100*
G37*
G36*
X030040Y042650D02*
X029690D01*
Y042300*
X030040*
Y042650*
G37*
G36*
X029590D02*
X029240D01*
Y042300*
X029590*
Y042650*
G37*
G36*
X029640Y042103D02*
X029536Y042090D01*
X029438Y042049*
X029355Y041985*
X029291Y041902*
X029250Y041804*
X029237Y041700*
X029250Y041596*
X029291Y041498*
X029355Y041415*
X029438Y041351*
X029536Y041310*
X029640Y041297*
X029744Y041310*
X029842Y041351*
X029925Y041415*
X029989Y041498*
X030030Y041596*
X030043Y041700*
X030030Y041804*
X029989Y041902*
X029925Y041985*
X029842Y042049*
X029744Y042090*
X029640Y042103*
G37*
G36*
X045690Y042734D02*
X045547Y042719D01*
X045409Y042678*
X045282Y042610*
X045171Y042519*
X045080Y042408*
X045012Y042281*
X044971Y042143*
X044956Y042000*
X044971Y041857*
X045012Y041719*
X045080Y041592*
X045171Y041481*
X045282Y041390*
X045409Y041322*
X045547Y041281*
X045690Y041266*
X045833Y041281*
X045971Y041322*
X046098Y041390*
X046209Y041481*
X046300Y041592*
X046368Y041719*
X046409Y041857*
X046424Y042000*
X046409Y042143*
X046368Y042281*
X046300Y042408*
X046209Y042519*
X046098Y042610*
X045971Y042678*
X045833Y042719*
X045690Y042734*
G37*
G36*
X029640Y041103D02*
X029536Y041090D01*
X029438Y041049*
X029355Y040985*
X029291Y040902*
X029250Y040804*
X029237Y040700*
X029250Y040596*
X029291Y040498*
X029355Y040415*
X029438Y040351*
X029536Y040310*
X029640Y040297*
X029744Y040310*
X029842Y040351*
X029925Y040415*
X029989Y040498*
X030030Y040596*
X030043Y040700*
X030030Y040804*
X029989Y040902*
X029925Y040985*
X029842Y041049*
X029744Y041090*
X029640Y041103*
G37*
G36*
X045054Y040437D02*
X044263D01*
Y039647*
X045054*
Y040437*
G37*
G36*
X043054D02*
X042263D01*
Y039647*
X043054*
Y040437*
G37*
G36*
X045658Y040441D02*
X045555Y040427D01*
X045459Y040387*
X045377Y040324*
X045313Y040241*
X045273Y040145*
X045260Y040042*
X045273Y039939*
X045313Y039843*
X045377Y039760*
X045459Y039697*
X045555Y039657*
X045658Y039643*
X045762Y039657*
X045858Y039697*
X045940Y039760*
X046004Y039843*
X046044Y039939*
X046057Y040042*
X046044Y040145*
X046004Y040241*
X045940Y040324*
X045858Y040387*
X045762Y040427*
X045658Y040441*
G37*
G36*
X043658D02*
X043555Y040427D01*
X043459Y040387*
X043377Y040324*
X043313Y040241*
X043273Y040145*
X043260Y040042*
X043273Y039939*
X043313Y039843*
X043377Y039760*
X043459Y039697*
X043555Y039657*
X043658Y039643*
X043762Y039657*
X043858Y039697*
X043940Y039760*
X044004Y039843*
X044044Y039939*
X044057Y040042*
X044044Y040145*
X044004Y040241*
X043940Y040324*
X043858Y040387*
X043762Y040427*
X043658Y040441*
G37*
G36*
X029640Y040103D02*
X029536Y040090D01*
X029438Y040049*
X029355Y039985*
X029291Y039902*
X029250Y039804*
X029237Y039700*
X029250Y039596*
X029291Y039498*
X029355Y039415*
X029438Y039351*
X029536Y039310*
X029640Y039297*
X029744Y039310*
X029842Y039351*
X029925Y039415*
X029989Y039498*
X030030Y039596*
X030043Y039700*
X030030Y039804*
X029989Y039902*
X029925Y039985*
X029842Y040049*
X029744Y040090*
X029640Y040103*
G37*
G36*
X045658Y039441D02*
X045555Y039427D01*
X045459Y039387*
X045377Y039324*
X045313Y039241*
X045273Y039145*
X045260Y039042*
X045273Y038939*
X045313Y038843*
X045377Y038760*
X045459Y038697*
X045555Y038657*
X045658Y038643*
X045762Y038657*
X045858Y038697*
X045940Y038760*
X046004Y038843*
X046044Y038939*
X046057Y039042*
X046044Y039145*
X046004Y039241*
X045940Y039324*
X045858Y039387*
X045762Y039427*
X045658Y039441*
G37*
G36*
X044658D02*
X044555Y039427D01*
X044459Y039387*
X044377Y039324*
X044313Y039241*
X044273Y039145*
X044260Y039042*
X044273Y038939*
X044313Y038843*
X044377Y038760*
X044459Y038697*
X044555Y038657*
X044658Y038643*
X044762Y038657*
X044858Y038697*
X044940Y038760*
X045004Y038843*
X045044Y038939*
X045057Y039042*
X045044Y039145*
X045004Y039241*
X044940Y039324*
X044858Y039387*
X044762Y039427*
X044658Y039441*
G37*
G36*
X043658D02*
X043555Y039427D01*
X043459Y039387*
X043377Y039324*
X043313Y039241*
X043273Y039145*
X043260Y039042*
X043273Y038939*
X043313Y038843*
X043377Y038760*
X043459Y038697*
X043555Y038657*
X043658Y038643*
X043762Y038657*
X043858Y038697*
X043940Y038760*
X044004Y038843*
X044044Y038939*
X044057Y039042*
X044044Y039145*
X044004Y039241*
X043940Y039324*
X043858Y039387*
X043762Y039427*
X043658Y039441*
G37*
G36*
X042659D02*
X042555Y039427D01*
X042459Y039387*
X042377Y039324*
X042313Y039241*
X042273Y039145*
X042260Y039042*
X042273Y038939*
X042313Y038843*
X042377Y038760*
X042459Y038697*
X042555Y038657*
X042659Y038643*
X042762Y038657*
X042858Y038697*
X042940Y038760*
X043004Y038843*
X043044Y038939*
X043057Y039042*
X043044Y039145*
X043004Y039241*
X042940Y039324*
X042858Y039387*
X042762Y039427*
X042659Y039441*
G37*
G36*
X029640Y039103D02*
X029536Y039090D01*
X029438Y039049*
X029355Y038985*
X029291Y038902*
X029270Y038853*
X025040*
X024981Y038841*
X024932Y038808*
X020682Y034558*
X020649Y034509*
X020637Y034450*
Y034165*
X020613Y034156*
X020540Y034100*
X020484Y034027*
X020449Y033941*
X020437Y033850*
Y033350*
X020449Y033259*
X020484Y033173*
X020540Y033100*
X020613Y033044*
X020699Y033009*
X020790Y032997*
X020881Y033009*
X020967Y033044*
X021040Y033100*
X021096Y033173*
X021131Y033259*
X021143Y033350*
Y033850*
X021131Y033941*
X021096Y034027*
X021040Y034100*
X020967Y034156*
X020943Y034165*
Y034387*
X025103Y038547*
X029270*
X029291Y038498*
X029355Y038415*
X029438Y038351*
X029536Y038310*
X029640Y038297*
X029744Y038310*
X029842Y038351*
X029925Y038415*
X029989Y038498*
X030030Y038596*
X030043Y038700*
X030030Y038804*
X029989Y038902*
X029925Y038985*
X029842Y039049*
X029744Y039090*
X029640Y039103*
G37*
G36*
X045658Y038441D02*
X045555Y038427D01*
X045459Y038387*
X045377Y038324*
X045313Y038241*
X045273Y038145*
X045260Y038042*
X045273Y037939*
X045313Y037843*
X045377Y037760*
X045459Y037697*
X045555Y037657*
X045658Y037643*
X045762Y037657*
X045858Y037697*
X045940Y037760*
X046004Y037843*
X046044Y037939*
X046057Y038042*
X046044Y038145*
X046004Y038241*
X045940Y038324*
X045858Y038387*
X045762Y038427*
X045658Y038441*
G37*
G36*
X044658D02*
X044555Y038427D01*
X044459Y038387*
X044377Y038324*
X044313Y038241*
X044273Y038145*
X044260Y038042*
X044273Y037939*
X044313Y037843*
X044377Y037760*
X044459Y037697*
X044555Y037657*
X044658Y037643*
X044762Y037657*
X044858Y037697*
X044940Y037760*
X045004Y037843*
X045044Y037939*
X045057Y038042*
X045044Y038145*
X045004Y038241*
X044940Y038324*
X044858Y038387*
X044762Y038427*
X044658Y038441*
G37*
G36*
X043658D02*
X043555Y038427D01*
X043459Y038387*
X043377Y038324*
X043313Y038241*
X043273Y038145*
X043260Y038042*
X043273Y037939*
X043313Y037843*
X043377Y037760*
X043459Y037697*
X043555Y037657*
X043658Y037643*
X043762Y037657*
X043858Y037697*
X043940Y037760*
X044004Y037843*
X044044Y037939*
X044057Y038042*
X044044Y038145*
X044004Y038241*
X043940Y038324*
X043858Y038387*
X043762Y038427*
X043658Y038441*
G37*
G36*
X042659D02*
X042555Y038427D01*
X042459Y038387*
X042377Y038324*
X042313Y038241*
X042273Y038145*
X042260Y038042*
X042273Y037939*
X042313Y037843*
X042377Y037760*
X042459Y037697*
X042555Y037657*
X042659Y037643*
X042762Y037657*
X042858Y037697*
X042940Y037760*
X043004Y037843*
X043044Y037939*
X043057Y038042*
X043044Y038145*
X043004Y038241*
X042940Y038324*
X042858Y038387*
X042762Y038427*
X042659Y038441*
G37*
G36*
X029640Y038103D02*
X029536Y038090D01*
X029438Y038049*
X029355Y037985*
X029291Y037902*
X029250Y037804*
X029237Y037700*
X029250Y037596*
X029291Y037498*
X029355Y037415*
X029438Y037351*
X029536Y037310*
X029640Y037297*
X029744Y037310*
X029842Y037351*
X029925Y037415*
X029989Y037498*
X030030Y037596*
X030043Y037700*
X030030Y037804*
X029989Y037902*
X029925Y037985*
X029842Y038049*
X029744Y038090*
X029640Y038103*
G37*
G36*
X045658Y037441D02*
X045555Y037427D01*
X045459Y037387*
X045377Y037324*
X045313Y037241*
X045273Y037145*
X045260Y037042*
X045273Y036939*
X045313Y036843*
X045377Y036760*
X045459Y036697*
X045555Y036657*
X045658Y036643*
X045762Y036657*
X045858Y036697*
X045940Y036760*
X046004Y036843*
X046044Y036939*
X046057Y037042*
X046044Y037145*
X046004Y037241*
X045940Y037324*
X045858Y037387*
X045762Y037427*
X045658Y037441*
G37*
G36*
X044658D02*
X044555Y037427D01*
X044459Y037387*
X044377Y037324*
X044313Y037241*
X044273Y037145*
X044260Y037042*
X044273Y036939*
X044313Y036843*
X044377Y036760*
X044459Y036697*
X044555Y036657*
X044658Y036643*
X044762Y036657*
X044858Y036697*
X044940Y036760*
X045004Y036843*
X045044Y036939*
X045057Y037042*
X045044Y037145*
X045004Y037241*
X044940Y037324*
X044858Y037387*
X044762Y037427*
X044658Y037441*
G37*
G36*
X043658D02*
X043555Y037427D01*
X043459Y037387*
X043377Y037324*
X043313Y037241*
X043273Y037145*
X043260Y037042*
X043273Y036939*
X043313Y036843*
X043377Y036760*
X043459Y036697*
X043555Y036657*
X043658Y036643*
X043762Y036657*
X043858Y036697*
X043940Y036760*
X044004Y036843*
X044044Y036939*
X044057Y037042*
X044044Y037145*
X044004Y037241*
X043940Y037324*
X043858Y037387*
X043762Y037427*
X043658Y037441*
G37*
G36*
X042659D02*
X042555Y037427D01*
X042459Y037387*
X042377Y037324*
X042313Y037241*
X042273Y037145*
X042260Y037042*
X042273Y036939*
X042313Y036843*
X042377Y036760*
X042459Y036697*
X042555Y036657*
X042659Y036643*
X042762Y036657*
X042858Y036697*
X042940Y036760*
X043004Y036843*
X043044Y036939*
X043057Y037042*
X043044Y037145*
X043004Y037241*
X042940Y037324*
X042858Y037387*
X042762Y037427*
X042659Y037441*
G37*
G36*
X013390Y036853D02*
X013286Y036840D01*
X013188Y036799*
X013105Y036735*
X013041Y036652*
X013000Y036554*
X012987Y036450*
X013000Y036346*
X013041Y036248*
X013105Y036165*
X013188Y036101*
X013286Y036060*
X013390Y036047*
X013494Y036060*
X013592Y036101*
X013675Y036165*
X013739Y036248*
X013780Y036346*
X013793Y036450*
X013780Y036554*
X013739Y036652*
X013675Y036735*
X013592Y036799*
X013494Y036840*
X013390Y036853*
G37*
G36*
X012390D02*
X012286Y036840D01*
X012188Y036799*
X012105Y036735*
X012041Y036652*
X012000Y036554*
X011987Y036450*
X012000Y036346*
X012041Y036248*
X012105Y036165*
X012188Y036101*
X012286Y036060*
X012390Y036047*
X012494Y036060*
X012592Y036101*
X012675Y036165*
X012739Y036248*
X012780Y036346*
X012793Y036450*
X012780Y036554*
X012739Y036652*
X012675Y036735*
X012592Y036799*
X012494Y036840*
X012390Y036853*
G37*
G36*
X045658Y036441D02*
X045555Y036427D01*
X045459Y036387*
X045377Y036324*
X045313Y036241*
X045273Y036145*
X045260Y036042*
X045273Y035939*
X045313Y035843*
X045377Y035760*
X045459Y035697*
X045555Y035657*
X045658Y035643*
X045762Y035657*
X045858Y035697*
X045940Y035760*
X046004Y035843*
X046044Y035939*
X046057Y036042*
X046044Y036145*
X046004Y036241*
X045940Y036324*
X045858Y036387*
X045762Y036427*
X045658Y036441*
G37*
G36*
X044658D02*
X044555Y036427D01*
X044459Y036387*
X044377Y036324*
X044313Y036241*
X044273Y036145*
X044260Y036042*
X044273Y035939*
X044313Y035843*
X044377Y035760*
X044459Y035697*
X044555Y035657*
X044658Y035643*
X044762Y035657*
X044858Y035697*
X044940Y035760*
X045004Y035843*
X045044Y035939*
X045057Y036042*
X045044Y036145*
X045004Y036241*
X044940Y036324*
X044858Y036387*
X044762Y036427*
X044658Y036441*
G37*
G36*
X043658D02*
X043555Y036427D01*
X043459Y036387*
X043377Y036324*
X043313Y036241*
X043273Y036145*
X043260Y036042*
X043273Y035939*
X043313Y035843*
X043377Y035760*
X043459Y035697*
X043555Y035657*
X043658Y035643*
X043762Y035657*
X043858Y035697*
X043940Y035760*
X044004Y035843*
X044044Y035939*
X044057Y036042*
X044044Y036145*
X044004Y036241*
X043940Y036324*
X043858Y036387*
X043762Y036427*
X043658Y036441*
G37*
G36*
X042659D02*
X042555Y036427D01*
X042459Y036387*
X042377Y036324*
X042313Y036241*
X042273Y036145*
X042260Y036042*
X042273Y035939*
X042313Y035843*
X042377Y035760*
X042459Y035697*
X042555Y035657*
X042659Y035643*
X042762Y035657*
X042858Y035697*
X042940Y035760*
X043004Y035843*
X043044Y035939*
X043057Y036042*
X043044Y036145*
X043004Y036241*
X042940Y036324*
X042858Y036387*
X042762Y036427*
X042659Y036441*
G37*
G36*
X045658Y035441D02*
X045555Y035427D01*
X045459Y035387*
X045377Y035324*
X045313Y035241*
X045273Y035145*
X045260Y035042*
X045273Y034939*
X045313Y034843*
X045377Y034760*
X045459Y034697*
X045555Y034657*
X045658Y034643*
X045762Y034657*
X045858Y034697*
X045940Y034760*
X046004Y034843*
X046044Y034939*
X046057Y035042*
X046044Y035145*
X046004Y035241*
X045940Y035324*
X045858Y035387*
X045762Y035427*
X045658Y035441*
G37*
G36*
X044658D02*
X044555Y035427D01*
X044459Y035387*
X044377Y035324*
X044313Y035241*
X044273Y035145*
X044260Y035042*
X044273Y034939*
X044313Y034843*
X044377Y034760*
X044459Y034697*
X044555Y034657*
X044658Y034643*
X044762Y034657*
X044858Y034697*
X044940Y034760*
X045004Y034843*
X045044Y034939*
X045057Y035042*
X045044Y035145*
X045004Y035241*
X044940Y035324*
X044858Y035387*
X044762Y035427*
X044658Y035441*
G37*
G36*
X043658D02*
X043555Y035427D01*
X043459Y035387*
X043377Y035324*
X043313Y035241*
X043273Y035145*
X043260Y035042*
X043273Y034939*
X043313Y034843*
X043377Y034760*
X043459Y034697*
X043555Y034657*
X043658Y034643*
X043762Y034657*
X043858Y034697*
X043940Y034760*
X044004Y034843*
X044044Y034939*
X044057Y035042*
X044044Y035145*
X044004Y035241*
X043940Y035324*
X043858Y035387*
X043762Y035427*
X043658Y035441*
G37*
G36*
X042659D02*
X042555Y035427D01*
X042459Y035387*
X042377Y035324*
X042313Y035241*
X042273Y035145*
X042260Y035042*
X042273Y034939*
X042313Y034843*
X042377Y034760*
X042459Y034697*
X042555Y034657*
X042659Y034643*
X042762Y034657*
X042858Y034697*
X042940Y034760*
X043004Y034843*
X043044Y034939*
X043057Y035042*
X043044Y035145*
X043004Y035241*
X042940Y035324*
X042858Y035387*
X042762Y035427*
X042659Y035441*
G37*
G36*
X013185Y035245D02*
X012395D01*
Y034455*
X013185*
Y035245*
G37*
G36*
X014790Y035249D02*
X014687Y035235D01*
X014591Y035195*
X014508Y035132*
X014445Y035049*
X014405Y034953*
X014391Y034850*
X014405Y034747*
X014445Y034651*
X014508Y034568*
X014591Y034505*
X014687Y034465*
X014790Y034451*
X014893Y034465*
X014989Y034505*
X015072Y034568*
X015135Y034651*
X015175Y034747*
X015189Y034850*
X015175Y034953*
X015135Y035049*
X015072Y035132*
X014989Y035195*
X014893Y035235*
X014790Y035249*
G37*
G36*
X013790D02*
X013687Y035235D01*
X013591Y035195*
X013508Y035132*
X013445Y035049*
X013405Y034953*
X013391Y034850*
X013405Y034747*
X013445Y034651*
X013508Y034568*
X013591Y034505*
X013687Y034465*
X013790Y034451*
X013893Y034465*
X013989Y034505*
X014072Y034568*
X014135Y034651*
X014175Y034747*
X014189Y034850*
X014175Y034953*
X014135Y035049*
X014072Y035132*
X013989Y035195*
X013893Y035235*
X013790Y035249*
G37*
G36*
X030990Y034750D02*
X030190D01*
Y033950*
X030990*
Y034750*
G37*
G36*
X013840Y034196D02*
Y033650D01*
X014143*
Y033850*
X014131Y033941*
X014096Y034027*
X014040Y034100*
X013967Y034156*
X013881Y034191*
X013840Y034196*
G37*
G36*
X013740D02*
X013699Y034191D01*
X013613Y034156*
X013540Y034100*
X013484Y034027*
X013449Y033941*
X013437Y033850*
Y033650*
X013740*
Y034196*
G37*
G36*
X045658Y034441D02*
X045555Y034427D01*
X045459Y034387*
X045377Y034324*
X045313Y034241*
X045273Y034145*
X045260Y034042*
X045273Y033939*
X045313Y033843*
X045377Y033760*
X045459Y033697*
X045555Y033657*
X045658Y033643*
X045762Y033657*
X045858Y033697*
X045940Y033760*
X046004Y033843*
X046044Y033939*
X046057Y034042*
X046044Y034145*
X046004Y034241*
X045940Y034324*
X045858Y034387*
X045762Y034427*
X045658Y034441*
G37*
G36*
X044658D02*
X044555Y034427D01*
X044459Y034387*
X044377Y034324*
X044313Y034241*
X044273Y034145*
X044260Y034042*
X044273Y033939*
X044313Y033843*
X044377Y033760*
X044459Y033697*
X044555Y033657*
X044658Y033643*
X044762Y033657*
X044858Y033697*
X044940Y033760*
X045004Y033843*
X045044Y033939*
X045057Y034042*
X045044Y034145*
X045004Y034241*
X044940Y034324*
X044858Y034387*
X044762Y034427*
X044658Y034441*
G37*
G36*
X043658D02*
X043555Y034427D01*
X043459Y034387*
X043377Y034324*
X043313Y034241*
X043273Y034145*
X043260Y034042*
X043273Y033939*
X043313Y033843*
X043377Y033760*
X043459Y033697*
X043555Y033657*
X043658Y033643*
X043762Y033657*
X043858Y033697*
X043940Y033760*
X044004Y033843*
X044044Y033939*
X044057Y034042*
X044044Y034145*
X044004Y034241*
X043940Y034324*
X043858Y034387*
X043762Y034427*
X043658Y034441*
G37*
G36*
X042659D02*
X042555Y034427D01*
X042459Y034387*
X042377Y034324*
X042313Y034241*
X042273Y034145*
X042260Y034042*
X042273Y033939*
X042313Y033843*
X042377Y033760*
X042459Y033697*
X042555Y033657*
X042659Y033643*
X042762Y033657*
X042858Y033697*
X042940Y033760*
X043004Y033843*
X043044Y033939*
X043057Y034042*
X043044Y034145*
X043004Y034241*
X042940Y034324*
X042858Y034387*
X042762Y034427*
X042659Y034441*
G37*
G36*
X014143Y033550D02*
X013840D01*
Y033004*
X013881Y033009*
X013967Y033044*
X014040Y033100*
X014096Y033173*
X014131Y033259*
X014143Y033350*
Y033550*
G37*
G36*
X013740D02*
X013437D01*
Y033350*
X013449Y033259*
X013484Y033173*
X013540Y033100*
X013613Y033044*
X013699Y033009*
X013740Y033004*
Y033550*
G37*
G36*
X023790Y034203D02*
X023699Y034191D01*
X023613Y034156*
X023540Y034100*
X023484Y034027*
X023449Y033941*
X023437Y033850*
Y033350*
X023449Y033259*
X023484Y033173*
X023540Y033100*
X023613Y033044*
X023699Y033009*
X023790Y032997*
X023881Y033009*
X023967Y033044*
X024040Y033100*
X024096Y033173*
X024131Y033259*
X024143Y033350*
Y033850*
X024131Y033941*
X024096Y034027*
X024040Y034100*
X023967Y034156*
X023881Y034191*
X023790Y034203*
G37*
G36*
X022790D02*
X022699Y034191D01*
X022613Y034156*
X022540Y034100*
X022484Y034027*
X022449Y033941*
X022437Y033850*
Y033350*
X022449Y033259*
X022484Y033173*
X022540Y033100*
X022613Y033044*
X022699Y033009*
X022790Y032997*
X022881Y033009*
X022967Y033044*
X023040Y033100*
X023096Y033173*
X023131Y033259*
X023143Y033350*
Y033850*
X023131Y033941*
X023096Y034027*
X023040Y034100*
X022967Y034156*
X022881Y034191*
X022790Y034203*
G37*
G36*
X021790D02*
X021699Y034191D01*
X021613Y034156*
X021540Y034100*
X021484Y034027*
X021449Y033941*
X021437Y033850*
Y033350*
X021449Y033259*
X021484Y033173*
X021540Y033100*
X021613Y033044*
X021699Y033009*
X021790Y032997*
X021881Y033009*
X021967Y033044*
X022040Y033100*
X022096Y033173*
X022131Y033259*
X022143Y033350*
Y033850*
X022131Y033941*
X022096Y034027*
X022040Y034100*
X021967Y034156*
X021881Y034191*
X021790Y034203*
G37*
G36*
X019790D02*
X019699Y034191D01*
X019613Y034156*
X019540Y034100*
X019484Y034027*
X019449Y033941*
X019437Y033850*
Y033350*
X019449Y033259*
X019484Y033173*
X019540Y033100*
X019613Y033044*
X019699Y033009*
X019790Y032997*
X019881Y033009*
X019967Y033044*
X020040Y033100*
X020096Y033173*
X020131Y033259*
X020143Y033350*
Y033850*
X020131Y033941*
X020096Y034027*
X020040Y034100*
X019967Y034156*
X019881Y034191*
X019790Y034203*
G37*
G36*
X018790D02*
X018699Y034191D01*
X018613Y034156*
X018540Y034100*
X018484Y034027*
X018449Y033941*
X018437Y033850*
Y033350*
X018449Y033259*
X018484Y033173*
X018540Y033100*
X018613Y033044*
X018699Y033009*
X018790Y032997*
X018881Y033009*
X018967Y033044*
X019040Y033100*
X019096Y033173*
X019131Y033259*
X019143Y033350*
Y033850*
X019131Y033941*
X019096Y034027*
X019040Y034100*
X018967Y034156*
X018881Y034191*
X018790Y034203*
G37*
G36*
X017790D02*
X017699Y034191D01*
X017613Y034156*
X017540Y034100*
X017484Y034027*
X017449Y033941*
X017437Y033850*
Y033350*
X017449Y033259*
X017484Y033173*
X017540Y033100*
X017613Y033044*
X017699Y033009*
X017790Y032997*
X017881Y033009*
X017967Y033044*
X018040Y033100*
X018096Y033173*
X018131Y033259*
X018143Y033350*
Y033850*
X018131Y033941*
X018096Y034027*
X018040Y034100*
X017967Y034156*
X017881Y034191*
X017790Y034203*
G37*
G36*
X016790D02*
X016699Y034191D01*
X016613Y034156*
X016540Y034100*
X016484Y034027*
X016449Y033941*
X016437Y033850*
Y033350*
X016449Y033259*
X016484Y033173*
X016540Y033100*
X016613Y033044*
X016699Y033009*
X016790Y032997*
X016881Y033009*
X016967Y033044*
X017040Y033100*
X017096Y033173*
X017131Y033259*
X017143Y033350*
Y033850*
X017131Y033941*
X017096Y034027*
X017040Y034100*
X016967Y034156*
X016881Y034191*
X016790Y034203*
G37*
G36*
X015790D02*
X015699Y034191D01*
X015613Y034156*
X015540Y034100*
X015484Y034027*
X015449Y033941*
X015437Y033850*
Y033350*
X015449Y033259*
X015484Y033173*
X015540Y033100*
X015613Y033044*
X015699Y033009*
X015790Y032997*
X015881Y033009*
X015967Y033044*
X016040Y033100*
X016096Y033173*
X016131Y033259*
X016143Y033350*
Y033850*
X016131Y033941*
X016096Y034027*
X016040Y034100*
X015967Y034156*
X015881Y034191*
X015790Y034203*
G37*
G36*
X014790D02*
X014699Y034191D01*
X014613Y034156*
X014540Y034100*
X014484Y034027*
X014449Y033941*
X014437Y033850*
Y033350*
X014449Y033259*
X014484Y033173*
X014540Y033100*
X014613Y033044*
X014699Y033009*
X014790Y032997*
X014881Y033009*
X014967Y033044*
X015040Y033100*
X015096Y033173*
X015131Y033259*
X015143Y033350*
Y033850*
X015131Y033941*
X015096Y034027*
X015040Y034100*
X014967Y034156*
X014881Y034191*
X014790Y034203*
G37*
G36*
X012790D02*
X012699Y034191D01*
X012613Y034156*
X012540Y034100*
X012484Y034027*
X012449Y033941*
X012437Y033850*
Y033350*
X012449Y033259*
X012484Y033173*
X012540Y033100*
X012613Y033044*
X012699Y033009*
X012790Y032997*
X012881Y033009*
X012967Y033044*
X013040Y033100*
X013096Y033173*
X013131Y033259*
X013143Y033350*
Y033850*
X013131Y033941*
X013096Y034027*
X013040Y034100*
X012967Y034156*
X012881Y034191*
X012790Y034203*
G37*
G36*
X030590Y033753D02*
X030486Y033740D01*
X030388Y033699*
X030305Y033635*
X030241Y033552*
X030200Y033454*
X030187Y033350*
X030200Y033246*
X030241Y033148*
X030305Y033065*
X030388Y033001*
X030486Y032960*
X030590Y032947*
X030694Y032960*
X030792Y033001*
X030875Y033065*
X030939Y033148*
X030980Y033246*
X030993Y033350*
X030980Y033454*
X030939Y033552*
X030875Y033635*
X030792Y033699*
X030694Y033740*
X030590Y033753*
G37*
G36*
X045658Y033441D02*
X045555Y033427D01*
X045459Y033387*
X045377Y033324*
X045313Y033241*
X045273Y033145*
X045260Y033042*
X045273Y032939*
X045313Y032843*
X045377Y032760*
X045459Y032697*
X045555Y032657*
X045658Y032643*
X045762Y032657*
X045858Y032697*
X045940Y032760*
X046004Y032843*
X046044Y032939*
X046057Y033042*
X046044Y033145*
X046004Y033241*
X045940Y033324*
X045858Y033387*
X045762Y033427*
X045658Y033441*
G37*
G36*
X044658D02*
X044555Y033427D01*
X044459Y033387*
X044377Y033324*
X044313Y033241*
X044273Y033145*
X044260Y033042*
X044273Y032939*
X044313Y032843*
X044377Y032760*
X044459Y032697*
X044555Y032657*
X044658Y032643*
X044762Y032657*
X044858Y032697*
X044940Y032760*
X045004Y032843*
X045044Y032939*
X045057Y033042*
X045044Y033145*
X045004Y033241*
X044940Y033324*
X044858Y033387*
X044762Y033427*
X044658Y033441*
G37*
G36*
X043658D02*
X043555Y033427D01*
X043459Y033387*
X043377Y033324*
X043313Y033241*
X043273Y033145*
X043260Y033042*
X043273Y032939*
X043313Y032843*
X043377Y032760*
X043459Y032697*
X043555Y032657*
X043658Y032643*
X043762Y032657*
X043858Y032697*
X043940Y032760*
X044004Y032843*
X044044Y032939*
X044057Y033042*
X044044Y033145*
X044004Y033241*
X043940Y033324*
X043858Y033387*
X043762Y033427*
X043658Y033441*
G37*
G36*
X042659D02*
X042555Y033427D01*
X042459Y033387*
X042377Y033324*
X042313Y033241*
X042273Y033145*
X042260Y033042*
X042273Y032939*
X042313Y032843*
X042377Y032760*
X042459Y032697*
X042555Y032657*
X042659Y032643*
X042762Y032657*
X042858Y032697*
X042940Y032760*
X043004Y032843*
X043044Y032939*
X043057Y033042*
X043044Y033145*
X043004Y033241*
X042940Y033324*
X042858Y033387*
X042762Y033427*
X042659Y033441*
G37*
G36*
X030590Y032753D02*
X030486Y032740D01*
X030388Y032699*
X030305Y032635*
X030241Y032552*
X030200Y032454*
X030187Y032350*
X030200Y032246*
X030241Y032148*
X030305Y032065*
X030388Y032001*
X030486Y031960*
X030590Y031947*
X030694Y031960*
X030792Y032001*
X030875Y032065*
X030939Y032148*
X030980Y032246*
X030993Y032350*
X030980Y032454*
X030939Y032552*
X030875Y032635*
X030792Y032699*
X030694Y032740*
X030590Y032753*
G37*
G36*
X045658Y032441D02*
X045555Y032427D01*
X045459Y032387*
X045377Y032324*
X045313Y032241*
X045273Y032145*
X045260Y032042*
X045273Y031939*
X045313Y031843*
X045377Y031760*
X045459Y031697*
X045555Y031657*
X045658Y031643*
X045762Y031657*
X045858Y031697*
X045940Y031760*
X046004Y031843*
X046044Y031939*
X046057Y032042*
X046044Y032145*
X046004Y032241*
X045940Y032324*
X045858Y032387*
X045762Y032427*
X045658Y032441*
G37*
G36*
X044658D02*
X044555Y032427D01*
X044459Y032387*
X044377Y032324*
X044313Y032241*
X044273Y032145*
X044260Y032042*
X044273Y031939*
X044313Y031843*
X044377Y031760*
X044459Y031697*
X044555Y031657*
X044658Y031643*
X044762Y031657*
X044858Y031697*
X044940Y031760*
X045004Y031843*
X045044Y031939*
X045057Y032042*
X045044Y032145*
X045004Y032241*
X044940Y032324*
X044858Y032387*
X044762Y032427*
X044658Y032441*
G37*
G36*
X043658D02*
X043555Y032427D01*
X043459Y032387*
X043377Y032324*
X043313Y032241*
X043273Y032145*
X043260Y032042*
X043273Y031939*
X043313Y031843*
X043377Y031760*
X043459Y031697*
X043555Y031657*
X043658Y031643*
X043762Y031657*
X043858Y031697*
X043940Y031760*
X044004Y031843*
X044044Y031939*
X044057Y032042*
X044044Y032145*
X044004Y032241*
X043940Y032324*
X043858Y032387*
X043762Y032427*
X043658Y032441*
G37*
G36*
X042659D02*
X042555Y032427D01*
X042459Y032387*
X042377Y032324*
X042313Y032241*
X042273Y032145*
X042260Y032042*
X042273Y031939*
X042313Y031843*
X042377Y031760*
X042459Y031697*
X042555Y031657*
X042659Y031643*
X042762Y031657*
X042858Y031697*
X042940Y031760*
X043004Y031843*
X043044Y031939*
X043057Y032042*
X043044Y032145*
X043004Y032241*
X042940Y032324*
X042858Y032387*
X042762Y032427*
X042659Y032441*
G37*
G36*
X030590Y031753D02*
X030486Y031740D01*
X030388Y031699*
X030305Y031635*
X030241Y031552*
X030200Y031454*
X030187Y031350*
X030200Y031246*
X030241Y031148*
X030305Y031065*
X030388Y031001*
X030486Y030960*
X030590Y030947*
X030694Y030960*
X030792Y031001*
X030875Y031065*
X030939Y031148*
X030980Y031246*
X030993Y031350*
X030980Y031454*
X030939Y031552*
X030875Y031635*
X030792Y031699*
X030694Y031740*
X030590Y031753*
G37*
G36*
X045658Y031441D02*
X045555Y031427D01*
X045459Y031387*
X045377Y031324*
X045313Y031241*
X045273Y031145*
X045260Y031042*
X045273Y030939*
X045313Y030843*
X045377Y030760*
X045459Y030697*
X045555Y030657*
X045658Y030643*
X045762Y030657*
X045858Y030697*
X045940Y030760*
X046004Y030843*
X046044Y030939*
X046057Y031042*
X046044Y031145*
X046004Y031241*
X045940Y031324*
X045858Y031387*
X045762Y031427*
X045658Y031441*
G37*
G36*
X044658D02*
X044555Y031427D01*
X044459Y031387*
X044377Y031324*
X044313Y031241*
X044273Y031145*
X044260Y031042*
X044273Y030939*
X044313Y030843*
X044377Y030760*
X044459Y030697*
X044555Y030657*
X044658Y030643*
X044762Y030657*
X044858Y030697*
X044940Y030760*
X045004Y030843*
X045044Y030939*
X045057Y031042*
X045044Y031145*
X045004Y031241*
X044940Y031324*
X044858Y031387*
X044762Y031427*
X044658Y031441*
G37*
G36*
X043658D02*
X043555Y031427D01*
X043459Y031387*
X043377Y031324*
X043313Y031241*
X043273Y031145*
X043260Y031042*
X043273Y030939*
X043313Y030843*
X043377Y030760*
X043459Y030697*
X043555Y030657*
X043658Y030643*
X043762Y030657*
X043858Y030697*
X043940Y030760*
X044004Y030843*
X044044Y030939*
X044057Y031042*
X044044Y031145*
X044004Y031241*
X043940Y031324*
X043858Y031387*
X043762Y031427*
X043658Y031441*
G37*
G36*
X042659D02*
X042555Y031427D01*
X042459Y031387*
X042377Y031324*
X042313Y031241*
X042273Y031145*
X042260Y031042*
X042273Y030939*
X042313Y030843*
X042377Y030760*
X042459Y030697*
X042555Y030657*
X042659Y030643*
X042762Y030657*
X042858Y030697*
X042940Y030760*
X043004Y030843*
X043044Y030939*
X043057Y031042*
X043044Y031145*
X043004Y031241*
X042940Y031324*
X042858Y031387*
X042762Y031427*
X042659Y031441*
G37*
G36*
X036540Y044603D02*
X036436Y044590D01*
X036338Y044549*
X036255Y044485*
X036191Y044402*
X036150Y044304*
X036137Y044200*
X036150Y044096*
X036191Y043998*
X036255Y043915*
X036338Y043851*
X036387Y043830*
Y032613*
X034277Y030503*
X030960*
X030939Y030552*
X030875Y030635*
X030792Y030699*
X030694Y030740*
X030590Y030753*
X030486Y030740*
X030388Y030699*
X030305Y030635*
X030241Y030552*
X030220Y030503*
X018640*
X018581Y030491*
X018532Y030458*
X016682Y028608*
X016649Y028559*
X016637Y028500*
Y028165*
X016613Y028156*
X016540Y028100*
X016484Y028027*
X016449Y027941*
X016437Y027850*
Y027350*
X016449Y027259*
X016484Y027173*
X016540Y027100*
X016613Y027044*
X016699Y027009*
X016790Y026997*
X016881Y027009*
X016967Y027044*
X017040Y027100*
X017096Y027173*
X017131Y027259*
X017143Y027350*
Y027850*
X017131Y027941*
X017096Y028027*
X017040Y028100*
X016967Y028156*
X016943Y028165*
Y028437*
X018703Y030197*
X030220*
X030241Y030148*
X030305Y030065*
X030388Y030001*
X030486Y029960*
X030590Y029947*
X030694Y029960*
X030792Y030001*
X030875Y030065*
X030939Y030148*
X030960Y030197*
X034277*
X035921Y028553*
X035900Y028504*
X035887Y028400*
X035900Y028296*
X035941Y028198*
X036005Y028115*
X036088Y028051*
X036186Y028010*
X036290Y027997*
X036394Y028010*
X036492Y028051*
X036575Y028115*
X036639Y028198*
X036680Y028296*
X036693Y028400*
X036680Y028504*
X036639Y028602*
X036575Y028685*
X036492Y028749*
X036394Y028790*
X036290Y028803*
X036186Y028790*
X036137Y028770*
X034556Y030350*
X036648Y032442*
X036681Y032491*
X036693Y032550*
Y043830*
X036742Y043851*
X036825Y043915*
X036889Y043998*
X036930Y044096*
X036943Y044200*
X036930Y044304*
X036889Y044402*
X036825Y044485*
X036742Y044549*
X036644Y044590*
X036540Y044603*
G37*
G36*
X045658Y030441D02*
X045555Y030427D01*
X045459Y030387*
X045377Y030324*
X045313Y030241*
X045273Y030145*
X045260Y030042*
X045273Y029939*
X045313Y029843*
X045377Y029760*
X045459Y029697*
X045555Y029657*
X045658Y029643*
X045762Y029657*
X045858Y029697*
X045940Y029760*
X046004Y029843*
X046044Y029939*
X046057Y030042*
X046044Y030145*
X046004Y030241*
X045940Y030324*
X045858Y030387*
X045762Y030427*
X045658Y030441*
G37*
G36*
X044658D02*
X044555Y030427D01*
X044459Y030387*
X044377Y030324*
X044313Y030241*
X044273Y030145*
X044260Y030042*
X044273Y029939*
X044313Y029843*
X044377Y029760*
X044459Y029697*
X044555Y029657*
X044658Y029643*
X044762Y029657*
X044858Y029697*
X044940Y029760*
X045004Y029843*
X045044Y029939*
X045057Y030042*
X045044Y030145*
X045004Y030241*
X044940Y030324*
X044858Y030387*
X044762Y030427*
X044658Y030441*
G37*
G36*
X043658D02*
X043555Y030427D01*
X043459Y030387*
X043377Y030324*
X043313Y030241*
X043273Y030145*
X043260Y030042*
X043273Y029939*
X043313Y029843*
X043377Y029760*
X043459Y029697*
X043555Y029657*
X043658Y029643*
X043762Y029657*
X043858Y029697*
X043940Y029760*
X044004Y029843*
X044044Y029939*
X044057Y030042*
X044044Y030145*
X044004Y030241*
X043940Y030324*
X043858Y030387*
X043762Y030427*
X043658Y030441*
G37*
G36*
X042659D02*
X042555Y030427D01*
X042459Y030387*
X042377Y030324*
X042313Y030241*
X042273Y030145*
X042260Y030042*
X042273Y029939*
X042313Y029843*
X042377Y029760*
X042459Y029697*
X042555Y029657*
X042659Y029643*
X042762Y029657*
X042858Y029697*
X042940Y029760*
X043004Y029843*
X043044Y029939*
X043057Y030042*
X043044Y030145*
X043004Y030241*
X042940Y030324*
X042858Y030387*
X042762Y030427*
X042659Y030441*
G37*
G36*
X030590Y029753D02*
X030486Y029740D01*
X030388Y029699*
X030305Y029635*
X030241Y029552*
X030220Y029503*
X018740*
X018681Y029491*
X018632Y029458*
X017682Y028508*
X017649Y028459*
X017637Y028400*
Y028165*
X017613Y028156*
X017540Y028100*
X017484Y028027*
X017449Y027941*
X017437Y027850*
Y027350*
X017449Y027259*
X017484Y027173*
X017540Y027100*
X017613Y027044*
X017699Y027009*
X017790Y026997*
X017881Y027009*
X017967Y027044*
X018040Y027100*
X018096Y027173*
X018131Y027259*
X018143Y027350*
Y027850*
X018131Y027941*
X018096Y028027*
X018040Y028100*
X017967Y028156*
X017943Y028165*
Y028337*
X018803Y029197*
X030220*
X030241Y029148*
X030305Y029065*
X030388Y029001*
X030486Y028960*
X030590Y028947*
X030694Y028960*
X030792Y029001*
X030875Y029065*
X030939Y029148*
X030980Y029246*
X030993Y029350*
X030980Y029454*
X030939Y029552*
X030875Y029635*
X030792Y029699*
X030694Y029740*
X030590Y029753*
G37*
G36*
X045658Y029441D02*
X045555Y029427D01*
X045459Y029387*
X045377Y029324*
X045313Y029241*
X045273Y029145*
X045260Y029042*
X045273Y028939*
X045313Y028843*
X045377Y028760*
X045459Y028697*
X045555Y028657*
X045658Y028643*
X045762Y028657*
X045858Y028697*
X045940Y028760*
X046004Y028843*
X046044Y028939*
X046057Y029042*
X046044Y029145*
X046004Y029241*
X045940Y029324*
X045858Y029387*
X045762Y029427*
X045658Y029441*
G37*
G36*
X044658D02*
X044555Y029427D01*
X044459Y029387*
X044377Y029324*
X044313Y029241*
X044273Y029145*
X044260Y029042*
X044273Y028939*
X044313Y028843*
X044377Y028760*
X044459Y028697*
X044555Y028657*
X044658Y028643*
X044762Y028657*
X044858Y028697*
X044940Y028760*
X045004Y028843*
X045044Y028939*
X045057Y029042*
X045044Y029145*
X045004Y029241*
X044940Y029324*
X044858Y029387*
X044762Y029427*
X044658Y029441*
G37*
G36*
X043658D02*
X043555Y029427D01*
X043459Y029387*
X043377Y029324*
X043313Y029241*
X043273Y029145*
X043260Y029042*
X043273Y028939*
X043313Y028843*
X043377Y028760*
X043459Y028697*
X043555Y028657*
X043658Y028643*
X043762Y028657*
X043858Y028697*
X043940Y028760*
X044004Y028843*
X044044Y028939*
X044057Y029042*
X044044Y029145*
X044004Y029241*
X043940Y029324*
X043858Y029387*
X043762Y029427*
X043658Y029441*
G37*
G36*
X042659D02*
X042555Y029427D01*
X042459Y029387*
X042377Y029324*
X042313Y029241*
X042273Y029145*
X042260Y029042*
X042273Y028939*
X042313Y028843*
X042377Y028760*
X042459Y028697*
X042555Y028657*
X042659Y028643*
X042762Y028657*
X042858Y028697*
X042940Y028760*
X043004Y028843*
X043044Y028939*
X043057Y029042*
X043044Y029145*
X043004Y029241*
X042940Y029324*
X042858Y029387*
X042762Y029427*
X042659Y029441*
G37*
G36*
X038340Y028797D02*
Y028450D01*
X038687*
X038680Y028504*
X038639Y028602*
X038575Y028685*
X038492Y028749*
X038394Y028790*
X038340Y028797*
G37*
G36*
X038240D02*
X038186Y028790D01*
X038088Y028749*
X038005Y028685*
X037941Y028602*
X037900Y028504*
X037893Y028450*
X038240*
Y028797*
G37*
G36*
X030640Y028747D02*
Y028400D01*
X030987*
X030980Y028454*
X030939Y028552*
X030875Y028635*
X030792Y028699*
X030694Y028740*
X030640Y028747*
G37*
G36*
X030540D02*
X030486Y028740D01*
X030388Y028699*
X030305Y028635*
X030241Y028552*
X030200Y028454*
X030193Y028400*
X030540*
Y028747*
G37*
G36*
X029040Y028903D02*
X028949Y028891D01*
X028863Y028856*
X028790Y028800*
X028734Y028727*
X028699Y028641*
X028687Y028550*
X028699Y028459*
X028709Y028435*
X024655Y024381*
X024631Y024391*
X024540Y024403*
X024449Y024391*
X024363Y024356*
X024290Y024300*
X024234Y024227*
X024199Y024141*
X024187Y024050*
X024199Y023959*
X024234Y023873*
X024290Y023800*
X024363Y023744*
X024449Y023709*
X024540Y023697*
X024631Y023709*
X024717Y023744*
X024790Y023800*
X024846Y023873*
X024881Y023959*
X024893Y024050*
X024881Y024141*
X024871Y024165*
X028925Y028219*
X028949Y028209*
X029040Y028197*
X029131Y028209*
X029217Y028244*
X029290Y028300*
X029346Y028373*
X029381Y028459*
X029393Y028550*
X029381Y028641*
X029346Y028727*
X029290Y028800*
X029217Y028856*
X029131Y028891*
X029040Y028903*
G37*
G36*
X038687Y028350D02*
X038340D01*
Y028003*
X038394Y028010*
X038492Y028051*
X038575Y028115*
X038639Y028198*
X038680Y028296*
X038687Y028350*
G37*
G36*
X038240D02*
X037893D01*
X037900Y028296*
X037941Y028198*
X038005Y028115*
X038088Y028051*
X038186Y028010*
X038240Y028003*
Y028350*
G37*
G36*
X033690Y028800D02*
X032890D01*
Y028000*
X033690*
Y028800*
G37*
G36*
X040290Y028803D02*
X040186Y028790D01*
X040088Y028749*
X040005Y028685*
X039941Y028602*
X039900Y028504*
X039887Y028400*
X039900Y028296*
X039920Y028247*
X039177Y027503*
X030960*
X030939Y027552*
X030875Y027635*
X030792Y027699*
X030694Y027740*
X030590Y027753*
X030486Y027740*
X030388Y027699*
X030305Y027635*
X030241Y027552*
X030200Y027454*
X030187Y027350*
X030200Y027246*
X030241Y027148*
X030305Y027065*
X030388Y027001*
X030486Y026960*
X030590Y026947*
X030694Y026960*
X030743Y026981*
X034587Y023137*
Y021650*
X034290*
Y020750*
X035190*
Y021650*
X034893*
Y023200*
X034881Y023259*
X034848Y023308*
X031009Y027147*
X031030Y027197*
X039240*
X039299Y027209*
X039348Y027242*
X040137Y028031*
X040186Y028010*
X040290Y027997*
X040394Y028010*
X040492Y028051*
X040575Y028115*
X040639Y028198*
X040680Y028296*
X040693Y028400*
X040680Y028504*
X040639Y028602*
X040575Y028685*
X040492Y028749*
X040394Y028790*
X040290Y028803*
G37*
G36*
X039290D02*
X039186Y028790D01*
X039088Y028749*
X039005Y028685*
X038941Y028602*
X038900Y028504*
X038887Y028400*
X038900Y028296*
X038941Y028198*
X039005Y028115*
X039088Y028051*
X039186Y028010*
X039290Y027997*
X039394Y028010*
X039492Y028051*
X039575Y028115*
X039639Y028198*
X039680Y028296*
X039693Y028400*
X039680Y028504*
X039639Y028602*
X039575Y028685*
X039492Y028749*
X039394Y028790*
X039290Y028803*
G37*
G36*
X037290D02*
X037186Y028790D01*
X037088Y028749*
X037005Y028685*
X036941Y028602*
X036900Y028504*
X036887Y028400*
X036900Y028296*
X036941Y028198*
X037005Y028115*
X037088Y028051*
X037186Y028010*
X037290Y027997*
X037394Y028010*
X037492Y028051*
X037575Y028115*
X037639Y028198*
X037680Y028296*
X037693Y028400*
X037680Y028504*
X037639Y028602*
X037575Y028685*
X037492Y028749*
X037394Y028790*
X037290Y028803*
G37*
G36*
X035290D02*
X035186Y028790D01*
X035088Y028749*
X035005Y028685*
X034941Y028602*
X034900Y028504*
X034887Y028400*
X034900Y028296*
X034941Y028198*
X035005Y028115*
X035088Y028051*
X035186Y028010*
X035290Y027997*
X035394Y028010*
X035492Y028051*
X035575Y028115*
X035639Y028198*
X035680Y028296*
X035693Y028400*
X035680Y028504*
X035639Y028602*
X035575Y028685*
X035492Y028749*
X035394Y028790*
X035290Y028803*
G37*
G36*
X034290D02*
X034186Y028790D01*
X034088Y028749*
X034005Y028685*
X033941Y028602*
X033900Y028504*
X033887Y028400*
X033900Y028296*
X033941Y028198*
X034005Y028115*
X034088Y028051*
X034186Y028010*
X034290Y027997*
X034394Y028010*
X034492Y028051*
X034575Y028115*
X034639Y028198*
X034680Y028296*
X034693Y028400*
X034680Y028504*
X034639Y028602*
X034575Y028685*
X034492Y028749*
X034394Y028790*
X034290Y028803*
G37*
G36*
X030987Y028300D02*
X030640D01*
Y027953*
X030694Y027960*
X030792Y028001*
X030875Y028065*
X030939Y028148*
X030980Y028246*
X030987Y028300*
G37*
G36*
X030540D02*
X030193D01*
X030200Y028246*
X030241Y028148*
X030305Y028065*
X030388Y028001*
X030486Y027960*
X030540Y027953*
Y028300*
G37*
G36*
X015840Y028196D02*
Y027650D01*
X016143*
Y027850*
X016131Y027941*
X016096Y028027*
X016040Y028100*
X015967Y028156*
X015881Y028191*
X015840Y028196*
G37*
G36*
X014840D02*
Y027650D01*
X015143*
Y027850*
X015131Y027941*
X015096Y028027*
X015040Y028100*
X014967Y028156*
X014881Y028191*
X014840Y028196*
G37*
G36*
X015740D02*
X015699Y028191D01*
X015613Y028156*
X015540Y028100*
X015484Y028027*
X015449Y027941*
X015437Y027850*
Y027650*
X015740*
Y028196*
G37*
G36*
X014740D02*
X014699Y028191D01*
X014613Y028156*
X014540Y028100*
X014484Y028027*
X014449Y027941*
X014437Y027850*
Y027650*
X014740*
Y028196*
G37*
G36*
X045658Y028441D02*
X045555Y028427D01*
X045459Y028387*
X045377Y028324*
X045313Y028241*
X045273Y028145*
X045260Y028042*
X045273Y027939*
X045313Y027843*
X045377Y027760*
X045459Y027697*
X045555Y027657*
X045658Y027643*
X045762Y027657*
X045858Y027697*
X045940Y027760*
X046004Y027843*
X046044Y027939*
X046057Y028042*
X046044Y028145*
X046004Y028241*
X045940Y028324*
X045858Y028387*
X045762Y028427*
X045658Y028441*
G37*
G36*
X044658D02*
X044555Y028427D01*
X044459Y028387*
X044377Y028324*
X044313Y028241*
X044273Y028145*
X044260Y028042*
X044273Y027939*
X044313Y027843*
X044377Y027760*
X044459Y027697*
X044555Y027657*
X044658Y027643*
X044762Y027657*
X044858Y027697*
X044940Y027760*
X045004Y027843*
X045044Y027939*
X045057Y028042*
X045044Y028145*
X045004Y028241*
X044940Y028324*
X044858Y028387*
X044762Y028427*
X044658Y028441*
G37*
G36*
X043658D02*
X043555Y028427D01*
X043459Y028387*
X043377Y028324*
X043313Y028241*
X043273Y028145*
X043260Y028042*
X043273Y027939*
X043313Y027843*
X043377Y027760*
X043459Y027697*
X043555Y027657*
X043658Y027643*
X043762Y027657*
X043858Y027697*
X043940Y027760*
X044004Y027843*
X044044Y027939*
X044057Y028042*
X044044Y028145*
X044004Y028241*
X043940Y028324*
X043858Y028387*
X043762Y028427*
X043658Y028441*
G37*
G36*
X042659D02*
X042555Y028427D01*
X042459Y028387*
X042377Y028324*
X042313Y028241*
X042273Y028145*
X042260Y028042*
X042273Y027939*
X042313Y027843*
X042377Y027760*
X042459Y027697*
X042555Y027657*
X042659Y027643*
X042762Y027657*
X042858Y027697*
X042940Y027760*
X043004Y027843*
X043044Y027939*
X043057Y028042*
X043044Y028145*
X043004Y028241*
X042940Y028324*
X042858Y028387*
X042762Y028427*
X042659Y028441*
G37*
G36*
X015143Y027550D02*
X014840D01*
Y027004*
X014881Y027009*
X014967Y027044*
X015040Y027100*
X015096Y027173*
X015131Y027259*
X015143Y027350*
Y027550*
G37*
G36*
X016143D02*
X015840D01*
Y027004*
X015881Y027009*
X015967Y027044*
X016040Y027100*
X016096Y027173*
X016131Y027259*
X016143Y027350*
Y027550*
G37*
G36*
X015740D02*
X015437D01*
Y027350*
X015449Y027259*
X015484Y027173*
X015540Y027100*
X015613Y027044*
X015699Y027009*
X015740Y027004*
Y027550*
G37*
G36*
X014740D02*
X014437D01*
Y027350*
X014449Y027259*
X014484Y027173*
X014540Y027100*
X014613Y027044*
X014699Y027009*
X014740Y027004*
Y027550*
G37*
G36*
X013140Y028200D02*
X012440D01*
Y027000*
X013140*
Y028200*
G37*
G36*
X023790Y028203D02*
X023699Y028191D01*
X023613Y028156*
X023540Y028100*
X023484Y028027*
X023449Y027941*
X023437Y027850*
Y027350*
X023449Y027259*
X023484Y027173*
X023540Y027100*
X023613Y027044*
X023699Y027009*
X023790Y026997*
X023881Y027009*
X023967Y027044*
X024040Y027100*
X024096Y027173*
X024131Y027259*
X024143Y027350*
Y027850*
X024131Y027941*
X024096Y028027*
X024040Y028100*
X023967Y028156*
X023881Y028191*
X023790Y028203*
G37*
G36*
X022790D02*
X022699Y028191D01*
X022613Y028156*
X022540Y028100*
X022484Y028027*
X022449Y027941*
X022437Y027850*
Y027350*
X022449Y027259*
X022484Y027173*
X022540Y027100*
X022613Y027044*
X022699Y027009*
X022790Y026997*
X022881Y027009*
X022967Y027044*
X023040Y027100*
X023096Y027173*
X023131Y027259*
X023143Y027350*
Y027850*
X023131Y027941*
X023096Y028027*
X023040Y028100*
X022967Y028156*
X022881Y028191*
X022790Y028203*
G37*
G36*
X021790D02*
X021699Y028191D01*
X021613Y028156*
X021540Y028100*
X021484Y028027*
X021449Y027941*
X021437Y027850*
Y027350*
X021449Y027259*
X021484Y027173*
X021540Y027100*
X021613Y027044*
X021699Y027009*
X021790Y026997*
X021881Y027009*
X021967Y027044*
X022040Y027100*
X022096Y027173*
X022131Y027259*
X022143Y027350*
Y027850*
X022131Y027941*
X022096Y028027*
X022040Y028100*
X021967Y028156*
X021881Y028191*
X021790Y028203*
G37*
G36*
X020790D02*
X020699Y028191D01*
X020613Y028156*
X020540Y028100*
X020484Y028027*
X020449Y027941*
X020437Y027850*
Y027350*
X020449Y027259*
X020484Y027173*
X020540Y027100*
X020613Y027044*
X020699Y027009*
X020790Y026997*
X020881Y027009*
X020967Y027044*
X021040Y027100*
X021096Y027173*
X021131Y027259*
X021143Y027350*
Y027850*
X021131Y027941*
X021096Y028027*
X021040Y028100*
X020967Y028156*
X020881Y028191*
X020790Y028203*
G37*
G36*
X019790D02*
X019699Y028191D01*
X019613Y028156*
X019540Y028100*
X019484Y028027*
X019449Y027941*
X019437Y027850*
Y027350*
X019449Y027259*
X019484Y027173*
X019540Y027100*
X019613Y027044*
X019699Y027009*
X019790Y026997*
X019881Y027009*
X019967Y027044*
X020040Y027100*
X020096Y027173*
X020131Y027259*
X020143Y027350*
Y027850*
X020131Y027941*
X020096Y028027*
X020040Y028100*
X019967Y028156*
X019881Y028191*
X019790Y028203*
G37*
G36*
X018790D02*
X018699Y028191D01*
X018613Y028156*
X018540Y028100*
X018484Y028027*
X018449Y027941*
X018437Y027850*
Y027350*
X018449Y027259*
X018484Y027173*
X018540Y027100*
X018613Y027044*
X018699Y027009*
X018790Y026997*
X018881Y027009*
X018967Y027044*
X019040Y027100*
X019096Y027173*
X019131Y027259*
X019143Y027350*
Y027850*
X019131Y027941*
X019096Y028027*
X019040Y028100*
X018967Y028156*
X018881Y028191*
X018790Y028203*
G37*
G36*
X013790D02*
X013699Y028191D01*
X013613Y028156*
X013540Y028100*
X013484Y028027*
X013449Y027941*
X013437Y027850*
Y027350*
X013449Y027259*
X013484Y027173*
X013540Y027100*
X013613Y027044*
X013699Y027009*
X013790Y026997*
X013881Y027009*
X013967Y027044*
X014040Y027100*
X014096Y027173*
X014131Y027259*
X014143Y027350*
Y027850*
X014131Y027941*
X014096Y028027*
X014040Y028100*
X013967Y028156*
X013881Y028191*
X013790Y028203*
G37*
G36*
X045658Y027441D02*
X045555Y027427D01*
X045459Y027387*
X045377Y027324*
X045313Y027241*
X045273Y027145*
X045260Y027042*
X045273Y026939*
X045313Y026843*
X045377Y026760*
X045459Y026697*
X045555Y026657*
X045658Y026643*
X045762Y026657*
X045858Y026697*
X045940Y026760*
X046004Y026843*
X046044Y026939*
X046057Y027042*
X046044Y027145*
X046004Y027241*
X045940Y027324*
X045858Y027387*
X045762Y027427*
X045658Y027441*
G37*
G36*
X044658D02*
X044555Y027427D01*
X044459Y027387*
X044377Y027324*
X044313Y027241*
X044273Y027145*
X044260Y027042*
X044273Y026939*
X044313Y026843*
X044377Y026760*
X044459Y026697*
X044555Y026657*
X044658Y026643*
X044762Y026657*
X044858Y026697*
X044940Y026760*
X045004Y026843*
X045044Y026939*
X045057Y027042*
X045044Y027145*
X045004Y027241*
X044940Y027324*
X044858Y027387*
X044762Y027427*
X044658Y027441*
G37*
G36*
X043658D02*
X043555Y027427D01*
X043459Y027387*
X043377Y027324*
X043313Y027241*
X043273Y027145*
X043260Y027042*
X043273Y026939*
X043313Y026843*
X043377Y026760*
X043459Y026697*
X043555Y026657*
X043658Y026643*
X043762Y026657*
X043858Y026697*
X043940Y026760*
X044004Y026843*
X044044Y026939*
X044057Y027042*
X044044Y027145*
X044004Y027241*
X043940Y027324*
X043858Y027387*
X043762Y027427*
X043658Y027441*
G37*
G36*
X042659D02*
X042555Y027427D01*
X042459Y027387*
X042377Y027324*
X042313Y027241*
X042273Y027145*
X042260Y027042*
X042273Y026939*
X042313Y026843*
X042377Y026760*
X042459Y026697*
X042555Y026657*
X042659Y026643*
X042762Y026657*
X042858Y026697*
X042940Y026760*
X043004Y026843*
X043044Y026939*
X043057Y027042*
X043044Y027145*
X043004Y027241*
X042940Y027324*
X042858Y027387*
X042762Y027427*
X042659Y027441*
G37*
G36*
X013840Y026603D02*
X013736Y026590D01*
X013638Y026549*
X013555Y026485*
X013491Y026402*
X013450Y026304*
X013437Y026200*
X013450Y026096*
X013491Y025998*
X013555Y025915*
X013638Y025851*
X013736Y025810*
X013840Y025797*
X013944Y025810*
X014042Y025851*
X014125Y025915*
X014189Y025998*
X014230Y026096*
X014243Y026200*
X014230Y026304*
X014189Y026402*
X014125Y026485*
X014042Y026549*
X013944Y026590*
X013840Y026603*
G37*
G36*
X010840D02*
X010736Y026590D01*
X010638Y026549*
X010555Y026485*
X010491Y026402*
X010450Y026304*
X010437Y026200*
X010450Y026096*
X010491Y025998*
X010555Y025915*
X010638Y025851*
X010736Y025810*
X010840Y025797*
X010944Y025810*
X011042Y025851*
X011125Y025915*
X011189Y025998*
X011230Y026096*
X011243Y026200*
X011230Y026304*
X011189Y026402*
X011125Y026485*
X011042Y026549*
X010944Y026590*
X010840Y026603*
G37*
G36*
X045658Y026441D02*
X045555Y026427D01*
X045459Y026387*
X045377Y026324*
X045313Y026241*
X045273Y026145*
X045260Y026042*
X045273Y025939*
X045313Y025843*
X045377Y025760*
X045459Y025697*
X045555Y025657*
X045658Y025643*
X045762Y025657*
X045858Y025697*
X045940Y025760*
X046004Y025843*
X046044Y025939*
X046057Y026042*
X046044Y026145*
X046004Y026241*
X045940Y026324*
X045858Y026387*
X045762Y026427*
X045658Y026441*
G37*
G36*
X044658D02*
X044555Y026427D01*
X044459Y026387*
X044377Y026324*
X044313Y026241*
X044273Y026145*
X044260Y026042*
X044273Y025939*
X044313Y025843*
X044377Y025760*
X044459Y025697*
X044555Y025657*
X044658Y025643*
X044762Y025657*
X044858Y025697*
X044940Y025760*
X045004Y025843*
X045044Y025939*
X045057Y026042*
X045044Y026145*
X045004Y026241*
X044940Y026324*
X044858Y026387*
X044762Y026427*
X044658Y026441*
G37*
G36*
X043658D02*
X043555Y026427D01*
X043459Y026387*
X043377Y026324*
X043313Y026241*
X043273Y026145*
X043260Y026042*
X043273Y025939*
X043313Y025843*
X043377Y025760*
X043459Y025697*
X043555Y025657*
X043658Y025643*
X043762Y025657*
X043858Y025697*
X043940Y025760*
X044004Y025843*
X044044Y025939*
X044057Y026042*
X044044Y026145*
X044004Y026241*
X043940Y026324*
X043858Y026387*
X043762Y026427*
X043658Y026441*
G37*
G36*
X042659D02*
X042555Y026427D01*
X042459Y026387*
X042377Y026324*
X042313Y026241*
X042273Y026145*
X042260Y026042*
X042273Y025939*
X042313Y025843*
X042377Y025760*
X042459Y025697*
X042555Y025657*
X042659Y025643*
X042762Y025657*
X042858Y025697*
X042940Y025760*
X043004Y025843*
X043044Y025939*
X043057Y026042*
X043044Y026145*
X043004Y026241*
X042940Y026324*
X042858Y026387*
X042762Y026427*
X042659Y026441*
G37*
G36*
X018540Y026003D02*
X018436Y025990D01*
X018338Y025949*
X018255Y025885*
X018191Y025802*
X018150Y025704*
X018137Y025600*
X018150Y025496*
X018191Y025398*
X018255Y025315*
X018338Y025251*
X018436Y025210*
X018540Y025197*
X018644Y025210*
X018742Y025251*
X018825Y025315*
X018889Y025398*
X018930Y025496*
X018943Y025600*
X018930Y025704*
X018889Y025802*
X018825Y025885*
X018742Y025949*
X018644Y025990*
X018540Y026003*
G37*
G36*
X015640D02*
X015536Y025990D01*
X015438Y025949*
X015355Y025885*
X015291Y025802*
X015250Y025704*
X015237Y025600*
X015250Y025496*
X015291Y025398*
X015355Y025315*
X015438Y025251*
X015536Y025210*
X015640Y025197*
X015744Y025210*
X015842Y025251*
X015925Y025315*
X015989Y025398*
X016030Y025496*
X016043Y025600*
X016030Y025704*
X015989Y025802*
X015925Y025885*
X015842Y025949*
X015744Y025990*
X015640Y026003*
G37*
G36*
X045658Y025441D02*
X045555Y025427D01*
X045459Y025387*
X045377Y025324*
X045313Y025241*
X045273Y025145*
X045260Y025042*
X045273Y024939*
X045313Y024843*
X045377Y024760*
X045459Y024697*
X045555Y024657*
X045658Y024643*
X045762Y024657*
X045858Y024697*
X045940Y024760*
X046004Y024843*
X046044Y024939*
X046057Y025042*
X046044Y025145*
X046004Y025241*
X045940Y025324*
X045858Y025387*
X045762Y025427*
X045658Y025441*
G37*
G36*
X044658D02*
X044555Y025427D01*
X044459Y025387*
X044377Y025324*
X044313Y025241*
X044273Y025145*
X044260Y025042*
X044273Y024939*
X044313Y024843*
X044377Y024760*
X044459Y024697*
X044555Y024657*
X044658Y024643*
X044762Y024657*
X044858Y024697*
X044940Y024760*
X045004Y024843*
X045044Y024939*
X045057Y025042*
X045044Y025145*
X045004Y025241*
X044940Y025324*
X044858Y025387*
X044762Y025427*
X044658Y025441*
G37*
G36*
X043658D02*
X043555Y025427D01*
X043459Y025387*
X043377Y025324*
X043313Y025241*
X043273Y025145*
X043260Y025042*
X043273Y024939*
X043313Y024843*
X043377Y024760*
X043459Y024697*
X043555Y024657*
X043658Y024643*
X043762Y024657*
X043858Y024697*
X043940Y024760*
X044004Y024843*
X044044Y024939*
X044057Y025042*
X044044Y025145*
X044004Y025241*
X043940Y025324*
X043858Y025387*
X043762Y025427*
X043658Y025441*
G37*
G36*
X042659D02*
X042555Y025427D01*
X042459Y025387*
X042377Y025324*
X042313Y025241*
X042273Y025145*
X042260Y025042*
X042273Y024939*
X042313Y024843*
X042377Y024760*
X042459Y024697*
X042555Y024657*
X042659Y024643*
X042762Y024657*
X042858Y024697*
X042940Y024760*
X043004Y024843*
X043044Y024939*
X043057Y025042*
X043044Y025145*
X043004Y025241*
X042940Y025324*
X042858Y025387*
X042762Y025427*
X042659Y025441*
G37*
G36*
X018540Y025003D02*
X018436Y024990D01*
X018338Y024949*
X018255Y024885*
X018191Y024802*
X018150Y024704*
X018137Y024600*
X018150Y024496*
X018191Y024398*
X018255Y024315*
X018338Y024251*
X018436Y024210*
X018540Y024197*
X018644Y024210*
X018742Y024251*
X018825Y024315*
X018889Y024398*
X018930Y024496*
X018943Y024600*
X018930Y024704*
X018889Y024802*
X018825Y024885*
X018742Y024949*
X018644Y024990*
X018540Y025003*
G37*
G36*
X015640D02*
X015536Y024990D01*
X015438Y024949*
X015355Y024885*
X015291Y024802*
X015250Y024704*
X015237Y024600*
X015250Y024496*
X015291Y024398*
X015355Y024315*
X015438Y024251*
X015536Y024210*
X015640Y024197*
X015744Y024210*
X015842Y024251*
X015925Y024315*
X015989Y024398*
X016030Y024496*
X016043Y024600*
X016030Y024704*
X015989Y024802*
X015925Y024885*
X015842Y024949*
X015744Y024990*
X015640Y025003*
G37*
G36*
X013840Y024603D02*
X013736Y024590D01*
X013638Y024549*
X013555Y024485*
X013491Y024402*
X013450Y024304*
X013437Y024200*
X013450Y024096*
X013491Y023998*
X013555Y023915*
X013638Y023851*
X013736Y023810*
X013840Y023797*
X013944Y023810*
X014042Y023851*
X014125Y023915*
X014189Y023998*
X014230Y024096*
X014243Y024200*
X014230Y024304*
X014189Y024402*
X014125Y024485*
X014042Y024549*
X013944Y024590*
X013840Y024603*
G37*
G36*
X010840D02*
X010736Y024590D01*
X010638Y024549*
X010555Y024485*
X010491Y024402*
X010450Y024304*
X010437Y024200*
X010450Y024096*
X010491Y023998*
X010555Y023915*
X010638Y023851*
X010736Y023810*
X010840Y023797*
X010944Y023810*
X011042Y023851*
X011125Y023915*
X011189Y023998*
X011230Y024096*
X011243Y024200*
X011230Y024304*
X011189Y024402*
X011125Y024485*
X011042Y024549*
X010944Y024590*
X010840Y024603*
G37*
G36*
X045658Y024441D02*
X045555Y024427D01*
X045459Y024387*
X045377Y024324*
X045313Y024241*
X045273Y024145*
X045260Y024042*
X045273Y023939*
X045313Y023843*
X045377Y023760*
X045459Y023697*
X045555Y023657*
X045658Y023643*
X045762Y023657*
X045858Y023697*
X045940Y023760*
X046004Y023843*
X046044Y023939*
X046057Y024042*
X046044Y024145*
X046004Y024241*
X045940Y024324*
X045858Y024387*
X045762Y024427*
X045658Y024441*
G37*
G36*
X044658D02*
X044555Y024427D01*
X044459Y024387*
X044377Y024324*
X044313Y024241*
X044273Y024145*
X044260Y024042*
X044273Y023939*
X044313Y023843*
X044377Y023760*
X044459Y023697*
X044555Y023657*
X044658Y023643*
X044762Y023657*
X044858Y023697*
X044940Y023760*
X045004Y023843*
X045044Y023939*
X045057Y024042*
X045044Y024145*
X045004Y024241*
X044940Y024324*
X044858Y024387*
X044762Y024427*
X044658Y024441*
G37*
G36*
X043658D02*
X043555Y024427D01*
X043459Y024387*
X043377Y024324*
X043313Y024241*
X043273Y024145*
X043260Y024042*
X043273Y023939*
X043313Y023843*
X043377Y023760*
X043459Y023697*
X043555Y023657*
X043658Y023643*
X043762Y023657*
X043858Y023697*
X043940Y023760*
X044004Y023843*
X044044Y023939*
X044057Y024042*
X044044Y024145*
X044004Y024241*
X043940Y024324*
X043858Y024387*
X043762Y024427*
X043658Y024441*
G37*
G36*
X042659D02*
X042555Y024427D01*
X042459Y024387*
X042377Y024324*
X042313Y024241*
X042273Y024145*
X042260Y024042*
X042273Y023939*
X042313Y023843*
X042377Y023760*
X042459Y023697*
X042555Y023657*
X042659Y023643*
X042762Y023657*
X042858Y023697*
X042940Y023760*
X043004Y023843*
X043044Y023939*
X043057Y024042*
X043044Y024145*
X043004Y024241*
X042940Y024324*
X042858Y024387*
X042762Y024427*
X042659Y024441*
G37*
G36*
X045658Y023441D02*
X045555Y023427D01*
X045459Y023387*
X045377Y023324*
X045313Y023241*
X045273Y023145*
X045260Y023042*
X045273Y022939*
X045313Y022843*
X045377Y022760*
X045459Y022697*
X045555Y022657*
X045658Y022643*
X045762Y022657*
X045858Y022697*
X045940Y022760*
X046004Y022843*
X046044Y022939*
X046057Y023042*
X046044Y023145*
X046004Y023241*
X045940Y023324*
X045858Y023387*
X045762Y023427*
X045658Y023441*
G37*
G36*
X044658D02*
X044555Y023427D01*
X044459Y023387*
X044377Y023324*
X044313Y023241*
X044273Y023145*
X044260Y023042*
X044273Y022939*
X044313Y022843*
X044377Y022760*
X044459Y022697*
X044555Y022657*
X044658Y022643*
X044762Y022657*
X044858Y022697*
X044940Y022760*
X045004Y022843*
X045044Y022939*
X045057Y023042*
X045044Y023145*
X045004Y023241*
X044940Y023324*
X044858Y023387*
X044762Y023427*
X044658Y023441*
G37*
G36*
X043658D02*
X043555Y023427D01*
X043459Y023387*
X043377Y023324*
X043313Y023241*
X043273Y023145*
X043260Y023042*
X043273Y022939*
X043313Y022843*
X043377Y022760*
X043459Y022697*
X043555Y022657*
X043658Y022643*
X043762Y022657*
X043858Y022697*
X043940Y022760*
X044004Y022843*
X044044Y022939*
X044057Y023042*
X044044Y023145*
X044004Y023241*
X043940Y023324*
X043858Y023387*
X043762Y023427*
X043658Y023441*
G37*
G36*
X042659D02*
X042555Y023427D01*
X042459Y023387*
X042377Y023324*
X042313Y023241*
X042273Y023145*
X042260Y023042*
X042273Y022939*
X042313Y022843*
X042377Y022760*
X042459Y022697*
X042555Y022657*
X042659Y022643*
X042762Y022657*
X042858Y022697*
X042940Y022760*
X043004Y022843*
X043044Y022939*
X043057Y023042*
X043044Y023145*
X043004Y023241*
X042940Y023324*
X042858Y023387*
X042762Y023427*
X042659Y023441*
G37*
G36*
X045658Y022441D02*
X045555Y022427D01*
X045459Y022387*
X045377Y022324*
X045313Y022241*
X045273Y022145*
X045260Y022042*
X045273Y021939*
X045313Y021843*
X045377Y021760*
X045459Y021697*
X045555Y021657*
X045658Y021643*
X045762Y021657*
X045858Y021697*
X045940Y021760*
X046004Y021843*
X046044Y021939*
X046057Y022042*
X046044Y022145*
X046004Y022241*
X045940Y022324*
X045858Y022387*
X045762Y022427*
X045658Y022441*
G37*
G36*
X044658D02*
X044555Y022427D01*
X044459Y022387*
X044377Y022324*
X044313Y022241*
X044273Y022145*
X044260Y022042*
X044273Y021939*
X044313Y021843*
X044377Y021760*
X044459Y021697*
X044555Y021657*
X044658Y021643*
X044762Y021657*
X044858Y021697*
X044940Y021760*
X045004Y021843*
X045044Y021939*
X045057Y022042*
X045044Y022145*
X045004Y022241*
X044940Y022324*
X044858Y022387*
X044762Y022427*
X044658Y022441*
G37*
G36*
X043658D02*
X043555Y022427D01*
X043459Y022387*
X043377Y022324*
X043313Y022241*
X043273Y022145*
X043260Y022042*
X043273Y021939*
X043313Y021843*
X043377Y021760*
X043459Y021697*
X043555Y021657*
X043658Y021643*
X043762Y021657*
X043858Y021697*
X043940Y021760*
X044004Y021843*
X044044Y021939*
X044057Y022042*
X044044Y022145*
X044004Y022241*
X043940Y022324*
X043858Y022387*
X043762Y022427*
X043658Y022441*
G37*
G36*
X042659D02*
X042555Y022427D01*
X042459Y022387*
X042377Y022324*
X042313Y022241*
X042273Y022145*
X042260Y022042*
X042273Y021939*
X042313Y021843*
X042377Y021760*
X042459Y021697*
X042555Y021657*
X042659Y021643*
X042762Y021657*
X042858Y021697*
X042940Y021760*
X043004Y021843*
X043044Y021939*
X043057Y022042*
X043044Y022145*
X043004Y022241*
X042940Y022324*
X042858Y022387*
X042762Y022427*
X042659Y022441*
G37*
G36*
X035790Y021647D02*
Y021250D01*
X036187*
X036178Y021317*
X036133Y021427*
X036061Y021521*
X035967Y021593*
X035857Y021638*
X035790Y021647*
G37*
G36*
X035690D02*
X035623Y021638D01*
X035513Y021593*
X035419Y021521*
X035347Y021427*
X035302Y021317*
X035293Y021250*
X035690*
Y021647*
G37*
G36*
X036187Y021150D02*
X035790D01*
Y020753*
X035857Y020762*
X035967Y020807*
X036061Y020879*
X036133Y020973*
X036178Y021083*
X036187Y021150*
G37*
G36*
X035690D02*
X035293D01*
X035302Y021083*
X035347Y020973*
X035419Y020879*
X035513Y020807*
X035623Y020762*
X035690Y020753*
Y021150*
G37*
G36*
X039740Y021654D02*
X039623Y021638D01*
X039513Y021593*
X039419Y021521*
X039347Y021427*
X039302Y021317*
X039286Y021200*
X039302Y021083*
X039347Y020973*
X039419Y020879*
X039513Y020807*
X039623Y020762*
X039740Y020746*
X039857Y020762*
X039967Y020807*
X040061Y020879*
X040133Y020973*
X040178Y021083*
X040194Y021200*
X040178Y021317*
X040133Y021427*
X040061Y021521*
X039967Y021593*
X039857Y021638*
X039740Y021654*
G37*
G36*
X038740D02*
X038623Y021638D01*
X038513Y021593*
X038419Y021521*
X038347Y021427*
X038302Y021317*
X038286Y021200*
X038302Y021083*
X038347Y020973*
X038419Y020879*
X038513Y020807*
X038623Y020762*
X038740Y020746*
X038857Y020762*
X038967Y020807*
X039061Y020879*
X039133Y020973*
X039178Y021083*
X039194Y021200*
X039178Y021317*
X039133Y021427*
X039061Y021521*
X038967Y021593*
X038857Y021638*
X038740Y021654*
G37*
G36*
X037740D02*
X037623Y021638D01*
X037513Y021593*
X037419Y021521*
X037347Y021427*
X037302Y021317*
X037286Y021200*
X037302Y021083*
X037347Y020973*
X037419Y020879*
X037513Y020807*
X037623Y020762*
X037740Y020746*
X037857Y020762*
X037967Y020807*
X038061Y020879*
X038133Y020973*
X038178Y021083*
X038194Y021200*
X038178Y021317*
X038133Y021427*
X038061Y021521*
X037967Y021593*
X037857Y021638*
X037740Y021654*
G37*
G36*
X036740D02*
X036623Y021638D01*
X036513Y021593*
X036419Y021521*
X036347Y021427*
X036302Y021317*
X036286Y021200*
X036302Y021083*
X036347Y020973*
X036419Y020879*
X036513Y020807*
X036623Y020762*
X036740Y020746*
X036857Y020762*
X036967Y020807*
X037061Y020879*
X037133Y020973*
X037178Y021083*
X037194Y021200*
X037178Y021317*
X037133Y021427*
X037061Y021521*
X036967Y021593*
X036857Y021638*
X036740Y021654*
G37*
G36*
X045658Y021441D02*
X045555Y021427D01*
X045459Y021387*
X045377Y021324*
X045313Y021241*
X045273Y021145*
X045260Y021042*
X045273Y020939*
X045313Y020843*
X045377Y020760*
X045459Y020697*
X045555Y020657*
X045658Y020643*
X045762Y020657*
X045858Y020697*
X045940Y020760*
X046004Y020843*
X046044Y020939*
X046057Y021042*
X046044Y021145*
X046004Y021241*
X045940Y021324*
X045858Y021387*
X045762Y021427*
X045658Y021441*
G37*
G36*
X044658D02*
X044555Y021427D01*
X044459Y021387*
X044377Y021324*
X044313Y021241*
X044273Y021145*
X044260Y021042*
X044273Y020939*
X044313Y020843*
X044377Y020760*
X044459Y020697*
X044555Y020657*
X044658Y020643*
X044762Y020657*
X044858Y020697*
X044940Y020760*
X045004Y020843*
X045044Y020939*
X045057Y021042*
X045044Y021145*
X045004Y021241*
X044940Y021324*
X044858Y021387*
X044762Y021427*
X044658Y021441*
G37*
G36*
X043658D02*
X043555Y021427D01*
X043459Y021387*
X043377Y021324*
X043313Y021241*
X043273Y021145*
X043260Y021042*
X043273Y020939*
X043313Y020843*
X043377Y020760*
X043459Y020697*
X043555Y020657*
X043658Y020643*
X043762Y020657*
X043858Y020697*
X043940Y020760*
X044004Y020843*
X044044Y020939*
X044057Y021042*
X044044Y021145*
X044004Y021241*
X043940Y021324*
X043858Y021387*
X043762Y021427*
X043658Y021441*
G37*
G36*
X042659D02*
X042555Y021427D01*
X042459Y021387*
X042377Y021324*
X042313Y021241*
X042273Y021145*
X042260Y021042*
X042273Y020939*
X042313Y020843*
X042377Y020760*
X042459Y020697*
X042555Y020657*
X042659Y020643*
X042762Y020657*
X042858Y020697*
X042940Y020760*
X043004Y020843*
X043044Y020939*
X043057Y021042*
X043044Y021145*
X043004Y021241*
X042940Y021324*
X042858Y021387*
X042762Y021427*
X042659Y021441*
G37*
G36*
X045658Y020441D02*
X045555Y020427D01*
X045459Y020387*
X045377Y020324*
X045313Y020241*
X045273Y020145*
X045260Y020042*
X045273Y019939*
X045313Y019843*
X045377Y019760*
X045459Y019697*
X045555Y019657*
X045658Y019643*
X045762Y019657*
X045858Y019697*
X045940Y019760*
X046004Y019843*
X046044Y019939*
X046057Y020042*
X046044Y020145*
X046004Y020241*
X045940Y020324*
X045858Y020387*
X045762Y020427*
X045658Y020441*
G37*
G36*
X044658D02*
X044555Y020427D01*
X044459Y020387*
X044377Y020324*
X044313Y020241*
X044273Y020145*
X044260Y020042*
X044273Y019939*
X044313Y019843*
X044377Y019760*
X044459Y019697*
X044555Y019657*
X044658Y019643*
X044762Y019657*
X044858Y019697*
X044940Y019760*
X045004Y019843*
X045044Y019939*
X045057Y020042*
X045044Y020145*
X045004Y020241*
X044940Y020324*
X044858Y020387*
X044762Y020427*
X044658Y020441*
G37*
G36*
X043658D02*
X043555Y020427D01*
X043459Y020387*
X043377Y020324*
X043313Y020241*
X043273Y020145*
X043260Y020042*
X043273Y019939*
X043313Y019843*
X043377Y019760*
X043459Y019697*
X043555Y019657*
X043658Y019643*
X043762Y019657*
X043858Y019697*
X043940Y019760*
X044004Y019843*
X044044Y019939*
X044057Y020042*
X044044Y020145*
X044004Y020241*
X043940Y020324*
X043858Y020387*
X043762Y020427*
X043658Y020441*
G37*
G36*
X042659D02*
X042555Y020427D01*
X042459Y020387*
X042377Y020324*
X042313Y020241*
X042273Y020145*
X042260Y020042*
X042273Y019939*
X042313Y019843*
X042377Y019760*
X042459Y019697*
X042555Y019657*
X042659Y019643*
X042762Y019657*
X042858Y019697*
X042940Y019760*
X043004Y019843*
X043044Y019939*
X043057Y020042*
X043044Y020145*
X043004Y020241*
X042940Y020324*
X042858Y020387*
X042762Y020427*
X042659Y020441*
G37*
G36*
X045658Y019441D02*
X045555Y019427D01*
X045459Y019387*
X045377Y019324*
X045313Y019241*
X045273Y019145*
X045260Y019042*
X045273Y018939*
X045313Y018843*
X045377Y018760*
X045459Y018697*
X045555Y018657*
X045658Y018643*
X045762Y018657*
X045858Y018697*
X045940Y018760*
X046004Y018843*
X046044Y018939*
X046057Y019042*
X046044Y019145*
X046004Y019241*
X045940Y019324*
X045858Y019387*
X045762Y019427*
X045658Y019441*
G37*
G36*
X044658D02*
X044555Y019427D01*
X044459Y019387*
X044377Y019324*
X044313Y019241*
X044273Y019145*
X044260Y019042*
X044273Y018939*
X044313Y018843*
X044377Y018760*
X044459Y018697*
X044555Y018657*
X044658Y018643*
X044762Y018657*
X044858Y018697*
X044940Y018760*
X045004Y018843*
X045044Y018939*
X045057Y019042*
X045044Y019145*
X045004Y019241*
X044940Y019324*
X044858Y019387*
X044762Y019427*
X044658Y019441*
G37*
G36*
X043658D02*
X043555Y019427D01*
X043459Y019387*
X043377Y019324*
X043313Y019241*
X043273Y019145*
X043260Y019042*
X043273Y018939*
X043313Y018843*
X043377Y018760*
X043459Y018697*
X043555Y018657*
X043658Y018643*
X043762Y018657*
X043858Y018697*
X043940Y018760*
X044004Y018843*
X044044Y018939*
X044057Y019042*
X044044Y019145*
X044004Y019241*
X043940Y019324*
X043858Y019387*
X043762Y019427*
X043658Y019441*
G37*
G36*
X042659D02*
X042555Y019427D01*
X042459Y019387*
X042377Y019324*
X042313Y019241*
X042273Y019145*
X042260Y019042*
X042273Y018939*
X042313Y018843*
X042377Y018760*
X042459Y018697*
X042555Y018657*
X042659Y018643*
X042762Y018657*
X042858Y018697*
X042940Y018760*
X043004Y018843*
X043044Y018939*
X043057Y019042*
X043044Y019145*
X043004Y019241*
X042940Y019324*
X042858Y019387*
X042762Y019427*
X042659Y019441*
G37*
G36*
X045658Y018441D02*
X045555Y018427D01*
X045459Y018387*
X045377Y018324*
X045313Y018241*
X045273Y018145*
X045260Y018042*
X045273Y017939*
X045313Y017843*
X045377Y017760*
X045459Y017697*
X045555Y017657*
X045658Y017643*
X045762Y017657*
X045858Y017697*
X045940Y017760*
X046004Y017843*
X046044Y017939*
X046057Y018042*
X046044Y018145*
X046004Y018241*
X045940Y018324*
X045858Y018387*
X045762Y018427*
X045658Y018441*
G37*
G36*
X044658D02*
X044555Y018427D01*
X044459Y018387*
X044377Y018324*
X044313Y018241*
X044273Y018145*
X044260Y018042*
X044273Y017939*
X044313Y017843*
X044377Y017760*
X044459Y017697*
X044555Y017657*
X044658Y017643*
X044762Y017657*
X044858Y017697*
X044940Y017760*
X045004Y017843*
X045044Y017939*
X045057Y018042*
X045044Y018145*
X045004Y018241*
X044940Y018324*
X044858Y018387*
X044762Y018427*
X044658Y018441*
G37*
G36*
X043658D02*
X043555Y018427D01*
X043459Y018387*
X043377Y018324*
X043313Y018241*
X043273Y018145*
X043260Y018042*
X043273Y017939*
X043313Y017843*
X043377Y017760*
X043459Y017697*
X043555Y017657*
X043658Y017643*
X043762Y017657*
X043858Y017697*
X043940Y017760*
X044004Y017843*
X044044Y017939*
X044057Y018042*
X044044Y018145*
X044004Y018241*
X043940Y018324*
X043858Y018387*
X043762Y018427*
X043658Y018441*
G37*
G36*
X042659D02*
X042555Y018427D01*
X042459Y018387*
X042377Y018324*
X042313Y018241*
X042273Y018145*
X042260Y018042*
X042273Y017939*
X042313Y017843*
X042377Y017760*
X042459Y017697*
X042555Y017657*
X042659Y017643*
X042762Y017657*
X042858Y017697*
X042940Y017760*
X043004Y017843*
X043044Y017939*
X043057Y018042*
X043044Y018145*
X043004Y018241*
X042940Y018324*
X042858Y018387*
X042762Y018427*
X042659Y018441*
G37*
G36*
X045658Y017441D02*
X045555Y017427D01*
X045459Y017387*
X045377Y017324*
X045313Y017241*
X045273Y017145*
X045260Y017042*
X045273Y016939*
X045313Y016843*
X045377Y016760*
X045459Y016697*
X045555Y016657*
X045658Y016643*
X045762Y016657*
X045858Y016697*
X045940Y016760*
X046004Y016843*
X046044Y016939*
X046057Y017042*
X046044Y017145*
X046004Y017241*
X045940Y017324*
X045858Y017387*
X045762Y017427*
X045658Y017441*
G37*
G36*
X044658D02*
X044555Y017427D01*
X044459Y017387*
X044377Y017324*
X044313Y017241*
X044273Y017145*
X044260Y017042*
X044273Y016939*
X044313Y016843*
X044377Y016760*
X044459Y016697*
X044555Y016657*
X044658Y016643*
X044762Y016657*
X044858Y016697*
X044940Y016760*
X045004Y016843*
X045044Y016939*
X045057Y017042*
X045044Y017145*
X045004Y017241*
X044940Y017324*
X044858Y017387*
X044762Y017427*
X044658Y017441*
G37*
G36*
X043658D02*
X043555Y017427D01*
X043459Y017387*
X043377Y017324*
X043313Y017241*
X043273Y017145*
X043260Y017042*
X043273Y016939*
X043313Y016843*
X043377Y016760*
X043459Y016697*
X043555Y016657*
X043658Y016643*
X043762Y016657*
X043858Y016697*
X043940Y016760*
X044004Y016843*
X044044Y016939*
X044057Y017042*
X044044Y017145*
X044004Y017241*
X043940Y017324*
X043858Y017387*
X043762Y017427*
X043658Y017441*
G37*
G36*
X042659D02*
X042555Y017427D01*
X042459Y017387*
X042377Y017324*
X042313Y017241*
X042273Y017145*
X042260Y017042*
X042273Y016939*
X042313Y016843*
X042377Y016760*
X042459Y016697*
X042555Y016657*
X042659Y016643*
X042762Y016657*
X042858Y016697*
X042940Y016760*
X043004Y016843*
X043044Y016939*
X043057Y017042*
X043044Y017145*
X043004Y017241*
X042940Y017324*
X042858Y017387*
X042762Y017427*
X042659Y017441*
G37*
G36*
X045658Y016441D02*
X045555Y016427D01*
X045459Y016387*
X045377Y016324*
X045313Y016241*
X045273Y016145*
X045260Y016042*
X045273Y015939*
X045313Y015843*
X045377Y015760*
X045459Y015697*
X045555Y015657*
X045658Y015643*
X045762Y015657*
X045858Y015697*
X045940Y015760*
X046004Y015843*
X046044Y015939*
X046057Y016042*
X046044Y016145*
X046004Y016241*
X045940Y016324*
X045858Y016387*
X045762Y016427*
X045658Y016441*
G37*
G36*
X044658D02*
X044555Y016427D01*
X044459Y016387*
X044377Y016324*
X044313Y016241*
X044273Y016145*
X044260Y016042*
X044273Y015939*
X044313Y015843*
X044377Y015760*
X044459Y015697*
X044555Y015657*
X044658Y015643*
X044762Y015657*
X044858Y015697*
X044940Y015760*
X045004Y015843*
X045044Y015939*
X045057Y016042*
X045044Y016145*
X045004Y016241*
X044940Y016324*
X044858Y016387*
X044762Y016427*
X044658Y016441*
G37*
G36*
X043658D02*
X043555Y016427D01*
X043459Y016387*
X043377Y016324*
X043313Y016241*
X043273Y016145*
X043260Y016042*
X043273Y015939*
X043313Y015843*
X043377Y015760*
X043459Y015697*
X043555Y015657*
X043658Y015643*
X043762Y015657*
X043858Y015697*
X043940Y015760*
X044004Y015843*
X044044Y015939*
X044057Y016042*
X044044Y016145*
X044004Y016241*
X043940Y016324*
X043858Y016387*
X043762Y016427*
X043658Y016441*
G37*
G36*
X042659D02*
X042555Y016427D01*
X042459Y016387*
X042377Y016324*
X042313Y016241*
X042273Y016145*
X042260Y016042*
X042273Y015939*
X042313Y015843*
X042377Y015760*
X042459Y015697*
X042555Y015657*
X042659Y015643*
X042762Y015657*
X042858Y015697*
X042940Y015760*
X043004Y015843*
X043044Y015939*
X043057Y016042*
X043044Y016145*
X043004Y016241*
X042940Y016324*
X042858Y016387*
X042762Y016427*
X042659Y016441*
G37*
G36*
X011390Y036853D02*
X011286Y036840D01*
X011188Y036799*
X011105Y036735*
X011041Y036652*
X011000Y036554*
X010987Y036450*
X011000Y036346*
X011041Y036248*
X011105Y036165*
X011188Y036101*
X011286Y036060*
X011390Y036047*
X011494Y036060*
X011543Y036081*
X011587Y036037*
Y016045*
X011295*
Y015255*
X012085*
Y016045*
X011893*
Y036100*
X011881Y036159*
X011848Y036208*
X011760Y036297*
X011780Y036346*
X011793Y036450*
X011780Y036554*
X011739Y036652*
X011675Y036735*
X011592Y036799*
X011494Y036840*
X011390Y036853*
G37*
G36*
X011740Y015042D02*
Y014700D01*
X012082*
X012075Y014753*
X012035Y014849*
X011972Y014932*
X011889Y014995*
X011793Y015035*
X011740Y015042*
G37*
G36*
X011640D02*
X011587Y015035D01*
X011491Y014995*
X011408Y014932*
X011345Y014849*
X011305Y014753*
X011298Y014700*
X011640*
Y015042*
G37*
G36*
X045658Y015441D02*
X045555Y015427D01*
X045459Y015387*
X045377Y015324*
X045313Y015241*
X045273Y015145*
X045260Y015042*
X045273Y014939*
X045313Y014843*
X045377Y014760*
X045459Y014697*
X045555Y014657*
X045658Y014643*
X045762Y014657*
X045858Y014697*
X045940Y014760*
X046004Y014843*
X046044Y014939*
X046057Y015042*
X046044Y015145*
X046004Y015241*
X045940Y015324*
X045858Y015387*
X045762Y015427*
X045658Y015441*
G37*
G36*
X044658D02*
X044555Y015427D01*
X044459Y015387*
X044377Y015324*
X044313Y015241*
X044273Y015145*
X044260Y015042*
X044273Y014939*
X044313Y014843*
X044377Y014760*
X044459Y014697*
X044555Y014657*
X044658Y014643*
X044762Y014657*
X044858Y014697*
X044940Y014760*
X045004Y014843*
X045044Y014939*
X045057Y015042*
X045044Y015145*
X045004Y015241*
X044940Y015324*
X044858Y015387*
X044762Y015427*
X044658Y015441*
G37*
G36*
X043658D02*
X043555Y015427D01*
X043459Y015387*
X043377Y015324*
X043313Y015241*
X043273Y015145*
X043260Y015042*
X043273Y014939*
X043313Y014843*
X043377Y014760*
X043459Y014697*
X043555Y014657*
X043658Y014643*
X043762Y014657*
X043858Y014697*
X043940Y014760*
X044004Y014843*
X044044Y014939*
X044057Y015042*
X044044Y015145*
X044004Y015241*
X043940Y015324*
X043858Y015387*
X043762Y015427*
X043658Y015441*
G37*
G36*
X042659D02*
X042555Y015427D01*
X042459Y015387*
X042377Y015324*
X042313Y015241*
X042273Y015145*
X042260Y015042*
X042273Y014939*
X042313Y014843*
X042377Y014760*
X042459Y014697*
X042555Y014657*
X042659Y014643*
X042762Y014657*
X042858Y014697*
X042940Y014760*
X043004Y014843*
X043044Y014939*
X043057Y015042*
X043044Y015145*
X043004Y015241*
X042940Y015324*
X042858Y015387*
X042762Y015427*
X042659Y015441*
G37*
G36*
X012082Y014600D02*
X011740D01*
Y014258*
X011793Y014265*
X011889Y014305*
X011972Y014368*
X012035Y014451*
X012075Y014547*
X012082Y014600*
G37*
G36*
X011640D02*
X011298D01*
X011305Y014547*
X011345Y014451*
X011408Y014368*
X011491Y014305*
X011587Y014265*
X011640Y014258*
Y014600*
G37*
G36*
X045690Y013734D02*
X045547Y013719D01*
X045409Y013678*
X045282Y013610*
X045171Y013519*
X045080Y013408*
X045012Y013281*
X044971Y013143*
X044956Y013000*
X044971Y012857*
X045012Y012719*
X045080Y012592*
X045171Y012481*
X045282Y012390*
X045409Y012322*
X045547Y012281*
X045690Y012266*
X045833Y012281*
X045971Y012322*
X046098Y012390*
X046209Y012481*
X046300Y012592*
X046368Y012719*
X046409Y012857*
X046424Y013000*
X046409Y013143*
X046368Y013281*
X046300Y013408*
X046209Y013519*
X046098Y013610*
X045971Y013678*
X045833Y013719*
X045690Y013734*
G37*
G36*
X011940Y012724D02*
X011797Y012709D01*
X011659Y012668*
X011532Y012600*
X011421Y012509*
X011330Y012398*
X011262Y012271*
X011221Y012133*
X011206Y011990*
X011221Y011847*
X011262Y011709*
X011330Y011582*
X011421Y011471*
X011532Y011380*
X011659Y011312*
X011797Y011271*
X011940Y011256*
X012083Y011271*
X012221Y011312*
X012348Y011380*
X012459Y011471*
X012550Y011582*
X012618Y011709*
X012659Y011847*
X012674Y011990*
X012659Y012133*
X012618Y012271*
X012550Y012398*
X012459Y012509*
X012348Y012600*
X012221Y012668*
X012083Y012709*
X011940Y012724*
G37*
%LNbluesatpc104template-2*%
%LPD*%
G54D11*
X022790Y027600D02*
Y027950D01*
X011390Y036450D02*
X011740Y036100D01*
Y015600D02*
Y036100D01*
X025040Y038700D02*
X029640D01*
X020790Y034450D02*
X025040Y038700D01*
X020790Y033600D02*
Y034450D01*
X016790Y027600D02*
Y028500D01*
X017790Y027600D02*
Y028400D01*
X039240Y027350D02*
X040290Y028400D01*
X030590Y027350D02*
X039240D01*
X034740Y021200D02*
Y023200D01*
X017790Y028400D02*
X018740Y029350D01*
X030490*
X030590Y029250*
Y027350D02*
X034740Y023200D01*
X016790Y028500D02*
X018640Y030350D01*
X034340D02*
X036290Y028400D01*
X034340Y030350D02*
X036540Y032550D01*
Y044200*
X018640Y030350D02*
X030590D01*
X034340*
X024540Y024050D02*
X029040Y028550D01*
G54D12*
X011690Y015650D03*
X042659Y040042D03*
X044658D03*
G54D13*
X011690Y014650D03*
X013790Y034850D03*
X014790D03*
X043658Y040042D03*
X042659Y039042D03*
X043658D03*
X042659Y038042D03*
X043658D03*
X042659Y037042D03*
X043658D03*
X042659Y036042D03*
X043658D03*
X042659Y035042D03*
X043658D03*
X042659Y034042D03*
X043658D03*
X042659Y033042D03*
X043658D03*
X042659Y032042D03*
X043658D03*
X042659Y031042D03*
X043658D03*
X042659Y030042D03*
X043658D03*
X042659Y029042D03*
X043658D03*
X042659Y028042D03*
X043658D03*
X042659Y027042D03*
X043658D03*
X042659Y026042D03*
X043658D03*
X042659Y025042D03*
X043658D03*
X042659Y024042D03*
X043658D03*
X042659Y023042D03*
X043658D03*
X042659Y022042D03*
X043658D03*
X042659Y021042D03*
X043658D03*
X042659Y020042D03*
X043658D03*
X042659Y019042D03*
X043658D03*
X042659Y018042D03*
X043658D03*
X042659Y017042D03*
X043658D03*
X042659Y016042D03*
X043658D03*
Y015042D03*
X042659D03*
X044658D03*
X045658D03*
Y016042D03*
X044658D03*
X045658Y017042D03*
X044658D03*
X045658Y018042D03*
X044658D03*
X045658Y019042D03*
X044658D03*
X045658Y020042D03*
X044658D03*
X045658Y021042D03*
X044658D03*
X045658Y022042D03*
X044658D03*
X045658Y023042D03*
X044658D03*
X045658Y024042D03*
X044658D03*
X045658Y025042D03*
X044658D03*
X045658Y026042D03*
X044658D03*
X045658Y027042D03*
X044658D03*
X045658Y028042D03*
X044658D03*
X045658Y029042D03*
X044658D03*
X045658Y030042D03*
X044658D03*
X045658Y031042D03*
X044658D03*
X045658Y032042D03*
X044658D03*
X045658Y033042D03*
X044658D03*
X045658Y034042D03*
X044658D03*
X045658Y035042D03*
X044658D03*
X045658Y036042D03*
X044658D03*
X045658Y037042D03*
X044658D03*
X045658Y038042D03*
X044658D03*
X045658Y039042D03*
X044658D03*
X045658Y040042D03*
G54D14*
X018540Y024600D03*
Y025600D03*
X015640Y024600D03*
Y025600D03*
X013840Y026200D03*
Y024200D03*
X010840Y026200D03*
Y024200D03*
X013390Y036450D03*
X011390D03*
X012390D03*
X029640Y041700D03*
Y040700D03*
Y039700D03*
Y038700D03*
Y037700D03*
X033540Y044200D03*
X034540D03*
X035540D03*
X036540D03*
X037540D03*
X034290Y028400D03*
X035290D03*
X036290D03*
X037290D03*
X038290D03*
X039290D03*
X040290D03*
X030590Y033350D03*
Y032350D03*
Y031350D03*
Y030350D03*
Y029350D03*
Y028350D03*
Y027350D03*
G54D15*
X012790Y034850D03*
G54D16*
X029640Y042700D03*
X030590Y034350D03*
G54D17*
X034740Y021200D03*
G54D18*
X035740Y021200D03*
X036740D03*
X037740D03*
X038740D03*
X039740D03*
G54D19*
X038540Y044200D03*
X033290Y028400D03*
G54D20*
X045690Y013000D03*
Y042000D03*
X011940Y043500D03*
Y011990D03*
G54D21*
X023790Y033600D03*
X022790D03*
X021790D03*
X020790D03*
X019790D03*
X018790D03*
X017790D03*
X016790D03*
X015790D03*
X014790D03*
X013790D03*
X012790D03*
X023790Y027600D03*
X022790D03*
X021790D03*
X020790D03*
X019790D03*
X018790D03*
X017790D03*
X016790D03*
X015790D03*
X014790D03*
X013790D03*
G54D22*
X012790Y027600D03*
G54D23*
X029040Y028550D03*
X022590Y026150D03*
X024540Y024050D03*
M02*