%FSDAX24Y24*%
%MOIN*%
%SFA1B1*%

%IPPOS*%
%ADD41C,0.002000*%
%ADD42C,0.002700*%
%LNbluesatpc104template-1*%
%LPD*%
G54D41*
X011610Y015570D02*
Y015730D01*
X011770*
Y015570*
X011610*
Y014570D02*
Y014730D01*
X011770*
Y014570*
X011610*
X012710Y034770D02*
Y034930D01*
X012870*
Y034770*
X012710*
X013710D02*
Y034930D01*
X013870*
Y034770*
X013710*
X014710D02*
Y034930D01*
X014870*
Y034770*
X014710*
X045690Y012920D02*
X045610Y013080D01*
X045770*
X045690Y012920*
Y041920D02*
X045610Y042080D01*
X045770*
X045690Y041920*
X011940Y043420D02*
X011860Y043580D01*
X012020*
X011940Y043420*
Y011910D02*
X011860Y012070D01*
X012020*
X011940Y011910*
X042579Y039962D02*
Y040122D01*
X042738*
Y039962*
X042579*
X043579D02*
Y040122D01*
X043738*
Y039962*
X043579*
X042579Y038962D02*
Y039122D01*
X042738*
Y038962*
X042579*
X043579D02*
Y039122D01*
X043738*
Y038962*
X043579*
X042579Y037962D02*
Y038122D01*
X042738*
Y037962*
X042579*
X043579D02*
Y038122D01*
X043738*
Y037962*
X043579*
X042579Y036962D02*
Y037122D01*
X042738*
Y036962*
X042579*
X043579D02*
Y037122D01*
X043738*
Y036962*
X043579*
X042579Y035962D02*
Y036122D01*
X042738*
Y035962*
X042579*
X043579D02*
Y036122D01*
X043738*
Y035962*
X043579*
X042579Y034962D02*
Y035122D01*
X042738*
Y034962*
X042579*
X043579D02*
Y035122D01*
X043738*
Y034962*
X043579*
X042579Y033962D02*
Y034122D01*
X042738*
Y033962*
X042579*
X043579D02*
Y034122D01*
X043738*
Y033962*
X043579*
X042579Y032962D02*
Y033122D01*
X042738*
Y032962*
X042579*
X043579D02*
Y033122D01*
X043738*
Y032962*
X043579*
X042579Y031962D02*
Y032122D01*
X042738*
Y031962*
X042579*
X043579D02*
Y032122D01*
X043738*
Y031962*
X043579*
X042579Y030962D02*
Y031122D01*
X042738*
Y030962*
X042579*
X043579D02*
Y031122D01*
X043738*
Y030962*
X043579*
X042579Y029962D02*
Y030122D01*
X042738*
Y029962*
X042579*
X043579D02*
Y030122D01*
X043738*
Y029962*
X043579*
X042579Y028962D02*
Y029122D01*
X042738*
Y028962*
X042579*
X043579D02*
Y029122D01*
X043738*
Y028962*
X043579*
X042579Y027962D02*
Y028122D01*
X042738*
Y027962*
X042579*
X043579D02*
Y028122D01*
X043738*
Y027962*
X043579*
X042579Y026962D02*
Y027122D01*
X042738*
Y026962*
X042579*
X043579D02*
Y027122D01*
X043738*
Y026962*
X043579*
X042579Y025962D02*
Y026122D01*
X042738*
Y025962*
X042579*
X043579D02*
Y026122D01*
X043738*
Y025962*
X043579*
X042579Y024962D02*
Y025122D01*
X042738*
Y024962*
X042579*
X043579D02*
Y025122D01*
X043738*
Y024962*
X043579*
X042579Y023962D02*
Y024122D01*
X042738*
Y023962*
X042579*
X043579D02*
Y024122D01*
X043738*
Y023962*
X043579*
X042579Y022962D02*
Y023122D01*
X042738*
Y022962*
X042579*
X043579D02*
Y023122D01*
X043738*
Y022962*
X043579*
X042579Y021962D02*
Y022122D01*
X042738*
Y021962*
X042579*
X043579D02*
Y022122D01*
X043738*
Y021962*
X043579*
X042579Y020962D02*
Y021122D01*
X042738*
Y020962*
X042579*
X043579D02*
Y021122D01*
X043738*
Y020962*
X043579*
X042579Y019962D02*
Y020122D01*
X042738*
Y019962*
X042579*
X043579D02*
Y020122D01*
X043738*
Y019962*
X043579*
X042579Y018962D02*
Y019122D01*
X042738*
Y018962*
X042579*
X043579D02*
Y019122D01*
X043738*
Y018962*
X043579*
X042579Y017962D02*
Y018122D01*
X042738*
Y017962*
X042579*
X043579D02*
Y018122D01*
X043738*
Y017962*
X043579*
X042579Y016962D02*
Y017122D01*
X042738*
Y016962*
X042579*
X043579D02*
Y017122D01*
X043738*
Y016962*
X043579*
X042579Y015962D02*
Y016122D01*
X042738*
Y015962*
X042579*
X043579D02*
Y016122D01*
X043738*
Y015962*
X043579*
Y014962D02*
Y015122D01*
X043738*
Y014962*
X043579*
X042579D02*
Y015122D01*
X042738*
Y014962*
X042579*
X044578D02*
Y015122D01*
X044738*
Y014962*
X044578*
X045578D02*
Y015122D01*
X045739*
Y014962*
X045578*
Y015962D02*
Y016122D01*
X045739*
Y015962*
X045578*
X044578D02*
Y016122D01*
X044738*
Y015962*
X044578*
X045578Y016962D02*
Y017122D01*
X045739*
Y016962*
X045578*
X044578D02*
Y017122D01*
X044738*
Y016962*
X044578*
X045578Y017962D02*
Y018122D01*
X045739*
Y017962*
X045578*
X044578D02*
Y018122D01*
X044738*
Y017962*
X044578*
X045578Y018962D02*
Y019122D01*
X045739*
Y018962*
X045578*
X044578D02*
Y019122D01*
X044738*
Y018962*
X044578*
X045578Y019962D02*
Y020122D01*
X045739*
Y019962*
X045578*
X044578D02*
Y020122D01*
X044738*
Y019962*
X044578*
X045578Y020962D02*
Y021122D01*
X045739*
Y020962*
X045578*
X044578D02*
Y021122D01*
X044738*
Y020962*
X044578*
X045578Y021962D02*
Y022122D01*
X045739*
Y021962*
X045578*
X044578D02*
Y022122D01*
X044738*
Y021962*
X044578*
X045578Y022962D02*
Y023122D01*
X045739*
Y022962*
X045578*
X044578D02*
Y023122D01*
X044738*
Y022962*
X044578*
X045578Y023962D02*
Y024122D01*
X045739*
Y023962*
X045578*
X044578D02*
Y024122D01*
X044738*
Y023962*
X044578*
X045578Y024962D02*
Y025122D01*
X045739*
Y024962*
X045578*
X044578D02*
Y025122D01*
X044738*
Y024962*
X044578*
X045578Y025962D02*
Y026122D01*
X045739*
Y025962*
X045578*
X044578D02*
Y026122D01*
X044738*
Y025962*
X044578*
X045578Y026962D02*
Y027122D01*
X045739*
Y026962*
X045578*
X044578D02*
Y027122D01*
X044738*
Y026962*
X044578*
X045578Y027962D02*
Y028122D01*
X045739*
Y027962*
X045578*
X044578D02*
Y028122D01*
X044738*
Y027962*
X044578*
X045578Y028962D02*
Y029122D01*
X045739*
Y028962*
X045578*
X044578D02*
Y029122D01*
X044738*
Y028962*
X044578*
X045578Y029962D02*
Y030122D01*
X045739*
Y029962*
X045578*
X044578D02*
Y030122D01*
X044738*
Y029962*
X044578*
X045578Y030962D02*
Y031122D01*
X045739*
Y030962*
X045578*
X044578D02*
Y031122D01*
X044738*
Y030962*
X044578*
X045578Y031962D02*
Y032122D01*
X045739*
Y031962*
X045578*
X044578D02*
Y032122D01*
X044738*
Y031962*
X044578*
X045578Y032962D02*
Y033122D01*
X045739*
Y032962*
X045578*
X044578D02*
Y033122D01*
X044738*
Y032962*
X044578*
X045578Y033962D02*
Y034122D01*
X045739*
Y033962*
X045578*
X044578D02*
Y034122D01*
X044738*
Y033962*
X044578*
X045578Y034962D02*
Y035122D01*
X045739*
Y034962*
X045578*
X044578D02*
Y035122D01*
X044738*
Y034962*
X044578*
X045578Y035962D02*
Y036122D01*
X045739*
Y035962*
X045578*
X044578D02*
Y036122D01*
X044738*
Y035962*
X044578*
X045578Y036962D02*
Y037122D01*
X045739*
Y036962*
X045578*
X044578D02*
Y037122D01*
X044738*
Y036962*
X044578*
X045578Y037962D02*
Y038122D01*
X045739*
Y037962*
X045578*
X044578D02*
Y038122D01*
X044738*
Y037962*
X044578*
X045578Y038962D02*
Y039122D01*
X045739*
Y038962*
X045578*
X044578D02*
Y039122D01*
X044738*
Y038962*
X044578*
X045578Y039962D02*
Y040122D01*
X045739*
Y039962*
X045578*
X044578D02*
Y040122D01*
X044738*
Y039962*
X044578*
X023790Y033520D02*
X023830Y033560D01*
X023870*
X023830Y033600*
X023870Y033640*
X023830*
X023790Y033680*
X023750Y033640*
X023710*
X023750Y033600*
X023710Y033560*
X023750*
X023790Y033520*
X022790D02*
X022830Y033560D01*
X022870*
X022830Y033600*
X022870Y033640*
X022830*
X022790Y033680*
X022750Y033640*
X022710*
X022750Y033600*
X022710Y033560*
X022750*
X022790Y033520*
X021790D02*
X021830Y033560D01*
X021870*
X021830Y033600*
X021870Y033640*
X021830*
X021790Y033680*
X021750Y033640*
X021710*
X021750Y033600*
X021710Y033560*
X021750*
X021790Y033520*
X020790D02*
X020830Y033560D01*
X020870*
X020830Y033600*
X020870Y033640*
X020830*
X020790Y033680*
X020750Y033640*
X020710*
X020750Y033600*
X020710Y033560*
X020750*
X020790Y033520*
X019790D02*
X019830Y033560D01*
X019870*
X019830Y033600*
X019870Y033640*
X019830*
X019790Y033680*
X019750Y033640*
X019710*
X019750Y033600*
X019710Y033560*
X019750*
X019790Y033520*
X018790D02*
X018830Y033560D01*
X018870*
X018830Y033600*
X018870Y033640*
X018830*
X018790Y033680*
X018750Y033640*
X018710*
X018750Y033600*
X018710Y033560*
X018750*
X018790Y033520*
X017790D02*
X017830Y033560D01*
X017870*
X017830Y033600*
X017870Y033640*
X017830*
X017790Y033680*
X017750Y033640*
X017710*
X017750Y033600*
X017710Y033560*
X017750*
X017790Y033520*
X016790D02*
X016830Y033560D01*
X016870*
X016830Y033600*
X016870Y033640*
X016830*
X016790Y033680*
X016750Y033640*
X016710*
X016750Y033600*
X016710Y033560*
X016750*
X016790Y033520*
X015790D02*
X015830Y033560D01*
X015870*
X015830Y033600*
X015870Y033640*
X015830*
X015790Y033680*
X015750Y033640*
X015710*
X015750Y033600*
X015710Y033560*
X015750*
X015790Y033520*
X014790D02*
X014830Y033560D01*
X014870*
X014830Y033600*
X014870Y033640*
X014830*
X014790Y033680*
X014750Y033640*
X014710*
X014750Y033600*
X014710Y033560*
X014750*
X014790Y033520*
X013790D02*
X013830Y033560D01*
X013870*
X013830Y033600*
X013870Y033640*
X013830*
X013790Y033680*
X013750Y033640*
X013710*
X013750Y033600*
X013710Y033560*
X013750*
X013790Y033520*
X012790D02*
X012830Y033560D01*
X012870*
X012830Y033600*
X012870Y033640*
X012830*
X012790Y033680*
X012750Y033640*
X012710*
X012750Y033600*
X012710Y033560*
X012750*
X012790Y033520*
X023790Y027520D02*
X023830Y027560D01*
X023870*
X023830Y027600*
X023870Y027640*
X023830*
X023790Y027680*
X023750Y027640*
X023710*
X023750Y027600*
X023710Y027560*
X023750*
X023790Y027520*
X022790D02*
X022830Y027560D01*
X022870*
X022830Y027600*
X022870Y027640*
X022830*
X022790Y027680*
X022750Y027640*
X022710*
X022750Y027600*
X022710Y027560*
X022750*
X022790Y027520*
X021790D02*
X021830Y027560D01*
X021870*
X021830Y027600*
X021870Y027640*
X021830*
X021790Y027680*
X021750Y027640*
X021710*
X021750Y027600*
X021710Y027560*
X021750*
X021790Y027520*
X020790D02*
X020830Y027560D01*
X020870*
X020830Y027600*
X020870Y027640*
X020830*
X020790Y027680*
X020750Y027640*
X020710*
X020750Y027600*
X020710Y027560*
X020750*
X020790Y027520*
X019790D02*
X019830Y027560D01*
X019870*
X019830Y027600*
X019870Y027640*
X019830*
X019790Y027680*
X019750Y027640*
X019710*
X019750Y027600*
X019710Y027560*
X019750*
X019790Y027520*
X018790D02*
X018830Y027560D01*
X018870*
X018830Y027600*
X018870Y027640*
X018830*
X018790Y027680*
X018750Y027640*
X018710*
X018750Y027600*
X018710Y027560*
X018750*
X018790Y027520*
X017790D02*
X017830Y027560D01*
X017870*
X017830Y027600*
X017870Y027640*
X017830*
X017790Y027680*
X017750Y027640*
X017710*
X017750Y027600*
X017710Y027560*
X017750*
X017790Y027520*
X016790D02*
X016830Y027560D01*
X016870*
X016830Y027600*
X016870Y027640*
X016830*
X016790Y027680*
X016750Y027640*
X016710*
X016750Y027600*
X016710Y027560*
X016750*
X016790Y027520*
X015790D02*
X015830Y027560D01*
X015870*
X015830Y027600*
X015870Y027640*
X015830*
X015790Y027680*
X015750Y027640*
X015710*
X015750Y027600*
X015710Y027560*
X015750*
X015790Y027520*
X014790D02*
X014830Y027560D01*
X014870*
X014830Y027600*
X014870Y027640*
X014830*
X014790Y027680*
X014750Y027640*
X014710*
X014750Y027600*
X014710Y027560*
X014750*
X014790Y027520*
X013790D02*
X013830Y027560D01*
X013870*
X013830Y027600*
X013870Y027640*
X013830*
X013790Y027680*
X013750Y027640*
X013710*
X013750Y027600*
X013710Y027560*
X013750*
X013790Y027520*
X012790D02*
X012830Y027560D01*
X012870*
X012830Y027600*
X012870Y027640*
X012830*
X012790Y027680*
X012750Y027640*
X012710*
X012750Y027600*
X012710Y027560*
X012750*
X012790Y027520*
X028960Y028470D02*
X029000Y028550D01*
X028960Y028630*
X029040Y028590*
X029120Y028630*
X029080Y028550*
X029120Y028470*
X029040Y028510*
X028960Y028470*
X022510Y026070D02*
X022550Y026150D01*
X022510Y026230*
X022590Y026190*
X022670Y026230*
X022630Y026150*
X022670Y026070*
X022590Y026110*
X022510Y026070*
X024460Y023970D02*
X024500Y024050D01*
X024460Y024130*
X024540Y024090*
X024620Y024130*
X024580Y024050*
X024620Y023970*
X024540Y024010*
X024460Y023970*
G54D42*
X018620Y024600D02*
D01*
X018619Y024605*
X018619Y024611*
X018618Y024616*
X018616Y024622*
X018615Y024627*
X018613Y024632*
X018610Y024637*
X018607Y024642*
X018604Y024647*
X018601Y024651*
X018597Y024655*
X018593Y024659*
X018589Y024663*
X018584Y024666*
X018580Y024669*
X018575Y024671*
X018569Y024674*
X018564Y024676*
X018559Y024677*
X018553Y024678*
X018548Y024679*
X018542Y024679*
X018537*
X018531Y024679*
X018526Y024678*
X018520Y024677*
X018515Y024676*
X018510Y024674*
X018504Y024671*
X018500Y024669*
X018495Y024666*
X018490Y024663*
X018486Y024659*
X018482Y024655*
X018478Y024651*
X018475Y024647*
X018472Y024642*
X018469Y024637*
X018466Y024632*
X018464Y024627*
X018463Y024622*
X018461Y024616*
X018460Y024611*
X018460Y024605*
X018460Y024600*
X018460Y024594*
X018460Y024588*
X018461Y024583*
X018463Y024577*
X018464Y024572*
X018466Y024567*
X018469Y024562*
X018472Y024557*
X018475Y024552*
X018478Y024548*
X018482Y024544*
X018486Y024540*
X018490Y024536*
X018495Y024533*
X018500Y024530*
X018504Y024528*
X018510Y024525*
X018515Y024523*
X018520Y024522*
X018526Y024521*
X018531Y024520*
X018537Y024520*
X018542*
X018548Y024520*
X018553Y024521*
X018559Y024522*
X018564Y024523*
X018569Y024525*
X018575Y024528*
X018580Y024530*
X018584Y024533*
X018589Y024536*
X018593Y024540*
X018597Y024544*
X018601Y024548*
X018604Y024552*
X018607Y024557*
X018610Y024562*
X018613Y024567*
X018615Y024572*
X018616Y024577*
X018618Y024583*
X018619Y024588*
X018619Y024594*
X018620Y024600*
Y025600D02*
D01*
X018619Y025605*
X018619Y025611*
X018618Y025616*
X018616Y025622*
X018615Y025627*
X018613Y025632*
X018610Y025637*
X018607Y025642*
X018604Y025647*
X018601Y025651*
X018597Y025655*
X018593Y025659*
X018589Y025663*
X018584Y025666*
X018580Y025669*
X018575Y025671*
X018569Y025674*
X018564Y025676*
X018559Y025677*
X018553Y025678*
X018548Y025679*
X018542Y025679*
X018537*
X018531Y025679*
X018526Y025678*
X018520Y025677*
X018515Y025676*
X018510Y025674*
X018504Y025671*
X018500Y025669*
X018495Y025666*
X018490Y025663*
X018486Y025659*
X018482Y025655*
X018478Y025651*
X018475Y025647*
X018472Y025642*
X018469Y025637*
X018466Y025632*
X018464Y025627*
X018463Y025622*
X018461Y025616*
X018460Y025611*
X018460Y025605*
X018460Y025600*
X018460Y025594*
X018460Y025588*
X018461Y025583*
X018463Y025577*
X018464Y025572*
X018466Y025567*
X018469Y025562*
X018472Y025557*
X018475Y025552*
X018478Y025548*
X018482Y025544*
X018486Y025540*
X018490Y025536*
X018495Y025533*
X018500Y025530*
X018504Y025528*
X018510Y025525*
X018515Y025523*
X018520Y025522*
X018526Y025521*
X018531Y025520*
X018537Y025520*
X018542*
X018548Y025520*
X018553Y025521*
X018559Y025522*
X018564Y025523*
X018569Y025525*
X018575Y025528*
X018580Y025530*
X018584Y025533*
X018589Y025536*
X018593Y025540*
X018597Y025544*
X018601Y025548*
X018604Y025552*
X018607Y025557*
X018610Y025562*
X018613Y025567*
X018615Y025572*
X018616Y025577*
X018618Y025583*
X018619Y025588*
X018619Y025594*
X018620Y025600*
X015720Y024600D02*
D01*
X015719Y024605*
X015719Y024611*
X015718Y024616*
X015716Y024622*
X015715Y024627*
X015713Y024632*
X015710Y024637*
X015707Y024642*
X015704Y024647*
X015701Y024651*
X015697Y024655*
X015693Y024659*
X015689Y024663*
X015684Y024666*
X015680Y024669*
X015675Y024671*
X015669Y024674*
X015664Y024676*
X015659Y024677*
X015653Y024678*
X015648Y024679*
X015642Y024679*
X015637*
X015631Y024679*
X015626Y024678*
X015620Y024677*
X015615Y024676*
X015610Y024674*
X015604Y024671*
X015600Y024669*
X015595Y024666*
X015590Y024663*
X015586Y024659*
X015582Y024655*
X015578Y024651*
X015575Y024647*
X015572Y024642*
X015569Y024637*
X015566Y024632*
X015564Y024627*
X015563Y024622*
X015561Y024616*
X015560Y024611*
X015560Y024605*
X015560Y024600*
X015560Y024594*
X015560Y024588*
X015561Y024583*
X015563Y024577*
X015564Y024572*
X015566Y024567*
X015569Y024562*
X015572Y024557*
X015575Y024552*
X015578Y024548*
X015582Y024544*
X015586Y024540*
X015590Y024536*
X015595Y024533*
X015600Y024530*
X015604Y024528*
X015610Y024525*
X015615Y024523*
X015620Y024522*
X015626Y024521*
X015631Y024520*
X015637Y024520*
X015642*
X015648Y024520*
X015653Y024521*
X015659Y024522*
X015664Y024523*
X015669Y024525*
X015675Y024528*
X015680Y024530*
X015684Y024533*
X015689Y024536*
X015693Y024540*
X015697Y024544*
X015701Y024548*
X015704Y024552*
X015707Y024557*
X015710Y024562*
X015713Y024567*
X015715Y024572*
X015716Y024577*
X015718Y024583*
X015719Y024588*
X015719Y024594*
X015720Y024600*
Y025600D02*
D01*
X015719Y025605*
X015719Y025611*
X015718Y025616*
X015716Y025622*
X015715Y025627*
X015713Y025632*
X015710Y025637*
X015707Y025642*
X015704Y025647*
X015701Y025651*
X015697Y025655*
X015693Y025659*
X015689Y025663*
X015684Y025666*
X015680Y025669*
X015675Y025671*
X015669Y025674*
X015664Y025676*
X015659Y025677*
X015653Y025678*
X015648Y025679*
X015642Y025679*
X015637*
X015631Y025679*
X015626Y025678*
X015620Y025677*
X015615Y025676*
X015610Y025674*
X015604Y025671*
X015600Y025669*
X015595Y025666*
X015590Y025663*
X015586Y025659*
X015582Y025655*
X015578Y025651*
X015575Y025647*
X015572Y025642*
X015569Y025637*
X015566Y025632*
X015564Y025627*
X015563Y025622*
X015561Y025616*
X015560Y025611*
X015560Y025605*
X015560Y025600*
X015560Y025594*
X015560Y025588*
X015561Y025583*
X015563Y025577*
X015564Y025572*
X015566Y025567*
X015569Y025562*
X015572Y025557*
X015575Y025552*
X015578Y025548*
X015582Y025544*
X015586Y025540*
X015590Y025536*
X015595Y025533*
X015600Y025530*
X015604Y025528*
X015610Y025525*
X015615Y025523*
X015620Y025522*
X015626Y025521*
X015631Y025520*
X015637Y025520*
X015642*
X015648Y025520*
X015653Y025521*
X015659Y025522*
X015664Y025523*
X015669Y025525*
X015675Y025528*
X015680Y025530*
X015684Y025533*
X015689Y025536*
X015693Y025540*
X015697Y025544*
X015701Y025548*
X015704Y025552*
X015707Y025557*
X015710Y025562*
X015713Y025567*
X015715Y025572*
X015716Y025577*
X015718Y025583*
X015719Y025588*
X015719Y025594*
X015720Y025600*
X013920Y026200D02*
D01*
X013919Y026205*
X013919Y026211*
X013918Y026216*
X013916Y026222*
X013915Y026227*
X013913Y026232*
X013910Y026237*
X013907Y026242*
X013904Y026247*
X013901Y026251*
X013897Y026255*
X013893Y026259*
X013889Y026263*
X013884Y026266*
X013880Y026269*
X013875Y026271*
X013869Y026274*
X013864Y026276*
X013859Y026277*
X013853Y026278*
X013848Y026279*
X013842Y026279*
X013837*
X013831Y026279*
X013826Y026278*
X013820Y026277*
X013815Y026276*
X013810Y026274*
X013804Y026271*
X013800Y026269*
X013795Y026266*
X013790Y026263*
X013786Y026259*
X013782Y026255*
X013778Y026251*
X013775Y026247*
X013772Y026242*
X013769Y026237*
X013766Y026232*
X013764Y026227*
X013763Y026222*
X013761Y026216*
X013760Y026211*
X013760Y026205*
X013760Y026200*
X013760Y026194*
X013760Y026188*
X013761Y026183*
X013763Y026177*
X013764Y026172*
X013766Y026167*
X013769Y026162*
X013772Y026157*
X013775Y026152*
X013778Y026148*
X013782Y026144*
X013786Y026140*
X013790Y026136*
X013795Y026133*
X013800Y026130*
X013804Y026128*
X013810Y026125*
X013815Y026123*
X013820Y026122*
X013826Y026121*
X013831Y026120*
X013837Y026120*
X013842*
X013848Y026120*
X013853Y026121*
X013859Y026122*
X013864Y026123*
X013869Y026125*
X013875Y026128*
X013880Y026130*
X013884Y026133*
X013889Y026136*
X013893Y026140*
X013897Y026144*
X013901Y026148*
X013904Y026152*
X013907Y026157*
X013910Y026162*
X013913Y026167*
X013915Y026172*
X013916Y026177*
X013918Y026183*
X013919Y026188*
X013919Y026194*
X013920Y026200*
Y024200D02*
D01*
X013919Y024205*
X013919Y024211*
X013918Y024216*
X013916Y024222*
X013915Y024227*
X013913Y024232*
X013910Y024237*
X013907Y024242*
X013904Y024247*
X013901Y024251*
X013897Y024255*
X013893Y024259*
X013889Y024263*
X013884Y024266*
X013880Y024269*
X013875Y024271*
X013869Y024274*
X013864Y024276*
X013859Y024277*
X013853Y024278*
X013848Y024279*
X013842Y024279*
X013837*
X013831Y024279*
X013826Y024278*
X013820Y024277*
X013815Y024276*
X013810Y024274*
X013804Y024271*
X013800Y024269*
X013795Y024266*
X013790Y024263*
X013786Y024259*
X013782Y024255*
X013778Y024251*
X013775Y024247*
X013772Y024242*
X013769Y024237*
X013766Y024232*
X013764Y024227*
X013763Y024222*
X013761Y024216*
X013760Y024211*
X013760Y024205*
X013760Y024200*
X013760Y024194*
X013760Y024188*
X013761Y024183*
X013763Y024177*
X013764Y024172*
X013766Y024167*
X013769Y024162*
X013772Y024157*
X013775Y024152*
X013778Y024148*
X013782Y024144*
X013786Y024140*
X013790Y024136*
X013795Y024133*
X013800Y024130*
X013804Y024128*
X013810Y024125*
X013815Y024123*
X013820Y024122*
X013826Y024121*
X013831Y024120*
X013837Y024120*
X013842*
X013848Y024120*
X013853Y024121*
X013859Y024122*
X013864Y024123*
X013869Y024125*
X013875Y024128*
X013880Y024130*
X013884Y024133*
X013889Y024136*
X013893Y024140*
X013897Y024144*
X013901Y024148*
X013904Y024152*
X013907Y024157*
X013910Y024162*
X013913Y024167*
X013915Y024172*
X013916Y024177*
X013918Y024183*
X013919Y024188*
X013919Y024194*
X013920Y024200*
X010920Y026200D02*
D01*
X010919Y026205*
X010919Y026211*
X010918Y026216*
X010916Y026222*
X010915Y026227*
X010913Y026232*
X010910Y026237*
X010907Y026242*
X010904Y026247*
X010901Y026251*
X010897Y026255*
X010893Y026259*
X010889Y026263*
X010884Y026266*
X010880Y026269*
X010875Y026271*
X010869Y026274*
X010864Y026276*
X010859Y026277*
X010853Y026278*
X010848Y026279*
X010842Y026279*
X010837*
X010831Y026279*
X010826Y026278*
X010820Y026277*
X010815Y026276*
X010810Y026274*
X010804Y026271*
X010800Y026269*
X010795Y026266*
X010790Y026263*
X010786Y026259*
X010782Y026255*
X010778Y026251*
X010775Y026247*
X010772Y026242*
X010769Y026237*
X010766Y026232*
X010764Y026227*
X010763Y026222*
X010761Y026216*
X010760Y026211*
X010760Y026205*
X010760Y026200*
X010760Y026194*
X010760Y026188*
X010761Y026183*
X010763Y026177*
X010764Y026172*
X010766Y026167*
X010769Y026162*
X010772Y026157*
X010775Y026152*
X010778Y026148*
X010782Y026144*
X010786Y026140*
X010790Y026136*
X010795Y026133*
X010800Y026130*
X010804Y026128*
X010810Y026125*
X010815Y026123*
X010820Y026122*
X010826Y026121*
X010831Y026120*
X010837Y026120*
X010842*
X010848Y026120*
X010853Y026121*
X010859Y026122*
X010864Y026123*
X010869Y026125*
X010875Y026128*
X010880Y026130*
X010884Y026133*
X010889Y026136*
X010893Y026140*
X010897Y026144*
X010901Y026148*
X010904Y026152*
X010907Y026157*
X010910Y026162*
X010913Y026167*
X010915Y026172*
X010916Y026177*
X010918Y026183*
X010919Y026188*
X010919Y026194*
X010920Y026200*
Y024200D02*
D01*
X010919Y024205*
X010919Y024211*
X010918Y024216*
X010916Y024222*
X010915Y024227*
X010913Y024232*
X010910Y024237*
X010907Y024242*
X010904Y024247*
X010901Y024251*
X010897Y024255*
X010893Y024259*
X010889Y024263*
X010884Y024266*
X010880Y024269*
X010875Y024271*
X010869Y024274*
X010864Y024276*
X010859Y024277*
X010853Y024278*
X010848Y024279*
X010842Y024279*
X010837*
X010831Y024279*
X010826Y024278*
X010820Y024277*
X010815Y024276*
X010810Y024274*
X010804Y024271*
X010800Y024269*
X010795Y024266*
X010790Y024263*
X010786Y024259*
X010782Y024255*
X010778Y024251*
X010775Y024247*
X010772Y024242*
X010769Y024237*
X010766Y024232*
X010764Y024227*
X010763Y024222*
X010761Y024216*
X010760Y024211*
X010760Y024205*
X010760Y024200*
X010760Y024194*
X010760Y024188*
X010761Y024183*
X010763Y024177*
X010764Y024172*
X010766Y024167*
X010769Y024162*
X010772Y024157*
X010775Y024152*
X010778Y024148*
X010782Y024144*
X010786Y024140*
X010790Y024136*
X010795Y024133*
X010800Y024130*
X010804Y024128*
X010810Y024125*
X010815Y024123*
X010820Y024122*
X010826Y024121*
X010831Y024120*
X010837Y024120*
X010842*
X010848Y024120*
X010853Y024121*
X010859Y024122*
X010864Y024123*
X010869Y024125*
X010875Y024128*
X010880Y024130*
X010884Y024133*
X010889Y024136*
X010893Y024140*
X010897Y024144*
X010901Y024148*
X010904Y024152*
X010907Y024157*
X010910Y024162*
X010913Y024167*
X010915Y024172*
X010916Y024177*
X010918Y024183*
X010919Y024188*
X010919Y024194*
X010920Y024200*
X013470Y036450D02*
D01*
X013469Y036455*
X013469Y036461*
X013468Y036466*
X013466Y036472*
X013465Y036477*
X013463Y036482*
X013460Y036487*
X013457Y036492*
X013454Y036497*
X013451Y036501*
X013447Y036505*
X013443Y036509*
X013439Y036513*
X013434Y036516*
X013430Y036519*
X013425Y036521*
X013419Y036524*
X013414Y036526*
X013409Y036527*
X013403Y036528*
X013398Y036529*
X013392Y036529*
X013387*
X013381Y036529*
X013376Y036528*
X013370Y036527*
X013365Y036526*
X013360Y036524*
X013354Y036521*
X013350Y036519*
X013345Y036516*
X013340Y036513*
X013336Y036509*
X013332Y036505*
X013328Y036501*
X013325Y036497*
X013322Y036492*
X013319Y036487*
X013316Y036482*
X013314Y036477*
X013313Y036472*
X013311Y036466*
X013310Y036461*
X013310Y036455*
X013310Y036450*
X013310Y036444*
X013310Y036438*
X013311Y036433*
X013313Y036427*
X013314Y036422*
X013316Y036417*
X013319Y036412*
X013322Y036407*
X013325Y036402*
X013328Y036398*
X013332Y036394*
X013336Y036390*
X013340Y036386*
X013345Y036383*
X013350Y036380*
X013354Y036378*
X013360Y036375*
X013365Y036373*
X013370Y036372*
X013376Y036371*
X013381Y036370*
X013387Y036370*
X013392*
X013398Y036370*
X013403Y036371*
X013409Y036372*
X013414Y036373*
X013419Y036375*
X013425Y036378*
X013430Y036380*
X013434Y036383*
X013439Y036386*
X013443Y036390*
X013447Y036394*
X013451Y036398*
X013454Y036402*
X013457Y036407*
X013460Y036412*
X013463Y036417*
X013465Y036422*
X013466Y036427*
X013468Y036433*
X013469Y036438*
X013469Y036444*
X013470Y036450*
X011470D02*
D01*
X011469Y036455*
X011469Y036461*
X011468Y036466*
X011466Y036472*
X011465Y036477*
X011463Y036482*
X011460Y036487*
X011457Y036492*
X011454Y036497*
X011451Y036501*
X011447Y036505*
X011443Y036509*
X011439Y036513*
X011434Y036516*
X011430Y036519*
X011425Y036521*
X011419Y036524*
X011414Y036526*
X011409Y036527*
X011403Y036528*
X011398Y036529*
X011392Y036529*
X011387*
X011381Y036529*
X011376Y036528*
X011370Y036527*
X011365Y036526*
X011360Y036524*
X011354Y036521*
X011350Y036519*
X011345Y036516*
X011340Y036513*
X011336Y036509*
X011332Y036505*
X011328Y036501*
X011325Y036497*
X011322Y036492*
X011319Y036487*
X011316Y036482*
X011314Y036477*
X011313Y036472*
X011311Y036466*
X011310Y036461*
X011310Y036455*
X011310Y036450*
X011310Y036444*
X011310Y036438*
X011311Y036433*
X011313Y036427*
X011314Y036422*
X011316Y036417*
X011319Y036412*
X011322Y036407*
X011325Y036402*
X011328Y036398*
X011332Y036394*
X011336Y036390*
X011340Y036386*
X011345Y036383*
X011350Y036380*
X011354Y036378*
X011360Y036375*
X011365Y036373*
X011370Y036372*
X011376Y036371*
X011381Y036370*
X011387Y036370*
X011392*
X011398Y036370*
X011403Y036371*
X011409Y036372*
X011414Y036373*
X011419Y036375*
X011425Y036378*
X011430Y036380*
X011434Y036383*
X011439Y036386*
X011443Y036390*
X011447Y036394*
X011451Y036398*
X011454Y036402*
X011457Y036407*
X011460Y036412*
X011463Y036417*
X011465Y036422*
X011466Y036427*
X011468Y036433*
X011469Y036438*
X011469Y036444*
X011470Y036450*
X012470D02*
D01*
X012469Y036455*
X012469Y036461*
X012468Y036466*
X012466Y036472*
X012465Y036477*
X012463Y036482*
X012460Y036487*
X012457Y036492*
X012454Y036497*
X012451Y036501*
X012447Y036505*
X012443Y036509*
X012439Y036513*
X012434Y036516*
X012430Y036519*
X012425Y036521*
X012419Y036524*
X012414Y036526*
X012409Y036527*
X012403Y036528*
X012398Y036529*
X012392Y036529*
X012387*
X012381Y036529*
X012376Y036528*
X012370Y036527*
X012365Y036526*
X012360Y036524*
X012354Y036521*
X012350Y036519*
X012345Y036516*
X012340Y036513*
X012336Y036509*
X012332Y036505*
X012328Y036501*
X012325Y036497*
X012322Y036492*
X012319Y036487*
X012316Y036482*
X012314Y036477*
X012313Y036472*
X012311Y036466*
X012310Y036461*
X012310Y036455*
X012310Y036450*
X012310Y036444*
X012310Y036438*
X012311Y036433*
X012313Y036427*
X012314Y036422*
X012316Y036417*
X012319Y036412*
X012322Y036407*
X012325Y036402*
X012328Y036398*
X012332Y036394*
X012336Y036390*
X012340Y036386*
X012345Y036383*
X012350Y036380*
X012354Y036378*
X012360Y036375*
X012365Y036373*
X012370Y036372*
X012376Y036371*
X012381Y036370*
X012387Y036370*
X012392*
X012398Y036370*
X012403Y036371*
X012409Y036372*
X012414Y036373*
X012419Y036375*
X012425Y036378*
X012430Y036380*
X012434Y036383*
X012439Y036386*
X012443Y036390*
X012447Y036394*
X012451Y036398*
X012454Y036402*
X012457Y036407*
X012460Y036412*
X012463Y036417*
X012465Y036422*
X012466Y036427*
X012468Y036433*
X012469Y036438*
X012469Y036444*
X012470Y036450*
X029720Y042700D02*
D01*
X029719Y042705*
X029719Y042711*
X029718Y042716*
X029716Y042722*
X029715Y042727*
X029713Y042732*
X029710Y042737*
X029707Y042742*
X029704Y042747*
X029701Y042751*
X029697Y042755*
X029693Y042759*
X029689Y042763*
X029684Y042766*
X029680Y042769*
X029675Y042771*
X029669Y042774*
X029664Y042776*
X029659Y042777*
X029653Y042778*
X029648Y042779*
X029642Y042779*
X029637*
X029631Y042779*
X029626Y042778*
X029620Y042777*
X029615Y042776*
X029610Y042774*
X029604Y042771*
X029600Y042769*
X029595Y042766*
X029590Y042763*
X029586Y042759*
X029582Y042755*
X029578Y042751*
X029575Y042747*
X029572Y042742*
X029569Y042737*
X029566Y042732*
X029564Y042727*
X029563Y042722*
X029561Y042716*
X029560Y042711*
X029560Y042705*
X029560Y042700*
X029560Y042694*
X029560Y042688*
X029561Y042683*
X029563Y042677*
X029564Y042672*
X029566Y042667*
X029569Y042662*
X029572Y042657*
X029575Y042652*
X029578Y042648*
X029582Y042644*
X029586Y042640*
X029590Y042636*
X029595Y042633*
X029600Y042630*
X029604Y042628*
X029610Y042625*
X029615Y042623*
X029620Y042622*
X029626Y042621*
X029631Y042620*
X029637Y042620*
X029642*
X029648Y042620*
X029653Y042621*
X029659Y042622*
X029664Y042623*
X029669Y042625*
X029675Y042628*
X029680Y042630*
X029684Y042633*
X029689Y042636*
X029693Y042640*
X029697Y042644*
X029701Y042648*
X029704Y042652*
X029707Y042657*
X029710Y042662*
X029713Y042667*
X029715Y042672*
X029716Y042677*
X029718Y042683*
X029719Y042688*
X029719Y042694*
X029720Y042700*
Y041700D02*
D01*
X029719Y041705*
X029719Y041711*
X029718Y041716*
X029716Y041722*
X029715Y041727*
X029713Y041732*
X029710Y041737*
X029707Y041742*
X029704Y041747*
X029701Y041751*
X029697Y041755*
X029693Y041759*
X029689Y041763*
X029684Y041766*
X029680Y041769*
X029675Y041771*
X029669Y041774*
X029664Y041776*
X029659Y041777*
X029653Y041778*
X029648Y041779*
X029642Y041779*
X029637*
X029631Y041779*
X029626Y041778*
X029620Y041777*
X029615Y041776*
X029610Y041774*
X029604Y041771*
X029600Y041769*
X029595Y041766*
X029590Y041763*
X029586Y041759*
X029582Y041755*
X029578Y041751*
X029575Y041747*
X029572Y041742*
X029569Y041737*
X029566Y041732*
X029564Y041727*
X029563Y041722*
X029561Y041716*
X029560Y041711*
X029560Y041705*
X029560Y041700*
X029560Y041694*
X029560Y041688*
X029561Y041683*
X029563Y041677*
X029564Y041672*
X029566Y041667*
X029569Y041662*
X029572Y041657*
X029575Y041652*
X029578Y041648*
X029582Y041644*
X029586Y041640*
X029590Y041636*
X029595Y041633*
X029600Y041630*
X029604Y041628*
X029610Y041625*
X029615Y041623*
X029620Y041622*
X029626Y041621*
X029631Y041620*
X029637Y041620*
X029642*
X029648Y041620*
X029653Y041621*
X029659Y041622*
X029664Y041623*
X029669Y041625*
X029675Y041628*
X029680Y041630*
X029684Y041633*
X029689Y041636*
X029693Y041640*
X029697Y041644*
X029701Y041648*
X029704Y041652*
X029707Y041657*
X029710Y041662*
X029713Y041667*
X029715Y041672*
X029716Y041677*
X029718Y041683*
X029719Y041688*
X029719Y041694*
X029720Y041700*
Y040700D02*
D01*
X029719Y040705*
X029719Y040711*
X029718Y040716*
X029716Y040722*
X029715Y040727*
X029713Y040732*
X029710Y040737*
X029707Y040742*
X029704Y040747*
X029701Y040751*
X029697Y040755*
X029693Y040759*
X029689Y040763*
X029684Y040766*
X029680Y040769*
X029675Y040771*
X029669Y040774*
X029664Y040776*
X029659Y040777*
X029653Y040778*
X029648Y040779*
X029642Y040779*
X029637*
X029631Y040779*
X029626Y040778*
X029620Y040777*
X029615Y040776*
X029610Y040774*
X029604Y040771*
X029600Y040769*
X029595Y040766*
X029590Y040763*
X029586Y040759*
X029582Y040755*
X029578Y040751*
X029575Y040747*
X029572Y040742*
X029569Y040737*
X029566Y040732*
X029564Y040727*
X029563Y040722*
X029561Y040716*
X029560Y040711*
X029560Y040705*
X029560Y040700*
X029560Y040694*
X029560Y040688*
X029561Y040683*
X029563Y040677*
X029564Y040672*
X029566Y040667*
X029569Y040662*
X029572Y040657*
X029575Y040652*
X029578Y040648*
X029582Y040644*
X029586Y040640*
X029590Y040636*
X029595Y040633*
X029600Y040630*
X029604Y040628*
X029610Y040625*
X029615Y040623*
X029620Y040622*
X029626Y040621*
X029631Y040620*
X029637Y040620*
X029642*
X029648Y040620*
X029653Y040621*
X029659Y040622*
X029664Y040623*
X029669Y040625*
X029675Y040628*
X029680Y040630*
X029684Y040633*
X029689Y040636*
X029693Y040640*
X029697Y040644*
X029701Y040648*
X029704Y040652*
X029707Y040657*
X029710Y040662*
X029713Y040667*
X029715Y040672*
X029716Y040677*
X029718Y040683*
X029719Y040688*
X029719Y040694*
X029720Y040700*
Y039700D02*
D01*
X029719Y039705*
X029719Y039711*
X029718Y039716*
X029716Y039722*
X029715Y039727*
X029713Y039732*
X029710Y039737*
X029707Y039742*
X029704Y039747*
X029701Y039751*
X029697Y039755*
X029693Y039759*
X029689Y039763*
X029684Y039766*
X029680Y039769*
X029675Y039771*
X029669Y039774*
X029664Y039776*
X029659Y039777*
X029653Y039778*
X029648Y039779*
X029642Y039779*
X029637*
X029631Y039779*
X029626Y039778*
X029620Y039777*
X029615Y039776*
X029610Y039774*
X029604Y039771*
X029600Y039769*
X029595Y039766*
X029590Y039763*
X029586Y039759*
X029582Y039755*
X029578Y039751*
X029575Y039747*
X029572Y039742*
X029569Y039737*
X029566Y039732*
X029564Y039727*
X029563Y039722*
X029561Y039716*
X029560Y039711*
X029560Y039705*
X029560Y039700*
X029560Y039694*
X029560Y039688*
X029561Y039683*
X029563Y039677*
X029564Y039672*
X029566Y039667*
X029569Y039662*
X029572Y039657*
X029575Y039652*
X029578Y039648*
X029582Y039644*
X029586Y039640*
X029590Y039636*
X029595Y039633*
X029600Y039630*
X029604Y039628*
X029610Y039625*
X029615Y039623*
X029620Y039622*
X029626Y039621*
X029631Y039620*
X029637Y039620*
X029642*
X029648Y039620*
X029653Y039621*
X029659Y039622*
X029664Y039623*
X029669Y039625*
X029675Y039628*
X029680Y039630*
X029684Y039633*
X029689Y039636*
X029693Y039640*
X029697Y039644*
X029701Y039648*
X029704Y039652*
X029707Y039657*
X029710Y039662*
X029713Y039667*
X029715Y039672*
X029716Y039677*
X029718Y039683*
X029719Y039688*
X029719Y039694*
X029720Y039700*
Y038700D02*
D01*
X029719Y038705*
X029719Y038711*
X029718Y038716*
X029716Y038722*
X029715Y038727*
X029713Y038732*
X029710Y038737*
X029707Y038742*
X029704Y038747*
X029701Y038751*
X029697Y038755*
X029693Y038759*
X029689Y038763*
X029684Y038766*
X029680Y038769*
X029675Y038771*
X029669Y038774*
X029664Y038776*
X029659Y038777*
X029653Y038778*
X029648Y038779*
X029642Y038779*
X029637*
X029631Y038779*
X029626Y038778*
X029620Y038777*
X029615Y038776*
X029610Y038774*
X029604Y038771*
X029600Y038769*
X029595Y038766*
X029590Y038763*
X029586Y038759*
X029582Y038755*
X029578Y038751*
X029575Y038747*
X029572Y038742*
X029569Y038737*
X029566Y038732*
X029564Y038727*
X029563Y038722*
X029561Y038716*
X029560Y038711*
X029560Y038705*
X029560Y038700*
X029560Y038694*
X029560Y038688*
X029561Y038683*
X029563Y038677*
X029564Y038672*
X029566Y038667*
X029569Y038662*
X029572Y038657*
X029575Y038652*
X029578Y038648*
X029582Y038644*
X029586Y038640*
X029590Y038636*
X029595Y038633*
X029600Y038630*
X029604Y038628*
X029610Y038625*
X029615Y038623*
X029620Y038622*
X029626Y038621*
X029631Y038620*
X029637Y038620*
X029642*
X029648Y038620*
X029653Y038621*
X029659Y038622*
X029664Y038623*
X029669Y038625*
X029675Y038628*
X029680Y038630*
X029684Y038633*
X029689Y038636*
X029693Y038640*
X029697Y038644*
X029701Y038648*
X029704Y038652*
X029707Y038657*
X029710Y038662*
X029713Y038667*
X029715Y038672*
X029716Y038677*
X029718Y038683*
X029719Y038688*
X029719Y038694*
X029720Y038700*
Y037700D02*
D01*
X029719Y037705*
X029719Y037711*
X029718Y037716*
X029716Y037722*
X029715Y037727*
X029713Y037732*
X029710Y037737*
X029707Y037742*
X029704Y037747*
X029701Y037751*
X029697Y037755*
X029693Y037759*
X029689Y037763*
X029684Y037766*
X029680Y037769*
X029675Y037771*
X029669Y037774*
X029664Y037776*
X029659Y037777*
X029653Y037778*
X029648Y037779*
X029642Y037779*
X029637*
X029631Y037779*
X029626Y037778*
X029620Y037777*
X029615Y037776*
X029610Y037774*
X029604Y037771*
X029600Y037769*
X029595Y037766*
X029590Y037763*
X029586Y037759*
X029582Y037755*
X029578Y037751*
X029575Y037747*
X029572Y037742*
X029569Y037737*
X029566Y037732*
X029564Y037727*
X029563Y037722*
X029561Y037716*
X029560Y037711*
X029560Y037705*
X029560Y037700*
X029560Y037694*
X029560Y037688*
X029561Y037683*
X029563Y037677*
X029564Y037672*
X029566Y037667*
X029569Y037662*
X029572Y037657*
X029575Y037652*
X029578Y037648*
X029582Y037644*
X029586Y037640*
X029590Y037636*
X029595Y037633*
X029600Y037630*
X029604Y037628*
X029610Y037625*
X029615Y037623*
X029620Y037622*
X029626Y037621*
X029631Y037620*
X029637Y037620*
X029642*
X029648Y037620*
X029653Y037621*
X029659Y037622*
X029664Y037623*
X029669Y037625*
X029675Y037628*
X029680Y037630*
X029684Y037633*
X029689Y037636*
X029693Y037640*
X029697Y037644*
X029701Y037648*
X029704Y037652*
X029707Y037657*
X029710Y037662*
X029713Y037667*
X029715Y037672*
X029716Y037677*
X029718Y037683*
X029719Y037688*
X029719Y037694*
X029720Y037700*
X034820Y021200D02*
D01*
X034819Y021205*
X034819Y021211*
X034818Y021216*
X034816Y021222*
X034815Y021227*
X034813Y021232*
X034810Y021237*
X034807Y021242*
X034804Y021247*
X034801Y021251*
X034797Y021255*
X034793Y021259*
X034789Y021263*
X034784Y021266*
X034780Y021269*
X034775Y021271*
X034769Y021274*
X034764Y021276*
X034759Y021277*
X034753Y021278*
X034748Y021279*
X034742Y021279*
X034737*
X034731Y021279*
X034726Y021278*
X034720Y021277*
X034715Y021276*
X034710Y021274*
X034704Y021271*
X034700Y021269*
X034695Y021266*
X034690Y021263*
X034686Y021259*
X034682Y021255*
X034678Y021251*
X034675Y021247*
X034672Y021242*
X034669Y021237*
X034666Y021232*
X034664Y021227*
X034663Y021222*
X034661Y021216*
X034660Y021211*
X034660Y021205*
X034660Y021200*
X034660Y021194*
X034660Y021188*
X034661Y021183*
X034663Y021177*
X034664Y021172*
X034666Y021167*
X034669Y021162*
X034672Y021157*
X034675Y021152*
X034678Y021148*
X034682Y021144*
X034686Y021140*
X034690Y021136*
X034695Y021133*
X034700Y021130*
X034704Y021128*
X034710Y021125*
X034715Y021123*
X034720Y021122*
X034726Y021121*
X034731Y021120*
X034737Y021120*
X034742*
X034748Y021120*
X034753Y021121*
X034759Y021122*
X034764Y021123*
X034769Y021125*
X034775Y021128*
X034780Y021130*
X034784Y021133*
X034789Y021136*
X034793Y021140*
X034797Y021144*
X034801Y021148*
X034804Y021152*
X034807Y021157*
X034810Y021162*
X034813Y021167*
X034815Y021172*
X034816Y021177*
X034818Y021183*
X034819Y021188*
X034819Y021194*
X034820Y021200*
X035820D02*
D01*
X035819Y021205*
X035819Y021211*
X035818Y021216*
X035816Y021222*
X035815Y021227*
X035813Y021232*
X035810Y021237*
X035807Y021242*
X035804Y021247*
X035801Y021251*
X035797Y021255*
X035793Y021259*
X035789Y021263*
X035784Y021266*
X035780Y021269*
X035775Y021271*
X035769Y021274*
X035764Y021276*
X035759Y021277*
X035753Y021278*
X035748Y021279*
X035742Y021279*
X035737*
X035731Y021279*
X035726Y021278*
X035720Y021277*
X035715Y021276*
X035710Y021274*
X035704Y021271*
X035700Y021269*
X035695Y021266*
X035690Y021263*
X035686Y021259*
X035682Y021255*
X035678Y021251*
X035675Y021247*
X035672Y021242*
X035669Y021237*
X035666Y021232*
X035664Y021227*
X035663Y021222*
X035661Y021216*
X035660Y021211*
X035660Y021205*
X035660Y021200*
X035660Y021194*
X035660Y021188*
X035661Y021183*
X035663Y021177*
X035664Y021172*
X035666Y021167*
X035669Y021162*
X035672Y021157*
X035675Y021152*
X035678Y021148*
X035682Y021144*
X035686Y021140*
X035690Y021136*
X035695Y021133*
X035700Y021130*
X035704Y021128*
X035710Y021125*
X035715Y021123*
X035720Y021122*
X035726Y021121*
X035731Y021120*
X035737Y021120*
X035742*
X035748Y021120*
X035753Y021121*
X035759Y021122*
X035764Y021123*
X035769Y021125*
X035775Y021128*
X035780Y021130*
X035784Y021133*
X035789Y021136*
X035793Y021140*
X035797Y021144*
X035801Y021148*
X035804Y021152*
X035807Y021157*
X035810Y021162*
X035813Y021167*
X035815Y021172*
X035816Y021177*
X035818Y021183*
X035819Y021188*
X035819Y021194*
X035820Y021200*
X036820D02*
D01*
X036819Y021205*
X036819Y021211*
X036818Y021216*
X036816Y021222*
X036815Y021227*
X036813Y021232*
X036810Y021237*
X036807Y021242*
X036804Y021247*
X036801Y021251*
X036797Y021255*
X036793Y021259*
X036789Y021263*
X036784Y021266*
X036780Y021269*
X036775Y021271*
X036769Y021274*
X036764Y021276*
X036759Y021277*
X036753Y021278*
X036748Y021279*
X036742Y021279*
X036737*
X036731Y021279*
X036726Y021278*
X036720Y021277*
X036715Y021276*
X036710Y021274*
X036704Y021271*
X036700Y021269*
X036695Y021266*
X036690Y021263*
X036686Y021259*
X036682Y021255*
X036678Y021251*
X036675Y021247*
X036672Y021242*
X036669Y021237*
X036666Y021232*
X036664Y021227*
X036663Y021222*
X036661Y021216*
X036660Y021211*
X036660Y021205*
X036660Y021200*
X036660Y021194*
X036660Y021188*
X036661Y021183*
X036663Y021177*
X036664Y021172*
X036666Y021167*
X036669Y021162*
X036672Y021157*
X036675Y021152*
X036678Y021148*
X036682Y021144*
X036686Y021140*
X036690Y021136*
X036695Y021133*
X036700Y021130*
X036704Y021128*
X036710Y021125*
X036715Y021123*
X036720Y021122*
X036726Y021121*
X036731Y021120*
X036737Y021120*
X036742*
X036748Y021120*
X036753Y021121*
X036759Y021122*
X036764Y021123*
X036769Y021125*
X036775Y021128*
X036780Y021130*
X036784Y021133*
X036789Y021136*
X036793Y021140*
X036797Y021144*
X036801Y021148*
X036804Y021152*
X036807Y021157*
X036810Y021162*
X036813Y021167*
X036815Y021172*
X036816Y021177*
X036818Y021183*
X036819Y021188*
X036819Y021194*
X036820Y021200*
X037820D02*
D01*
X037819Y021205*
X037819Y021211*
X037818Y021216*
X037816Y021222*
X037815Y021227*
X037813Y021232*
X037810Y021237*
X037807Y021242*
X037804Y021247*
X037801Y021251*
X037797Y021255*
X037793Y021259*
X037789Y021263*
X037784Y021266*
X037780Y021269*
X037775Y021271*
X037769Y021274*
X037764Y021276*
X037759Y021277*
X037753Y021278*
X037748Y021279*
X037742Y021279*
X037737*
X037731Y021279*
X037726Y021278*
X037720Y021277*
X037715Y021276*
X037710Y021274*
X037704Y021271*
X037700Y021269*
X037695Y021266*
X037690Y021263*
X037686Y021259*
X037682Y021255*
X037678Y021251*
X037675Y021247*
X037672Y021242*
X037669Y021237*
X037666Y021232*
X037664Y021227*
X037663Y021222*
X037661Y021216*
X037660Y021211*
X037660Y021205*
X037660Y021200*
X037660Y021194*
X037660Y021188*
X037661Y021183*
X037663Y021177*
X037664Y021172*
X037666Y021167*
X037669Y021162*
X037672Y021157*
X037675Y021152*
X037678Y021148*
X037682Y021144*
X037686Y021140*
X037690Y021136*
X037695Y021133*
X037700Y021130*
X037704Y021128*
X037710Y021125*
X037715Y021123*
X037720Y021122*
X037726Y021121*
X037731Y021120*
X037737Y021120*
X037742*
X037748Y021120*
X037753Y021121*
X037759Y021122*
X037764Y021123*
X037769Y021125*
X037775Y021128*
X037780Y021130*
X037784Y021133*
X037789Y021136*
X037793Y021140*
X037797Y021144*
X037801Y021148*
X037804Y021152*
X037807Y021157*
X037810Y021162*
X037813Y021167*
X037815Y021172*
X037816Y021177*
X037818Y021183*
X037819Y021188*
X037819Y021194*
X037820Y021200*
X038820D02*
D01*
X038819Y021205*
X038819Y021211*
X038818Y021216*
X038816Y021222*
X038815Y021227*
X038813Y021232*
X038810Y021237*
X038807Y021242*
X038804Y021247*
X038801Y021251*
X038797Y021255*
X038793Y021259*
X038789Y021263*
X038784Y021266*
X038780Y021269*
X038775Y021271*
X038769Y021274*
X038764Y021276*
X038759Y021277*
X038753Y021278*
X038748Y021279*
X038742Y021279*
X038737*
X038731Y021279*
X038726Y021278*
X038720Y021277*
X038715Y021276*
X038710Y021274*
X038704Y021271*
X038700Y021269*
X038695Y021266*
X038690Y021263*
X038686Y021259*
X038682Y021255*
X038678Y021251*
X038675Y021247*
X038672Y021242*
X038669Y021237*
X038666Y021232*
X038664Y021227*
X038663Y021222*
X038661Y021216*
X038660Y021211*
X038660Y021205*
X038660Y021200*
X038660Y021194*
X038660Y021188*
X038661Y021183*
X038663Y021177*
X038664Y021172*
X038666Y021167*
X038669Y021162*
X038672Y021157*
X038675Y021152*
X038678Y021148*
X038682Y021144*
X038686Y021140*
X038690Y021136*
X038695Y021133*
X038700Y021130*
X038704Y021128*
X038710Y021125*
X038715Y021123*
X038720Y021122*
X038726Y021121*
X038731Y021120*
X038737Y021120*
X038742*
X038748Y021120*
X038753Y021121*
X038759Y021122*
X038764Y021123*
X038769Y021125*
X038775Y021128*
X038780Y021130*
X038784Y021133*
X038789Y021136*
X038793Y021140*
X038797Y021144*
X038801Y021148*
X038804Y021152*
X038807Y021157*
X038810Y021162*
X038813Y021167*
X038815Y021172*
X038816Y021177*
X038818Y021183*
X038819Y021188*
X038819Y021194*
X038820Y021200*
X039820D02*
D01*
X039819Y021205*
X039819Y021211*
X039818Y021216*
X039816Y021222*
X039815Y021227*
X039813Y021232*
X039810Y021237*
X039807Y021242*
X039804Y021247*
X039801Y021251*
X039797Y021255*
X039793Y021259*
X039789Y021263*
X039784Y021266*
X039780Y021269*
X039775Y021271*
X039769Y021274*
X039764Y021276*
X039759Y021277*
X039753Y021278*
X039748Y021279*
X039742Y021279*
X039737*
X039731Y021279*
X039726Y021278*
X039720Y021277*
X039715Y021276*
X039710Y021274*
X039704Y021271*
X039700Y021269*
X039695Y021266*
X039690Y021263*
X039686Y021259*
X039682Y021255*
X039678Y021251*
X039675Y021247*
X039672Y021242*
X039669Y021237*
X039666Y021232*
X039664Y021227*
X039663Y021222*
X039661Y021216*
X039660Y021211*
X039660Y021205*
X039660Y021200*
X039660Y021194*
X039660Y021188*
X039661Y021183*
X039663Y021177*
X039664Y021172*
X039666Y021167*
X039669Y021162*
X039672Y021157*
X039675Y021152*
X039678Y021148*
X039682Y021144*
X039686Y021140*
X039690Y021136*
X039695Y021133*
X039700Y021130*
X039704Y021128*
X039710Y021125*
X039715Y021123*
X039720Y021122*
X039726Y021121*
X039731Y021120*
X039737Y021120*
X039742*
X039748Y021120*
X039753Y021121*
X039759Y021122*
X039764Y021123*
X039769Y021125*
X039775Y021128*
X039780Y021130*
X039784Y021133*
X039789Y021136*
X039793Y021140*
X039797Y021144*
X039801Y021148*
X039804Y021152*
X039807Y021157*
X039810Y021162*
X039813Y021167*
X039815Y021172*
X039816Y021177*
X039818Y021183*
X039819Y021188*
X039819Y021194*
X039820Y021200*
X033620Y044200D02*
D01*
X033619Y044205*
X033619Y044211*
X033618Y044216*
X033616Y044222*
X033615Y044227*
X033613Y044232*
X033610Y044237*
X033607Y044242*
X033604Y044247*
X033601Y044251*
X033597Y044255*
X033593Y044259*
X033589Y044263*
X033584Y044266*
X033580Y044269*
X033575Y044271*
X033569Y044274*
X033564Y044276*
X033559Y044277*
X033553Y044278*
X033548Y044279*
X033542Y044279*
X033537*
X033531Y044279*
X033526Y044278*
X033520Y044277*
X033515Y044276*
X033510Y044274*
X033504Y044271*
X033500Y044269*
X033495Y044266*
X033490Y044263*
X033486Y044259*
X033482Y044255*
X033478Y044251*
X033475Y044247*
X033472Y044242*
X033469Y044237*
X033466Y044232*
X033464Y044227*
X033463Y044222*
X033461Y044216*
X033460Y044211*
X033460Y044205*
X033460Y044200*
X033460Y044194*
X033460Y044188*
X033461Y044183*
X033463Y044177*
X033464Y044172*
X033466Y044167*
X033469Y044162*
X033472Y044157*
X033475Y044152*
X033478Y044148*
X033482Y044144*
X033486Y044140*
X033490Y044136*
X033495Y044133*
X033500Y044130*
X033504Y044128*
X033510Y044125*
X033515Y044123*
X033520Y044122*
X033526Y044121*
X033531Y044120*
X033537Y044120*
X033542*
X033548Y044120*
X033553Y044121*
X033559Y044122*
X033564Y044123*
X033569Y044125*
X033575Y044128*
X033580Y044130*
X033584Y044133*
X033589Y044136*
X033593Y044140*
X033597Y044144*
X033601Y044148*
X033604Y044152*
X033607Y044157*
X033610Y044162*
X033613Y044167*
X033615Y044172*
X033616Y044177*
X033618Y044183*
X033619Y044188*
X033619Y044194*
X033620Y044200*
X034620D02*
D01*
X034619Y044205*
X034619Y044211*
X034618Y044216*
X034616Y044222*
X034615Y044227*
X034613Y044232*
X034610Y044237*
X034607Y044242*
X034604Y044247*
X034601Y044251*
X034597Y044255*
X034593Y044259*
X034589Y044263*
X034584Y044266*
X034580Y044269*
X034575Y044271*
X034569Y044274*
X034564Y044276*
X034559Y044277*
X034553Y044278*
X034548Y044279*
X034542Y044279*
X034537*
X034531Y044279*
X034526Y044278*
X034520Y044277*
X034515Y044276*
X034510Y044274*
X034504Y044271*
X034500Y044269*
X034495Y044266*
X034490Y044263*
X034486Y044259*
X034482Y044255*
X034478Y044251*
X034475Y044247*
X034472Y044242*
X034469Y044237*
X034466Y044232*
X034464Y044227*
X034463Y044222*
X034461Y044216*
X034460Y044211*
X034460Y044205*
X034460Y044200*
X034460Y044194*
X034460Y044188*
X034461Y044183*
X034463Y044177*
X034464Y044172*
X034466Y044167*
X034469Y044162*
X034472Y044157*
X034475Y044152*
X034478Y044148*
X034482Y044144*
X034486Y044140*
X034490Y044136*
X034495Y044133*
X034500Y044130*
X034504Y044128*
X034510Y044125*
X034515Y044123*
X034520Y044122*
X034526Y044121*
X034531Y044120*
X034537Y044120*
X034542*
X034548Y044120*
X034553Y044121*
X034559Y044122*
X034564Y044123*
X034569Y044125*
X034575Y044128*
X034580Y044130*
X034584Y044133*
X034589Y044136*
X034593Y044140*
X034597Y044144*
X034601Y044148*
X034604Y044152*
X034607Y044157*
X034610Y044162*
X034613Y044167*
X034615Y044172*
X034616Y044177*
X034618Y044183*
X034619Y044188*
X034619Y044194*
X034620Y044200*
X035620D02*
D01*
X035619Y044205*
X035619Y044211*
X035618Y044216*
X035616Y044222*
X035615Y044227*
X035613Y044232*
X035610Y044237*
X035607Y044242*
X035604Y044247*
X035601Y044251*
X035597Y044255*
X035593Y044259*
X035589Y044263*
X035584Y044266*
X035580Y044269*
X035575Y044271*
X035569Y044274*
X035564Y044276*
X035559Y044277*
X035553Y044278*
X035548Y044279*
X035542Y044279*
X035537*
X035531Y044279*
X035526Y044278*
X035520Y044277*
X035515Y044276*
X035510Y044274*
X035504Y044271*
X035500Y044269*
X035495Y044266*
X035490Y044263*
X035486Y044259*
X035482Y044255*
X035478Y044251*
X035475Y044247*
X035472Y044242*
X035469Y044237*
X035466Y044232*
X035464Y044227*
X035463Y044222*
X035461Y044216*
X035460Y044211*
X035460Y044205*
X035460Y044200*
X035460Y044194*
X035460Y044188*
X035461Y044183*
X035463Y044177*
X035464Y044172*
X035466Y044167*
X035469Y044162*
X035472Y044157*
X035475Y044152*
X035478Y044148*
X035482Y044144*
X035486Y044140*
X035490Y044136*
X035495Y044133*
X035500Y044130*
X035504Y044128*
X035510Y044125*
X035515Y044123*
X035520Y044122*
X035526Y044121*
X035531Y044120*
X035537Y044120*
X035542*
X035548Y044120*
X035553Y044121*
X035559Y044122*
X035564Y044123*
X035569Y044125*
X035575Y044128*
X035580Y044130*
X035584Y044133*
X035589Y044136*
X035593Y044140*
X035597Y044144*
X035601Y044148*
X035604Y044152*
X035607Y044157*
X035610Y044162*
X035613Y044167*
X035615Y044172*
X035616Y044177*
X035618Y044183*
X035619Y044188*
X035619Y044194*
X035620Y044200*
X036620D02*
D01*
X036619Y044205*
X036619Y044211*
X036618Y044216*
X036616Y044222*
X036615Y044227*
X036613Y044232*
X036610Y044237*
X036607Y044242*
X036604Y044247*
X036601Y044251*
X036597Y044255*
X036593Y044259*
X036589Y044263*
X036584Y044266*
X036580Y044269*
X036575Y044271*
X036569Y044274*
X036564Y044276*
X036559Y044277*
X036553Y044278*
X036548Y044279*
X036542Y044279*
X036537*
X036531Y044279*
X036526Y044278*
X036520Y044277*
X036515Y044276*
X036510Y044274*
X036504Y044271*
X036500Y044269*
X036495Y044266*
X036490Y044263*
X036486Y044259*
X036482Y044255*
X036478Y044251*
X036475Y044247*
X036472Y044242*
X036469Y044237*
X036466Y044232*
X036464Y044227*
X036463Y044222*
X036461Y044216*
X036460Y044211*
X036460Y044205*
X036460Y044200*
X036460Y044194*
X036460Y044188*
X036461Y044183*
X036463Y044177*
X036464Y044172*
X036466Y044167*
X036469Y044162*
X036472Y044157*
X036475Y044152*
X036478Y044148*
X036482Y044144*
X036486Y044140*
X036490Y044136*
X036495Y044133*
X036500Y044130*
X036504Y044128*
X036510Y044125*
X036515Y044123*
X036520Y044122*
X036526Y044121*
X036531Y044120*
X036537Y044120*
X036542*
X036548Y044120*
X036553Y044121*
X036559Y044122*
X036564Y044123*
X036569Y044125*
X036575Y044128*
X036580Y044130*
X036584Y044133*
X036589Y044136*
X036593Y044140*
X036597Y044144*
X036601Y044148*
X036604Y044152*
X036607Y044157*
X036610Y044162*
X036613Y044167*
X036615Y044172*
X036616Y044177*
X036618Y044183*
X036619Y044188*
X036619Y044194*
X036620Y044200*
X037620D02*
D01*
X037619Y044205*
X037619Y044211*
X037618Y044216*
X037616Y044222*
X037615Y044227*
X037613Y044232*
X037610Y044237*
X037607Y044242*
X037604Y044247*
X037601Y044251*
X037597Y044255*
X037593Y044259*
X037589Y044263*
X037584Y044266*
X037580Y044269*
X037575Y044271*
X037569Y044274*
X037564Y044276*
X037559Y044277*
X037553Y044278*
X037548Y044279*
X037542Y044279*
X037537*
X037531Y044279*
X037526Y044278*
X037520Y044277*
X037515Y044276*
X037510Y044274*
X037504Y044271*
X037500Y044269*
X037495Y044266*
X037490Y044263*
X037486Y044259*
X037482Y044255*
X037478Y044251*
X037475Y044247*
X037472Y044242*
X037469Y044237*
X037466Y044232*
X037464Y044227*
X037463Y044222*
X037461Y044216*
X037460Y044211*
X037460Y044205*
X037460Y044200*
X037460Y044194*
X037460Y044188*
X037461Y044183*
X037463Y044177*
X037464Y044172*
X037466Y044167*
X037469Y044162*
X037472Y044157*
X037475Y044152*
X037478Y044148*
X037482Y044144*
X037486Y044140*
X037490Y044136*
X037495Y044133*
X037500Y044130*
X037504Y044128*
X037510Y044125*
X037515Y044123*
X037520Y044122*
X037526Y044121*
X037531Y044120*
X037537Y044120*
X037542*
X037548Y044120*
X037553Y044121*
X037559Y044122*
X037564Y044123*
X037569Y044125*
X037575Y044128*
X037580Y044130*
X037584Y044133*
X037589Y044136*
X037593Y044140*
X037597Y044144*
X037601Y044148*
X037604Y044152*
X037607Y044157*
X037610Y044162*
X037613Y044167*
X037615Y044172*
X037616Y044177*
X037618Y044183*
X037619Y044188*
X037619Y044194*
X037620Y044200*
X038620D02*
D01*
X038619Y044205*
X038619Y044211*
X038618Y044216*
X038616Y044222*
X038615Y044227*
X038613Y044232*
X038610Y044237*
X038607Y044242*
X038604Y044247*
X038601Y044251*
X038597Y044255*
X038593Y044259*
X038589Y044263*
X038584Y044266*
X038580Y044269*
X038575Y044271*
X038569Y044274*
X038564Y044276*
X038559Y044277*
X038553Y044278*
X038548Y044279*
X038542Y044279*
X038537*
X038531Y044279*
X038526Y044278*
X038520Y044277*
X038515Y044276*
X038510Y044274*
X038504Y044271*
X038500Y044269*
X038495Y044266*
X038490Y044263*
X038486Y044259*
X038482Y044255*
X038478Y044251*
X038475Y044247*
X038472Y044242*
X038469Y044237*
X038466Y044232*
X038464Y044227*
X038463Y044222*
X038461Y044216*
X038460Y044211*
X038460Y044205*
X038460Y044200*
X038460Y044194*
X038460Y044188*
X038461Y044183*
X038463Y044177*
X038464Y044172*
X038466Y044167*
X038469Y044162*
X038472Y044157*
X038475Y044152*
X038478Y044148*
X038482Y044144*
X038486Y044140*
X038490Y044136*
X038495Y044133*
X038500Y044130*
X038504Y044128*
X038510Y044125*
X038515Y044123*
X038520Y044122*
X038526Y044121*
X038531Y044120*
X038537Y044120*
X038542*
X038548Y044120*
X038553Y044121*
X038559Y044122*
X038564Y044123*
X038569Y044125*
X038575Y044128*
X038580Y044130*
X038584Y044133*
X038589Y044136*
X038593Y044140*
X038597Y044144*
X038601Y044148*
X038604Y044152*
X038607Y044157*
X038610Y044162*
X038613Y044167*
X038615Y044172*
X038616Y044177*
X038618Y044183*
X038619Y044188*
X038619Y044194*
X038620Y044200*
X033370Y028400D02*
D01*
X033369Y028405*
X033369Y028411*
X033368Y028416*
X033366Y028422*
X033365Y028427*
X033363Y028432*
X033360Y028437*
X033357Y028442*
X033354Y028447*
X033351Y028451*
X033347Y028455*
X033343Y028459*
X033339Y028463*
X033334Y028466*
X033330Y028469*
X033325Y028471*
X033319Y028474*
X033314Y028476*
X033309Y028477*
X033303Y028478*
X033298Y028479*
X033292Y028479*
X033287*
X033281Y028479*
X033276Y028478*
X033270Y028477*
X033265Y028476*
X033260Y028474*
X033254Y028471*
X033250Y028469*
X033245Y028466*
X033240Y028463*
X033236Y028459*
X033232Y028455*
X033228Y028451*
X033225Y028447*
X033222Y028442*
X033219Y028437*
X033216Y028432*
X033214Y028427*
X033213Y028422*
X033211Y028416*
X033210Y028411*
X033210Y028405*
X033210Y028400*
X033210Y028394*
X033210Y028388*
X033211Y028383*
X033213Y028377*
X033214Y028372*
X033216Y028367*
X033219Y028362*
X033222Y028357*
X033225Y028352*
X033228Y028348*
X033232Y028344*
X033236Y028340*
X033240Y028336*
X033245Y028333*
X033250Y028330*
X033254Y028328*
X033260Y028325*
X033265Y028323*
X033270Y028322*
X033276Y028321*
X033281Y028320*
X033287Y028320*
X033292*
X033298Y028320*
X033303Y028321*
X033309Y028322*
X033314Y028323*
X033319Y028325*
X033325Y028328*
X033330Y028330*
X033334Y028333*
X033339Y028336*
X033343Y028340*
X033347Y028344*
X033351Y028348*
X033354Y028352*
X033357Y028357*
X033360Y028362*
X033363Y028367*
X033365Y028372*
X033366Y028377*
X033368Y028383*
X033369Y028388*
X033369Y028394*
X033370Y028400*
X034370D02*
D01*
X034369Y028405*
X034369Y028411*
X034368Y028416*
X034366Y028422*
X034365Y028427*
X034363Y028432*
X034360Y028437*
X034357Y028442*
X034354Y028447*
X034351Y028451*
X034347Y028455*
X034343Y028459*
X034339Y028463*
X034334Y028466*
X034330Y028469*
X034325Y028471*
X034319Y028474*
X034314Y028476*
X034309Y028477*
X034303Y028478*
X034298Y028479*
X034292Y028479*
X034287*
X034281Y028479*
X034276Y028478*
X034270Y028477*
X034265Y028476*
X034260Y028474*
X034254Y028471*
X034250Y028469*
X034245Y028466*
X034240Y028463*
X034236Y028459*
X034232Y028455*
X034228Y028451*
X034225Y028447*
X034222Y028442*
X034219Y028437*
X034216Y028432*
X034214Y028427*
X034213Y028422*
X034211Y028416*
X034210Y028411*
X034210Y028405*
X034210Y028400*
X034210Y028394*
X034210Y028388*
X034211Y028383*
X034213Y028377*
X034214Y028372*
X034216Y028367*
X034219Y028362*
X034222Y028357*
X034225Y028352*
X034228Y028348*
X034232Y028344*
X034236Y028340*
X034240Y028336*
X034245Y028333*
X034250Y028330*
X034254Y028328*
X034260Y028325*
X034265Y028323*
X034270Y028322*
X034276Y028321*
X034281Y028320*
X034287Y028320*
X034292*
X034298Y028320*
X034303Y028321*
X034309Y028322*
X034314Y028323*
X034319Y028325*
X034325Y028328*
X034330Y028330*
X034334Y028333*
X034339Y028336*
X034343Y028340*
X034347Y028344*
X034351Y028348*
X034354Y028352*
X034357Y028357*
X034360Y028362*
X034363Y028367*
X034365Y028372*
X034366Y028377*
X034368Y028383*
X034369Y028388*
X034369Y028394*
X034370Y028400*
X035370D02*
D01*
X035369Y028405*
X035369Y028411*
X035368Y028416*
X035366Y028422*
X035365Y028427*
X035363Y028432*
X035360Y028437*
X035357Y028442*
X035354Y028447*
X035351Y028451*
X035347Y028455*
X035343Y028459*
X035339Y028463*
X035334Y028466*
X035330Y028469*
X035325Y028471*
X035319Y028474*
X035314Y028476*
X035309Y028477*
X035303Y028478*
X035298Y028479*
X035292Y028479*
X035287*
X035281Y028479*
X035276Y028478*
X035270Y028477*
X035265Y028476*
X035260Y028474*
X035254Y028471*
X035250Y028469*
X035245Y028466*
X035240Y028463*
X035236Y028459*
X035232Y028455*
X035228Y028451*
X035225Y028447*
X035222Y028442*
X035219Y028437*
X035216Y028432*
X035214Y028427*
X035213Y028422*
X035211Y028416*
X035210Y028411*
X035210Y028405*
X035210Y028400*
X035210Y028394*
X035210Y028388*
X035211Y028383*
X035213Y028377*
X035214Y028372*
X035216Y028367*
X035219Y028362*
X035222Y028357*
X035225Y028352*
X035228Y028348*
X035232Y028344*
X035236Y028340*
X035240Y028336*
X035245Y028333*
X035250Y028330*
X035254Y028328*
X035260Y028325*
X035265Y028323*
X035270Y028322*
X035276Y028321*
X035281Y028320*
X035287Y028320*
X035292*
X035298Y028320*
X035303Y028321*
X035309Y028322*
X035314Y028323*
X035319Y028325*
X035325Y028328*
X035330Y028330*
X035334Y028333*
X035339Y028336*
X035343Y028340*
X035347Y028344*
X035351Y028348*
X035354Y028352*
X035357Y028357*
X035360Y028362*
X035363Y028367*
X035365Y028372*
X035366Y028377*
X035368Y028383*
X035369Y028388*
X035369Y028394*
X035370Y028400*
X036370D02*
D01*
X036369Y028405*
X036369Y028411*
X036368Y028416*
X036366Y028422*
X036365Y028427*
X036363Y028432*
X036360Y028437*
X036357Y028442*
X036354Y028447*
X036351Y028451*
X036347Y028455*
X036343Y028459*
X036339Y028463*
X036334Y028466*
X036330Y028469*
X036325Y028471*
X036319Y028474*
X036314Y028476*
X036309Y028477*
X036303Y028478*
X036298Y028479*
X036292Y028479*
X036287*
X036281Y028479*
X036276Y028478*
X036270Y028477*
X036265Y028476*
X036260Y028474*
X036254Y028471*
X036250Y028469*
X036245Y028466*
X036240Y028463*
X036236Y028459*
X036232Y028455*
X036228Y028451*
X036225Y028447*
X036222Y028442*
X036219Y028437*
X036216Y028432*
X036214Y028427*
X036213Y028422*
X036211Y028416*
X036210Y028411*
X036210Y028405*
X036210Y028400*
X036210Y028394*
X036210Y028388*
X036211Y028383*
X036213Y028377*
X036214Y028372*
X036216Y028367*
X036219Y028362*
X036222Y028357*
X036225Y028352*
X036228Y028348*
X036232Y028344*
X036236Y028340*
X036240Y028336*
X036245Y028333*
X036250Y028330*
X036254Y028328*
X036260Y028325*
X036265Y028323*
X036270Y028322*
X036276Y028321*
X036281Y028320*
X036287Y028320*
X036292*
X036298Y028320*
X036303Y028321*
X036309Y028322*
X036314Y028323*
X036319Y028325*
X036325Y028328*
X036330Y028330*
X036334Y028333*
X036339Y028336*
X036343Y028340*
X036347Y028344*
X036351Y028348*
X036354Y028352*
X036357Y028357*
X036360Y028362*
X036363Y028367*
X036365Y028372*
X036366Y028377*
X036368Y028383*
X036369Y028388*
X036369Y028394*
X036370Y028400*
X037370D02*
D01*
X037369Y028405*
X037369Y028411*
X037368Y028416*
X037366Y028422*
X037365Y028427*
X037363Y028432*
X037360Y028437*
X037357Y028442*
X037354Y028447*
X037351Y028451*
X037347Y028455*
X037343Y028459*
X037339Y028463*
X037334Y028466*
X037330Y028469*
X037325Y028471*
X037319Y028474*
X037314Y028476*
X037309Y028477*
X037303Y028478*
X037298Y028479*
X037292Y028479*
X037287*
X037281Y028479*
X037276Y028478*
X037270Y028477*
X037265Y028476*
X037260Y028474*
X037254Y028471*
X037250Y028469*
X037245Y028466*
X037240Y028463*
X037236Y028459*
X037232Y028455*
X037228Y028451*
X037225Y028447*
X037222Y028442*
X037219Y028437*
X037216Y028432*
X037214Y028427*
X037213Y028422*
X037211Y028416*
X037210Y028411*
X037210Y028405*
X037210Y028400*
X037210Y028394*
X037210Y028388*
X037211Y028383*
X037213Y028377*
X037214Y028372*
X037216Y028367*
X037219Y028362*
X037222Y028357*
X037225Y028352*
X037228Y028348*
X037232Y028344*
X037236Y028340*
X037240Y028336*
X037245Y028333*
X037250Y028330*
X037254Y028328*
X037260Y028325*
X037265Y028323*
X037270Y028322*
X037276Y028321*
X037281Y028320*
X037287Y028320*
X037292*
X037298Y028320*
X037303Y028321*
X037309Y028322*
X037314Y028323*
X037319Y028325*
X037325Y028328*
X037330Y028330*
X037334Y028333*
X037339Y028336*
X037343Y028340*
X037347Y028344*
X037351Y028348*
X037354Y028352*
X037357Y028357*
X037360Y028362*
X037363Y028367*
X037365Y028372*
X037366Y028377*
X037368Y028383*
X037369Y028388*
X037369Y028394*
X037370Y028400*
X038370D02*
D01*
X038369Y028405*
X038369Y028411*
X038368Y028416*
X038366Y028422*
X038365Y028427*
X038363Y028432*
X038360Y028437*
X038357Y028442*
X038354Y028447*
X038351Y028451*
X038347Y028455*
X038343Y028459*
X038339Y028463*
X038334Y028466*
X038330Y028469*
X038325Y028471*
X038319Y028474*
X038314Y028476*
X038309Y028477*
X038303Y028478*
X038298Y028479*
X038292Y028479*
X038287*
X038281Y028479*
X038276Y028478*
X038270Y028477*
X038265Y028476*
X038260Y028474*
X038254Y028471*
X038250Y028469*
X038245Y028466*
X038240Y028463*
X038236Y028459*
X038232Y028455*
X038228Y028451*
X038225Y028447*
X038222Y028442*
X038219Y028437*
X038216Y028432*
X038214Y028427*
X038213Y028422*
X038211Y028416*
X038210Y028411*
X038210Y028405*
X038210Y028400*
X038210Y028394*
X038210Y028388*
X038211Y028383*
X038213Y028377*
X038214Y028372*
X038216Y028367*
X038219Y028362*
X038222Y028357*
X038225Y028352*
X038228Y028348*
X038232Y028344*
X038236Y028340*
X038240Y028336*
X038245Y028333*
X038250Y028330*
X038254Y028328*
X038260Y028325*
X038265Y028323*
X038270Y028322*
X038276Y028321*
X038281Y028320*
X038287Y028320*
X038292*
X038298Y028320*
X038303Y028321*
X038309Y028322*
X038314Y028323*
X038319Y028325*
X038325Y028328*
X038330Y028330*
X038334Y028333*
X038339Y028336*
X038343Y028340*
X038347Y028344*
X038351Y028348*
X038354Y028352*
X038357Y028357*
X038360Y028362*
X038363Y028367*
X038365Y028372*
X038366Y028377*
X038368Y028383*
X038369Y028388*
X038369Y028394*
X038370Y028400*
X039370D02*
D01*
X039369Y028405*
X039369Y028411*
X039368Y028416*
X039366Y028422*
X039365Y028427*
X039363Y028432*
X039360Y028437*
X039357Y028442*
X039354Y028447*
X039351Y028451*
X039347Y028455*
X039343Y028459*
X039339Y028463*
X039334Y028466*
X039330Y028469*
X039325Y028471*
X039319Y028474*
X039314Y028476*
X039309Y028477*
X039303Y028478*
X039298Y028479*
X039292Y028479*
X039287*
X039281Y028479*
X039276Y028478*
X039270Y028477*
X039265Y028476*
X039260Y028474*
X039254Y028471*
X039250Y028469*
X039245Y028466*
X039240Y028463*
X039236Y028459*
X039232Y028455*
X039228Y028451*
X039225Y028447*
X039222Y028442*
X039219Y028437*
X039216Y028432*
X039214Y028427*
X039213Y028422*
X039211Y028416*
X039210Y028411*
X039210Y028405*
X039210Y028400*
X039210Y028394*
X039210Y028388*
X039211Y028383*
X039213Y028377*
X039214Y028372*
X039216Y028367*
X039219Y028362*
X039222Y028357*
X039225Y028352*
X039228Y028348*
X039232Y028344*
X039236Y028340*
X039240Y028336*
X039245Y028333*
X039250Y028330*
X039254Y028328*
X039260Y028325*
X039265Y028323*
X039270Y028322*
X039276Y028321*
X039281Y028320*
X039287Y028320*
X039292*
X039298Y028320*
X039303Y028321*
X039309Y028322*
X039314Y028323*
X039319Y028325*
X039325Y028328*
X039330Y028330*
X039334Y028333*
X039339Y028336*
X039343Y028340*
X039347Y028344*
X039351Y028348*
X039354Y028352*
X039357Y028357*
X039360Y028362*
X039363Y028367*
X039365Y028372*
X039366Y028377*
X039368Y028383*
X039369Y028388*
X039369Y028394*
X039370Y028400*
X040370D02*
D01*
X040369Y028405*
X040369Y028411*
X040368Y028416*
X040366Y028422*
X040365Y028427*
X040363Y028432*
X040360Y028437*
X040357Y028442*
X040354Y028447*
X040351Y028451*
X040347Y028455*
X040343Y028459*
X040339Y028463*
X040334Y028466*
X040330Y028469*
X040325Y028471*
X040319Y028474*
X040314Y028476*
X040309Y028477*
X040303Y028478*
X040298Y028479*
X040292Y028479*
X040287*
X040281Y028479*
X040276Y028478*
X040270Y028477*
X040265Y028476*
X040260Y028474*
X040254Y028471*
X040250Y028469*
X040245Y028466*
X040240Y028463*
X040236Y028459*
X040232Y028455*
X040228Y028451*
X040225Y028447*
X040222Y028442*
X040219Y028437*
X040216Y028432*
X040214Y028427*
X040213Y028422*
X040211Y028416*
X040210Y028411*
X040210Y028405*
X040210Y028400*
X040210Y028394*
X040210Y028388*
X040211Y028383*
X040213Y028377*
X040214Y028372*
X040216Y028367*
X040219Y028362*
X040222Y028357*
X040225Y028352*
X040228Y028348*
X040232Y028344*
X040236Y028340*
X040240Y028336*
X040245Y028333*
X040250Y028330*
X040254Y028328*
X040260Y028325*
X040265Y028323*
X040270Y028322*
X040276Y028321*
X040281Y028320*
X040287Y028320*
X040292*
X040298Y028320*
X040303Y028321*
X040309Y028322*
X040314Y028323*
X040319Y028325*
X040325Y028328*
X040330Y028330*
X040334Y028333*
X040339Y028336*
X040343Y028340*
X040347Y028344*
X040351Y028348*
X040354Y028352*
X040357Y028357*
X040360Y028362*
X040363Y028367*
X040365Y028372*
X040366Y028377*
X040368Y028383*
X040369Y028388*
X040369Y028394*
X040370Y028400*
X030670Y034350D02*
D01*
X030669Y034355*
X030669Y034361*
X030668Y034366*
X030666Y034372*
X030665Y034377*
X030663Y034382*
X030660Y034387*
X030657Y034392*
X030654Y034397*
X030651Y034401*
X030647Y034405*
X030643Y034409*
X030639Y034413*
X030634Y034416*
X030630Y034419*
X030625Y034421*
X030619Y034424*
X030614Y034426*
X030609Y034427*
X030603Y034428*
X030598Y034429*
X030592Y034429*
X030587*
X030581Y034429*
X030576Y034428*
X030570Y034427*
X030565Y034426*
X030560Y034424*
X030554Y034421*
X030550Y034419*
X030545Y034416*
X030540Y034413*
X030536Y034409*
X030532Y034405*
X030528Y034401*
X030525Y034397*
X030522Y034392*
X030519Y034387*
X030516Y034382*
X030514Y034377*
X030513Y034372*
X030511Y034366*
X030510Y034361*
X030510Y034355*
X030510Y034350*
X030510Y034344*
X030510Y034338*
X030511Y034333*
X030513Y034327*
X030514Y034322*
X030516Y034317*
X030519Y034312*
X030522Y034307*
X030525Y034302*
X030528Y034298*
X030532Y034294*
X030536Y034290*
X030540Y034286*
X030545Y034283*
X030550Y034280*
X030554Y034278*
X030560Y034275*
X030565Y034273*
X030570Y034272*
X030576Y034271*
X030581Y034270*
X030587Y034270*
X030592*
X030598Y034270*
X030603Y034271*
X030609Y034272*
X030614Y034273*
X030619Y034275*
X030625Y034278*
X030630Y034280*
X030634Y034283*
X030639Y034286*
X030643Y034290*
X030647Y034294*
X030651Y034298*
X030654Y034302*
X030657Y034307*
X030660Y034312*
X030663Y034317*
X030665Y034322*
X030666Y034327*
X030668Y034333*
X030669Y034338*
X030669Y034344*
X030670Y034350*
Y033350D02*
D01*
X030669Y033355*
X030669Y033361*
X030668Y033366*
X030666Y033372*
X030665Y033377*
X030663Y033382*
X030660Y033387*
X030657Y033392*
X030654Y033397*
X030651Y033401*
X030647Y033405*
X030643Y033409*
X030639Y033413*
X030634Y033416*
X030630Y033419*
X030625Y033421*
X030619Y033424*
X030614Y033426*
X030609Y033427*
X030603Y033428*
X030598Y033429*
X030592Y033429*
X030587*
X030581Y033429*
X030576Y033428*
X030570Y033427*
X030565Y033426*
X030560Y033424*
X030554Y033421*
X030550Y033419*
X030545Y033416*
X030540Y033413*
X030536Y033409*
X030532Y033405*
X030528Y033401*
X030525Y033397*
X030522Y033392*
X030519Y033387*
X030516Y033382*
X030514Y033377*
X030513Y033372*
X030511Y033366*
X030510Y033361*
X030510Y033355*
X030510Y033350*
X030510Y033344*
X030510Y033338*
X030511Y033333*
X030513Y033327*
X030514Y033322*
X030516Y033317*
X030519Y033312*
X030522Y033307*
X030525Y033302*
X030528Y033298*
X030532Y033294*
X030536Y033290*
X030540Y033286*
X030545Y033283*
X030550Y033280*
X030554Y033278*
X030560Y033275*
X030565Y033273*
X030570Y033272*
X030576Y033271*
X030581Y033270*
X030587Y033270*
X030592*
X030598Y033270*
X030603Y033271*
X030609Y033272*
X030614Y033273*
X030619Y033275*
X030625Y033278*
X030630Y033280*
X030634Y033283*
X030639Y033286*
X030643Y033290*
X030647Y033294*
X030651Y033298*
X030654Y033302*
X030657Y033307*
X030660Y033312*
X030663Y033317*
X030665Y033322*
X030666Y033327*
X030668Y033333*
X030669Y033338*
X030669Y033344*
X030670Y033350*
Y032350D02*
D01*
X030669Y032355*
X030669Y032361*
X030668Y032366*
X030666Y032372*
X030665Y032377*
X030663Y032382*
X030660Y032387*
X030657Y032392*
X030654Y032397*
X030651Y032401*
X030647Y032405*
X030643Y032409*
X030639Y032413*
X030634Y032416*
X030630Y032419*
X030625Y032421*
X030619Y032424*
X030614Y032426*
X030609Y032427*
X030603Y032428*
X030598Y032429*
X030592Y032429*
X030587*
X030581Y032429*
X030576Y032428*
X030570Y032427*
X030565Y032426*
X030560Y032424*
X030554Y032421*
X030550Y032419*
X030545Y032416*
X030540Y032413*
X030536Y032409*
X030532Y032405*
X030528Y032401*
X030525Y032397*
X030522Y032392*
X030519Y032387*
X030516Y032382*
X030514Y032377*
X030513Y032372*
X030511Y032366*
X030510Y032361*
X030510Y032355*
X030510Y032350*
X030510Y032344*
X030510Y032338*
X030511Y032333*
X030513Y032327*
X030514Y032322*
X030516Y032317*
X030519Y032312*
X030522Y032307*
X030525Y032302*
X030528Y032298*
X030532Y032294*
X030536Y032290*
X030540Y032286*
X030545Y032283*
X030550Y032280*
X030554Y032278*
X030560Y032275*
X030565Y032273*
X030570Y032272*
X030576Y032271*
X030581Y032270*
X030587Y032270*
X030592*
X030598Y032270*
X030603Y032271*
X030609Y032272*
X030614Y032273*
X030619Y032275*
X030625Y032278*
X030630Y032280*
X030634Y032283*
X030639Y032286*
X030643Y032290*
X030647Y032294*
X030651Y032298*
X030654Y032302*
X030657Y032307*
X030660Y032312*
X030663Y032317*
X030665Y032322*
X030666Y032327*
X030668Y032333*
X030669Y032338*
X030669Y032344*
X030670Y032350*
Y031350D02*
D01*
X030669Y031355*
X030669Y031361*
X030668Y031366*
X030666Y031372*
X030665Y031377*
X030663Y031382*
X030660Y031387*
X030657Y031392*
X030654Y031397*
X030651Y031401*
X030647Y031405*
X030643Y031409*
X030639Y031413*
X030634Y031416*
X030630Y031419*
X030625Y031421*
X030619Y031424*
X030614Y031426*
X030609Y031427*
X030603Y031428*
X030598Y031429*
X030592Y031429*
X030587*
X030581Y031429*
X030576Y031428*
X030570Y031427*
X030565Y031426*
X030560Y031424*
X030554Y031421*
X030550Y031419*
X030545Y031416*
X030540Y031413*
X030536Y031409*
X030532Y031405*
X030528Y031401*
X030525Y031397*
X030522Y031392*
X030519Y031387*
X030516Y031382*
X030514Y031377*
X030513Y031372*
X030511Y031366*
X030510Y031361*
X030510Y031355*
X030510Y031350*
X030510Y031344*
X030510Y031338*
X030511Y031333*
X030513Y031327*
X030514Y031322*
X030516Y031317*
X030519Y031312*
X030522Y031307*
X030525Y031302*
X030528Y031298*
X030532Y031294*
X030536Y031290*
X030540Y031286*
X030545Y031283*
X030550Y031280*
X030554Y031278*
X030560Y031275*
X030565Y031273*
X030570Y031272*
X030576Y031271*
X030581Y031270*
X030587Y031270*
X030592*
X030598Y031270*
X030603Y031271*
X030609Y031272*
X030614Y031273*
X030619Y031275*
X030625Y031278*
X030630Y031280*
X030634Y031283*
X030639Y031286*
X030643Y031290*
X030647Y031294*
X030651Y031298*
X030654Y031302*
X030657Y031307*
X030660Y031312*
X030663Y031317*
X030665Y031322*
X030666Y031327*
X030668Y031333*
X030669Y031338*
X030669Y031344*
X030670Y031350*
Y030350D02*
D01*
X030669Y030355*
X030669Y030361*
X030668Y030366*
X030666Y030372*
X030665Y030377*
X030663Y030382*
X030660Y030387*
X030657Y030392*
X030654Y030397*
X030651Y030401*
X030647Y030405*
X030643Y030409*
X030639Y030413*
X030634Y030416*
X030630Y030419*
X030625Y030421*
X030619Y030424*
X030614Y030426*
X030609Y030427*
X030603Y030428*
X030598Y030429*
X030592Y030429*
X030587*
X030581Y030429*
X030576Y030428*
X030570Y030427*
X030565Y030426*
X030560Y030424*
X030554Y030421*
X030550Y030419*
X030545Y030416*
X030540Y030413*
X030536Y030409*
X030532Y030405*
X030528Y030401*
X030525Y030397*
X030522Y030392*
X030519Y030387*
X030516Y030382*
X030514Y030377*
X030513Y030372*
X030511Y030366*
X030510Y030361*
X030510Y030355*
X030510Y030350*
X030510Y030344*
X030510Y030338*
X030511Y030333*
X030513Y030327*
X030514Y030322*
X030516Y030317*
X030519Y030312*
X030522Y030307*
X030525Y030302*
X030528Y030298*
X030532Y030294*
X030536Y030290*
X030540Y030286*
X030545Y030283*
X030550Y030280*
X030554Y030278*
X030560Y030275*
X030565Y030273*
X030570Y030272*
X030576Y030271*
X030581Y030270*
X030587Y030270*
X030592*
X030598Y030270*
X030603Y030271*
X030609Y030272*
X030614Y030273*
X030619Y030275*
X030625Y030278*
X030630Y030280*
X030634Y030283*
X030639Y030286*
X030643Y030290*
X030647Y030294*
X030651Y030298*
X030654Y030302*
X030657Y030307*
X030660Y030312*
X030663Y030317*
X030665Y030322*
X030666Y030327*
X030668Y030333*
X030669Y030338*
X030669Y030344*
X030670Y030350*
Y029350D02*
D01*
X030669Y029355*
X030669Y029361*
X030668Y029366*
X030666Y029372*
X030665Y029377*
X030663Y029382*
X030660Y029387*
X030657Y029392*
X030654Y029397*
X030651Y029401*
X030647Y029405*
X030643Y029409*
X030639Y029413*
X030634Y029416*
X030630Y029419*
X030625Y029421*
X030619Y029424*
X030614Y029426*
X030609Y029427*
X030603Y029428*
X030598Y029429*
X030592Y029429*
X030587*
X030581Y029429*
X030576Y029428*
X030570Y029427*
X030565Y029426*
X030560Y029424*
X030554Y029421*
X030550Y029419*
X030545Y029416*
X030540Y029413*
X030536Y029409*
X030532Y029405*
X030528Y029401*
X030525Y029397*
X030522Y029392*
X030519Y029387*
X030516Y029382*
X030514Y029377*
X030513Y029372*
X030511Y029366*
X030510Y029361*
X030510Y029355*
X030510Y029350*
X030510Y029344*
X030510Y029338*
X030511Y029333*
X030513Y029327*
X030514Y029322*
X030516Y029317*
X030519Y029312*
X030522Y029307*
X030525Y029302*
X030528Y029298*
X030532Y029294*
X030536Y029290*
X030540Y029286*
X030545Y029283*
X030550Y029280*
X030554Y029278*
X030560Y029275*
X030565Y029273*
X030570Y029272*
X030576Y029271*
X030581Y029270*
X030587Y029270*
X030592*
X030598Y029270*
X030603Y029271*
X030609Y029272*
X030614Y029273*
X030619Y029275*
X030625Y029278*
X030630Y029280*
X030634Y029283*
X030639Y029286*
X030643Y029290*
X030647Y029294*
X030651Y029298*
X030654Y029302*
X030657Y029307*
X030660Y029312*
X030663Y029317*
X030665Y029322*
X030666Y029327*
X030668Y029333*
X030669Y029338*
X030669Y029344*
X030670Y029350*
Y028350D02*
D01*
X030669Y028355*
X030669Y028361*
X030668Y028366*
X030666Y028372*
X030665Y028377*
X030663Y028382*
X030660Y028387*
X030657Y028392*
X030654Y028397*
X030651Y028401*
X030647Y028405*
X030643Y028409*
X030639Y028413*
X030634Y028416*
X030630Y028419*
X030625Y028421*
X030619Y028424*
X030614Y028426*
X030609Y028427*
X030603Y028428*
X030598Y028429*
X030592Y028429*
X030587*
X030581Y028429*
X030576Y028428*
X030570Y028427*
X030565Y028426*
X030560Y028424*
X030554Y028421*
X030550Y028419*
X030545Y028416*
X030540Y028413*
X030536Y028409*
X030532Y028405*
X030528Y028401*
X030525Y028397*
X030522Y028392*
X030519Y028387*
X030516Y028382*
X030514Y028377*
X030513Y028372*
X030511Y028366*
X030510Y028361*
X030510Y028355*
X030510Y028350*
X030510Y028344*
X030510Y028338*
X030511Y028333*
X030513Y028327*
X030514Y028322*
X030516Y028317*
X030519Y028312*
X030522Y028307*
X030525Y028302*
X030528Y028298*
X030532Y028294*
X030536Y028290*
X030540Y028286*
X030545Y028283*
X030550Y028280*
X030554Y028278*
X030560Y028275*
X030565Y028273*
X030570Y028272*
X030576Y028271*
X030581Y028270*
X030587Y028270*
X030592*
X030598Y028270*
X030603Y028271*
X030609Y028272*
X030614Y028273*
X030619Y028275*
X030625Y028278*
X030630Y028280*
X030634Y028283*
X030639Y028286*
X030643Y028290*
X030647Y028294*
X030651Y028298*
X030654Y028302*
X030657Y028307*
X030660Y028312*
X030663Y028317*
X030665Y028322*
X030666Y028327*
X030668Y028333*
X030669Y028338*
X030669Y028344*
X030670Y028350*
Y027350D02*
D01*
X030669Y027355*
X030669Y027361*
X030668Y027366*
X030666Y027372*
X030665Y027377*
X030663Y027382*
X030660Y027387*
X030657Y027392*
X030654Y027397*
X030651Y027401*
X030647Y027405*
X030643Y027409*
X030639Y027413*
X030634Y027416*
X030630Y027419*
X030625Y027421*
X030619Y027424*
X030614Y027426*
X030609Y027427*
X030603Y027428*
X030598Y027429*
X030592Y027429*
X030587*
X030581Y027429*
X030576Y027428*
X030570Y027427*
X030565Y027426*
X030560Y027424*
X030554Y027421*
X030550Y027419*
X030545Y027416*
X030540Y027413*
X030536Y027409*
X030532Y027405*
X030528Y027401*
X030525Y027397*
X030522Y027392*
X030519Y027387*
X030516Y027382*
X030514Y027377*
X030513Y027372*
X030511Y027366*
X030510Y027361*
X030510Y027355*
X030510Y027350*
X030510Y027344*
X030510Y027338*
X030511Y027333*
X030513Y027327*
X030514Y027322*
X030516Y027317*
X030519Y027312*
X030522Y027307*
X030525Y027302*
X030528Y027298*
X030532Y027294*
X030536Y027290*
X030540Y027286*
X030545Y027283*
X030550Y027280*
X030554Y027278*
X030560Y027275*
X030565Y027273*
X030570Y027272*
X030576Y027271*
X030581Y027270*
X030587Y027270*
X030592*
X030598Y027270*
X030603Y027271*
X030609Y027272*
X030614Y027273*
X030619Y027275*
X030625Y027278*
X030630Y027280*
X030634Y027283*
X030639Y027286*
X030643Y027290*
X030647Y027294*
X030651Y027298*
X030654Y027302*
X030657Y027307*
X030660Y027312*
X030663Y027317*
X030665Y027322*
X030666Y027327*
X030668Y027333*
X030669Y027338*
X030669Y027344*
X030670Y027350*
M02*