M48
;Layer_Color=9474304
;FILE_FORMAT=2:5
INCH,TZ
;TYPE=PLATED
T1F00S00C0.02000
T2F00S00C0.02362
T3F00S00C0.03000
T4F00S00C0.03937
T5F00S00C0.04000
T6F00S00C0.12500
%
T01
X-365500Y30000
Y40000
X-357500Y44500
X-349500Y40000
Y30000
X-357500Y25500
X-28000Y25000
Y15000
X-20000Y10500
X-12000Y15000
Y25000
X-20000Y29500
X-38000Y161000
X-47361Y160861
X-47500Y213500
X-121000Y212500
X-111500Y188500
X-131500Y77500
X-182500Y71500
X-193000
X-202899Y63359
X-212500Y71500
X-263500Y93700
X-265500Y107500
X-309000Y117500
X-312500Y126500
X-301000Y131000
X-294500Y137000
X-349500Y320000
Y330000
X-357500Y334500
X-365500Y330000
Y320000
X-357500Y315500
X-116000Y217500
X-64000Y234500
X-37780Y221721
X-28000Y330000
Y340000
X-20000Y344500
X-12000Y340000
Y330000
X-20000Y325500
T02
X-270000Y41732
Y50000
X-250000
Y41732
X-270000Y61732
Y70000
T03
X-257500Y57500
X-227500
Y77500
X-257500
X-292500Y80500
X-302500
X-312500
Y64700
X-302500
X-292500
T04
X-155000Y90500
X-145000
X-135000
X-165000
X-175000
T05
X-357500Y55000
X-347500
X-337500
X-327500
Y42500
X-337500
X-317500
X-307500
X-297500
X-287500
X-154500Y112000
X-144500
X-134500
Y172000
X-144500
X-154500
X-105000Y161000
X-95000
X-85000
X-75000
X-65000
X-55000
X-164500Y172000
X-174500
X-184500
X-194500
X-204500
X-214500
X-224500
X-234500
X-244500
X-254500Y167000
Y157000
Y147000
Y137000
Y127000
Y117000
X-244500Y112000
X-234500
X-224500
X-214500
X-204500
X-194500
X-184500
X-174500
X-164500
X-200000Y160500
X-210000
X-327500Y165000
Y155000
Y145000
Y135000
Y125000
Y115000
Y105000
Y95000
Y85000
Y75000
Y65000
X-337500
Y75000
Y85000
Y95000
Y105000
Y115000
Y125000
Y135000
Y145000
Y155000
Y165000
Y175000
X-327500
Y185000
X-337500
Y195000
X-327500
Y205000
X-337500
Y215000
X-327500
X-347500
Y205000
Y195000
Y185000
Y175000
Y165000
Y155000
Y145000
Y135000
Y125000
Y115000
Y105000
Y95000
Y85000
Y75000
Y65000
X-357500
Y75000
Y85000
Y95000
Y105000
Y115000
Y125000
Y135000
Y145000
Y155000
Y165000
Y175000
Y185000
Y195000
Y205000
Y215000
Y225000
X-347500
X-337500
X-327500
Y235000
X-337500
Y245000
X-327500
Y255000
X-337500
Y265000
X-327500
Y275000
X-337500
Y285000
X-327500
Y295000
X-337500
Y305000
X-327500
X-347500
Y295000
Y285000
Y275000
Y265000
Y255000
Y245000
Y235000
X-357500
Y245000
Y255000
Y265000
Y275000
Y285000
Y295000
Y305000
X-254500Y251000
X-244500
X-234500
X-224500
X-214500
X-204500
X-194500
X-184500
X-170500Y256000
X-171000Y238000
X-161000
X-151000
X-141000
X-131000
X-121000
X-111000
X-101000
X-91000
X-160500Y256000
T06
X-357500Y35000
X-20000Y20000
X-357500Y325000
X-20000Y335000
M30
