G04 Layer_Physical_Order=1*
G04 Layer_Color=255*
%FSLAX25Y25*%
%MOIN*%
G70*
G01*
G75*
%ADD10R,0.04000X0.05000*%
%ADD11R,0.05000X0.04000*%
%ADD12O,0.05118X0.01575*%
%ADD13C,0.03000*%
%ADD14C,0.01000*%
%ADD15C,0.04000*%
%ADD16C,0.08000*%
%ADD17R,0.07000X0.07000*%
%ADD18C,0.07000*%
%ADD19C,0.08000*%
%ADD20C,0.07874*%
%ADD21C,0.04724*%
%ADD22C,0.06000*%
%ADD23R,0.08000X0.08000*%
%ADD24R,0.08000X0.08000*%
%ADD25C,0.04000*%
%ADD26C,0.25000*%
D10*
X-59000Y234500D02*
D03*
X-51000D02*
D03*
X-193000Y265500D02*
D03*
X-185000D02*
D03*
D11*
X-79000Y225500D02*
D03*
Y217500D02*
D03*
X-70500Y225500D02*
D03*
Y217500D02*
D03*
X-40500Y227500D02*
D03*
Y235500D02*
D03*
X-207500Y59500D02*
D03*
Y67500D02*
D03*
X-197500Y59500D02*
D03*
Y67500D02*
D03*
X-187500Y59500D02*
D03*
Y67500D02*
D03*
X-217500Y59500D02*
D03*
Y67500D02*
D03*
X-207500Y77500D02*
D03*
Y85500D02*
D03*
X-32000Y235500D02*
D03*
Y227500D02*
D03*
X-217500Y77500D02*
D03*
Y85500D02*
D03*
X-337500Y327000D02*
D03*
Y319000D02*
D03*
X-327500Y327000D02*
D03*
Y319000D02*
D03*
X-23500Y235500D02*
D03*
Y227500D02*
D03*
D12*
X-47232Y219161D02*
D03*
Y221721D02*
D03*
Y224279D02*
D03*
Y226839D02*
D03*
X-63768Y219161D02*
D03*
Y221721D02*
D03*
Y224279D02*
D03*
Y226839D02*
D03*
D13*
X-160500Y256000D02*
X-109000D01*
X-175500Y251000D02*
X-170500Y256000D01*
X-184500Y251000D02*
X-175500D01*
X-184500D02*
Y265000D01*
X-260000Y188500D02*
X-111500D01*
X-318000Y130500D02*
X-260000Y188500D01*
X-204000Y182500D02*
X-86500D01*
X-214500Y172000D02*
X-204000Y182500D01*
X-86500D02*
X-65000Y161000D01*
X-276532Y55200D02*
X-270000Y61732D01*
X-303000Y55200D02*
X-276532D01*
X-312500Y64700D02*
X-303000Y55200D01*
X-217500Y67500D02*
Y77500D01*
X-207500D01*
X-227500D02*
X-217500D01*
X-257500D02*
X-227500D01*
X-271922D02*
X-257500D01*
X-290222Y59200D02*
X-271922Y77500D01*
X-297000Y59200D02*
X-290222D01*
X-302500Y64700D02*
X-297000Y59200D01*
X-327500Y305000D02*
Y319000D01*
X-337500Y305000D02*
Y319000D01*
Y327000D02*
X-327500D01*
X-355500D02*
X-337500D01*
X-312500Y64700D02*
Y80500D01*
X-294500Y137000D02*
X-265000Y107500D01*
X-301000Y131000D02*
X-264000Y94000D01*
X-318000Y96000D02*
X-302500Y80500D01*
X-318000Y96000D02*
Y130500D01*
X-109000Y256000D02*
X-91000Y238000D01*
X-207500Y77500D02*
X-131500D01*
D14*
X-147000Y179500D02*
X-93500D01*
X-154500Y172000D02*
X-147000Y179500D01*
X-139000Y177500D02*
X-101500D01*
X-144500Y172000D02*
X-139000Y177500D01*
X-327500Y235000D02*
X-299500Y207000D01*
X-54000D01*
X-47500Y213500D01*
X-327500Y245000D02*
X-291500Y209000D01*
X-68923D01*
X-56202Y221721D01*
X-47232D01*
X-19500Y206500D02*
Y231500D01*
X-121000Y212500D02*
X-75500D01*
X-116000Y217500D02*
X-79000D01*
X-49339Y219161D02*
X-47232D01*
X-65000Y161000D02*
X-19500Y206500D01*
X-75500Y212500D02*
X-70500Y217500D01*
X-47232Y224279D02*
Y226839D01*
X-64000Y227071D02*
Y234500D01*
X-59000D01*
X-214500Y251000D02*
Y253500D01*
X-79000Y217500D02*
X-74779Y221721D01*
X-63768D01*
X-70500Y217500D02*
X-68839Y219161D01*
X-63768D01*
Y226839D02*
X-61661D01*
X-41161D02*
X-40500Y227500D01*
X-47232Y226839D02*
X-41161D01*
X-51000Y234500D02*
X-47232Y230732D01*
Y226839D02*
Y230732D01*
X-63768Y224279D02*
X-61279D01*
X-59709Y222709D01*
X-327500Y245000D02*
X-327000Y245500D01*
X-271500Y85500D02*
X-217500D01*
X-273500Y82000D02*
X-211000D01*
X-207500Y85500D01*
X-93500Y179500D02*
X-75000Y161000D01*
X-101500Y177500D02*
X-85000Y161000D01*
X-100500Y166500D02*
X-95000Y161000D01*
X-159000Y166500D02*
X-100500D01*
X-164500Y172000D02*
X-159000Y166500D01*
X-174500Y172000D02*
X-163500Y161000D01*
X-105000D01*
X-217500Y99000D02*
X-204500Y112000D01*
X-207500Y99000D02*
X-194500Y112000D01*
X-187500Y67500D02*
X-186500D01*
X-182500Y71500D01*
X-197500Y67500D02*
X-197000D01*
X-193000Y71500D01*
X-207500Y85500D02*
Y99000D01*
X-217500Y85500D02*
Y99000D01*
X-327500Y42500D02*
X-326500D01*
X-220500Y62500D02*
X-217500Y59500D01*
X-262500Y62500D02*
X-220500D01*
X-270000Y70000D02*
X-262500Y62500D01*
X-208500Y67500D02*
X-207500D01*
X-212500Y71500D02*
X-208500Y67500D01*
X-227500Y57500D02*
X-222121D01*
X-220621Y56000D01*
X-211000D01*
X-207500Y59500D01*
X-270000Y50000D02*
X-266138Y46138D01*
X-200862D02*
X-187500Y59500D01*
X-266138Y46138D02*
X-200862D01*
X-250000Y50000D02*
X-207000D01*
X-197500Y59500D01*
X-312500Y126500D02*
X-271500Y85500D01*
X-309000Y117500D02*
X-273500Y82000D01*
X-204500Y251000D02*
X-198500Y245000D01*
X-128000D01*
X-121000Y238000D01*
X-214500Y251000D02*
X-196000Y232500D01*
X-116500D01*
X-111000Y238000D01*
X-69279Y224279D02*
X-63768D01*
X-70500Y225500D02*
X-69279Y224279D01*
X-79000Y225500D02*
X-70500D01*
X-91000Y238000D02*
X-78500Y225500D01*
X-194500Y155000D02*
X-53222D01*
X-200000Y160500D02*
X-194500Y155000D01*
X-210000Y160500D02*
X-202500Y153000D01*
X-206757Y59500D02*
X-202899Y63359D01*
X-40500Y235500D02*
X-32000D01*
X-23500D01*
X-37780Y221721D02*
X-32000Y227500D01*
X-47232Y221721D02*
X-37780D01*
X-37500Y213500D02*
X-23500Y227500D01*
X-202500Y153000D02*
X-46000D01*
X-38000Y161000D01*
X-53222Y155000D02*
X-47361Y160861D01*
X-47500Y213500D02*
Y218894D01*
Y213500D02*
X-37500D01*
X-23500Y235500D02*
X-19500Y231500D01*
D15*
X-194500Y251000D02*
X-193000Y252500D01*
Y265500D01*
D16*
X-357500Y195000D02*
X-347500D01*
D17*
X-160500Y256000D02*
D03*
D18*
X-170500Y256000D02*
D03*
D19*
X-121000Y238000D02*
D03*
X-111000D02*
D03*
X-171000D02*
D03*
X-161000D02*
D03*
X-91000D02*
D03*
X-101000D02*
D03*
X-151000D02*
D03*
X-141000D02*
D03*
X-131000D02*
D03*
X-65000Y161000D02*
D03*
X-55000D02*
D03*
X-75000D02*
D03*
X-85000D02*
D03*
X-95000D02*
D03*
X-105000D02*
D03*
X-164500Y172000D02*
D03*
X-154500D02*
D03*
X-174500D02*
D03*
X-134500D02*
D03*
X-144500D02*
D03*
X-194500D02*
D03*
X-184500D02*
D03*
X-204500D02*
D03*
X-200000Y160500D02*
D03*
X-210000D02*
D03*
X-134500Y112000D02*
D03*
X-144500D02*
D03*
X-154500D02*
D03*
X-164500D02*
D03*
X-194500D02*
D03*
X-204500D02*
D03*
X-174500D02*
D03*
X-184500D02*
D03*
X-234500Y172000D02*
D03*
X-214500D02*
D03*
X-224500D02*
D03*
X-244500D02*
D03*
X-254500Y167000D02*
D03*
Y147000D02*
D03*
Y157000D02*
D03*
X-234500Y112000D02*
D03*
X-224500D02*
D03*
X-244500D02*
D03*
X-214500D02*
D03*
X-254500Y137000D02*
D03*
Y117000D02*
D03*
Y127000D02*
D03*
X-194500Y251000D02*
D03*
X-184500D02*
D03*
X-224500D02*
D03*
X-204500D02*
D03*
X-214500D02*
D03*
X-234500D02*
D03*
X-244500D02*
D03*
X-254500D02*
D03*
X-307500Y42500D02*
D03*
X-297500D02*
D03*
X-317500D02*
D03*
X-327500D02*
D03*
X-337500D02*
D03*
Y55000D02*
D03*
X-327500Y65000D02*
D03*
X-337500D02*
D03*
X-327500Y75000D02*
D03*
X-337500D02*
D03*
X-327500Y85000D02*
D03*
X-337500D02*
D03*
X-327500Y95000D02*
D03*
X-337500D02*
D03*
X-327500Y105000D02*
D03*
X-337500D02*
D03*
X-327500Y115000D02*
D03*
X-337500D02*
D03*
X-327500Y125000D02*
D03*
X-337500D02*
D03*
X-327500Y135000D02*
D03*
X-337500D02*
D03*
X-327500Y145000D02*
D03*
X-337500D02*
D03*
X-327500Y155000D02*
D03*
X-337500D02*
D03*
X-327500Y165000D02*
D03*
X-337500D02*
D03*
X-327500Y175000D02*
D03*
X-337500D02*
D03*
X-327500Y185000D02*
D03*
X-337500D02*
D03*
X-327500Y195000D02*
D03*
X-337500D02*
D03*
X-327500Y205000D02*
D03*
X-337500D02*
D03*
X-327500Y215000D02*
D03*
X-337500D02*
D03*
X-327500Y225000D02*
D03*
X-337500D02*
D03*
X-327500Y235000D02*
D03*
X-337500D02*
D03*
X-327500Y245000D02*
D03*
X-337500D02*
D03*
X-327500Y255000D02*
D03*
X-337500D02*
D03*
X-327500Y265000D02*
D03*
X-337500D02*
D03*
X-327500Y275000D02*
D03*
X-337500D02*
D03*
X-327500Y285000D02*
D03*
X-337500D02*
D03*
X-327500Y295000D02*
D03*
X-337500D02*
D03*
Y305000D02*
D03*
X-327500D02*
D03*
X-357500Y55000D02*
D03*
X-347500Y65000D02*
D03*
X-357500D02*
D03*
X-347500Y75000D02*
D03*
X-357500D02*
D03*
X-347500Y85000D02*
D03*
X-357500D02*
D03*
X-347500Y95000D02*
D03*
X-357500D02*
D03*
X-347500Y105000D02*
D03*
X-357500D02*
D03*
X-347500Y115000D02*
D03*
X-357500D02*
D03*
X-347500Y125000D02*
D03*
X-357500D02*
D03*
X-347500Y135000D02*
D03*
X-357500D02*
D03*
X-347500Y145000D02*
D03*
X-357500D02*
D03*
X-347500Y155000D02*
D03*
X-357500D02*
D03*
X-347500Y165000D02*
D03*
X-357500D02*
D03*
X-347500Y175000D02*
D03*
X-357500D02*
D03*
X-347500Y185000D02*
D03*
X-357500D02*
D03*
X-347500Y195000D02*
D03*
X-357500D02*
D03*
X-347500Y205000D02*
D03*
X-357500D02*
D03*
X-347500Y215000D02*
D03*
X-357500D02*
D03*
X-347500Y225000D02*
D03*
X-357500D02*
D03*
X-347500Y235000D02*
D03*
X-357500D02*
D03*
X-347500Y245000D02*
D03*
X-357500D02*
D03*
X-347500Y255000D02*
D03*
X-357500D02*
D03*
X-347500Y265000D02*
D03*
X-357500D02*
D03*
X-347500Y275000D02*
D03*
X-357500D02*
D03*
X-347500Y285000D02*
D03*
X-357500D02*
D03*
X-347500Y295000D02*
D03*
X-357500D02*
D03*
Y305000D02*
D03*
X-347500D02*
D03*
D20*
X-175000Y90500D02*
D03*
X-165000D02*
D03*
X-155000D02*
D03*
X-145000D02*
D03*
X-135000D02*
D03*
D21*
X-270000Y70000D02*
D03*
Y61732D02*
D03*
X-250000Y50000D02*
D03*
Y41732D02*
D03*
X-270000Y50000D02*
D03*
Y41732D02*
D03*
D22*
X-227500Y77500D02*
D03*
Y57500D02*
D03*
X-257500Y77500D02*
D03*
Y57500D02*
D03*
X-292500Y64700D02*
D03*
X-302500D02*
D03*
X-312500D02*
D03*
X-292500Y80500D02*
D03*
X-302500D02*
D03*
X-312500D02*
D03*
D23*
X-287500Y42500D02*
D03*
D24*
X-327500Y55000D02*
D03*
X-347500D02*
D03*
D25*
X-20000Y344500D02*
D03*
Y325500D02*
D03*
X-28000Y340000D02*
D03*
Y330000D02*
D03*
X-12000Y340000D02*
D03*
Y330000D02*
D03*
X-357500Y334500D02*
D03*
Y315500D02*
D03*
X-365500Y330000D02*
D03*
Y320000D02*
D03*
X-349500Y330000D02*
D03*
Y320000D02*
D03*
X-20000Y29500D02*
D03*
Y10500D02*
D03*
X-28000Y25000D02*
D03*
Y15000D02*
D03*
X-12000Y25000D02*
D03*
Y15000D02*
D03*
X-349500Y30000D02*
D03*
Y40000D02*
D03*
X-365500Y30000D02*
D03*
Y40000D02*
D03*
X-357500Y25500D02*
D03*
Y44500D02*
D03*
X-111500Y188500D02*
D03*
X-38000Y161000D02*
D03*
X-47361Y160861D02*
D03*
X-121000Y212500D02*
D03*
X-116000Y217500D02*
D03*
X-64000Y234500D02*
D03*
X-309000Y117500D02*
D03*
X-312500Y126500D02*
D03*
X-212500Y71500D02*
D03*
X-294500Y137000D02*
D03*
X-301000Y131000D02*
D03*
X-265500Y107500D02*
D03*
X-263500Y93700D02*
D03*
X-182500Y71500D02*
D03*
X-193000D02*
D03*
X-202899Y63359D02*
D03*
X-37780Y221721D02*
D03*
X-47500Y213500D02*
D03*
X-131500Y77500D02*
D03*
D26*
X-357500Y35000D02*
D03*
Y325000D02*
D03*
X-20000Y335000D02*
D03*
Y20000D02*
D03*
M02*
