G04 Layer_Color=255*
%FSLAX25Y25*%
%MOIN*%
G70*
G01*
G75*
%ADD17R,0.07000X0.07000*%
%ADD18C,0.07000*%
%ADD19C,0.08000*%
%ADD20C,0.07874*%
%ADD21C,0.04724*%
%ADD22C,0.06000*%
%ADD23R,0.08000X0.08000*%
%ADD24R,0.08000X0.08000*%
D17*
X-160500Y256000D02*
D03*
D18*
X-170500Y256000D02*
D03*
D19*
X-121000Y238000D02*
D03*
X-111000D02*
D03*
X-171000D02*
D03*
X-161000D02*
D03*
X-91000D02*
D03*
X-101000D02*
D03*
X-151000D02*
D03*
X-141000D02*
D03*
X-131000D02*
D03*
X-65000Y161000D02*
D03*
X-55000D02*
D03*
X-75000D02*
D03*
X-85000D02*
D03*
X-95000D02*
D03*
X-105000D02*
D03*
X-164500Y172000D02*
D03*
X-154500D02*
D03*
X-174500D02*
D03*
X-134500D02*
D03*
X-144500D02*
D03*
X-194500D02*
D03*
X-184500D02*
D03*
X-204500D02*
D03*
X-200000Y160500D02*
D03*
X-210000D02*
D03*
X-134500Y112000D02*
D03*
X-144500D02*
D03*
X-154500D02*
D03*
X-164500D02*
D03*
X-194500D02*
D03*
X-204500D02*
D03*
X-174500D02*
D03*
X-184500D02*
D03*
X-234500Y172000D02*
D03*
X-214500D02*
D03*
X-224500D02*
D03*
X-244500D02*
D03*
X-254500Y167000D02*
D03*
Y147000D02*
D03*
Y157000D02*
D03*
X-234500Y112000D02*
D03*
X-224500D02*
D03*
X-244500D02*
D03*
X-214500D02*
D03*
X-254500Y137000D02*
D03*
Y117000D02*
D03*
Y127000D02*
D03*
X-194500Y251000D02*
D03*
X-184500D02*
D03*
X-224500D02*
D03*
X-204500D02*
D03*
X-214500D02*
D03*
X-234500D02*
D03*
X-244500D02*
D03*
X-254500D02*
D03*
X-307500Y42500D02*
D03*
X-297500D02*
D03*
X-317500D02*
D03*
X-327500D02*
D03*
X-337500D02*
D03*
Y55000D02*
D03*
X-327500Y65000D02*
D03*
X-337500D02*
D03*
X-327500Y75000D02*
D03*
X-337500D02*
D03*
X-327500Y85000D02*
D03*
X-337500D02*
D03*
X-327500Y95000D02*
D03*
X-337500D02*
D03*
X-327500Y105000D02*
D03*
X-337500D02*
D03*
X-327500Y115000D02*
D03*
X-337500D02*
D03*
X-327500Y125000D02*
D03*
X-337500D02*
D03*
X-327500Y135000D02*
D03*
X-337500D02*
D03*
X-327500Y145000D02*
D03*
X-337500D02*
D03*
X-327500Y155000D02*
D03*
X-337500D02*
D03*
X-327500Y165000D02*
D03*
X-337500D02*
D03*
X-327500Y175000D02*
D03*
X-337500D02*
D03*
X-327500Y185000D02*
D03*
X-337500D02*
D03*
X-327500Y195000D02*
D03*
X-337500D02*
D03*
X-327500Y205000D02*
D03*
X-337500D02*
D03*
X-327500Y215000D02*
D03*
X-337500D02*
D03*
X-327500Y225000D02*
D03*
X-337500D02*
D03*
X-327500Y235000D02*
D03*
X-337500D02*
D03*
X-327500Y245000D02*
D03*
X-337500D02*
D03*
X-327500Y255000D02*
D03*
X-337500D02*
D03*
X-327500Y265000D02*
D03*
X-337500D02*
D03*
X-327500Y275000D02*
D03*
X-337500D02*
D03*
X-327500Y285000D02*
D03*
X-337500D02*
D03*
X-327500Y295000D02*
D03*
X-337500D02*
D03*
Y305000D02*
D03*
X-327500D02*
D03*
X-357500Y55000D02*
D03*
X-347500Y65000D02*
D03*
X-357500D02*
D03*
X-347500Y75000D02*
D03*
X-357500D02*
D03*
X-347500Y85000D02*
D03*
X-357500D02*
D03*
X-347500Y95000D02*
D03*
X-357500D02*
D03*
X-347500Y105000D02*
D03*
X-357500D02*
D03*
X-347500Y115000D02*
D03*
X-357500D02*
D03*
X-347500Y125000D02*
D03*
X-357500D02*
D03*
X-347500Y135000D02*
D03*
X-357500D02*
D03*
X-347500Y145000D02*
D03*
X-357500D02*
D03*
X-347500Y155000D02*
D03*
X-357500D02*
D03*
X-347500Y165000D02*
D03*
X-357500D02*
D03*
X-347500Y175000D02*
D03*
X-357500D02*
D03*
X-347500Y185000D02*
D03*
X-357500D02*
D03*
X-347500Y195000D02*
D03*
X-357500D02*
D03*
X-347500Y205000D02*
D03*
X-357500D02*
D03*
X-347500Y215000D02*
D03*
X-357500D02*
D03*
X-347500Y225000D02*
D03*
X-357500D02*
D03*
X-347500Y235000D02*
D03*
X-357500D02*
D03*
X-347500Y245000D02*
D03*
X-357500D02*
D03*
X-347500Y255000D02*
D03*
X-357500D02*
D03*
X-347500Y265000D02*
D03*
X-357500D02*
D03*
X-347500Y275000D02*
D03*
X-357500D02*
D03*
X-347500Y285000D02*
D03*
X-357500D02*
D03*
X-347500Y295000D02*
D03*
X-357500D02*
D03*
Y305000D02*
D03*
X-347500D02*
D03*
D20*
X-175000Y90500D02*
D03*
X-165000D02*
D03*
X-155000D02*
D03*
X-145000D02*
D03*
X-135000D02*
D03*
D21*
X-270000Y70000D02*
D03*
Y61732D02*
D03*
X-250000Y50000D02*
D03*
Y41732D02*
D03*
X-270000Y50000D02*
D03*
Y41732D02*
D03*
D22*
X-227500Y77500D02*
D03*
Y57500D02*
D03*
X-257500Y77500D02*
D03*
Y57500D02*
D03*
X-292500Y64700D02*
D03*
X-302500D02*
D03*
X-312500D02*
D03*
X-292500Y80500D02*
D03*
X-302500D02*
D03*
X-312500D02*
D03*
D23*
X-287500Y42500D02*
D03*
D24*
X-327500Y55000D02*
D03*
X-347500D02*
D03*
M02*
