G04 Layer_Color=16711935*
%FSLAX25Y25*%
%MOIN*%
G70*
G01*
G75*
%ADD36R,0.07800X0.07800*%
%ADD37C,0.07800*%
%ADD38C,0.08800*%
%ADD39C,0.08674*%
%ADD40C,0.05524*%
%ADD41C,0.06800*%
%ADD42R,0.08800X0.08800*%
%ADD43R,0.08800X0.08800*%
%ADD44C,0.04800*%
%ADD45C,0.25800*%
D36*
X-160500Y256000D02*
D03*
D37*
X-170500Y256000D02*
D03*
D38*
X-121000Y238000D02*
D03*
X-111000D02*
D03*
X-171000D02*
D03*
X-161000D02*
D03*
X-91000D02*
D03*
X-101000D02*
D03*
X-151000D02*
D03*
X-141000D02*
D03*
X-131000D02*
D03*
X-65000Y161000D02*
D03*
X-55000D02*
D03*
X-75000D02*
D03*
X-85000D02*
D03*
X-95000D02*
D03*
X-105000D02*
D03*
X-164500Y172000D02*
D03*
X-154500D02*
D03*
X-174500D02*
D03*
X-134500D02*
D03*
X-144500D02*
D03*
X-194500D02*
D03*
X-184500D02*
D03*
X-204500D02*
D03*
X-200000Y160500D02*
D03*
X-210000D02*
D03*
X-134500Y112000D02*
D03*
X-144500D02*
D03*
X-154500D02*
D03*
X-164500D02*
D03*
X-194500D02*
D03*
X-204500D02*
D03*
X-174500D02*
D03*
X-184500D02*
D03*
X-234500Y172000D02*
D03*
X-214500D02*
D03*
X-224500D02*
D03*
X-244500D02*
D03*
X-254500Y167000D02*
D03*
Y147000D02*
D03*
Y157000D02*
D03*
X-234500Y112000D02*
D03*
X-224500D02*
D03*
X-244500D02*
D03*
X-214500D02*
D03*
X-254500Y137000D02*
D03*
Y117000D02*
D03*
Y127000D02*
D03*
X-194500Y251000D02*
D03*
X-184500D02*
D03*
X-224500D02*
D03*
X-204500D02*
D03*
X-214500D02*
D03*
X-234500D02*
D03*
X-244500D02*
D03*
X-254500D02*
D03*
X-307500Y42500D02*
D03*
X-297500D02*
D03*
X-317500D02*
D03*
X-327500D02*
D03*
X-337500D02*
D03*
Y55000D02*
D03*
X-327500Y65000D02*
D03*
X-337500D02*
D03*
X-327500Y75000D02*
D03*
X-337500D02*
D03*
X-327500Y85000D02*
D03*
X-337500D02*
D03*
X-327500Y95000D02*
D03*
X-337500D02*
D03*
X-327500Y105000D02*
D03*
X-337500D02*
D03*
X-327500Y115000D02*
D03*
X-337500D02*
D03*
X-327500Y125000D02*
D03*
X-337500D02*
D03*
X-327500Y135000D02*
D03*
X-337500D02*
D03*
X-327500Y145000D02*
D03*
X-337500D02*
D03*
X-327500Y155000D02*
D03*
X-337500D02*
D03*
X-327500Y165000D02*
D03*
X-337500D02*
D03*
X-327500Y175000D02*
D03*
X-337500D02*
D03*
X-327500Y185000D02*
D03*
X-337500D02*
D03*
X-327500Y195000D02*
D03*
X-337500D02*
D03*
X-327500Y205000D02*
D03*
X-337500D02*
D03*
X-327500Y215000D02*
D03*
X-337500D02*
D03*
X-327500Y225000D02*
D03*
X-337500D02*
D03*
X-327500Y235000D02*
D03*
X-337500D02*
D03*
X-327500Y245000D02*
D03*
X-337500D02*
D03*
X-327500Y255000D02*
D03*
X-337500D02*
D03*
X-327500Y265000D02*
D03*
X-337500D02*
D03*
X-327500Y275000D02*
D03*
X-337500D02*
D03*
X-327500Y285000D02*
D03*
X-337500D02*
D03*
X-327500Y295000D02*
D03*
X-337500D02*
D03*
Y305000D02*
D03*
X-327500D02*
D03*
X-357500Y55000D02*
D03*
X-347500Y65000D02*
D03*
X-357500D02*
D03*
X-347500Y75000D02*
D03*
X-357500D02*
D03*
X-347500Y85000D02*
D03*
X-357500D02*
D03*
X-347500Y95000D02*
D03*
X-357500D02*
D03*
X-347500Y105000D02*
D03*
X-357500D02*
D03*
X-347500Y115000D02*
D03*
X-357500D02*
D03*
X-347500Y125000D02*
D03*
X-357500D02*
D03*
X-347500Y135000D02*
D03*
X-357500D02*
D03*
X-347500Y145000D02*
D03*
X-357500D02*
D03*
X-347500Y155000D02*
D03*
X-357500D02*
D03*
X-347500Y165000D02*
D03*
X-357500D02*
D03*
X-347500Y175000D02*
D03*
X-357500D02*
D03*
X-347500Y185000D02*
D03*
X-357500D02*
D03*
X-347500Y195000D02*
D03*
X-357500D02*
D03*
X-347500Y205000D02*
D03*
X-357500D02*
D03*
X-347500Y215000D02*
D03*
X-357500D02*
D03*
X-347500Y225000D02*
D03*
X-357500D02*
D03*
X-347500Y235000D02*
D03*
X-357500D02*
D03*
X-347500Y245000D02*
D03*
X-357500D02*
D03*
X-347500Y255000D02*
D03*
X-357500D02*
D03*
X-347500Y265000D02*
D03*
X-357500D02*
D03*
X-347500Y275000D02*
D03*
X-357500D02*
D03*
X-347500Y285000D02*
D03*
X-357500D02*
D03*
X-347500Y295000D02*
D03*
X-357500D02*
D03*
Y305000D02*
D03*
X-347500D02*
D03*
D39*
X-175000Y90500D02*
D03*
X-165000D02*
D03*
X-155000D02*
D03*
X-145000D02*
D03*
X-135000D02*
D03*
D40*
X-270000Y70000D02*
D03*
Y61732D02*
D03*
X-250000Y50000D02*
D03*
Y41732D02*
D03*
X-270000Y50000D02*
D03*
Y41732D02*
D03*
D41*
X-227500Y77500D02*
D03*
Y57500D02*
D03*
X-257500Y77500D02*
D03*
Y57500D02*
D03*
X-292500Y64700D02*
D03*
X-302500D02*
D03*
X-312500D02*
D03*
X-292500Y80500D02*
D03*
X-302500D02*
D03*
X-312500D02*
D03*
D42*
X-287500Y42500D02*
D03*
D43*
X-327500Y55000D02*
D03*
X-347500D02*
D03*
D44*
X-20000Y344500D02*
D03*
Y325500D02*
D03*
X-28000Y340000D02*
D03*
Y330000D02*
D03*
X-12000Y340000D02*
D03*
Y330000D02*
D03*
X-357500Y334500D02*
D03*
Y315500D02*
D03*
X-365500Y330000D02*
D03*
Y320000D02*
D03*
X-349500Y330000D02*
D03*
Y320000D02*
D03*
X-20000Y29500D02*
D03*
Y10500D02*
D03*
X-28000Y25000D02*
D03*
Y15000D02*
D03*
X-12000Y25000D02*
D03*
Y15000D02*
D03*
X-349500Y30000D02*
D03*
Y40000D02*
D03*
X-365500Y30000D02*
D03*
Y40000D02*
D03*
X-357500Y25500D02*
D03*
Y44500D02*
D03*
X-111500Y188500D02*
D03*
X-38000Y161000D02*
D03*
X-47361Y160861D02*
D03*
X-121000Y212500D02*
D03*
X-116000Y217500D02*
D03*
X-64000Y234500D02*
D03*
X-309000Y117500D02*
D03*
X-312500Y126500D02*
D03*
X-212500Y71500D02*
D03*
X-294500Y137000D02*
D03*
X-301000Y131000D02*
D03*
X-265500Y107500D02*
D03*
X-263500Y93700D02*
D03*
X-182500Y71500D02*
D03*
X-193000D02*
D03*
X-202899Y63359D02*
D03*
X-37780Y221721D02*
D03*
X-47500Y213500D02*
D03*
X-131500Y77500D02*
D03*
D45*
X-357500Y35000D02*
D03*
Y325000D02*
D03*
X-20000Y335000D02*
D03*
Y20000D02*
D03*
M02*
