M48
;Layer_Color=9474304
;FILE_FORMAT=2:5
INCH,TZ
;TYPE=PLATED
T1F00S00C0.02000
T2F00S00C0.02362
T3F00S00C0.03000
T4F00S00C0.04000
T5F00S00C0.12500
T6F00S00C0.23622
%
T01
X-365500Y30000
Y40000
X-357500Y44500
X-349500Y40000
Y30000
X-357500Y25500
X-96500
X-94981Y38931
X-72000Y44500
X-74500Y49500
X-68000Y23050
X-50000Y37000
X-28000Y25000
Y15000
X-20000Y10500
X-12000Y15000
Y25000
X-20000Y29500
X-43000Y65500
X-61500Y75500
X-86000Y92000
X-70000Y108000
X-116000Y110000
X-138000Y117500
X-140500Y122500
X-128379Y136379
X-122000Y138500
X-123500Y143500
X-127500Y148500
X-109000Y138500
X-107000Y201500
X-103500Y212500
X-117500Y209000
X-133500Y205000
X-72500Y214500
X-41000
X-97000Y67500
X-105500Y71000
X-138500Y88000
X-162500Y98500
X-160981Y110931
X-167500Y88000
X-174000Y73000
X-182000Y71500
X-209500Y117000
X-200000Y146500
X-194000Y142500
X-170000Y201500
X-320500Y67500
X-349500Y320000
Y330000
X-357500Y334500
X-365500Y330000
Y320000
X-357500Y315500
X-243000Y335500
X-225228Y301000
X-235228Y282500
X-214000Y272500
X-209228Y269500
X-204228Y272000
X-190500Y278500
X-182500Y279500
X-196728Y294000
X-187500Y335500
X-194000Y342500
X-185228Y247500
X-207500Y250000
X-242000Y253500
X-107000Y245000
X-81500Y236500
X-79000Y231500
X-57000Y224000
X-50000Y252500
X-40868Y269632
X-68500Y262500
X-28000Y330000
Y340000
X-20000Y344500
X-12000Y340000
Y330000
X-20000Y325500
T02
X-194000Y41232
Y49500
X-176000
Y41232
X-158000
Y49500
T03
X-247000Y47500
Y57500
Y67500
T04
X-357500Y55000
X-347500
X-337500
X-327500
X-324500Y39000
X-334500Y39000
X-314500Y39000
X-304500Y39000
X-294500Y39000
X-284500Y39000
X-229500Y42500
X-209500
X-157500Y169000
X-147500
X-137500
X-167500
X-177500
X-187500
X-197500
X-207500
X-217500
X-227500
X-237500
X-247500
X-257500Y174000
Y184000
Y194000
Y204000
Y214000
X-229500Y72500
X-209500
X-327500Y75000
X-337500
X-347500
X-357500
Y65000
X-347500
X-337500
X-327500
Y85000
X-337500
X-347500
X-357500
Y95000
Y105000
Y115000
Y125000
Y135000
Y145000
Y155000
Y165000
Y175000
Y185000
Y195000
Y205000
Y215000
X-347500
Y205000
Y195000
Y185000
Y175000
Y165000
Y155000
Y145000
Y135000
Y125000
Y115000
Y105000
Y95000
X-337500
Y105000
Y115000
Y125000
Y135000
Y145000
Y155000
Y165000
Y175000
Y185000
Y195000
Y205000
Y215000
X-327500
Y205000
Y195000
Y185000
Y175000
Y165000
Y155000
Y145000
Y135000
Y125000
Y115000
Y105000
Y95000
Y225000
X-337500
X-347500
X-357500
Y235000
Y245000
Y255000
Y265000
Y275000
Y285000
Y295000
Y305000
X-347500
Y295000
Y285000
Y275000
Y265000
Y255000
Y245000
Y235000
X-337500
Y245000
Y255000
Y265000
Y275000
Y285000
Y295000
Y305000
X-327500
Y295000
Y285000
Y275000
Y265000
Y255000
Y245000
Y235000
X-257500Y224000
X-247500Y229000
X-237500
X-227500
X-217500
X-207500
X-197500
X-187500
X-177500
X-167500
X-202500Y219000
X-212500
X-262500Y321000
X-272500Y321000
X-282500Y321000
X-300000Y321000
X-310000Y321000
X-157500Y229000
X-147500
X-137500
T05
X-357500Y35000
X-20000Y20000
X-357500Y325000
X-20000Y335000
T06
X-113228Y47520
X-179685Y121299
X-208622Y320866
X-26457Y233228
M30
