G04 Layer_Color=255*
%FSLAX25Y25*%
%MOIN*%
G70*
G01*
G75*
%ADD10R,0.05000X0.04000*%
%ADD11R,0.04000X0.05000*%
%ADD12R,0.04921X0.07874*%
%ADD13O,0.05709X0.02362*%
%ADD14R,0.03600X0.05000*%
%ADD15R,0.03600X0.03600*%
%ADD16O,0.02362X0.05709*%
%ADD17R,0.07874X0.04921*%
%ADD18R,0.05000X0.03600*%
%ADD19R,0.03600X0.03600*%
%ADD26C,0.06000*%
%ADD27C,0.08000*%
%ADD28C,0.04724*%
%ADD29C,0.07000*%
%ADD30R,0.07000X0.07000*%
%ADD31R,0.08000X0.08000*%
%ADD32O,0.08000X0.04000*%
D10*
X-255000Y248500D02*
D03*
Y240500D02*
D03*
X-247000Y248500D02*
D03*
Y240500D02*
D03*
X-198000Y67000D02*
D03*
Y59000D02*
D03*
X-190000D02*
D03*
Y67000D02*
D03*
X-182000Y59000D02*
D03*
Y67000D02*
D03*
X-174000Y59000D02*
D03*
Y67000D02*
D03*
X-98000Y262500D02*
D03*
Y254500D02*
D03*
X-90000Y262500D02*
D03*
Y254500D02*
D03*
X-91000Y75500D02*
D03*
Y67500D02*
D03*
X-83000Y75500D02*
D03*
Y67500D02*
D03*
X-157000Y148500D02*
D03*
Y140500D02*
D03*
X-149000Y148500D02*
D03*
Y140500D02*
D03*
X-67000Y75500D02*
D03*
Y67500D02*
D03*
X-43000Y60500D02*
D03*
Y52500D02*
D03*
Y30500D02*
D03*
Y22500D02*
D03*
X-75000Y75500D02*
D03*
Y67500D02*
D03*
X-43000Y45500D02*
D03*
Y37500D02*
D03*
X-59000Y30500D02*
D03*
Y22500D02*
D03*
X-51000Y30500D02*
D03*
Y22500D02*
D03*
X-133000Y148500D02*
D03*
Y140500D02*
D03*
X-109000Y133500D02*
D03*
Y125500D02*
D03*
Y103500D02*
D03*
Y95500D02*
D03*
X-141000Y148500D02*
D03*
Y140500D02*
D03*
X-109000Y118500D02*
D03*
Y110500D02*
D03*
X-125000Y103500D02*
D03*
Y95500D02*
D03*
X-117000Y103500D02*
D03*
Y95500D02*
D03*
X-82000Y262500D02*
D03*
Y254500D02*
D03*
X-74000Y262500D02*
D03*
Y254500D02*
D03*
X-66000Y217500D02*
D03*
Y209500D02*
D03*
X-58000Y217500D02*
D03*
Y209500D02*
D03*
X-50000Y217500D02*
D03*
Y209500D02*
D03*
Y232500D02*
D03*
Y224500D02*
D03*
Y247500D02*
D03*
Y239500D02*
D03*
D11*
X-235228Y253000D02*
D03*
X-227228D02*
D03*
X-235228Y261000D02*
D03*
X-227228D02*
D03*
X-235228Y277000D02*
D03*
X-227228D02*
D03*
X-220228Y301000D02*
D03*
X-212228D02*
D03*
X-190228D02*
D03*
X-182228D02*
D03*
X-235228Y269000D02*
D03*
X-227228D02*
D03*
X-205228Y301000D02*
D03*
X-197228D02*
D03*
X-190228Y285000D02*
D03*
X-182228D02*
D03*
X-190228Y293000D02*
D03*
X-182228D02*
D03*
X-263000Y311000D02*
D03*
X-271000D02*
D03*
X-300500D02*
D03*
X-308500D02*
D03*
D12*
X-90882Y25500D02*
D03*
X-76118D02*
D03*
X-156882Y98500D02*
D03*
X-142118D02*
D03*
X-97882Y212500D02*
D03*
X-83118D02*
D03*
D13*
X-65500Y38500D02*
D03*
Y42437D02*
D03*
Y46374D02*
D03*
Y50311D02*
D03*
Y54248D02*
D03*
Y58185D02*
D03*
X-131500Y111500D02*
D03*
Y115437D02*
D03*
Y119374D02*
D03*
Y123311D02*
D03*
Y127248D02*
D03*
Y131185D02*
D03*
X-197000Y253000D02*
D03*
Y258000D02*
D03*
Y263000D02*
D03*
Y268000D02*
D03*
X-218457Y253000D02*
D03*
Y258000D02*
D03*
Y263000D02*
D03*
Y268000D02*
D03*
X-72500Y225500D02*
D03*
Y229437D02*
D03*
Y233374D02*
D03*
Y237311D02*
D03*
Y241248D02*
D03*
Y245185D02*
D03*
D14*
X-53700Y45000D02*
D03*
X-53800Y52000D02*
D03*
X-119700Y118000D02*
D03*
X-119800Y125000D02*
D03*
X-60800Y239000D02*
D03*
X-60700Y232000D02*
D03*
D15*
X-50000Y37000D02*
D03*
X-57500D02*
D03*
Y60000D02*
D03*
X-50000D02*
D03*
X-116000Y110000D02*
D03*
X-123500D02*
D03*
Y133000D02*
D03*
X-116000D02*
D03*
X-64500Y247000D02*
D03*
X-57000D02*
D03*
Y224000D02*
D03*
X-64500D02*
D03*
D16*
X-91000Y37272D02*
D03*
X-86000D02*
D03*
X-81000D02*
D03*
X-76000D02*
D03*
X-91000Y58728D02*
D03*
X-86000D02*
D03*
X-81000D02*
D03*
X-76000D02*
D03*
X-157000Y110272D02*
D03*
X-152000D02*
D03*
X-147000D02*
D03*
X-142000D02*
D03*
X-157000Y131728D02*
D03*
X-152000D02*
D03*
X-147000D02*
D03*
X-142000D02*
D03*
X-198228Y278500D02*
D03*
X-202165D02*
D03*
X-206102D02*
D03*
X-210039D02*
D03*
X-213976D02*
D03*
X-217913D02*
D03*
X-98000Y224272D02*
D03*
X-93000D02*
D03*
X-88000D02*
D03*
X-83000D02*
D03*
X-98000Y245728D02*
D03*
X-93000D02*
D03*
X-88000D02*
D03*
X-83000D02*
D03*
D17*
X-185228Y253118D02*
D03*
Y267882D02*
D03*
D18*
X-204728Y290300D02*
D03*
X-211728Y290200D02*
D03*
D19*
X-196728Y294000D02*
D03*
Y286500D02*
D03*
X-219728D02*
D03*
Y294000D02*
D03*
D26*
X-247000Y47500D02*
D03*
Y57500D02*
D03*
Y67500D02*
D03*
D27*
X-209500Y42500D02*
D03*
Y72500D02*
D03*
X-229500Y42500D02*
D03*
Y72500D02*
D03*
X-247500Y169000D02*
D03*
X-237500D02*
D03*
X-227500D02*
D03*
X-217500D02*
D03*
X-207500D02*
D03*
X-197500D02*
D03*
X-187500D02*
D03*
X-177500D02*
D03*
X-167500D02*
D03*
X-157500D02*
D03*
X-147500D02*
D03*
X-137500D02*
D03*
X-247500Y229000D02*
D03*
X-237500D02*
D03*
X-227500D02*
D03*
X-217500D02*
D03*
X-207500D02*
D03*
X-197500D02*
D03*
X-187500D02*
D03*
X-177500D02*
D03*
X-167500D02*
D03*
X-157500D02*
D03*
X-147500D02*
D03*
X-137500D02*
D03*
X-212500Y219000D02*
D03*
X-202500D02*
D03*
X-257500Y174000D02*
D03*
Y184000D02*
D03*
Y194000D02*
D03*
Y204000D02*
D03*
Y214000D02*
D03*
Y224000D02*
D03*
X-357500Y125000D02*
D03*
Y105000D02*
D03*
Y115000D02*
D03*
Y155000D02*
D03*
Y165000D02*
D03*
Y135000D02*
D03*
Y145000D02*
D03*
Y65000D02*
D03*
Y55000D02*
D03*
Y95000D02*
D03*
Y75000D02*
D03*
Y85000D02*
D03*
Y195000D02*
D03*
Y175000D02*
D03*
Y185000D02*
D03*
Y225000D02*
D03*
Y235000D02*
D03*
Y205000D02*
D03*
Y215000D02*
D03*
Y265000D02*
D03*
Y275000D02*
D03*
Y245000D02*
D03*
Y255000D02*
D03*
Y285000D02*
D03*
Y295000D02*
D03*
Y305000D02*
D03*
X-347500Y85000D02*
D03*
Y95000D02*
D03*
Y65000D02*
D03*
Y75000D02*
D03*
Y125000D02*
D03*
Y135000D02*
D03*
Y105000D02*
D03*
Y115000D02*
D03*
Y165000D02*
D03*
Y175000D02*
D03*
Y145000D02*
D03*
Y155000D02*
D03*
Y215000D02*
D03*
Y185000D02*
D03*
Y195000D02*
D03*
Y235000D02*
D03*
Y225000D02*
D03*
Y255000D02*
D03*
Y265000D02*
D03*
Y205000D02*
D03*
Y245000D02*
D03*
Y295000D02*
D03*
Y305000D02*
D03*
Y275000D02*
D03*
Y285000D02*
D03*
X-337500Y125000D02*
D03*
Y105000D02*
D03*
Y115000D02*
D03*
Y155000D02*
D03*
Y165000D02*
D03*
Y135000D02*
D03*
Y145000D02*
D03*
Y65000D02*
D03*
Y55000D02*
D03*
Y95000D02*
D03*
Y75000D02*
D03*
Y85000D02*
D03*
Y195000D02*
D03*
Y175000D02*
D03*
Y185000D02*
D03*
Y225000D02*
D03*
Y235000D02*
D03*
Y205000D02*
D03*
Y215000D02*
D03*
Y265000D02*
D03*
Y245000D02*
D03*
Y255000D02*
D03*
Y295000D02*
D03*
Y305000D02*
D03*
X-327500Y85000D02*
D03*
Y95000D02*
D03*
Y65000D02*
D03*
Y75000D02*
D03*
Y125000D02*
D03*
Y135000D02*
D03*
Y105000D02*
D03*
Y115000D02*
D03*
Y165000D02*
D03*
Y175000D02*
D03*
Y145000D02*
D03*
Y155000D02*
D03*
Y215000D02*
D03*
Y185000D02*
D03*
Y195000D02*
D03*
Y235000D02*
D03*
Y225000D02*
D03*
Y255000D02*
D03*
Y265000D02*
D03*
Y205000D02*
D03*
Y245000D02*
D03*
Y295000D02*
D03*
Y305000D02*
D03*
D28*
X-194000Y41232D02*
D03*
Y49500D02*
D03*
X-176000Y41232D02*
D03*
Y49500D02*
D03*
X-158000Y41232D02*
D03*
Y49500D02*
D03*
D29*
X-334500Y39000D02*
D03*
X-324500Y39000D02*
D03*
X-314500Y39000D02*
D03*
X-294500Y39000D02*
D03*
X-304500Y39000D02*
D03*
X-282500Y321000D02*
D03*
X-272500Y321000D02*
D03*
X-310000D02*
D03*
D30*
X-284500Y39000D02*
D03*
X-262500Y321000D02*
D03*
X-300000D02*
D03*
D31*
X-347500Y55000D02*
D03*
X-327500D02*
D03*
D32*
X-337500Y275000D02*
D03*
Y285000D02*
D03*
X-327500Y275000D02*
D03*
Y285000D02*
D03*
M02*
