G04 Layer_Color=16711935*
%FSLAX25Y25*%
%MOIN*%
G70*
G01*
G75*
%ADD22C,0.01000*%
%ADD63C,0.00394*%
D22*
X-357500Y337500D02*
G03*
X-370000Y325000I0J-12500D01*
G01*
Y35000D02*
G03*
X-357500Y22500I12500J0D01*
G01*
X-20000Y7500D02*
G03*
X-7500Y20000I0J12500D01*
G01*
Y335000D02*
G03*
X-20000Y347500I-12500J0D01*
G01*
X-357500Y337500D02*
X-350000D01*
X-370000Y35000D02*
Y325000D01*
X-350000Y337500D02*
X-345000D01*
Y22500D02*
X-330000Y7500D01*
X-350000Y22500D02*
X-345000D01*
X-357500D02*
X-350000D01*
X-345000Y337500D02*
X-335000Y347500D01*
X-7500Y20000D02*
Y335000D01*
X-335000Y347500D02*
X-20000D01*
X-330000Y7500D02*
X-20000D01*
D63*
X-75232Y52331D02*
G03*
X-75232Y52331I-1969J0D01*
G01*
X-141232Y125331D02*
G03*
X-141232Y125331I-1969J0D01*
G01*
X-210090Y266799D02*
G03*
X-210090Y266799I-1969J0D01*
G01*
X-82232Y239331D02*
G03*
X-82232Y239331I-1969J0D01*
G01*
X-93343Y40126D02*
Y55874D01*
X-73658Y40126D02*
Y55874D01*
X-93343Y40126D02*
X-73658D01*
X-93343Y55874D02*
X-73658D01*
X-159343Y113126D02*
Y128874D01*
X-139657Y113126D02*
Y128874D01*
X-159343Y113126D02*
X-139657D01*
X-159343Y128874D02*
X-139657D01*
X-215602Y250658D02*
X-199854D01*
X-215602Y270342D02*
X-199854D01*
Y250658D02*
Y270342D01*
X-215602Y250658D02*
Y270342D01*
X-100343Y227126D02*
Y242874D01*
X-80658Y227126D02*
Y242874D01*
X-100343Y227126D02*
X-80658D01*
X-100343Y242874D02*
X-80658D01*
M02*
