G04 Layer_Physical_Order=1*
G04 Layer_Color=255*
%FSLAX25Y25*%
%MOIN*%
G70*
G01*
G75*
%ADD10R,0.05000X0.04000*%
%ADD11R,0.04000X0.05000*%
%ADD12R,0.04921X0.07874*%
%ADD13O,0.05709X0.02362*%
%ADD14R,0.03600X0.05000*%
%ADD15R,0.03600X0.03600*%
%ADD16O,0.02362X0.05709*%
%ADD17R,0.07874X0.04921*%
%ADD18R,0.05000X0.03600*%
%ADD19R,0.03600X0.03600*%
%ADD20C,0.04000*%
%ADD21C,0.06000*%
%ADD22C,0.01000*%
%ADD23C,0.03000*%
%ADD24C,0.02000*%
%ADD25C,0.08000*%
%ADD26C,0.06000*%
%ADD27C,0.08000*%
%ADD28C,0.04724*%
%ADD29C,0.07000*%
%ADD30R,0.07000X0.07000*%
%ADD31R,0.08000X0.08000*%
%ADD32O,0.08000X0.04000*%
%ADD33C,0.04000*%
%ADD34C,0.23622*%
%ADD35C,0.25000*%
D10*
X-255000Y248500D02*
D03*
Y240500D02*
D03*
X-247000Y248500D02*
D03*
Y240500D02*
D03*
X-198000Y67000D02*
D03*
Y59000D02*
D03*
X-190000D02*
D03*
Y67000D02*
D03*
X-182000Y59000D02*
D03*
Y67000D02*
D03*
X-174000Y59000D02*
D03*
Y67000D02*
D03*
X-98000Y262500D02*
D03*
Y254500D02*
D03*
X-90000Y262500D02*
D03*
Y254500D02*
D03*
X-91000Y75500D02*
D03*
Y67500D02*
D03*
X-83000Y75500D02*
D03*
Y67500D02*
D03*
X-157000Y148500D02*
D03*
Y140500D02*
D03*
X-149000Y148500D02*
D03*
Y140500D02*
D03*
X-67000Y75500D02*
D03*
Y67500D02*
D03*
X-43000Y60500D02*
D03*
Y52500D02*
D03*
Y30500D02*
D03*
Y22500D02*
D03*
X-75000Y75500D02*
D03*
Y67500D02*
D03*
X-43000Y45500D02*
D03*
Y37500D02*
D03*
X-59000Y30500D02*
D03*
Y22500D02*
D03*
X-51000Y30500D02*
D03*
Y22500D02*
D03*
X-133000Y148500D02*
D03*
Y140500D02*
D03*
X-109000Y133500D02*
D03*
Y125500D02*
D03*
Y103500D02*
D03*
Y95500D02*
D03*
X-141000Y148500D02*
D03*
Y140500D02*
D03*
X-109000Y118500D02*
D03*
Y110500D02*
D03*
X-125000Y103500D02*
D03*
Y95500D02*
D03*
X-117000Y103500D02*
D03*
Y95500D02*
D03*
X-82000Y262500D02*
D03*
Y254500D02*
D03*
X-74000Y262500D02*
D03*
Y254500D02*
D03*
X-66000Y217500D02*
D03*
Y209500D02*
D03*
X-58000Y217500D02*
D03*
Y209500D02*
D03*
X-50000Y217500D02*
D03*
Y209500D02*
D03*
Y232500D02*
D03*
Y224500D02*
D03*
Y247500D02*
D03*
Y239500D02*
D03*
D11*
X-235228Y253000D02*
D03*
X-227228D02*
D03*
X-235228Y261000D02*
D03*
X-227228D02*
D03*
X-235228Y277000D02*
D03*
X-227228D02*
D03*
X-220228Y301000D02*
D03*
X-212228D02*
D03*
X-190228D02*
D03*
X-182228D02*
D03*
X-235228Y269000D02*
D03*
X-227228D02*
D03*
X-205228Y301000D02*
D03*
X-197228D02*
D03*
X-190228Y285000D02*
D03*
X-182228D02*
D03*
X-190228Y293000D02*
D03*
X-182228D02*
D03*
X-263000Y311000D02*
D03*
X-271000D02*
D03*
X-300500D02*
D03*
X-308500D02*
D03*
D12*
X-90882Y25500D02*
D03*
X-76118D02*
D03*
X-156882Y98500D02*
D03*
X-142118D02*
D03*
X-97882Y212500D02*
D03*
X-83118D02*
D03*
D13*
X-65500Y38500D02*
D03*
Y42437D02*
D03*
Y46374D02*
D03*
Y50311D02*
D03*
Y54248D02*
D03*
Y58185D02*
D03*
X-131500Y111500D02*
D03*
Y115437D02*
D03*
Y119374D02*
D03*
Y123311D02*
D03*
Y127248D02*
D03*
Y131185D02*
D03*
X-197000Y253000D02*
D03*
Y258000D02*
D03*
Y263000D02*
D03*
Y268000D02*
D03*
X-218457Y253000D02*
D03*
Y258000D02*
D03*
Y263000D02*
D03*
Y268000D02*
D03*
X-72500Y225500D02*
D03*
Y229437D02*
D03*
Y233374D02*
D03*
Y237311D02*
D03*
Y241248D02*
D03*
Y245185D02*
D03*
D14*
X-53700Y45000D02*
D03*
X-53800Y52000D02*
D03*
X-119700Y118000D02*
D03*
X-119800Y125000D02*
D03*
X-60800Y239000D02*
D03*
X-60700Y232000D02*
D03*
D15*
X-50000Y37000D02*
D03*
X-57500D02*
D03*
Y60000D02*
D03*
X-50000D02*
D03*
X-116000Y110000D02*
D03*
X-123500D02*
D03*
Y133000D02*
D03*
X-116000D02*
D03*
X-64500Y247000D02*
D03*
X-57000D02*
D03*
Y224000D02*
D03*
X-64500D02*
D03*
D16*
X-91000Y37272D02*
D03*
X-86000D02*
D03*
X-81000D02*
D03*
X-76000D02*
D03*
X-91000Y58728D02*
D03*
X-86000D02*
D03*
X-81000D02*
D03*
X-76000D02*
D03*
X-157000Y110272D02*
D03*
X-152000D02*
D03*
X-147000D02*
D03*
X-142000D02*
D03*
X-157000Y131728D02*
D03*
X-152000D02*
D03*
X-147000D02*
D03*
X-142000D02*
D03*
X-198228Y278500D02*
D03*
X-202165D02*
D03*
X-206102D02*
D03*
X-210039D02*
D03*
X-213976D02*
D03*
X-217913D02*
D03*
X-98000Y224272D02*
D03*
X-93000D02*
D03*
X-88000D02*
D03*
X-83000D02*
D03*
X-98000Y245728D02*
D03*
X-93000D02*
D03*
X-88000D02*
D03*
X-83000D02*
D03*
D17*
X-185228Y253118D02*
D03*
Y267882D02*
D03*
D18*
X-204728Y290300D02*
D03*
X-211728Y290200D02*
D03*
D19*
X-196728Y294000D02*
D03*
Y286500D02*
D03*
X-219728D02*
D03*
Y294000D02*
D03*
D20*
X-342500Y280000D02*
X-302000D01*
X-347500Y275000D02*
X-342500Y280000D01*
X-300500Y320500D02*
X-300000Y321000D01*
X-300500Y311000D02*
Y320500D01*
X-263000Y311000D02*
X-262500Y311500D01*
Y321000D01*
X-282500Y321000D02*
X-272500Y311000D01*
X-271000D01*
X-302000Y280000D02*
X-271000Y311000D01*
D21*
X-113368Y342500D02*
X-10646Y239777D01*
X-86000Y92000D02*
X-70000Y108000D01*
X-10646Y167354D01*
X-194000Y342500D02*
X-113368D01*
X-255000D02*
X-194000D01*
X-272500Y325000D02*
X-255000Y342500D01*
X-10646Y167354D02*
Y239777D01*
X-272500Y321000D02*
Y325000D01*
D22*
X-247000Y248500D02*
X-242000Y253500D01*
X-255000Y248500D02*
X-247000D01*
Y244000D02*
X-141893D01*
X-247000Y240500D02*
Y244000D01*
X-255000Y235000D02*
X-135722D01*
X-307500D02*
X-255000D01*
Y240500D01*
X-212500Y219000D02*
X-207000Y213500D01*
X-142393D01*
X-130000Y225893D01*
Y232107D01*
X-141893Y244000D02*
X-130000Y232107D01*
X-202500Y219000D02*
X-139722D01*
X-132000Y226722D01*
Y231278D01*
X-135722Y235000D02*
X-132000Y231278D01*
X-117500Y209000D02*
X-115563Y207063D01*
X-182000Y67000D02*
Y71500D01*
X-179000Y84000D02*
X-94000D01*
X-190000Y73000D02*
X-179000Y84000D01*
X-190000Y67000D02*
Y73000D01*
X-200000Y146500D02*
X-177500Y169000D01*
X-174000Y67000D02*
Y73000D01*
X-194000Y142500D02*
X-167500Y169000D01*
X-209500Y117000D02*
X-157500Y169000D01*
X-94000Y84000D02*
X-86000Y92000D01*
X-209500Y72500D02*
X-204000Y67000D01*
X-198000D01*
Y45232D02*
X-194000Y41232D01*
X-198000Y45232D02*
Y59000D01*
X-194000Y49500D02*
X-190000Y53500D01*
Y59000D01*
X-182000Y55500D02*
X-176000Y49500D01*
X-182000Y55500D02*
Y59000D01*
X-167500D02*
X-158000Y49500D01*
X-174000Y59000D02*
X-167500D01*
X-170000Y201500D02*
X-107000D01*
X-72500Y214500D02*
Y225500D01*
X-198228Y278500D02*
X-190500D01*
X-47816Y205063D02*
X-46000Y206879D01*
X-133563Y205063D02*
X-47816D01*
X-116500Y118000D02*
X-109000Y110500D01*
X-119700Y118000D02*
X-116500D01*
X-160981Y110931D02*
X-160322Y110272D01*
X-157000D01*
X-160917Y105917D02*
X-149083D01*
X-164500Y109500D02*
X-160917Y105917D01*
X-164500Y109500D02*
Y118500D01*
X-157000Y126000D01*
X-105500Y71000D02*
X-65879D01*
X-64879Y72000D01*
X-94981Y38931D02*
X-93322Y37272D01*
X-91000D01*
X-98500Y45500D02*
X-91000Y53000D01*
X-98500Y37500D02*
Y45500D01*
Y37500D02*
X-93917Y32917D01*
X-83083D01*
X-117000Y95500D02*
X-113500Y92000D01*
X-105879D01*
X-105000Y92879D01*
Y139450D01*
X-107550Y142000D02*
X-105000Y139450D01*
X-118500Y142000D02*
X-107550D01*
X-122000Y138500D02*
X-118500Y142000D01*
X-68000Y23050D02*
X-59550D01*
X-61000Y57220D02*
Y68121D01*
X-64879Y72000D02*
X-61000Y68121D01*
X-125000Y95500D02*
X-117000D01*
X-128500Y136500D02*
X-128379Y136379D01*
X-97000Y67500D02*
X-91000D01*
X-157000Y140500D02*
X-153500Y144000D01*
X-124000D01*
X-123500Y143500D01*
X-106272Y245728D02*
X-98000D01*
X-107000Y245000D02*
X-106272Y245728D01*
X-115563Y207063D02*
X-68437D01*
X-46000Y206879D02*
Y253450D01*
X-68437Y207063D02*
X-66000Y209500D01*
X-182500Y279500D02*
Y284728D01*
X-214000Y272500D02*
Y278476D01*
X-207500Y250000D02*
X-194535D01*
X-209728D02*
X-207500D01*
X-67800Y249200D02*
Y249421D01*
X-61221Y256000D01*
X-48550D01*
X-46000Y253450D01*
X-218457Y253000D02*
X-212728D01*
X-67000Y75500D02*
X-61500D01*
X-43000Y60500D02*
Y65500D01*
Y52500D02*
Y53000D01*
X-65500Y42437D02*
X-63937D01*
X-63863D01*
X-65500Y54248D02*
X-63972D01*
X-61000Y57220D01*
X-63863Y42437D02*
X-54300Y52000D01*
X-57500Y54000D02*
Y60000D01*
X-65500Y50311D02*
X-61189D01*
X-57500Y54000D01*
X-50000Y60000D02*
X-43000Y53000D01*
X-75000Y75500D02*
X-67000D01*
X-83000D02*
X-75000D01*
X-83000Y67500D02*
X-75000D01*
X-43000Y45500D02*
Y52500D01*
X-53700Y45000D02*
X-50500D01*
X-43000Y37500D01*
Y30500D02*
Y37500D01*
X-59000Y35500D02*
X-57500Y37000D01*
X-59000Y30500D02*
Y35500D01*
X-91000Y75500D02*
X-83000D01*
X-63937Y42437D02*
X-62100Y40600D01*
X-55379D01*
X-54200Y39421D01*
Y33700D02*
Y39421D01*
Y33700D02*
X-51000Y30500D01*
X-43000Y22500D01*
X-59000D02*
X-51000D01*
X-86000Y37736D02*
X-82111Y41626D01*
X-74889D01*
X-71763Y38500D01*
X-91000Y37272D02*
X-86000D01*
Y37736D01*
X-71763Y38500D02*
X-65500D01*
X-76000Y28618D02*
Y37272D01*
X-91000Y58728D02*
Y67500D01*
Y53000D02*
Y58728D01*
X-81000Y35000D02*
Y37272D01*
X-83083Y32917D02*
X-81000Y35000D01*
X-86000Y58728D02*
Y64500D01*
X-83000Y67500D01*
X-71000Y63500D02*
X-67000Y67500D01*
X-76693Y63500D02*
X-71000D01*
X-81000Y58728D02*
Y59193D01*
X-76693Y63500D01*
X-76000Y58728D02*
X-75457Y58185D01*
X-65500D01*
X-133000Y148500D02*
X-127500D01*
X-109000Y133500D02*
Y138500D01*
Y125500D02*
Y126000D01*
X-131500Y115437D02*
X-129937D01*
X-129863D01*
X-127000Y130220D02*
Y135000D01*
X-131500Y127248D02*
X-129972D01*
X-127000Y130220D01*
X-129863Y115437D02*
X-120300Y125000D01*
X-123500Y127000D02*
Y133000D01*
X-131500Y123311D02*
X-127189D01*
X-123500Y127000D01*
X-116000Y133000D02*
X-109000Y126000D01*
X-141000Y148500D02*
X-133000D01*
X-149000D02*
X-141000D01*
X-149000Y140500D02*
X-141000D01*
X-109000Y118500D02*
Y125500D01*
Y103500D02*
Y110500D01*
X-125000Y108500D02*
X-123500Y110000D01*
X-125000Y103500D02*
Y108500D01*
X-157000Y148500D02*
X-149000D01*
X-129937Y115437D02*
X-128100Y113600D01*
X-121379D01*
X-120200Y106700D02*
Y112421D01*
X-121379Y113600D02*
X-120200Y112421D01*
Y106700D02*
X-117000Y103500D01*
X-109000Y95500D01*
X-152000Y110737D02*
X-148110Y114626D01*
X-140890D01*
X-137764Y111500D01*
X-157000Y110272D02*
X-152000D01*
Y110737D01*
X-137764Y111500D02*
X-131500D01*
X-142000Y101618D02*
Y110272D01*
X-157000Y131728D02*
Y140500D01*
Y126000D02*
Y131728D01*
X-147000Y108000D02*
Y110272D01*
X-149083Y105917D02*
X-147000Y108000D01*
X-152000Y131728D02*
Y137500D01*
X-149000Y140500D01*
X-137000Y136500D02*
X-133000Y140500D01*
X-142693Y136500D02*
X-137000D01*
X-147000Y131728D02*
Y132193D01*
X-142693Y136500D01*
X-142000Y131728D02*
X-141457Y131185D01*
X-131500D01*
X-74000Y262500D02*
X-68500D01*
X-50000Y247500D02*
Y252500D01*
Y239500D02*
Y240000D01*
X-72500Y229437D02*
X-70937D01*
X-70863D01*
X-68000Y244220D02*
Y249000D01*
X-72500Y241248D02*
X-70972D01*
X-68000Y244220D01*
X-70863Y229437D02*
X-61300Y239000D01*
X-64500Y241000D02*
Y247000D01*
X-72500Y237311D02*
X-68189D01*
X-64500Y241000D01*
X-57000Y247000D02*
X-50000Y240000D01*
X-82000Y262500D02*
X-74000D01*
X-90000D02*
X-82000D01*
X-90000Y254500D02*
X-82000D01*
X-50000Y232500D02*
Y239500D01*
X-60700Y232000D02*
X-57500D01*
X-50000Y224500D01*
Y217500D02*
Y224500D01*
X-66000Y222500D02*
X-64500Y224000D01*
X-66000Y217500D02*
Y222500D01*
X-98000Y262500D02*
X-90000D01*
X-70937Y229437D02*
X-69100Y227600D01*
X-62379D01*
X-61200Y220700D02*
Y226421D01*
X-62379Y227600D02*
X-61200Y226421D01*
Y220700D02*
X-58000Y217500D01*
X-50000Y209500D01*
X-66000D02*
X-58000D01*
X-93000Y224736D02*
X-89110Y228626D01*
X-81889D01*
X-78764Y225500D01*
X-98000Y224272D02*
X-93000D01*
Y224736D01*
X-78764Y225500D02*
X-72500D01*
X-83000Y215618D02*
Y224272D01*
X-98000Y245728D02*
Y254500D01*
X-101000Y237000D02*
X-98000Y240000D01*
Y245728D01*
X-101000Y221807D02*
X-99111Y219917D01*
X-101000Y221807D02*
Y237000D01*
X-99111Y219917D02*
X-90083D01*
X-88000Y222000D02*
Y224272D01*
X-90083Y219917D02*
X-88000Y222000D01*
X-93000Y245728D02*
Y251500D01*
X-90000Y254500D01*
X-78000Y250500D02*
X-74000Y254500D01*
X-83693Y250500D02*
X-78000D01*
X-88000Y245728D02*
Y246193D01*
X-83693Y250500D01*
X-83000Y245728D02*
X-82457Y245185D01*
X-72500D01*
X-202165Y280063D02*
Y280137D01*
Y278500D02*
Y280063D01*
X-200328Y281900D01*
Y288621D01*
X-211728Y289700D02*
X-202165Y280137D01*
X-210039Y278500D02*
Y282811D01*
X-213976Y278500D02*
Y280028D01*
X-235228Y277000D02*
Y282500D01*
X-225228Y301000D02*
X-220228D01*
X-212728D02*
X-212228D01*
X-213728Y286500D02*
X-210039Y282811D01*
X-219728Y286500D02*
X-213728D01*
X-219728Y294000D02*
X-212728Y301000D01*
X-235228Y261000D02*
Y269000D01*
Y277000D01*
X-227228Y261000D02*
Y269000D01*
X-212228Y301000D02*
X-205228D01*
X-204728Y290300D02*
Y293500D01*
X-197228Y301000D01*
X-190228D01*
X-195228Y285000D02*
X-190228D01*
X-196728Y286500D02*
X-195228Y285000D01*
X-235228Y253000D02*
Y261000D01*
X-190228Y293000D02*
X-182228Y301000D01*
X-199150Y289800D02*
X-193428D01*
X-200328Y288621D02*
X-199150Y289800D01*
X-193428D02*
X-190228Y293000D01*
X-182228Y285000D02*
Y293000D01*
X-197000Y253000D02*
Y258000D01*
X-197465D02*
X-197000D01*
X-198228Y272236D02*
Y278500D01*
X-201354Y261890D02*
X-197465Y258000D01*
X-201354Y261890D02*
Y269110D01*
X-198228Y272236D01*
X-197000Y268000D02*
X-188347D01*
X-194535Y250000D02*
X-192646Y251889D01*
X-212728Y253000D02*
X-209728Y250000D01*
X-227228Y253000D02*
X-218457D01*
X-194728Y263000D02*
X-192646Y260917D01*
Y251889D02*
Y260917D01*
X-197000Y263000D02*
X-194728D01*
X-224228Y258000D02*
X-218457D01*
X-227228Y261000D02*
X-224228Y258000D01*
X-218922Y263000D02*
X-218457D01*
X-223228Y267307D02*
X-218922Y263000D01*
X-223228Y267307D02*
Y273000D01*
X-227228Y277000D02*
X-223228Y273000D01*
X-218457Y268000D02*
X-217913Y268543D01*
Y278500D01*
X-306500Y244000D02*
X-247000D01*
X-327500Y265000D02*
X-306500Y244000D01*
X-327500Y255000D02*
X-307500Y235000D01*
D23*
X-102000Y104500D02*
X-40768Y165732D01*
X-243000Y335500D02*
X-187500D01*
X-118000D02*
X-40768Y258268D01*
X-187500Y335500D02*
X-118000D01*
X-40768Y165732D02*
Y258268D01*
X-102000Y91636D02*
Y104500D01*
X-105636Y88000D02*
X-102000Y91636D01*
X-138500Y88000D02*
X-105636D01*
X-167500D02*
X-138500D01*
X-214000D02*
X-167500D01*
X-229500Y72500D02*
X-214000Y88000D01*
X-320500Y67500D02*
X-247500D01*
X-244500Y57500D02*
X-229500Y72500D01*
X-247000Y57500D02*
X-244500D01*
X-327500Y295000D02*
X-324500D01*
X-308500Y311000D01*
X-310000Y312500D02*
X-308500Y311000D01*
X-310000Y312500D02*
Y321000D01*
D24*
X-96500Y25500D02*
X-90882D01*
X-71500Y44000D02*
X-69937Y42437D01*
X-65500D01*
X-74500Y49500D02*
X-71000D01*
X-67874Y46374D02*
X-65500D01*
X-71000Y49500D02*
X-67874Y46374D01*
X-162500Y98500D02*
X-156882D01*
X-137500Y117000D02*
X-135937Y115437D01*
X-131500D01*
X-140500Y122500D02*
X-137000D01*
X-133874Y119374D02*
X-131500D01*
X-137000Y122500D02*
X-133874Y119374D01*
X-103500Y212500D02*
X-97882D01*
X-78500Y231000D02*
X-76937Y229437D01*
X-72500D01*
X-81500Y236500D02*
X-78000D01*
X-74874Y233374D02*
X-72500D01*
X-78000Y236500D02*
X-74874Y233374D01*
X-203728Y272500D02*
X-202165Y274063D01*
Y278500D01*
X-209228Y269500D02*
Y273000D01*
X-206102Y276126D01*
Y278500D01*
X-185228Y247500D02*
Y253118D01*
D25*
X-357500Y275000D02*
X-347500D01*
D26*
X-247000Y47500D02*
D03*
Y57500D02*
D03*
Y67500D02*
D03*
D27*
X-209500Y42500D02*
D03*
Y72500D02*
D03*
X-229500Y42500D02*
D03*
Y72500D02*
D03*
X-247500Y169000D02*
D03*
X-237500D02*
D03*
X-227500D02*
D03*
X-217500D02*
D03*
X-207500D02*
D03*
X-197500D02*
D03*
X-187500D02*
D03*
X-177500D02*
D03*
X-167500D02*
D03*
X-157500D02*
D03*
X-147500D02*
D03*
X-137500D02*
D03*
X-247500Y229000D02*
D03*
X-237500D02*
D03*
X-227500D02*
D03*
X-217500D02*
D03*
X-207500D02*
D03*
X-197500D02*
D03*
X-187500D02*
D03*
X-177500D02*
D03*
X-167500D02*
D03*
X-157500D02*
D03*
X-147500D02*
D03*
X-137500D02*
D03*
X-212500Y219000D02*
D03*
X-202500D02*
D03*
X-257500Y174000D02*
D03*
Y184000D02*
D03*
Y194000D02*
D03*
Y204000D02*
D03*
Y214000D02*
D03*
Y224000D02*
D03*
X-357500Y125000D02*
D03*
Y105000D02*
D03*
Y115000D02*
D03*
Y155000D02*
D03*
Y165000D02*
D03*
Y135000D02*
D03*
Y145000D02*
D03*
Y65000D02*
D03*
Y55000D02*
D03*
Y95000D02*
D03*
Y75000D02*
D03*
Y85000D02*
D03*
Y195000D02*
D03*
Y175000D02*
D03*
Y185000D02*
D03*
Y225000D02*
D03*
Y235000D02*
D03*
Y205000D02*
D03*
Y215000D02*
D03*
Y265000D02*
D03*
Y275000D02*
D03*
Y245000D02*
D03*
Y255000D02*
D03*
Y285000D02*
D03*
Y295000D02*
D03*
Y305000D02*
D03*
X-347500Y85000D02*
D03*
Y95000D02*
D03*
Y65000D02*
D03*
Y75000D02*
D03*
Y125000D02*
D03*
Y135000D02*
D03*
Y105000D02*
D03*
Y115000D02*
D03*
Y165000D02*
D03*
Y175000D02*
D03*
Y145000D02*
D03*
Y155000D02*
D03*
Y215000D02*
D03*
Y185000D02*
D03*
Y195000D02*
D03*
Y235000D02*
D03*
Y225000D02*
D03*
Y255000D02*
D03*
Y265000D02*
D03*
Y205000D02*
D03*
Y245000D02*
D03*
Y295000D02*
D03*
Y305000D02*
D03*
Y275000D02*
D03*
Y285000D02*
D03*
X-337500Y125000D02*
D03*
Y105000D02*
D03*
Y115000D02*
D03*
Y155000D02*
D03*
Y165000D02*
D03*
Y135000D02*
D03*
Y145000D02*
D03*
Y65000D02*
D03*
Y55000D02*
D03*
Y95000D02*
D03*
Y75000D02*
D03*
Y85000D02*
D03*
Y195000D02*
D03*
Y175000D02*
D03*
Y185000D02*
D03*
Y225000D02*
D03*
Y235000D02*
D03*
Y205000D02*
D03*
Y215000D02*
D03*
Y265000D02*
D03*
Y245000D02*
D03*
Y255000D02*
D03*
Y295000D02*
D03*
Y305000D02*
D03*
X-327500Y85000D02*
D03*
Y95000D02*
D03*
Y65000D02*
D03*
Y75000D02*
D03*
Y125000D02*
D03*
Y135000D02*
D03*
Y105000D02*
D03*
Y115000D02*
D03*
Y165000D02*
D03*
Y175000D02*
D03*
Y145000D02*
D03*
Y155000D02*
D03*
Y215000D02*
D03*
Y185000D02*
D03*
Y195000D02*
D03*
Y235000D02*
D03*
Y225000D02*
D03*
Y255000D02*
D03*
Y265000D02*
D03*
Y205000D02*
D03*
Y245000D02*
D03*
Y295000D02*
D03*
Y305000D02*
D03*
D28*
X-194000Y41232D02*
D03*
Y49500D02*
D03*
X-176000Y41232D02*
D03*
Y49500D02*
D03*
X-158000Y41232D02*
D03*
Y49500D02*
D03*
D29*
X-334500Y39000D02*
D03*
X-324500Y39000D02*
D03*
X-314500Y39000D02*
D03*
X-294500Y39000D02*
D03*
X-304500Y39000D02*
D03*
X-282500Y321000D02*
D03*
X-272500Y321000D02*
D03*
X-310000D02*
D03*
D30*
X-284500Y39000D02*
D03*
X-262500Y321000D02*
D03*
X-300000D02*
D03*
D31*
X-347500Y55000D02*
D03*
X-327500D02*
D03*
D32*
X-337500Y275000D02*
D03*
Y285000D02*
D03*
X-327500Y275000D02*
D03*
Y285000D02*
D03*
D33*
X-40868Y269632D02*
D03*
X-242000Y253500D02*
D03*
X-107000Y201500D02*
D03*
X-117500Y209000D02*
D03*
X-133500Y205000D02*
D03*
X-170000Y201500D02*
D03*
X-182000Y71500D02*
D03*
X-200000Y146500D02*
D03*
X-174000Y73000D02*
D03*
X-194000Y142500D02*
D03*
X-209500Y117000D02*
D03*
X-86000Y92000D02*
D03*
X-194000Y342500D02*
D03*
X-243000Y335500D02*
D03*
X-187500D02*
D03*
X-41000Y214500D02*
D03*
X-72500D02*
D03*
X-190500Y278500D02*
D03*
X-116000Y110000D02*
D03*
X-167500Y88000D02*
D03*
X-160981Y110931D02*
D03*
X-138500Y88000D02*
D03*
X-105500Y71000D02*
D03*
X-94981Y38931D02*
D03*
X-122000Y138500D02*
D03*
X-70000Y108000D02*
D03*
X-68000Y23050D02*
D03*
X-128379Y136379D02*
D03*
X-97000Y67500D02*
D03*
X-123500Y143500D02*
D03*
X-107000Y245000D02*
D03*
X-182500Y279500D02*
D03*
X-214000Y272500D02*
D03*
X-207500Y250000D02*
D03*
X-196728Y294000D02*
D03*
X-61500Y75500D02*
D03*
X-43000Y65500D02*
D03*
X-96500Y25500D02*
D03*
X-72000Y44500D02*
D03*
X-74500Y49500D02*
D03*
X-50000Y37000D02*
D03*
X-127500Y148500D02*
D03*
X-109000Y138500D02*
D03*
X-162500Y98500D02*
D03*
X-138000Y117500D02*
D03*
X-140500Y122500D02*
D03*
X-68500Y262500D02*
D03*
X-50000Y252500D02*
D03*
X-103500Y212500D02*
D03*
X-79000Y231500D02*
D03*
X-81500Y236500D02*
D03*
X-57000Y224000D02*
D03*
X-204228Y272000D02*
D03*
X-209228Y269500D02*
D03*
X-320500Y67500D02*
D03*
X-235228Y282500D02*
D03*
X-225228Y301000D02*
D03*
X-185228Y247500D02*
D03*
X-357500Y44500D02*
D03*
Y25500D02*
D03*
X-365500Y40000D02*
D03*
Y30000D02*
D03*
X-349500Y40000D02*
D03*
Y30000D02*
D03*
X-12000Y15000D02*
D03*
Y25000D02*
D03*
X-28000Y15000D02*
D03*
Y25000D02*
D03*
X-20000Y10500D02*
D03*
Y29500D02*
D03*
X-349500Y320000D02*
D03*
Y330000D02*
D03*
X-365500Y320000D02*
D03*
Y330000D02*
D03*
X-357500Y315500D02*
D03*
Y334500D02*
D03*
X-12000Y330000D02*
D03*
Y340000D02*
D03*
X-28000Y330000D02*
D03*
Y340000D02*
D03*
X-20000Y325500D02*
D03*
Y344500D02*
D03*
D34*
X-26457Y233228D02*
D03*
X-179685Y121299D02*
D03*
X-208622Y320866D02*
D03*
X-113228Y47520D02*
D03*
D35*
X-20000Y20000D02*
D03*
Y335000D02*
D03*
X-357500Y325000D02*
D03*
Y35000D02*
D03*
M02*
