G04 Layer_Physical_Order=2*
G04 Layer_Color=16711680*
%FSLAX25Y25*%
%MOIN*%
G70*
G01*
G75*
%ADD22C,0.01000*%
%ADD23C,0.03000*%
%ADD24C,0.02000*%
%ADD25C,0.08000*%
%ADD26C,0.06000*%
%ADD27C,0.08000*%
%ADD28C,0.04724*%
%ADD29C,0.07000*%
%ADD30R,0.07000X0.07000*%
%ADD31R,0.08000X0.08000*%
%ADD32O,0.08000X0.04000*%
%ADD33C,0.04000*%
%ADD34C,0.23622*%
%ADD35C,0.25000*%
G36*
X-17556Y347286D02*
X-15973Y346862D01*
X-14459Y346235D01*
X-13040Y345416D01*
X-11740Y344418D01*
X-10582Y343260D01*
X-9584Y341960D01*
X-8765Y340541D01*
X-8138Y339027D01*
X-7714Y337444D01*
X-7500Y335819D01*
Y335000D01*
Y20000D01*
Y19181D01*
X-7714Y17556D01*
X-8138Y15973D01*
X-8765Y14459D01*
X-9584Y13040D01*
X-10582Y11740D01*
X-11740Y10582D01*
X-13040Y9584D01*
X-14459Y8765D01*
X-15973Y8138D01*
X-17556Y7714D01*
X-19181Y7500D01*
X-330000D01*
X-345000Y22500D01*
X-358319D01*
X-359944Y22714D01*
X-361527Y23138D01*
X-363040Y23765D01*
X-364459Y24584D01*
X-365759Y25582D01*
X-366918Y26741D01*
X-367916Y28041D01*
X-368735Y29460D01*
X-369362Y30973D01*
X-369786Y32556D01*
X-370000Y34181D01*
Y35000D01*
Y325000D01*
Y325819D01*
X-369786Y327444D01*
X-369362Y329027D01*
X-368735Y330540D01*
X-367916Y331960D01*
X-366918Y333260D01*
X-365759Y334418D01*
X-364459Y335416D01*
X-363040Y336235D01*
X-361527Y336862D01*
X-359944Y337286D01*
X-358319Y337500D01*
X-345000D01*
X-335000Y347500D01*
X-19181D01*
X-17556Y347286D01*
D02*
G37*
%LPC*%
G36*
X-194000Y345526D02*
X-194783Y345423D01*
X-195513Y345121D01*
X-196140Y344640D01*
X-196621Y344013D01*
X-196923Y343283D01*
X-197026Y342500D01*
X-196923Y341717D01*
X-196621Y340987D01*
X-196549Y340894D01*
Y326477D01*
X-197039Y326380D01*
X-197172Y326700D01*
X-198226Y328419D01*
X-199535Y329953D01*
X-201069Y331262D01*
X-202788Y332316D01*
X-204651Y333088D01*
X-206612Y333559D01*
X-208622Y333717D01*
X-210632Y333559D01*
X-212593Y333088D01*
X-214456Y332316D01*
X-216176Y331262D01*
X-217709Y329953D01*
X-219018Y328419D01*
X-220072Y326700D01*
X-220844Y324837D01*
X-221315Y322876D01*
X-221473Y320866D01*
X-221315Y318856D01*
X-220844Y316895D01*
X-220072Y315032D01*
X-219018Y313313D01*
X-217709Y311779D01*
X-216176Y310470D01*
X-214456Y309416D01*
X-212593Y308645D01*
X-210632Y308174D01*
X-208622Y308015D01*
X-206612Y308174D01*
X-205001Y308560D01*
X-204747Y308107D01*
X-206031Y306823D01*
X-206583Y305996D01*
X-206777Y305021D01*
Y273606D01*
X-206849Y273513D01*
X-207151Y272783D01*
X-207254Y272000D01*
X-207151Y271217D01*
X-206849Y270487D01*
X-206368Y269860D01*
X-205741Y269379D01*
X-205012Y269077D01*
X-204228Y268974D01*
X-203445Y269077D01*
X-202715Y269379D01*
X-202089Y269860D01*
X-201608Y270487D01*
X-201306Y271217D01*
X-201202Y272000D01*
X-201306Y272783D01*
X-201608Y273513D01*
X-201679Y273606D01*
Y303965D01*
X-192198Y313447D01*
X-191645Y314274D01*
X-191451Y315249D01*
Y340894D01*
X-191379Y340987D01*
X-191077Y341717D01*
X-190974Y342500D01*
X-191077Y343283D01*
X-191379Y344013D01*
X-191860Y344640D01*
X-192487Y345121D01*
X-193217Y345423D01*
X-194000Y345526D01*
D02*
G37*
G36*
X-258000Y325500D02*
X-262000D01*
Y321500D01*
X-258000D01*
Y325500D01*
D02*
G37*
G36*
X-295500D02*
X-299500D01*
Y321500D01*
X-295500D01*
Y325500D01*
D02*
G37*
G36*
X-263000D02*
X-267000D01*
Y321500D01*
X-263000D01*
Y325500D01*
D02*
G37*
G36*
X-300500D02*
X-304500D01*
Y321500D01*
X-300500D01*
Y325500D01*
D02*
G37*
G36*
X-258000Y320500D02*
X-262000D01*
Y316500D01*
X-258000D01*
Y320500D01*
D02*
G37*
G36*
X-263000D02*
X-267000D01*
Y316500D01*
X-263000D01*
Y320500D01*
D02*
G37*
G36*
X-295500D02*
X-299500D01*
Y316500D01*
X-295500D01*
Y320500D01*
D02*
G37*
G36*
X-300500D02*
X-304500D01*
Y316500D01*
X-300500D01*
Y320500D01*
D02*
G37*
G36*
X-272500Y325539D02*
X-273675Y325384D01*
X-274769Y324931D01*
X-275710Y324209D01*
X-276431Y323269D01*
X-276884Y322175D01*
X-277039Y321000D01*
X-276884Y319825D01*
X-276431Y318731D01*
X-275710Y317791D01*
X-274769Y317069D01*
X-273675Y316616D01*
X-272500Y316461D01*
X-271325Y316616D01*
X-270231Y317069D01*
X-269291Y317791D01*
X-268569Y318731D01*
X-268116Y319825D01*
X-267961Y321000D01*
X-268116Y322175D01*
X-268569Y323269D01*
X-269291Y324209D01*
X-270231Y324931D01*
X-271325Y325384D01*
X-272500Y325539D01*
D02*
G37*
G36*
X-310000D02*
X-311175Y325384D01*
X-312269Y324931D01*
X-313210Y324209D01*
X-313931Y323269D01*
X-314384Y322175D01*
X-314539Y321000D01*
X-314430Y320175D01*
X-322802Y311802D01*
X-323355Y310975D01*
X-323549Y310000D01*
Y308823D01*
X-324049Y308654D01*
X-324978Y309367D01*
X-326195Y309871D01*
X-327500Y310043D01*
X-328805Y309871D01*
X-330022Y309367D01*
X-331066Y308566D01*
X-331868Y307522D01*
X-332229Y306648D01*
X-332771D01*
X-333133Y307522D01*
X-333934Y308566D01*
X-334978Y309367D01*
X-336195Y309871D01*
X-337500Y310043D01*
X-338805Y309871D01*
X-340022Y309367D01*
X-341066Y308566D01*
X-341867Y307522D01*
X-342229Y306648D01*
X-342771D01*
X-343132Y307522D01*
X-343934Y308566D01*
X-344978Y309367D01*
X-346195Y309871D01*
X-347500Y310043D01*
X-348805Y309871D01*
X-350022Y309367D01*
X-351066Y308566D01*
X-351868Y307522D01*
X-352229Y306648D01*
X-352771D01*
X-353133Y307522D01*
X-353934Y308566D01*
X-354978Y309367D01*
X-356195Y309871D01*
X-357500Y310043D01*
X-358805Y309871D01*
X-360022Y309367D01*
X-361066Y308566D01*
X-361867Y307522D01*
X-362371Y306305D01*
X-362543Y305000D01*
X-362371Y303695D01*
X-361867Y302478D01*
X-361066Y301434D01*
X-360022Y300633D01*
X-359148Y300271D01*
Y299729D01*
X-360022Y299367D01*
X-361066Y298566D01*
X-361867Y297522D01*
X-362371Y296305D01*
X-362543Y295000D01*
X-362371Y293695D01*
X-361867Y292478D01*
X-361066Y291434D01*
X-360022Y290633D01*
X-359148Y290271D01*
Y289729D01*
X-360022Y289368D01*
X-361066Y288566D01*
X-361867Y287522D01*
X-362371Y286305D01*
X-362543Y285000D01*
X-362371Y283695D01*
X-361867Y282478D01*
X-361066Y281434D01*
X-360022Y280632D01*
X-359148Y280271D01*
Y279729D01*
X-360022Y279367D01*
X-361066Y278566D01*
X-361867Y277522D01*
X-362371Y276305D01*
X-362543Y275000D01*
X-362371Y273695D01*
X-361867Y272478D01*
X-361066Y271434D01*
X-360022Y270633D01*
X-359148Y270271D01*
Y269729D01*
X-360022Y269368D01*
X-361066Y268566D01*
X-361867Y267522D01*
X-362371Y266305D01*
X-362543Y265000D01*
X-362371Y263695D01*
X-361867Y262478D01*
X-361066Y261434D01*
X-360022Y260632D01*
X-359148Y260271D01*
Y259729D01*
X-360022Y259367D01*
X-361066Y258566D01*
X-361867Y257522D01*
X-362371Y256305D01*
X-362543Y255000D01*
X-362371Y253695D01*
X-361867Y252478D01*
X-361066Y251434D01*
X-360022Y250633D01*
X-359148Y250271D01*
Y249729D01*
X-360022Y249367D01*
X-361066Y248566D01*
X-361867Y247522D01*
X-362371Y246305D01*
X-362543Y245000D01*
X-362371Y243695D01*
X-361867Y242478D01*
X-361066Y241434D01*
X-360022Y240633D01*
X-359148Y240271D01*
Y239729D01*
X-360022Y239368D01*
X-361066Y238566D01*
X-361867Y237522D01*
X-362371Y236305D01*
X-362543Y235000D01*
X-362371Y233695D01*
X-361867Y232478D01*
X-361066Y231434D01*
X-360022Y230632D01*
X-359148Y230271D01*
Y229729D01*
X-360022Y229367D01*
X-361066Y228566D01*
X-361867Y227522D01*
X-362371Y226305D01*
X-362543Y225000D01*
X-362371Y223695D01*
X-361867Y222478D01*
X-361066Y221434D01*
X-360022Y220633D01*
X-359148Y220271D01*
Y219729D01*
X-360022Y219368D01*
X-361066Y218566D01*
X-361867Y217522D01*
X-362371Y216305D01*
X-362477Y215500D01*
X-357500D01*
Y214500D01*
X-362477D01*
X-362371Y213695D01*
X-361867Y212478D01*
X-361066Y211434D01*
X-360022Y210632D01*
X-359148Y210271D01*
Y209729D01*
X-360022Y209367D01*
X-361066Y208566D01*
X-361867Y207522D01*
X-362371Y206305D01*
X-362477Y205500D01*
X-357500D01*
Y204500D01*
X-362477D01*
X-362371Y203695D01*
X-361867Y202478D01*
X-361066Y201434D01*
X-360022Y200633D01*
X-359148Y200271D01*
Y199729D01*
X-360022Y199367D01*
X-361066Y198566D01*
X-361867Y197522D01*
X-362371Y196305D01*
X-362477Y195500D01*
X-357500D01*
Y194500D01*
X-362477D01*
X-362371Y193695D01*
X-361867Y192478D01*
X-361066Y191434D01*
X-360022Y190632D01*
X-359148Y190271D01*
Y189729D01*
X-360022Y189367D01*
X-361066Y188566D01*
X-361867Y187522D01*
X-362371Y186305D01*
X-362543Y185000D01*
X-362371Y183695D01*
X-361867Y182478D01*
X-361066Y181434D01*
X-360022Y180632D01*
X-359148Y180271D01*
Y179729D01*
X-360022Y179367D01*
X-361066Y178566D01*
X-361867Y177522D01*
X-362371Y176305D01*
X-362543Y175000D01*
X-362371Y173695D01*
X-361867Y172478D01*
X-361066Y171434D01*
X-360022Y170633D01*
X-359148Y170271D01*
Y169729D01*
X-360022Y169368D01*
X-361066Y168566D01*
X-361867Y167522D01*
X-362371Y166305D01*
X-362543Y165000D01*
X-362371Y163695D01*
X-361867Y162478D01*
X-361066Y161434D01*
X-360022Y160633D01*
X-359148Y160271D01*
Y159729D01*
X-360022Y159368D01*
X-361066Y158566D01*
X-361867Y157522D01*
X-362371Y156305D01*
X-362543Y155000D01*
X-362371Y153695D01*
X-361867Y152478D01*
X-361066Y151434D01*
X-360022Y150633D01*
X-359148Y150271D01*
Y149729D01*
X-360022Y149367D01*
X-361066Y148566D01*
X-361867Y147522D01*
X-362371Y146305D01*
X-362543Y145000D01*
X-362371Y143695D01*
X-361867Y142478D01*
X-361066Y141434D01*
X-360022Y140632D01*
X-359148Y140271D01*
Y139729D01*
X-360022Y139367D01*
X-361066Y138566D01*
X-361867Y137522D01*
X-362371Y136305D01*
X-362543Y135000D01*
X-362371Y133695D01*
X-361867Y132478D01*
X-361066Y131434D01*
X-360022Y130632D01*
X-359148Y130271D01*
Y129729D01*
X-360022Y129367D01*
X-361066Y128566D01*
X-361867Y127522D01*
X-362371Y126305D01*
X-362543Y125000D01*
X-362371Y123695D01*
X-361867Y122478D01*
X-361066Y121434D01*
X-360022Y120633D01*
X-359148Y120271D01*
Y119729D01*
X-360022Y119368D01*
X-361066Y118566D01*
X-361867Y117522D01*
X-362371Y116305D01*
X-362543Y115000D01*
X-362371Y113695D01*
X-361867Y112478D01*
X-361066Y111434D01*
X-360022Y110633D01*
X-359148Y110271D01*
Y109729D01*
X-360022Y109368D01*
X-361066Y108566D01*
X-361867Y107522D01*
X-362371Y106305D01*
X-362543Y105000D01*
X-362371Y103695D01*
X-361867Y102478D01*
X-361066Y101434D01*
X-360022Y100633D01*
X-359148Y100271D01*
Y99729D01*
X-360022Y99367D01*
X-361066Y98566D01*
X-361867Y97522D01*
X-362371Y96305D01*
X-362543Y95000D01*
X-362371Y93695D01*
X-361867Y92478D01*
X-361066Y91434D01*
X-360022Y90632D01*
X-359148Y90271D01*
Y89729D01*
X-360022Y89368D01*
X-361066Y88566D01*
X-361867Y87522D01*
X-362371Y86305D01*
X-362543Y85000D01*
X-362371Y83695D01*
X-361867Y82478D01*
X-361066Y81434D01*
X-360022Y80633D01*
X-359148Y80271D01*
Y79729D01*
X-360022Y79368D01*
X-361066Y78566D01*
X-361867Y77522D01*
X-362371Y76305D01*
X-362543Y75000D01*
X-362371Y73695D01*
X-361867Y72478D01*
X-361066Y71434D01*
X-360022Y70632D01*
X-359148Y70271D01*
Y69729D01*
X-360022Y69367D01*
X-361066Y68566D01*
X-361867Y67522D01*
X-362371Y66305D01*
X-362543Y65000D01*
X-362371Y63695D01*
X-361867Y62478D01*
X-361066Y61434D01*
X-360022Y60632D01*
X-359148Y60271D01*
Y59729D01*
X-360022Y59368D01*
X-361066Y58566D01*
X-361867Y57522D01*
X-362371Y56305D01*
X-362543Y55000D01*
X-362371Y53695D01*
X-361867Y52478D01*
X-361066Y51434D01*
X-360022Y50633D01*
X-358805Y50129D01*
X-357500Y49957D01*
X-356195Y50129D01*
X-354978Y50633D01*
X-353934Y51434D01*
X-353133Y52478D01*
X-353000Y52798D01*
X-352500Y52699D01*
Y50000D01*
X-342500D01*
Y52699D01*
X-342000Y52798D01*
X-341867Y52478D01*
X-341066Y51434D01*
X-340022Y50633D01*
X-338805Y50129D01*
X-337500Y49957D01*
X-336195Y50129D01*
X-334978Y50633D01*
X-333934Y51434D01*
X-333133Y52478D01*
X-333000Y52798D01*
X-332500Y52699D01*
Y50000D01*
X-322500D01*
Y60000D01*
X-325199D01*
X-325298Y60500D01*
X-324978Y60632D01*
X-323934Y61434D01*
X-323132Y62478D01*
X-322629Y63695D01*
X-322506Y64627D01*
X-322047Y64862D01*
X-321971Y64862D01*
X-321283Y64577D01*
X-320500Y64474D01*
X-319717Y64577D01*
X-319029Y64862D01*
X-318664Y64732D01*
X-318529Y64665D01*
Y47133D01*
X-322585Y43078D01*
X-323325Y43384D01*
X-324500Y43539D01*
X-325675Y43384D01*
X-326769Y42931D01*
X-327710Y42209D01*
X-328431Y41269D01*
X-328884Y40175D01*
X-329039Y39000D01*
X-328884Y37825D01*
X-328431Y36731D01*
X-327710Y35791D01*
X-326769Y35069D01*
X-325675Y34616D01*
X-324500Y34461D01*
X-323325Y34616D01*
X-322231Y35069D01*
X-321291Y35791D01*
X-320569Y36731D01*
X-320116Y37825D01*
X-319961Y39000D01*
X-320116Y40175D01*
X-320422Y40915D01*
X-316491Y44846D01*
X-316029Y44654D01*
Y43237D01*
X-316770Y42931D01*
X-317709Y42209D01*
X-318431Y41269D01*
X-318884Y40175D01*
X-319039Y39000D01*
X-318884Y37825D01*
X-318431Y36731D01*
X-317709Y35791D01*
X-316770Y35069D01*
X-315675Y34616D01*
X-314500Y34461D01*
X-313325Y34616D01*
X-312231Y35069D01*
X-311291Y35791D01*
X-310569Y36731D01*
X-310116Y37825D01*
X-309961Y39000D01*
X-310116Y40175D01*
X-310569Y41269D01*
X-311291Y42209D01*
X-312231Y42931D01*
X-312971Y43237D01*
Y146367D01*
X-259797Y199540D01*
X-259148Y199271D01*
Y198729D01*
X-260022Y198368D01*
X-261066Y197566D01*
X-261867Y196522D01*
X-262371Y195305D01*
X-262543Y194000D01*
X-262371Y192695D01*
X-261960Y191703D01*
X-305581Y148081D01*
X-305913Y147585D01*
X-306029Y147000D01*
Y43237D01*
X-306769Y42931D01*
X-307710Y42209D01*
X-308431Y41269D01*
X-308884Y40175D01*
X-309039Y39000D01*
X-308884Y37825D01*
X-308431Y36731D01*
X-307710Y35791D01*
X-306769Y35069D01*
X-305675Y34616D01*
X-304500Y34461D01*
X-303325Y34616D01*
X-302231Y35069D01*
X-301291Y35791D01*
X-300569Y36731D01*
X-300116Y37825D01*
X-299961Y39000D01*
X-300116Y40175D01*
X-300569Y41269D01*
X-301291Y42209D01*
X-302231Y42931D01*
X-302971Y43237D01*
Y146367D01*
X-259797Y189540D01*
X-259148Y189271D01*
Y188729D01*
X-260022Y188367D01*
X-261066Y187566D01*
X-261867Y186522D01*
X-262371Y185305D01*
X-262543Y184000D01*
X-262371Y182695D01*
X-261960Y181702D01*
X-295581Y148081D01*
X-295913Y147585D01*
X-296029Y147000D01*
Y43237D01*
X-296769Y42931D01*
X-297709Y42209D01*
X-298431Y41269D01*
X-298884Y40175D01*
X-299039Y39000D01*
X-298884Y37825D01*
X-298431Y36731D01*
X-297709Y35791D01*
X-296769Y35069D01*
X-295675Y34616D01*
X-294500Y34461D01*
X-293325Y34616D01*
X-292231Y35069D01*
X-291291Y35791D01*
X-290569Y36731D01*
X-290116Y37825D01*
X-289961Y39000D01*
X-290116Y40175D01*
X-290569Y41269D01*
X-291291Y42209D01*
X-292231Y42931D01*
X-292971Y43237D01*
Y146367D01*
X-259797Y179540D01*
X-259148Y179271D01*
Y178729D01*
X-260022Y178367D01*
X-261066Y177566D01*
X-261867Y176522D01*
X-262371Y175305D01*
X-262543Y174000D01*
X-262371Y172695D01*
X-261960Y171703D01*
X-285581Y148081D01*
X-285913Y147585D01*
X-286029Y147000D01*
Y43500D01*
X-289000D01*
Y34500D01*
X-280000D01*
Y43500D01*
X-282971D01*
Y146367D01*
X-259797Y169540D01*
X-258805Y169129D01*
X-257500Y168957D01*
X-256195Y169129D01*
X-254978Y169632D01*
X-253934Y170434D01*
X-253133Y171478D01*
X-252629Y172695D01*
X-252457Y174000D01*
X-252629Y175305D01*
X-253133Y176522D01*
X-253934Y177566D01*
X-254978Y178367D01*
X-255852Y178729D01*
Y179271D01*
X-254978Y179632D01*
X-253934Y180434D01*
X-253133Y181478D01*
X-252629Y182695D01*
X-252457Y184000D01*
X-252629Y185305D01*
X-253133Y186522D01*
X-253934Y187566D01*
X-254978Y188367D01*
X-255852Y188729D01*
Y189271D01*
X-254978Y189632D01*
X-253934Y190434D01*
X-253133Y191478D01*
X-252629Y192695D01*
X-252457Y194000D01*
X-252629Y195305D01*
X-253133Y196522D01*
X-253934Y197566D01*
X-254978Y198368D01*
X-255852Y198729D01*
Y199271D01*
X-254978Y199633D01*
X-253934Y200434D01*
X-253133Y201478D01*
X-252629Y202695D01*
X-252457Y204000D01*
X-252629Y205305D01*
X-253133Y206522D01*
X-253934Y207566D01*
X-254978Y208367D01*
X-255852Y208729D01*
Y209271D01*
X-254978Y209632D01*
X-253934Y210434D01*
X-253133Y211478D01*
X-252629Y212695D01*
X-252457Y214000D01*
X-252629Y215305D01*
X-253133Y216522D01*
X-253934Y217566D01*
X-254978Y218368D01*
X-255852Y218729D01*
Y219271D01*
X-254978Y219633D01*
X-253934Y220434D01*
X-253133Y221478D01*
X-252629Y222695D01*
X-252523Y223500D01*
X-257500D01*
X-262477D01*
X-262371Y222695D01*
X-261867Y221478D01*
X-261066Y220434D01*
X-260022Y219633D01*
X-259148Y219271D01*
Y218729D01*
X-260022Y218368D01*
X-261066Y217566D01*
X-261867Y216522D01*
X-262371Y215305D01*
X-262543Y214000D01*
X-262371Y212695D01*
X-261960Y211703D01*
X-317951Y155712D01*
X-318451Y155896D01*
Y308944D01*
X-310825Y316570D01*
X-310000Y316461D01*
X-308825Y316616D01*
X-307731Y317069D01*
X-306791Y317791D01*
X-306069Y318731D01*
X-305616Y319825D01*
X-305461Y321000D01*
X-305616Y322175D01*
X-306069Y323269D01*
X-306791Y324209D01*
X-307731Y324931D01*
X-308825Y325384D01*
X-310000Y325539D01*
D02*
G37*
G36*
X-282500Y325539D02*
X-283675Y325384D01*
X-284769Y324931D01*
X-285710Y324209D01*
X-286431Y323269D01*
X-286884Y322175D01*
X-287039Y321000D01*
X-286884Y319825D01*
X-286431Y318730D01*
X-285710Y317791D01*
X-284769Y317069D01*
X-283675Y316616D01*
X-282500Y316461D01*
X-281325Y316616D01*
X-280231Y317069D01*
X-279291Y317791D01*
X-278569Y318730D01*
X-278116Y319825D01*
X-277961Y321000D01*
X-278116Y322175D01*
X-278569Y323269D01*
X-279291Y324209D01*
X-280231Y324931D01*
X-281325Y325384D01*
X-282500Y325539D01*
D02*
G37*
G36*
X-187500Y338526D02*
X-188283Y338423D01*
X-189013Y338121D01*
X-189640Y337640D01*
X-190120Y337013D01*
X-190423Y336283D01*
X-190526Y335500D01*
X-190423Y334717D01*
X-190120Y333987D01*
X-189640Y333360D01*
X-189029Y332892D01*
Y283500D01*
X-188913Y282915D01*
X-188647Y282516D01*
X-189737Y281425D01*
X-190500Y281526D01*
X-191283Y281423D01*
X-192013Y281120D01*
X-192640Y280640D01*
X-193121Y280013D01*
X-193423Y279283D01*
X-193526Y278500D01*
X-193423Y277717D01*
X-193121Y276987D01*
X-192640Y276360D01*
X-192013Y275880D01*
X-191283Y275577D01*
X-190500Y275474D01*
X-189717Y275577D01*
X-188987Y275880D01*
X-188360Y276360D01*
X-187880Y276987D01*
X-187577Y277717D01*
X-187474Y278500D01*
X-187575Y279263D01*
X-185586Y281251D01*
X-185509Y281329D01*
X-185120Y281013D01*
X-185155Y280930D01*
X-185423Y280283D01*
X-185526Y279500D01*
X-185423Y278717D01*
X-185120Y277987D01*
X-184640Y277360D01*
X-184029Y276892D01*
Y264000D01*
X-183913Y263415D01*
X-183581Y262919D01*
X-151960Y231297D01*
X-152229Y230648D01*
X-152771D01*
X-153132Y231522D01*
X-153934Y232566D01*
X-154978Y233367D01*
X-156195Y233871D01*
X-157500Y234043D01*
X-158805Y233871D01*
X-160022Y233367D01*
X-161066Y232566D01*
X-161867Y231522D01*
X-162229Y230648D01*
X-162771D01*
X-163133Y231522D01*
X-163934Y232566D01*
X-164978Y233367D01*
X-166195Y233871D01*
X-167500Y234043D01*
X-168805Y233871D01*
X-169798Y233460D01*
X-181419Y245081D01*
X-181915Y245413D01*
X-182500Y245529D01*
X-188045D01*
X-212167Y269652D01*
X-212134Y270150D01*
X-211860Y270360D01*
X-211380Y270987D01*
X-211077Y271717D01*
X-210974Y272500D01*
X-211077Y273283D01*
X-211380Y274013D01*
X-211860Y274640D01*
X-212487Y275120D01*
X-213217Y275423D01*
X-214000Y275526D01*
X-214783Y275423D01*
X-215513Y275120D01*
X-216140Y274640D01*
X-216620Y274013D01*
X-216923Y273283D01*
X-217026Y272500D01*
X-216923Y271717D01*
X-216620Y270987D01*
X-216140Y270360D01*
X-215529Y269892D01*
Y269322D01*
X-215413Y268737D01*
X-215081Y268240D01*
X-189760Y242919D01*
X-189263Y242587D01*
X-188678Y242471D01*
X-183133D01*
X-171960Y231297D01*
X-172229Y230648D01*
X-172771D01*
X-173133Y231522D01*
X-173934Y232566D01*
X-174978Y233367D01*
X-176195Y233871D01*
X-177500Y234043D01*
X-178805Y233871D01*
X-180022Y233367D01*
X-181066Y232566D01*
X-181868Y231522D01*
X-182229Y230648D01*
X-182771D01*
X-183133Y231522D01*
X-183934Y232566D01*
X-184978Y233367D01*
X-186195Y233871D01*
X-187500Y234043D01*
X-188805Y233871D01*
X-190022Y233367D01*
X-191066Y232566D01*
X-191867Y231522D01*
X-192229Y230648D01*
X-192771D01*
X-193132Y231522D01*
X-193934Y232566D01*
X-194978Y233367D01*
X-196195Y233871D01*
X-197500Y234043D01*
X-198805Y233871D01*
X-200022Y233367D01*
X-201066Y232566D01*
X-201868Y231522D01*
X-202229Y230648D01*
X-202771D01*
X-203133Y231522D01*
X-203934Y232566D01*
X-204978Y233367D01*
X-205971Y233779D01*
Y247392D01*
X-205360Y247860D01*
X-204879Y248487D01*
X-204577Y249217D01*
X-204474Y250000D01*
X-204577Y250783D01*
X-204879Y251513D01*
X-205360Y252140D01*
X-205987Y252621D01*
X-206717Y252923D01*
X-207500Y253026D01*
X-208283Y252923D01*
X-209013Y252621D01*
X-209640Y252140D01*
X-210121Y251513D01*
X-210423Y250783D01*
X-210526Y250000D01*
X-210423Y249217D01*
X-210121Y248487D01*
X-209640Y247860D01*
X-209029Y247392D01*
Y233779D01*
X-210022Y233367D01*
X-211066Y232566D01*
X-211867Y231522D01*
X-212229Y230648D01*
X-212771D01*
X-213133Y231522D01*
X-213934Y232566D01*
X-214978Y233367D01*
X-216195Y233871D01*
X-217500Y234043D01*
X-218771Y233876D01*
X-239062Y254167D01*
X-239077Y254283D01*
X-239380Y255013D01*
X-239860Y255640D01*
X-240451Y256093D01*
Y333894D01*
X-240380Y333987D01*
X-240077Y334717D01*
X-239974Y335500D01*
X-240077Y336283D01*
X-240380Y337013D01*
X-240860Y337640D01*
X-241487Y338121D01*
X-242217Y338423D01*
X-243000Y338526D01*
X-243783Y338423D01*
X-244513Y338121D01*
X-245140Y337640D01*
X-245620Y337013D01*
X-245923Y336283D01*
X-246026Y335500D01*
X-245923Y334717D01*
X-245620Y333987D01*
X-245549Y333894D01*
Y254500D01*
X-245355Y253524D01*
X-244949Y252917D01*
X-244923Y252717D01*
X-244620Y251987D01*
X-244140Y251360D01*
X-243513Y250880D01*
X-242783Y250577D01*
X-242667Y250562D01*
X-226524Y234419D01*
X-226757Y233945D01*
X-227500Y234043D01*
X-228805Y233871D01*
X-230022Y233367D01*
X-231066Y232566D01*
X-231868Y231522D01*
X-232229Y230648D01*
X-232771D01*
X-233133Y231522D01*
X-233934Y232566D01*
X-234978Y233367D01*
X-236195Y233871D01*
X-237000Y233977D01*
Y229000D01*
Y224023D01*
X-236195Y224129D01*
X-234978Y224633D01*
X-233934Y225434D01*
X-233133Y226478D01*
X-232771Y227352D01*
X-232229D01*
X-231868Y226478D01*
X-231066Y225434D01*
X-230022Y224633D01*
X-228805Y224129D01*
X-227500Y223957D01*
X-226195Y224129D01*
X-224978Y224633D01*
X-223934Y225434D01*
X-223132Y226478D01*
X-222771Y227352D01*
X-222229D01*
X-221867Y226478D01*
X-221066Y225434D01*
X-220022Y224633D01*
X-218805Y224129D01*
X-217500Y223957D01*
X-216195Y224129D01*
X-214978Y224633D01*
X-213934Y225434D01*
X-213133Y226478D01*
X-212771Y227352D01*
X-212229D01*
X-211867Y226478D01*
X-211066Y225434D01*
X-210022Y224633D01*
X-208805Y224129D01*
X-207500Y223957D01*
X-206195Y224129D01*
X-204978Y224633D01*
X-203934Y225434D01*
X-203133Y226478D01*
X-202771Y227352D01*
X-202229D01*
X-201868Y226478D01*
X-201066Y225434D01*
X-200022Y224633D01*
X-198805Y224129D01*
X-197500Y223957D01*
X-196195Y224129D01*
X-195203Y224540D01*
X-172925Y202263D01*
X-173026Y201500D01*
X-172923Y200717D01*
X-172620Y199987D01*
X-172140Y199360D01*
X-171513Y198880D01*
X-170783Y198577D01*
X-170000Y198474D01*
X-169217Y198577D01*
X-168487Y198880D01*
X-167860Y199360D01*
X-167379Y199987D01*
X-167077Y200717D01*
X-166974Y201500D01*
X-167077Y202283D01*
X-167379Y203013D01*
X-167860Y203640D01*
X-168487Y204120D01*
X-169217Y204423D01*
X-170000Y204526D01*
X-170763Y204426D01*
X-193040Y226703D01*
X-192771Y227352D01*
X-192229D01*
X-191867Y226478D01*
X-191066Y225434D01*
X-190022Y224633D01*
X-188805Y224129D01*
X-187500Y223957D01*
X-186195Y224129D01*
X-185203Y224540D01*
X-125029Y164366D01*
Y146108D01*
X-125640Y145640D01*
X-126120Y145013D01*
X-126423Y144283D01*
X-126526Y143500D01*
X-126423Y142717D01*
X-126120Y141987D01*
X-125966Y141786D01*
X-126343Y141455D01*
X-135971Y151083D01*
Y164222D01*
X-134978Y164632D01*
X-133934Y165434D01*
X-133133Y166478D01*
X-132629Y167695D01*
X-132457Y169000D01*
X-132629Y170305D01*
X-133133Y171522D01*
X-133934Y172566D01*
X-134978Y173368D01*
X-136195Y173871D01*
X-137500Y174043D01*
X-138805Y173871D01*
X-140022Y173368D01*
X-141066Y172566D01*
X-141867Y171522D01*
X-142229Y170648D01*
X-142771D01*
X-143132Y171522D01*
X-143934Y172566D01*
X-144978Y173368D01*
X-146195Y173871D01*
X-147500Y174043D01*
X-148805Y173871D01*
X-150022Y173368D01*
X-151066Y172566D01*
X-151867Y171522D01*
X-152229Y170648D01*
X-152771D01*
X-153132Y171522D01*
X-153934Y172566D01*
X-154978Y173368D01*
X-156195Y173871D01*
X-157500Y174043D01*
X-158805Y173871D01*
X-160022Y173368D01*
X-161066Y172566D01*
X-161867Y171522D01*
X-162229Y170648D01*
X-162771D01*
X-163133Y171522D01*
X-163934Y172566D01*
X-164978Y173368D01*
X-166195Y173871D01*
X-167500Y174043D01*
X-168805Y173871D01*
X-170022Y173368D01*
X-171066Y172566D01*
X-171868Y171522D01*
X-172229Y170648D01*
X-172771D01*
X-173133Y171522D01*
X-173934Y172566D01*
X-174978Y173368D01*
X-176195Y173871D01*
X-177500Y174043D01*
X-178805Y173871D01*
X-180022Y173368D01*
X-181066Y172566D01*
X-181868Y171522D01*
X-182229Y170648D01*
X-182771D01*
X-183133Y171522D01*
X-183934Y172566D01*
X-184978Y173368D01*
X-186195Y173871D01*
X-187500Y174043D01*
X-188805Y173871D01*
X-190022Y173368D01*
X-191066Y172566D01*
X-191867Y171522D01*
X-192229Y170648D01*
X-192771D01*
X-193132Y171522D01*
X-193934Y172566D01*
X-194978Y173368D01*
X-196195Y173871D01*
X-197500Y174043D01*
X-198805Y173871D01*
X-200022Y173368D01*
X-201066Y172566D01*
X-201868Y171522D01*
X-202229Y170648D01*
X-202771D01*
X-203133Y171522D01*
X-203934Y172566D01*
X-204978Y173368D01*
X-206195Y173871D01*
X-207500Y174043D01*
X-208805Y173871D01*
X-210022Y173368D01*
X-211066Y172566D01*
X-211867Y171522D01*
X-212229Y170648D01*
X-212771D01*
X-213133Y171522D01*
X-213934Y172566D01*
X-214978Y173368D01*
X-216195Y173871D01*
X-217000Y173977D01*
Y169000D01*
Y164023D01*
X-216195Y164129D01*
X-214978Y164632D01*
X-213934Y165434D01*
X-213133Y166478D01*
X-212771Y167352D01*
X-212229D01*
X-211867Y166478D01*
X-211066Y165434D01*
X-210022Y164632D01*
X-208805Y164129D01*
X-207500Y163957D01*
X-206195Y164129D01*
X-204978Y164632D01*
X-203934Y165434D01*
X-203133Y166478D01*
X-202771Y167352D01*
X-202229D01*
X-201868Y166478D01*
X-201066Y165434D01*
X-200022Y164632D01*
X-198805Y164129D01*
X-197500Y163957D01*
X-196195Y164129D01*
X-195203Y164540D01*
X-153529Y122866D01*
Y110000D01*
X-153413Y109415D01*
X-153081Y108919D01*
X-134154Y89991D01*
X-134346Y89529D01*
X-135892D01*
X-136360Y90140D01*
X-136987Y90620D01*
X-137717Y90923D01*
X-138500Y91026D01*
X-139283Y90923D01*
X-140013Y90620D01*
X-140640Y90140D01*
X-141121Y89513D01*
X-141423Y88783D01*
X-141526Y88000D01*
X-141423Y87217D01*
X-141121Y86487D01*
X-140640Y85860D01*
X-140013Y85379D01*
X-139283Y85077D01*
X-138500Y84974D01*
X-137717Y85077D01*
X-136987Y85379D01*
X-136360Y85860D01*
X-135892Y86471D01*
X-133633D01*
X-105650Y58487D01*
X-105962Y58092D01*
X-107394Y58970D01*
X-109257Y59741D01*
X-111218Y60212D01*
X-113228Y60370D01*
X-115239Y60212D01*
X-117199Y59741D01*
X-119062Y58970D01*
X-120782Y57916D01*
X-122315Y56607D01*
X-123625Y55073D01*
X-124678Y53354D01*
X-125450Y51491D01*
X-125921Y49530D01*
X-126079Y47520D01*
X-125921Y45509D01*
X-125450Y43549D01*
X-124678Y41686D01*
X-123625Y39966D01*
X-122315Y38433D01*
X-120782Y37123D01*
X-119062Y36070D01*
X-117199Y35298D01*
X-115239Y34827D01*
X-113228Y34669D01*
X-111218Y34827D01*
X-109257Y35298D01*
X-107394Y36070D01*
X-105675Y37123D01*
X-104142Y38433D01*
X-102832Y39966D01*
X-101778Y41686D01*
X-101007Y43549D01*
X-100536Y45509D01*
X-100378Y47520D01*
X-100536Y49530D01*
X-101007Y51491D01*
X-101778Y53354D01*
X-102656Y54786D01*
X-102261Y55098D01*
X-96510Y49348D01*
Y41539D01*
X-97121Y41070D01*
X-97602Y40444D01*
X-97904Y39714D01*
X-98007Y38931D01*
X-97904Y38148D01*
X-97602Y37418D01*
X-97121Y36791D01*
X-96494Y36310D01*
X-95764Y36008D01*
X-94981Y35905D01*
X-94198Y36008D01*
X-93468Y36310D01*
X-92842Y36791D01*
X-92361Y37418D01*
X-92058Y38148D01*
X-91955Y38931D01*
X-92058Y39714D01*
X-92361Y40444D01*
X-92842Y41070D01*
X-93452Y41539D01*
Y48636D01*
X-92990Y48827D01*
X-69963Y25800D01*
X-69995Y25301D01*
X-70140Y25190D01*
X-70621Y24563D01*
X-70923Y23833D01*
X-71026Y23050D01*
X-70923Y22267D01*
X-70621Y21537D01*
X-70140Y20911D01*
X-69513Y20430D01*
X-68783Y20128D01*
X-68000Y20024D01*
X-67217Y20128D01*
X-66487Y20430D01*
X-65860Y20911D01*
X-65380Y21537D01*
X-65077Y22267D01*
X-64974Y23050D01*
X-65077Y23833D01*
X-65380Y24563D01*
X-65860Y25190D01*
X-66471Y25658D01*
Y26000D01*
X-66587Y26585D01*
X-66919Y27081D01*
X-108846Y69009D01*
X-108654Y69471D01*
X-108108D01*
X-107640Y68860D01*
X-107013Y68379D01*
X-106283Y68077D01*
X-105500Y67974D01*
X-104717Y68077D01*
X-103987Y68379D01*
X-103360Y68860D01*
X-102880Y69487D01*
X-102577Y70217D01*
X-102474Y71000D01*
X-102577Y71783D01*
X-102880Y72513D01*
X-103360Y73140D01*
X-103987Y73620D01*
X-104717Y73923D01*
X-105500Y74026D01*
X-106283Y73923D01*
X-107013Y73620D01*
X-107640Y73140D01*
X-108108Y72529D01*
X-109538D01*
X-148471Y111462D01*
Y131500D01*
X-148587Y132085D01*
X-148919Y132581D01*
X-183040Y166702D01*
X-182771Y167352D01*
X-182229D01*
X-181868Y166478D01*
X-181066Y165434D01*
X-180022Y164632D01*
X-178805Y164129D01*
X-177500Y163957D01*
X-176195Y164129D01*
X-174978Y164632D01*
X-173934Y165434D01*
X-173133Y166478D01*
X-172771Y167352D01*
X-172229D01*
X-171868Y166478D01*
X-171066Y165434D01*
X-170022Y164632D01*
X-168805Y164129D01*
X-167500Y163957D01*
X-166195Y164129D01*
X-164978Y164632D01*
X-163934Y165434D01*
X-163133Y166478D01*
X-162771Y167352D01*
X-162229D01*
X-161867Y166478D01*
X-161066Y165434D01*
X-160022Y164632D01*
X-158805Y164129D01*
X-157500Y163957D01*
X-156195Y164129D01*
X-154978Y164632D01*
X-153934Y165434D01*
X-153132Y166478D01*
X-152771Y167352D01*
X-152229D01*
X-151867Y166478D01*
X-151066Y165434D01*
X-150022Y164632D01*
X-149029Y164222D01*
Y155500D01*
X-148913Y154915D01*
X-148581Y154419D01*
X-131304Y137141D01*
X-131405Y136379D01*
X-131301Y135596D01*
X-130999Y134866D01*
X-130518Y134239D01*
X-129892Y133758D01*
X-129162Y133456D01*
X-128379Y133353D01*
X-127595Y133456D01*
X-126866Y133758D01*
X-126239Y134239D01*
X-125758Y134866D01*
X-125456Y135596D01*
X-125353Y136379D01*
X-125378Y136567D01*
X-125047Y136940D01*
X-124577Y136931D01*
X-124140Y136360D01*
X-123513Y135880D01*
X-122783Y135577D01*
X-122000Y135474D01*
X-121217Y135577D01*
X-120487Y135880D01*
X-119860Y136360D01*
X-119379Y136987D01*
X-119077Y137717D01*
X-118974Y138500D01*
X-119077Y139283D01*
X-119379Y140013D01*
X-119860Y140640D01*
X-120487Y141121D01*
X-120811Y141255D01*
X-120974Y141864D01*
X-120879Y141987D01*
X-120577Y142717D01*
X-120474Y143500D01*
X-120577Y144283D01*
X-120879Y145013D01*
X-121360Y145640D01*
X-121971Y146108D01*
Y165000D01*
X-122087Y165585D01*
X-122419Y166081D01*
X-183040Y226703D01*
X-182771Y227352D01*
X-182229D01*
X-181868Y226478D01*
X-181066Y225434D01*
X-180022Y224633D01*
X-178805Y224129D01*
X-177500Y223957D01*
X-176195Y224129D01*
X-175203Y224540D01*
X-80529Y129867D01*
Y86133D01*
X-96237Y70425D01*
X-97000Y70526D01*
X-97783Y70423D01*
X-98513Y70121D01*
X-99140Y69640D01*
X-99620Y69013D01*
X-99923Y68283D01*
X-100026Y67500D01*
X-99923Y66717D01*
X-99620Y65987D01*
X-99140Y65360D01*
X-98513Y64880D01*
X-97783Y64577D01*
X-97000Y64474D01*
X-96217Y64577D01*
X-95487Y64880D01*
X-94860Y65360D01*
X-94380Y65987D01*
X-94077Y66717D01*
X-93974Y67500D01*
X-94074Y68263D01*
X-77919Y84419D01*
X-77587Y84915D01*
X-77471Y85500D01*
Y130500D01*
X-77587Y131085D01*
X-77919Y131581D01*
X-173040Y226703D01*
X-172771Y227352D01*
X-172229D01*
X-171868Y226478D01*
X-171066Y225434D01*
X-170022Y224633D01*
X-168805Y224129D01*
X-167500Y223957D01*
X-166195Y224129D01*
X-164978Y224633D01*
X-163934Y225434D01*
X-163133Y226478D01*
X-162771Y227352D01*
X-162229D01*
X-161867Y226478D01*
X-161066Y225434D01*
X-160022Y224633D01*
X-158805Y224129D01*
X-157500Y223957D01*
X-156195Y224129D01*
X-155202Y224540D01*
X-136425Y205763D01*
X-136526Y205000D01*
X-136423Y204217D01*
X-136120Y203487D01*
X-135640Y202860D01*
X-135013Y202379D01*
X-134283Y202077D01*
X-133500Y201974D01*
X-132717Y202077D01*
X-131987Y202379D01*
X-131360Y202860D01*
X-130879Y203487D01*
X-130577Y204217D01*
X-130474Y205000D01*
X-130577Y205783D01*
X-130879Y206513D01*
X-131360Y207140D01*
X-131987Y207621D01*
X-132717Y207923D01*
X-133500Y208026D01*
X-134263Y207926D01*
X-153040Y226703D01*
X-152771Y227352D01*
X-152229D01*
X-151867Y226478D01*
X-151066Y225434D01*
X-150022Y224633D01*
X-148805Y224129D01*
X-147500Y223957D01*
X-146195Y224129D01*
X-144978Y224633D01*
X-143934Y225434D01*
X-143132Y226478D01*
X-142771Y227352D01*
X-142229D01*
X-141867Y226478D01*
X-141066Y225434D01*
X-140022Y224633D01*
X-138805Y224129D01*
X-137500Y223957D01*
X-136195Y224129D01*
X-135203Y224540D01*
X-120425Y209763D01*
X-120526Y209000D01*
X-120423Y208217D01*
X-120121Y207487D01*
X-119640Y206860D01*
X-119013Y206380D01*
X-118283Y206077D01*
X-117500Y205974D01*
X-116717Y206077D01*
X-115987Y206380D01*
X-115360Y206860D01*
X-114880Y207487D01*
X-114577Y208217D01*
X-114474Y209000D01*
X-114577Y209783D01*
X-114880Y210513D01*
X-115360Y211140D01*
X-115987Y211620D01*
X-116717Y211923D01*
X-117500Y212026D01*
X-118263Y211926D01*
X-133040Y226703D01*
X-132629Y227695D01*
X-132457Y229000D01*
X-132629Y230305D01*
X-133133Y231522D01*
X-133934Y232566D01*
X-134978Y233367D01*
X-136195Y233871D01*
X-137500Y234043D01*
X-138805Y233871D01*
X-140022Y233367D01*
X-141066Y232566D01*
X-141867Y231522D01*
X-142229Y230648D01*
X-142771D01*
X-143132Y231522D01*
X-143934Y232566D01*
X-144978Y233367D01*
X-146195Y233871D01*
X-147500Y234043D01*
X-148805Y233871D01*
X-149797Y233460D01*
X-180971Y264633D01*
Y276892D01*
X-180360Y277360D01*
X-179879Y277987D01*
X-179577Y278717D01*
X-179474Y279500D01*
X-179577Y280283D01*
X-179879Y281013D01*
X-180360Y281640D01*
X-180987Y282120D01*
X-181717Y282423D01*
X-182500Y282526D01*
X-183283Y282423D01*
X-184013Y282120D01*
X-184640Y281640D01*
X-184871Y281338D01*
X-185277Y281630D01*
X-185215Y281723D01*
X-185087Y281915D01*
X-184971Y282500D01*
X-185087Y283085D01*
X-185419Y283581D01*
X-185971Y284134D01*
Y332892D01*
X-185360Y333360D01*
X-184880Y333987D01*
X-184577Y334717D01*
X-184474Y335500D01*
X-184577Y336283D01*
X-184880Y337013D01*
X-185360Y337640D01*
X-185987Y338121D01*
X-186717Y338423D01*
X-187500Y338526D01*
D02*
G37*
G36*
X-40868Y272658D02*
X-41651Y272555D01*
X-42381Y272252D01*
X-43008Y271772D01*
X-43489Y271145D01*
X-43791Y270415D01*
X-43894Y269632D01*
X-43878Y269506D01*
X-78874Y234509D01*
X-79000Y234526D01*
X-79783Y234423D01*
X-80513Y234120D01*
X-81140Y233640D01*
X-81621Y233013D01*
X-81923Y232283D01*
X-82026Y231500D01*
X-81923Y230717D01*
X-81621Y229987D01*
X-81140Y229360D01*
X-80513Y228879D01*
X-79783Y228577D01*
X-79000Y228474D01*
X-78217Y228577D01*
X-77487Y228879D01*
X-76860Y229360D01*
X-76380Y229987D01*
X-76077Y230717D01*
X-75974Y231500D01*
X-75991Y231626D01*
X-40994Y266622D01*
X-40868Y266606D01*
X-40085Y266709D01*
X-39355Y267011D01*
X-38728Y267492D01*
X-38248Y268119D01*
X-37945Y268849D01*
X-37842Y269632D01*
X-37945Y270415D01*
X-38248Y271145D01*
X-38728Y271772D01*
X-39355Y272252D01*
X-40085Y272555D01*
X-40868Y272658D01*
D02*
G37*
G36*
X-257000Y228977D02*
Y224500D01*
X-252523D01*
X-252629Y225305D01*
X-253133Y226522D01*
X-253934Y227566D01*
X-254978Y228367D01*
X-256195Y228871D01*
X-257000Y228977D01*
D02*
G37*
G36*
X-258000D02*
X-258805Y228871D01*
X-260022Y228367D01*
X-261066Y227566D01*
X-261867Y226522D01*
X-262371Y225305D01*
X-262477Y224500D01*
X-258000D01*
Y228977D01*
D02*
G37*
G36*
X-247500Y234043D02*
X-248805Y233871D01*
X-250022Y233367D01*
X-251066Y232566D01*
X-251868Y231522D01*
X-252371Y230305D01*
X-252543Y229000D01*
X-252371Y227695D01*
X-251868Y226478D01*
X-251066Y225434D01*
X-250022Y224633D01*
X-248805Y224129D01*
X-247500Y223957D01*
X-246195Y224129D01*
X-244978Y224633D01*
X-243934Y225434D01*
X-243132Y226478D01*
X-242771Y227352D01*
X-242229D01*
X-241867Y226478D01*
X-241066Y225434D01*
X-240022Y224633D01*
X-238805Y224129D01*
X-238000Y224023D01*
Y229000D01*
Y233977D01*
X-238805Y233871D01*
X-240022Y233367D01*
X-241066Y232566D01*
X-241867Y231522D01*
X-242229Y230648D01*
X-242771D01*
X-243132Y231522D01*
X-243934Y232566D01*
X-244978Y233367D01*
X-246195Y233871D01*
X-247500Y234043D01*
D02*
G37*
G36*
X-202500Y224043D02*
X-203805Y223871D01*
X-205022Y223368D01*
X-206066Y222566D01*
X-206868Y221522D01*
X-207229Y220648D01*
X-207771D01*
X-208133Y221522D01*
X-208934Y222566D01*
X-209978Y223368D01*
X-211195Y223871D01*
X-212500Y224043D01*
X-213805Y223871D01*
X-215022Y223368D01*
X-216066Y222566D01*
X-216867Y221522D01*
X-217371Y220305D01*
X-217543Y219000D01*
X-217371Y217695D01*
X-216867Y216478D01*
X-216066Y215434D01*
X-215022Y214633D01*
X-213805Y214129D01*
X-212500Y213957D01*
X-211195Y214129D01*
X-209978Y214633D01*
X-208934Y215434D01*
X-208133Y216478D01*
X-207771Y217352D01*
X-207229D01*
X-206868Y216478D01*
X-206066Y215434D01*
X-205022Y214633D01*
X-203805Y214129D01*
X-202500Y213957D01*
X-201195Y214129D01*
X-199978Y214633D01*
X-198934Y215434D01*
X-198133Y216478D01*
X-197629Y217695D01*
X-197457Y219000D01*
X-197629Y220305D01*
X-198133Y221522D01*
X-198934Y222566D01*
X-199978Y223368D01*
X-201195Y223871D01*
X-202500Y224043D01*
D02*
G37*
G36*
X-26457Y246079D02*
X-28467Y245921D01*
X-30428Y245450D01*
X-32291Y244678D01*
X-34010Y243625D01*
X-35544Y242315D01*
X-36853Y240782D01*
X-37907Y239062D01*
X-38678Y237199D01*
X-39149Y235239D01*
X-39307Y233228D01*
X-39149Y231218D01*
X-38678Y229257D01*
X-37907Y227394D01*
X-36853Y225675D01*
X-35544Y224142D01*
X-34010Y222832D01*
X-32291Y221778D01*
X-30428Y221007D01*
X-28467Y220536D01*
X-26457Y220378D01*
X-24446Y220536D01*
X-22486Y221007D01*
X-20623Y221778D01*
X-18903Y222832D01*
X-17370Y224142D01*
X-16060Y225675D01*
X-15007Y227394D01*
X-14235Y229257D01*
X-13764Y231218D01*
X-13606Y233228D01*
X-13764Y235239D01*
X-14235Y237199D01*
X-15007Y239062D01*
X-16060Y240782D01*
X-17370Y242315D01*
X-18903Y243625D01*
X-20623Y244678D01*
X-22486Y245450D01*
X-24446Y245921D01*
X-26457Y246079D01*
D02*
G37*
G36*
X-41000Y217526D02*
X-41783Y217423D01*
X-42513Y217121D01*
X-43140Y216640D01*
X-43608Y216029D01*
X-69892D01*
X-70360Y216640D01*
X-70987Y217121D01*
X-71717Y217423D01*
X-72500Y217526D01*
X-73283Y217423D01*
X-74013Y217121D01*
X-74640Y216640D01*
X-75121Y216013D01*
X-75423Y215283D01*
X-75526Y214500D01*
X-75423Y213717D01*
X-75121Y212987D01*
X-74640Y212360D01*
X-74013Y211879D01*
X-73283Y211577D01*
X-72500Y211474D01*
X-71717Y211577D01*
X-70987Y211879D01*
X-70360Y212360D01*
X-69892Y212971D01*
X-43608D01*
X-43140Y212360D01*
X-42513Y211879D01*
X-41783Y211577D01*
X-41000Y211474D01*
X-40217Y211577D01*
X-39487Y211879D01*
X-38860Y212360D01*
X-38379Y212987D01*
X-38077Y213717D01*
X-37974Y214500D01*
X-38077Y215283D01*
X-38379Y216013D01*
X-38860Y216640D01*
X-39487Y217121D01*
X-40217Y217423D01*
X-41000Y217526D01*
D02*
G37*
G36*
X-107000Y248026D02*
X-107783Y247923D01*
X-108513Y247621D01*
X-109140Y247140D01*
X-109620Y246513D01*
X-109923Y245783D01*
X-110026Y245000D01*
X-109923Y244217D01*
X-109620Y243487D01*
X-109140Y242860D01*
X-108529Y242392D01*
Y204108D01*
X-109140Y203640D01*
X-109620Y203013D01*
X-109923Y202283D01*
X-110026Y201500D01*
X-109923Y200717D01*
X-109620Y199987D01*
X-109140Y199360D01*
X-108513Y198880D01*
X-107783Y198577D01*
X-107000Y198474D01*
X-106217Y198577D01*
X-105487Y198880D01*
X-104860Y199360D01*
X-104379Y199987D01*
X-104077Y200717D01*
X-103974Y201500D01*
X-104077Y202283D01*
X-104379Y203013D01*
X-104860Y203640D01*
X-105471Y204108D01*
Y242392D01*
X-104860Y242860D01*
X-104379Y243487D01*
X-104077Y244217D01*
X-103974Y245000D01*
X-104077Y245783D01*
X-104379Y246513D01*
X-104860Y247140D01*
X-105487Y247621D01*
X-106217Y247923D01*
X-107000Y248026D01*
D02*
G37*
G36*
X-227500Y174043D02*
X-228805Y173871D01*
X-230022Y173368D01*
X-231066Y172566D01*
X-231868Y171522D01*
X-232229Y170648D01*
X-232771D01*
X-233133Y171522D01*
X-233934Y172566D01*
X-234978Y173368D01*
X-236195Y173871D01*
X-237500Y174043D01*
X-238805Y173871D01*
X-240022Y173368D01*
X-241066Y172566D01*
X-241867Y171522D01*
X-242229Y170648D01*
X-242771D01*
X-243132Y171522D01*
X-243934Y172566D01*
X-244978Y173368D01*
X-246195Y173871D01*
X-247500Y174043D01*
X-248805Y173871D01*
X-250022Y173368D01*
X-251066Y172566D01*
X-251868Y171522D01*
X-252371Y170305D01*
X-252543Y169000D01*
X-252371Y167695D01*
X-251868Y166478D01*
X-251066Y165434D01*
X-250022Y164632D01*
X-248805Y164129D01*
X-247500Y163957D01*
X-246195Y164129D01*
X-244978Y164632D01*
X-243934Y165434D01*
X-243132Y166478D01*
X-242771Y167352D01*
X-242229D01*
X-241867Y166478D01*
X-241066Y165434D01*
X-240022Y164632D01*
X-238805Y164129D01*
X-237500Y163957D01*
X-236195Y164129D01*
X-234978Y164632D01*
X-233934Y165434D01*
X-233133Y166478D01*
X-232771Y167352D01*
X-232229D01*
X-231868Y166478D01*
X-231066Y165434D01*
X-230022Y164632D01*
X-228805Y164129D01*
X-227500Y163957D01*
X-226195Y164129D01*
X-224978Y164632D01*
X-223934Y165434D01*
X-223132Y166478D01*
X-222771Y167352D01*
X-222229D01*
X-221867Y166478D01*
X-221066Y165434D01*
X-220022Y164632D01*
X-218805Y164129D01*
X-218000Y164023D01*
Y169000D01*
Y173977D01*
X-218805Y173871D01*
X-220022Y173368D01*
X-221066Y172566D01*
X-221867Y171522D01*
X-222229Y170648D01*
X-222771D01*
X-223132Y171522D01*
X-223934Y172566D01*
X-224978Y173368D01*
X-226195Y173871D01*
X-227500Y174043D01*
D02*
G37*
G36*
X-194000Y145526D02*
X-194783Y145423D01*
X-195513Y145121D01*
X-196140Y144640D01*
X-196621Y144013D01*
X-196923Y143283D01*
X-197026Y142500D01*
X-196923Y141717D01*
X-196621Y140987D01*
X-196140Y140360D01*
X-195529Y139892D01*
Y93000D01*
X-195413Y92415D01*
X-195081Y91919D01*
X-176926Y73763D01*
X-177026Y73000D01*
X-176923Y72217D01*
X-176620Y71487D01*
X-176140Y70860D01*
X-175513Y70380D01*
X-174783Y70077D01*
X-174000Y69974D01*
X-173217Y70077D01*
X-172487Y70380D01*
X-171860Y70860D01*
X-171379Y71487D01*
X-171077Y72217D01*
X-170974Y73000D01*
X-171077Y73783D01*
X-171379Y74513D01*
X-171860Y75140D01*
X-172487Y75621D01*
X-173217Y75923D01*
X-174000Y76026D01*
X-174763Y75925D01*
X-192471Y93634D01*
Y117535D01*
X-191971Y117594D01*
X-191907Y117328D01*
X-191135Y115465D01*
X-190081Y113746D01*
X-188772Y112212D01*
X-187238Y110903D01*
X-185519Y109849D01*
X-183656Y109078D01*
X-181695Y108607D01*
X-179685Y108449D01*
X-177675Y108607D01*
X-175714Y109078D01*
X-173851Y109849D01*
X-172132Y110903D01*
X-170598Y112212D01*
X-169289Y113746D01*
X-168235Y115465D01*
X-167463Y117328D01*
X-166993Y119289D01*
X-166834Y121299D01*
X-166993Y123310D01*
X-167463Y125270D01*
X-168235Y127133D01*
X-169289Y128853D01*
X-170598Y130386D01*
X-172132Y131696D01*
X-173851Y132749D01*
X-175714Y133521D01*
X-177675Y133992D01*
X-179685Y134150D01*
X-181695Y133992D01*
X-183656Y133521D01*
X-185519Y132749D01*
X-187238Y131696D01*
X-188772Y130386D01*
X-190081Y128853D01*
X-191135Y127133D01*
X-191907Y125270D01*
X-191971Y125004D01*
X-192471Y125063D01*
Y139892D01*
X-191860Y140360D01*
X-191379Y140987D01*
X-191077Y141717D01*
X-190974Y142500D01*
X-191077Y143283D01*
X-191379Y144013D01*
X-191860Y144640D01*
X-192487Y145121D01*
X-193217Y145423D01*
X-194000Y145526D01*
D02*
G37*
G36*
X-160981Y113957D02*
X-161764Y113854D01*
X-162494Y113551D01*
X-163121Y113070D01*
X-163602Y112444D01*
X-163904Y111714D01*
X-164007Y110931D01*
X-163923Y110291D01*
X-168581Y105632D01*
X-168913Y105136D01*
X-169029Y104550D01*
Y90608D01*
X-169640Y90140D01*
X-170121Y89513D01*
X-170423Y88783D01*
X-170526Y88000D01*
X-170423Y87217D01*
X-170121Y86487D01*
X-169640Y85860D01*
X-169013Y85379D01*
X-168283Y85077D01*
X-167500Y84974D01*
X-166717Y85077D01*
X-165987Y85379D01*
X-165360Y85860D01*
X-164880Y86487D01*
X-164577Y87217D01*
X-164474Y88000D01*
X-164577Y88783D01*
X-164880Y89513D01*
X-165360Y90140D01*
X-165971Y90608D01*
Y103917D01*
X-161846Y108042D01*
X-161764Y108008D01*
X-160981Y107905D01*
X-160198Y108008D01*
X-159468Y108310D01*
X-158842Y108791D01*
X-158361Y109418D01*
X-158058Y110148D01*
X-157955Y110931D01*
X-158058Y111714D01*
X-158361Y112444D01*
X-158842Y113070D01*
X-159468Y113551D01*
X-160198Y113854D01*
X-160981Y113957D01*
D02*
G37*
G36*
X-138000Y120526D02*
X-138783Y120423D01*
X-139513Y120121D01*
X-140140Y119640D01*
X-140621Y119013D01*
X-140923Y118283D01*
X-141026Y117500D01*
X-140923Y116717D01*
X-140621Y115987D01*
X-140140Y115360D01*
X-139513Y114880D01*
X-138783Y114577D01*
X-138667Y114562D01*
X-114302Y90198D01*
X-113476Y89645D01*
X-112500Y89451D01*
X-87606D01*
X-87513Y89380D01*
X-86783Y89077D01*
X-86000Y88974D01*
X-85217Y89077D01*
X-84487Y89380D01*
X-83860Y89860D01*
X-83380Y90487D01*
X-83077Y91217D01*
X-82974Y92000D01*
X-83077Y92783D01*
X-83380Y93513D01*
X-83860Y94140D01*
X-84487Y94621D01*
X-85217Y94923D01*
X-86000Y95026D01*
X-86783Y94923D01*
X-87513Y94621D01*
X-87606Y94549D01*
X-111444D01*
X-135062Y118167D01*
X-135077Y118283D01*
X-135380Y119013D01*
X-135860Y119640D01*
X-136487Y120121D01*
X-137217Y120423D01*
X-138000Y120526D01*
D02*
G37*
G36*
X-200000Y149526D02*
X-200783Y149423D01*
X-201513Y149120D01*
X-202140Y148640D01*
X-202621Y148013D01*
X-202923Y147283D01*
X-203026Y146500D01*
X-202923Y145717D01*
X-202621Y144987D01*
X-202140Y144360D01*
X-201529Y143892D01*
Y89500D01*
X-201413Y88915D01*
X-201081Y88419D01*
X-184925Y72263D01*
X-185026Y71500D01*
X-184923Y70717D01*
X-184620Y69987D01*
X-184140Y69360D01*
X-183513Y68879D01*
X-182783Y68577D01*
X-182000Y68474D01*
X-181217Y68577D01*
X-180487Y68879D01*
X-179860Y69360D01*
X-179379Y69987D01*
X-179077Y70717D01*
X-178974Y71500D01*
X-179077Y72283D01*
X-179379Y73013D01*
X-179860Y73640D01*
X-180487Y74120D01*
X-181217Y74423D01*
X-182000Y74526D01*
X-182763Y74426D01*
X-198471Y90134D01*
Y143892D01*
X-197860Y144360D01*
X-197380Y144987D01*
X-197077Y145717D01*
X-196974Y146500D01*
X-197077Y147283D01*
X-197380Y148013D01*
X-197860Y148640D01*
X-198487Y149120D01*
X-199217Y149423D01*
X-200000Y149526D01*
D02*
G37*
G36*
X-247000Y71535D02*
X-248044Y71397D01*
X-249017Y70994D01*
X-249853Y70353D01*
X-250494Y69517D01*
X-250897Y68544D01*
X-251034Y67500D01*
X-250897Y66456D01*
X-250494Y65483D01*
X-249853Y64647D01*
X-249017Y64006D01*
X-248044Y63603D01*
X-247000Y63465D01*
X-245956Y63603D01*
X-244983Y64006D01*
X-244147Y64647D01*
X-243506Y65483D01*
X-243103Y66456D01*
X-242966Y67500D01*
X-243103Y68544D01*
X-243506Y69517D01*
X-244147Y70353D01*
X-244983Y70994D01*
X-245956Y71397D01*
X-247000Y71535D01*
D02*
G37*
G36*
Y61535D02*
X-248044Y61397D01*
X-249017Y60994D01*
X-249853Y60353D01*
X-250494Y59517D01*
X-250897Y58544D01*
X-251034Y57500D01*
X-250897Y56456D01*
X-250494Y55483D01*
X-249853Y54647D01*
X-249017Y54006D01*
X-248044Y53603D01*
X-247000Y53465D01*
X-245956Y53603D01*
X-244983Y54006D01*
X-244147Y54647D01*
X-243506Y55483D01*
X-243103Y56456D01*
X-242966Y57500D01*
X-243103Y58544D01*
X-243506Y59517D01*
X-244147Y60353D01*
X-244983Y60994D01*
X-245956Y61397D01*
X-247000Y61535D01*
D02*
G37*
G36*
X-158000Y52891D02*
X-158878Y52776D01*
X-159696Y52437D01*
X-160398Y51898D01*
X-160937Y51196D01*
X-161276Y50378D01*
X-161391Y49500D01*
X-161276Y48622D01*
X-160937Y47804D01*
X-160398Y47102D01*
X-159696Y46563D01*
X-158878Y46224D01*
X-158000Y46109D01*
X-157122Y46224D01*
X-156304Y46563D01*
X-155602Y47102D01*
X-155063Y47804D01*
X-154724Y48622D01*
X-154609Y49500D01*
X-154724Y50378D01*
X-155063Y51196D01*
X-155602Y51898D01*
X-156304Y52437D01*
X-157122Y52776D01*
X-158000Y52891D01*
D02*
G37*
G36*
X-176000D02*
X-176878Y52776D01*
X-177696Y52437D01*
X-178398Y51898D01*
X-178937Y51196D01*
X-179276Y50378D01*
X-179391Y49500D01*
X-179276Y48622D01*
X-178937Y47804D01*
X-178398Y47102D01*
X-177696Y46563D01*
X-176878Y46224D01*
X-176000Y46109D01*
X-175122Y46224D01*
X-174304Y46563D01*
X-173602Y47102D01*
X-173063Y47804D01*
X-172724Y48622D01*
X-172609Y49500D01*
X-172724Y50378D01*
X-173063Y51196D01*
X-173602Y51898D01*
X-174304Y52437D01*
X-175122Y52776D01*
X-176000Y52891D01*
D02*
G37*
G36*
X-194000D02*
X-194878Y52776D01*
X-195696Y52437D01*
X-196398Y51898D01*
X-196937Y51196D01*
X-197276Y50378D01*
X-197391Y49500D01*
X-197276Y48622D01*
X-196937Y47804D01*
X-196398Y47102D01*
X-195696Y46563D01*
X-194878Y46224D01*
X-194000Y46109D01*
X-193122Y46224D01*
X-192304Y46563D01*
X-191602Y47102D01*
X-191063Y47804D01*
X-190724Y48622D01*
X-190609Y49500D01*
X-190724Y50378D01*
X-191063Y51196D01*
X-191602Y51898D01*
X-192304Y52437D01*
X-193122Y52776D01*
X-194000Y52891D01*
D02*
G37*
G36*
X-247000Y51534D02*
X-248044Y51397D01*
X-249017Y50994D01*
X-249853Y50353D01*
X-250494Y49517D01*
X-250897Y48544D01*
X-251034Y47500D01*
X-250897Y46456D01*
X-250494Y45483D01*
X-249853Y44647D01*
X-249017Y44006D01*
X-248044Y43603D01*
X-247000Y43466D01*
X-245956Y43603D01*
X-244983Y44006D01*
X-244147Y44647D01*
X-243506Y45483D01*
X-243103Y46456D01*
X-242966Y47500D01*
X-243103Y48544D01*
X-243506Y49517D01*
X-244147Y50353D01*
X-244983Y50994D01*
X-245956Y51397D01*
X-247000Y51534D01*
D02*
G37*
G36*
X-157500Y44558D02*
Y41732D01*
X-154675D01*
X-154724Y42110D01*
X-155063Y42928D01*
X-155602Y43630D01*
X-156304Y44169D01*
X-157122Y44508D01*
X-157500Y44558D01*
D02*
G37*
G36*
X-158500D02*
X-158878Y44508D01*
X-159696Y44169D01*
X-160398Y43630D01*
X-160937Y42928D01*
X-161276Y42110D01*
X-161325Y41732D01*
X-158500D01*
Y44558D01*
D02*
G37*
G36*
X-175500D02*
Y41732D01*
X-172675D01*
X-172724Y42110D01*
X-173063Y42928D01*
X-173602Y43630D01*
X-174304Y44169D01*
X-175122Y44508D01*
X-175500Y44558D01*
D02*
G37*
G36*
X-176500D02*
X-176878Y44508D01*
X-177696Y44169D01*
X-178398Y43630D01*
X-178937Y42928D01*
X-179276Y42110D01*
X-179325Y41732D01*
X-176500D01*
Y44558D01*
D02*
G37*
G36*
X-193500D02*
Y41732D01*
X-190675D01*
X-190724Y42110D01*
X-191063Y42928D01*
X-191602Y43630D01*
X-192304Y44169D01*
X-193122Y44508D01*
X-193500Y44558D01*
D02*
G37*
G36*
X-194500D02*
X-194878Y44508D01*
X-195696Y44169D01*
X-196398Y43630D01*
X-196937Y42928D01*
X-197276Y42110D01*
X-197325Y41732D01*
X-194500D01*
Y44558D01*
D02*
G37*
G36*
X-70000Y111026D02*
X-70783Y110923D01*
X-71513Y110620D01*
X-72140Y110140D01*
X-72620Y109513D01*
X-72923Y108783D01*
X-73026Y108000D01*
X-72923Y107217D01*
X-72620Y106487D01*
X-72549Y106394D01*
Y48692D01*
X-73802Y47438D01*
X-74355Y46611D01*
X-74423Y46271D01*
X-74620Y46013D01*
X-74923Y45283D01*
X-75026Y44500D01*
X-74923Y43717D01*
X-74620Y42987D01*
X-74140Y42360D01*
X-73513Y41879D01*
X-72783Y41577D01*
X-72000Y41474D01*
X-71217Y41577D01*
X-70487Y41879D01*
X-69860Y42360D01*
X-69380Y42987D01*
X-69077Y43717D01*
X-68974Y44500D01*
X-69039Y44992D01*
X-68198Y45834D01*
X-67645Y46661D01*
X-67451Y47636D01*
Y106394D01*
X-67379Y106487D01*
X-67077Y107217D01*
X-66974Y108000D01*
X-67077Y108783D01*
X-67379Y109513D01*
X-67860Y110140D01*
X-68487Y110620D01*
X-69217Y110923D01*
X-70000Y111026D01*
D02*
G37*
G36*
X-334000Y43473D02*
Y39500D01*
X-330027D01*
X-330116Y40175D01*
X-330569Y41269D01*
X-331291Y42209D01*
X-332231Y42931D01*
X-333325Y43384D01*
X-334000Y43473D01*
D02*
G37*
G36*
X-335000D02*
X-335675Y43384D01*
X-336770Y42931D01*
X-337709Y42209D01*
X-338431Y41269D01*
X-338884Y40175D01*
X-338973Y39500D01*
X-335000D01*
Y43473D01*
D02*
G37*
G36*
X-154675Y40732D02*
X-157500D01*
Y37907D01*
X-157122Y37957D01*
X-156304Y38295D01*
X-155602Y38834D01*
X-155063Y39537D01*
X-154724Y40355D01*
X-154675Y40732D01*
D02*
G37*
G36*
X-158500D02*
X-161325D01*
X-161276Y40355D01*
X-160937Y39537D01*
X-160398Y38834D01*
X-159696Y38295D01*
X-158878Y37957D01*
X-158500Y37907D01*
Y40732D01*
D02*
G37*
G36*
X-172675D02*
X-175500D01*
Y37907D01*
X-175122Y37957D01*
X-174304Y38295D01*
X-173602Y38834D01*
X-173063Y39537D01*
X-172724Y40355D01*
X-172675Y40732D01*
D02*
G37*
G36*
X-176500D02*
X-179325D01*
X-179276Y40355D01*
X-178937Y39537D01*
X-178398Y38834D01*
X-177696Y38295D01*
X-176878Y37957D01*
X-176500Y37907D01*
Y40732D01*
D02*
G37*
G36*
X-190675D02*
X-193500D01*
Y37907D01*
X-193122Y37957D01*
X-192304Y38295D01*
X-191602Y38834D01*
X-191063Y39537D01*
X-190724Y40355D01*
X-190675Y40732D01*
D02*
G37*
G36*
X-194500D02*
X-197325D01*
X-197276Y40355D01*
X-196937Y39537D01*
X-196398Y38834D01*
X-195696Y38295D01*
X-194878Y37957D01*
X-194500Y37907D01*
Y40732D01*
D02*
G37*
G36*
X-209500Y120026D02*
X-210283Y119923D01*
X-211013Y119621D01*
X-211640Y119140D01*
X-212121Y118513D01*
X-212423Y117783D01*
X-212526Y117000D01*
X-212423Y116217D01*
X-212121Y115487D01*
X-211640Y114860D01*
X-211029Y114392D01*
Y77279D01*
X-212022Y76868D01*
X-213066Y76066D01*
X-213867Y75022D01*
X-214371Y73805D01*
X-214543Y72500D01*
X-214371Y71195D01*
X-213867Y69978D01*
X-213066Y68934D01*
X-212022Y68133D01*
X-211029Y67721D01*
Y47278D01*
X-212022Y46867D01*
X-213066Y46066D01*
X-213867Y45022D01*
X-214371Y43805D01*
X-214543Y42500D01*
X-214371Y41195D01*
X-213867Y39978D01*
X-213066Y38934D01*
X-212022Y38133D01*
X-210805Y37629D01*
X-209500Y37457D01*
X-208195Y37629D01*
X-206978Y38133D01*
X-205934Y38934D01*
X-205133Y39978D01*
X-204629Y41195D01*
X-204457Y42500D01*
X-204629Y43805D01*
X-205133Y45022D01*
X-205934Y46066D01*
X-206978Y46867D01*
X-207971Y47278D01*
Y67721D01*
X-206978Y68133D01*
X-205934Y68934D01*
X-205133Y69978D01*
X-204629Y71195D01*
X-204457Y72500D01*
X-204629Y73805D01*
X-205133Y75022D01*
X-205934Y76066D01*
X-206978Y76868D01*
X-207971Y77279D01*
Y114392D01*
X-207360Y114860D01*
X-206879Y115487D01*
X-206577Y116217D01*
X-206474Y117000D01*
X-206577Y117783D01*
X-206879Y118513D01*
X-207360Y119140D01*
X-207987Y119621D01*
X-208717Y119923D01*
X-209500Y120026D01*
D02*
G37*
G36*
X-229500Y77543D02*
X-230805Y77371D01*
X-232022Y76868D01*
X-233066Y76066D01*
X-233868Y75022D01*
X-234371Y73805D01*
X-234543Y72500D01*
X-234371Y71195D01*
X-233868Y69978D01*
X-233066Y68934D01*
X-232022Y68133D01*
X-231029Y67721D01*
Y47278D01*
X-232022Y46867D01*
X-233066Y46066D01*
X-233868Y45022D01*
X-234371Y43805D01*
X-234543Y42500D01*
X-234371Y41195D01*
X-233868Y39978D01*
X-233066Y38934D01*
X-232022Y38133D01*
X-230805Y37629D01*
X-229500Y37457D01*
X-228195Y37629D01*
X-226978Y38133D01*
X-225934Y38934D01*
X-225132Y39978D01*
X-224629Y41195D01*
X-224457Y42500D01*
X-224629Y43805D01*
X-225132Y45022D01*
X-225934Y46066D01*
X-226978Y46867D01*
X-227971Y47278D01*
Y67721D01*
X-226978Y68133D01*
X-225934Y68934D01*
X-225132Y69978D01*
X-224629Y71195D01*
X-224457Y72500D01*
X-224629Y73805D01*
X-225132Y75022D01*
X-225934Y76066D01*
X-226978Y76868D01*
X-228195Y77371D01*
X-229500Y77543D01*
D02*
G37*
G36*
X-330027Y38500D02*
X-334000D01*
Y34527D01*
X-333325Y34616D01*
X-332231Y35069D01*
X-331291Y35791D01*
X-330569Y36731D01*
X-330116Y37825D01*
X-330027Y38500D01*
D02*
G37*
G36*
X-335000D02*
X-338973D01*
X-338884Y37825D01*
X-338431Y36731D01*
X-337709Y35791D01*
X-336770Y35069D01*
X-335675Y34616D01*
X-335000Y34527D01*
Y38500D01*
D02*
G37*
%LPD*%
G36*
X-341867Y292478D02*
X-341066Y291434D01*
X-340022Y290633D01*
X-338805Y290129D01*
X-337500Y289957D01*
X-336195Y290129D01*
X-334978Y290633D01*
X-333934Y291434D01*
X-333133Y292478D01*
X-332771Y293352D01*
X-332229D01*
X-331868Y292478D01*
X-331066Y291434D01*
X-330022Y290633D01*
X-328805Y290129D01*
X-327500Y289957D01*
X-326195Y290129D01*
X-324978Y290633D01*
X-324049Y291346D01*
X-323549Y291177D01*
Y287837D01*
X-323556Y287833D01*
X-324049Y287646D01*
X-324717Y287923D01*
X-325500Y288026D01*
X-329500D01*
X-330283Y287923D01*
X-331013Y287620D01*
X-331640Y287140D01*
X-332120Y286513D01*
X-332229Y286250D01*
X-332771D01*
X-332879Y286513D01*
X-333360Y287140D01*
X-333987Y287620D01*
X-334717Y287923D01*
X-335500Y288026D01*
X-339500D01*
X-340283Y287923D01*
X-341013Y287620D01*
X-341640Y287140D01*
X-342121Y286513D01*
X-342160Y286417D01*
X-342211Y286405D01*
X-342688Y286449D01*
X-343132Y287522D01*
X-343934Y288566D01*
X-344978Y289368D01*
X-345852Y289729D01*
Y290271D01*
X-344978Y290633D01*
X-343934Y291434D01*
X-343132Y292478D01*
X-342771Y293352D01*
X-342229D01*
X-341867Y292478D01*
D02*
G37*
G36*
X-332120Y283487D02*
X-331640Y282860D01*
X-331013Y282380D01*
X-330283Y282077D01*
X-329500Y281974D01*
X-325500D01*
X-324717Y282077D01*
X-324049Y282354D01*
X-323556Y282167D01*
X-323549Y282164D01*
Y277836D01*
X-323556Y277833D01*
X-324049Y277646D01*
X-324717Y277923D01*
X-325500Y278026D01*
X-329500D01*
X-330283Y277923D01*
X-331013Y277621D01*
X-331640Y277140D01*
X-332120Y276513D01*
X-332229Y276250D01*
X-332771D01*
X-332879Y276513D01*
X-333360Y277140D01*
X-333987Y277621D01*
X-334717Y277923D01*
X-335500Y278026D01*
X-339500D01*
X-340283Y277923D01*
X-341013Y277621D01*
X-341640Y277140D01*
X-342121Y276513D01*
X-342160Y276417D01*
X-342211Y276405D01*
X-342688Y276449D01*
X-343132Y277522D01*
X-343934Y278566D01*
X-344978Y279367D01*
X-345852Y279729D01*
Y280271D01*
X-344978Y280632D01*
X-343934Y281434D01*
X-343132Y282478D01*
X-342688Y283551D01*
X-342211Y283595D01*
X-342160Y283583D01*
X-342121Y283487D01*
X-341640Y282860D01*
X-341013Y282380D01*
X-340283Y282077D01*
X-339500Y281974D01*
X-335500D01*
X-334717Y282077D01*
X-333987Y282380D01*
X-333360Y282860D01*
X-332879Y283487D01*
X-332771Y283750D01*
X-332229D01*
X-332120Y283487D01*
D02*
G37*
G36*
Y273487D02*
X-331640Y272860D01*
X-331013Y272379D01*
X-330283Y272077D01*
X-329500Y271974D01*
X-325500D01*
X-324717Y272077D01*
X-324049Y272354D01*
X-323556Y272167D01*
X-323549Y272164D01*
Y268823D01*
X-324049Y268654D01*
X-324978Y269368D01*
X-326195Y269871D01*
X-327500Y270043D01*
X-328805Y269871D01*
X-330022Y269368D01*
X-331066Y268566D01*
X-331868Y267522D01*
X-332229Y266648D01*
X-332771D01*
X-333133Y267522D01*
X-333934Y268566D01*
X-334978Y269368D01*
X-336195Y269871D01*
X-337500Y270043D01*
X-338805Y269871D01*
X-340022Y269368D01*
X-341066Y268566D01*
X-341867Y267522D01*
X-342229Y266648D01*
X-342771D01*
X-343132Y267522D01*
X-343934Y268566D01*
X-344978Y269368D01*
X-345852Y269729D01*
Y270271D01*
X-344978Y270633D01*
X-343934Y271434D01*
X-343132Y272478D01*
X-342688Y273551D01*
X-342211Y273595D01*
X-342160Y273583D01*
X-342121Y273487D01*
X-341640Y272860D01*
X-341013Y272379D01*
X-340283Y272077D01*
X-339500Y271974D01*
X-335500D01*
X-334717Y272077D01*
X-333987Y272379D01*
X-333360Y272860D01*
X-332879Y273487D01*
X-332771Y273750D01*
X-332229D01*
X-332120Y273487D01*
D02*
G37*
G36*
X-259148Y209271D02*
Y208729D01*
X-260022Y208367D01*
X-261066Y207566D01*
X-261867Y206522D01*
X-262371Y205305D01*
X-262543Y204000D01*
X-262371Y202695D01*
X-261960Y201703D01*
X-315009Y148654D01*
X-315471Y148846D01*
Y153867D01*
X-259797Y209540D01*
X-259148Y209271D01*
D02*
G37*
G36*
X-141867Y166478D02*
X-141066Y165434D01*
X-140022Y164632D01*
X-139029Y164222D01*
Y150450D01*
X-138913Y149864D01*
X-138749Y149619D01*
X-139137Y149300D01*
X-145971Y156133D01*
Y164222D01*
X-144978Y164632D01*
X-143934Y165434D01*
X-143132Y166478D01*
X-142771Y167352D01*
X-142229D01*
X-141867Y166478D01*
D02*
G37*
G36*
X-191867D02*
X-191066Y165434D01*
X-190022Y164632D01*
X-188805Y164129D01*
X-187500Y163957D01*
X-186195Y164129D01*
X-185203Y164540D01*
X-151529Y130867D01*
Y125846D01*
X-151991Y125654D01*
X-193040Y166702D01*
X-192771Y167352D01*
X-192229D01*
X-191867Y166478D01*
D02*
G37*
D22*
X-197500Y229000D02*
X-170000Y201500D01*
X-137500Y229000D02*
X-117500Y209000D01*
X-157500Y229000D02*
X-133563Y205063D01*
X-200000Y89500D02*
X-182000Y71500D01*
X-200000Y89500D02*
Y146500D01*
X-194000Y93000D02*
X-174000Y73000D01*
X-194000Y93000D02*
Y142500D01*
X-209500Y72500D02*
Y117000D01*
X-107000Y201500D02*
Y245000D01*
X-187500Y283500D02*
Y335500D01*
Y283500D02*
X-186500Y282500D01*
X-190500Y278500D02*
X-186500Y282500D01*
X-72500Y214500D02*
X-41000D01*
X-177500Y229000D02*
X-79000Y130500D01*
Y85500D02*
Y130500D01*
X-97000Y67500D02*
X-79000Y85500D01*
X-167500Y104550D02*
X-161050Y111000D01*
X-167500Y88000D02*
Y104550D01*
X-161050Y111000D02*
X-160981Y110931D01*
X-138500Y88000D02*
X-133000D01*
X-94981Y49981D01*
Y38931D02*
Y49981D01*
X-150000Y110828D02*
Y131500D01*
X-110172Y71000D02*
X-105500D01*
X-150000Y110828D02*
X-110172Y71000D01*
X-68000Y23050D02*
Y26000D01*
X-152000Y110000D02*
X-68000Y26000D01*
X-152000Y110000D02*
Y123500D01*
X-125550Y138500D02*
X-122000D01*
X-197500Y169000D02*
X-152000Y123500D01*
X-187500Y169000D02*
X-150000Y131500D01*
X-137500Y150450D02*
X-125550Y138500D01*
X-137500Y150450D02*
Y169000D01*
X-147500Y155500D02*
X-128379Y136379D01*
X-147500Y155500D02*
Y169000D01*
X-123500Y143500D02*
Y165000D01*
X-187500Y229000D02*
X-123500Y165000D01*
X-182500Y264000D02*
Y279500D01*
Y264000D02*
X-147500Y229000D01*
X-214000Y269322D02*
Y272500D01*
Y269322D02*
X-188678Y244000D01*
X-182500D01*
X-167500Y229000D01*
X-207500D02*
Y250000D01*
X-314500Y147000D02*
X-257500Y204000D01*
X-314500Y39000D02*
Y147000D01*
X-317000Y154500D02*
X-257500Y214000D01*
X-317000Y46500D02*
Y154500D01*
X-324500Y39000D02*
X-317000Y46500D01*
X-304500Y39000D02*
Y147000D01*
X-257500Y194000D01*
X-294500Y147000D02*
X-257500Y184000D01*
X-294500Y39000D02*
Y147000D01*
X-287429Y39000D02*
X-284500D01*
Y147000D01*
X-257500Y174000D01*
X-229500Y42500D02*
Y72500D01*
X-209500Y42500D02*
Y72500D01*
D23*
X-242000Y253500D02*
X-217500Y229000D01*
X-243000Y254500D02*
X-242000Y253500D01*
X-112500Y92000D02*
X-86000D01*
X-138000Y117500D02*
X-112500Y92000D01*
X-194000Y315249D02*
Y342500D01*
X-243000Y254500D02*
Y335500D01*
X-70000Y47636D02*
Y108000D01*
X-72000Y45636D02*
X-70000Y47636D01*
X-72000Y44500D02*
Y45636D01*
X-204228Y305021D02*
X-194000Y315249D01*
X-204228Y272000D02*
Y305021D01*
X-321000Y67500D02*
Y310000D01*
X-310000Y321000D01*
D24*
X-79000Y231500D02*
X-40868Y269632D01*
D25*
X-357500Y195000D02*
X-347500D01*
D26*
X-247000Y47500D02*
D03*
Y57500D02*
D03*
Y67500D02*
D03*
D27*
X-209500Y42500D02*
D03*
Y72500D02*
D03*
X-229500Y42500D02*
D03*
Y72500D02*
D03*
X-247500Y169000D02*
D03*
X-237500D02*
D03*
X-227500D02*
D03*
X-217500D02*
D03*
X-207500D02*
D03*
X-197500D02*
D03*
X-187500D02*
D03*
X-177500D02*
D03*
X-167500D02*
D03*
X-157500D02*
D03*
X-147500D02*
D03*
X-137500D02*
D03*
X-247500Y229000D02*
D03*
X-237500D02*
D03*
X-227500D02*
D03*
X-217500D02*
D03*
X-207500D02*
D03*
X-197500D02*
D03*
X-187500D02*
D03*
X-177500D02*
D03*
X-167500D02*
D03*
X-157500D02*
D03*
X-147500D02*
D03*
X-137500D02*
D03*
X-212500Y219000D02*
D03*
X-202500D02*
D03*
X-257500Y174000D02*
D03*
Y184000D02*
D03*
Y194000D02*
D03*
Y204000D02*
D03*
Y214000D02*
D03*
Y224000D02*
D03*
X-357500Y125000D02*
D03*
Y105000D02*
D03*
Y115000D02*
D03*
Y155000D02*
D03*
Y165000D02*
D03*
Y135000D02*
D03*
Y145000D02*
D03*
Y65000D02*
D03*
Y55000D02*
D03*
Y95000D02*
D03*
Y75000D02*
D03*
Y85000D02*
D03*
Y195000D02*
D03*
Y175000D02*
D03*
Y185000D02*
D03*
Y225000D02*
D03*
Y235000D02*
D03*
Y205000D02*
D03*
Y215000D02*
D03*
Y265000D02*
D03*
Y275000D02*
D03*
Y245000D02*
D03*
Y255000D02*
D03*
Y285000D02*
D03*
Y295000D02*
D03*
Y305000D02*
D03*
X-347500Y85000D02*
D03*
Y95000D02*
D03*
Y65000D02*
D03*
Y75000D02*
D03*
Y125000D02*
D03*
Y135000D02*
D03*
Y105000D02*
D03*
Y115000D02*
D03*
Y165000D02*
D03*
Y175000D02*
D03*
Y145000D02*
D03*
Y155000D02*
D03*
Y215000D02*
D03*
Y185000D02*
D03*
Y195000D02*
D03*
Y235000D02*
D03*
Y225000D02*
D03*
Y255000D02*
D03*
Y265000D02*
D03*
Y205000D02*
D03*
Y245000D02*
D03*
Y295000D02*
D03*
Y305000D02*
D03*
Y275000D02*
D03*
Y285000D02*
D03*
X-337500Y125000D02*
D03*
Y105000D02*
D03*
Y115000D02*
D03*
Y155000D02*
D03*
Y165000D02*
D03*
Y135000D02*
D03*
Y145000D02*
D03*
Y65000D02*
D03*
Y55000D02*
D03*
Y95000D02*
D03*
Y75000D02*
D03*
Y85000D02*
D03*
Y195000D02*
D03*
Y175000D02*
D03*
Y185000D02*
D03*
Y225000D02*
D03*
Y235000D02*
D03*
Y205000D02*
D03*
Y215000D02*
D03*
Y265000D02*
D03*
Y245000D02*
D03*
Y255000D02*
D03*
Y295000D02*
D03*
Y305000D02*
D03*
X-327500Y85000D02*
D03*
Y95000D02*
D03*
Y65000D02*
D03*
Y75000D02*
D03*
Y125000D02*
D03*
Y135000D02*
D03*
Y105000D02*
D03*
Y115000D02*
D03*
Y165000D02*
D03*
Y175000D02*
D03*
Y145000D02*
D03*
Y155000D02*
D03*
Y215000D02*
D03*
Y185000D02*
D03*
Y195000D02*
D03*
Y235000D02*
D03*
Y225000D02*
D03*
Y255000D02*
D03*
Y265000D02*
D03*
Y205000D02*
D03*
Y245000D02*
D03*
Y295000D02*
D03*
Y305000D02*
D03*
D28*
X-194000Y41232D02*
D03*
Y49500D02*
D03*
X-176000Y41232D02*
D03*
Y49500D02*
D03*
X-158000Y41232D02*
D03*
Y49500D02*
D03*
D29*
X-334500Y39000D02*
D03*
X-324500Y39000D02*
D03*
X-314500Y39000D02*
D03*
X-294500Y39000D02*
D03*
X-304500Y39000D02*
D03*
X-282500Y321000D02*
D03*
X-272500Y321000D02*
D03*
X-310000D02*
D03*
D30*
X-284500Y39000D02*
D03*
X-262500Y321000D02*
D03*
X-300000D02*
D03*
D31*
X-347500Y55000D02*
D03*
X-327500D02*
D03*
D32*
X-337500Y275000D02*
D03*
Y285000D02*
D03*
X-327500Y275000D02*
D03*
Y285000D02*
D03*
D33*
X-40868Y269632D02*
D03*
X-242000Y253500D02*
D03*
X-107000Y201500D02*
D03*
X-117500Y209000D02*
D03*
X-133500Y205000D02*
D03*
X-170000Y201500D02*
D03*
X-182000Y71500D02*
D03*
X-200000Y146500D02*
D03*
X-174000Y73000D02*
D03*
X-194000Y142500D02*
D03*
X-209500Y117000D02*
D03*
X-86000Y92000D02*
D03*
X-194000Y342500D02*
D03*
X-243000Y335500D02*
D03*
X-187500D02*
D03*
X-41000Y214500D02*
D03*
X-72500D02*
D03*
X-190500Y278500D02*
D03*
X-116000Y110000D02*
D03*
X-167500Y88000D02*
D03*
X-160981Y110931D02*
D03*
X-138500Y88000D02*
D03*
X-105500Y71000D02*
D03*
X-94981Y38931D02*
D03*
X-122000Y138500D02*
D03*
X-70000Y108000D02*
D03*
X-68000Y23050D02*
D03*
X-128379Y136379D02*
D03*
X-97000Y67500D02*
D03*
X-123500Y143500D02*
D03*
X-107000Y245000D02*
D03*
X-182500Y279500D02*
D03*
X-214000Y272500D02*
D03*
X-207500Y250000D02*
D03*
X-196728Y294000D02*
D03*
X-61500Y75500D02*
D03*
X-43000Y65500D02*
D03*
X-96500Y25500D02*
D03*
X-72000Y44500D02*
D03*
X-74500Y49500D02*
D03*
X-50000Y37000D02*
D03*
X-127500Y148500D02*
D03*
X-109000Y138500D02*
D03*
X-162500Y98500D02*
D03*
X-138000Y117500D02*
D03*
X-140500Y122500D02*
D03*
X-68500Y262500D02*
D03*
X-50000Y252500D02*
D03*
X-103500Y212500D02*
D03*
X-79000Y231500D02*
D03*
X-81500Y236500D02*
D03*
X-57000Y224000D02*
D03*
X-204228Y272000D02*
D03*
X-209228Y269500D02*
D03*
X-320500Y67500D02*
D03*
X-235228Y282500D02*
D03*
X-225228Y301000D02*
D03*
X-185228Y247500D02*
D03*
X-357500Y44500D02*
D03*
Y25500D02*
D03*
X-365500Y40000D02*
D03*
Y30000D02*
D03*
X-349500Y40000D02*
D03*
Y30000D02*
D03*
X-12000Y15000D02*
D03*
Y25000D02*
D03*
X-28000Y15000D02*
D03*
Y25000D02*
D03*
X-20000Y10500D02*
D03*
Y29500D02*
D03*
X-349500Y320000D02*
D03*
Y330000D02*
D03*
X-365500Y320000D02*
D03*
Y330000D02*
D03*
X-357500Y315500D02*
D03*
Y334500D02*
D03*
X-12000Y330000D02*
D03*
Y340000D02*
D03*
X-28000Y330000D02*
D03*
Y340000D02*
D03*
X-20000Y325500D02*
D03*
Y344500D02*
D03*
D34*
X-26457Y233228D02*
D03*
X-179685Y121299D02*
D03*
X-208622Y320866D02*
D03*
X-113228Y47520D02*
D03*
D35*
X-20000Y20000D02*
D03*
Y335000D02*
D03*
X-357500Y325000D02*
D03*
Y35000D02*
D03*
M02*
