G04 Layer_Color=8421504*
%FSLAX25Y25*%
%MOIN*%
G70*
G01*
G75*
%ADD10R,0.05000X0.04000*%
%ADD11R,0.04000X0.05000*%
%ADD12R,0.04921X0.07874*%
%ADD13O,0.05709X0.02362*%
%ADD14R,0.03600X0.05000*%
%ADD15R,0.03600X0.03600*%
%ADD16O,0.02362X0.05709*%
%ADD17R,0.07874X0.04921*%
%ADD18R,0.05000X0.03600*%
%ADD19R,0.03600X0.03600*%
D10*
X-255000Y248500D02*
D03*
Y240500D02*
D03*
X-247000Y248500D02*
D03*
Y240500D02*
D03*
X-198000Y67000D02*
D03*
Y59000D02*
D03*
X-190000D02*
D03*
Y67000D02*
D03*
X-182000Y59000D02*
D03*
Y67000D02*
D03*
X-174000Y59000D02*
D03*
Y67000D02*
D03*
X-98000Y262500D02*
D03*
Y254500D02*
D03*
X-90000Y262500D02*
D03*
Y254500D02*
D03*
X-91000Y75500D02*
D03*
Y67500D02*
D03*
X-83000Y75500D02*
D03*
Y67500D02*
D03*
X-157000Y148500D02*
D03*
Y140500D02*
D03*
X-149000Y148500D02*
D03*
Y140500D02*
D03*
X-67000Y75500D02*
D03*
Y67500D02*
D03*
X-43000Y60500D02*
D03*
Y52500D02*
D03*
Y30500D02*
D03*
Y22500D02*
D03*
X-75000Y75500D02*
D03*
Y67500D02*
D03*
X-43000Y45500D02*
D03*
Y37500D02*
D03*
X-59000Y30500D02*
D03*
Y22500D02*
D03*
X-51000Y30500D02*
D03*
Y22500D02*
D03*
X-133000Y148500D02*
D03*
Y140500D02*
D03*
X-109000Y133500D02*
D03*
Y125500D02*
D03*
Y103500D02*
D03*
Y95500D02*
D03*
X-141000Y148500D02*
D03*
Y140500D02*
D03*
X-109000Y118500D02*
D03*
Y110500D02*
D03*
X-125000Y103500D02*
D03*
Y95500D02*
D03*
X-117000Y103500D02*
D03*
Y95500D02*
D03*
X-82000Y262500D02*
D03*
Y254500D02*
D03*
X-74000Y262500D02*
D03*
Y254500D02*
D03*
X-66000Y217500D02*
D03*
Y209500D02*
D03*
X-58000Y217500D02*
D03*
Y209500D02*
D03*
X-50000Y217500D02*
D03*
Y209500D02*
D03*
Y232500D02*
D03*
Y224500D02*
D03*
Y247500D02*
D03*
Y239500D02*
D03*
D11*
X-235228Y253000D02*
D03*
X-227228D02*
D03*
X-235228Y261000D02*
D03*
X-227228D02*
D03*
X-235228Y277000D02*
D03*
X-227228D02*
D03*
X-220228Y301000D02*
D03*
X-212228D02*
D03*
X-190228D02*
D03*
X-182228D02*
D03*
X-235228Y269000D02*
D03*
X-227228D02*
D03*
X-205228Y301000D02*
D03*
X-197228D02*
D03*
X-190228Y285000D02*
D03*
X-182228D02*
D03*
X-190228Y293000D02*
D03*
X-182228D02*
D03*
X-263000Y311000D02*
D03*
X-271000D02*
D03*
X-300500D02*
D03*
X-308500D02*
D03*
D12*
X-90882Y25500D02*
D03*
X-76118D02*
D03*
X-156882Y98500D02*
D03*
X-142118D02*
D03*
X-97882Y212500D02*
D03*
X-83118D02*
D03*
D13*
X-65500Y38500D02*
D03*
Y42437D02*
D03*
Y46374D02*
D03*
Y50311D02*
D03*
Y54248D02*
D03*
Y58185D02*
D03*
X-131500Y111500D02*
D03*
Y115437D02*
D03*
Y119374D02*
D03*
Y123311D02*
D03*
Y127248D02*
D03*
Y131185D02*
D03*
X-197000Y253000D02*
D03*
Y258000D02*
D03*
Y263000D02*
D03*
Y268000D02*
D03*
X-218457Y253000D02*
D03*
Y258000D02*
D03*
Y263000D02*
D03*
Y268000D02*
D03*
X-72500Y225500D02*
D03*
Y229437D02*
D03*
Y233374D02*
D03*
Y237311D02*
D03*
Y241248D02*
D03*
Y245185D02*
D03*
D14*
X-53700Y45000D02*
D03*
X-53800Y52000D02*
D03*
X-119700Y118000D02*
D03*
X-119800Y125000D02*
D03*
X-60800Y239000D02*
D03*
X-60700Y232000D02*
D03*
D15*
X-50000Y37000D02*
D03*
X-57500D02*
D03*
Y60000D02*
D03*
X-50000D02*
D03*
X-116000Y110000D02*
D03*
X-123500D02*
D03*
Y133000D02*
D03*
X-116000D02*
D03*
X-64500Y247000D02*
D03*
X-57000D02*
D03*
Y224000D02*
D03*
X-64500D02*
D03*
D16*
X-91000Y37272D02*
D03*
X-86000D02*
D03*
X-81000D02*
D03*
X-76000D02*
D03*
X-91000Y58728D02*
D03*
X-86000D02*
D03*
X-81000D02*
D03*
X-76000D02*
D03*
X-157000Y110272D02*
D03*
X-152000D02*
D03*
X-147000D02*
D03*
X-142000D02*
D03*
X-157000Y131728D02*
D03*
X-152000D02*
D03*
X-147000D02*
D03*
X-142000D02*
D03*
X-198228Y278500D02*
D03*
X-202165D02*
D03*
X-206102D02*
D03*
X-210039D02*
D03*
X-213976D02*
D03*
X-217913D02*
D03*
X-98000Y224272D02*
D03*
X-93000D02*
D03*
X-88000D02*
D03*
X-83000D02*
D03*
X-98000Y245728D02*
D03*
X-93000D02*
D03*
X-88000D02*
D03*
X-83000D02*
D03*
D17*
X-185228Y253118D02*
D03*
Y267882D02*
D03*
D18*
X-204728Y290300D02*
D03*
X-211728Y290200D02*
D03*
D19*
X-196728Y294000D02*
D03*
Y286500D02*
D03*
X-219728D02*
D03*
Y294000D02*
D03*
M02*
