M48
;Layer_Color=9474304
;FILE_FORMAT=2:5
INCH,TZ
;TYPE=PLATED
T1F00S00C0.02000
T2F00S00C0.02362
T3F00S00C0.03000
T4F00S00C0.04000
T5F00S00C0.07874
T6F00S00C0.12500
T7F00S00C0.19685
%
T01
X12000Y15000
Y25000
X20000Y29500
X28000Y25000
Y15000
X20000Y10500
X174000Y23000
X349500Y30000
Y40000
X357500Y44500
X365500Y40000
Y30000
X357500Y25500
X225000Y68500
Y74500
Y79500
X230500Y83500
X211500Y68000
X210500Y62500
X199000Y79500
X181228Y86000
X177500Y92500
X176228Y78000
X167500Y68000
X161000Y89000
Y97500
Y106000
X198228Y115500
X202000Y120000
X177500Y148000
X170000Y150500
X153000Y188000
X134000Y214000
X125000Y208000
Y134500
X117500Y131000
X134000Y138000
X145000Y106000
Y97500
Y89000
X103000Y68000
Y116000
X71000Y124500
X81500Y156500
X93109Y150451
X115500Y222000
X106500Y256000
X109000Y268500
X144000Y263500
X136000Y250000
X98484Y342484
X28000Y339900
Y329900
X20000Y325400
X12000Y329900
Y339900
X20000Y344400
X171500Y342500
X176000Y312500
X173437Y299937
X208000Y302000
X202500Y290500
X182500Y266000
X163500Y265000
X219000Y257500
X231500Y273500
X243000Y248000
X248500Y235000
X285000Y254000
X297000Y262000
X290500Y269500
X309000Y216500
X350000Y320500
Y330000
X357500Y334000
X364500Y330000
Y320500
X357500Y316400
T02
X153500Y19232
Y27500
X173500Y29232
Y37500
Y16000
Y7732
T03
X220000Y6000
Y26000
X231000Y44000
X241000
X251000
X250000Y26000
Y6000
T04
X268500Y35000
X278500Y35000
X288500Y35000
X298500Y35000
X308500Y35000
X318500Y35000
X317500Y55000
X327500
X337500
X347500
Y65000
Y75000
Y85000
Y95000
Y105000
Y115000
Y125000
Y135000
Y145000
Y155000
Y165000
Y175000
Y185000
Y195000
Y205000
Y215000
X337500
X327500
X317500
Y205000
X327500
Y195000
X317500
Y185000
X327500
Y175000
X317500
Y165000
X327500
Y155000
X317500
Y145000
X327500
Y135000
X317500
Y125000
X327500
Y115000
X317500
Y105000
X327500
Y95000
X317500
Y85000
X327500
Y75000
X317500
Y65000
X327500
X337500
Y75000
Y85000
Y95000
Y105000
Y115000
Y125000
Y135000
Y145000
Y155000
Y165000
Y175000
Y185000
Y195000
Y205000
X297000Y208000
Y198000
Y188000
Y178000
Y168000
Y158000
Y148000
Y138000
Y128000
Y118000
Y108000
X292000Y98000
X282000
X272000
X262000
X252000
X242000
X237000Y108000
Y118000
Y128000
Y138000
Y148000
Y158000
Y168000
Y178000
Y188000
Y198000
Y208000
X248500Y152500
Y142500
X237000Y218000
X297000
X292000Y313000
X302000Y313000
X282000Y313000
X317500Y305000
X327500
Y295000
X317500
Y285000
X327500
Y275000
X317500
Y265000
X327500
Y255000
X317500
Y245000
X327500
Y235000
X317500
Y225000
X327500
X337500
Y235000
Y245000
Y255000
Y265000
Y275000
Y285000
Y295000
Y305000
X347500
Y295000
Y285000
Y275000
Y265000
Y255000
Y245000
Y235000
Y225000
T05
X204842Y8228
Y161772
X161417Y127953
X110827Y171653
X7874Y127953
X110827Y325197
X154606Y242284
X308150
T06
X20000Y20000
X357500Y35000
X20000Y335000
X357500Y325000
T07
X204842Y31496
X32500Y127953
X110827Y302000
X179500Y242284
M30
