G04 Layer_Color=65535*
%FSLAX25Y25*%
%MOIN*%
G70*
G01*
G75*
%ADD18C,0.01000*%
%ADD37C,0.02362*%
%ADD38C,0.00984*%
%ADD39C,0.00800*%
%ADD40C,0.00787*%
%ADD41C,0.00500*%
%ADD42C,0.00400*%
%ADD43R,0.09962X0.10000*%
G36*
X105419Y55853D02*
X95016D01*
Y53729D01*
X104872D01*
Y50995D01*
X95016D01*
Y48871D01*
X105653D01*
Y45700D01*
X90955D01*
Y58915D01*
X105419D01*
Y55853D01*
D02*
G37*
G36*
X119492Y59055D02*
X119774Y59039D01*
X120039Y59024D01*
X120289Y59008D01*
X120508Y58977D01*
X120726Y58946D01*
X120914Y58930D01*
X121070Y58899D01*
X121226Y58868D01*
X121351Y58836D01*
X121445Y58821D01*
X121523Y58805D01*
X121586Y58790D01*
X121617Y58774D01*
X121632D01*
X121992Y58665D01*
X122304Y58524D01*
X122570Y58399D01*
X122773Y58274D01*
X122944Y58149D01*
X123069Y58055D01*
X123132Y57993D01*
X123163Y57977D01*
X123351Y57774D01*
X123491Y57571D01*
X123616Y57368D01*
X123694Y57165D01*
X123757Y56993D01*
X123804Y56868D01*
X123835Y56775D01*
Y56759D01*
Y56743D01*
X123882Y56478D01*
X123928Y56197D01*
X123960Y55931D01*
X123975Y55697D01*
X123991Y55478D01*
Y55306D01*
Y55244D01*
Y55213D01*
Y55181D01*
Y55166D01*
Y54744D01*
X119930D01*
Y54994D01*
X119914Y55088D01*
Y55181D01*
X119899Y55259D01*
Y55306D01*
X119883Y55338D01*
Y55353D01*
X119820Y55525D01*
X119742Y55666D01*
X119664Y55744D01*
X119649Y55775D01*
X119633D01*
X119555Y55837D01*
X119461Y55884D01*
X119274Y55962D01*
X119180Y55994D01*
X119102Y56009D01*
X119055Y56025D01*
X119039D01*
X118883Y56056D01*
X118711Y56087D01*
X118524Y56103D01*
X118352D01*
X118196Y56119D01*
X113463D01*
X113213Y56103D01*
X112995Y56087D01*
X112792Y56040D01*
X112635Y55994D01*
X112510Y55947D01*
X112417Y55915D01*
X112354Y55884D01*
X112338Y55869D01*
X112198Y55759D01*
X112104Y55634D01*
X112026Y55509D01*
X111979Y55384D01*
X111948Y55275D01*
X111932Y55181D01*
Y55119D01*
Y55088D01*
Y54931D01*
X111948Y54791D01*
X111979Y54681D01*
X112011Y54588D01*
X112026Y54510D01*
X112057Y54447D01*
X112073Y54416D01*
Y54400D01*
X112135Y54322D01*
X112229Y54244D01*
X112448Y54135D01*
X112541Y54104D01*
X112635Y54072D01*
X112698Y54057D01*
X112713D01*
X112932Y54026D01*
X113166Y53994D01*
X113401Y53963D01*
X113635Y53947D01*
X113854D01*
X114025Y53932D01*
X114572D01*
X114994Y53916D01*
X117602D01*
X117993Y53900D01*
X118352D01*
X118696Y53885D01*
X119024D01*
X119321Y53869D01*
X119586Y53854D01*
X119820Y53838D01*
X120024D01*
X120211Y53822D01*
X120367Y53807D01*
X120476D01*
X120570Y53791D01*
X120633D01*
X120914Y53760D01*
X121164Y53744D01*
X121414Y53697D01*
X121648Y53666D01*
X121851Y53619D01*
X122054Y53572D01*
X122226Y53526D01*
X122382Y53479D01*
X122538Y53432D01*
X122663Y53385D01*
X122757Y53354D01*
X122851Y53323D01*
X122913Y53291D01*
X122960Y53260D01*
X122991Y53245D01*
X123007D01*
X123304Y53057D01*
X123554Y52854D01*
X123757Y52651D01*
X123928Y52448D01*
X124038Y52260D01*
X124132Y52104D01*
X124163Y52042D01*
X124178Y51995D01*
X124194Y51979D01*
Y51964D01*
X124303Y51636D01*
X124397Y51261D01*
X124460Y50886D01*
X124491Y50527D01*
X124506Y50355D01*
X124522Y50199D01*
Y50058D01*
X124538Y49933D01*
Y49839D01*
Y49761D01*
Y49714D01*
Y49699D01*
X124522Y49215D01*
X124491Y48793D01*
X124444Y48434D01*
X124428Y48262D01*
X124397Y48121D01*
X124366Y47980D01*
X124350Y47871D01*
X124319Y47778D01*
X124303Y47699D01*
X124288Y47621D01*
X124272Y47574D01*
X124257Y47559D01*
Y47543D01*
X124132Y47262D01*
X123975Y46997D01*
X123819Y46793D01*
X123647Y46606D01*
X123491Y46465D01*
X123366Y46356D01*
X123273Y46294D01*
X123257Y46278D01*
X123241D01*
X122944Y46122D01*
X122632Y45997D01*
X122288Y45903D01*
X121976Y45825D01*
X121679Y45763D01*
X121554Y45747D01*
X121461Y45731D01*
X121367Y45716D01*
X121304Y45700D01*
X121242D01*
X120992Y45669D01*
X120726Y45653D01*
X120180Y45622D01*
X119633Y45591D01*
X119102Y45575D01*
X118633D01*
X118446Y45559D01*
X112526D01*
X112073Y45575D01*
X111667Y45606D01*
X111479Y45622D01*
X111323Y45638D01*
X111167D01*
X111042Y45653D01*
X110917Y45669D01*
X110823Y45684D01*
X110745D01*
X110698Y45700D01*
X110652D01*
X110308Y45763D01*
X109980Y45856D01*
X109714Y45950D01*
X109480Y46028D01*
X109293Y46122D01*
X109152Y46184D01*
X109074Y46231D01*
X109043Y46247D01*
X108824Y46418D01*
X108652Y46590D01*
X108496Y46778D01*
X108355Y46950D01*
X108262Y47106D01*
X108199Y47231D01*
X108152Y47309D01*
X108137Y47340D01*
X108043Y47621D01*
X107981Y47902D01*
X107918Y48199D01*
X107887Y48480D01*
X107871Y48730D01*
Y48840D01*
X107855Y48933D01*
Y48996D01*
Y49058D01*
Y49090D01*
Y49105D01*
Y50027D01*
X111917D01*
Y49839D01*
X111932Y49668D01*
X111948Y49527D01*
X111979Y49402D01*
X111995Y49308D01*
X112011Y49246D01*
X112026Y49199D01*
Y49183D01*
X112120Y48980D01*
X112229Y48840D01*
X112323Y48761D01*
X112338Y48730D01*
X112354D01*
X112526Y48637D01*
X112713Y48574D01*
X112792Y48559D01*
X112854D01*
X112885Y48543D01*
X112901D01*
X113166Y48527D01*
X113401Y48512D01*
X118868D01*
X119071Y48527D01*
X119258D01*
X119477Y48559D01*
X119664Y48605D01*
X119727Y48637D01*
X119774Y48652D01*
X119805Y48668D01*
X119820D01*
X119992Y48777D01*
X120117Y48886D01*
X120180Y48980D01*
X120211Y48996D01*
Y49011D01*
X120258Y49105D01*
X120305Y49199D01*
X120352Y49402D01*
X120367Y49480D01*
Y49558D01*
Y49605D01*
Y49621D01*
Y49777D01*
X120336Y49917D01*
X120320Y50027D01*
X120289Y50121D01*
X120258Y50199D01*
X120242Y50245D01*
X120211Y50277D01*
Y50292D01*
X120133Y50386D01*
X120024Y50464D01*
X119914Y50527D01*
X119789Y50573D01*
X119664Y50620D01*
X119571Y50652D01*
X119508Y50667D01*
X119477D01*
X119243Y50714D01*
X118961Y50745D01*
X118680Y50776D01*
X118399Y50792D01*
X118149Y50808D01*
X118040D01*
X117946Y50823D01*
X117540D01*
X117306Y50839D01*
X116790D01*
X116275Y50855D01*
X113854D01*
X113479Y50870D01*
X113119Y50886D01*
X112807D01*
X112495Y50902D01*
X112229Y50917D01*
X111979Y50933D01*
X111760Y50948D01*
X111557Y50964D01*
X111401Y50980D01*
X111261D01*
X111151Y50995D01*
X111073Y51011D01*
X111011D01*
X110542Y51089D01*
X110120Y51183D01*
X109777Y51276D01*
X109621Y51323D01*
X109480Y51386D01*
X109371Y51433D01*
X109261Y51479D01*
X109168Y51511D01*
X109090Y51542D01*
X109043Y51573D01*
X108996Y51604D01*
X108980Y51620D01*
X108965D01*
X108730Y51792D01*
X108527Y51995D01*
X108371Y52198D01*
X108246Y52385D01*
X108168Y52557D01*
X108106Y52698D01*
X108074Y52792D01*
X108059Y52807D01*
Y52823D01*
X107996Y53135D01*
X107949Y53463D01*
X107918Y53807D01*
X107902Y54119D01*
X107887Y54400D01*
X107871Y54510D01*
Y54619D01*
Y54713D01*
Y54775D01*
Y54807D01*
Y54822D01*
Y55150D01*
X107887Y55462D01*
X107902Y55744D01*
X107934Y55994D01*
X107949Y56197D01*
X107965Y56353D01*
Y56415D01*
X107981Y56462D01*
Y56478D01*
Y56493D01*
X108043Y56775D01*
X108121Y57040D01*
X108230Y57259D01*
X108340Y57462D01*
X108433Y57618D01*
X108527Y57743D01*
X108590Y57806D01*
X108605Y57837D01*
X108824Y58040D01*
X109074Y58212D01*
X109339Y58368D01*
X109589Y58493D01*
X109824Y58587D01*
X109933Y58633D01*
X110027Y58665D01*
X110089Y58696D01*
X110152Y58711D01*
X110183Y58727D01*
X110198D01*
X110417Y58790D01*
X110636Y58836D01*
X111120Y58930D01*
X111620Y58993D01*
X112104Y59024D01*
X112323Y59039D01*
X112526Y59055D01*
X112713D01*
X112885Y59071D01*
X119180D01*
X119492Y59055D01*
D02*
G37*
G36*
X145437Y45700D02*
X140923D01*
X139658Y48043D01*
X131442D01*
X130255Y45700D01*
X125725D01*
X132879Y58915D01*
X138158D01*
X145437Y45700D01*
D02*
G37*
G36*
X161338Y55634D02*
X155653D01*
Y45700D01*
X151592D01*
Y55634D01*
X145890D01*
Y58915D01*
X161338D01*
Y55634D01*
D02*
G37*
G36*
X88237Y50402D02*
X88221Y49949D01*
X88174Y49527D01*
X88112Y49136D01*
X88034Y48777D01*
X87940Y48449D01*
X87815Y48152D01*
X87706Y47871D01*
X87581Y47637D01*
X87456Y47418D01*
X87347Y47231D01*
X87237Y47090D01*
X87128Y46950D01*
X87050Y46856D01*
X86987Y46793D01*
X86940Y46747D01*
X86925Y46731D01*
X86659Y46528D01*
X86378Y46340D01*
X86050Y46184D01*
X85722Y46059D01*
X85394Y45934D01*
X85050Y45841D01*
X84707Y45763D01*
X84379Y45700D01*
X84051Y45653D01*
X83754Y45622D01*
X83488Y45591D01*
X83254Y45575D01*
X83067D01*
X82926Y45559D01*
X76990D01*
X76475Y45575D01*
X76006Y45606D01*
X75569Y45669D01*
X75163Y45747D01*
X74788Y45825D01*
X74444Y45934D01*
X74148Y46044D01*
X73882Y46153D01*
X73632Y46262D01*
X73429Y46356D01*
X73257Y46465D01*
X73117Y46543D01*
X73007Y46622D01*
X72929Y46684D01*
X72882Y46715D01*
X72867Y46731D01*
X72632Y46965D01*
X72445Y47231D01*
X72273Y47512D01*
X72117Y47809D01*
X71992Y48105D01*
X71883Y48418D01*
X71805Y48715D01*
X71727Y49011D01*
X71680Y49293D01*
X71633Y49558D01*
X71617Y49792D01*
X71586Y49995D01*
Y50167D01*
X71570Y50292D01*
Y50370D01*
Y50402D01*
Y58915D01*
X75631D01*
Y51276D01*
Y51042D01*
X75647Y50839D01*
X75678Y50636D01*
X75710Y50464D01*
X75741Y50292D01*
X75788Y50152D01*
X75881Y49902D01*
X75975Y49714D01*
X76053Y49589D01*
X76116Y49511D01*
X76131Y49480D01*
X76241Y49386D01*
X76350Y49308D01*
X76616Y49168D01*
X76912Y49074D01*
X77193Y49011D01*
X77459Y48980D01*
X77584Y48965D01*
X77678D01*
X77771Y48949D01*
X82129D01*
X82348Y48965D01*
X82535Y48996D01*
X82707Y49027D01*
X82863Y49074D01*
X83004Y49121D01*
X83254Y49215D01*
X83426Y49308D01*
X83566Y49402D01*
X83629Y49464D01*
X83660Y49480D01*
X83754Y49589D01*
X83832Y49714D01*
X83957Y49980D01*
X84051Y50277D01*
X84113Y50573D01*
X84144Y50855D01*
X84160Y50964D01*
X84176Y51073D01*
Y51151D01*
Y51214D01*
Y51261D01*
Y51276D01*
Y58915D01*
X88237D01*
Y50402D01*
D02*
G37*
G36*
X72179Y22133D02*
X69335D01*
X68538Y23609D01*
X63362D01*
X62614Y22133D01*
X59761D01*
X64267Y30457D01*
X67593D01*
X72179Y22133D01*
D02*
G37*
G36*
X92843Y30546D02*
X93059Y30536D01*
X93266Y30526D01*
X93463Y30516D01*
X93640Y30507D01*
X93797Y30487D01*
X93945Y30477D01*
X94083Y30457D01*
X94201Y30438D01*
X94299Y30428D01*
X94378Y30418D01*
X94437Y30408D01*
X94486Y30398D01*
X94516Y30389D01*
X94525D01*
X94811Y30320D01*
X95067Y30241D01*
X95273Y30152D01*
X95450Y30064D01*
X95588Y29985D01*
X95687Y29916D01*
X95746Y29877D01*
X95765Y29857D01*
X95913Y29710D01*
X96041Y29552D01*
X96129Y29395D01*
X96208Y29237D01*
X96267Y29100D01*
X96297Y28991D01*
X96316Y28952D01*
Y28922D01*
X96326Y28903D01*
Y28893D01*
X96366Y28657D01*
X96395Y28411D01*
X96425Y28165D01*
X96434Y27938D01*
Y27830D01*
X96444Y27732D01*
Y27643D01*
Y27564D01*
Y27505D01*
Y27456D01*
Y27427D01*
Y27417D01*
X93886D01*
Y27643D01*
X93876Y27801D01*
X93837Y27929D01*
X93787Y28037D01*
X93728Y28115D01*
X93669Y28184D01*
X93620Y28224D01*
X93581Y28243D01*
X93571Y28253D01*
X93443Y28312D01*
X93296Y28352D01*
X93148Y28381D01*
X93010Y28401D01*
X92882Y28411D01*
X92784Y28420D01*
X89724D01*
X89566Y28401D01*
X89428Y28381D01*
X89310Y28361D01*
X89212Y28342D01*
X89143Y28322D01*
X89104Y28312D01*
X89084Y28302D01*
X88976Y28253D01*
X88877Y28204D01*
X88799Y28145D01*
X88730Y28096D01*
X88671Y28047D01*
X88631Y28007D01*
X88612Y27978D01*
X88602Y27968D01*
X88543Y27879D01*
X88494Y27791D01*
X88454Y27712D01*
X88425Y27624D01*
X88405Y27555D01*
X88385Y27496D01*
X88376Y27456D01*
Y27446D01*
X88346Y27210D01*
X88326Y27092D01*
Y26984D01*
X88316Y26886D01*
Y26817D01*
Y26767D01*
Y26748D01*
Y25842D01*
Y25685D01*
X88326Y25537D01*
X88336Y25409D01*
X88346Y25291D01*
Y25203D01*
X88356Y25134D01*
X88366Y25095D01*
Y25075D01*
X88395Y24957D01*
X88425Y24858D01*
X88464Y24770D01*
X88494Y24691D01*
X88533Y24632D01*
X88553Y24593D01*
X88572Y24563D01*
X88582Y24553D01*
X88651Y24485D01*
X88720Y24426D01*
X88867Y24337D01*
X88936Y24307D01*
X88986Y24288D01*
X89025Y24268D01*
X89035D01*
X89153Y24238D01*
X89271Y24219D01*
X89399Y24199D01*
X89507Y24189D01*
X89615D01*
X89694Y24180D01*
X92646D01*
X92784Y24189D01*
X92912D01*
X93010Y24199D01*
X93099D01*
X93158Y24209D01*
X93207D01*
X93305Y24229D01*
X93394Y24248D01*
X93473Y24278D01*
X93542Y24307D01*
X93591Y24327D01*
X93630Y24347D01*
X93650Y24366D01*
X93660D01*
X93719Y24416D01*
X93778Y24475D01*
X93856Y24583D01*
X93886Y24632D01*
X93906Y24671D01*
X93915Y24701D01*
Y24711D01*
X93945Y24799D01*
X93965Y24898D01*
X93974Y25006D01*
X93984Y25104D01*
X93994Y25183D01*
Y25262D01*
Y25301D01*
Y25321D01*
X96552D01*
Y24544D01*
X96543Y24347D01*
X96533Y24170D01*
X96513Y24002D01*
X96494Y23855D01*
X96464Y23727D01*
X96444Y23638D01*
X96434Y23579D01*
X96425Y23569D01*
Y23560D01*
X96375Y23392D01*
X96307Y23245D01*
X96228Y23107D01*
X96159Y22989D01*
X96080Y22900D01*
X96031Y22822D01*
X95992Y22782D01*
X95972Y22762D01*
X95834Y22644D01*
X95687Y22536D01*
X95529Y22448D01*
X95382Y22369D01*
X95244Y22310D01*
X95136Y22271D01*
X95096Y22251D01*
X95067Y22241D01*
X95047Y22231D01*
X95037D01*
X94801Y22172D01*
X94535Y22123D01*
X94279Y22093D01*
X94033Y22064D01*
X93915D01*
X93807Y22054D01*
X93719D01*
X93630Y22044D01*
X89359D01*
X89045Y22054D01*
X88749Y22064D01*
X88494Y22084D01*
X88376Y22093D01*
X88267Y22103D01*
X88159Y22113D01*
X88080Y22123D01*
X88002Y22133D01*
X87933Y22143D01*
X87884Y22152D01*
X87844Y22162D01*
X87815D01*
X87569Y22221D01*
X87342Y22290D01*
X87146Y22369D01*
X86978Y22438D01*
X86840Y22516D01*
X86742Y22576D01*
X86703Y22595D01*
X86673Y22615D01*
X86663Y22625D01*
X86654D01*
X86486Y22762D01*
X86339Y22910D01*
X86221Y23068D01*
X86122Y23215D01*
X86034Y23353D01*
X85984Y23451D01*
X85965Y23491D01*
X85945Y23520D01*
X85935Y23540D01*
Y23550D01*
X85856Y23786D01*
X85797Y24032D01*
X85748Y24278D01*
X85719Y24524D01*
X85709Y24632D01*
X85699Y24731D01*
Y24819D01*
X85689Y24898D01*
Y24967D01*
Y25016D01*
Y25045D01*
Y25055D01*
Y27535D01*
X85699Y27860D01*
X85729Y28155D01*
X85748Y28283D01*
X85768Y28411D01*
X85788Y28519D01*
X85817Y28627D01*
X85837Y28716D01*
X85856Y28794D01*
X85876Y28873D01*
X85896Y28922D01*
X85915Y28972D01*
X85925Y29001D01*
X85935Y29021D01*
Y29031D01*
X86034Y29237D01*
X86152Y29424D01*
X86270Y29582D01*
X86388Y29719D01*
X86496Y29818D01*
X86575Y29897D01*
X86634Y29936D01*
X86644Y29956D01*
X86654D01*
X86840Y30074D01*
X87037Y30172D01*
X87234Y30261D01*
X87411Y30320D01*
X87578Y30369D01*
X87647Y30389D01*
X87696Y30398D01*
X87746Y30418D01*
X87785D01*
X87805Y30428D01*
X87815D01*
X88080Y30467D01*
X88346Y30507D01*
X88602Y30526D01*
X88838Y30536D01*
X88946Y30546D01*
X89045D01*
X89133Y30556D01*
X92607D01*
X92843Y30546D01*
D02*
G37*
G36*
X105261D02*
X105438Y30536D01*
X105605Y30526D01*
X105763Y30516D01*
X105901Y30497D01*
X106038Y30477D01*
X106156Y30467D01*
X106255Y30448D01*
X106353Y30428D01*
X106432Y30408D01*
X106491Y30398D01*
X106540Y30389D01*
X106579Y30379D01*
X106599Y30369D01*
X106609D01*
X106835Y30300D01*
X107032Y30211D01*
X107199Y30133D01*
X107327Y30054D01*
X107436Y29975D01*
X107514Y29916D01*
X107554Y29877D01*
X107573Y29867D01*
X107691Y29739D01*
X107780Y29611D01*
X107859Y29483D01*
X107908Y29355D01*
X107947Y29247D01*
X107977Y29168D01*
X107996Y29109D01*
Y29100D01*
Y29090D01*
X108026Y28922D01*
X108055Y28745D01*
X108075Y28578D01*
X108085Y28430D01*
X108095Y28293D01*
Y28184D01*
Y28145D01*
Y28125D01*
Y28106D01*
Y28096D01*
Y27830D01*
X105536D01*
Y27988D01*
X105527Y28047D01*
Y28106D01*
X105517Y28155D01*
Y28184D01*
X105507Y28204D01*
Y28214D01*
X105468Y28322D01*
X105418Y28411D01*
X105369Y28460D01*
X105359Y28480D01*
X105350D01*
X105300Y28519D01*
X105241Y28548D01*
X105123Y28598D01*
X105064Y28617D01*
X105015Y28627D01*
X104985Y28637D01*
X104976D01*
X104877Y28657D01*
X104769Y28676D01*
X104651Y28686D01*
X104543D01*
X104444Y28696D01*
X101463D01*
X101305Y28686D01*
X101168Y28676D01*
X101040Y28647D01*
X100941Y28617D01*
X100862Y28588D01*
X100803Y28568D01*
X100764Y28548D01*
X100754Y28539D01*
X100666Y28470D01*
X100607Y28391D01*
X100557Y28312D01*
X100528Y28234D01*
X100508Y28165D01*
X100498Y28106D01*
Y28066D01*
Y28047D01*
Y27948D01*
X100508Y27860D01*
X100528Y27791D01*
X100548Y27732D01*
X100557Y27683D01*
X100577Y27643D01*
X100587Y27624D01*
Y27614D01*
X100626Y27564D01*
X100685Y27515D01*
X100823Y27446D01*
X100882Y27427D01*
X100941Y27407D01*
X100980Y27397D01*
X100990D01*
X101128Y27378D01*
X101276Y27358D01*
X101423Y27338D01*
X101571Y27328D01*
X101709D01*
X101817Y27318D01*
X102161D01*
X102427Y27309D01*
X104070D01*
X104316Y27299D01*
X104543D01*
X104759Y27289D01*
X104966D01*
X105153Y27279D01*
X105320Y27269D01*
X105468Y27259D01*
X105596D01*
X105714Y27250D01*
X105812Y27240D01*
X105881D01*
X105940Y27230D01*
X105979D01*
X106156Y27210D01*
X106314Y27200D01*
X106471Y27171D01*
X106619Y27151D01*
X106747Y27122D01*
X106875Y27092D01*
X106983Y27063D01*
X107081Y27033D01*
X107180Y27004D01*
X107258Y26974D01*
X107317Y26954D01*
X107377Y26935D01*
X107416Y26915D01*
X107445Y26895D01*
X107465Y26886D01*
X107475D01*
X107662Y26767D01*
X107819Y26640D01*
X107947Y26512D01*
X108055Y26384D01*
X108124Y26266D01*
X108183Y26167D01*
X108203Y26128D01*
X108213Y26098D01*
X108223Y26088D01*
Y26079D01*
X108292Y25872D01*
X108351Y25636D01*
X108390Y25400D01*
X108410Y25173D01*
X108420Y25065D01*
X108429Y24967D01*
Y24878D01*
X108439Y24799D01*
Y24740D01*
Y24691D01*
Y24662D01*
Y24652D01*
X108429Y24347D01*
X108410Y24081D01*
X108380Y23855D01*
X108370Y23746D01*
X108351Y23658D01*
X108331Y23569D01*
X108321Y23501D01*
X108301Y23441D01*
X108292Y23392D01*
X108282Y23343D01*
X108272Y23314D01*
X108262Y23304D01*
Y23294D01*
X108183Y23117D01*
X108085Y22950D01*
X107987Y22822D01*
X107878Y22704D01*
X107780Y22615D01*
X107701Y22546D01*
X107642Y22507D01*
X107632Y22497D01*
X107623D01*
X107436Y22398D01*
X107239Y22320D01*
X107022Y22261D01*
X106825Y22211D01*
X106639Y22172D01*
X106560Y22162D01*
X106501Y22152D01*
X106442Y22143D01*
X106402Y22133D01*
X106363D01*
X106206Y22113D01*
X106038Y22103D01*
X105694Y22084D01*
X105350Y22064D01*
X105015Y22054D01*
X104720D01*
X104602Y22044D01*
X100872D01*
X100587Y22054D01*
X100331Y22074D01*
X100213Y22084D01*
X100115Y22093D01*
X100016D01*
X99937Y22103D01*
X99859Y22113D01*
X99800Y22123D01*
X99751D01*
X99721Y22133D01*
X99691D01*
X99475Y22172D01*
X99268Y22231D01*
X99101Y22290D01*
X98953Y22339D01*
X98835Y22398D01*
X98747Y22438D01*
X98698Y22467D01*
X98678Y22477D01*
X98540Y22585D01*
X98432Y22694D01*
X98334Y22812D01*
X98245Y22920D01*
X98186Y23018D01*
X98147Y23097D01*
X98117Y23146D01*
X98107Y23166D01*
X98048Y23343D01*
X98009Y23520D01*
X97970Y23707D01*
X97950Y23884D01*
X97940Y24042D01*
Y24111D01*
X97930Y24170D01*
Y24209D01*
Y24248D01*
Y24268D01*
Y24278D01*
Y24858D01*
X100488D01*
Y24740D01*
X100498Y24632D01*
X100508Y24544D01*
X100528Y24465D01*
X100538Y24406D01*
X100548Y24366D01*
X100557Y24337D01*
Y24327D01*
X100616Y24199D01*
X100685Y24111D01*
X100744Y24061D01*
X100754Y24042D01*
X100764D01*
X100872Y23983D01*
X100990Y23943D01*
X101040Y23934D01*
X101079D01*
X101099Y23924D01*
X101108D01*
X101276Y23914D01*
X101423Y23904D01*
X104867D01*
X104995Y23914D01*
X105113D01*
X105251Y23934D01*
X105369Y23963D01*
X105409Y23983D01*
X105438Y23992D01*
X105458Y24002D01*
X105468D01*
X105576Y24071D01*
X105655Y24140D01*
X105694Y24199D01*
X105714Y24209D01*
Y24219D01*
X105743Y24278D01*
X105773Y24337D01*
X105802Y24465D01*
X105812Y24514D01*
Y24563D01*
Y24593D01*
Y24603D01*
Y24701D01*
X105792Y24790D01*
X105782Y24858D01*
X105763Y24917D01*
X105743Y24967D01*
X105733Y24996D01*
X105714Y25016D01*
Y25026D01*
X105664Y25085D01*
X105596Y25134D01*
X105527Y25173D01*
X105448Y25203D01*
X105369Y25232D01*
X105310Y25252D01*
X105271Y25262D01*
X105251D01*
X105104Y25291D01*
X104926Y25311D01*
X104749Y25331D01*
X104572Y25341D01*
X104415Y25350D01*
X104346D01*
X104287Y25360D01*
X104031D01*
X103883Y25370D01*
X103559D01*
X103234Y25380D01*
X101709D01*
X101472Y25390D01*
X101246Y25400D01*
X101049D01*
X100853Y25409D01*
X100685Y25419D01*
X100528Y25429D01*
X100390Y25439D01*
X100262Y25449D01*
X100164Y25459D01*
X100075D01*
X100006Y25469D01*
X99957Y25478D01*
X99918D01*
X99623Y25528D01*
X99357Y25587D01*
X99140Y25646D01*
X99042Y25675D01*
X98953Y25714D01*
X98885Y25744D01*
X98816Y25774D01*
X98757Y25793D01*
X98707Y25813D01*
X98678Y25833D01*
X98648Y25852D01*
X98639Y25862D01*
X98629D01*
X98481Y25970D01*
X98353Y26098D01*
X98255Y26226D01*
X98176Y26344D01*
X98127Y26452D01*
X98088Y26541D01*
X98068Y26600D01*
X98058Y26610D01*
Y26620D01*
X98019Y26817D01*
X97989Y27023D01*
X97970Y27240D01*
X97960Y27437D01*
X97950Y27614D01*
X97940Y27683D01*
Y27751D01*
Y27810D01*
Y27850D01*
Y27869D01*
Y27879D01*
Y28086D01*
X97950Y28283D01*
X97960Y28460D01*
X97979Y28617D01*
X97989Y28745D01*
X97999Y28844D01*
Y28883D01*
X98009Y28912D01*
Y28922D01*
Y28932D01*
X98048Y29109D01*
X98097Y29277D01*
X98166Y29414D01*
X98235Y29542D01*
X98294Y29641D01*
X98353Y29719D01*
X98393Y29759D01*
X98402Y29778D01*
X98540Y29906D01*
X98698Y30015D01*
X98865Y30113D01*
X99022Y30192D01*
X99170Y30251D01*
X99239Y30280D01*
X99298Y30300D01*
X99337Y30320D01*
X99377Y30329D01*
X99396Y30339D01*
X99406D01*
X99544Y30379D01*
X99682Y30408D01*
X99987Y30467D01*
X100302Y30507D01*
X100607Y30526D01*
X100744Y30536D01*
X100872Y30546D01*
X100990D01*
X101099Y30556D01*
X105064D01*
X105261Y30546D01*
D02*
G37*
G36*
X49827Y58883D02*
X50187Y58852D01*
X50483Y58821D01*
X50624Y58805D01*
X50749Y58790D01*
X50842Y58774D01*
X50936Y58758D01*
X50999Y58743D01*
X51046D01*
X51077Y58727D01*
X51092D01*
X51420Y58649D01*
X51717Y58571D01*
X51967Y58461D01*
X52186Y58368D01*
X52358Y58290D01*
X52483Y58212D01*
X52561Y58165D01*
X52592Y58149D01*
X52811Y57993D01*
X52998Y57806D01*
X53154Y57634D01*
X53279Y57462D01*
X53373Y57306D01*
X53435Y57181D01*
X53482Y57103D01*
X53498Y57087D01*
Y57071D01*
X53592Y56821D01*
X53670Y56540D01*
X53717Y56275D01*
X53764Y56009D01*
X53779Y55791D01*
X53795Y55603D01*
Y55541D01*
Y55494D01*
Y55462D01*
Y55447D01*
Y55134D01*
X53764Y54869D01*
X53748Y54635D01*
X53717Y54432D01*
X53685Y54275D01*
X53670Y54150D01*
X53638Y54088D01*
Y54057D01*
X53576Y53869D01*
X53514Y53697D01*
X53451Y53557D01*
X53389Y53432D01*
X53326Y53323D01*
X53279Y53260D01*
X53248Y53213D01*
X53232Y53198D01*
X53029Y52979D01*
X52826Y52823D01*
X52733Y52776D01*
X52670Y52729D01*
X52623Y52713D01*
X52608Y52698D01*
X52342Y52588D01*
X52201Y52542D01*
X52077Y52495D01*
X51983Y52464D01*
X51905Y52432D01*
X51842Y52417D01*
X51827D01*
Y52354D01*
X52061Y52323D01*
X52295Y52276D01*
X52498Y52214D01*
X52686Y52151D01*
X52858Y52073D01*
X52998Y51995D01*
X53139Y51917D01*
X53264Y51839D01*
X53451Y51698D01*
X53592Y51573D01*
X53670Y51479D01*
X53701Y51464D01*
Y51448D01*
X53795Y51308D01*
X53888Y51136D01*
X54029Y50776D01*
X54123Y50402D01*
X54201Y50042D01*
X54232Y49714D01*
X54248Y49574D01*
Y49449D01*
X54263Y49340D01*
Y49261D01*
Y49215D01*
Y49199D01*
X54248Y48808D01*
X54216Y48465D01*
X54170Y48152D01*
X54107Y47902D01*
X54045Y47699D01*
X53998Y47543D01*
X53966Y47449D01*
X53951Y47434D01*
Y47418D01*
X53826Y47168D01*
X53701Y46965D01*
X53560Y46778D01*
X53420Y46622D01*
X53295Y46497D01*
X53201Y46418D01*
X53139Y46356D01*
X53107Y46340D01*
X52904Y46216D01*
X52686Y46106D01*
X52467Y46012D01*
X52264Y45950D01*
X52092Y45887D01*
X51952Y45856D01*
X51858Y45825D01*
X51827D01*
X51264Y45747D01*
X50999Y45731D01*
X50749Y45716D01*
X50530Y45700D01*
X37300D01*
Y58915D01*
X49421D01*
X49827Y58883D01*
D02*
G37*
G36*
X81222Y30448D02*
X81537Y30428D01*
X81674Y30418D01*
X81812Y30408D01*
X81930Y30389D01*
X82038Y30379D01*
X82147Y30359D01*
X82235Y30339D01*
X82314Y30329D01*
X82373Y30320D01*
X82422Y30310D01*
X82462Y30300D01*
X82481Y30290D01*
X82491D01*
X82727Y30221D01*
X82934Y30143D01*
X83121Y30064D01*
X83268Y29975D01*
X83396Y29897D01*
X83485Y29838D01*
X83534Y29798D01*
X83554Y29778D01*
X83701Y29641D01*
X83820Y29493D01*
X83918Y29346D01*
X84007Y29198D01*
X84066Y29070D01*
X84115Y28962D01*
X84125Y28932D01*
X84134Y28903D01*
X84144Y28883D01*
Y28873D01*
X84203Y28657D01*
X84253Y28430D01*
X84282Y28214D01*
X84312Y28007D01*
X84321Y27830D01*
Y27751D01*
X84331Y27683D01*
Y27633D01*
Y27584D01*
Y27564D01*
Y27555D01*
Y25026D01*
X84321Y24750D01*
X84302Y24494D01*
X84272Y24268D01*
X84243Y24081D01*
X84223Y23992D01*
X84203Y23924D01*
X84184Y23855D01*
X84174Y23806D01*
X84164Y23766D01*
X84154Y23737D01*
X84144Y23717D01*
Y23707D01*
X84066Y23510D01*
X83977Y23333D01*
X83879Y23176D01*
X83780Y23048D01*
X83692Y22940D01*
X83623Y22871D01*
X83574Y22822D01*
X83554Y22802D01*
X83396Y22674D01*
X83219Y22576D01*
X83042Y22487D01*
X82875Y22418D01*
X82718Y22359D01*
X82658Y22339D01*
X82599Y22320D01*
X82550Y22310D01*
X82521Y22300D01*
X82501Y22290D01*
X82491D01*
X82235Y22241D01*
X81960Y22202D01*
X81694Y22172D01*
X81438Y22152D01*
X81320Y22143D01*
X81123D01*
X81035Y22133D01*
X73173D01*
Y30457D01*
X80877D01*
X81222Y30448D01*
D02*
G37*
G36*
X60746Y49090D02*
X69852D01*
Y45700D01*
X56684D01*
Y58915D01*
X60746D01*
Y49090D01*
D02*
G37*
%LPC*%
G36*
X135519Y55837D02*
X132957Y50886D01*
X138143D01*
X135519Y55837D01*
D02*
G37*
G36*
X65930Y28519D02*
X64317Y25400D01*
X67584D01*
X65930Y28519D01*
D02*
G37*
G36*
X48625Y55744D02*
X41361D01*
Y53682D01*
X48531D01*
X48734Y53697D01*
X48921Y53713D01*
X49062Y53744D01*
X49187Y53791D01*
X49296Y53838D01*
X49359Y53869D01*
X49406Y53885D01*
X49421Y53900D01*
X49531Y54010D01*
X49609Y54119D01*
X49655Y54260D01*
X49702Y54385D01*
X49718Y54510D01*
X49733Y54603D01*
Y54666D01*
Y54697D01*
X49718Y54900D01*
X49687Y55072D01*
X49640Y55213D01*
X49577Y55322D01*
X49515Y55400D01*
X49468Y55462D01*
X49437Y55494D01*
X49421Y55509D01*
X49296Y55588D01*
X49156Y55650D01*
X48999Y55681D01*
X48859Y55712D01*
X48734Y55728D01*
X48625Y55744D01*
D02*
G37*
G36*
X48734Y50948D02*
X41361D01*
Y48871D01*
X48625D01*
X48859Y48886D01*
X49062Y48902D01*
X49249Y48933D01*
X49406Y48965D01*
X49531Y48996D01*
X49609Y49027D01*
X49671Y49058D01*
X49687D01*
X49827Y49152D01*
X49921Y49261D01*
X49999Y49386D01*
X50046Y49527D01*
X50077Y49636D01*
X50093Y49746D01*
Y49808D01*
Y49839D01*
X50077Y50074D01*
X50030Y50261D01*
X49968Y50417D01*
X49890Y50542D01*
X49812Y50620D01*
X49749Y50683D01*
X49702Y50714D01*
X49687Y50730D01*
X49531Y50808D01*
X49343Y50855D01*
X49171Y50902D01*
X48999Y50917D01*
X48859Y50933D01*
X48734Y50948D01*
D02*
G37*
G36*
X80395Y28391D02*
X75731D01*
Y24268D01*
X80395D01*
X80533Y24278D01*
X80651Y24288D01*
X80749Y24307D01*
X80838Y24317D01*
X80897Y24327D01*
X80936Y24337D01*
X80946D01*
X81055Y24366D01*
X81143Y24406D01*
X81222Y24435D01*
X81291Y24475D01*
X81350Y24514D01*
X81389Y24534D01*
X81409Y24553D01*
X81419Y24563D01*
X81478Y24632D01*
X81537Y24701D01*
X81615Y24849D01*
X81645Y24917D01*
X81665Y24967D01*
X81684Y25006D01*
Y25016D01*
X81714Y25134D01*
X81734Y25262D01*
X81753Y25380D01*
X81763Y25498D01*
X81773Y25606D01*
Y25685D01*
Y25744D01*
Y25764D01*
Y26886D01*
Y27043D01*
X81763Y27191D01*
X81743Y27318D01*
X81734Y27427D01*
X81714Y27505D01*
X81694Y27574D01*
X81684Y27614D01*
Y27624D01*
X81645Y27732D01*
X81606Y27820D01*
X81566Y27899D01*
X81517Y27958D01*
X81478Y28007D01*
X81448Y28047D01*
X81428Y28066D01*
X81419Y28076D01*
X81350Y28135D01*
X81271Y28184D01*
X81114Y28253D01*
X81045Y28283D01*
X80996Y28302D01*
X80956Y28312D01*
X80946D01*
X80838Y28342D01*
X80720Y28361D01*
X80602Y28371D01*
X80494Y28381D01*
X80395Y28391D01*
D02*
G37*
%LPD*%
D18*
X31800Y47200D02*
G03*
X31800Y47200I-11000J0D01*
G01*
X27800D02*
G03*
X27800Y47200I-9000J0D01*
G01*
X23800D02*
G03*
X23800Y47200I-7000J0D01*
G01*
X177324Y4339D02*
G03*
X169649Y4353I-3824J7330D01*
G01*
X177324Y25839D02*
G03*
X169649Y25853I-3824J7330D01*
G01*
X157324Y15839D02*
G03*
X149649Y15853I-3824J7330D01*
G01*
X12300Y49700D02*
X16800Y52200D01*
X21300Y49700D01*
X16800Y47200D02*
X21300Y49700D01*
Y44700D02*
Y49700D01*
X12300Y44700D02*
Y49700D01*
X16800Y47200D01*
Y42200D02*
X21300Y44700D01*
X12300D02*
X16800Y42200D01*
Y47200D01*
X38100Y33300D02*
X127100D01*
Y11300D02*
Y33300D01*
X96100Y11300D02*
Y19300D01*
X38100Y11300D02*
X127100D01*
X38100D02*
Y33300D01*
Y19300D02*
X127100D01*
X320000Y180000D02*
X364500D01*
X362500Y245000D02*
X365000D01*
X320000D02*
X323000D01*
X362500Y115000D02*
X364500D01*
X320000D02*
X323000D01*
X86100Y11300D02*
Y19300D01*
X223500Y36500D02*
Y51500D01*
Y36500D02*
X258500D01*
Y51500D01*
X223500D02*
X258500D01*
X169649Y4353D02*
X177324Y4339D01*
X169649Y25853D02*
X177324Y25839D01*
X149649Y15853D02*
X157324Y15839D01*
X232000Y93000D02*
X302000D01*
X232000D02*
Y223000D01*
X302000D01*
Y93000D02*
Y223000D01*
X230000Y21000D02*
X240000D01*
X230000Y11000D02*
X240000D01*
X225000Y26000D02*
X245000D01*
X225000Y6000D02*
Y26000D01*
Y6000D02*
X245000D01*
Y26000D01*
X216697Y70063D02*
Y77937D01*
X218665Y70063D02*
Y77937D01*
X193075Y70063D02*
X218665D01*
X193075D02*
Y77937D01*
X218665D01*
X73563Y116032D02*
X81437D01*
X73563Y114063D02*
X81437D01*
X73563D02*
Y139654D01*
X81437D01*
Y114063D02*
Y139654D01*
X100531Y258063D02*
Y265937D01*
X98563Y258063D02*
Y265937D01*
X124153D01*
Y258063D02*
Y265937D01*
X98563Y258063D02*
X124153D01*
X167532Y302063D02*
Y309937D01*
X165563Y302063D02*
Y309937D01*
X191154D01*
Y302063D02*
Y309937D01*
X165563Y302063D02*
X191154D01*
X98188Y13551D02*
Y17049D01*
X99354Y15883D01*
X100520Y17049D01*
Y13551D01*
X102270Y15883D02*
X103436D01*
X104019Y15300D01*
Y13551D01*
X102270D01*
X101687Y14134D01*
X102270Y14717D01*
X104019D01*
X105185Y15883D02*
Y13551D01*
Y14717D01*
X105769Y15300D01*
X106352Y15883D01*
X106935D01*
X108684Y13551D02*
Y17049D01*
Y14717D02*
X110434Y15883D01*
X108684Y14717D02*
X110434Y13551D01*
X115682Y17049D02*
Y16466D01*
X116848Y15300D01*
X118015Y16466D01*
Y17049D01*
X116848Y15300D02*
Y13551D01*
X120930D02*
X119764D01*
X119181Y14134D01*
Y15300D01*
X119764Y15883D01*
X120930D01*
X121513Y15300D01*
Y14717D01*
X119181D01*
X123263Y13551D02*
X124429D01*
X125012Y14134D01*
Y15300D01*
X124429Y15883D01*
X123263D01*
X122680Y15300D01*
Y14134D01*
X123263Y13551D01*
X46938D02*
Y17049D01*
X48688D01*
X49271Y16466D01*
Y15300D01*
X48688Y14717D01*
X46938D01*
X48105D02*
X49271Y13551D01*
X50437Y17049D02*
Y13551D01*
X51603Y14717D01*
X52770Y13551D01*
Y17049D01*
X56269Y16466D02*
X55685Y17049D01*
X54519D01*
X53936Y16466D01*
Y15883D01*
X54519Y15300D01*
X55685D01*
X56269Y14717D01*
Y14134D01*
X55685Y13551D01*
X54519D01*
X53936Y14134D01*
X60934Y17049D02*
Y13551D01*
X62683D01*
X63266Y14134D01*
Y14717D01*
X62683Y15300D01*
X60934D01*
X62683D01*
X63266Y15883D01*
Y16466D01*
X62683Y17049D01*
X60934D01*
X65016Y13551D02*
X66182D01*
X66765Y14134D01*
Y15300D01*
X66182Y15883D01*
X65016D01*
X64433Y15300D01*
Y14134D01*
X65016Y13551D01*
X68515Y15883D02*
X69681D01*
X70264Y15300D01*
Y13551D01*
X68515D01*
X67931Y14134D01*
X68515Y14717D01*
X70264D01*
X71430Y15883D02*
Y13551D01*
Y14717D01*
X72013Y15300D01*
X72597Y15883D01*
X73180D01*
X77262Y17049D02*
Y13551D01*
X75512D01*
X74929Y14134D01*
Y15300D01*
X75512Y15883D01*
X77262D01*
X88767Y17049D02*
Y14717D01*
X89934Y13551D01*
X91100Y14717D01*
Y17049D01*
X92266Y13551D02*
X93433D01*
X92849D01*
Y17049D01*
X92266Y16466D01*
X38300Y41923D02*
Y37987D01*
X39087Y37200D01*
X40661D01*
X41449Y37987D01*
Y41923D01*
X43023Y37200D02*
Y41923D01*
X46172Y37200D01*
Y41923D01*
X50894Y41136D02*
X50107Y41923D01*
X48533D01*
X47746Y41136D01*
Y40349D01*
X48533Y39561D01*
X50107D01*
X50894Y38774D01*
Y37987D01*
X50107Y37200D01*
X48533D01*
X47746Y37987D01*
X52469Y41923D02*
Y37200D01*
X54043Y38774D01*
X55617Y37200D01*
Y41923D01*
X65063Y41136D02*
X64276Y41923D01*
X62701D01*
X61914Y41136D01*
Y40349D01*
X62701Y39561D01*
X64276D01*
X65063Y38774D01*
Y37987D01*
X64276Y37200D01*
X62701D01*
X61914Y37987D01*
X66637Y41923D02*
X69786D01*
X68212D01*
Y37200D01*
X71360Y41923D02*
Y37987D01*
X72147Y37200D01*
X73722D01*
X74509Y37987D01*
Y41923D01*
X76083D02*
Y37200D01*
X78444D01*
X79232Y37987D01*
Y41136D01*
X78444Y41923D01*
X76083D01*
X83955D02*
X80806D01*
Y37200D01*
X83955D01*
X80806Y39561D02*
X82380D01*
X85529Y37200D02*
Y41923D01*
X88677Y37200D01*
Y41923D01*
X90252D02*
X93400D01*
X91826D01*
Y37200D01*
X102846Y41136D02*
X102059Y41923D01*
X100485D01*
X99697Y41136D01*
Y40349D01*
X100485Y39561D01*
X102059D01*
X102846Y38774D01*
Y37987D01*
X102059Y37200D01*
X100485D01*
X99697Y37987D01*
X104420Y37200D02*
Y41923D01*
X106782D01*
X107569Y41136D01*
Y39561D01*
X106782Y38774D01*
X104420D01*
X109143Y37200D02*
Y40349D01*
X110717Y41923D01*
X112292Y40349D01*
Y37200D01*
Y39561D01*
X109143D01*
X117015Y41136D02*
X116227Y41923D01*
X114653D01*
X113866Y41136D01*
Y37987D01*
X114653Y37200D01*
X116227D01*
X117015Y37987D01*
X121738Y41923D02*
X118589D01*
Y37200D01*
X121738D01*
X118589Y39561D02*
X120163D01*
X128035Y37200D02*
Y41923D01*
X130396D01*
X131183Y41136D01*
Y39561D01*
X130396Y38774D01*
X128035D01*
X132758Y37200D02*
Y41923D01*
X135119D01*
X135906Y41136D01*
Y39561D01*
X135119Y38774D01*
X132758D01*
X134332D02*
X135906Y37200D01*
X139842Y41923D02*
X138268D01*
X137480Y41136D01*
Y37987D01*
X138268Y37200D01*
X139842D01*
X140629Y37987D01*
Y41136D01*
X139842Y41923D01*
X145352D02*
X143778D01*
X144565D01*
Y37987D01*
X143778Y37200D01*
X142991D01*
X142203Y37987D01*
X150075Y41923D02*
X146926D01*
Y37200D01*
X150075D01*
X146926Y39561D02*
X148501D01*
X154798Y41136D02*
X154011Y41923D01*
X152436D01*
X151649Y41136D01*
Y37987D01*
X152436Y37200D01*
X154011D01*
X154798Y37987D01*
X156372Y41923D02*
X159521D01*
X157946D01*
Y37200D01*
X264500Y198000D02*
X267832D01*
X269498Y196334D01*
X267832Y194668D01*
X264500D01*
X266999D01*
Y198000D01*
X267832Y193002D02*
X264500D01*
X266166D01*
X266999Y192169D01*
X267832Y191335D01*
Y190502D01*
X269498Y184671D02*
X264500D01*
Y187170D01*
X265333Y188003D01*
X266999D01*
X267832Y187170D01*
Y184671D01*
Y183005D02*
X265333D01*
X264500Y182172D01*
Y179673D01*
X267832D01*
X264500Y178006D02*
Y176340D01*
Y177173D01*
X267832D01*
Y178006D01*
X264500Y173841D02*
X267832D01*
Y171342D01*
X266999Y170509D01*
X264500D01*
Y168010D02*
Y166344D01*
X265333Y165510D01*
X266999D01*
X267832Y166344D01*
Y168010D01*
X266999Y168843D01*
X265333D01*
X264500Y168010D01*
Y158846D02*
X269498D01*
Y156347D01*
X268665Y155514D01*
X266999D01*
X266166Y156347D01*
Y158846D01*
X267832Y153848D02*
X264500D01*
X266166D01*
X266999Y153015D01*
X267832Y152181D01*
Y151348D01*
X264500Y148016D02*
Y146350D01*
X265333Y145517D01*
X266999D01*
X267832Y146350D01*
Y148016D01*
X266999Y148849D01*
X265333D01*
X264500Y148016D01*
Y138853D02*
X269498D01*
X267832Y137186D01*
X269498Y135520D01*
X264500D01*
Y133854D02*
Y132188D01*
Y133021D01*
X267832D01*
Y133854D01*
X264500Y129689D02*
X267832D01*
Y127190D01*
X266999Y126356D01*
X264500D01*
Y124690D02*
Y123024D01*
Y123857D01*
X267832D01*
Y124690D01*
X228999Y30500D02*
X227000Y32499D01*
X228999Y34499D01*
X232998D02*
X231665D01*
X230999Y33832D01*
Y31166D01*
X231665Y30500D01*
X232998D01*
X233664Y31166D01*
Y33832D01*
X232998Y34499D01*
X234997Y30500D02*
Y34499D01*
X237663Y30500D01*
Y34499D01*
X238996Y32499D02*
X241662D01*
X244994Y34499D02*
X243661D01*
X242995Y33832D01*
Y31166D01*
X243661Y30500D01*
X244994D01*
X245661Y31166D01*
Y33832D01*
X244994Y34499D01*
X249659D02*
X246994D01*
Y32499D01*
X248326D01*
X246994D01*
Y30500D01*
X253658Y34499D02*
X250992D01*
Y32499D01*
X252325D01*
X250992D01*
Y30500D01*
X254991D02*
X256990Y32499D01*
X254991Y34499D01*
D37*
X204547Y61405D02*
G03*
X204547Y61405I-1181J0D01*
G01*
X66087Y129362D02*
G03*
X66087Y129362I-1181J0D01*
G01*
X115043Y274594D02*
G03*
X115043Y274594I-1181J0D01*
G01*
X182043Y318595D02*
G03*
X182043Y318595I-1181J0D01*
G01*
D38*
X195492Y66347D02*
G03*
X195492Y66347I-492J0D01*
G01*
X70339Y137728D02*
G03*
X70339Y137728I-492J0D01*
G01*
X122721Y269654D02*
G03*
X122721Y269654I-492J0D01*
G01*
X189720Y313653D02*
G03*
X189720Y313653I-492J0D01*
G01*
D39*
X277000Y318000D02*
X277000Y308000D01*
X277000Y318000D02*
X307000Y318000D01*
X277000Y308000D02*
X307000Y308000D01*
X297000Y308000D02*
Y318000D01*
X287000Y308000D02*
Y318000D01*
X307000Y308000D02*
Y318000D01*
Y308000D02*
Y318000D01*
X313500Y30000D02*
Y40000D01*
X303500Y30000D02*
Y40000D01*
X263500Y30000D02*
Y40000D01*
Y30000D02*
Y40000D01*
X273500Y30000D02*
Y40000D01*
Y30000D02*
Y40000D01*
X283500Y30000D02*
Y40000D01*
Y30000D02*
Y40000D01*
X263500Y40000D02*
X323500Y40000D01*
X293500Y30000D02*
Y40000D01*
X263500Y30000D02*
X323500Y30000D01*
X323500Y40000D02*
X323500Y30000D01*
X263500Y30000D02*
Y40000D01*
D40*
X314500Y50016D02*
X330500D01*
X314500Y311016D02*
X331000D01*
X334500Y50016D02*
X350500D01*
X334500Y311016D02*
X351000D01*
X199429Y45658D02*
X212028D01*
X199429Y65342D02*
X212028D01*
Y45658D02*
Y65342D01*
X199429Y45658D02*
Y65342D01*
X49158Y120701D02*
Y133299D01*
X68843Y120701D02*
Y133299D01*
X49158Y120701D02*
X68843D01*
X49158Y133299D02*
X68843D01*
X105201Y290342D02*
X117799D01*
X105201Y270657D02*
X117799D01*
X105201D02*
Y290342D01*
X117799Y270657D02*
Y290342D01*
X172201Y334343D02*
X184799D01*
X172201Y314657D02*
X184799D01*
X172201D02*
Y334343D01*
X184799Y314657D02*
Y334343D01*
D41*
X165000Y46000D02*
Y60000D01*
X172000D02*
X172000Y46000D01*
X165000Y60000D02*
X172000D01*
X165000Y46000D02*
X172000Y46000D01*
X185000Y27000D02*
Y41000D01*
X192000D02*
X192000Y27000D01*
X185000Y41000D02*
X192000D01*
X185000Y27000D02*
X192000Y27000D01*
X185000Y5500D02*
Y19500D01*
X192000D02*
X192000Y5500D01*
X185000Y19500D02*
X192000D01*
X185000Y5500D02*
X192000Y5500D01*
X260500Y242000D02*
X267500Y242000D01*
X260500Y228000D02*
X267500D01*
X260500Y242000D02*
X260500Y228000D01*
X267500D02*
Y242000D01*
X252500Y242000D02*
X259500Y242000D01*
X252500Y228000D02*
X259500D01*
X252500Y242000D02*
X252500Y228000D01*
X259500D02*
Y242000D01*
X254000Y9000D02*
X261000Y9000D01*
X254000Y23000D02*
X261000D01*
X261000Y9000D01*
X254000Y9000D02*
Y23000D01*
X291000Y297500D02*
X305000D01*
X291000Y290500D02*
X305000Y290500D01*
Y297500D01*
X291000Y290500D02*
X291000Y297500D01*
Y305500D02*
X305000D01*
X291000Y298500D02*
X305000Y298500D01*
Y305500D01*
X291000Y298500D02*
X291000Y305500D01*
X183728Y105000D02*
X197728D01*
X183728Y112000D02*
X197728Y112000D01*
X183728Y105000D02*
Y112000D01*
X197728Y105000D02*
X197728Y112000D01*
X183728Y104000D02*
X197728D01*
X183728Y97000D02*
X197728Y97000D01*
Y104000D01*
X183728Y97000D02*
X183728Y104000D01*
X205228Y82000D02*
Y96000D01*
X198228Y96000D02*
X198228Y82000D01*
X205228D01*
X198228Y96000D02*
X205228Y96000D01*
X198728Y112000D02*
X212728D01*
X198728Y105000D02*
X212728Y105000D01*
Y112000D01*
X198728Y105000D02*
X198728Y112000D01*
X198728Y97000D02*
X212728D01*
X198728Y104000D02*
X212728Y104000D01*
X198728Y97000D02*
Y104000D01*
X212728Y97000D02*
X212728Y104000D01*
X175228Y76000D02*
X189228D01*
X175228Y69000D02*
X189228Y69000D01*
Y76000D01*
X175228Y69000D02*
X175228Y76000D01*
X108500Y135000D02*
Y149000D01*
X115500D02*
X115500Y135000D01*
X108500Y149000D02*
X115500D01*
X108500Y135000D02*
X115500Y135000D01*
X107500D02*
Y149000D01*
X100500Y149000D02*
X100500Y135000D01*
X107500D01*
X100500Y149000D02*
X107500Y149000D01*
X100500Y120000D02*
Y134000D01*
X107500D02*
X107500Y120000D01*
X100500Y134000D02*
X107500D01*
X100500Y120000D02*
X107500Y120000D01*
X85500Y127500D02*
X99500D01*
X85500Y134500D02*
X99500Y134500D01*
X85500Y127500D02*
Y134500D01*
X99500Y127500D02*
X99500Y134500D01*
X115500Y120000D02*
Y134000D01*
X108500Y134000D02*
X108500Y120000D01*
X115500D01*
X108500Y134000D02*
X115500Y134000D01*
X79500Y143500D02*
Y157500D01*
X72500Y157500D02*
X72500Y143500D01*
X79500D01*
X72500Y157500D02*
X79500Y157500D01*
X119500Y231000D02*
X133500D01*
X119500Y224000D02*
X133500Y224000D01*
Y231000D01*
X119500Y224000D02*
X119500Y231000D01*
X119500Y232000D02*
X133500D01*
X119500Y239000D02*
X133500Y239000D01*
X119500Y232000D02*
Y239000D01*
X133500Y232000D02*
X133500Y239000D01*
X104500Y239000D02*
X118500D01*
X104500Y232000D02*
X118500Y232000D01*
Y239000D01*
X104500Y232000D02*
X104500Y239000D01*
X112000Y240000D02*
Y254000D01*
X119000D02*
X119000Y240000D01*
X112000Y254000D02*
X119000D01*
X112000Y240000D02*
X119000Y240000D01*
X104500Y224000D02*
X118500D01*
X104500Y231000D02*
X118500Y231000D01*
X104500Y224000D02*
Y231000D01*
X118500Y224000D02*
X118500Y231000D01*
X128000Y260000D02*
X142000D01*
X128000Y267000D02*
X142000Y267000D01*
X128000Y260000D02*
Y267000D01*
X142000Y260000D02*
X142000Y267000D01*
X186500Y275000D02*
X200500D01*
X186500Y268000D02*
X200500Y268000D01*
Y275000D01*
X186500Y268000D02*
X186500Y275000D01*
X186500Y276000D02*
X200500D01*
X186500Y283000D02*
X200500Y283000D01*
X186500Y276000D02*
Y283000D01*
X200500Y276000D02*
X200500Y283000D01*
X171500Y283000D02*
X185500D01*
X171500Y276000D02*
X185500Y276000D01*
Y283000D01*
X171500Y276000D02*
X171500Y283000D01*
X179000Y284000D02*
Y298000D01*
X186000D02*
X186000Y284000D01*
X179000Y298000D02*
X186000D01*
X179000Y284000D02*
X186000Y284000D01*
X171500Y268000D02*
X185500D01*
X171500Y275000D02*
X185500Y275000D01*
X171500Y268000D02*
Y275000D01*
X185500Y268000D02*
X185500Y275000D01*
X195000Y304000D02*
X209000D01*
X195000Y311000D02*
X209000Y311000D01*
X195000Y304000D02*
Y311000D01*
X209000Y304000D02*
X209000Y311000D01*
X175228Y68000D02*
X189228D01*
X175228Y61000D02*
X189228Y61000D01*
Y68000D01*
X175228Y61000D02*
X175228Y68000D01*
Y60000D02*
X189228D01*
X175228Y53000D02*
X189228Y53000D01*
Y60000D01*
X175228Y53000D02*
X175228Y60000D01*
Y52000D02*
X189228D01*
X175228Y45000D02*
X189228Y45000D01*
Y52000D01*
X175228Y45000D02*
X175228Y52000D01*
X55500Y143500D02*
Y157500D01*
X48500Y157500D02*
X48500Y143500D01*
X55500D01*
X48500Y157500D02*
X55500Y157500D01*
X71500Y143500D02*
Y157500D01*
X64500Y157500D02*
X64500Y143500D01*
X71500D01*
X64500Y157500D02*
X71500Y157500D01*
X63500Y143500D02*
Y157500D01*
X56500Y157500D02*
X56500Y143500D01*
X63500D01*
X56500Y157500D02*
X63500Y157500D01*
X128000Y284000D02*
X142000D01*
X128000Y291000D02*
X142000Y291000D01*
X128000Y284000D02*
Y291000D01*
X142000Y284000D02*
X142000Y291000D01*
X128000Y268000D02*
X142000D01*
X128000Y275000D02*
X142000Y275000D01*
X128000Y268000D02*
Y275000D01*
X142000Y268000D02*
X142000Y275000D01*
X128000Y276000D02*
X142000D01*
X128000Y283000D02*
X142000Y283000D01*
X128000Y276000D02*
Y283000D01*
X142000Y276000D02*
X142000Y283000D01*
X195000Y328000D02*
X209000D01*
X195000Y335000D02*
X209000Y335000D01*
X195000Y328000D02*
Y335000D01*
X209000Y328000D02*
X209000Y335000D01*
X195000Y312000D02*
X209000D01*
X195000Y319000D02*
X209000Y319000D01*
X195000Y312000D02*
Y319000D01*
X209000Y312000D02*
X209000Y319000D01*
X195000Y320000D02*
X209000D01*
X195000Y327000D02*
X209000Y327000D01*
X195000Y320000D02*
Y327000D01*
X209000Y320000D02*
X209000Y327000D01*
X224833Y56166D02*
X224500Y56499D01*
X223833D01*
X223500Y56166D01*
Y55833D01*
X223833Y55500D01*
X224500D01*
X224833Y55166D01*
Y54833D01*
X224500Y54500D01*
X223833D01*
X223500Y54833D01*
X225499Y56499D02*
Y54500D01*
X226166Y55166D01*
X226832Y54500D01*
Y56499D01*
X227499Y54500D02*
X228165D01*
X227832D01*
Y56499D01*
X227499Y56166D01*
X233000Y15000D02*
Y16999D01*
X234000D01*
X234333Y16666D01*
Y16000D01*
X234000Y15666D01*
X233000D01*
X234999Y16999D02*
Y15000D01*
X235999D01*
X236332Y15333D01*
Y15666D01*
X235999Y16000D01*
X234999D01*
X235999D01*
X236332Y16333D01*
Y16666D01*
X235999Y16999D01*
X234999D01*
X236999Y15000D02*
X237665D01*
X237332D01*
Y16999D01*
X236999Y16666D01*
X277100Y322899D02*
Y320900D01*
Y321900D01*
X278433D01*
Y322899D01*
Y320900D01*
X280099D02*
Y322899D01*
X279099Y321900D01*
X280432D01*
X172000Y12999D02*
Y11000D01*
X173000D01*
X173333Y11333D01*
Y12666D01*
X173000Y12999D01*
X172000D01*
X173999Y12666D02*
X174333Y12999D01*
X174999D01*
X175332Y12666D01*
Y12333D01*
X174999Y12000D01*
X174666D01*
X174999D01*
X175332Y11666D01*
Y11333D01*
X174999Y11000D01*
X174333D01*
X173999Y11333D01*
X172000Y34499D02*
Y32500D01*
X173000D01*
X173333Y32833D01*
Y34166D01*
X173000Y34499D01*
X172000D01*
X175332Y32500D02*
X173999D01*
X175332Y33833D01*
Y34166D01*
X174999Y34499D01*
X174333D01*
X173999Y34166D01*
X152000Y24499D02*
Y22500D01*
X153000D01*
X153333Y22833D01*
Y24166D01*
X153000Y24499D01*
X152000D01*
X153999Y22500D02*
X154666D01*
X154333D01*
Y24499D01*
X153999Y24166D01*
X232000Y227999D02*
Y226000D01*
Y227000D01*
X233333D01*
Y227999D01*
Y226000D01*
X235332Y227999D02*
X234666Y227666D01*
X233999Y227000D01*
Y226333D01*
X234333Y226000D01*
X234999D01*
X235332Y226333D01*
Y226666D01*
X234999Y227000D01*
X233999D01*
X263600Y44899D02*
Y42900D01*
Y43900D01*
X264933D01*
Y44899D01*
Y42900D01*
X265599Y44566D02*
X265933Y44899D01*
X266599D01*
X266932Y44566D01*
Y44233D01*
X266599Y43900D01*
X266266D01*
X266599D01*
X266932Y43566D01*
Y43233D01*
X266599Y42900D01*
X265933D01*
X265599Y43233D01*
X319500Y43499D02*
Y41500D01*
Y42500D01*
X320833D01*
Y43499D01*
Y41500D01*
X321499D02*
X322166D01*
X321833D01*
Y43499D01*
X321499Y43166D01*
X339500Y42999D02*
Y41000D01*
Y42000D01*
X340833D01*
Y42999D01*
Y41000D01*
X342832D02*
X341499D01*
X342832Y42333D01*
Y42666D01*
X342499Y42999D01*
X341833D01*
X341499Y42666D01*
X292533Y309866D02*
X292200Y310199D01*
X291533D01*
X291200Y309866D01*
Y308533D01*
X291533Y308200D01*
X292200D01*
X292533Y308533D01*
X294199Y308200D02*
Y310199D01*
X293199Y309200D01*
X294532D01*
X292633Y301866D02*
X292300Y302199D01*
X291633D01*
X291300Y301866D01*
Y300533D01*
X291633Y300200D01*
X292300D01*
X292633Y300533D01*
X294632Y302199D02*
X293299D01*
Y301200D01*
X293966Y301533D01*
X294299D01*
X294632Y301200D01*
Y300533D01*
X294299Y300200D01*
X293633D01*
X293299Y300533D01*
X181728Y76000D02*
X183728D01*
X183061Y75334D01*
X183728Y74667D01*
X181728D01*
Y74001D02*
Y73334D01*
Y73667D01*
X183728D01*
X183395Y74001D01*
Y71002D02*
X183728Y71335D01*
Y72001D01*
X183395Y72334D01*
X182062D01*
X181728Y72001D01*
Y71335D01*
X182062Y71002D01*
X181728Y70335D02*
Y69669D01*
Y70002D01*
X183728D01*
X183395Y70335D01*
X181228Y60000D02*
X183228D01*
X182561Y59334D01*
X183228Y58667D01*
X181228D01*
Y58001D02*
Y57334D01*
Y57667D01*
X183228D01*
X182895Y58001D01*
Y55002D02*
X183228Y55335D01*
Y56001D01*
X182895Y56335D01*
X181562D01*
X181228Y56001D01*
Y55335D01*
X181562Y55002D01*
X181228Y53002D02*
Y54335D01*
X182561Y53002D01*
X182895D01*
X183228Y53335D01*
Y54002D01*
X182895Y54335D01*
X204728Y112000D02*
X206728D01*
X206061Y111334D01*
X206728Y110667D01*
X204728D01*
Y110001D02*
Y109334D01*
Y109667D01*
X206728D01*
X206395Y110001D01*
Y107002D02*
X206728Y107335D01*
Y108001D01*
X206395Y108335D01*
X205062D01*
X204728Y108001D01*
Y107335D01*
X205062Y107002D01*
X206395Y106335D02*
X206728Y106002D01*
Y105335D01*
X206395Y105002D01*
X206061D01*
X205728Y105335D01*
Y105669D01*
Y105335D01*
X205395Y105002D01*
X205062D01*
X204728Y105335D01*
Y106002D01*
X205062Y106335D01*
X220228Y77500D02*
X222228D01*
X221561Y76834D01*
X222228Y76167D01*
X220228D01*
Y75501D02*
Y74834D01*
Y75167D01*
X222228D01*
X221895Y75501D01*
X222228Y73835D02*
X220228D01*
X221228D01*
Y72502D01*
X222228D01*
X220228D01*
X222228Y70502D02*
Y71835D01*
X221228D01*
X221561Y71169D01*
Y70836D01*
X221228Y70502D01*
X220562D01*
X220228Y70836D01*
Y71502D01*
X220562Y71835D01*
X189728Y93000D02*
Y94999D01*
X190395Y94333D01*
X191061Y94999D01*
Y93000D01*
X191728D02*
X192394D01*
X192061D01*
Y94999D01*
X191728Y94666D01*
X194727Y93333D02*
Y94666D01*
X194394Y94999D01*
X193727D01*
X193394Y94666D01*
Y93333D01*
X193727Y93000D01*
X194394D01*
X194060Y93666D02*
X194727Y93000D01*
X194394D02*
X194727Y93333D01*
X195393Y93000D02*
X196060D01*
X195726D01*
Y94999D01*
X195393Y94666D01*
X211728Y93000D02*
Y94999D01*
X212395Y94333D01*
X213061Y94999D01*
Y93000D01*
X213728D02*
X214394D01*
X214061D01*
Y94999D01*
X213728Y94666D01*
X216727Y93333D02*
Y94666D01*
X216393Y94999D01*
X215727D01*
X215394Y94666D01*
Y93333D01*
X215727Y93000D01*
X216393D01*
X216060Y93666D02*
X216727Y93000D01*
X216393D02*
X216727Y93333D01*
X218726Y93000D02*
X217393D01*
X218726Y94333D01*
Y94666D01*
X218393Y94999D01*
X217726D01*
X217393Y94666D01*
X198228Y88000D02*
Y89999D01*
X198895Y89333D01*
X199561Y89999D01*
Y88000D01*
X200228D02*
X200894D01*
X200561D01*
Y89999D01*
X200228Y89666D01*
X201894Y88000D02*
Y89999D01*
X202893D01*
X203227Y89666D01*
Y89000D01*
X202893Y88666D01*
X201894D01*
X202560D02*
X203227Y88000D01*
X203893D02*
X204560D01*
X204226D01*
Y89999D01*
X203893Y89666D01*
X181228Y68000D02*
X183228D01*
X182561Y67334D01*
X183228Y66667D01*
X181228D01*
Y66001D02*
Y65334D01*
Y65667D01*
X183228D01*
X182895Y66001D01*
X181228Y64334D02*
X183228D01*
Y63335D01*
X182895Y63002D01*
X182228D01*
X181895Y63335D01*
Y64334D01*
Y63668D02*
X181228Y63002D01*
Y61002D02*
Y62335D01*
X182561Y61002D01*
X182895D01*
X183228Y61335D01*
Y62002D01*
X182895Y62335D01*
X204728Y104000D02*
X206728D01*
X206061Y103333D01*
X206728Y102667D01*
X204728D01*
Y102001D02*
Y101334D01*
Y101667D01*
X206728D01*
X206395Y102001D01*
X204728Y100335D02*
X206728D01*
Y99335D01*
X206395Y99002D01*
X205728D01*
X205395Y99335D01*
Y100335D01*
Y99668D02*
X204728Y99002D01*
X206395Y98335D02*
X206728Y98002D01*
Y97335D01*
X206395Y97002D01*
X206061D01*
X205728Y97335D01*
Y97669D01*
Y97335D01*
X205395Y97002D01*
X205062D01*
X204728Y97335D01*
Y98002D01*
X205062Y98335D01*
X189728Y104000D02*
X191728D01*
X191061Y103333D01*
X191728Y102667D01*
X189728D01*
Y102001D02*
Y101334D01*
Y101667D01*
X191728D01*
X191394Y102001D01*
X189728Y100335D02*
X191728D01*
Y99335D01*
X191394Y99002D01*
X190728D01*
X190395Y99335D01*
Y100335D01*
Y99668D02*
X189728Y99002D01*
Y97335D02*
X191728D01*
X190728Y98335D01*
Y97002D01*
X181228Y52000D02*
X183228D01*
X182561Y51334D01*
X183228Y50667D01*
X181228D01*
Y50001D02*
Y49334D01*
Y49667D01*
X183228D01*
X182895Y50001D01*
X181228Y48335D02*
X183228D01*
Y47335D01*
X182895Y47002D01*
X182228D01*
X181895Y47335D01*
Y48335D01*
Y47668D02*
X181228Y47002D01*
X183228Y45002D02*
Y46335D01*
X182228D01*
X182561Y45669D01*
Y45336D01*
X182228Y45002D01*
X181562D01*
X181228Y45336D01*
Y46002D01*
X181562Y46335D01*
X189728Y113500D02*
X191728D01*
X191061Y112833D01*
X191728Y112167D01*
X189728D01*
Y111501D02*
Y110834D01*
Y111167D01*
X191728D01*
X191394Y111501D01*
X189728Y109835D02*
X191728D01*
Y108835D01*
X191394Y108502D01*
X190728D01*
X190395Y108835D01*
Y109835D01*
Y109168D02*
X189728Y108502D01*
Y107835D02*
Y107169D01*
Y107502D01*
X191728D01*
X191394Y107835D01*
X189728Y104836D02*
Y106169D01*
X191061Y104836D01*
X191394D01*
X191728Y105169D01*
Y105836D01*
X191394Y106169D01*
X208728Y64000D02*
X210728D01*
X210061Y63334D01*
X210728Y62667D01*
X208728D01*
Y62001D02*
Y61334D01*
Y61667D01*
X210728D01*
X210395Y62001D01*
X210728Y60334D02*
X209062D01*
X208728Y60001D01*
Y59335D01*
X209062Y59002D01*
X210728D01*
X208728Y58335D02*
Y57669D01*
Y58002D01*
X210728D01*
X210395Y58335D01*
X79500Y151000D02*
Y149001D01*
X78834Y149667D01*
X78167Y149001D01*
Y151000D01*
X76168D02*
X77501D01*
X76168Y149667D01*
Y149334D01*
X76501Y149001D01*
X77167D01*
X77501Y149334D01*
X74168D02*
X74502Y149001D01*
X75168D01*
X75501Y149334D01*
Y150667D01*
X75168Y151000D01*
X74502D01*
X74168Y150667D01*
X73502Y151000D02*
X72835D01*
X73169D01*
Y149001D01*
X73502Y149334D01*
X63500Y151500D02*
Y149501D01*
X62834Y150167D01*
X62167Y149501D01*
Y151500D01*
X60168D02*
X61501D01*
X60168Y150167D01*
Y149834D01*
X60501Y149501D01*
X61167D01*
X61501Y149834D01*
X58168D02*
X58502Y149501D01*
X59168D01*
X59501Y149834D01*
Y151167D01*
X59168Y151500D01*
X58502D01*
X58168Y151167D01*
X56169Y151500D02*
X57502D01*
X56169Y150167D01*
Y149834D01*
X56502Y149501D01*
X57169D01*
X57502Y149834D01*
X115500Y128000D02*
Y126001D01*
X114833Y126667D01*
X114167Y126001D01*
Y128000D01*
X112168D02*
X113501D01*
X112168Y126667D01*
Y126334D01*
X112501Y126001D01*
X113167D01*
X113501Y126334D01*
X110168D02*
X110502Y126001D01*
X111168D01*
X111501Y126334D01*
Y127667D01*
X111168Y128000D01*
X110502D01*
X110168Y127667D01*
X109502Y126334D02*
X109169Y126001D01*
X108502D01*
X108169Y126334D01*
Y126667D01*
X108502Y127000D01*
X108835D01*
X108502D01*
X108169Y127333D01*
Y127667D01*
X108502Y128000D01*
X109169D01*
X109502Y127667D01*
X81000Y112500D02*
Y110501D01*
X80334Y111167D01*
X79667Y110501D01*
Y112500D01*
X77668D02*
X79001D01*
X77668Y111167D01*
Y110834D01*
X78001Y110501D01*
X78667D01*
X79001Y110834D01*
X77001Y110501D02*
Y112500D01*
Y111500D01*
X75668D01*
Y110501D01*
Y112500D01*
X73669Y110501D02*
X75002D01*
Y111500D01*
X74335Y111167D01*
X74002D01*
X73669Y111500D01*
Y112167D01*
X74002Y112500D01*
X74669D01*
X75002Y112167D01*
X96500Y143000D02*
X98499D01*
X97833Y142333D01*
X98499Y141667D01*
X96500D01*
Y139668D02*
Y141001D01*
X97833Y139668D01*
X98166D01*
X98499Y140001D01*
Y140667D01*
X98166Y141001D01*
X96833Y137668D02*
X98166D01*
X98499Y138002D01*
Y138668D01*
X98166Y139001D01*
X96833D01*
X96500Y138668D01*
Y138002D01*
X97166Y138335D02*
X96500Y137668D01*
Y138002D02*
X96833Y137668D01*
X96500Y137002D02*
Y136336D01*
Y136669D01*
X98499D01*
X98166Y137002D01*
X96500Y121000D02*
X98499D01*
X97833Y120334D01*
X98499Y119667D01*
X96500D01*
Y117668D02*
Y119001D01*
X97833Y117668D01*
X98166D01*
X98499Y118001D01*
Y118667D01*
X98166Y119001D01*
X96833Y115668D02*
X98166D01*
X98499Y116002D01*
Y116668D01*
X98166Y117001D01*
X96833D01*
X96500Y116668D01*
Y116002D01*
X97166Y116335D02*
X96500Y115668D01*
Y116002D02*
X96833Y115668D01*
X96500Y113669D02*
Y115002D01*
X97833Y113669D01*
X98166D01*
X98499Y114002D01*
Y114669D01*
X98166Y115002D01*
X91500Y134500D02*
X93499D01*
X92833Y133834D01*
X93499Y133167D01*
X91500D01*
Y131168D02*
Y132501D01*
X92833Y131168D01*
X93166D01*
X93499Y131501D01*
Y132167D01*
X93166Y132501D01*
X91500Y130501D02*
X93499D01*
Y129502D01*
X93166Y129168D01*
X92500D01*
X92166Y129502D01*
Y130501D01*
Y129835D02*
X91500Y129168D01*
Y128502D02*
Y127836D01*
Y128169D01*
X93499D01*
X93166Y128502D01*
X71500Y151500D02*
Y149501D01*
X70834Y150167D01*
X70167Y149501D01*
Y151500D01*
X68168D02*
X69501D01*
X68168Y150167D01*
Y149834D01*
X68501Y149501D01*
X69167D01*
X69501Y149834D01*
X67501Y151500D02*
Y149501D01*
X66502D01*
X66168Y149834D01*
Y150500D01*
X66502Y150833D01*
X67501D01*
X66835D02*
X66168Y151500D01*
X64169D02*
X65502D01*
X64169Y150167D01*
Y149834D01*
X64502Y149501D01*
X65169D01*
X65502Y149834D01*
X107500Y128000D02*
Y126001D01*
X106834Y126667D01*
X106167Y126001D01*
Y128000D01*
X104168D02*
X105501D01*
X104168Y126667D01*
Y126334D01*
X104501Y126001D01*
X105167D01*
X105501Y126334D01*
X103501Y128000D02*
Y126001D01*
X102502D01*
X102168Y126334D01*
Y127000D01*
X102502Y127333D01*
X103501D01*
X102835D02*
X102168Y128000D01*
X101502Y126334D02*
X101169Y126001D01*
X100502D01*
X100169Y126334D01*
Y126667D01*
X100502Y127000D01*
X100836D01*
X100502D01*
X100169Y127333D01*
Y127667D01*
X100502Y128000D01*
X101169D01*
X101502Y127667D01*
X107500Y143000D02*
Y141001D01*
X106834Y141667D01*
X106167Y141001D01*
Y143000D01*
X104168D02*
X105501D01*
X104168Y141667D01*
Y141334D01*
X104501Y141001D01*
X105167D01*
X105501Y141334D01*
X103501Y143000D02*
Y141001D01*
X102502D01*
X102168Y141334D01*
Y142000D01*
X102502Y142333D01*
X103501D01*
X102835D02*
X102168Y143000D01*
X100502D02*
Y141001D01*
X101502Y142000D01*
X100169D01*
X55500Y151500D02*
Y149501D01*
X54834Y150167D01*
X54167Y149501D01*
Y151500D01*
X52168D02*
X53501D01*
X52168Y150167D01*
Y149834D01*
X52501Y149501D01*
X53167D01*
X53501Y149834D01*
X51501Y151500D02*
Y149501D01*
X50502D01*
X50168Y149834D01*
Y150500D01*
X50502Y150833D01*
X51501D01*
X50835D02*
X50168Y151500D01*
X48169Y149501D02*
X49502D01*
Y150500D01*
X48836Y150167D01*
X48502D01*
X48169Y150500D01*
Y151167D01*
X48502Y151500D01*
X49169D01*
X49502Y151167D01*
X117000Y143000D02*
Y141001D01*
X116333Y141667D01*
X115667Y141001D01*
Y143000D01*
X113668D02*
X115001D01*
X113668Y141667D01*
Y141334D01*
X114001Y141001D01*
X114667D01*
X115001Y141334D01*
X113001Y143000D02*
Y141001D01*
X112002D01*
X111668Y141334D01*
Y142000D01*
X112002Y142333D01*
X113001D01*
X112335D02*
X111668Y143000D01*
X111002D02*
X110336D01*
X110669D01*
Y141001D01*
X111002Y141334D01*
X108003Y143000D02*
X109336D01*
X108003Y141667D01*
Y141334D01*
X108336Y141001D01*
X109003D01*
X109336Y141334D01*
X67500Y124000D02*
Y122001D01*
X66834Y122667D01*
X66167Y122001D01*
Y124000D01*
X64168D02*
X65501D01*
X64168Y122667D01*
Y122334D01*
X64501Y122001D01*
X65167D01*
X65501Y122334D01*
X63501Y122001D02*
Y123667D01*
X63168Y124000D01*
X62502D01*
X62168Y123667D01*
Y122001D01*
X61502Y124000D02*
X60835D01*
X61169D01*
Y122001D01*
X61502Y122334D01*
X135500Y260000D02*
X133501D01*
X134167Y260666D01*
X133501Y261333D01*
X135500D01*
X133834Y261999D02*
X133501Y262333D01*
Y262999D01*
X133834Y263332D01*
X134167D01*
X134500Y262999D01*
Y262666D01*
Y262999D01*
X134834Y263332D01*
X135167D01*
X135500Y262999D01*
Y262333D01*
X135167Y261999D01*
X133834Y265332D02*
X133501Y264998D01*
Y264332D01*
X133834Y263999D01*
X135167D01*
X135500Y264332D01*
Y264998D01*
X135167Y265332D01*
X135500Y265998D02*
Y266665D01*
Y266331D01*
X133501D01*
X133834Y265998D01*
X136000Y276000D02*
X134001D01*
X134667Y276666D01*
X134001Y277333D01*
X136000D01*
X134334Y277999D02*
X134001Y278333D01*
Y278999D01*
X134334Y279332D01*
X134667D01*
X135000Y278999D01*
Y278666D01*
Y278999D01*
X135334Y279332D01*
X135667D01*
X136000Y278999D01*
Y278333D01*
X135667Y277999D01*
X134334Y281332D02*
X134001Y280998D01*
Y280332D01*
X134334Y279999D01*
X135667D01*
X136000Y280332D01*
Y280998D01*
X135667Y281332D01*
X136000Y283331D02*
Y281998D01*
X134667Y283331D01*
X134334D01*
X134001Y282998D01*
Y282331D01*
X134334Y281998D01*
X112500Y224000D02*
X110501D01*
X111167Y224666D01*
X110501Y225333D01*
X112500D01*
X110834Y225999D02*
X110501Y226333D01*
Y226999D01*
X110834Y227332D01*
X111167D01*
X111500Y226999D01*
Y226666D01*
Y226999D01*
X111834Y227332D01*
X112167D01*
X112500Y226999D01*
Y226333D01*
X112167Y225999D01*
X110834Y229332D02*
X110501Y228998D01*
Y228332D01*
X110834Y227999D01*
X112167D01*
X112500Y228332D01*
Y228998D01*
X112167Y229332D01*
X110834Y229998D02*
X110501Y230331D01*
Y230998D01*
X110834Y231331D01*
X111167D01*
X111500Y230998D01*
Y230664D01*
Y230998D01*
X111834Y231331D01*
X112167D01*
X112500Y230998D01*
Y230331D01*
X112167Y229998D01*
X97000Y258500D02*
X95001D01*
X95667Y259166D01*
X95001Y259833D01*
X97000D01*
X95334Y260499D02*
X95001Y260833D01*
Y261499D01*
X95334Y261832D01*
X95667D01*
X96000Y261499D01*
Y261166D01*
Y261499D01*
X96334Y261832D01*
X96667D01*
X97000Y261499D01*
Y260833D01*
X96667Y260499D01*
X95001Y262499D02*
X97000D01*
X96000D01*
Y263832D01*
X95001D01*
X97000D01*
X95001Y265831D02*
Y264498D01*
X96000D01*
X95667Y265164D01*
Y265498D01*
X96000Y265831D01*
X96667D01*
X97000Y265498D01*
Y264831D01*
X96667Y264498D01*
X127500Y243000D02*
Y241001D01*
X126833Y241667D01*
X126167Y241001D01*
Y243000D01*
X125501Y241334D02*
X125167Y241001D01*
X124501D01*
X124168Y241334D01*
Y241667D01*
X124501Y242000D01*
X124834D01*
X124501D01*
X124168Y242334D01*
Y242667D01*
X124501Y243000D01*
X125167D01*
X125501Y242667D01*
X122168D02*
Y241334D01*
X122502Y241001D01*
X123168D01*
X123501Y241334D01*
Y242667D01*
X123168Y243000D01*
X122502D01*
X122835Y242334D02*
X122168Y243000D01*
X122502D02*
X122168Y242667D01*
X121502Y243000D02*
X120835D01*
X121169D01*
Y241001D01*
X121502Y241334D01*
X105500Y243000D02*
Y241001D01*
X104833Y241667D01*
X104167Y241001D01*
Y243000D01*
X103501Y241334D02*
X103167Y241001D01*
X102501D01*
X102168Y241334D01*
Y241667D01*
X102501Y242000D01*
X102834D01*
X102501D01*
X102168Y242334D01*
Y242667D01*
X102501Y243000D01*
X103167D01*
X103501Y242667D01*
X100168D02*
Y241334D01*
X100502Y241001D01*
X101168D01*
X101501Y241334D01*
Y242667D01*
X101168Y243000D01*
X100502D01*
X100835Y242334D02*
X100168Y243000D01*
X100502D02*
X100168Y242667D01*
X98169Y243000D02*
X99502D01*
X98169Y241667D01*
Y241334D01*
X98502Y241001D01*
X99169D01*
X99502Y241334D01*
X119000Y248000D02*
Y246001D01*
X118333Y246667D01*
X117667Y246001D01*
Y248000D01*
X117001Y246334D02*
X116667Y246001D01*
X116001D01*
X115668Y246334D01*
Y246667D01*
X116001Y247000D01*
X116334D01*
X116001D01*
X115668Y247334D01*
Y247667D01*
X116001Y248000D01*
X116667D01*
X117001Y247667D01*
X115001Y248000D02*
Y246001D01*
X114002D01*
X113668Y246334D01*
Y247000D01*
X114002Y247334D01*
X115001D01*
X114335D02*
X113668Y248000D01*
X113002D02*
X112336D01*
X112669D01*
Y246001D01*
X113002Y246334D01*
X136000Y268000D02*
X134001D01*
X134667Y268666D01*
X134001Y269333D01*
X136000D01*
X134334Y269999D02*
X134001Y270333D01*
Y270999D01*
X134334Y271332D01*
X134667D01*
X135000Y270999D01*
Y270666D01*
Y270999D01*
X135334Y271332D01*
X135667D01*
X136000Y270999D01*
Y270333D01*
X135667Y269999D01*
X136000Y271999D02*
X134001D01*
Y272998D01*
X134334Y273332D01*
X135000D01*
X135334Y272998D01*
Y271999D01*
Y272665D02*
X136000Y273332D01*
Y275331D02*
Y273998D01*
X134667Y275331D01*
X134334D01*
X134001Y274998D01*
Y274331D01*
X134334Y273998D01*
X112500Y232000D02*
X110501D01*
X111167Y232666D01*
X110501Y233333D01*
X112500D01*
X110834Y233999D02*
X110501Y234333D01*
Y234999D01*
X110834Y235332D01*
X111167D01*
X111500Y234999D01*
Y234666D01*
Y234999D01*
X111834Y235332D01*
X112167D01*
X112500Y234999D01*
Y234333D01*
X112167Y233999D01*
X112500Y235999D02*
X110501D01*
Y236998D01*
X110834Y237332D01*
X111500D01*
X111834Y236998D01*
Y235999D01*
Y236665D02*
X112500Y237332D01*
X110834Y237998D02*
X110501Y238331D01*
Y238998D01*
X110834Y239331D01*
X111167D01*
X111500Y238998D01*
Y238665D01*
Y238998D01*
X111834Y239331D01*
X112167D01*
X112500Y238998D01*
Y238331D01*
X112167Y237998D01*
X127500Y232000D02*
X125501D01*
X126167Y232666D01*
X125501Y233333D01*
X127500D01*
X125834Y233999D02*
X125501Y234333D01*
Y234999D01*
X125834Y235332D01*
X126167D01*
X126500Y234999D01*
Y234666D01*
Y234999D01*
X126833Y235332D01*
X127167D01*
X127500Y234999D01*
Y234333D01*
X127167Y233999D01*
X127500Y235999D02*
X125501D01*
Y236998D01*
X125834Y237332D01*
X126500D01*
X126833Y236998D01*
Y235999D01*
Y236665D02*
X127500Y237332D01*
Y238998D02*
X125501D01*
X126500Y237998D01*
Y239331D01*
X136000Y284000D02*
X134001D01*
X134667Y284666D01*
X134001Y285333D01*
X136000D01*
X134334Y285999D02*
X134001Y286333D01*
Y286999D01*
X134334Y287332D01*
X134667D01*
X135000Y286999D01*
Y286666D01*
Y286999D01*
X135334Y287332D01*
X135667D01*
X136000Y286999D01*
Y286333D01*
X135667Y285999D01*
X136000Y287999D02*
X134001D01*
Y288998D01*
X134334Y289332D01*
X135000D01*
X135334Y288998D01*
Y287999D01*
Y288665D02*
X136000Y289332D01*
X134001Y291331D02*
Y289998D01*
X135000D01*
X134667Y290665D01*
Y290998D01*
X135000Y291331D01*
X135667D01*
X136000Y290998D01*
Y290331D01*
X135667Y289998D01*
X127500Y222500D02*
X125501D01*
X126167Y223166D01*
X125501Y223833D01*
X127500D01*
X125834Y224499D02*
X125501Y224833D01*
Y225499D01*
X125834Y225832D01*
X126167D01*
X126500Y225499D01*
Y225166D01*
Y225499D01*
X126833Y225832D01*
X127167D01*
X127500Y225499D01*
Y224833D01*
X127167Y224499D01*
X127500Y226499D02*
X125501D01*
Y227498D01*
X125834Y227832D01*
X126500D01*
X126833Y227498D01*
Y226499D01*
Y227165D02*
X127500Y227832D01*
Y228498D02*
Y229165D01*
Y228831D01*
X125501D01*
X125834Y228498D01*
X127500Y231497D02*
Y230164D01*
X126167Y231497D01*
X125834D01*
X125501Y231164D01*
Y230497D01*
X125834Y230164D01*
X108500Y272000D02*
X106501D01*
X107167Y272666D01*
X106501Y273333D01*
X108500D01*
X106834Y273999D02*
X106501Y274333D01*
Y274999D01*
X106834Y275332D01*
X107167D01*
X107500Y274999D01*
Y274666D01*
Y274999D01*
X107834Y275332D01*
X108167D01*
X108500Y274999D01*
Y274333D01*
X108167Y273999D01*
X106501Y275999D02*
X108167D01*
X108500Y276332D01*
Y276998D01*
X108167Y277332D01*
X106501D01*
X108500Y277998D02*
Y278664D01*
Y278331D01*
X106501D01*
X106834Y277998D01*
X202500Y304000D02*
X200501D01*
X201167Y304666D01*
X200501Y305333D01*
X202500D01*
Y306999D02*
X200501D01*
X201500Y305999D01*
Y307332D01*
X200834Y309332D02*
X200501Y308998D01*
Y308332D01*
X200834Y307999D01*
X202167D01*
X202500Y308332D01*
Y308998D01*
X202167Y309332D01*
X202500Y309998D02*
Y310665D01*
Y310331D01*
X200501D01*
X200834Y309998D01*
X203000Y320000D02*
X201001D01*
X201667Y320666D01*
X201001Y321333D01*
X203000D01*
Y322999D02*
X201001D01*
X202000Y321999D01*
Y323332D01*
X201334Y325332D02*
X201001Y324998D01*
Y324332D01*
X201334Y323999D01*
X202667D01*
X203000Y324332D01*
Y324998D01*
X202667Y325332D01*
X203000Y327331D02*
Y325998D01*
X201667Y327331D01*
X201334D01*
X201001Y326998D01*
Y326331D01*
X201334Y325998D01*
X179500Y268000D02*
X177501D01*
X178167Y268666D01*
X177501Y269333D01*
X179500D01*
Y270999D02*
X177501D01*
X178500Y269999D01*
Y271332D01*
X177834Y273332D02*
X177501Y272998D01*
Y272332D01*
X177834Y271999D01*
X179167D01*
X179500Y272332D01*
Y272998D01*
X179167Y273332D01*
X177834Y273998D02*
X177501Y274331D01*
Y274998D01*
X177834Y275331D01*
X178167D01*
X178500Y274998D01*
Y274664D01*
Y274998D01*
X178833Y275331D01*
X179167D01*
X179500Y274998D01*
Y274331D01*
X179167Y273998D01*
X164000Y302500D02*
X162001D01*
X162667Y303166D01*
X162001Y303833D01*
X164000D01*
Y305499D02*
X162001D01*
X163000Y304499D01*
Y305832D01*
X162001Y306499D02*
X164000D01*
X163000D01*
Y307832D01*
X162001D01*
X164000D01*
X162001Y309831D02*
Y308498D01*
X163000D01*
X162667Y309165D01*
Y309498D01*
X163000Y309831D01*
X163667D01*
X164000Y309498D01*
Y308831D01*
X163667Y308498D01*
X194500Y287000D02*
Y285001D01*
X193833Y285667D01*
X193167Y285001D01*
Y287000D01*
X191501D02*
Y285001D01*
X192501Y286000D01*
X191168D01*
X189168Y286667D02*
Y285334D01*
X189502Y285001D01*
X190168D01*
X190501Y285334D01*
Y286667D01*
X190168Y287000D01*
X189502D01*
X189835Y286334D02*
X189168Y287000D01*
X189502D02*
X189168Y286667D01*
X188502Y287000D02*
X187836D01*
X188169D01*
Y285001D01*
X188502Y285334D01*
X172500Y287000D02*
Y285001D01*
X171834Y285667D01*
X171167Y285001D01*
Y287000D01*
X169501D02*
Y285001D01*
X170501Y286000D01*
X169168D01*
X167168Y286667D02*
Y285334D01*
X167502Y285001D01*
X168168D01*
X168501Y285334D01*
Y286667D01*
X168168Y287000D01*
X167502D01*
X167835Y286334D02*
X167168Y287000D01*
X167502D02*
X167168Y286667D01*
X165169Y287000D02*
X166502D01*
X165169Y285667D01*
Y285334D01*
X165502Y285001D01*
X166169D01*
X166502Y285334D01*
X186000Y292000D02*
Y290001D01*
X185334Y290667D01*
X184667Y290001D01*
Y292000D01*
X183001D02*
Y290001D01*
X184001Y291000D01*
X182668D01*
X182001Y292000D02*
Y290001D01*
X181002D01*
X180668Y290334D01*
Y291000D01*
X181002Y291334D01*
X182001D01*
X181335D02*
X180668Y292000D01*
X180002D02*
X179335D01*
X179669D01*
Y290001D01*
X180002Y290334D01*
X203000Y312000D02*
X201001D01*
X201667Y312666D01*
X201001Y313333D01*
X203000D01*
Y314999D02*
X201001D01*
X202000Y313999D01*
Y315332D01*
X203000Y315999D02*
X201001D01*
Y316998D01*
X201334Y317332D01*
X202000D01*
X202333Y316998D01*
Y315999D01*
Y316665D02*
X203000Y317332D01*
Y319331D02*
Y317998D01*
X201667Y319331D01*
X201334D01*
X201001Y318998D01*
Y318331D01*
X201334Y317998D01*
X179500Y276000D02*
X177501D01*
X178167Y276666D01*
X177501Y277333D01*
X179500D01*
Y278999D02*
X177501D01*
X178500Y277999D01*
Y279332D01*
X179500Y279999D02*
X177501D01*
Y280998D01*
X177834Y281332D01*
X178500D01*
X178833Y280998D01*
Y279999D01*
Y280665D02*
X179500Y281332D01*
X177834Y281998D02*
X177501Y282331D01*
Y282998D01*
X177834Y283331D01*
X178167D01*
X178500Y282998D01*
Y282664D01*
Y282998D01*
X178833Y283331D01*
X179167D01*
X179500Y282998D01*
Y282331D01*
X179167Y281998D01*
X194500Y276000D02*
X192501D01*
X193167Y276666D01*
X192501Y277333D01*
X194500D01*
Y278999D02*
X192501D01*
X193500Y277999D01*
Y279332D01*
X194500Y279999D02*
X192501D01*
Y280998D01*
X192834Y281332D01*
X193500D01*
X193833Y280998D01*
Y279999D01*
Y280665D02*
X194500Y281332D01*
Y282998D02*
X192501D01*
X193500Y281998D01*
Y283331D01*
X203000Y328000D02*
X201001D01*
X201667Y328666D01*
X201001Y329333D01*
X203000D01*
Y330999D02*
X201001D01*
X202000Y329999D01*
Y331332D01*
X203000Y331999D02*
X201001D01*
Y332998D01*
X201334Y333332D01*
X202000D01*
X202333Y332998D01*
Y331999D01*
Y332665D02*
X203000Y333332D01*
X201001Y335331D02*
Y333998D01*
X202000D01*
X201667Y334665D01*
Y334998D01*
X202000Y335331D01*
X202667D01*
X203000Y334998D01*
Y334331D01*
X202667Y333998D01*
X194500Y266500D02*
X192501D01*
X193167Y267166D01*
X192501Y267833D01*
X194500D01*
Y269499D02*
X192501D01*
X193500Y268499D01*
Y269832D01*
X194500Y270499D02*
X192501D01*
Y271498D01*
X192834Y271832D01*
X193500D01*
X193833Y271498D01*
Y270499D01*
Y271165D02*
X194500Y271832D01*
Y272498D02*
Y273165D01*
Y272831D01*
X192501D01*
X192834Y272498D01*
X194500Y275497D02*
Y274164D01*
X193167Y275497D01*
X192834D01*
X192501Y275164D01*
Y274497D01*
X192834Y274164D01*
X175500Y316000D02*
X173501D01*
X174167Y316666D01*
X173501Y317333D01*
X175500D01*
Y318999D02*
X173501D01*
X174500Y317999D01*
Y319332D01*
X173501Y319999D02*
X175167D01*
X175500Y320332D01*
Y320998D01*
X175167Y321332D01*
X173501D01*
X175500Y321998D02*
Y322664D01*
Y322331D01*
X173501D01*
X173834Y321998D01*
X254200Y25700D02*
Y27699D01*
X255200D01*
X255533Y27366D01*
Y26700D01*
X255200Y26366D01*
X254200D01*
X254866D02*
X255533Y25700D01*
X257532Y27699D02*
X256866Y27366D01*
X256199Y26700D01*
Y26033D01*
X256533Y25700D01*
X257199D01*
X257532Y26033D01*
Y26366D01*
X257199Y26700D01*
X256199D01*
X260800Y244700D02*
Y246699D01*
X261800D01*
X262133Y246366D01*
Y245700D01*
X261800Y245366D01*
X260800D01*
X261466D02*
X262133Y244700D01*
X262799Y246699D02*
X264132D01*
Y246366D01*
X262799Y245033D01*
Y244700D01*
X252700D02*
Y246699D01*
X253700D01*
X254033Y246366D01*
Y245700D01*
X253700Y245366D01*
X252700D01*
X253366D02*
X254033Y244700D01*
X254699Y246366D02*
X255033Y246699D01*
X255699D01*
X256032Y246366D01*
Y246033D01*
X255699Y245700D01*
X256032Y245366D01*
Y245033D01*
X255699Y244700D01*
X255033D01*
X254699Y245033D01*
Y245366D01*
X255033Y245700D01*
X254699Y246033D01*
Y246366D01*
X255033Y245700D02*
X255699D01*
X165200Y62700D02*
Y64699D01*
X166200D01*
X166533Y64366D01*
Y63700D01*
X166200Y63366D01*
X165200D01*
X165866D02*
X166533Y62700D01*
X167199Y63033D02*
X167533Y62700D01*
X168199D01*
X168532Y63033D01*
Y64366D01*
X168199Y64699D01*
X167533D01*
X167199Y64366D01*
Y64033D01*
X167533Y63700D01*
X168532D01*
X185200Y43700D02*
Y45699D01*
X186200D01*
X186533Y45366D01*
Y44700D01*
X186200Y44366D01*
X185200D01*
X185866D02*
X186533Y43700D01*
X187199D02*
X187866D01*
X187533D01*
Y45699D01*
X187199Y45366D01*
X188865D02*
X189199Y45699D01*
X189865D01*
X190198Y45366D01*
Y44033D01*
X189865Y43700D01*
X189199D01*
X188865Y44033D01*
Y45366D01*
X185300Y22300D02*
Y24299D01*
X186300D01*
X186633Y23966D01*
Y23300D01*
X186300Y22966D01*
X185300D01*
X185967D02*
X186633Y22300D01*
X187299D02*
X187966D01*
X187633D01*
Y24299D01*
X187299Y23966D01*
X188965Y22300D02*
X189632D01*
X189299D01*
Y24299D01*
X188965Y23966D01*
X329499Y314682D02*
Y312016D01*
X327499D01*
X328166Y313349D01*
Y314015D01*
X327499Y314682D01*
X326166D01*
X325500Y314015D01*
Y312682D01*
X326166Y312016D01*
X325500Y318680D02*
Y316014D01*
X328166Y318680D01*
X328832D01*
X329499Y318014D01*
Y316681D01*
X328832Y316014D01*
X319999Y315181D02*
Y312516D01*
X317999D01*
X318666Y313849D01*
Y314515D01*
X317999Y315181D01*
X316666D01*
X316000Y314515D01*
Y313182D01*
X316666Y312516D01*
X316000Y316514D02*
Y317847D01*
Y317181D01*
X319999D01*
X319332Y316514D01*
X315500Y47016D02*
Y48349D01*
Y47682D01*
X319499D01*
X318832Y47016D01*
X325500Y48682D02*
Y46016D01*
X328166Y48682D01*
X328832D01*
X329499Y48015D01*
Y46682D01*
X328832Y46016D01*
X349499Y314682D02*
Y312016D01*
X347499D01*
X348166Y313349D01*
Y314015D01*
X347499Y314682D01*
X346166D01*
X345500Y314015D01*
Y312682D01*
X346166Y312016D01*
X345500Y318680D02*
Y316014D01*
X348166Y318680D01*
X348832D01*
X349499Y318014D01*
Y316681D01*
X348832Y316014D01*
X339999Y315181D02*
Y312516D01*
X337999D01*
X338666Y313849D01*
Y314515D01*
X337999Y315181D01*
X336666D01*
X336000Y314515D01*
Y313182D01*
X336666Y312516D01*
X336000Y316514D02*
Y317847D01*
Y317181D01*
X339999D01*
X339332Y316514D01*
X335500Y47016D02*
Y48349D01*
Y47682D01*
X339499D01*
X338832Y47016D01*
X345500Y48682D02*
Y46016D01*
X348166Y48682D01*
X348832D01*
X349499Y48015D01*
Y46682D01*
X348832Y46016D01*
D42*
X183740Y83502D02*
X197240D01*
X183740D02*
Y96002D01*
X197240D01*
Y83502D02*
Y96002D01*
X183740Y95002D02*
X184740Y96002D01*
X183740Y95002D02*
Y96002D01*
X185240D01*
X183740Y95402D02*
X184340Y96002D01*
X183740Y94602D02*
Y94702D01*
X184140Y95102D01*
X206240Y83502D02*
X219740D01*
X206240D02*
Y96002D01*
X219740D01*
Y83502D02*
Y96002D01*
X206240Y95002D02*
X207240Y96002D01*
X206240Y95002D02*
Y96002D01*
X207740D01*
X206240Y95402D02*
X206840Y96002D01*
X206240Y94602D02*
Y94702D01*
X206640Y95102D01*
X87002Y112988D02*
Y126488D01*
X99502D01*
Y112988D02*
Y126488D01*
X87002Y112988D02*
X99502D01*
X98502Y126488D02*
X99502Y125488D01*
X98502Y126488D02*
X99502D01*
Y124988D02*
Y126488D01*
X98902D02*
X99502Y125888D01*
X98102Y126488D02*
X98202D01*
X98602Y126088D01*
X87002Y135488D02*
Y148988D01*
X99502D01*
Y135488D02*
Y148988D01*
X87002Y135488D02*
X99502D01*
X98502Y148988D02*
X99502Y147988D01*
X98502Y148988D02*
X99502D01*
Y147488D02*
Y148988D01*
X98902D02*
X99502Y148388D01*
X98102Y148988D02*
X98202D01*
X98602Y148588D01*
X97488Y252498D02*
X110988D01*
Y239998D02*
Y252498D01*
X97488Y239998D02*
X110988D01*
X97488D02*
Y252498D01*
X109988Y239998D02*
X110988Y240998D01*
Y239998D02*
Y240998D01*
X109488Y239998D02*
X110988D01*
X110388D02*
X110988Y240598D01*
Y241298D02*
Y241398D01*
X110588Y240898D02*
X110988Y241298D01*
X119988Y252498D02*
X133488D01*
Y239998D02*
Y252498D01*
X119988Y239998D02*
X133488D01*
X119988D02*
Y252498D01*
X132488Y239998D02*
X133488Y240998D01*
Y239998D02*
Y240998D01*
X131988Y239998D02*
X133488D01*
X132888D02*
X133488Y240598D01*
Y241298D02*
Y241398D01*
X133088Y240898D02*
X133488Y241298D01*
X164488Y296498D02*
X177988D01*
Y283998D02*
Y296498D01*
X164488Y283998D02*
X177988D01*
X164488D02*
Y296498D01*
X176988Y283998D02*
X177988Y284998D01*
Y283998D02*
Y284998D01*
X176488Y283998D02*
X177988D01*
X177388D02*
X177988Y284598D01*
Y285298D02*
Y285398D01*
X177588Y284898D02*
X177988Y285298D01*
X186988Y296498D02*
X200488D01*
Y283998D02*
Y296498D01*
X186988Y283998D02*
X200488D01*
X186988D02*
Y296498D01*
X199488Y283998D02*
X200488Y284998D01*
Y283998D02*
Y284998D01*
X198988Y283998D02*
X200488D01*
X199888D02*
X200488Y284598D01*
Y285298D02*
Y285398D01*
X200088Y284898D02*
X200488Y285298D01*
D43*
X281981Y313000D02*
D03*
X318519Y35000D02*
D03*
M02*
