G04 Layer_Physical_Order=2*
G04 Layer_Color=16711680*
%FSLAX25Y25*%
%MOIN*%
G70*
G01*
G75*
%ADD18C,0.01000*%
%ADD19C,0.03000*%
%ADD21C,0.02000*%
%ADD25C,0.06000*%
%ADD26C,0.07000*%
%ADD27R,0.07000X0.07000*%
%ADD28C,0.04724*%
%ADD29C,0.08000*%
%ADD30R,0.08000X0.08000*%
%ADD31R,0.06000X0.06000*%
%ADD32C,0.19685*%
%ADD33C,0.07874*%
%ADD34C,0.04000*%
%ADD35C,0.25000*%
%ADD36C,0.18000*%
G36*
X345000Y337500D02*
X358319D01*
X359944Y337286D01*
X361527Y336862D01*
X363040Y336235D01*
X364459Y335416D01*
X365759Y334418D01*
X366918Y333260D01*
X367916Y331960D01*
X368735Y330540D01*
X369362Y329027D01*
X369786Y327444D01*
X370000Y325819D01*
Y325000D01*
Y35000D01*
Y34181D01*
X369786Y32556D01*
X369362Y30973D01*
X368735Y29460D01*
X367916Y28041D01*
X366918Y26741D01*
X365759Y25582D01*
X364459Y24584D01*
X363040Y23765D01*
X361527Y23138D01*
X359944Y22714D01*
X358319Y22500D01*
X345000D01*
X322500Y0D01*
X167800D01*
X160300Y7500D01*
X19181D01*
X17556Y7714D01*
X15973Y8138D01*
X14459Y8765D01*
X13040Y9584D01*
X11740Y10582D01*
X10582Y11740D01*
X9584Y13040D01*
X8765Y14459D01*
X8138Y15973D01*
X7714Y17556D01*
X7500Y19181D01*
Y20000D01*
Y83400D01*
X0Y90900D01*
Y165000D01*
X7500Y172500D01*
Y335000D01*
Y335819D01*
X7714Y337444D01*
X8138Y339027D01*
X8765Y340541D01*
X9584Y341960D01*
X10582Y343260D01*
X11740Y344418D01*
X13040Y345416D01*
X14459Y346235D01*
X15973Y346862D01*
X17556Y347286D01*
X19181Y347500D01*
X335000D01*
X345000Y337500D01*
D02*
G37*
%LPC*%
G36*
X110827Y330176D02*
X109538Y330007D01*
X108337Y329509D01*
X107306Y328718D01*
X106514Y327687D01*
X106017Y326486D01*
X105847Y325197D01*
X106017Y323908D01*
X106514Y322707D01*
X107306Y321676D01*
X108337Y320884D01*
X109538Y320387D01*
X110827Y320217D01*
X112116Y320387D01*
X113317Y320884D01*
X114348Y321676D01*
X115139Y322707D01*
X115637Y323908D01*
X115806Y325197D01*
X115637Y326486D01*
X115139Y327687D01*
X114348Y328718D01*
X113317Y329509D01*
X112116Y330007D01*
X110827Y330176D01*
D02*
G37*
G36*
X286500Y317500D02*
X282500D01*
Y313500D01*
X286500D01*
Y317500D01*
D02*
G37*
G36*
X281500D02*
X277500D01*
Y313500D01*
X281500D01*
Y317500D01*
D02*
G37*
G36*
X286500Y312500D02*
X282500D01*
Y308500D01*
X286500D01*
Y312500D01*
D02*
G37*
G36*
X281500D02*
X277500D01*
Y308500D01*
X281500D01*
Y312500D01*
D02*
G37*
G36*
X302000Y317539D02*
X300825Y317384D01*
X299731Y316931D01*
X298791Y316210D01*
X298069Y315269D01*
X297616Y314175D01*
X297461Y313000D01*
X297616Y311825D01*
X298069Y310731D01*
X298791Y309791D01*
X299731Y309069D01*
X300825Y308616D01*
X302000Y308461D01*
X303175Y308616D01*
X304269Y309069D01*
X305209Y309791D01*
X305931Y310731D01*
X306384Y311825D01*
X306539Y313000D01*
X306384Y314175D01*
X305931Y315269D01*
X305209Y316210D01*
X304269Y316931D01*
X303175Y317384D01*
X302000Y317539D01*
D02*
G37*
G36*
X292000Y317539D02*
X290825Y317384D01*
X289731Y316931D01*
X288791Y316210D01*
X288069Y315269D01*
X287616Y314175D01*
X287461Y313000D01*
X287616Y311825D01*
X288069Y310731D01*
X288791Y309791D01*
X289731Y309069D01*
X290825Y308616D01*
X292000Y308461D01*
X293175Y308616D01*
X294269Y309069D01*
X295210Y309791D01*
X295931Y310731D01*
X296384Y311825D01*
X296539Y313000D01*
X296384Y314175D01*
X295931Y315269D01*
X295210Y316210D01*
X294269Y316931D01*
X293175Y317384D01*
X292000Y317539D01*
D02*
G37*
G36*
X347500Y310043D02*
X346195Y309871D01*
X344978Y309367D01*
X343934Y308566D01*
X343132Y307522D01*
X342771Y306648D01*
X342229D01*
X341867Y307522D01*
X341066Y308566D01*
X340022Y309367D01*
X338805Y309871D01*
X337500Y310043D01*
X336195Y309871D01*
X334978Y309367D01*
X333934Y308566D01*
X333133Y307522D01*
X332771Y306648D01*
X332229D01*
X331868Y307522D01*
X331066Y308566D01*
X330022Y309367D01*
X328805Y309871D01*
X327500Y310043D01*
X326195Y309871D01*
X324978Y309367D01*
X323934Y308566D01*
X323132Y307522D01*
X322771Y306648D01*
X322229D01*
X321867Y307522D01*
X321066Y308566D01*
X320022Y309367D01*
X318805Y309871D01*
X317500Y310043D01*
X316195Y309871D01*
X314978Y309367D01*
X313934Y308566D01*
X313133Y307522D01*
X312629Y306305D01*
X312457Y305000D01*
X312629Y303695D01*
X313133Y302478D01*
X313934Y301434D01*
X314978Y300633D01*
X315852Y300271D01*
Y299729D01*
X314978Y299367D01*
X313934Y298566D01*
X313133Y297522D01*
X312629Y296305D01*
X312457Y295000D01*
X312629Y293695D01*
X312828Y293212D01*
X300771Y281154D01*
X300329Y280493D01*
X300173Y279713D01*
Y263485D01*
X299673Y263385D01*
X299621Y263513D01*
X299140Y264140D01*
X298513Y264620D01*
X297783Y264923D01*
X297000Y265026D01*
X296217Y264923D01*
X295487Y264620D01*
X294860Y264140D01*
X294379Y263513D01*
X294077Y262783D01*
X293974Y262000D01*
X294077Y261217D01*
X294379Y260487D01*
X294860Y259860D01*
X295471Y259392D01*
Y222779D01*
X294478Y222368D01*
X293434Y221566D01*
X292633Y220522D01*
X292529Y220273D01*
X292029Y220372D01*
Y266892D01*
X292640Y267360D01*
X293121Y267987D01*
X293423Y268717D01*
X293526Y269500D01*
X293423Y270283D01*
X293121Y271013D01*
X292640Y271640D01*
X292013Y272120D01*
X291283Y272423D01*
X290500Y272526D01*
X289717Y272423D01*
X288987Y272120D01*
X288360Y271640D01*
X287879Y271013D01*
X287577Y270283D01*
X287474Y269500D01*
X287577Y268717D01*
X287879Y267987D01*
X288360Y267360D01*
X288971Y266892D01*
Y204500D01*
X289087Y203915D01*
X289419Y203419D01*
X292540Y200297D01*
X292129Y199305D01*
X291957Y198000D01*
X292129Y196695D01*
X292633Y195478D01*
X293434Y194434D01*
X294478Y193632D01*
X295352Y193271D01*
Y192729D01*
X294703Y192460D01*
X286529Y200634D01*
Y251392D01*
X287140Y251860D01*
X287620Y252487D01*
X287923Y253217D01*
X288026Y254000D01*
X287923Y254783D01*
X287620Y255513D01*
X287140Y256140D01*
X286513Y256621D01*
X285783Y256923D01*
X285000Y257026D01*
X284217Y256923D01*
X283487Y256621D01*
X282860Y256140D01*
X282380Y255513D01*
X282077Y254783D01*
X281974Y254000D01*
X282077Y253217D01*
X282380Y252487D01*
X282860Y251860D01*
X283471Y251392D01*
Y200000D01*
X283587Y199415D01*
X283919Y198919D01*
X292540Y190297D01*
X292129Y189305D01*
X291957Y188000D01*
X292129Y186695D01*
X292633Y185478D01*
X293434Y184434D01*
X294478Y183633D01*
X295352Y183271D01*
Y182729D01*
X294478Y182368D01*
X293434Y181566D01*
X292633Y180522D01*
X292129Y179305D01*
X291957Y178000D01*
X292129Y176695D01*
X292633Y175478D01*
X293434Y174434D01*
X294478Y173633D01*
X295352Y173271D01*
Y172729D01*
X294478Y172368D01*
X293434Y171566D01*
X292633Y170522D01*
X292129Y169305D01*
X291957Y168000D01*
X292129Y166695D01*
X292633Y165478D01*
X293434Y164434D01*
X294478Y163633D01*
X295352Y163271D01*
Y162729D01*
X294478Y162367D01*
X293434Y161566D01*
X292633Y160522D01*
X292129Y159305D01*
X291957Y158000D01*
X292129Y156695D01*
X292633Y155478D01*
X293434Y154434D01*
X294478Y153632D01*
X295352Y153271D01*
Y152729D01*
X294478Y152367D01*
X293434Y151566D01*
X292633Y150522D01*
X292129Y149305D01*
X291957Y148000D01*
X292129Y146695D01*
X292633Y145478D01*
X293434Y144434D01*
X294478Y143632D01*
X295352Y143271D01*
Y142729D01*
X294478Y142367D01*
X293434Y141566D01*
X292633Y140522D01*
X292129Y139305D01*
X292023Y138500D01*
X297000D01*
X301977D01*
X301871Y139305D01*
X301367Y140522D01*
X300566Y141566D01*
X299522Y142367D01*
X298648Y142729D01*
Y143271D01*
X299522Y143632D01*
X300566Y144434D01*
X301367Y145478D01*
X301871Y146695D01*
X302043Y148000D01*
X301871Y149305D01*
X301367Y150522D01*
X300566Y151566D01*
X299522Y152367D01*
X298648Y152729D01*
Y153271D01*
X299522Y153632D01*
X300566Y154434D01*
X301367Y155478D01*
X301871Y156695D01*
X302043Y158000D01*
X301871Y159305D01*
X301367Y160522D01*
X300566Y161566D01*
X299522Y162367D01*
X298648Y162729D01*
Y163271D01*
X299522Y163633D01*
X300566Y164434D01*
X301367Y165478D01*
X301871Y166695D01*
X302043Y168000D01*
X301871Y169305D01*
X301367Y170522D01*
X300566Y171566D01*
X299522Y172368D01*
X298648Y172729D01*
Y173271D01*
X299522Y173633D01*
X300566Y174434D01*
X301367Y175478D01*
X301871Y176695D01*
X302043Y178000D01*
X301871Y179305D01*
X301367Y180522D01*
X300566Y181566D01*
X299522Y182368D01*
X298648Y182729D01*
Y183271D01*
X299522Y183633D01*
X300566Y184434D01*
X301367Y185478D01*
X301871Y186695D01*
X302043Y188000D01*
X301871Y189305D01*
X301367Y190522D01*
X300566Y191566D01*
X299522Y192367D01*
X298648Y192729D01*
Y193271D01*
X299522Y193632D01*
X300566Y194434D01*
X301367Y195478D01*
X301871Y196695D01*
X302043Y198000D01*
X301871Y199305D01*
X301367Y200522D01*
X300566Y201566D01*
X299522Y202367D01*
X298648Y202729D01*
Y203271D01*
X299522Y203632D01*
X300566Y204434D01*
X301367Y205478D01*
X301871Y206695D01*
X302043Y208000D01*
X301871Y209305D01*
X301367Y210522D01*
X300566Y211566D01*
X299522Y212368D01*
X298648Y212729D01*
Y213271D01*
X299522Y213632D01*
X300566Y214434D01*
X301367Y215478D01*
X301871Y216695D01*
X302043Y218000D01*
X301871Y219305D01*
X301367Y220522D01*
X300566Y221566D01*
X299522Y222368D01*
X298529Y222779D01*
Y259392D01*
X299140Y259860D01*
X299621Y260487D01*
X299673Y260615D01*
X300173Y260515D01*
Y239287D01*
X300329Y238507D01*
X300771Y237845D01*
X306961Y231655D01*
Y218717D01*
X306860Y218640D01*
X306380Y218013D01*
X306077Y217283D01*
X305974Y216500D01*
X306077Y215717D01*
X306380Y214987D01*
X306860Y214360D01*
X307487Y213879D01*
X308217Y213577D01*
X309000Y213474D01*
X309783Y213577D01*
X310513Y213879D01*
X311140Y214360D01*
X311620Y214987D01*
X311923Y215717D01*
X312026Y216500D01*
X311923Y217283D01*
X311620Y218013D01*
X311140Y218640D01*
X311039Y218717D01*
Y232500D01*
X310884Y233280D01*
X310442Y233942D01*
X307468Y236916D01*
X307689Y237365D01*
X308150Y237304D01*
X309438Y237474D01*
X310639Y237971D01*
X311671Y238762D01*
X312462Y239794D01*
X312960Y240995D01*
X313059Y241753D01*
X313582Y241893D01*
X313934Y241434D01*
X314978Y240633D01*
X315852Y240271D01*
Y239729D01*
X314978Y239368D01*
X313934Y238566D01*
X313133Y237522D01*
X312629Y236305D01*
X312457Y235000D01*
X312629Y233695D01*
X313133Y232478D01*
X313934Y231434D01*
X314978Y230632D01*
X315852Y230271D01*
Y229729D01*
X314978Y229367D01*
X313934Y228566D01*
X313133Y227522D01*
X312629Y226305D01*
X312457Y225000D01*
X312629Y223695D01*
X313133Y222478D01*
X313934Y221434D01*
X314978Y220633D01*
X315852Y220271D01*
Y219729D01*
X314978Y219368D01*
X313934Y218566D01*
X313133Y217522D01*
X312629Y216305D01*
X312457Y215000D01*
X312629Y213695D01*
X313133Y212478D01*
X313934Y211434D01*
X314978Y210632D01*
X315852Y210271D01*
Y209729D01*
X314978Y209367D01*
X313934Y208566D01*
X313133Y207522D01*
X312629Y206305D01*
X312457Y205000D01*
X312629Y203695D01*
X313133Y202478D01*
X313934Y201434D01*
X314978Y200633D01*
X315852Y200271D01*
Y199729D01*
X314978Y199367D01*
X313934Y198566D01*
X313133Y197522D01*
X312629Y196305D01*
X312457Y195000D01*
X312629Y193695D01*
X313133Y192478D01*
X313934Y191434D01*
X314978Y190632D01*
X315852Y190271D01*
Y189729D01*
X314978Y189367D01*
X313934Y188566D01*
X313133Y187522D01*
X312629Y186305D01*
X312457Y185000D01*
X312629Y183695D01*
X313133Y182478D01*
X313934Y181434D01*
X314978Y180632D01*
X315852Y180271D01*
Y179729D01*
X314978Y179367D01*
X313934Y178566D01*
X313133Y177522D01*
X312629Y176305D01*
X312457Y175000D01*
X312629Y173695D01*
X313133Y172478D01*
X313934Y171434D01*
X314978Y170633D01*
X315852Y170271D01*
Y169729D01*
X314978Y169368D01*
X313934Y168566D01*
X313133Y167522D01*
X312629Y166305D01*
X312457Y165000D01*
X312629Y163695D01*
X313133Y162478D01*
X313934Y161434D01*
X314978Y160633D01*
X315852Y160271D01*
Y159729D01*
X314978Y159368D01*
X313934Y158566D01*
X313133Y157522D01*
X312629Y156305D01*
X312457Y155000D01*
X312629Y153695D01*
X313133Y152478D01*
X313934Y151434D01*
X314978Y150633D01*
X315852Y150271D01*
Y149729D01*
X314978Y149367D01*
X313934Y148566D01*
X313133Y147522D01*
X312629Y146305D01*
X312457Y145000D01*
X312629Y143695D01*
X313133Y142478D01*
X313934Y141434D01*
X314978Y140632D01*
X315852Y140271D01*
Y139729D01*
X314978Y139367D01*
X313934Y138566D01*
X313133Y137522D01*
X312629Y136305D01*
X312457Y135000D01*
X312629Y133695D01*
X313133Y132478D01*
X313934Y131434D01*
X314978Y130632D01*
X315852Y130271D01*
Y129729D01*
X314978Y129367D01*
X313934Y128566D01*
X313133Y127522D01*
X312629Y126305D01*
X312457Y125000D01*
X312629Y123695D01*
X313133Y122478D01*
X313934Y121434D01*
X314978Y120633D01*
X315852Y120271D01*
Y119729D01*
X314978Y119368D01*
X313934Y118566D01*
X313133Y117522D01*
X312629Y116305D01*
X312457Y115000D01*
X312629Y113695D01*
X313133Y112478D01*
X313934Y111434D01*
X314978Y110633D01*
X315852Y110271D01*
Y109729D01*
X314978Y109368D01*
X313934Y108566D01*
X313133Y107522D01*
X312629Y106305D01*
X312457Y105000D01*
X312629Y103695D01*
X313133Y102478D01*
X313934Y101434D01*
X314978Y100633D01*
X315852Y100271D01*
Y99729D01*
X314978Y99367D01*
X313934Y98566D01*
X313133Y97522D01*
X312629Y96305D01*
X312457Y95000D01*
X312629Y93695D01*
X313133Y92478D01*
X313934Y91434D01*
X314978Y90632D01*
X315852Y90271D01*
Y89729D01*
X314978Y89368D01*
X313934Y88566D01*
X313133Y87522D01*
X312629Y86305D01*
X312457Y85000D01*
X312629Y83695D01*
X313133Y82478D01*
X313934Y81434D01*
X314978Y80633D01*
X315852Y80271D01*
Y79729D01*
X314978Y79368D01*
X313934Y78566D01*
X313133Y77522D01*
X312629Y76305D01*
X312457Y75000D01*
X312629Y73695D01*
X313133Y72478D01*
X313934Y71434D01*
X314978Y70632D01*
X315852Y70271D01*
Y69729D01*
X314978Y69367D01*
X313934Y68566D01*
X313133Y67522D01*
X312629Y66305D01*
X312457Y65000D01*
X312629Y63695D01*
X313133Y62478D01*
X313934Y61434D01*
X314978Y60632D01*
X315298Y60500D01*
X315199Y60000D01*
X312500D01*
Y50000D01*
X322500D01*
Y52699D01*
X323000Y52798D01*
X323132Y52478D01*
X323934Y51434D01*
X324978Y50633D01*
X326195Y50129D01*
X327500Y49957D01*
X328805Y50129D01*
X330022Y50633D01*
X331066Y51434D01*
X331868Y52478D01*
X332371Y53695D01*
X332543Y55000D01*
X332371Y56305D01*
X331868Y57522D01*
X331066Y58566D01*
X330022Y59368D01*
X329148Y59729D01*
Y60271D01*
X330022Y60632D01*
X331066Y61434D01*
X331868Y62478D01*
X332229Y63352D01*
X332771D01*
X333133Y62478D01*
X333934Y61434D01*
X334978Y60632D01*
X336195Y60129D01*
X337500Y59957D01*
X338805Y60129D01*
X340022Y60632D01*
X341066Y61434D01*
X341867Y62478D01*
X342229Y63352D01*
X342771D01*
X343132Y62478D01*
X343934Y61434D01*
X344978Y60632D01*
X345852Y60271D01*
Y59729D01*
X344978Y59368D01*
X343934Y58566D01*
X343132Y57522D01*
X342629Y56305D01*
X342457Y55000D01*
X342629Y53695D01*
X343132Y52478D01*
X343934Y51434D01*
X344978Y50633D01*
X346195Y50129D01*
X347500Y49957D01*
X348805Y50129D01*
X350022Y50633D01*
X351066Y51434D01*
X351868Y52478D01*
X352371Y53695D01*
X352543Y55000D01*
X352371Y56305D01*
X351868Y57522D01*
X351066Y58566D01*
X350022Y59368D01*
X349148Y59729D01*
Y60271D01*
X350022Y60632D01*
X351066Y61434D01*
X351868Y62478D01*
X352371Y63695D01*
X352543Y65000D01*
X352371Y66305D01*
X351868Y67522D01*
X351066Y68566D01*
X350022Y69367D01*
X349148Y69729D01*
Y70271D01*
X350022Y70632D01*
X351066Y71434D01*
X351868Y72478D01*
X352371Y73695D01*
X352543Y75000D01*
X352371Y76305D01*
X351868Y77522D01*
X351066Y78566D01*
X350022Y79368D01*
X349148Y79729D01*
Y80271D01*
X350022Y80633D01*
X351066Y81434D01*
X351868Y82478D01*
X352371Y83695D01*
X352543Y85000D01*
X352371Y86305D01*
X351868Y87522D01*
X351066Y88566D01*
X350022Y89368D01*
X349148Y89729D01*
Y90271D01*
X350022Y90632D01*
X351066Y91434D01*
X351868Y92478D01*
X352371Y93695D01*
X352543Y95000D01*
X352371Y96305D01*
X351868Y97522D01*
X351066Y98566D01*
X350022Y99367D01*
X349148Y99729D01*
Y100271D01*
X350022Y100633D01*
X351066Y101434D01*
X351868Y102478D01*
X352371Y103695D01*
X352543Y105000D01*
X352371Y106305D01*
X351868Y107522D01*
X351066Y108566D01*
X350022Y109368D01*
X349148Y109729D01*
Y110271D01*
X350022Y110633D01*
X351066Y111434D01*
X351868Y112478D01*
X352371Y113695D01*
X352543Y115000D01*
X352371Y116305D01*
X351868Y117522D01*
X351066Y118566D01*
X350022Y119368D01*
X349148Y119729D01*
Y120271D01*
X350022Y120633D01*
X351066Y121434D01*
X351868Y122478D01*
X352371Y123695D01*
X352543Y125000D01*
X352371Y126305D01*
X351868Y127522D01*
X351066Y128566D01*
X350022Y129367D01*
X349148Y129729D01*
Y130271D01*
X350022Y130632D01*
X351066Y131434D01*
X351868Y132478D01*
X352371Y133695D01*
X352543Y135000D01*
X352371Y136305D01*
X351868Y137522D01*
X351066Y138566D01*
X350022Y139367D01*
X349148Y139729D01*
Y140271D01*
X350022Y140632D01*
X351066Y141434D01*
X351868Y142478D01*
X352371Y143695D01*
X352543Y145000D01*
X352371Y146305D01*
X351868Y147522D01*
X351066Y148566D01*
X350022Y149367D01*
X349148Y149729D01*
Y150271D01*
X350022Y150633D01*
X351066Y151434D01*
X351868Y152478D01*
X352371Y153695D01*
X352543Y155000D01*
X352371Y156305D01*
X351868Y157522D01*
X351066Y158566D01*
X350022Y159368D01*
X349148Y159729D01*
Y160271D01*
X350022Y160633D01*
X351066Y161434D01*
X351868Y162478D01*
X352371Y163695D01*
X352543Y165000D01*
X352371Y166305D01*
X351868Y167522D01*
X351066Y168566D01*
X350022Y169368D01*
X349148Y169729D01*
Y170271D01*
X350022Y170633D01*
X351066Y171434D01*
X351868Y172478D01*
X352371Y173695D01*
X352543Y175000D01*
X352371Y176305D01*
X351868Y177522D01*
X351066Y178566D01*
X350022Y179367D01*
X349148Y179729D01*
Y180271D01*
X350022Y180632D01*
X351066Y181434D01*
X351868Y182478D01*
X352371Y183695D01*
X352543Y185000D01*
X352371Y186305D01*
X351868Y187522D01*
X351066Y188566D01*
X350022Y189367D01*
X349148Y189729D01*
Y190271D01*
X350022Y190632D01*
X351066Y191434D01*
X351868Y192478D01*
X352371Y193695D01*
X352477Y194500D01*
X347500D01*
Y195500D01*
X352477D01*
X352371Y196305D01*
X351868Y197522D01*
X351066Y198566D01*
X350022Y199367D01*
X349148Y199729D01*
Y200271D01*
X350022Y200633D01*
X351066Y201434D01*
X351868Y202478D01*
X352371Y203695D01*
X352477Y204500D01*
X347500D01*
Y205500D01*
X352477D01*
X352371Y206305D01*
X351868Y207522D01*
X351066Y208566D01*
X350022Y209367D01*
X349148Y209729D01*
Y210271D01*
X350022Y210632D01*
X351066Y211434D01*
X351868Y212478D01*
X352371Y213695D01*
X352477Y214500D01*
X347500D01*
Y215500D01*
X352477D01*
X352371Y216305D01*
X351868Y217522D01*
X351066Y218566D01*
X350022Y219368D01*
X349148Y219729D01*
Y220271D01*
X350022Y220633D01*
X351066Y221434D01*
X351868Y222478D01*
X352371Y223695D01*
X352543Y225000D01*
X352371Y226305D01*
X351868Y227522D01*
X351066Y228566D01*
X350022Y229367D01*
X349148Y229729D01*
Y230271D01*
X350022Y230632D01*
X351066Y231434D01*
X351868Y232478D01*
X352371Y233695D01*
X352543Y235000D01*
X352371Y236305D01*
X351868Y237522D01*
X351066Y238566D01*
X350022Y239368D01*
X349148Y239729D01*
Y240271D01*
X350022Y240633D01*
X351066Y241434D01*
X351868Y242478D01*
X352371Y243695D01*
X352543Y245000D01*
X352371Y246305D01*
X351868Y247522D01*
X351066Y248566D01*
X350022Y249367D01*
X349148Y249729D01*
Y250271D01*
X350022Y250633D01*
X351066Y251434D01*
X351868Y252478D01*
X352371Y253695D01*
X352543Y255000D01*
X352371Y256305D01*
X351868Y257522D01*
X351066Y258566D01*
X350022Y259367D01*
X349148Y259729D01*
Y260271D01*
X350022Y260632D01*
X351066Y261434D01*
X351868Y262478D01*
X352371Y263695D01*
X352543Y265000D01*
X352371Y266305D01*
X351868Y267522D01*
X351066Y268566D01*
X350022Y269368D01*
X349148Y269729D01*
Y270271D01*
X350022Y270633D01*
X351066Y271434D01*
X351868Y272478D01*
X352371Y273695D01*
X352543Y275000D01*
X352371Y276305D01*
X351868Y277522D01*
X351066Y278566D01*
X350022Y279367D01*
X349148Y279729D01*
Y280271D01*
X350022Y280632D01*
X351066Y281434D01*
X351868Y282478D01*
X352371Y283695D01*
X352543Y285000D01*
X352371Y286305D01*
X351868Y287522D01*
X351066Y288566D01*
X350022Y289368D01*
X349148Y289729D01*
Y290271D01*
X350022Y290633D01*
X351066Y291434D01*
X351868Y292478D01*
X352371Y293695D01*
X352543Y295000D01*
X352371Y296305D01*
X351868Y297522D01*
X351066Y298566D01*
X350022Y299367D01*
X349148Y299729D01*
Y300271D01*
X350022Y300633D01*
X351066Y301434D01*
X351868Y302478D01*
X352371Y303695D01*
X352543Y305000D01*
X352371Y306305D01*
X351868Y307522D01*
X351066Y308566D01*
X350022Y309367D01*
X348805Y309871D01*
X347500Y310043D01*
D02*
G37*
G36*
X171500Y345526D02*
X170717Y345423D01*
X169987Y345121D01*
X169360Y344640D01*
X168879Y344013D01*
X168577Y343283D01*
X168474Y342500D01*
X168577Y341717D01*
X168879Y340987D01*
X168951Y340894D01*
Y311136D01*
X169001Y310886D01*
X168951Y310636D01*
X169145Y309661D01*
X169698Y308834D01*
X170888Y307643D01*
Y301543D01*
X170817Y301450D01*
X170514Y300720D01*
X170411Y299937D01*
X170514Y299154D01*
X170817Y298424D01*
X171297Y297797D01*
X171924Y297317D01*
X172654Y297014D01*
X173437Y296911D01*
X174220Y297014D01*
X174950Y297317D01*
X175577Y297797D01*
X176058Y298424D01*
X176360Y299154D01*
X176463Y299937D01*
X176360Y300720D01*
X176058Y301450D01*
X175986Y301543D01*
Y308699D01*
X175792Y309675D01*
X175239Y310501D01*
X174049Y311692D01*
Y340894D01*
X174120Y340987D01*
X174423Y341717D01*
X174526Y342500D01*
X174423Y343283D01*
X174120Y344013D01*
X173640Y344640D01*
X173013Y345121D01*
X172283Y345423D01*
X171500Y345526D01*
D02*
G37*
G36*
X98484Y345510D02*
X97701Y345407D01*
X96971Y345105D01*
X96345Y344624D01*
X95864Y343997D01*
X95561Y343267D01*
X95458Y342484D01*
X95561Y341701D01*
X95864Y340971D01*
X95935Y340878D01*
Y264016D01*
X96129Y263040D01*
X96682Y262213D01*
X103562Y255333D01*
X103577Y255217D01*
X103879Y254487D01*
X104360Y253860D01*
X104987Y253380D01*
X105717Y253077D01*
X106500Y252974D01*
X107283Y253077D01*
X108013Y253380D01*
X108640Y253860D01*
X109121Y254487D01*
X109423Y255217D01*
X109526Y256000D01*
X109423Y256783D01*
X109121Y257513D01*
X108640Y258140D01*
X108013Y258621D01*
X107283Y258923D01*
X107167Y258938D01*
X101033Y265072D01*
Y296273D01*
X101533Y296414D01*
X102028Y295607D01*
X103136Y294309D01*
X104434Y293201D01*
X105889Y292309D01*
X107466Y291656D01*
X109125Y291258D01*
X110827Y291124D01*
X112528Y291258D01*
X114188Y291656D01*
X115764Y292309D01*
X117220Y293201D01*
X118517Y294309D01*
X119626Y295607D01*
X120517Y297062D01*
X121170Y298639D01*
X121569Y300299D01*
X121703Y302000D01*
X121569Y303701D01*
X121170Y305361D01*
X120517Y306938D01*
X119626Y308393D01*
X118517Y309690D01*
X117220Y310799D01*
X115764Y311691D01*
X114188Y312344D01*
X112528Y312742D01*
X110827Y312876D01*
X109125Y312742D01*
X107466Y312344D01*
X105889Y311691D01*
X104434Y310799D01*
X103136Y309690D01*
X102028Y308393D01*
X101533Y307586D01*
X101033Y307727D01*
Y340878D01*
X101105Y340971D01*
X101407Y341701D01*
X101510Y342484D01*
X101407Y343267D01*
X101105Y343997D01*
X100624Y344624D01*
X99997Y345105D01*
X99267Y345407D01*
X98484Y345510D01*
D02*
G37*
G36*
X231500Y276526D02*
X230717Y276423D01*
X229987Y276120D01*
X229360Y275640D01*
X228879Y275013D01*
X228577Y274283D01*
X228474Y273500D01*
X228577Y272717D01*
X228879Y271987D01*
X229360Y271360D01*
X229971Y270892D01*
Y249346D01*
X229509Y249154D01*
X221925Y256737D01*
X222026Y257500D01*
X221923Y258283D01*
X221620Y259013D01*
X221140Y259640D01*
X220513Y260121D01*
X219783Y260423D01*
X219000Y260526D01*
X218217Y260423D01*
X217487Y260121D01*
X216860Y259640D01*
X216379Y259013D01*
X216077Y258283D01*
X215974Y257500D01*
X216077Y256717D01*
X216379Y255987D01*
X216860Y255360D01*
X217487Y254879D01*
X218217Y254577D01*
X219000Y254474D01*
X219763Y254574D01*
X227971Y246367D01*
Y175500D01*
X228087Y174915D01*
X228419Y174419D01*
X232540Y170298D01*
X232129Y169305D01*
X231957Y168000D01*
X232129Y166695D01*
X232632Y165478D01*
X233434Y164434D01*
X234478Y163633D01*
X235352Y163271D01*
Y162729D01*
X234478Y162367D01*
X233434Y161566D01*
X232632Y160522D01*
X232129Y159305D01*
X231957Y158000D01*
X232129Y156695D01*
X232632Y155478D01*
X233434Y154434D01*
X234478Y153632D01*
X235352Y153271D01*
Y152729D01*
X234478Y152367D01*
X233434Y151566D01*
X232632Y150522D01*
X232129Y149305D01*
X231957Y148000D01*
X232129Y146695D01*
X232632Y145478D01*
X233434Y144434D01*
X234478Y143632D01*
X235352Y143271D01*
Y142729D01*
X234478Y142367D01*
X233434Y141566D01*
X232632Y140522D01*
X232129Y139305D01*
X231957Y138000D01*
X232129Y136695D01*
X232329Y136212D01*
X226058Y129942D01*
X225616Y129280D01*
X225461Y128500D01*
Y92529D01*
X225616Y91749D01*
X226058Y91087D01*
X230160Y86985D01*
X229988Y86479D01*
X229798Y86434D01*
X229717Y86423D01*
X229667Y86402D01*
X229523Y86368D01*
X201154Y114737D01*
X201254Y115500D01*
X201151Y116283D01*
X200849Y117013D01*
X200368Y117640D01*
X199741Y118121D01*
X199012Y118423D01*
X198228Y118526D01*
X197445Y118423D01*
X196715Y118121D01*
X196089Y117640D01*
X195608Y117013D01*
X195306Y116283D01*
X195203Y115500D01*
X195306Y114717D01*
X195608Y113987D01*
X196089Y113360D01*
X196715Y112880D01*
X197445Y112577D01*
X198228Y112474D01*
X198991Y112575D01*
X227543Y84023D01*
X227474Y83500D01*
X227577Y82717D01*
X227880Y81987D01*
X228360Y81360D01*
X228987Y80879D01*
X229717Y80577D01*
X230500Y80474D01*
X231283Y80577D01*
X232013Y80879D01*
X232640Y81360D01*
X233120Y81987D01*
X233423Y82717D01*
X233457Y82981D01*
X233985Y83160D01*
X237461Y79684D01*
Y45908D01*
X237103Y45044D01*
X236965Y44000D01*
X237103Y42956D01*
X237506Y41983D01*
X238147Y41147D01*
X238983Y40506D01*
X239471Y40304D01*
Y15000D01*
X239587Y14415D01*
X239919Y13919D01*
X246305Y7532D01*
X246103Y7044D01*
X245966Y6000D01*
X246103Y4956D01*
X246506Y3983D01*
X247147Y3147D01*
X247983Y2506D01*
X248956Y2103D01*
X250000Y1966D01*
X251044Y2103D01*
X252017Y2506D01*
X252853Y3147D01*
X253494Y3983D01*
X253897Y4956D01*
X254034Y6000D01*
X253897Y7044D01*
X253494Y8017D01*
X252853Y8853D01*
X252017Y9494D01*
X251044Y9897D01*
X250000Y10035D01*
X248956Y9897D01*
X248468Y9695D01*
X242529Y15633D01*
Y40304D01*
X243017Y40506D01*
X243853Y41147D01*
X244494Y41983D01*
X244897Y42956D01*
X245035Y44000D01*
X244897Y45044D01*
X244494Y46017D01*
X243853Y46853D01*
X243017Y47494D01*
X242044Y47897D01*
X241539Y47964D01*
Y80529D01*
X241384Y81309D01*
X240942Y81971D01*
X229539Y93374D01*
Y127655D01*
X231869Y129985D01*
X232293Y129702D01*
X232129Y129305D01*
X231957Y128000D01*
X232129Y126695D01*
X232632Y125478D01*
X233434Y124434D01*
X234478Y123633D01*
X235352Y123271D01*
Y122729D01*
X234478Y122368D01*
X233434Y121566D01*
X232632Y120522D01*
X232129Y119305D01*
X232023Y118500D01*
X237000D01*
X241977D01*
X241871Y119305D01*
X241368Y120522D01*
X240566Y121566D01*
X239522Y122368D01*
X238648Y122729D01*
Y123271D01*
X239522Y123633D01*
X240566Y124434D01*
X241368Y125478D01*
X241871Y126695D01*
X242043Y128000D01*
X241871Y129305D01*
X241368Y130522D01*
X240566Y131566D01*
X239522Y132368D01*
X238648Y132729D01*
Y133271D01*
X239522Y133633D01*
X240566Y134434D01*
X241368Y135478D01*
X241871Y136695D01*
X242043Y138000D01*
X241871Y139305D01*
X241368Y140522D01*
X240566Y141566D01*
X239522Y142367D01*
X238648Y142729D01*
Y143271D01*
X239522Y143632D01*
X240566Y144434D01*
X241368Y145478D01*
X241744Y146386D01*
X242333Y146504D01*
X244040Y144797D01*
X243629Y143805D01*
X243457Y142500D01*
X243629Y141195D01*
X244132Y139978D01*
X244934Y138934D01*
X245978Y138133D01*
X247195Y137629D01*
X248500Y137457D01*
X249805Y137629D01*
X251022Y138133D01*
X252066Y138934D01*
X252868Y139978D01*
X253371Y141195D01*
X253543Y142500D01*
X253371Y143805D01*
X252868Y145022D01*
X252066Y146066D01*
X251022Y146868D01*
X250148Y147229D01*
Y147771D01*
X251022Y148133D01*
X252066Y148934D01*
X252868Y149978D01*
X253371Y151195D01*
X253543Y152500D01*
X253371Y153805D01*
X252868Y155022D01*
X252066Y156066D01*
X251022Y156868D01*
X250029Y157279D01*
Y232392D01*
X250640Y232860D01*
X251120Y233487D01*
X251423Y234217D01*
X251526Y235000D01*
X251423Y235783D01*
X251120Y236513D01*
X250640Y237140D01*
X250013Y237620D01*
X249283Y237923D01*
X248500Y238026D01*
X247717Y237923D01*
X246987Y237620D01*
X246360Y237140D01*
X245880Y236513D01*
X245577Y235783D01*
X245474Y235000D01*
X245577Y234217D01*
X245880Y233487D01*
X246360Y232860D01*
X246971Y232392D01*
Y157279D01*
X245978Y156868D01*
X245029Y156139D01*
X244529Y156289D01*
Y245392D01*
X245140Y245860D01*
X245620Y246487D01*
X245923Y247217D01*
X246026Y248000D01*
X245923Y248783D01*
X245620Y249513D01*
X245140Y250140D01*
X244513Y250621D01*
X243783Y250923D01*
X243000Y251026D01*
X242217Y250923D01*
X241487Y250621D01*
X240860Y250140D01*
X240380Y249513D01*
X240077Y248783D01*
X239974Y248000D01*
X240077Y247217D01*
X240380Y246487D01*
X240860Y245860D01*
X241471Y245392D01*
Y221209D01*
X240971Y221039D01*
X240566Y221566D01*
X239522Y222368D01*
X238305Y222871D01*
X237000Y223043D01*
X235695Y222871D01*
X234478Y222368D01*
X233529Y221639D01*
X233029Y221789D01*
Y270892D01*
X233640Y271360D01*
X234120Y271987D01*
X234423Y272717D01*
X234526Y273500D01*
X234423Y274283D01*
X234120Y275013D01*
X233640Y275640D01*
X233013Y276120D01*
X232283Y276423D01*
X231500Y276526D01*
D02*
G37*
G36*
X163500Y268026D02*
X162717Y267923D01*
X161987Y267620D01*
X161360Y267140D01*
X160880Y266513D01*
X160577Y265783D01*
X160474Y265000D01*
X160577Y264217D01*
X160880Y263487D01*
X161360Y262860D01*
X161971Y262392D01*
Y244122D01*
X160039Y242190D01*
X159567Y242425D01*
X159416Y243572D01*
X158919Y244773D01*
X158127Y245805D01*
X157096Y246596D01*
X155895Y247093D01*
X154606Y247263D01*
X153317Y247093D01*
X152117Y246596D01*
X151085Y245805D01*
X150294Y244773D01*
X149796Y243572D01*
X149627Y242284D01*
X149796Y240995D01*
X150294Y239794D01*
X151085Y238762D01*
X152117Y237971D01*
X153317Y237474D01*
X154464Y237322D01*
X154700Y236851D01*
X134773Y216924D01*
X134000Y217026D01*
X133217Y216923D01*
X132487Y216620D01*
X131860Y216140D01*
X131379Y215513D01*
X131077Y214783D01*
X130974Y214000D01*
X131077Y213217D01*
X131379Y212487D01*
X131860Y211860D01*
X132471Y211392D01*
Y140608D01*
X131860Y140140D01*
X131379Y139513D01*
X131077Y138783D01*
X130974Y138000D01*
X131077Y137217D01*
X131379Y136487D01*
X131860Y135860D01*
X132487Y135380D01*
X133217Y135077D01*
X134000Y134974D01*
X134783Y135077D01*
X135513Y135380D01*
X136140Y135860D01*
X136620Y136487D01*
X136923Y137217D01*
X137026Y138000D01*
X136923Y138783D01*
X136620Y139513D01*
X136140Y140140D01*
X135529Y140608D01*
Y211392D01*
X136140Y211860D01*
X136620Y212487D01*
X136923Y213217D01*
X137026Y214000D01*
X136927Y214752D01*
X164581Y242407D01*
X164913Y242903D01*
X165029Y243488D01*
Y262392D01*
X165640Y262860D01*
X166121Y263487D01*
X166423Y264217D01*
X166526Y265000D01*
X166423Y265783D01*
X166121Y266513D01*
X165640Y267140D01*
X165013Y267620D01*
X164283Y267923D01*
X163500Y268026D01*
D02*
G37*
G36*
X179500Y253159D02*
X177799Y253026D01*
X176139Y252627D01*
X174562Y251974D01*
X173107Y251082D01*
X171809Y249974D01*
X170701Y248676D01*
X169809Y247221D01*
X169156Y245644D01*
X168758Y243985D01*
X168624Y242284D01*
X168758Y240582D01*
X169156Y238923D01*
X169809Y237346D01*
X170701Y235891D01*
X171809Y234593D01*
X173107Y233485D01*
X174562Y232593D01*
X176139Y231940D01*
X177799Y231541D01*
X179500Y231407D01*
X181201Y231541D01*
X182861Y231940D01*
X184438Y232593D01*
X185893Y233485D01*
X187190Y234593D01*
X188299Y235891D01*
X189191Y237346D01*
X189844Y238923D01*
X190242Y240582D01*
X190376Y242284D01*
X190242Y243985D01*
X189844Y245644D01*
X189191Y247221D01*
X188299Y248676D01*
X187190Y249974D01*
X185893Y251082D01*
X184438Y251974D01*
X182861Y252627D01*
X181201Y253026D01*
X179500Y253159D01*
D02*
G37*
G36*
X110827Y176633D02*
X109538Y176463D01*
X108337Y175966D01*
X107306Y175175D01*
X106514Y174143D01*
X106017Y172942D01*
X105847Y171653D01*
X106017Y170365D01*
X106514Y169164D01*
X107306Y168132D01*
X108337Y167341D01*
X109538Y166844D01*
X110827Y166674D01*
X112116Y166844D01*
X113317Y167341D01*
X114348Y168132D01*
X115139Y169164D01*
X115637Y170365D01*
X115806Y171653D01*
X115637Y172942D01*
X115139Y174143D01*
X114348Y175175D01*
X113317Y175966D01*
X112116Y176463D01*
X110827Y176633D01*
D02*
G37*
G36*
X204842Y166751D02*
X203554Y166582D01*
X202353Y166084D01*
X201321Y165293D01*
X200530Y164261D01*
X200033Y163060D01*
X199863Y161772D01*
X200033Y160483D01*
X200530Y159282D01*
X201321Y158250D01*
X202353Y157459D01*
X203554Y156962D01*
X204842Y156792D01*
X206131Y156962D01*
X207332Y157459D01*
X208364Y158250D01*
X209155Y159282D01*
X209652Y160483D01*
X209822Y161772D01*
X209652Y163060D01*
X209155Y164261D01*
X208364Y165293D01*
X207332Y166084D01*
X206131Y166582D01*
X204842Y166751D01*
D02*
G37*
G36*
X125000Y211026D02*
X124217Y210923D01*
X123487Y210620D01*
X122860Y210140D01*
X122380Y209513D01*
X122077Y208783D01*
X121974Y208000D01*
X122077Y207217D01*
X122380Y206487D01*
X122860Y205860D01*
X123471Y205392D01*
Y137108D01*
X122860Y136640D01*
X122380Y136013D01*
X122077Y135283D01*
X121974Y134500D01*
X122077Y133717D01*
X122380Y132987D01*
X122860Y132360D01*
X123487Y131879D01*
X124217Y131577D01*
X125000Y131474D01*
X125783Y131577D01*
X126513Y131879D01*
X127140Y132360D01*
X127620Y132987D01*
X127923Y133717D01*
X128026Y134500D01*
X127923Y135283D01*
X127620Y136013D01*
X127140Y136640D01*
X126529Y137108D01*
Y205392D01*
X127140Y205860D01*
X127620Y206487D01*
X127923Y207217D01*
X128026Y208000D01*
X127923Y208783D01*
X127620Y209513D01*
X127140Y210140D01*
X126513Y210620D01*
X125783Y210923D01*
X125000Y211026D01*
D02*
G37*
G36*
X161417Y132932D02*
X160128Y132763D01*
X158928Y132265D01*
X157896Y131474D01*
X157105Y130443D01*
X156607Y129242D01*
X156438Y127953D01*
X156607Y126664D01*
X157105Y125463D01*
X157896Y124432D01*
X158928Y123640D01*
X160128Y123143D01*
X161417Y122973D01*
X162706Y123143D01*
X163907Y123640D01*
X164938Y124432D01*
X165730Y125463D01*
X166227Y126664D01*
X166397Y127953D01*
X166227Y129242D01*
X165730Y130443D01*
X164938Y131474D01*
X163907Y132265D01*
X162706Y132763D01*
X161417Y132932D01*
D02*
G37*
G36*
X7874D02*
X6585Y132763D01*
X5384Y132265D01*
X4353Y131474D01*
X3562Y130443D01*
X3064Y129242D01*
X2894Y127953D01*
X3064Y126664D01*
X3562Y125463D01*
X4353Y124432D01*
X5384Y123640D01*
X6585Y123143D01*
X7874Y122973D01*
X9163Y123143D01*
X10364Y123640D01*
X11395Y124432D01*
X12186Y125463D01*
X12684Y126664D01*
X12854Y127953D01*
X12684Y129242D01*
X12186Y130443D01*
X11395Y131474D01*
X10364Y132265D01*
X9163Y132763D01*
X7874Y132932D01*
D02*
G37*
G36*
X32500Y138829D02*
X30799Y138695D01*
X29139Y138296D01*
X27562Y137643D01*
X26107Y136752D01*
X24810Y135643D01*
X23701Y134346D01*
X22809Y132890D01*
X22156Y131314D01*
X21758Y129654D01*
X21624Y127953D01*
X21758Y126251D01*
X22156Y124592D01*
X22809Y123015D01*
X23701Y121560D01*
X24810Y120262D01*
X26107Y119154D01*
X27562Y118262D01*
X29139Y117609D01*
X30799Y117211D01*
X32500Y117077D01*
X34201Y117211D01*
X35861Y117609D01*
X37438Y118262D01*
X38893Y119154D01*
X40191Y120262D01*
X41299Y121560D01*
X42191Y123015D01*
X42844Y124592D01*
X43242Y126251D01*
X43376Y127953D01*
X43242Y129654D01*
X42844Y131314D01*
X42191Y132890D01*
X41299Y134346D01*
X40191Y135643D01*
X38893Y136752D01*
X37438Y137643D01*
X35861Y138296D01*
X34201Y138695D01*
X32500Y138829D01*
D02*
G37*
G36*
X301977Y137500D02*
X297000D01*
X292023D01*
X292129Y136695D01*
X292633Y135478D01*
X293434Y134434D01*
X294478Y133633D01*
X295352Y133271D01*
Y132729D01*
X294478Y132368D01*
X293434Y131566D01*
X292633Y130522D01*
X292129Y129305D01*
X291957Y128000D01*
X292129Y126695D01*
X292633Y125478D01*
X293434Y124434D01*
X294478Y123633D01*
X295352Y123271D01*
Y122729D01*
X294478Y122368D01*
X293434Y121566D01*
X292633Y120522D01*
X292129Y119305D01*
X291957Y118000D01*
X292129Y116695D01*
X292633Y115478D01*
X293434Y114434D01*
X294478Y113633D01*
X295352Y113271D01*
Y112729D01*
X294478Y112367D01*
X293434Y111566D01*
X292633Y110522D01*
X292129Y109305D01*
X291957Y108000D01*
X292129Y106695D01*
X292633Y105478D01*
X293434Y104434D01*
X294478Y103632D01*
X295695Y103129D01*
X297000Y102957D01*
X298305Y103129D01*
X299522Y103632D01*
X300566Y104434D01*
X301367Y105478D01*
X301871Y106695D01*
X302043Y108000D01*
X301871Y109305D01*
X301367Y110522D01*
X300566Y111566D01*
X299522Y112367D01*
X298648Y112729D01*
Y113271D01*
X299522Y113633D01*
X300566Y114434D01*
X301367Y115478D01*
X301871Y116695D01*
X302043Y118000D01*
X301871Y119305D01*
X301367Y120522D01*
X300566Y121566D01*
X299522Y122368D01*
X298648Y122729D01*
Y123271D01*
X299522Y123633D01*
X300566Y124434D01*
X301367Y125478D01*
X301871Y126695D01*
X302043Y128000D01*
X301871Y129305D01*
X301367Y130522D01*
X300566Y131566D01*
X299522Y132368D01*
X298648Y132729D01*
Y133271D01*
X299522Y133633D01*
X300566Y134434D01*
X301367Y135478D01*
X301871Y136695D01*
X301977Y137500D01*
D02*
G37*
G36*
X241977Y117500D02*
X237000D01*
X232023D01*
X232129Y116695D01*
X232632Y115478D01*
X233434Y114434D01*
X234478Y113633D01*
X235352Y113271D01*
Y112729D01*
X234478Y112367D01*
X233434Y111566D01*
X232632Y110522D01*
X232129Y109305D01*
X231957Y108000D01*
X232129Y106695D01*
X232632Y105478D01*
X233434Y104434D01*
X234478Y103632D01*
X235695Y103129D01*
X237000Y102957D01*
X238305Y103129D01*
X239522Y103632D01*
X240566Y104434D01*
X241368Y105478D01*
X241871Y106695D01*
X242043Y108000D01*
X241871Y109305D01*
X241368Y110522D01*
X240566Y111566D01*
X239522Y112367D01*
X238648Y112729D01*
Y113271D01*
X239522Y113633D01*
X240566Y114434D01*
X241368Y115478D01*
X241871Y116695D01*
X241977Y117500D01*
D02*
G37*
G36*
X282000Y103043D02*
X280695Y102871D01*
X279478Y102367D01*
X278434Y101566D01*
X277632Y100522D01*
X277271Y99648D01*
X276729D01*
X276367Y100522D01*
X275566Y101566D01*
X274522Y102367D01*
X273305Y102871D01*
X272000Y103043D01*
X270695Y102871D01*
X269478Y102367D01*
X268434Y101566D01*
X267633Y100522D01*
X267271Y99648D01*
X266729D01*
X266368Y100522D01*
X265566Y101566D01*
X264522Y102367D01*
X263305Y102871D01*
X262000Y103043D01*
X260695Y102871D01*
X259478Y102367D01*
X258434Y101566D01*
X257632Y100522D01*
X257271Y99648D01*
X256729D01*
X256367Y100522D01*
X255566Y101566D01*
X254522Y102367D01*
X253305Y102871D01*
X252000Y103043D01*
X250695Y102871D01*
X249478Y102367D01*
X248434Y101566D01*
X247633Y100522D01*
X247271Y99648D01*
X246729D01*
X246368Y100522D01*
X245566Y101566D01*
X244522Y102367D01*
X243305Y102871D01*
X242000Y103043D01*
X240695Y102871D01*
X239478Y102367D01*
X238434Y101566D01*
X237632Y100522D01*
X237129Y99305D01*
X236957Y98000D01*
X237129Y96695D01*
X237632Y95478D01*
X238434Y94434D01*
X239478Y93633D01*
X240695Y93129D01*
X242000Y92957D01*
X242595Y93035D01*
X242971Y92706D01*
Y59000D01*
X243087Y58415D01*
X243419Y57918D01*
X253857Y47480D01*
X253527Y47103D01*
X253017Y47494D01*
X252044Y47897D01*
X251500Y47969D01*
Y44500D01*
X254969D01*
X254897Y45044D01*
X254494Y46017D01*
X254103Y46527D01*
X254480Y46857D01*
X264422Y36915D01*
X264116Y36175D01*
X263961Y35000D01*
X264116Y33825D01*
X264569Y32730D01*
X265290Y31791D01*
X266231Y31069D01*
X267325Y30616D01*
X268500Y30461D01*
X269675Y30616D01*
X270769Y31069D01*
X271709Y31791D01*
X272431Y32730D01*
X272884Y33825D01*
X273039Y35000D01*
X272884Y36175D01*
X272431Y37269D01*
X271709Y38209D01*
X270769Y38931D01*
X269675Y39384D01*
X268500Y39539D01*
X267325Y39384D01*
X266585Y39078D01*
X246029Y59633D01*
Y95038D01*
X246368Y95478D01*
X246729Y96352D01*
X247271D01*
X247633Y95478D01*
X248434Y94434D01*
X249478Y93633D01*
X250471Y93221D01*
Y61500D01*
X250587Y60915D01*
X250919Y60418D01*
X274422Y36915D01*
X274116Y36175D01*
X273961Y35000D01*
X274116Y33825D01*
X274569Y32730D01*
X275290Y31791D01*
X276231Y31069D01*
X277325Y30616D01*
X278500Y30461D01*
X279675Y30616D01*
X280769Y31069D01*
X281709Y31791D01*
X282431Y32730D01*
X282884Y33825D01*
X283039Y35000D01*
X282884Y36175D01*
X282431Y37269D01*
X281709Y38209D01*
X280769Y38931D01*
X279675Y39384D01*
X278500Y39539D01*
X277325Y39384D01*
X276585Y39078D01*
X253529Y62133D01*
Y93221D01*
X254522Y93633D01*
X255566Y94434D01*
X256367Y95478D01*
X256729Y96352D01*
X257271D01*
X257632Y95478D01*
X258434Y94434D01*
X259478Y93633D01*
X260471Y93221D01*
Y61500D01*
X260587Y60915D01*
X260919Y60418D01*
X284422Y36915D01*
X284116Y36175D01*
X283961Y35000D01*
X284116Y33825D01*
X284569Y32730D01*
X285291Y31791D01*
X286230Y31069D01*
X287325Y30616D01*
X288500Y30461D01*
X289675Y30616D01*
X290769Y31069D01*
X291709Y31791D01*
X292431Y32730D01*
X292884Y33825D01*
X293039Y35000D01*
X292884Y36175D01*
X292431Y37269D01*
X291709Y38209D01*
X290769Y38931D01*
X289675Y39384D01*
X288500Y39539D01*
X287325Y39384D01*
X286585Y39078D01*
X263529Y62133D01*
Y93221D01*
X264522Y93633D01*
X265566Y94434D01*
X266368Y95478D01*
X266729Y96352D01*
X267271D01*
X267633Y95478D01*
X268434Y94434D01*
X269478Y93633D01*
X270471Y93221D01*
Y61500D01*
X270587Y60915D01*
X270919Y60418D01*
X294422Y36915D01*
X294116Y36175D01*
X293961Y35000D01*
X294116Y33825D01*
X294569Y32730D01*
X295290Y31791D01*
X296231Y31069D01*
X297325Y30616D01*
X298500Y30461D01*
X299675Y30616D01*
X300769Y31069D01*
X301709Y31791D01*
X302431Y32730D01*
X302884Y33825D01*
X303039Y35000D01*
X302884Y36175D01*
X302431Y37269D01*
X301709Y38209D01*
X300769Y38931D01*
X299675Y39384D01*
X298500Y39539D01*
X297325Y39384D01*
X296585Y39078D01*
X273529Y62133D01*
Y93221D01*
X274522Y93633D01*
X275566Y94434D01*
X276367Y95478D01*
X276729Y96352D01*
X277271D01*
X277632Y95478D01*
X278434Y94434D01*
X279478Y93633D01*
X280471Y93221D01*
Y61500D01*
X280587Y60915D01*
X280919Y60418D01*
X304422Y36915D01*
X304116Y36175D01*
X303961Y35000D01*
X304116Y33825D01*
X304569Y32731D01*
X305291Y31791D01*
X306231Y31069D01*
X307325Y30616D01*
X308500Y30461D01*
X309675Y30616D01*
X310769Y31069D01*
X311709Y31791D01*
X312431Y32731D01*
X312884Y33825D01*
X313039Y35000D01*
X312884Y36175D01*
X312431Y37269D01*
X311709Y38209D01*
X310769Y38931D01*
X309675Y39384D01*
X308500Y39539D01*
X307325Y39384D01*
X306585Y39078D01*
X283529Y62134D01*
Y93221D01*
X284522Y93633D01*
X285566Y94434D01*
X286368Y95478D01*
X286729Y96352D01*
X287271D01*
X287632Y95478D01*
X288434Y94434D01*
X289478Y93633D01*
X290471Y93221D01*
Y61500D01*
X290587Y60915D01*
X290919Y60419D01*
X314000Y37337D01*
Y35500D01*
X318000D01*
Y39500D01*
X316163D01*
X293529Y62134D01*
Y93221D01*
X294522Y93633D01*
X295566Y94434D01*
X296368Y95478D01*
X296871Y96695D01*
X296977Y97500D01*
X292000D01*
Y98000D01*
X291500D01*
Y102977D01*
X290695Y102871D01*
X289478Y102367D01*
X288434Y101566D01*
X287632Y100522D01*
X287271Y99648D01*
X286729D01*
X286368Y100522D01*
X285566Y101566D01*
X284522Y102367D01*
X283305Y102871D01*
X282000Y103043D01*
D02*
G37*
G36*
X292500Y102977D02*
Y98500D01*
X296977D01*
X296871Y99305D01*
X296368Y100522D01*
X295566Y101566D01*
X294522Y102367D01*
X293305Y102871D01*
X292500Y102977D01*
D02*
G37*
G36*
X177500Y151026D02*
X176717Y150923D01*
X175987Y150620D01*
X175360Y150140D01*
X174880Y149513D01*
X174577Y148783D01*
X174474Y148000D01*
X174577Y147217D01*
X174880Y146487D01*
X175360Y145860D01*
X175971Y145392D01*
Y95108D01*
X175360Y94640D01*
X174880Y94013D01*
X174577Y93283D01*
X174474Y92500D01*
X174577Y91717D01*
X174880Y90987D01*
X175360Y90360D01*
X175987Y89880D01*
X176717Y89577D01*
X177500Y89474D01*
X178283Y89577D01*
X179013Y89880D01*
X179640Y90360D01*
X180121Y90987D01*
X180423Y91717D01*
X180526Y92500D01*
X180423Y93283D01*
X180121Y94013D01*
X179640Y94640D01*
X179029Y95108D01*
Y145392D01*
X179640Y145860D01*
X180121Y146487D01*
X180423Y147217D01*
X180526Y148000D01*
X180423Y148783D01*
X180121Y149513D01*
X179640Y150140D01*
X179013Y150620D01*
X178283Y150923D01*
X177500Y151026D01*
D02*
G37*
G36*
X211500Y71026D02*
X210717Y70923D01*
X209987Y70621D01*
X209894Y70549D01*
X169106D01*
X169013Y70621D01*
X168283Y70923D01*
X167500Y71026D01*
X166717Y70923D01*
X165987Y70621D01*
X165360Y70140D01*
X164880Y69513D01*
X164577Y68783D01*
X164474Y68000D01*
X164577Y67217D01*
X164880Y66487D01*
X165360Y65860D01*
X165987Y65380D01*
X166717Y65077D01*
X167500Y64974D01*
X168283Y65077D01*
X169013Y65380D01*
X169106Y65451D01*
X209894D01*
X209987Y65380D01*
X210717Y65077D01*
X211500Y64974D01*
X212283Y65077D01*
X213013Y65380D01*
X213640Y65860D01*
X214121Y66487D01*
X214423Y67217D01*
X214526Y68000D01*
X214423Y68783D01*
X214121Y69513D01*
X213640Y70140D01*
X213013Y70621D01*
X212283Y70923D01*
X211500Y71026D01*
D02*
G37*
G36*
X103000Y119026D02*
X102217Y118923D01*
X101487Y118621D01*
X100860Y118140D01*
X100380Y117513D01*
X100077Y116783D01*
X99974Y116000D01*
X100077Y115217D01*
X100380Y114487D01*
X100451Y114394D01*
Y69606D01*
X100380Y69513D01*
X100077Y68783D01*
X99974Y68000D01*
X100077Y67217D01*
X100380Y66487D01*
X100860Y65860D01*
X101487Y65380D01*
X102217Y65077D01*
X103000Y64974D01*
X103783Y65077D01*
X104513Y65380D01*
X105140Y65860D01*
X105621Y66487D01*
X105923Y67217D01*
X106026Y68000D01*
X105923Y68783D01*
X105621Y69513D01*
X105549Y69606D01*
Y114394D01*
X105621Y114487D01*
X105923Y115217D01*
X106026Y116000D01*
X105923Y116783D01*
X105621Y117513D01*
X105140Y118140D01*
X104513Y118621D01*
X103783Y118923D01*
X103000Y119026D01*
D02*
G37*
G36*
X341500Y59000D02*
X333500D01*
Y51000D01*
X341500D01*
Y59000D01*
D02*
G37*
G36*
X250500Y47969D02*
X249956Y47897D01*
X248983Y47494D01*
X248147Y46853D01*
X247506Y46017D01*
X247103Y45044D01*
X247031Y44500D01*
X250500D01*
Y47969D01*
D02*
G37*
G36*
X254969Y43500D02*
X251500D01*
Y40031D01*
X252044Y40103D01*
X253017Y40506D01*
X253853Y41147D01*
X254494Y41983D01*
X254897Y42956D01*
X254969Y43500D01*
D02*
G37*
G36*
X250500D02*
X247031D01*
X247103Y42956D01*
X247506Y41983D01*
X248147Y41147D01*
X248983Y40506D01*
X249956Y40103D01*
X250500Y40031D01*
Y43500D01*
D02*
G37*
G36*
X170000Y153526D02*
X169217Y153423D01*
X168487Y153121D01*
X167860Y152640D01*
X167379Y152013D01*
X167077Y151283D01*
X166974Y150500D01*
X167077Y149717D01*
X167379Y148987D01*
X167860Y148360D01*
X168471Y147892D01*
Y89500D01*
X168587Y88915D01*
X168919Y88419D01*
X183919Y73419D01*
X184415Y73087D01*
X185000Y72971D01*
X222392D01*
X222860Y72360D01*
X223487Y71880D01*
X223750Y71771D01*
Y71229D01*
X223487Y71121D01*
X222860Y70640D01*
X222379Y70013D01*
X222077Y69283D01*
X221974Y68500D01*
X222077Y67717D01*
X222379Y66987D01*
X222860Y66360D01*
X223471Y65892D01*
Y31633D01*
X221532Y29695D01*
X221044Y29897D01*
X220000Y30035D01*
X218956Y29897D01*
X217983Y29494D01*
X217147Y28853D01*
X216506Y28017D01*
X216103Y27044D01*
X215966Y26000D01*
X216103Y24956D01*
X216506Y23983D01*
X217147Y23147D01*
X217983Y22506D01*
X218956Y22103D01*
X220000Y21966D01*
X221044Y22103D01*
X222017Y22506D01*
X222853Y23147D01*
X223494Y23983D01*
X223897Y24956D01*
X224035Y26000D01*
X223897Y27044D01*
X223695Y27532D01*
X226081Y29919D01*
X226413Y30415D01*
X226529Y31000D01*
Y43482D01*
X227029Y43514D01*
X227103Y42956D01*
X227506Y41983D01*
X228147Y41147D01*
X228983Y40506D01*
X229956Y40103D01*
X231000Y39966D01*
X232044Y40103D01*
X233017Y40506D01*
X233853Y41147D01*
X234494Y41983D01*
X234897Y42956D01*
X235034Y44000D01*
X234897Y45044D01*
X234494Y46017D01*
X233853Y46853D01*
X233017Y47494D01*
X232044Y47897D01*
X231000Y48035D01*
X229956Y47897D01*
X228983Y47494D01*
X228147Y46853D01*
X227506Y46017D01*
X227103Y45044D01*
X227029Y44486D01*
X226529Y44518D01*
Y65892D01*
X227140Y66360D01*
X227621Y66987D01*
X227923Y67717D01*
X228026Y68500D01*
X227923Y69283D01*
X227621Y70013D01*
X227140Y70640D01*
X226513Y71121D01*
X226250Y71229D01*
Y71771D01*
X226513Y71880D01*
X227140Y72360D01*
X227621Y72987D01*
X227923Y73717D01*
X228026Y74500D01*
X227923Y75283D01*
X227621Y76013D01*
X227140Y76640D01*
X226996Y76750D01*
Y77250D01*
X227140Y77360D01*
X227621Y77987D01*
X227923Y78717D01*
X228026Y79500D01*
X227923Y80283D01*
X227621Y81013D01*
X227140Y81640D01*
X226513Y82121D01*
X225783Y82423D01*
X225000Y82526D01*
X224217Y82423D01*
X223487Y82121D01*
X222860Y81640D01*
X222392Y81029D01*
X201608D01*
X201140Y81640D01*
X200513Y82121D01*
X199783Y82423D01*
X199000Y82526D01*
X198217Y82423D01*
X197487Y82121D01*
X196860Y81640D01*
X196379Y81013D01*
X196077Y80283D01*
X195974Y79500D01*
X196077Y78717D01*
X196379Y77987D01*
X196860Y77360D01*
X197487Y76880D01*
X198217Y76577D01*
X198580Y76529D01*
X198547Y76029D01*
X185634D01*
X171529Y90134D01*
Y147892D01*
X172140Y148360D01*
X172620Y148987D01*
X172923Y149717D01*
X173026Y150500D01*
X172923Y151283D01*
X172620Y152013D01*
X172140Y152640D01*
X171513Y153121D01*
X170783Y153423D01*
X170000Y153526D01*
D02*
G37*
G36*
X323000Y39500D02*
X319000D01*
Y35500D01*
X323000D01*
Y39500D01*
D02*
G37*
G36*
X173500Y40891D02*
X172622Y40776D01*
X171804Y40437D01*
X171102Y39898D01*
X170563Y39196D01*
X170224Y38378D01*
X170109Y37500D01*
X170224Y36622D01*
X170563Y35804D01*
X171102Y35102D01*
X171804Y34563D01*
X172622Y34224D01*
X173500Y34109D01*
X174378Y34224D01*
X175196Y34563D01*
X175898Y35102D01*
X176437Y35804D01*
X176776Y36622D01*
X176891Y37500D01*
X176776Y38378D01*
X176437Y39196D01*
X175898Y39898D01*
X175196Y40437D01*
X174378Y40776D01*
X173500Y40891D01*
D02*
G37*
G36*
X323000Y34500D02*
X319000D01*
Y30500D01*
X323000D01*
Y34500D01*
D02*
G37*
G36*
X318000D02*
X314000D01*
Y30500D01*
X318000D01*
Y34500D01*
D02*
G37*
G36*
X174000Y32558D02*
Y29732D01*
X176825D01*
X176776Y30110D01*
X176437Y30928D01*
X175898Y31630D01*
X175196Y32169D01*
X174378Y32508D01*
X174000Y32558D01*
D02*
G37*
G36*
X153500Y30891D02*
X152622Y30776D01*
X151804Y30437D01*
X151102Y29898D01*
X150563Y29196D01*
X150224Y28378D01*
X150109Y27500D01*
X150224Y26622D01*
X150563Y25804D01*
X151102Y25102D01*
X151804Y24563D01*
X152622Y24224D01*
X153500Y24109D01*
X154378Y24224D01*
X155196Y24563D01*
X155898Y25102D01*
X156437Y25804D01*
X156776Y26622D01*
X156891Y27500D01*
X156776Y28378D01*
X156437Y29196D01*
X155898Y29898D01*
X155196Y30437D01*
X154378Y30776D01*
X153500Y30891D01*
D02*
G37*
G36*
X250000Y30035D02*
X248956Y29897D01*
X247983Y29494D01*
X247147Y28853D01*
X246506Y28017D01*
X246103Y27044D01*
X245966Y26000D01*
X246103Y24956D01*
X246506Y23983D01*
X247147Y23147D01*
X247983Y22506D01*
X248956Y22103D01*
X250000Y21966D01*
X251044Y22103D01*
X252017Y22506D01*
X252853Y23147D01*
X253494Y23983D01*
X253897Y24956D01*
X254034Y26000D01*
X253897Y27044D01*
X253494Y28017D01*
X252853Y28853D01*
X252017Y29494D01*
X251044Y29897D01*
X250000Y30035D01*
D02*
G37*
G36*
X204842Y42372D02*
X203141Y42238D01*
X201482Y41840D01*
X199905Y41187D01*
X198450Y40295D01*
X197152Y39187D01*
X196044Y37889D01*
X195152Y36434D01*
X194499Y34857D01*
X194100Y33197D01*
X193966Y31496D01*
X194100Y29795D01*
X194499Y28135D01*
X195152Y26558D01*
X196044Y25103D01*
X197152Y23806D01*
X198450Y22697D01*
X199905Y21805D01*
X201482Y21152D01*
X203141Y20754D01*
X204842Y20620D01*
X206544Y20754D01*
X208203Y21152D01*
X209780Y21805D01*
X211235Y22697D01*
X212533Y23806D01*
X213641Y25103D01*
X214533Y26558D01*
X215186Y28135D01*
X215585Y29795D01*
X215719Y31496D01*
X215585Y33197D01*
X215186Y34857D01*
X214533Y36434D01*
X213641Y37889D01*
X212533Y39187D01*
X211235Y40295D01*
X209780Y41187D01*
X208203Y41840D01*
X206544Y42238D01*
X204842Y42372D01*
D02*
G37*
G36*
X153000Y191026D02*
X152217Y190923D01*
X151487Y190621D01*
X150860Y190140D01*
X150380Y189513D01*
X150077Y188783D01*
X149974Y188000D01*
X150077Y187217D01*
X150380Y186487D01*
X150860Y185860D01*
X151471Y185392D01*
Y44000D01*
X151587Y43415D01*
X151919Y42919D01*
X171074Y23763D01*
X170974Y23000D01*
X171077Y22217D01*
X171379Y21487D01*
X171860Y20860D01*
X172487Y20380D01*
X173217Y20077D01*
X174000Y19974D01*
X174783Y20077D01*
X175513Y20380D01*
X176140Y20860D01*
X176620Y21487D01*
X176923Y22217D01*
X177026Y23000D01*
X176923Y23783D01*
X176620Y24513D01*
X176140Y25140D01*
X175513Y25620D01*
X175193Y25753D01*
Y26294D01*
X175196Y26295D01*
X175898Y26834D01*
X176437Y27537D01*
X176776Y28355D01*
X176825Y28732D01*
X173500D01*
Y29232D01*
X173000D01*
Y32558D01*
X172622Y32508D01*
X171804Y32169D01*
X171102Y31630D01*
X170563Y30928D01*
X170224Y30110D01*
X170170Y29700D01*
X169642Y29520D01*
X154529Y44633D01*
Y185392D01*
X155140Y185860D01*
X155621Y186487D01*
X155923Y187217D01*
X156026Y188000D01*
X155923Y188783D01*
X155621Y189513D01*
X155140Y190140D01*
X154513Y190621D01*
X153783Y190923D01*
X153000Y191026D01*
D02*
G37*
G36*
X154000Y22558D02*
Y19732D01*
X156825D01*
X156776Y20110D01*
X156437Y20928D01*
X155898Y21630D01*
X155196Y22169D01*
X154378Y22508D01*
X154000Y22558D01*
D02*
G37*
G36*
X153000D02*
X152622Y22508D01*
X151804Y22169D01*
X151102Y21630D01*
X150563Y20928D01*
X150224Y20110D01*
X150175Y19732D01*
X153000D01*
Y22558D01*
D02*
G37*
G36*
X156825Y18732D02*
X154000D01*
Y15907D01*
X154378Y15957D01*
X155196Y16295D01*
X155898Y16834D01*
X156437Y17537D01*
X156776Y18355D01*
X156825Y18732D01*
D02*
G37*
G36*
X153000D02*
X150175D01*
X150224Y18355D01*
X150563Y17537D01*
X151102Y16834D01*
X151804Y16295D01*
X152622Y15957D01*
X153000Y15907D01*
Y18732D01*
D02*
G37*
G36*
X173500Y19391D02*
X172622Y19276D01*
X171804Y18937D01*
X171102Y18398D01*
X170563Y17696D01*
X170224Y16878D01*
X170109Y16000D01*
X170224Y15122D01*
X170563Y14304D01*
X171102Y13602D01*
X171804Y13063D01*
X172622Y12724D01*
X173500Y12609D01*
X174378Y12724D01*
X175196Y13063D01*
X175898Y13602D01*
X176437Y14304D01*
X176776Y15122D01*
X176891Y16000D01*
X176776Y16878D01*
X176437Y17696D01*
X175898Y18398D01*
X175196Y18937D01*
X174378Y19276D01*
X173500Y19391D01*
D02*
G37*
G36*
X174000Y11058D02*
Y8232D01*
X176825D01*
X176776Y8610D01*
X176437Y9428D01*
X175898Y10130D01*
X175196Y10669D01*
X174378Y11008D01*
X174000Y11058D01*
D02*
G37*
G36*
X173000D02*
X172622Y11008D01*
X171804Y10669D01*
X171102Y10130D01*
X170563Y9428D01*
X170224Y8610D01*
X170175Y8232D01*
X173000D01*
Y11058D01*
D02*
G37*
G36*
X176825Y7232D02*
X174000D01*
Y4407D01*
X174378Y4457D01*
X175196Y4795D01*
X175898Y5334D01*
X176437Y6037D01*
X176776Y6855D01*
X176825Y7232D01*
D02*
G37*
G36*
X173000D02*
X170175D01*
X170224Y6855D01*
X170563Y6037D01*
X171102Y5334D01*
X171804Y4795D01*
X172622Y4457D01*
X173000Y4407D01*
Y7232D01*
D02*
G37*
G36*
X204842Y13208D02*
X203554Y13038D01*
X202353Y12541D01*
X201321Y11750D01*
X200530Y10718D01*
X200033Y9517D01*
X199863Y8228D01*
X200033Y6939D01*
X200530Y5739D01*
X201321Y4707D01*
X202353Y3916D01*
X203554Y3418D01*
X204842Y3249D01*
X206131Y3418D01*
X207332Y3916D01*
X208364Y4707D01*
X209155Y5739D01*
X209652Y6939D01*
X209822Y8228D01*
X209652Y9517D01*
X209155Y10718D01*
X208364Y11750D01*
X207332Y12541D01*
X206131Y13038D01*
X204842Y13208D01*
D02*
G37*
G36*
X220000Y10035D02*
X218956Y9897D01*
X217983Y9494D01*
X217147Y8853D01*
X216506Y8017D01*
X216103Y7044D01*
X215966Y6000D01*
X216103Y4956D01*
X216506Y3983D01*
X217147Y3147D01*
X217983Y2506D01*
X218956Y2103D01*
X220000Y1966D01*
X221044Y2103D01*
X222017Y2506D01*
X222853Y3147D01*
X223494Y3983D01*
X223897Y4956D01*
X224035Y6000D01*
X223897Y7044D01*
X223494Y8017D01*
X222853Y8853D01*
X222017Y9494D01*
X221044Y9897D01*
X220000Y10035D01*
D02*
G37*
%LPD*%
G36*
X312793Y286702D02*
X312629Y286305D01*
X312457Y285000D01*
X312629Y283695D01*
X313133Y282478D01*
X313934Y281434D01*
X314978Y280632D01*
X315852Y280271D01*
Y279729D01*
X314978Y279367D01*
X313934Y278566D01*
X313133Y277522D01*
X312629Y276305D01*
X312457Y275000D01*
X312629Y273695D01*
X313133Y272478D01*
X313934Y271434D01*
X314978Y270633D01*
X315852Y270271D01*
Y269729D01*
X314978Y269368D01*
X313934Y268566D01*
X313133Y267522D01*
X312629Y266305D01*
X312457Y265000D01*
X312629Y263695D01*
X313133Y262478D01*
X313934Y261434D01*
X314978Y260632D01*
X315852Y260271D01*
Y259729D01*
X314978Y259367D01*
X313934Y258566D01*
X313133Y257522D01*
X312629Y256305D01*
X312457Y255000D01*
X312629Y253695D01*
X313133Y252478D01*
X313934Y251434D01*
X314978Y250633D01*
X315852Y250271D01*
Y249729D01*
X314978Y249367D01*
X313934Y248566D01*
X313133Y247522D01*
X312629Y246305D01*
X312524Y245513D01*
X312002Y245373D01*
X311671Y245805D01*
X310639Y246596D01*
X309438Y247093D01*
X308150Y247263D01*
X306861Y247093D01*
X305660Y246596D01*
X304752Y245899D01*
X304252Y246076D01*
Y278868D01*
X312369Y286985D01*
X312793Y286702D01*
D02*
G37*
G36*
X222860Y77360D02*
X223004Y77250D01*
Y76750D01*
X222860Y76640D01*
X222392Y76029D01*
X199453D01*
X199420Y76529D01*
X199783Y76577D01*
X200513Y76880D01*
X201140Y77360D01*
X201608Y77971D01*
X222392D01*
X222860Y77360D01*
D02*
G37*
D18*
X252000Y61500D02*
X278500Y35000D01*
X252000Y61500D02*
Y98000D01*
X262000Y61500D02*
Y98000D01*
Y61500D02*
X288500Y35000D01*
X272000Y61500D02*
X298500Y35000D01*
X272000Y61500D02*
Y98000D01*
X282000Y61500D02*
Y98000D01*
Y61500D02*
X308500Y35000D01*
X292000Y61500D02*
X318500Y35000D01*
X292000Y61500D02*
Y98000D01*
X199000Y79500D02*
X225000D01*
X198228Y115500D02*
X230228Y83500D01*
X230500D01*
X244500Y59000D02*
X268500Y35000D01*
X244500Y59000D02*
Y95500D01*
X242000Y98000D02*
X244500Y95500D01*
X241000Y15000D02*
Y44000D01*
Y15000D02*
X250000Y6000D01*
X297000Y218000D02*
Y262000D01*
X125000Y134500D02*
Y208000D01*
X229500Y175500D02*
X237000Y168000D01*
X290500Y204500D02*
X297000Y198000D01*
X290500Y204500D02*
Y269500D01*
X285000Y200000D02*
X297000Y188000D01*
X285000Y200000D02*
Y254000D01*
X177500Y92500D02*
Y148000D01*
X185000Y74500D02*
X225000D01*
X170000Y89500D02*
Y150500D01*
Y89500D02*
X185000Y74500D01*
X134000Y138000D02*
Y214000D01*
X134012D01*
X248500Y152500D02*
Y235000D01*
X243000Y148000D02*
X248500Y142500D01*
X153000Y44000D02*
Y188000D01*
Y44000D02*
X174000Y23000D01*
X225000Y31000D02*
Y68500D01*
X220000Y26000D02*
X225000Y31000D01*
X134012Y214000D02*
X163500Y243488D01*
Y265000D01*
X243000Y148000D02*
Y248000D01*
X229500Y175500D02*
Y247000D01*
X219000Y257500D02*
X229500Y247000D01*
X231500Y183500D02*
X237000Y178000D01*
X231500Y183500D02*
Y273500D01*
D19*
X173437Y299937D02*
Y308699D01*
X171500Y310636D02*
X173437Y308699D01*
X171500Y311136D02*
Y342500D01*
X98484Y264016D02*
X106500Y256000D01*
X98484Y264016D02*
Y342484D01*
X103000Y68000D02*
Y116000D01*
X167500Y68000D02*
X211500D01*
D21*
X227500Y128500D02*
X237000Y138000D01*
X227500Y92529D02*
X239500Y80529D01*
Y45500D02*
Y80529D01*
Y45500D02*
X241000Y44000D01*
X227500Y92529D02*
Y128500D01*
X302213Y279713D02*
X317500Y295000D01*
X302213Y239287D02*
Y279713D01*
Y239287D02*
X309000Y232500D01*
Y216500D02*
Y232500D01*
D25*
X251000Y44000D02*
D03*
X241000D02*
D03*
X231000D02*
D03*
X220000Y6000D02*
D03*
X250000D02*
D03*
X220000Y26000D02*
D03*
X250000D02*
D03*
D26*
X302000Y313000D02*
D03*
X292000Y313000D02*
D03*
X268500Y35000D02*
D03*
X278500Y35000D02*
D03*
X288500Y35000D02*
D03*
X308500Y35000D02*
D03*
X298500Y35000D02*
D03*
D27*
X282000Y313000D02*
D03*
X318500Y35000D02*
D03*
D28*
X173500Y16000D02*
D03*
Y7732D02*
D03*
Y37500D02*
D03*
Y29232D02*
D03*
X153500Y27500D02*
D03*
Y19232D02*
D03*
D29*
X297000Y108000D02*
D03*
Y118000D02*
D03*
Y128000D02*
D03*
Y138000D02*
D03*
Y148000D02*
D03*
Y158000D02*
D03*
Y168000D02*
D03*
Y178000D02*
D03*
Y188000D02*
D03*
Y198000D02*
D03*
Y208000D02*
D03*
Y218000D02*
D03*
X237000Y108000D02*
D03*
Y118000D02*
D03*
Y128000D02*
D03*
Y138000D02*
D03*
Y148000D02*
D03*
Y158000D02*
D03*
Y168000D02*
D03*
Y178000D02*
D03*
Y188000D02*
D03*
Y198000D02*
D03*
Y208000D02*
D03*
Y218000D02*
D03*
X248500Y142500D02*
D03*
Y152500D02*
D03*
X292000Y98000D02*
D03*
X282000D02*
D03*
X272000D02*
D03*
X262000D02*
D03*
X252000D02*
D03*
X242000D02*
D03*
X317500Y305000D02*
D03*
X327500D02*
D03*
Y295000D02*
D03*
X317500D02*
D03*
X327500Y285000D02*
D03*
X317500D02*
D03*
X327500Y275000D02*
D03*
X317500D02*
D03*
X327500Y265000D02*
D03*
X317500D02*
D03*
X327500Y255000D02*
D03*
X317500D02*
D03*
X327500Y245000D02*
D03*
X317500D02*
D03*
X327500Y235000D02*
D03*
X317500D02*
D03*
X327500Y225000D02*
D03*
X317500D02*
D03*
X327500Y215000D02*
D03*
X317500D02*
D03*
X327500Y205000D02*
D03*
X317500D02*
D03*
X327500Y195000D02*
D03*
X317500D02*
D03*
X327500Y185000D02*
D03*
X317500D02*
D03*
X327500Y175000D02*
D03*
X317500D02*
D03*
X327500Y165000D02*
D03*
X317500D02*
D03*
X327500Y155000D02*
D03*
X317500D02*
D03*
X327500Y145000D02*
D03*
X317500D02*
D03*
X327500Y135000D02*
D03*
X317500D02*
D03*
X327500Y125000D02*
D03*
X317500D02*
D03*
X327500Y115000D02*
D03*
X317500D02*
D03*
X327500Y105000D02*
D03*
X317500D02*
D03*
X327500Y95000D02*
D03*
X317500D02*
D03*
X327500Y85000D02*
D03*
X317500D02*
D03*
X327500Y75000D02*
D03*
X317500D02*
D03*
X327500Y65000D02*
D03*
X317500D02*
D03*
X327500Y55000D02*
D03*
X337500Y305000D02*
D03*
X347500D02*
D03*
Y295000D02*
D03*
X337500D02*
D03*
X347500Y285000D02*
D03*
X337500D02*
D03*
X347500Y275000D02*
D03*
X337500D02*
D03*
X347500Y265000D02*
D03*
X337500D02*
D03*
X347500Y255000D02*
D03*
X337500D02*
D03*
X347500Y245000D02*
D03*
X337500D02*
D03*
X347500Y235000D02*
D03*
X337500D02*
D03*
X347500Y225000D02*
D03*
X337500D02*
D03*
X347500Y215000D02*
D03*
X337500D02*
D03*
X347500Y205000D02*
D03*
X337500D02*
D03*
X347500Y195000D02*
D03*
X337500D02*
D03*
X347500Y185000D02*
D03*
X337500D02*
D03*
X347500Y175000D02*
D03*
X337500D02*
D03*
X347500Y165000D02*
D03*
X337500D02*
D03*
X347500Y155000D02*
D03*
X337500D02*
D03*
X347500Y145000D02*
D03*
X337500D02*
D03*
X347500Y135000D02*
D03*
X337500D02*
D03*
X347500Y125000D02*
D03*
X337500D02*
D03*
X347500Y115000D02*
D03*
X337500D02*
D03*
X347500Y105000D02*
D03*
X337500D02*
D03*
X347500Y95000D02*
D03*
X337500D02*
D03*
X347500Y85000D02*
D03*
X337500D02*
D03*
X347500Y75000D02*
D03*
X337500D02*
D03*
X347500Y65000D02*
D03*
X337500D02*
D03*
X347500Y55000D02*
D03*
D30*
X317500D02*
D03*
D31*
X337500D02*
D03*
D32*
X204842Y31496D02*
D03*
X179500Y242284D02*
D03*
X110827Y302000D02*
D03*
X32500Y127953D02*
D03*
D33*
X161417Y127953D02*
D03*
X7874D02*
D03*
X110827Y171653D02*
D03*
Y325197D02*
D03*
X154606Y242284D02*
D03*
X308150D02*
D03*
X204842Y161772D02*
D03*
Y8228D02*
D03*
D34*
X20000Y344400D02*
D03*
Y325400D02*
D03*
X28000Y339900D02*
D03*
Y329900D02*
D03*
X12000Y339900D02*
D03*
Y329900D02*
D03*
X20000Y29500D02*
D03*
Y10500D02*
D03*
X28000Y25000D02*
D03*
Y15000D02*
D03*
X12000Y25000D02*
D03*
Y15000D02*
D03*
X357500Y44500D02*
D03*
Y25500D02*
D03*
X365500Y40000D02*
D03*
Y30000D02*
D03*
X349500Y40000D02*
D03*
Y30000D02*
D03*
X181228Y86000D02*
D03*
X176228Y78000D02*
D03*
X71000Y124500D02*
D03*
X117500Y131000D02*
D03*
X81500Y156500D02*
D03*
X176000Y312500D02*
D03*
X182500Y266000D02*
D03*
X208000Y302000D02*
D03*
X109000Y268500D02*
D03*
X136000Y250000D02*
D03*
X115500Y222000D02*
D03*
X199000Y79500D02*
D03*
X198228Y115500D02*
D03*
X202000Y120000D02*
D03*
X225000Y79500D02*
D03*
X230500Y83500D02*
D03*
X93109Y150451D02*
D03*
X173437Y299937D02*
D03*
X171500Y342500D02*
D03*
X106500Y256000D02*
D03*
X98484Y342484D02*
D03*
X103000Y116000D02*
D03*
X210500Y62500D02*
D03*
X211500Y68000D02*
D03*
X167500D02*
D03*
X103000D02*
D03*
X297000Y262000D02*
D03*
X125000Y208000D02*
D03*
Y134500D02*
D03*
X225000Y74500D02*
D03*
X170000Y150500D02*
D03*
X290500Y269500D02*
D03*
X144000Y263500D02*
D03*
X219000Y257500D02*
D03*
X285000Y254000D02*
D03*
X177500Y148000D02*
D03*
Y92500D02*
D03*
X134000Y138000D02*
D03*
Y214000D02*
D03*
X163500Y265000D02*
D03*
X309000Y216500D02*
D03*
X248500Y235000D02*
D03*
X243000Y248000D02*
D03*
X153000Y188000D02*
D03*
X174000Y23000D02*
D03*
X225000Y68500D02*
D03*
X231500Y273500D02*
D03*
X202500Y290500D02*
D03*
X161000Y106000D02*
D03*
X145000D02*
D03*
Y97500D02*
D03*
X161000D02*
D03*
X145000Y89000D02*
D03*
X161000D02*
D03*
X350000Y330000D02*
D03*
Y320500D02*
D03*
X364500Y330000D02*
D03*
Y320500D02*
D03*
X357500Y334000D02*
D03*
Y316400D02*
D03*
D35*
Y35000D02*
D03*
X20000Y20000D02*
D03*
Y335000D02*
D03*
D36*
X357500Y325000D02*
D03*
M02*
