G04 Layer_Color=255*
%FSLAX25Y25*%
%MOIN*%
G70*
G01*
G75*
%ADD25C,0.06000*%
%ADD26C,0.07000*%
%ADD27R,0.07000X0.07000*%
%ADD28C,0.04724*%
%ADD29C,0.08000*%
%ADD30R,0.08000X0.08000*%
%ADD31R,0.06000X0.06000*%
D25*
X251000Y44000D02*
D03*
X241000D02*
D03*
X231000D02*
D03*
X220000Y6000D02*
D03*
X250000D02*
D03*
X220000Y26000D02*
D03*
X250000D02*
D03*
D26*
X302000Y313000D02*
D03*
X292000Y313000D02*
D03*
X268500Y35000D02*
D03*
X278500Y35000D02*
D03*
X288500Y35000D02*
D03*
X308500Y35000D02*
D03*
X298500Y35000D02*
D03*
D27*
X282000Y313000D02*
D03*
X318500Y35000D02*
D03*
D28*
X173500Y16000D02*
D03*
Y7732D02*
D03*
Y37500D02*
D03*
Y29232D02*
D03*
X153500Y27500D02*
D03*
Y19232D02*
D03*
D29*
X297000Y108000D02*
D03*
Y118000D02*
D03*
Y128000D02*
D03*
Y138000D02*
D03*
Y148000D02*
D03*
Y158000D02*
D03*
Y168000D02*
D03*
Y178000D02*
D03*
Y188000D02*
D03*
Y198000D02*
D03*
Y208000D02*
D03*
Y218000D02*
D03*
X237000Y108000D02*
D03*
Y118000D02*
D03*
Y128000D02*
D03*
Y138000D02*
D03*
Y148000D02*
D03*
Y158000D02*
D03*
Y168000D02*
D03*
Y178000D02*
D03*
Y188000D02*
D03*
Y198000D02*
D03*
Y208000D02*
D03*
Y218000D02*
D03*
X248500Y142500D02*
D03*
Y152500D02*
D03*
X292000Y98000D02*
D03*
X282000D02*
D03*
X272000D02*
D03*
X262000D02*
D03*
X252000D02*
D03*
X242000D02*
D03*
X317500Y305000D02*
D03*
X327500D02*
D03*
Y295000D02*
D03*
X317500D02*
D03*
X327500Y285000D02*
D03*
X317500D02*
D03*
X327500Y275000D02*
D03*
X317500D02*
D03*
X327500Y265000D02*
D03*
X317500D02*
D03*
X327500Y255000D02*
D03*
X317500D02*
D03*
X327500Y245000D02*
D03*
X317500D02*
D03*
X327500Y235000D02*
D03*
X317500D02*
D03*
X327500Y225000D02*
D03*
X317500D02*
D03*
X327500Y215000D02*
D03*
X317500D02*
D03*
X327500Y205000D02*
D03*
X317500D02*
D03*
X327500Y195000D02*
D03*
X317500D02*
D03*
X327500Y185000D02*
D03*
X317500D02*
D03*
X327500Y175000D02*
D03*
X317500D02*
D03*
X327500Y165000D02*
D03*
X317500D02*
D03*
X327500Y155000D02*
D03*
X317500D02*
D03*
X327500Y145000D02*
D03*
X317500D02*
D03*
X327500Y135000D02*
D03*
X317500D02*
D03*
X327500Y125000D02*
D03*
X317500D02*
D03*
X327500Y115000D02*
D03*
X317500D02*
D03*
X327500Y105000D02*
D03*
X317500D02*
D03*
X327500Y95000D02*
D03*
X317500D02*
D03*
X327500Y85000D02*
D03*
X317500D02*
D03*
X327500Y75000D02*
D03*
X317500D02*
D03*
X327500Y65000D02*
D03*
X317500D02*
D03*
X327500Y55000D02*
D03*
X337500Y305000D02*
D03*
X347500D02*
D03*
Y295000D02*
D03*
X337500D02*
D03*
X347500Y285000D02*
D03*
X337500D02*
D03*
X347500Y275000D02*
D03*
X337500D02*
D03*
X347500Y265000D02*
D03*
X337500D02*
D03*
X347500Y255000D02*
D03*
X337500D02*
D03*
X347500Y245000D02*
D03*
X337500D02*
D03*
X347500Y235000D02*
D03*
X337500D02*
D03*
X347500Y225000D02*
D03*
X337500D02*
D03*
X347500Y215000D02*
D03*
X337500D02*
D03*
X347500Y205000D02*
D03*
X337500D02*
D03*
X347500Y195000D02*
D03*
X337500D02*
D03*
X347500Y185000D02*
D03*
X337500D02*
D03*
X347500Y175000D02*
D03*
X337500D02*
D03*
X347500Y165000D02*
D03*
X337500D02*
D03*
X347500Y155000D02*
D03*
X337500D02*
D03*
X347500Y145000D02*
D03*
X337500D02*
D03*
X347500Y135000D02*
D03*
X337500D02*
D03*
X347500Y125000D02*
D03*
X337500D02*
D03*
X347500Y115000D02*
D03*
X337500D02*
D03*
X347500Y105000D02*
D03*
X337500D02*
D03*
X347500Y95000D02*
D03*
X337500D02*
D03*
X347500Y85000D02*
D03*
X337500D02*
D03*
X347500Y75000D02*
D03*
X337500D02*
D03*
X347500Y65000D02*
D03*
X337500D02*
D03*
X347500Y55000D02*
D03*
D30*
X317500D02*
D03*
D31*
X337500D02*
D03*
M02*
