G04 Layer_Color=8421504*
%FSLAX25Y25*%
%MOIN*%
G70*
G01*
G75*
%ADD10R,0.05000X0.04000*%
%ADD11R,0.04000X0.05000*%
%ADD12R,0.03600X0.03600*%
%ADD13R,0.05000X0.03600*%
%ADD14O,0.05709X0.02362*%
%ADD15O,0.02362X0.05709*%
%ADD16R,0.03600X0.03600*%
%ADD17R,0.03600X0.05000*%
D10*
X168500Y57000D02*
D03*
Y49000D02*
D03*
X188500Y38000D02*
D03*
Y30000D02*
D03*
Y16500D02*
D03*
Y8500D02*
D03*
X264000Y239000D02*
D03*
Y231000D02*
D03*
X256000Y239000D02*
D03*
Y231000D02*
D03*
X257500Y12000D02*
D03*
Y20000D02*
D03*
X201728Y85000D02*
D03*
Y93000D02*
D03*
X112000Y146000D02*
D03*
Y138000D02*
D03*
X104000D02*
D03*
Y146000D02*
D03*
Y131000D02*
D03*
Y123000D02*
D03*
X112000D02*
D03*
Y131000D02*
D03*
X76000Y146500D02*
D03*
Y154500D02*
D03*
X115500Y251000D02*
D03*
Y243000D02*
D03*
X182500Y295000D02*
D03*
Y287000D02*
D03*
X52000Y146500D02*
D03*
Y154500D02*
D03*
X68000Y146500D02*
D03*
Y154500D02*
D03*
X60000Y146500D02*
D03*
Y154500D02*
D03*
D11*
X302000Y294000D02*
D03*
X294000D02*
D03*
X302000Y302000D02*
D03*
X294000D02*
D03*
X186728Y108500D02*
D03*
X194728D02*
D03*
Y100500D02*
D03*
X186728D02*
D03*
X209728Y108500D02*
D03*
X201728D02*
D03*
Y100500D02*
D03*
X209728D02*
D03*
X186228Y72500D02*
D03*
X178228D02*
D03*
X88500Y131000D02*
D03*
X96500D02*
D03*
X130500Y227500D02*
D03*
X122500D02*
D03*
Y235500D02*
D03*
X130500D02*
D03*
X115500D02*
D03*
X107500D02*
D03*
Y227500D02*
D03*
X115500D02*
D03*
X131000Y263500D02*
D03*
X139000D02*
D03*
X197500Y271500D02*
D03*
X189500D02*
D03*
Y279500D02*
D03*
X197500D02*
D03*
X182500D02*
D03*
X174500D02*
D03*
Y271500D02*
D03*
X182500D02*
D03*
X198000Y307500D02*
D03*
X206000D02*
D03*
X186228Y64500D02*
D03*
X178228D02*
D03*
X186228Y56500D02*
D03*
X178228D02*
D03*
X186228Y48500D02*
D03*
X178228D02*
D03*
X131000Y287500D02*
D03*
X139000D02*
D03*
X131000Y271500D02*
D03*
X139000D02*
D03*
X131000Y279500D02*
D03*
X139000D02*
D03*
X198000Y331500D02*
D03*
X206000D02*
D03*
X198000Y315500D02*
D03*
X206000D02*
D03*
X198000Y323500D02*
D03*
X206000D02*
D03*
D12*
X186228Y93500D02*
D03*
Y86000D02*
D03*
X208728Y93500D02*
D03*
Y86000D02*
D03*
X108500Y242500D02*
D03*
Y250000D02*
D03*
X131000Y242500D02*
D03*
Y250000D02*
D03*
X175500Y286500D02*
D03*
Y294000D02*
D03*
X198000Y286500D02*
D03*
Y294000D02*
D03*
D13*
X194228Y89700D02*
D03*
X216728D02*
D03*
X100500Y246300D02*
D03*
X123000D02*
D03*
X167500Y290300D02*
D03*
X190000D02*
D03*
D14*
X216457Y48000D02*
D03*
Y53000D02*
D03*
Y58000D02*
D03*
Y63000D02*
D03*
X195000Y48000D02*
D03*
Y53000D02*
D03*
Y58000D02*
D03*
Y63000D02*
D03*
X77500Y137685D02*
D03*
Y133748D02*
D03*
Y129811D02*
D03*
Y125874D02*
D03*
Y121937D02*
D03*
Y118000D02*
D03*
X100772Y288000D02*
D03*
Y283000D02*
D03*
Y278000D02*
D03*
Y273000D02*
D03*
X122228Y288000D02*
D03*
Y283000D02*
D03*
Y278000D02*
D03*
Y273000D02*
D03*
X167772Y332000D02*
D03*
Y327000D02*
D03*
Y322000D02*
D03*
Y317000D02*
D03*
X189228Y332000D02*
D03*
Y327000D02*
D03*
Y322000D02*
D03*
Y317000D02*
D03*
D15*
X195043Y74000D02*
D03*
X198980D02*
D03*
X202917D02*
D03*
X206854D02*
D03*
X210791D02*
D03*
X214728D02*
D03*
X51500Y116272D02*
D03*
X56500D02*
D03*
X61500D02*
D03*
X66500D02*
D03*
X51500Y137728D02*
D03*
X56500D02*
D03*
X61500D02*
D03*
X66500D02*
D03*
X122185Y262000D02*
D03*
X118248D02*
D03*
X114311D02*
D03*
X110374D02*
D03*
X106437D02*
D03*
X102500D02*
D03*
X189185Y306000D02*
D03*
X185248D02*
D03*
X181311D02*
D03*
X177374D02*
D03*
X173437D02*
D03*
X169500D02*
D03*
D16*
X97000Y124000D02*
D03*
X89500D02*
D03*
X97000Y146500D02*
D03*
X89500D02*
D03*
D17*
X93200Y116000D02*
D03*
Y138500D02*
D03*
M02*
