G04 Layer_Color=255*
%FSLAX25Y25*%
%MOIN*%
G70*
G01*
G75*
%ADD10R,0.05000X0.04000*%
%ADD11R,0.04000X0.05000*%
%ADD12R,0.03600X0.03600*%
%ADD13R,0.05000X0.03600*%
%ADD14O,0.05709X0.02362*%
%ADD15O,0.02362X0.05709*%
%ADD16R,0.03600X0.03600*%
%ADD17R,0.03600X0.05000*%
%ADD25C,0.06000*%
%ADD26C,0.07000*%
%ADD27R,0.07000X0.07000*%
%ADD28C,0.04724*%
%ADD29C,0.08000*%
%ADD30R,0.08000X0.08000*%
%ADD31R,0.06000X0.06000*%
D10*
X168500Y57000D02*
D03*
Y49000D02*
D03*
X188500Y38000D02*
D03*
Y30000D02*
D03*
Y16500D02*
D03*
Y8500D02*
D03*
X264000Y239000D02*
D03*
Y231000D02*
D03*
X256000Y239000D02*
D03*
Y231000D02*
D03*
X257500Y12000D02*
D03*
Y20000D02*
D03*
X201728Y85000D02*
D03*
Y93000D02*
D03*
X112000Y146000D02*
D03*
Y138000D02*
D03*
X104000D02*
D03*
Y146000D02*
D03*
Y131000D02*
D03*
Y123000D02*
D03*
X112000D02*
D03*
Y131000D02*
D03*
X76000Y146500D02*
D03*
Y154500D02*
D03*
X115500Y251000D02*
D03*
Y243000D02*
D03*
X182500Y295000D02*
D03*
Y287000D02*
D03*
X52000Y146500D02*
D03*
Y154500D02*
D03*
X68000Y146500D02*
D03*
Y154500D02*
D03*
X60000Y146500D02*
D03*
Y154500D02*
D03*
D11*
X302000Y294000D02*
D03*
X294000D02*
D03*
X302000Y302000D02*
D03*
X294000D02*
D03*
X186728Y108500D02*
D03*
X194728D02*
D03*
Y100500D02*
D03*
X186728D02*
D03*
X209728Y108500D02*
D03*
X201728D02*
D03*
Y100500D02*
D03*
X209728D02*
D03*
X186228Y72500D02*
D03*
X178228D02*
D03*
X88500Y131000D02*
D03*
X96500D02*
D03*
X130500Y227500D02*
D03*
X122500D02*
D03*
Y235500D02*
D03*
X130500D02*
D03*
X115500D02*
D03*
X107500D02*
D03*
Y227500D02*
D03*
X115500D02*
D03*
X131000Y263500D02*
D03*
X139000D02*
D03*
X197500Y271500D02*
D03*
X189500D02*
D03*
Y279500D02*
D03*
X197500D02*
D03*
X182500D02*
D03*
X174500D02*
D03*
Y271500D02*
D03*
X182500D02*
D03*
X198000Y307500D02*
D03*
X206000D02*
D03*
X186228Y64500D02*
D03*
X178228D02*
D03*
X186228Y56500D02*
D03*
X178228D02*
D03*
X186228Y48500D02*
D03*
X178228D02*
D03*
X131000Y287500D02*
D03*
X139000D02*
D03*
X131000Y271500D02*
D03*
X139000D02*
D03*
X131000Y279500D02*
D03*
X139000D02*
D03*
X198000Y331500D02*
D03*
X206000D02*
D03*
X198000Y315500D02*
D03*
X206000D02*
D03*
X198000Y323500D02*
D03*
X206000D02*
D03*
D12*
X186228Y93500D02*
D03*
Y86000D02*
D03*
X208728Y93500D02*
D03*
Y86000D02*
D03*
X108500Y242500D02*
D03*
Y250000D02*
D03*
X131000Y242500D02*
D03*
Y250000D02*
D03*
X175500Y286500D02*
D03*
Y294000D02*
D03*
X198000Y286500D02*
D03*
Y294000D02*
D03*
D13*
X194228Y89700D02*
D03*
X216728D02*
D03*
X100500Y246300D02*
D03*
X123000D02*
D03*
X167500Y290300D02*
D03*
X190000D02*
D03*
D14*
X216457Y48000D02*
D03*
Y53000D02*
D03*
Y58000D02*
D03*
Y63000D02*
D03*
X195000Y48000D02*
D03*
Y53000D02*
D03*
Y58000D02*
D03*
Y63000D02*
D03*
X77500Y137685D02*
D03*
Y133748D02*
D03*
Y129811D02*
D03*
Y125874D02*
D03*
Y121937D02*
D03*
Y118000D02*
D03*
X100772Y288000D02*
D03*
Y283000D02*
D03*
Y278000D02*
D03*
Y273000D02*
D03*
X122228Y288000D02*
D03*
Y283000D02*
D03*
Y278000D02*
D03*
Y273000D02*
D03*
X167772Y332000D02*
D03*
Y327000D02*
D03*
Y322000D02*
D03*
Y317000D02*
D03*
X189228Y332000D02*
D03*
Y327000D02*
D03*
Y322000D02*
D03*
Y317000D02*
D03*
D15*
X195043Y74000D02*
D03*
X198980D02*
D03*
X202917D02*
D03*
X206854D02*
D03*
X210791D02*
D03*
X214728D02*
D03*
X51500Y116272D02*
D03*
X56500D02*
D03*
X61500D02*
D03*
X66500D02*
D03*
X51500Y137728D02*
D03*
X56500D02*
D03*
X61500D02*
D03*
X66500D02*
D03*
X122185Y262000D02*
D03*
X118248D02*
D03*
X114311D02*
D03*
X110374D02*
D03*
X106437D02*
D03*
X102500D02*
D03*
X189185Y306000D02*
D03*
X185248D02*
D03*
X181311D02*
D03*
X177374D02*
D03*
X173437D02*
D03*
X169500D02*
D03*
D16*
X97000Y124000D02*
D03*
X89500D02*
D03*
X97000Y146500D02*
D03*
X89500D02*
D03*
D17*
X93200Y116000D02*
D03*
Y138500D02*
D03*
D25*
X251000Y44000D02*
D03*
X241000D02*
D03*
X231000D02*
D03*
X220000Y6000D02*
D03*
X250000D02*
D03*
X220000Y26000D02*
D03*
X250000D02*
D03*
D26*
X302000Y313000D02*
D03*
X292000Y313000D02*
D03*
X268500Y35000D02*
D03*
X278500Y35000D02*
D03*
X288500Y35000D02*
D03*
X308500Y35000D02*
D03*
X298500Y35000D02*
D03*
D27*
X282000Y313000D02*
D03*
X318500Y35000D02*
D03*
D28*
X173500Y16000D02*
D03*
Y7732D02*
D03*
Y37500D02*
D03*
Y29232D02*
D03*
X153500Y27500D02*
D03*
Y19232D02*
D03*
D29*
X297000Y108000D02*
D03*
Y118000D02*
D03*
Y128000D02*
D03*
Y138000D02*
D03*
Y148000D02*
D03*
Y158000D02*
D03*
Y168000D02*
D03*
Y178000D02*
D03*
Y188000D02*
D03*
Y198000D02*
D03*
Y208000D02*
D03*
Y218000D02*
D03*
X237000Y108000D02*
D03*
Y118000D02*
D03*
Y128000D02*
D03*
Y138000D02*
D03*
Y148000D02*
D03*
Y158000D02*
D03*
Y168000D02*
D03*
Y178000D02*
D03*
Y188000D02*
D03*
Y198000D02*
D03*
Y208000D02*
D03*
Y218000D02*
D03*
X248500Y142500D02*
D03*
Y152500D02*
D03*
X292000Y98000D02*
D03*
X282000D02*
D03*
X272000D02*
D03*
X262000D02*
D03*
X252000D02*
D03*
X242000D02*
D03*
X317500Y305000D02*
D03*
X327500D02*
D03*
Y295000D02*
D03*
X317500D02*
D03*
X327500Y285000D02*
D03*
X317500D02*
D03*
X327500Y275000D02*
D03*
X317500D02*
D03*
X327500Y265000D02*
D03*
X317500D02*
D03*
X327500Y255000D02*
D03*
X317500D02*
D03*
X327500Y245000D02*
D03*
X317500D02*
D03*
X327500Y235000D02*
D03*
X317500D02*
D03*
X327500Y225000D02*
D03*
X317500D02*
D03*
X327500Y215000D02*
D03*
X317500D02*
D03*
X327500Y205000D02*
D03*
X317500D02*
D03*
X327500Y195000D02*
D03*
X317500D02*
D03*
X327500Y185000D02*
D03*
X317500D02*
D03*
X327500Y175000D02*
D03*
X317500D02*
D03*
X327500Y165000D02*
D03*
X317500D02*
D03*
X327500Y155000D02*
D03*
X317500D02*
D03*
X327500Y145000D02*
D03*
X317500D02*
D03*
X327500Y135000D02*
D03*
X317500D02*
D03*
X327500Y125000D02*
D03*
X317500D02*
D03*
X327500Y115000D02*
D03*
X317500D02*
D03*
X327500Y105000D02*
D03*
X317500D02*
D03*
X327500Y95000D02*
D03*
X317500D02*
D03*
X327500Y85000D02*
D03*
X317500D02*
D03*
X327500Y75000D02*
D03*
X317500D02*
D03*
X327500Y65000D02*
D03*
X317500D02*
D03*
X327500Y55000D02*
D03*
X337500Y305000D02*
D03*
X347500D02*
D03*
Y295000D02*
D03*
X337500D02*
D03*
X347500Y285000D02*
D03*
X337500D02*
D03*
X347500Y275000D02*
D03*
X337500D02*
D03*
X347500Y265000D02*
D03*
X337500D02*
D03*
X347500Y255000D02*
D03*
X337500D02*
D03*
X347500Y245000D02*
D03*
X337500D02*
D03*
X347500Y235000D02*
D03*
X337500D02*
D03*
X347500Y225000D02*
D03*
X337500D02*
D03*
X347500Y215000D02*
D03*
X337500D02*
D03*
X347500Y205000D02*
D03*
X337500D02*
D03*
X347500Y195000D02*
D03*
X337500D02*
D03*
X347500Y185000D02*
D03*
X337500D02*
D03*
X347500Y175000D02*
D03*
X337500D02*
D03*
X347500Y165000D02*
D03*
X337500D02*
D03*
X347500Y155000D02*
D03*
X337500D02*
D03*
X347500Y145000D02*
D03*
X337500D02*
D03*
X347500Y135000D02*
D03*
X337500D02*
D03*
X347500Y125000D02*
D03*
X337500D02*
D03*
X347500Y115000D02*
D03*
X337500D02*
D03*
X347500Y105000D02*
D03*
X337500D02*
D03*
X347500Y95000D02*
D03*
X337500D02*
D03*
X347500Y85000D02*
D03*
X337500D02*
D03*
X347500Y75000D02*
D03*
X337500D02*
D03*
X347500Y65000D02*
D03*
X337500D02*
D03*
X347500Y55000D02*
D03*
D30*
X317500D02*
D03*
D31*
X337500D02*
D03*
M02*
