G04 Layer_Physical_Order=1*
G04 Layer_Color=255*
%FSLAX25Y25*%
%MOIN*%
G70*
G01*
G75*
%ADD10R,0.05000X0.04000*%
%ADD11R,0.04000X0.05000*%
%ADD12R,0.03600X0.03600*%
%ADD13R,0.05000X0.03600*%
%ADD14O,0.05709X0.02362*%
%ADD15O,0.02362X0.05709*%
%ADD16R,0.03600X0.03600*%
%ADD17R,0.03600X0.05000*%
%ADD18C,0.01000*%
%ADD19C,0.03000*%
%ADD20C,0.02500*%
%ADD21C,0.02000*%
%ADD22C,0.08000*%
%ADD23C,0.04000*%
%ADD24C,0.06000*%
%ADD25C,0.06000*%
%ADD26C,0.07000*%
%ADD27R,0.07000X0.07000*%
%ADD28C,0.04724*%
%ADD29C,0.08000*%
%ADD30R,0.08000X0.08000*%
%ADD31R,0.06000X0.06000*%
%ADD32C,0.19685*%
%ADD33C,0.07874*%
%ADD34C,0.04000*%
%ADD35C,0.25000*%
%ADD36C,0.18000*%
D10*
X168500Y57000D02*
D03*
Y49000D02*
D03*
X188500Y38000D02*
D03*
Y30000D02*
D03*
Y16500D02*
D03*
Y8500D02*
D03*
X264000Y239000D02*
D03*
Y231000D02*
D03*
X256000Y239000D02*
D03*
Y231000D02*
D03*
X257500Y12000D02*
D03*
Y20000D02*
D03*
X201728Y85000D02*
D03*
Y93000D02*
D03*
X112000Y146000D02*
D03*
Y138000D02*
D03*
X104000D02*
D03*
Y146000D02*
D03*
Y131000D02*
D03*
Y123000D02*
D03*
X112000D02*
D03*
Y131000D02*
D03*
X76000Y146500D02*
D03*
Y154500D02*
D03*
X115500Y251000D02*
D03*
Y243000D02*
D03*
X182500Y295000D02*
D03*
Y287000D02*
D03*
X52000Y146500D02*
D03*
Y154500D02*
D03*
X68000Y146500D02*
D03*
Y154500D02*
D03*
X60000Y146500D02*
D03*
Y154500D02*
D03*
D11*
X302000Y294000D02*
D03*
X294000D02*
D03*
X302000Y302000D02*
D03*
X294000D02*
D03*
X186728Y108500D02*
D03*
X194728D02*
D03*
Y100500D02*
D03*
X186728D02*
D03*
X209728Y108500D02*
D03*
X201728D02*
D03*
Y100500D02*
D03*
X209728D02*
D03*
X186228Y72500D02*
D03*
X178228D02*
D03*
X88500Y131000D02*
D03*
X96500D02*
D03*
X130500Y227500D02*
D03*
X122500D02*
D03*
Y235500D02*
D03*
X130500D02*
D03*
X115500D02*
D03*
X107500D02*
D03*
Y227500D02*
D03*
X115500D02*
D03*
X131000Y263500D02*
D03*
X139000D02*
D03*
X197500Y271500D02*
D03*
X189500D02*
D03*
Y279500D02*
D03*
X197500D02*
D03*
X182500D02*
D03*
X174500D02*
D03*
Y271500D02*
D03*
X182500D02*
D03*
X198000Y307500D02*
D03*
X206000D02*
D03*
X186228Y64500D02*
D03*
X178228D02*
D03*
X186228Y56500D02*
D03*
X178228D02*
D03*
X186228Y48500D02*
D03*
X178228D02*
D03*
X131000Y287500D02*
D03*
X139000D02*
D03*
X131000Y271500D02*
D03*
X139000D02*
D03*
X131000Y279500D02*
D03*
X139000D02*
D03*
X198000Y331500D02*
D03*
X206000D02*
D03*
X198000Y315500D02*
D03*
X206000D02*
D03*
X198000Y323500D02*
D03*
X206000D02*
D03*
D12*
X186228Y93500D02*
D03*
Y86000D02*
D03*
X208728Y93500D02*
D03*
Y86000D02*
D03*
X108500Y242500D02*
D03*
Y250000D02*
D03*
X131000Y242500D02*
D03*
Y250000D02*
D03*
X175500Y286500D02*
D03*
Y294000D02*
D03*
X198000Y286500D02*
D03*
Y294000D02*
D03*
D13*
X194228Y89700D02*
D03*
X216728D02*
D03*
X100500Y246300D02*
D03*
X123000D02*
D03*
X167500Y290300D02*
D03*
X190000D02*
D03*
D14*
X216457Y48000D02*
D03*
Y53000D02*
D03*
Y58000D02*
D03*
Y63000D02*
D03*
X195000Y48000D02*
D03*
Y53000D02*
D03*
Y58000D02*
D03*
Y63000D02*
D03*
X77500Y137685D02*
D03*
Y133748D02*
D03*
Y129811D02*
D03*
Y125874D02*
D03*
Y121937D02*
D03*
Y118000D02*
D03*
X100772Y288000D02*
D03*
Y283000D02*
D03*
Y278000D02*
D03*
Y273000D02*
D03*
X122228Y288000D02*
D03*
Y283000D02*
D03*
Y278000D02*
D03*
Y273000D02*
D03*
X167772Y332000D02*
D03*
Y327000D02*
D03*
Y322000D02*
D03*
Y317000D02*
D03*
X189228Y332000D02*
D03*
Y327000D02*
D03*
Y322000D02*
D03*
Y317000D02*
D03*
D15*
X195043Y74000D02*
D03*
X198980D02*
D03*
X202917D02*
D03*
X206854D02*
D03*
X210791D02*
D03*
X214728D02*
D03*
X51500Y116272D02*
D03*
X56500D02*
D03*
X61500D02*
D03*
X66500D02*
D03*
X51500Y137728D02*
D03*
X56500D02*
D03*
X61500D02*
D03*
X66500D02*
D03*
X122185Y262000D02*
D03*
X118248D02*
D03*
X114311D02*
D03*
X110374D02*
D03*
X106437D02*
D03*
X102500D02*
D03*
X189185Y306000D02*
D03*
X185248D02*
D03*
X181311D02*
D03*
X177374D02*
D03*
X173437D02*
D03*
X169500D02*
D03*
D16*
X97000Y124000D02*
D03*
X89500D02*
D03*
X97000Y146500D02*
D03*
X89500D02*
D03*
D17*
X93200Y116000D02*
D03*
Y138500D02*
D03*
D18*
X186728Y94000D02*
Y100500D01*
X186228Y93500D02*
X186728Y94000D01*
X194228Y89700D02*
X198428D01*
X201728Y93000D01*
Y100500D01*
X209728D02*
Y108500D01*
Y94500D02*
Y100500D01*
X208728Y93500D02*
X209728Y94500D01*
X201728Y85000D02*
X206428Y89700D01*
X216728D01*
X208728Y83500D02*
Y86000D01*
X202917Y77689D02*
X208728Y83500D01*
X202917Y74000D02*
Y77689D01*
X195000Y63000D02*
Y73957D01*
X209728Y58000D02*
X216457D01*
X199728Y48000D02*
X209728Y58000D01*
X186228Y48500D02*
X186728Y48000D01*
X195000D01*
X199728D01*
X214728Y70500D02*
X220811Y64417D01*
X214728Y70500D02*
Y74000D01*
X220811Y54583D02*
Y64417D01*
X219228Y53000D02*
X220811Y54583D01*
X189728Y53000D02*
X195000D01*
X186228Y56500D02*
X189728Y53000D01*
X186228Y56500D02*
Y64500D01*
X191728Y58000D02*
X195000D01*
X190228Y59500D02*
X191728Y58000D01*
X190228Y59500D02*
Y68500D01*
X186228Y72500D02*
X190228Y68500D01*
X178228Y64500D02*
Y72500D01*
Y56500D02*
Y64500D01*
Y48500D02*
Y56500D01*
X216457Y53000D02*
X219228D01*
X198980Y74000D02*
X199000Y79500D01*
X181228Y86000D02*
X186228D01*
X181728Y53000D02*
X186228Y48500D01*
X178228Y72500D02*
Y76000D01*
X176228Y78000D02*
X178228Y76000D01*
X194728Y100500D02*
Y101728D01*
X192507Y85000D02*
X201728D01*
X190228Y87279D02*
X192507Y85000D01*
X190228Y87279D02*
Y104000D01*
X194728Y108500D01*
X56500Y113500D02*
Y116272D01*
X55000Y112000D02*
X56500Y113500D01*
X51500D02*
Y116272D01*
X53000Y112000D02*
X55000D01*
X51500Y113500D02*
X53000Y112000D01*
X74000Y118000D02*
X77500D01*
X67917Y111917D02*
X74000Y118000D01*
X58083Y111917D02*
X67917D01*
X56500Y113500D02*
X58083Y111917D01*
X51500Y133000D02*
X61500Y123000D01*
Y116272D02*
Y123000D01*
X51500Y133000D02*
Y137728D01*
X66500Y116272D02*
Y120000D01*
X51500Y137728D02*
Y146000D01*
X56500Y143000D02*
X60000Y146500D01*
X56500Y137728D02*
Y143000D01*
X72000Y142500D02*
X76000Y146500D01*
X63000Y142500D02*
X72000D01*
X61500Y141000D02*
X63000Y142500D01*
X61500Y137728D02*
Y141000D01*
X66500Y137728D02*
X77457D01*
X104000Y146000D02*
X112000D01*
X90779Y142500D02*
X107500D01*
X112000Y138000D01*
X88500Y140221D02*
X90779Y142500D01*
X88500Y131000D02*
Y140221D01*
X56500Y151000D02*
X81000D01*
X52000Y146500D02*
X56500Y151000D01*
X51500Y146000D02*
X52000Y146500D01*
Y154500D02*
X60000D01*
X104000Y138000D02*
X105228D01*
X97500Y146000D02*
X104000D01*
X97000Y146500D02*
X97500Y146000D01*
X96500Y131000D02*
X104000D01*
Y123000D02*
X112000D01*
X98000D02*
X104000D01*
X97000Y124000D02*
X98000Y123000D01*
X60000Y146500D02*
X68000D01*
Y154500D02*
X76000D01*
X60000D02*
X68000D01*
X88500Y131000D02*
X93200Y126300D01*
Y134300D02*
X96500Y131000D01*
X93200Y134300D02*
Y138500D01*
X87000Y124000D02*
X89500D01*
X81189Y129811D02*
X87000Y124000D01*
X77500Y129811D02*
X81189D01*
X81748Y133748D02*
X86000Y138000D01*
X77500Y133748D02*
X81748D01*
X77500Y118000D02*
X83257D01*
X89257Y112000D01*
X112000Y131000D02*
X117500D01*
X79500Y154500D02*
X81500Y156500D01*
X76000Y154500D02*
X79500D01*
X165000Y327000D02*
X167772D01*
X163500Y328500D02*
Y330500D01*
X165000Y332000D02*
X167772D01*
X163500Y330500D02*
X165000Y332000D01*
X163500Y328500D02*
X165000Y327000D01*
X169500Y306000D02*
Y309500D01*
X163417Y315583D02*
X169500Y309500D01*
X163417Y315583D02*
Y325417D01*
X165000Y327000D01*
X174500Y322000D02*
X184500Y332000D01*
X167772Y322000D02*
X174500D01*
X184500Y332000D02*
X189228D01*
X171500Y317000D02*
X177374Y311126D01*
X167772Y317000D02*
X171500D01*
X189228Y332000D02*
X197500D01*
X194500Y327000D02*
X198000Y323500D01*
X189228Y327000D02*
X194500D01*
X194000Y311500D02*
X198000Y307500D01*
X194000Y311500D02*
Y320500D01*
X192500Y322000D02*
X194000Y320500D01*
X189228Y322000D02*
X192500D01*
X189228Y306043D02*
Y317000D01*
X197500Y271500D02*
Y279500D01*
X194000Y276000D02*
Y292721D01*
X189500Y271500D02*
X194000Y276000D01*
X191721Y295000D02*
X194000Y292721D01*
X182500Y295000D02*
X191721D01*
X198000Y331500D02*
X202500Y327000D01*
X197500Y332000D02*
X198000Y331500D01*
X206000Y323500D02*
Y331500D01*
X186000Y274772D02*
X189500Y278272D01*
Y279500D01*
X197500D02*
Y286000D01*
X198000Y286500D01*
X182500Y279500D02*
Y287000D01*
X174500Y271500D02*
Y279500D01*
Y285500D01*
X175500Y286500D01*
X198000Y315500D02*
Y323500D01*
X206000Y307500D02*
Y315500D01*
Y323500D01*
X177800Y290300D02*
X182500Y295000D01*
Y287000D02*
X185800Y290300D01*
X190000D01*
X175500Y294000D02*
Y296500D01*
X181311Y302311D01*
Y306000D01*
X189500Y297500D02*
X202550D01*
X185248Y301752D02*
X189500Y297500D01*
X185248Y301752D02*
Y306000D01*
X182500Y266000D02*
Y271500D01*
X206000Y304000D02*
X208000Y302000D01*
X206000Y304000D02*
Y307500D01*
X98000Y283000D02*
X100772D01*
X96500Y284500D02*
X98000Y283000D01*
Y288000D02*
X100772D01*
X96500Y284500D02*
Y286500D01*
X98000Y288000D01*
X102500Y262000D02*
Y265500D01*
X96417Y271583D02*
X102500Y265500D01*
X96417Y271583D02*
Y281417D01*
X98000Y283000D01*
X107500Y278000D02*
X117500Y288000D01*
X100772Y278000D02*
X107500D01*
X117500Y288000D02*
X122228D01*
X104500Y273000D02*
X110374Y267126D01*
X100772Y273000D02*
X104500D01*
X122228Y288000D02*
X130500D01*
X127500Y283000D02*
X131000Y279500D01*
X122228Y283000D02*
X127500D01*
X127000Y267500D02*
X131000Y263500D01*
X127000Y267500D02*
Y276500D01*
X125500Y278000D02*
X127000Y276500D01*
X122228Y278000D02*
X125500D01*
X122228Y262043D02*
Y273000D01*
X130500Y227500D02*
Y235500D01*
X122500Y227500D02*
X127000Y232000D01*
X131000Y287500D02*
X135500Y283000D01*
X130500Y288000D02*
X131000Y287500D01*
X139000Y279500D02*
Y287500D01*
X119000Y224379D02*
Y230772D01*
X122500Y234272D01*
Y235500D01*
X130500D02*
Y242000D01*
X131000Y242500D01*
X115500Y235500D02*
Y243000D01*
X107500Y227500D02*
Y235500D01*
Y241500D01*
X108500Y242500D01*
X131000Y271500D02*
Y279500D01*
X139000Y263500D02*
Y271500D01*
Y279500D01*
X110800Y246300D02*
X115500Y251000D01*
X100500Y246300D02*
X110800D01*
X115500Y243000D02*
X118800Y246300D01*
X123000D01*
X108500Y250000D02*
Y252500D01*
X114311Y258311D01*
Y262000D01*
X131000Y250000D02*
X136000D01*
X118248Y257752D02*
Y262000D01*
X102500Y256243D02*
Y262000D01*
X96500Y250243D02*
X102500Y256243D01*
X115500Y222000D02*
Y227500D01*
X194728Y101728D02*
X198228Y105228D01*
X201728Y108500D02*
X202000Y108772D01*
X220000Y6000D02*
X250000D01*
X167500Y290300D02*
X177800D01*
X198228Y105228D02*
Y115500D01*
X202000Y108772D02*
Y120000D01*
X186728Y100500D02*
Y108500D01*
X89500Y146500D02*
X93109Y150109D01*
Y150451D01*
X86000Y138000D02*
Y149500D01*
X90500Y154000D01*
X81000Y151000D02*
X86000Y156000D01*
X235000D01*
X237000Y158000D01*
X202500Y302500D02*
Y327000D01*
X186000Y268379D02*
Y274772D01*
X163500Y265000D02*
Y294243D01*
X169500Y300243D02*
Y306000D01*
X163500Y294243D02*
X169500Y300243D01*
X93200Y116000D02*
Y126300D01*
X210000Y63000D02*
X216457D01*
X119000Y224379D02*
X125379Y218000D01*
X237000D01*
X186000Y268379D02*
X192379Y262000D01*
X125000Y208000D02*
X237000D01*
X105228Y138000D02*
X108728Y134500D01*
X125000D01*
X90500Y154000D02*
X166500D01*
X170000Y150500D01*
X216457Y48500D02*
Y53000D01*
X236500Y48500D02*
X241000Y44000D01*
X139000Y263500D02*
X144000D01*
X135500Y260000D02*
Y283000D01*
Y260000D02*
X138000Y257500D01*
X219000D01*
X127000Y232000D02*
Y248721D01*
X115500Y251000D02*
X124721D01*
X127000Y248721D01*
X192500Y262000D02*
X297000D01*
X118248Y257752D02*
X122000Y254000D01*
X285000D01*
X177500Y148000D02*
X237000D01*
X181728Y53000D02*
Y80550D01*
X177500Y84779D02*
X181728Y80550D01*
X177500Y84779D02*
Y92500D01*
X89257Y112000D02*
X108000D01*
X134000Y138000D01*
X237000D01*
X314500Y248000D02*
X317500Y245000D01*
X243000Y248000D02*
X314500D01*
X264000Y235000D02*
Y239000D01*
X248500Y235000D02*
X264000D01*
X317500D01*
X252000Y239000D02*
X256000D01*
X243000Y248000D02*
X252000Y239000D01*
X237000Y138000D02*
X243000Y144000D01*
Y218000D01*
X256000Y231000D01*
X264000D01*
X168500Y42500D02*
Y49000D01*
X153500Y27500D02*
X168500Y42500D01*
Y57000D02*
Y67000D01*
X167500Y68000D02*
X168500Y67000D01*
X173500Y37500D02*
X181000D01*
X188500Y30000D01*
X202557Y48000D02*
X216457D01*
X192557Y38000D02*
X202557Y48000D01*
X188500Y38000D02*
X192557D01*
X216457Y48500D02*
X236500D01*
X173500Y16000D02*
X181000D01*
X188500Y8500D01*
X250000Y26000D02*
X251500D01*
X257500Y20000D01*
Y12000D02*
X295500D01*
X318500Y35000D01*
X153000Y188000D02*
X237000D01*
X182000Y23000D02*
X188500Y16500D01*
X174000Y23000D02*
X182000D01*
X220000Y26000D02*
X250000D01*
X66500Y120000D02*
X71000Y124500D01*
X297000Y158000D02*
X302500Y152500D01*
X297000Y168000D02*
X304500Y160500D01*
X297000Y178000D02*
X306500Y168500D01*
X297000Y208000D02*
X308500Y196500D01*
X230500Y83500D02*
X285278D01*
X302500Y100722D01*
Y152500D01*
X225000Y79500D02*
X284107D01*
X304500Y99893D01*
Y160500D01*
X225000Y74500D02*
X281935D01*
X306500Y99065D01*
Y168500D01*
X225000Y68500D02*
X278763D01*
X308500Y98237D01*
Y196500D01*
X230550Y269500D02*
X290500D01*
X202500Y302500D02*
X231500Y273500D01*
X198000Y294000D02*
X201500Y290500D01*
X202500D01*
X202550Y297500D02*
X230550Y269500D01*
X96500Y231500D02*
Y250243D01*
Y231500D02*
X114000Y214000D01*
X134000D01*
D19*
X216728Y86000D02*
Y89700D01*
X210791Y80063D02*
X216728Y86000D01*
X210791Y74000D02*
Y80063D01*
X89500Y116000D02*
X93200D01*
X83563Y121937D02*
X89500Y116000D01*
X77500Y121937D02*
X83563D01*
X167500Y290300D02*
Y294000D01*
X173437Y299937D01*
Y306000D01*
X100500Y246300D02*
Y250000D01*
X106437Y255937D01*
Y262000D01*
X93200Y116000D02*
X103000D01*
X210791Y68709D02*
Y74000D01*
Y68709D02*
X211500Y68000D01*
X282000Y313000D02*
X293000Y302000D01*
X294000Y294000D02*
Y301000D01*
X293000Y302000D02*
X294000D01*
X302000Y294000D02*
X316500D01*
X317500Y295000D01*
D20*
X177374Y306000D02*
Y311126D01*
X110374Y262000D02*
Y267126D01*
X206854Y66146D02*
Y74000D01*
Y66146D02*
X210000Y63000D01*
X72374Y125874D02*
X77500D01*
X71000Y124500D02*
X72374Y125874D01*
D21*
X231000Y43929D02*
Y44000D01*
X236000Y39000D01*
X309000Y216500D02*
X311000Y214500D01*
Y96929D02*
Y214500D01*
X236000Y39000D02*
X253071D01*
X311000Y96929D01*
D22*
X337500Y195000D02*
X347500D01*
X17000Y118500D02*
X67500Y68000D01*
X347500Y195000D02*
Y205000D01*
Y215000D01*
X337500Y275000D02*
X347500D01*
X67500Y68000D02*
X103000D01*
X167500D01*
X17000Y118500D02*
Y260000D01*
X99500Y342500D01*
X269500D01*
X292000Y320000D01*
Y313000D02*
Y320000D01*
D23*
X302000Y302000D02*
Y313000D01*
X145000Y106000D02*
X161000D01*
X145000Y97500D02*
X161000D01*
X145000Y89000D02*
X161000D01*
D24*
X351000Y275000D02*
X356500Y280500D01*
Y307600D01*
X303000Y314000D02*
X350100D01*
X356500Y307600D01*
X347500Y275000D02*
X351000D01*
D25*
X251000Y44000D02*
D03*
X241000D02*
D03*
X231000D02*
D03*
X220000Y6000D02*
D03*
X250000D02*
D03*
X220000Y26000D02*
D03*
X250000D02*
D03*
D26*
X302000Y313000D02*
D03*
X292000Y313000D02*
D03*
X268500Y35000D02*
D03*
X278500Y35000D02*
D03*
X288500Y35000D02*
D03*
X308500Y35000D02*
D03*
X298500Y35000D02*
D03*
D27*
X282000Y313000D02*
D03*
X318500Y35000D02*
D03*
D28*
X173500Y16000D02*
D03*
Y7732D02*
D03*
Y37500D02*
D03*
Y29232D02*
D03*
X153500Y27500D02*
D03*
Y19232D02*
D03*
D29*
X297000Y108000D02*
D03*
Y118000D02*
D03*
Y128000D02*
D03*
Y138000D02*
D03*
Y148000D02*
D03*
Y158000D02*
D03*
Y168000D02*
D03*
Y178000D02*
D03*
Y188000D02*
D03*
Y198000D02*
D03*
Y208000D02*
D03*
Y218000D02*
D03*
X237000Y108000D02*
D03*
Y118000D02*
D03*
Y128000D02*
D03*
Y138000D02*
D03*
Y148000D02*
D03*
Y158000D02*
D03*
Y168000D02*
D03*
Y178000D02*
D03*
Y188000D02*
D03*
Y198000D02*
D03*
Y208000D02*
D03*
Y218000D02*
D03*
X248500Y142500D02*
D03*
Y152500D02*
D03*
X292000Y98000D02*
D03*
X282000D02*
D03*
X272000D02*
D03*
X262000D02*
D03*
X252000D02*
D03*
X242000D02*
D03*
X317500Y305000D02*
D03*
X327500D02*
D03*
Y295000D02*
D03*
X317500D02*
D03*
X327500Y285000D02*
D03*
X317500D02*
D03*
X327500Y275000D02*
D03*
X317500D02*
D03*
X327500Y265000D02*
D03*
X317500D02*
D03*
X327500Y255000D02*
D03*
X317500D02*
D03*
X327500Y245000D02*
D03*
X317500D02*
D03*
X327500Y235000D02*
D03*
X317500D02*
D03*
X327500Y225000D02*
D03*
X317500D02*
D03*
X327500Y215000D02*
D03*
X317500D02*
D03*
X327500Y205000D02*
D03*
X317500D02*
D03*
X327500Y195000D02*
D03*
X317500D02*
D03*
X327500Y185000D02*
D03*
X317500D02*
D03*
X327500Y175000D02*
D03*
X317500D02*
D03*
X327500Y165000D02*
D03*
X317500D02*
D03*
X327500Y155000D02*
D03*
X317500D02*
D03*
X327500Y145000D02*
D03*
X317500D02*
D03*
X327500Y135000D02*
D03*
X317500D02*
D03*
X327500Y125000D02*
D03*
X317500D02*
D03*
X327500Y115000D02*
D03*
X317500D02*
D03*
X327500Y105000D02*
D03*
X317500D02*
D03*
X327500Y95000D02*
D03*
X317500D02*
D03*
X327500Y85000D02*
D03*
X317500D02*
D03*
X327500Y75000D02*
D03*
X317500D02*
D03*
X327500Y65000D02*
D03*
X317500D02*
D03*
X327500Y55000D02*
D03*
X337500Y305000D02*
D03*
X347500D02*
D03*
Y295000D02*
D03*
X337500D02*
D03*
X347500Y285000D02*
D03*
X337500D02*
D03*
X347500Y275000D02*
D03*
X337500D02*
D03*
X347500Y265000D02*
D03*
X337500D02*
D03*
X347500Y255000D02*
D03*
X337500D02*
D03*
X347500Y245000D02*
D03*
X337500D02*
D03*
X347500Y235000D02*
D03*
X337500D02*
D03*
X347500Y225000D02*
D03*
X337500D02*
D03*
X347500Y215000D02*
D03*
X337500D02*
D03*
X347500Y205000D02*
D03*
X337500D02*
D03*
X347500Y195000D02*
D03*
X337500D02*
D03*
X347500Y185000D02*
D03*
X337500D02*
D03*
X347500Y175000D02*
D03*
X337500D02*
D03*
X347500Y165000D02*
D03*
X337500D02*
D03*
X347500Y155000D02*
D03*
X337500D02*
D03*
X347500Y145000D02*
D03*
X337500D02*
D03*
X347500Y135000D02*
D03*
X337500D02*
D03*
X347500Y125000D02*
D03*
X337500D02*
D03*
X347500Y115000D02*
D03*
X337500D02*
D03*
X347500Y105000D02*
D03*
X337500D02*
D03*
X347500Y95000D02*
D03*
X337500D02*
D03*
X347500Y85000D02*
D03*
X337500D02*
D03*
X347500Y75000D02*
D03*
X337500D02*
D03*
X347500Y65000D02*
D03*
X337500D02*
D03*
X347500Y55000D02*
D03*
D30*
X317500D02*
D03*
D31*
X337500D02*
D03*
D32*
X204842Y31496D02*
D03*
X179500Y242284D02*
D03*
X110827Y302000D02*
D03*
X32500Y127953D02*
D03*
D33*
X161417Y127953D02*
D03*
X7874D02*
D03*
X110827Y171653D02*
D03*
Y325197D02*
D03*
X154606Y242284D02*
D03*
X308150D02*
D03*
X204842Y161772D02*
D03*
Y8228D02*
D03*
D34*
X20000Y344400D02*
D03*
Y325400D02*
D03*
X28000Y339900D02*
D03*
Y329900D02*
D03*
X12000Y339900D02*
D03*
Y329900D02*
D03*
X20000Y29500D02*
D03*
Y10500D02*
D03*
X28000Y25000D02*
D03*
Y15000D02*
D03*
X12000Y25000D02*
D03*
Y15000D02*
D03*
X357500Y44500D02*
D03*
Y25500D02*
D03*
X365500Y40000D02*
D03*
Y30000D02*
D03*
X349500Y40000D02*
D03*
Y30000D02*
D03*
X181228Y86000D02*
D03*
X176228Y78000D02*
D03*
X71000Y124500D02*
D03*
X117500Y131000D02*
D03*
X81500Y156500D02*
D03*
X176000Y312500D02*
D03*
X182500Y266000D02*
D03*
X208000Y302000D02*
D03*
X109000Y268500D02*
D03*
X136000Y250000D02*
D03*
X115500Y222000D02*
D03*
X199000Y79500D02*
D03*
X198228Y115500D02*
D03*
X202000Y120000D02*
D03*
X225000Y79500D02*
D03*
X230500Y83500D02*
D03*
X93109Y150451D02*
D03*
X173437Y299937D02*
D03*
X171500Y342500D02*
D03*
X106500Y256000D02*
D03*
X98484Y342484D02*
D03*
X103000Y116000D02*
D03*
X210500Y62500D02*
D03*
X211500Y68000D02*
D03*
X167500D02*
D03*
X103000D02*
D03*
X297000Y262000D02*
D03*
X125000Y208000D02*
D03*
Y134500D02*
D03*
X225000Y74500D02*
D03*
X170000Y150500D02*
D03*
X290500Y269500D02*
D03*
X144000Y263500D02*
D03*
X219000Y257500D02*
D03*
X285000Y254000D02*
D03*
X177500Y148000D02*
D03*
Y92500D02*
D03*
X134000Y138000D02*
D03*
Y214000D02*
D03*
X163500Y265000D02*
D03*
X309000Y216500D02*
D03*
X248500Y235000D02*
D03*
X243000Y248000D02*
D03*
X153000Y188000D02*
D03*
X174000Y23000D02*
D03*
X225000Y68500D02*
D03*
X231500Y273500D02*
D03*
X202500Y290500D02*
D03*
X161000Y106000D02*
D03*
X145000D02*
D03*
Y97500D02*
D03*
X161000D02*
D03*
X145000Y89000D02*
D03*
X161000D02*
D03*
X350000Y330000D02*
D03*
Y320500D02*
D03*
X364500Y330000D02*
D03*
Y320500D02*
D03*
X357500Y334000D02*
D03*
Y316400D02*
D03*
D35*
Y35000D02*
D03*
X20000Y20000D02*
D03*
Y335000D02*
D03*
D36*
X357500Y325000D02*
D03*
M02*
