%FSDAX24Y24*%
%MOIN*%
%SFA1B1*%

%IPPOS*%
%ADD10R,0.040000X0.050000*%
%ADD11R,0.050000X0.040000*%
%ADD12O,0.023600X0.057100*%
%ADD13R,0.050000X0.036000*%
%ADD14R,0.036000X0.036000*%
%ADD15O,0.057100X0.023600*%
%ADD16R,0.036000X0.050000*%
%ADD17R,0.036000X0.036000*%
%LNrwsv3-1*%
%LPD*%
G54D10*
X068190Y042050D03*
X067390D03*
X068190Y041250D03*
X067390D03*
X068190Y042850D03*
X067390D03*
X061490Y037650D03*
X060690D03*
X061490Y036850D03*
X060690D03*
X061490Y038450D03*
X060690D03*
X065413Y014550D03*
X066213D03*
X065413Y015350D03*
X066213D03*
X065413Y016150D03*
X066213D03*
X068190Y040450D03*
X067390D03*
X065840Y036850D03*
X065040D03*
Y037650D03*
X065840D03*
X067340D03*
X066540D03*
Y036850D03*
X067340D03*
X061490Y036050D03*
X060690D03*
X059140Y032450D03*
X058340D03*
Y033250D03*
X059140D03*
X060640D03*
X059840D03*
Y032450D03*
X060640D03*
X057240Y022800D03*
X056440D03*
X065413Y016950D03*
X066213D03*
X068563Y019750D03*
X067763D03*
Y020550D03*
X068563D03*
X066263Y019750D03*
X067063D03*
Y020550D03*
X066263D03*
X076990Y039900D03*
X077790D03*
X076990Y039100D03*
X077790D03*
G54D11*
X053590Y025150D03*
Y024350D03*
X054390Y025150D03*
Y024350D03*
X052790Y025150D03*
Y024350D03*
X065840Y038400D03*
Y039200D03*
X059140Y034000D03*
Y034800D03*
X055190Y025150D03*
Y024350D03*
X058790Y022800D03*
Y022000D03*
X057990D03*
Y022800D03*
Y024300D03*
Y023500D03*
X058790D03*
Y024300D03*
X067763Y019000D03*
Y018200D03*
X073340Y011700D03*
Y010900D03*
X073190Y032800D03*
Y033600D03*
X073990Y032800D03*
Y033600D03*
X066440Y010550D03*
Y011350D03*
Y012700D03*
Y013500D03*
X064440Y014600D03*
Y015400D03*
G54D12*
X064540Y040300D03*
X064934D03*
X065327D03*
X065721D03*
X066115D03*
X066508D03*
X057840Y035900D03*
X058234D03*
X058627D03*
X059021D03*
X059415D03*
X059809D03*
X054240Y023473D03*
X053740D03*
X053240D03*
X052740D03*
X054240Y021327D03*
X053740D03*
X053240D03*
X052740D03*
X069063Y017100D03*
X068669D03*
X068275D03*
X067882D03*
X067488D03*
X067094D03*
G54D13*
X066590Y038730D03*
X064340D03*
X059890Y034330D03*
X057640D03*
X069263Y018670D03*
X067013D03*
G54D14*
X067390Y039100D03*
Y038350D03*
X065140Y039100D03*
Y038350D03*
X060690Y034700D03*
Y033950D03*
X058440Y034700D03*
Y033950D03*
X068463Y018300D03*
Y019050D03*
X066213Y018300D03*
Y019050D03*
G54D15*
X066513Y041400D03*
Y041900D03*
Y042400D03*
Y042900D03*
X064367Y041400D03*
Y041900D03*
Y042400D03*
Y042900D03*
X059813Y037000D03*
Y037500D03*
Y038000D03*
Y038500D03*
X057667Y037000D03*
Y037500D03*
Y038000D03*
Y038500D03*
X055340Y021500D03*
Y021894D03*
Y022287D03*
Y022681D03*
Y023075D03*
Y023468D03*
X067090Y016000D03*
Y015500D03*
Y015000D03*
Y014500D03*
X069236Y016000D03*
Y015500D03*
Y015000D03*
Y014500D03*
G54D16*
X056910Y023550D03*
Y021300D03*
G54D17*
X056540Y024350D03*
X057290D03*
X056540Y022100D03*
X057290D03*
M02*