%FSDAX24Y24*%
%MOIN*%
%SFA1B1*%

%IPPOS*%
%ADD18C,0.010000*%
%ADD19C,0.040000*%
%ADD20C,0.020000*%
%ADD21C,0.080000*%
%ADD24C,0.030000*%
%ADD25C,0.060000*%
%ADD26R,0.060000X0.060000*%
%ADD27C,0.080000*%
%ADD28O,0.080000X0.060000*%
%ADD29R,0.080000X0.080000*%
%ADD30C,0.070000*%
%ADD31R,0.070000X0.070000*%
%ADD32C,0.047200*%
%ADD33C,0.040000*%
%ADD34C,0.180000*%
%ADD35C,0.250000*%
%ADD36C,0.078700*%
%ADD37C,0.196900*%
%ADD40C,0.005000*%
%ADD70C,0.160000*%
%LNrwsv3-1*%
%LPD*%
G54D40*
X082079Y043425D02*
X083420D01*
X083579Y043404*
X083734Y043362*
X083882Y043300*
X084022Y043221*
X084149Y043123*
X084263Y043009*
X084361Y042882*
X084441Y042742*
X084502Y042594*
X084544Y042439*
X084565Y042280*
Y042200*
Y013200*
Y013119*
X084544Y012960*
X084502Y012805*
X084441Y012657*
X084361Y012517*
X084263Y012390*
X084149Y012276*
X084022Y012178*
X083882Y012098*
X083734Y012037*
X083579Y011995*
X083420Y011975*
X082079*
X079829Y009725*
X064380*
X063630Y010475*
X049509*
X049350Y010495*
X049195Y010537*
X049047Y010598*
X048907Y010678*
X048780Y010776*
X048666Y010890*
X048568Y011017*
X048489Y011157*
X048427Y011305*
X048385Y011460*
X048365Y011619*
Y011700*
Y018050*
X047615Y018800*
Y026189*
X048365Y026939*
Y043200*
Y043280*
X048385Y043439*
X048427Y043594*
X048489Y043742*
X048568Y043882*
X048666Y044009*
X048780Y044123*
X048907Y044221*
X049047Y044301*
X049195Y044362*
X049350Y044404*
X049509Y044425*
X081079*
X082079Y043425*
G54D18*
X082058Y043375D02*
X083417D01*
X083569Y043355*
X083718Y043314*
X083860Y043255*
X083994Y043179*
X084116Y043085*
X084225Y042976*
X084319Y042854*
X084396Y042720*
X084454Y042578*
X084495Y042429*
X084515Y042277*
Y042200*
Y013200*
Y013122*
X084495Y012970*
X084454Y012821*
X084396Y012679*
X084319Y012545*
X084225Y012423*
X084116Y012314*
X083994Y012220*
X083860Y012143*
X083718Y012085*
X083569Y012044*
X083417Y012025*
X082058*
X079808Y009775*
X064401*
X063651Y010525*
X049512*
X049360Y010544*
X049211Y010585*
X049069Y010643*
X048935Y010720*
X048813Y010814*
X048704Y010923*
X048610Y011045*
X048534Y011179*
X048475Y011321*
X048434Y011470*
X048415Y011622*
Y011700*
Y018071*
X047665Y018821*
Y026168*
X048415Y026918*
Y043200*
Y043277*
X048434Y043429*
X048475Y043578*
X048534Y043720*
X048610Y043854*
X048704Y043976*
X048813Y044085*
X048935Y044179*
X049069Y044256*
X049211Y044314*
X049360Y044355*
X049512Y044375*
X081058*
X082058Y043375*
G54D20*
X082017Y043275D02*
X083410D01*
X083549Y043256*
X083686Y043220*
X083816Y043165*
X083938Y043095*
X084050Y043010*
X084150Y042910*
X084236Y042798*
X084306Y042676*
X084359Y042546*
X084396Y042409*
X084415Y042270*
Y042200*
Y013200*
Y013129*
X084396Y012990*
X084359Y012853*
X084306Y012723*
X084236Y012601*
X084150Y012489*
X084050Y012389*
X083938Y012303*
X083816Y012233*
X083686Y012180*
X083549Y012143*
X083410Y012125*
X082017*
X079767Y009875*
X064442*
X063692Y010625*
X049519*
X049380Y010643*
X049243Y010680*
X049113Y010733*
X048991Y010803*
X048879Y010889*
X048779Y010989*
X048694Y011101*
X048624Y011223*
X048569Y011353*
X048533Y011490*
X048515Y011629*
Y011700*
Y018112*
X047765Y018862*
Y026127*
X048515Y026877*
Y043200*
Y043270*
X048533Y043409*
X048569Y043546*
X048624Y043676*
X048694Y043798*
X048779Y043910*
X048879Y044010*
X048991Y044096*
X049113Y044166*
X049243Y044219*
X049380Y044256*
X049519Y044275*
X081017*
X082017Y043275*
G54D19*
X081934Y043075D02*
X083397D01*
X083510Y043060*
X083621Y043030*
X083728Y042985*
X083827Y042929*
X083918Y042859*
X083999Y042778*
X084069Y042686*
X084126Y042588*
X084170Y042482*
X084200Y042370*
X084215Y042257*
Y042200*
Y013200*
Y013142*
X084200Y013029*
X084170Y012917*
X084126Y012811*
X084069Y012712*
X083999Y012621*
X083918Y012540*
X083826Y012470*
X083728Y012413*
X083622Y012369*
X083510Y012339*
X083397Y012325*
X081934*
X079684Y010075*
X064525*
X063775Y010825*
X049532*
X049419Y010839*
X049307Y010869*
X049201Y010913*
X049102Y010970*
X049011Y011040*
X048930Y011121*
X048860Y011212*
X048804Y011311*
X048759Y011418*
X048729Y011529*
X048715Y011642*
Y011700*
Y018195*
X047965Y018945*
Y026044*
X048715Y026794*
Y043200*
Y043257*
X048729Y043370*
X048759Y043481*
X048804Y043588*
X048860Y043687*
X048930Y043778*
X049011Y043859*
X049102Y043929*
X049201Y043986*
X049307Y044030*
X049419Y044060*
X049532Y044075*
X080934*
X081934Y043075*
G54D21*
X081768Y042675D02*
X083371D01*
X083432Y042667*
X083491Y042651*
X083551Y042626*
X083605Y042595*
X083653Y042558*
X083698Y042513*
X083736Y042464*
X083766Y042411*
X083790Y042353*
X083807Y042292*
X083815Y042231*
Y042200*
Y013200*
Y013168*
X083807Y013107*
X083790Y013046*
X083766Y012988*
X083736Y012935*
X083698Y012886*
X083653Y012841*
X083604Y012803*
X083551Y012773*
X083493Y012749*
X083432Y012732*
X083371Y012725*
X081768*
X079518Y010475*
X064691*
X063941Y011225*
X049557*
X049497Y011232*
X049436Y011249*
X049378Y011273*
X049325Y011303*
X049276Y011341*
X049231Y011386*
X049194Y011434*
X049163Y011488*
X049138Y011548*
X049122Y011607*
X049115Y011667*
Y011700*
Y018361*
X048365Y019111*
Y025878*
X049115Y026628*
Y043200*
Y043231*
X049122Y043292*
X049138Y043351*
X049163Y043411*
X049194Y043465*
X049231Y043513*
X049276Y043558*
X049325Y043596*
X049378Y043626*
X049436Y043650*
X049497Y043667*
X049558Y043675*
X080768*
X081768Y042675*
G54D70*
X081437Y041875D02*
X083320D01*
X083275Y041880*
X083231Y041892*
X083197Y041906*
X083161Y041927*
X083124Y041955*
X083095Y041984*
X083070Y042018*
X083047Y042057*
X083031Y042096*
X083020Y042135*
X083015Y042180*
Y042200*
Y013200*
Y013219*
X083020Y013264*
X083031Y013303*
X083047Y013342*
X083070Y013381*
X083095Y013415*
X083124Y013444*
X083158Y013469*
X083197Y013492*
X083236Y013508*
X083275Y013519*
X083320Y013525*
X081437*
X079187Y011275*
X065022*
X064272Y012025*
X049609*
X049654Y012019*
X049693Y012008*
X049732Y011992*
X049771Y011969*
X049805Y011943*
X049834Y011915*
X049862Y011878*
X049883Y011842*
X049897Y011807*
X049909Y011764*
X049915Y011719*
Y011700*
Y018692*
X049165Y019442*
Y025547*
X049915Y026297*
Y043200*
Y043180*
X049909Y043135*
X049897Y043092*
X049883Y043057*
X049862Y043021*
X049834Y042984*
X049805Y042955*
X049771Y042930*
X049732Y042907*
X049693Y042891*
X049654Y042880*
X049609Y042875*
X080437*
X081437Y041875*
X049970Y012070D02*
X079960D01*
X049970Y013670D02*
X082760D01*
X049970Y015270D02*
X082760D01*
X049970Y016870D02*
X082760D01*
X049970Y018470D02*
X082760D01*
X049170Y020070D02*
X082760D01*
X049170Y021670D02*
X082760D01*
X049170Y023270D02*
X082760D01*
X049170Y024870D02*
X082760D01*
X049970Y026470D02*
X082760D01*
X049970Y028070D02*
X082760D01*
X049970Y029670D02*
X082760D01*
X049970Y031270D02*
X082760D01*
X049970Y032870D02*
X082760D01*
X049970Y034470D02*
X082760D01*
X049970Y036070D02*
X082760D01*
X049970Y037670D02*
X082760D01*
X049970Y039270D02*
X082760D01*
X049970Y040870D02*
X082760D01*
X049970Y042470D02*
X080760D01*
G54D18*
X078776Y038342D02*
X078779Y038350D01*
X078760Y038199*
X078779Y038049*
X078837Y037910*
X078929Y037789*
X079050Y037697*
X079100Y037676*
Y037723*
X079050Y037702*
X078929Y037610*
X078837Y037489*
X078779Y037350*
X078760Y037200*
X078779Y037049*
X078837Y036910*
X078929Y036789*
X079050Y036697*
X079100Y036676*
Y036723*
X079050Y036702*
X078929Y036610*
X078837Y036489*
X078779Y036350*
X078760Y036200*
X078779Y036049*
X078837Y035910*
X078929Y035789*
X079050Y035697*
X079100Y035676*
Y035723*
X079050Y035702*
X078929Y035610*
X078837Y035489*
X078779Y035350*
X078760Y035200*
X078779Y035049*
X078837Y034910*
X078929Y034789*
X079050Y034697*
X079100Y034676*
Y034723*
X079050Y034702*
X078929Y034610*
X078837Y034489*
X078779Y034350*
X078774Y034310*
X078818Y034322*
X078810Y034333*
X078691Y034425*
X078553Y034482*
X078405Y034501*
X078256Y034482*
X078118Y034425*
X078051Y034374*
X078090Y034360*
Y037555*
X078835Y038301*
X078776Y038342*
X078100Y034430D02*
Y037560D01*
X078200Y034470D02*
Y037660D01*
X078300Y034510D02*
Y037760D01*
X078400Y034510D02*
Y037860D01*
X078500Y034510D02*
Y037960D01*
X078600Y034490D02*
Y038060D01*
X078700Y034450D02*
Y038160D01*
X078800Y034330D02*
Y034320D01*
Y034410D02*
Y035000D01*
Y035410D02*
Y036000D01*
Y036410D02*
Y037000D01*
Y037410D02*
Y038000D01*
Y038290D02*
Y038320D01*
X078900Y034590D02*
Y034820D01*
Y035590D02*
Y035820D01*
Y036590D02*
Y036820D01*
Y037590D02*
Y037820D01*
X079000Y034690D02*
Y034720D01*
Y035690D02*
Y035720D01*
Y036690D02*
Y036720D01*
Y037690D02*
Y037720D01*
G54D40*
X067620Y017350D02*
X069830D01*
X067710Y017400D02*
X069860D01*
X067760Y017450D02*
X069830D01*
%LNrwsv3-2*%
%LPC*%
G36*
X058673Y042718D02*
X058544Y042701D01*
X058424Y042651*
X058321Y042572*
X058241Y042469*
X058192Y042349*
X058175Y042220*
X058192Y042091*
X058241Y041971*
X058321Y041868*
X058424Y041788*
X058544Y041739*
X058673Y041722*
X058802Y041739*
X058922Y041788*
X059025Y041868*
X059104Y041971*
X059154Y042091*
X059171Y042220*
X059154Y042349*
X059104Y042469*
X059025Y042572*
X058922Y042651*
X058802Y042701*
X058673Y042718*
G37*
G36*
X076240Y041450D02*
X075840D01*
Y041050*
X076240*
Y041450*
G37*
G36*
X075740D02*
X075340D01*
Y041050*
X075740*
Y041450*
G37*
G36*
X076240Y040950D02*
X075840D01*
Y040550*
X076240*
Y040950*
G37*
G36*
X075740D02*
X075340D01*
Y040550*
X075740*
Y040950*
G37*
G36*
X077790Y041454D02*
X077673Y041438D01*
X077563Y041393*
X077469Y041321*
X077397Y041227*
X077352Y041117*
X077336Y041000*
X077352Y040883*
X077397Y040773*
X077469Y040679*
X077563Y040607*
X077673Y040562*
X077790Y040546*
X077907Y040562*
X078017Y040607*
X078111Y040679*
X078183Y040773*
X078228Y040883*
X078244Y041000*
X078228Y041117*
X078183Y041227*
X078111Y041321*
X078017Y041393*
X077907Y041438*
X077790Y041454*
G37*
G36*
X076790D02*
X076673Y041438D01*
X076563Y041393*
X076469Y041321*
X076397Y041227*
X076352Y041117*
X076336Y041000*
X076352Y040883*
X076397Y040773*
X076469Y040679*
X076563Y040607*
X076673Y040562*
X076790Y040546*
X076907Y040562*
X077017Y040607*
X077111Y040679*
X077183Y040773*
X077228Y040883*
X077244Y041000*
X077228Y041117*
X077183Y041227*
X077111Y041321*
X077017Y041393*
X076907Y041438*
X076790Y041454*
G37*
G36*
X082340Y040704D02*
X082209Y040687D01*
X082088Y040637*
X081983Y040557*
X081903Y040452*
X081867Y040365*
X081813*
X081777Y040452*
X081697Y040557*
X081592Y040637*
X081471Y040687*
X081340Y040704*
X081209Y040687*
X081088Y040637*
X080983Y040557*
X080903Y040452*
X080867Y040365*
X080813*
X080777Y040452*
X080697Y040557*
X080592Y040637*
X080471Y040687*
X080340Y040704*
X080209Y040687*
X080088Y040637*
X079983Y040557*
X079903Y040452*
X079867Y040365*
X079813*
X079777Y040452*
X079697Y040557*
X079592Y040637*
X079471Y040687*
X079340Y040704*
X079209Y040687*
X079088Y040637*
X078983Y040557*
X078903Y040452*
X078853Y040331*
X078836Y040200*
X078853Y040069*
X078903Y039948*
X078983Y039843*
X079088Y039763*
X079175Y039727*
Y039673*
X079088Y039637*
X078983Y039557*
X078903Y039452*
X078853Y039331*
X078836Y039200*
X078853Y039069*
X078873Y039021*
X077667Y037815*
X077623Y037749*
X077607Y037671*
Y036048*
X077557Y036039*
X077552Y036051*
X077504Y036114*
X077441Y036162*
X077368Y036192*
X077290Y036203*
X077212Y036192*
X077139Y036162*
X077076Y036114*
X077028Y036051*
X076998Y035978*
X076987Y035900*
X076998Y035822*
X077028Y035749*
X077076Y035686*
X077137Y035639*
Y031978*
X077038Y031937*
X076933Y031857*
X076853Y031752*
X076843Y031727*
X076793Y031737*
Y036389*
X076854Y036436*
X076902Y036499*
X076932Y036572*
X076943Y036650*
X076932Y036728*
X076902Y036801*
X076854Y036864*
X076791Y036912*
X076718Y036942*
X076640Y036953*
X076562Y036942*
X076489Y036912*
X076426Y036864*
X076378Y036801*
X076348Y036728*
X076337Y036650*
X076348Y036572*
X076378Y036499*
X076426Y036436*
X076487Y036389*
Y030150*
X076499Y030091*
X076532Y030042*
X076844Y029730*
X076803Y029631*
X076786Y029500*
X076803Y029369*
X076853Y029248*
X076933Y029143*
X077038Y029063*
X077125Y029027*
Y028973*
X077060Y028946*
X076243Y029763*
Y034839*
X076304Y034886*
X076352Y034949*
X076382Y035022*
X076393Y035100*
X076382Y035178*
X076352Y035251*
X076304Y035314*
X076241Y035362*
X076168Y035392*
X076090Y035403*
X076012Y035392*
X075939Y035362*
X075876Y035314*
X075828Y035251*
X075798Y035178*
X075787Y035100*
X075798Y035022*
X075828Y034949*
X075876Y034886*
X075937Y034839*
Y029700*
X075949Y029641*
X075982Y029592*
X076844Y028730*
X076803Y028631*
X076786Y028500*
X076803Y028369*
X076853Y028248*
X076933Y028143*
X077038Y028063*
X077125Y028027*
Y027973*
X077038Y027937*
X076933Y027857*
X076853Y027752*
X076803Y027631*
X076786Y027500*
X076803Y027369*
X076853Y027248*
X076933Y027143*
X077038Y027063*
X077125Y027027*
Y026973*
X077038Y026937*
X076933Y026857*
X076853Y026752*
X076803Y026631*
X076786Y026500*
X076803Y026369*
X076853Y026248*
X076933Y026143*
X077038Y026063*
X077125Y026027*
Y025973*
X077038Y025937*
X076933Y025857*
X076853Y025752*
X076803Y025631*
X076786Y025500*
X076803Y025369*
X076853Y025248*
X076933Y025143*
X077038Y025063*
X077125Y025027*
Y024973*
X077038Y024937*
X076933Y024857*
X076853Y024752*
X076803Y024631*
X076786Y024500*
X076803Y024369*
X076853Y024248*
X076933Y024143*
X077038Y024063*
X077125Y024027*
Y023973*
X077038Y023937*
X076933Y023857*
X076853Y023752*
X076803Y023631*
X076792Y023550*
X077290*
X077788*
X077777Y023631*
X077727Y023752*
X077647Y023857*
X077542Y023937*
X077455Y023973*
Y024027*
X077542Y024063*
X077647Y024143*
X077727Y024248*
X077777Y024369*
X077794Y024500*
X077777Y024631*
X077727Y024752*
X077647Y024857*
X077542Y024937*
X077455Y024973*
Y025027*
X077542Y025063*
X077647Y025143*
X077727Y025248*
X077777Y025369*
X077794Y025500*
X077777Y025631*
X077727Y025752*
X077647Y025857*
X077542Y025937*
X077455Y025973*
Y026027*
X077542Y026063*
X077647Y026143*
X077727Y026248*
X077777Y026369*
X077794Y026500*
X077777Y026631*
X077727Y026752*
X077647Y026857*
X077542Y026937*
X077455Y026973*
Y027027*
X077542Y027063*
X077647Y027143*
X077727Y027248*
X077777Y027369*
X077794Y027500*
X077777Y027631*
X077727Y027752*
X077647Y027857*
X077542Y027937*
X077455Y027973*
Y028027*
X077542Y028063*
X077647Y028143*
X077727Y028248*
X077777Y028369*
X077794Y028500*
X077777Y028631*
X077727Y028752*
X077647Y028857*
X077542Y028937*
X077455Y028973*
Y029027*
X077542Y029063*
X077647Y029143*
X077727Y029248*
X077777Y029369*
X077794Y029500*
X077777Y029631*
X077727Y029752*
X077647Y029857*
X077542Y029937*
X077455Y029973*
Y030027*
X077542Y030063*
X077647Y030143*
X077727Y030248*
X077777Y030369*
X077794Y030500*
X077777Y030631*
X077727Y030752*
X077647Y030857*
X077542Y030937*
X077455Y030973*
Y031027*
X077542Y031063*
X077647Y031143*
X077727Y031248*
X077777Y031369*
X077794Y031500*
X077777Y031631*
X077727Y031752*
X077647Y031857*
X077542Y031937*
X077443Y031978*
Y035639*
X077504Y035686*
X077552Y035749*
X077557Y035761*
X077607Y035752*
Y033629*
X077623Y033551*
X077667Y033485*
X078286Y032866*
Y031572*
X078276Y031564*
X078228Y031501*
X078198Y031428*
X078187Y031350*
X078198Y031272*
X078228Y031199*
X078276Y031136*
X078339Y031088*
X078412Y031058*
X078490Y031047*
X078568Y031058*
X078641Y031088*
X078704Y031136*
X078752Y031199*
X078782Y031272*
X078793Y031350*
X078782Y031428*
X078752Y031501*
X078704Y031564*
X078694Y031572*
Y032950*
X078678Y033028*
X078634Y033094*
X078337Y033392*
X078359Y033436*
X078405Y033430*
X078534Y033447*
X078654Y033497*
X078757Y033576*
X078836Y033679*
X078886Y033799*
X078896Y033875*
X078948Y033889*
X078983Y033843*
X079088Y033763*
X079175Y033727*
Y033673*
X079088Y033637*
X078983Y033557*
X078903Y033452*
X078853Y033331*
X078836Y033200*
X078853Y033069*
X078903Y032948*
X078983Y032843*
X079088Y032763*
X079175Y032727*
Y032673*
X079088Y032637*
X078983Y032557*
X078903Y032452*
X078853Y032331*
X078836Y032200*
X078853Y032069*
X078903Y031948*
X078983Y031843*
X079088Y031763*
X079175Y031727*
Y031673*
X079088Y031637*
X078983Y031557*
X078903Y031452*
X078853Y031331*
X078836Y031200*
X078853Y031069*
X078903Y030948*
X078983Y030843*
X079088Y030763*
X079175Y030727*
Y030673*
X079088Y030637*
X078983Y030557*
X078903Y030452*
X078853Y030331*
X078836Y030200*
X078853Y030069*
X078903Y029948*
X078983Y029843*
X079088Y029763*
X079175Y029727*
Y029673*
X079088Y029637*
X078983Y029557*
X078903Y029452*
X078853Y029331*
X078836Y029200*
X078853Y029069*
X078903Y028948*
X078983Y028843*
X079088Y028763*
X079175Y028727*
Y028673*
X079088Y028637*
X078983Y028557*
X078903Y028452*
X078853Y028331*
X078836Y028200*
X078853Y028069*
X078903Y027948*
X078983Y027843*
X079088Y027763*
X079175Y027727*
Y027673*
X079088Y027637*
X078983Y027557*
X078903Y027452*
X078853Y027331*
X078836Y027200*
X078853Y027069*
X078903Y026948*
X078983Y026843*
X079088Y026763*
X079175Y026727*
Y026673*
X079088Y026637*
X078983Y026557*
X078903Y026452*
X078853Y026331*
X078836Y026200*
X078853Y026069*
X078903Y025948*
X078983Y025843*
X079088Y025763*
X079175Y025727*
Y025673*
X079088Y025637*
X078983Y025557*
X078903Y025452*
X078853Y025331*
X078836Y025200*
X078853Y025069*
X078903Y024948*
X078983Y024843*
X079088Y024763*
X079175Y024727*
Y024673*
X079088Y024637*
X078983Y024557*
X078903Y024452*
X078853Y024331*
X078836Y024200*
X078853Y024069*
X078903Y023948*
X078983Y023843*
X079088Y023763*
X079175Y023727*
Y023673*
X079088Y023637*
X078983Y023557*
X078903Y023452*
X078853Y023331*
X078836Y023200*
X078853Y023069*
X078903Y022948*
X078983Y022843*
X079088Y022763*
X079175Y022727*
Y022673*
X079088Y022637*
X078983Y022557*
X078903Y022452*
X078853Y022331*
X078836Y022200*
X078853Y022069*
X078903Y021948*
X078983Y021843*
X079088Y021763*
X079175Y021727*
Y021673*
X079088Y021637*
X078983Y021557*
X078903Y021452*
X078853Y021331*
X078836Y021200*
X078853Y021069*
X078903Y020948*
X078983Y020843*
X079088Y020763*
X079175Y020727*
Y020673*
X079088Y020637*
X078983Y020557*
X078903Y020452*
X078853Y020331*
X078836Y020200*
X078853Y020069*
X078903Y019948*
X078983Y019843*
X079088Y019763*
X079175Y019727*
Y019673*
X079088Y019637*
X078983Y019557*
X078903Y019452*
X078853Y019331*
X078836Y019200*
X078853Y019069*
X078903Y018948*
X078983Y018843*
X079088Y018763*
X079175Y018727*
Y018673*
X079088Y018637*
X078983Y018557*
X078903Y018452*
X078853Y018331*
X078836Y018200*
X078853Y018069*
X078903Y017948*
X078983Y017843*
X079088Y017763*
X079175Y017727*
Y017673*
X079088Y017637*
X078983Y017557*
X078903Y017452*
X078853Y017331*
X078836Y017200*
X078853Y017069*
X078903Y016948*
X078983Y016843*
X079088Y016763*
X079175Y016727*
Y016673*
X079088Y016637*
X078983Y016557*
X078903Y016452*
X078853Y016331*
X078836Y016200*
X078853Y016069*
X078903Y015948*
X078983Y015843*
X079088Y015763*
X079120Y015750*
X079110Y015700*
X078840*
Y014700*
X079840*
Y014970*
X079890Y014980*
X079903Y014948*
X079983Y014843*
X080088Y014763*
X080209Y014713*
X080340Y014696*
X080471Y014713*
X080592Y014763*
X080697Y014843*
X080777Y014948*
X080827Y015069*
X080844Y015200*
X080827Y015331*
X080777Y015452*
X080697Y015557*
X080592Y015637*
X080505Y015673*
Y015727*
X080592Y015763*
X080697Y015843*
X080777Y015948*
X080813Y016035*
X080867*
X080903Y015948*
X080983Y015843*
X081088Y015763*
X081209Y015713*
X081340Y015696*
X081471Y015713*
X081592Y015763*
X081697Y015843*
X081777Y015948*
X081813Y016035*
X081867*
X081903Y015948*
X081983Y015843*
X082088Y015763*
X082175Y015727*
Y015673*
X082088Y015637*
X081983Y015557*
X081903Y015452*
X081853Y015331*
X081836Y015200*
X081853Y015069*
X081903Y014948*
X081983Y014843*
X082088Y014763*
X082209Y014713*
X082340Y014696*
X082471Y014713*
X082592Y014763*
X082697Y014843*
X082777Y014948*
X082827Y015069*
X082844Y015200*
X082827Y015331*
X082777Y015452*
X082697Y015557*
X082592Y015637*
X082505Y015673*
Y015727*
X082592Y015763*
X082697Y015843*
X082777Y015948*
X082827Y016069*
X082844Y016200*
X082827Y016331*
X082777Y016452*
X082697Y016557*
X082592Y016637*
X082505Y016673*
Y016727*
X082592Y016763*
X082697Y016843*
X082777Y016948*
X082827Y017069*
X082844Y017200*
X082827Y017331*
X082777Y017452*
X082697Y017557*
X082592Y017637*
X082505Y017673*
Y017727*
X082592Y017763*
X082697Y017843*
X082777Y017948*
X082827Y018069*
X082844Y018200*
X082827Y018331*
X082777Y018452*
X082697Y018557*
X082592Y018637*
X082505Y018673*
Y018727*
X082592Y018763*
X082697Y018843*
X082777Y018948*
X082827Y019069*
X082844Y019200*
X082827Y019331*
X082777Y019452*
X082697Y019557*
X082592Y019637*
X082505Y019673*
Y019727*
X082592Y019763*
X082697Y019843*
X082777Y019948*
X082827Y020069*
X082844Y020200*
X082827Y020331*
X082777Y020452*
X082697Y020557*
X082592Y020637*
X082505Y020673*
Y020727*
X082592Y020763*
X082697Y020843*
X082777Y020948*
X082827Y021069*
X082844Y021200*
X082827Y021331*
X082777Y021452*
X082697Y021557*
X082592Y021637*
X082505Y021673*
Y021727*
X082592Y021763*
X082697Y021843*
X082777Y021948*
X082827Y022069*
X082844Y022200*
X082827Y022331*
X082777Y022452*
X082697Y022557*
X082592Y022637*
X082505Y022673*
Y022727*
X082592Y022763*
X082697Y022843*
X082777Y022948*
X082827Y023069*
X082844Y023200*
X082827Y023331*
X082777Y023452*
X082697Y023557*
X082592Y023637*
X082505Y023673*
Y023727*
X082592Y023763*
X082697Y023843*
X082777Y023948*
X082827Y024069*
X082844Y024200*
X082827Y024331*
X082777Y024452*
X082697Y024557*
X082592Y024637*
X082505Y024673*
Y024727*
X082592Y024763*
X082697Y024843*
X082777Y024948*
X082827Y025069*
X082844Y025200*
X082827Y025331*
X082777Y025452*
X082697Y025557*
X082592Y025637*
X082505Y025673*
Y025727*
X082592Y025763*
X082697Y025843*
X082777Y025948*
X082827Y026069*
X082844Y026200*
X082827Y026331*
X082777Y026452*
X082697Y026557*
X082592Y026637*
X082505Y026673*
Y026727*
X082592Y026763*
X082697Y026843*
X082777Y026948*
X082827Y027069*
X082844Y027200*
X082827Y027331*
X082777Y027452*
X082697Y027557*
X082592Y027637*
X082505Y027673*
Y027727*
X082592Y027763*
X082697Y027843*
X082777Y027948*
X082827Y028069*
X082844Y028200*
X082827Y028331*
X082777Y028452*
X082697Y028557*
X082592Y028637*
X082505Y028673*
Y028727*
X082592Y028763*
X082697Y028843*
X082777Y028948*
X082827Y029069*
X082838Y029150*
X082340*
Y029250*
X082838*
X082827Y029331*
X082777Y029452*
X082697Y029557*
X082592Y029637*
X082505Y029673*
Y029727*
X082592Y029763*
X082697Y029843*
X082777Y029948*
X082827Y030069*
X082838Y030150*
X082340*
Y030250*
X082838*
X082827Y030331*
X082777Y030452*
X082697Y030557*
X082592Y030637*
X082505Y030673*
Y030727*
X082592Y030763*
X082697Y030843*
X082777Y030948*
X082827Y031069*
X082838Y031150*
X082340*
Y031250*
X082838*
X082827Y031331*
X082777Y031452*
X082697Y031557*
X082592Y031637*
X082505Y031673*
Y031727*
X082592Y031763*
X082697Y031843*
X082777Y031948*
X082827Y032069*
X082844Y032200*
X082827Y032331*
X082777Y032452*
X082697Y032557*
X082592Y032637*
X082505Y032673*
Y032727*
X082592Y032763*
X082697Y032843*
X082777Y032948*
X082827Y033069*
X082844Y033200*
X082827Y033331*
X082777Y033452*
X082697Y033557*
X082592Y033637*
X082505Y033673*
Y033727*
X082592Y033763*
X082697Y033843*
X082777Y033948*
X082827Y034069*
X082844Y034200*
X082827Y034331*
X082777Y034452*
X082697Y034557*
X082592Y034637*
X082505Y034673*
Y034727*
X082592Y034763*
X082697Y034843*
X082777Y034948*
X082827Y035069*
X082844Y035200*
X082827Y035331*
X082777Y035452*
X082697Y035557*
X082592Y035637*
X082505Y035673*
Y035727*
X082592Y035763*
X082697Y035843*
X082777Y035948*
X082827Y036069*
X082844Y036200*
X082827Y036331*
X082777Y036452*
X082697Y036557*
X082592Y036637*
X082505Y036673*
Y036727*
X082592Y036763*
X082697Y036843*
X082777Y036948*
X082827Y037069*
X082844Y037200*
X082827Y037331*
X082777Y037452*
X082697Y037557*
X082592Y037637*
X082471Y037687*
X082340Y037704*
X082209Y037687*
X082088Y037637*
X081983Y037557*
X081903Y037452*
X081867Y037365*
X081813*
X081777Y037452*
X081697Y037557*
X081592Y037637*
X081471Y037687*
X081340Y037704*
X081209Y037687*
X081088Y037637*
X080983Y037557*
X080903Y037452*
X080867Y037365*
X080813*
X080777Y037452*
X080697Y037557*
X080592Y037637*
X080505Y037673*
Y037727*
X080592Y037763*
X080697Y037843*
X080777Y037948*
X080817Y038045*
X080871*
X080891Y037998*
X080955Y037915*
X081038Y037851*
X081136Y037810*
X081240Y037797*
X081440*
X081544Y037810*
X081642Y037851*
X081725Y037915*
X081789Y037998*
X081813Y038055*
X081867*
X081891Y037998*
X081955Y037915*
X082038Y037851*
X082136Y037810*
X082240Y037797*
X082440*
X082544Y037810*
X082642Y037851*
X082725Y037915*
X082789Y037998*
X082830Y038096*
X082843Y038200*
X082830Y038304*
X082789Y038402*
X082725Y038485*
X082642Y038549*
X082544Y038590*
X082440Y038603*
X082240*
X082136Y038590*
X082038Y038549*
X081955Y038485*
X081891Y038402*
X081867Y038345*
X081813*
X081789Y038402*
X081725Y038485*
X081642Y038549*
X081544Y038590*
X081440Y038603*
X081240*
X081136Y038590*
X081038Y038549*
X080955Y038485*
X080891Y038402*
X080871Y038355*
X080817*
X080777Y038452*
X080697Y038557*
X080592Y038637*
X080505Y038673*
Y038727*
X080592Y038763*
X080697Y038843*
X080777Y038948*
X080817Y039045*
X080871*
X080891Y038998*
X080955Y038915*
X081038Y038851*
X081136Y038810*
X081240Y038797*
X081440*
X081544Y038810*
X081642Y038851*
X081725Y038915*
X081789Y038998*
X081813Y039055*
X081867*
X081891Y038998*
X081955Y038915*
X082038Y038851*
X082136Y038810*
X082240Y038797*
X082440*
X082544Y038810*
X082642Y038851*
X082725Y038915*
X082789Y038998*
X082830Y039096*
X082843Y039200*
X082830Y039304*
X082789Y039402*
X082725Y039485*
X082642Y039549*
X082544Y039590*
X082440Y039603*
X082240*
X082136Y039590*
X082038Y039549*
X081955Y039485*
X081891Y039402*
X081867Y039345*
X081813*
X081789Y039402*
X081725Y039485*
X081642Y039549*
X081544Y039590*
X081440Y039603*
X081240*
X081136Y039590*
X081038Y039549*
X080955Y039485*
X080891Y039402*
X080871Y039355*
X080817*
X080777Y039452*
X080697Y039557*
X080592Y039637*
X080505Y039673*
Y039727*
X080592Y039763*
X080697Y039843*
X080777Y039948*
X080813Y040035*
X080867*
X080903Y039948*
X080983Y039843*
X081088Y039763*
X081209Y039713*
X081340Y039696*
X081471Y039713*
X081592Y039763*
X081697Y039843*
X081777Y039948*
X081813Y040035*
X081867*
X081903Y039948*
X081983Y039843*
X082088Y039763*
X082209Y039713*
X082340Y039696*
X082471Y039713*
X082592Y039763*
X082697Y039843*
X082777Y039948*
X082827Y040069*
X082844Y040200*
X082827Y040331*
X082777Y040452*
X082697Y040557*
X082592Y040637*
X082471Y040687*
X082340Y040704*
G37*
G36*
X064740Y044253D02*
X064662Y044242D01*
X064589Y044212*
X064526Y044164*
X064478Y044101*
X064448Y044028*
X064437Y043950*
X064448Y043872*
X064478Y043799*
X064485Y043789*
Y040814*
X064490Y040789*
X064485Y040764*
X064504Y040666*
X064560Y040583*
X064679Y040464*
Y039854*
X064672Y039845*
X064641Y039772*
X064631Y039694*
X064641Y039615*
X064672Y039542*
X064720Y039480*
X064782Y039432*
X064855Y039401*
X064934Y039391*
X065012Y039401*
X065085Y039432*
X065148Y039480*
X065196Y039542*
X065226Y039615*
X065236Y039694*
X065226Y039772*
X065196Y039845*
X065189Y039854*
Y040570*
X065169Y040667*
X065114Y040750*
X064995Y040869*
Y043789*
X065002Y043799*
X065032Y043872*
X065043Y043950*
X065032Y044028*
X065002Y044101*
X064954Y044164*
X064891Y044212*
X064818Y044242*
X064740Y044253*
G37*
G36*
X057438Y044251D02*
X057360Y044241D01*
X057287Y044210*
X057224Y044162*
X057176Y044100*
X057146Y044027*
X057136Y043948*
X057146Y043870*
X057176Y043797*
X057184Y043788*
Y036102*
X057203Y036004*
X057258Y035921*
X057946Y035233*
X057948Y035222*
X057978Y035149*
X058026Y035086*
X058089Y035038*
X058162Y035008*
X058240Y034997*
X058318Y035008*
X058391Y035038*
X058454Y035086*
X058502Y035149*
X058532Y035222*
X058543Y035300*
X058532Y035378*
X058502Y035451*
X058454Y035514*
X058391Y035562*
X058318Y035592*
X058307Y035594*
X057693Y036207*
Y039327*
X057743Y039341*
X057793Y039261*
X057904Y039131*
X058033Y039020*
X058179Y038931*
X058337Y038866*
X058503Y038826*
X058673Y038812*
X058843Y038826*
X059009Y038866*
X059166Y038931*
X059312Y039020*
X059442Y039131*
X059553Y039261*
X059642Y039406*
X059707Y039564*
X059747Y039730*
X059760Y039900*
X059747Y040070*
X059707Y040236*
X059642Y040394*
X059553Y040539*
X059442Y040669*
X059312Y040780*
X059166Y040869*
X059009Y040934*
X058843Y040974*
X058673Y040988*
X058503Y040974*
X058337Y040934*
X058179Y040869*
X058033Y040780*
X057904Y040669*
X057793Y040539*
X057743Y040459*
X057693Y040473*
Y043788*
X057700Y043797*
X057731Y043870*
X057741Y043948*
X057731Y044027*
X057700Y044100*
X057652Y044162*
X057590Y044210*
X057517Y044241*
X057438Y044251*
G37*
G36*
X070740Y037353D02*
X070662Y037342D01*
X070589Y037312*
X070526Y037264*
X070478Y037201*
X070448Y037128*
X070437Y037050*
X070448Y036972*
X070478Y036899*
X070526Y036836*
X070587Y036789*
Y034635*
X070541Y034615*
X069783Y035374*
X069793Y035450*
X069782Y035528*
X069752Y035601*
X069704Y035664*
X069641Y035712*
X069568Y035742*
X069490Y035753*
X069412Y035742*
X069339Y035712*
X069276Y035664*
X069228Y035601*
X069198Y035528*
X069187Y035450*
X069198Y035372*
X069228Y035299*
X069276Y035236*
X069339Y035188*
X069412Y035158*
X069490Y035147*
X069566Y035157*
X070387Y034337*
Y027250*
X070399Y027191*
X070432Y027142*
X070844Y026730*
X070803Y026631*
X070786Y026500*
X070803Y026369*
X070853Y026248*
X070933Y026143*
X071038Y026063*
X071125Y026027*
Y025973*
X071038Y025937*
X070933Y025857*
X070853Y025752*
X070803Y025631*
X070786Y025500*
X070803Y025369*
X070853Y025248*
X070933Y025143*
X071038Y025063*
X071125Y025027*
Y024973*
X071038Y024937*
X070933Y024857*
X070853Y024752*
X070803Y024631*
X070786Y024500*
X070803Y024369*
X070853Y024248*
X070933Y024143*
X071038Y024063*
X071125Y024027*
Y023973*
X071038Y023937*
X070933Y023857*
X070853Y023752*
X070803Y023631*
X070786Y023500*
X070803Y023369*
X070823Y023321*
X070196Y022694*
X070152Y022628*
X070136Y022550*
Y018953*
X070152Y018875*
X070196Y018809*
X070606Y018399*
X070589Y018348*
X070570Y018343*
X070562Y018342*
X070557Y018340*
X070542Y018337*
X067705Y021174*
X067715Y021250*
X067705Y021328*
X067675Y021401*
X067627Y021464*
X067564Y021512*
X067491Y021542*
X067413Y021553*
X067335Y021542*
X067262Y021512*
X067199Y021464*
X067151Y021401*
X067121Y021328*
X067110Y021250*
X067121Y021172*
X067151Y021099*
X067199Y021036*
X067262Y020988*
X067335Y020958*
X067413Y020947*
X067489Y020957*
X070344Y018102*
X070337Y018050*
X070348Y017972*
X070378Y017899*
X070426Y017836*
X070489Y017788*
X070562Y017758*
X070640Y017747*
X070718Y017758*
X070791Y017788*
X070854Y017836*
X070902Y017899*
X070932Y017972*
X070936Y017998*
X070989Y018016*
X071336Y017668*
Y014291*
X071300Y014204*
X071287Y014100*
X071300Y013996*
X071341Y013898*
X071405Y013815*
X071488Y013751*
X071537Y013730*
Y011200*
X071549Y011141*
X071582Y011092*
X072221Y010453*
X072200Y010404*
X072187Y010300*
X072200Y010196*
X072241Y010098*
X072305Y010015*
X072388Y009951*
X072486Y009910*
X072590Y009897*
X072694Y009910*
X072792Y009951*
X072875Y010015*
X072939Y010098*
X072980Y010196*
X072993Y010300*
X072980Y010404*
X072939Y010502*
X072875Y010585*
X072792Y010649*
X072694Y010690*
X072590Y010703*
X072486Y010690*
X072437Y010669*
X071843Y011263*
Y013730*
X071892Y013751*
X071975Y013815*
X072039Y013898*
X072080Y013996*
X072093Y014100*
X072080Y014204*
X072039Y014302*
X071975Y014385*
X071892Y014449*
X071794Y014490*
X071744Y014496*
Y017753*
X071728Y017831*
X071684Y017897*
X070544Y019037*
Y022466*
X070777Y022699*
X070819Y022670*
X070803Y022631*
X070786Y022500*
X070803Y022369*
X070853Y022248*
X070933Y022143*
X071038Y022063*
X071125Y022027*
Y021973*
X071038Y021937*
X070933Y021857*
X070853Y021752*
X070803Y021631*
X070792Y021550*
X071290*
X071788*
X071777Y021631*
X071727Y021752*
X071647Y021857*
X071542Y021937*
X071455Y021973*
Y022027*
X071542Y022063*
X071647Y022143*
X071727Y022248*
X071777Y022369*
X071794Y022500*
X071777Y022631*
X071727Y022752*
X071647Y022857*
X071542Y022937*
X071455Y022973*
Y023027*
X071542Y023063*
X071647Y023143*
X071727Y023248*
X071777Y023369*
X071794Y023500*
X071777Y023631*
X071727Y023752*
X071647Y023857*
X071542Y023937*
X071455Y023973*
Y024027*
X071542Y024063*
X071647Y024143*
X071727Y024248*
X071764Y024339*
X071823Y024350*
X071994Y024180*
X071953Y024081*
X071936Y023950*
X071953Y023819*
X072003Y023698*
X072083Y023593*
X072188Y023513*
X072309Y023463*
X072440Y023446*
X072571Y023463*
X072692Y023513*
X072797Y023593*
X072877Y023698*
X072927Y023819*
X072944Y023950*
X072927Y024081*
X072877Y024202*
X072797Y024307*
X072692Y024387*
X072605Y024423*
Y024477*
X072692Y024513*
X072797Y024593*
X072877Y024698*
X072927Y024819*
X072944Y024950*
X072927Y025081*
X072877Y025202*
X072797Y025307*
X072692Y025387*
X072593Y025428*
Y032939*
X072654Y032986*
X072702Y033049*
X072732Y033122*
X072743Y033200*
X072732Y033278*
X072702Y033351*
X072654Y033414*
X072591Y033462*
X072518Y033492*
X072440Y033503*
X072362Y033492*
X072289Y033462*
X072226Y033414*
X072178Y033351*
X072148Y033278*
X072137Y033200*
X072148Y033122*
X072178Y033049*
X072226Y032986*
X072287Y032939*
Y025428*
X072188Y025387*
X072093Y025314*
X072043Y025329*
Y034239*
X072104Y034286*
X072152Y034349*
X072182Y034422*
X072193Y034500*
X072182Y034578*
X072152Y034651*
X072104Y034714*
X072041Y034762*
X071968Y034792*
X071890Y034803*
X071812Y034792*
X071739Y034762*
X071676Y034714*
X071628Y034651*
X071598Y034578*
X071587Y034500*
X071598Y034422*
X071628Y034349*
X071676Y034286*
X071737Y034239*
Y031821*
X071687Y031804*
X071647Y031857*
X071542Y031937*
X071421Y031987*
X071290Y032004*
X071159Y031987*
X071038Y031937*
X070943Y031864*
X070893Y031879*
Y036789*
X070954Y036836*
X071002Y036899*
X071032Y036972*
X071043Y037050*
X071032Y037128*
X071002Y037201*
X070954Y037264*
X070891Y037312*
X070818Y037342*
X070740Y037353*
G37*
G36*
X063940Y036503D02*
X063862Y036492D01*
X063789Y036462*
X063726Y036414*
X063678Y036351*
X063648Y036278*
X063637Y036200*
X063648Y036122*
X063678Y036049*
X063726Y035986*
X063787Y035939*
Y034112*
X063594Y033919*
X063547Y033943*
X063532Y034057*
X063482Y034177*
X063403Y034280*
X063300Y034360*
X063180Y034409*
X063051Y034426*
X062922Y034409*
X062802Y034360*
X062699Y034280*
X062619Y034177*
X062570Y034057*
X062553Y033928*
X062570Y033799*
X062619Y033679*
X062699Y033576*
X062802Y033497*
X062922Y033447*
X063036Y033432*
X063060Y033385*
X061067Y031392*
X060990Y031403*
X060912Y031392*
X060839Y031362*
X060776Y031314*
X060728Y031251*
X060698Y031178*
X060687Y031100*
X060698Y031022*
X060728Y030949*
X060776Y030886*
X060837Y030839*
Y023761*
X060776Y023714*
X060728Y023651*
X060698Y023578*
X060687Y023500*
X060698Y023422*
X060728Y023349*
X060776Y023286*
X060839Y023238*
X060912Y023208*
X060990Y023197*
X061068Y023208*
X061141Y023238*
X061204Y023286*
X061252Y023349*
X061282Y023422*
X061293Y023500*
X061282Y023578*
X061252Y023651*
X061204Y023714*
X061143Y023761*
Y030839*
X061204Y030886*
X061252Y030949*
X061282Y031022*
X061293Y031100*
X061283Y031175*
X064048Y033941*
X064081Y033990*
X064093Y034049*
Y035939*
X064154Y035986*
X064202Y036049*
X064232Y036122*
X064243Y036200*
X064232Y036278*
X064202Y036351*
X064154Y036414*
X064091Y036462*
X064018Y036492*
X063940Y036503*
G37*
G36*
X065540Y035016D02*
X065370Y035003D01*
X065204Y034963*
X065046Y034897*
X064901Y034808*
X064771Y034697*
X064660Y034568*
X064571Y034422*
X064506Y034264*
X064466Y034098*
X064452Y033928*
X064466Y033758*
X064506Y033592*
X064571Y033435*
X064660Y033289*
X064771Y033159*
X064901Y033048*
X065046Y032959*
X065204Y032894*
X065370Y032854*
X065540Y032841*
X065710Y032854*
X065876Y032894*
X066034Y032959*
X066179Y033048*
X066309Y033159*
X066420Y033289*
X066509Y033435*
X066574Y033592*
X066614Y033758*
X066628Y033928*
X066614Y034098*
X066574Y034264*
X066509Y034422*
X066420Y034568*
X066309Y034697*
X066179Y034808*
X066034Y034897*
X065876Y034963*
X065710Y035003*
X065540Y035016*
G37*
G36*
X058673Y027363D02*
X058544Y027346D01*
X058424Y027297*
X058321Y027217*
X058241Y027114*
X058192Y026994*
X058175Y026865*
X058192Y026736*
X058241Y026616*
X058321Y026513*
X058424Y026434*
X058544Y026384*
X058673Y026367*
X058802Y026384*
X058922Y026434*
X059025Y026513*
X059104Y026616*
X059154Y026736*
X059171Y026865*
X059154Y026994*
X059104Y027114*
X059025Y027217*
X058922Y027297*
X058802Y027346*
X058673Y027363*
G37*
G36*
X068074Y026375D02*
X067945Y026358D01*
X067825Y026308*
X067722Y026229*
X067643Y026126*
X067593Y026006*
X067576Y025877*
X067593Y025748*
X067643Y025628*
X067722Y025525*
X067825Y025446*
X067945Y025396*
X068074Y025379*
X068203Y025396*
X068323Y025446*
X068426Y025525*
X068506Y025628*
X068555Y025748*
X068572Y025877*
X068555Y026006*
X068506Y026126*
X068426Y026229*
X068323Y026308*
X068203Y026358*
X068074Y026375*
G37*
G36*
X060090Y030803D02*
X060012Y030792D01*
X059939Y030762*
X059876Y030714*
X059828Y030651*
X059798Y030578*
X059787Y030500*
X059798Y030422*
X059828Y030349*
X059876Y030286*
X059937Y030239*
Y023411*
X059876Y023364*
X059828Y023301*
X059798Y023228*
X059787Y023150*
X059798Y023072*
X059828Y022999*
X059876Y022936*
X059939Y022888*
X060012Y022858*
X060090Y022847*
X060168Y022858*
X060241Y022888*
X060304Y022936*
X060352Y022999*
X060382Y023072*
X060393Y023150*
X060382Y023228*
X060352Y023301*
X060304Y023364*
X060243Y023411*
Y030239*
X060304Y030286*
X060352Y030349*
X060382Y030422*
X060393Y030500*
X060382Y030578*
X060352Y030651*
X060304Y030714*
X060241Y030762*
X060168Y030792*
X060090Y030803*
G37*
G36*
X063732Y022993D02*
X063603Y022976D01*
X063483Y022927*
X063380Y022847*
X063300Y022744*
X063251Y022624*
X063234Y022495*
X063251Y022366*
X063300Y022246*
X063380Y022143*
X063483Y022064*
X063603Y022014*
X063732Y021997*
X063861Y022014*
X063981Y022064*
X064084Y022143*
X064163Y022246*
X064213Y022366*
X064230Y022495*
X064213Y022624*
X064163Y022744*
X064084Y022847*
X063981Y022927*
X063861Y022976*
X063732Y022993*
G37*
G36*
X048377D02*
X048249Y022976D01*
X048128Y022927*
X048025Y022847*
X047946Y022744*
X047896Y022624*
X047879Y022495*
X047896Y022366*
X047946Y022246*
X048025Y022143*
X048128Y022064*
X048249Y022014*
X048377Y021997*
X048506Y022014*
X048626Y022064*
X048730Y022143*
X048809Y022246*
X048858Y022366*
X048875Y022495*
X048858Y022624*
X048809Y022744*
X048730Y022847*
X048626Y022927*
X048506Y022976*
X048377Y022993*
G37*
G36*
X050840Y023583D02*
X050670Y023570D01*
X050504Y023530*
X050346Y023464*
X050201Y023375*
X050071Y023264*
X049960Y023135*
X049871Y022989*
X049806Y022831*
X049766Y022665*
X049752Y022495*
X049766Y022325*
X049806Y022159*
X049871Y022002*
X049960Y021856*
X050071Y021726*
X050201Y021615*
X050346Y021526*
X050504Y021461*
X050670Y021421*
X050840Y021408*
X051010Y021421*
X051176Y021461*
X051334Y021526*
X051479Y021615*
X051609Y021726*
X051720Y021856*
X051809Y022002*
X051874Y022159*
X051914Y022325*
X051928Y022495*
X051914Y022665*
X051874Y022831*
X051809Y022989*
X051720Y023135*
X051609Y023264*
X051479Y023375*
X051334Y023464*
X051176Y023530*
X051010Y023570*
X050840Y023583*
G37*
G36*
X077788Y023450D02*
X077290D01*
X076792*
X076803Y023369*
X076853Y023248*
X076933Y023143*
X077038Y023063*
X077125Y023027*
Y022973*
X077038Y022937*
X076933Y022857*
X076853Y022752*
X076803Y022631*
X076786Y022500*
X076803Y022369*
X076853Y022248*
X076933Y022143*
X077038Y022063*
X077125Y022027*
Y021973*
X077038Y021937*
X076933Y021857*
X076853Y021752*
X076803Y021631*
X076786Y021500*
X076803Y021369*
X076853Y021248*
X076933Y021143*
X077038Y021063*
X077125Y021027*
Y020973*
X077038Y020937*
X076933Y020857*
X076853Y020752*
X076803Y020631*
X076786Y020500*
X076803Y020369*
X076853Y020248*
X076933Y020143*
X077038Y020063*
X077159Y020013*
X077290Y019996*
X077421Y020013*
X077542Y020063*
X077647Y020143*
X077727Y020248*
X077777Y020369*
X077794Y020500*
X077777Y020631*
X077727Y020752*
X077647Y020857*
X077542Y020937*
X077455Y020973*
Y021027*
X077542Y021063*
X077647Y021143*
X077727Y021248*
X077777Y021369*
X077794Y021500*
X077777Y021631*
X077727Y021752*
X077647Y021857*
X077542Y021937*
X077455Y021973*
Y022027*
X077542Y022063*
X077647Y022143*
X077727Y022248*
X077777Y022369*
X077794Y022500*
X077777Y022631*
X077727Y022752*
X077647Y022857*
X077542Y022937*
X077455Y022973*
Y023027*
X077542Y023063*
X077647Y023143*
X077727Y023248*
X077777Y023369*
X077788Y023450*
G37*
G36*
X071788Y021450D02*
X071290D01*
X070792*
X070803Y021369*
X070853Y021248*
X070933Y021143*
X071038Y021063*
X071125Y021027*
Y020973*
X071038Y020937*
X070933Y020857*
X070853Y020752*
X070803Y020631*
X070786Y020500*
X070803Y020369*
X070853Y020248*
X070933Y020143*
X071038Y020063*
X071159Y020013*
X071290Y019996*
X071421Y020013*
X071542Y020063*
X071647Y020143*
X071727Y020248*
X071777Y020369*
X071794Y020500*
X071777Y020631*
X071727Y020752*
X071647Y020857*
X071542Y020937*
X071455Y020973*
Y021027*
X071542Y021063*
X071647Y021143*
X071727Y021248*
X071777Y021369*
X071788Y021450*
G37*
G36*
X075790Y020004D02*
X075659Y019987D01*
X075538Y019937*
X075433Y019857*
X075353Y019752*
X075317Y019665*
X075263*
X075227Y019752*
X075147Y019857*
X075042Y019937*
X074921Y019987*
X074790Y020004*
X074659Y019987*
X074538Y019937*
X074433Y019857*
X074353Y019752*
X074317Y019665*
X074263*
X074227Y019752*
X074147Y019857*
X074042Y019937*
X073921Y019987*
X073790Y020004*
X073659Y019987*
X073538Y019937*
X073433Y019857*
X073353Y019752*
X073317Y019665*
X073263*
X073227Y019752*
X073147Y019857*
X073042Y019937*
X072921Y019987*
X072790Y020004*
X072659Y019987*
X072538Y019937*
X072433Y019857*
X072353Y019752*
X072317Y019665*
X072263*
X072227Y019752*
X072147Y019857*
X072042Y019937*
X071921Y019987*
X071790Y020004*
X071659Y019987*
X071538Y019937*
X071433Y019857*
X071353Y019752*
X071303Y019631*
X071286Y019500*
X071303Y019369*
X071353Y019248*
X071433Y019143*
X071538Y019063*
X071659Y019013*
X071790Y018996*
X071849Y019004*
X071887Y018971*
Y015600*
X071899Y015541*
X071932Y015492*
X072976Y014448*
X072943Y014410*
X072892Y014449*
X072794Y014490*
X072740Y014497*
Y014150*
X073087*
X073080Y014204*
X073039Y014302*
X073000Y014353*
X073038Y014386*
X074032Y013391*
X074002Y013317*
X073986Y013200*
X074002Y013083*
X074047Y012973*
X074119Y012879*
X074213Y012807*
X074323Y012762*
X074440Y012746*
X074557Y012762*
X074667Y012807*
X074761Y012879*
X074833Y012973*
X074878Y013083*
X074894Y013200*
X074878Y013317*
X074833Y013427*
X074761Y013521*
X074667Y013593*
X074557Y013638*
X074440Y013654*
X074323Y013638*
X074249Y013608*
X072193Y015663*
Y019204*
X072227Y019248*
X072263Y019335*
X072317*
X072353Y019248*
X072433Y019143*
X072538Y019063*
X072637Y019022*
Y015850*
X072649Y015791*
X072682Y015742*
X075032Y013391*
X075002Y013317*
X074986Y013200*
X075002Y013083*
X075047Y012973*
X075119Y012879*
X075213Y012807*
X075323Y012762*
X075440Y012746*
X075557Y012762*
X075667Y012807*
X075761Y012879*
X075833Y012973*
X075878Y013083*
X075894Y013200*
X075878Y013317*
X075833Y013427*
X075761Y013521*
X075667Y013593*
X075557Y013638*
X075440Y013654*
X075323Y013638*
X075249Y013608*
X072943Y015913*
Y019022*
X073042Y019063*
X073147Y019143*
X073227Y019248*
X073263Y019335*
X073317*
X073353Y019248*
X073433Y019143*
X073538Y019063*
X073637Y019022*
Y015850*
X073649Y015791*
X073682Y015742*
X076032Y013391*
X076002Y013317*
X075986Y013200*
X076002Y013083*
X076047Y012973*
X076119Y012879*
X076213Y012807*
X076323Y012762*
X076440Y012746*
X076557Y012762*
X076667Y012807*
X076761Y012879*
X076833Y012973*
X076878Y013083*
X076894Y013200*
X076878Y013317*
X076833Y013427*
X076761Y013521*
X076667Y013593*
X076557Y013638*
X076440Y013654*
X076323Y013638*
X076249Y013608*
X073943Y015913*
Y019022*
X074042Y019063*
X074147Y019143*
X074227Y019248*
X074263Y019335*
X074317*
X074353Y019248*
X074433Y019143*
X074538Y019063*
X074637Y019022*
Y015850*
X074649Y015791*
X074682Y015742*
X077032Y013391*
X077002Y013317*
X076986Y013200*
X077002Y013083*
X077047Y012973*
X077119Y012879*
X077213Y012807*
X077323Y012762*
X077440Y012746*
X077557Y012762*
X077667Y012807*
X077761Y012879*
X077833Y012973*
X077878Y013083*
X077894Y013200*
X077878Y013317*
X077833Y013427*
X077761Y013521*
X077667Y013593*
X077557Y013638*
X077440Y013654*
X077323Y013638*
X077249Y013608*
X074943Y015913*
Y019022*
X075042Y019063*
X075147Y019143*
X075227Y019248*
X075263Y019335*
X075317*
X075353Y019248*
X075433Y019143*
X075538Y019063*
X075637Y019022*
Y015850*
X075649Y015791*
X075682Y015742*
X078032Y013391*
X078002Y013317*
X077986Y013200*
X078002Y013083*
X078047Y012973*
X078119Y012879*
X078213Y012807*
X078323Y012762*
X078440Y012746*
X078557Y012762*
X078667Y012807*
X078761Y012879*
X078833Y012973*
X078878Y013083*
X078894Y013200*
X078878Y013317*
X078833Y013427*
X078761Y013521*
X078667Y013593*
X078557Y013638*
X078440Y013654*
X078323Y013638*
X078249Y013608*
X075943Y015913*
Y019022*
X076042Y019063*
X076147Y019143*
X076227Y019248*
X076263Y019335*
X076317*
X076353Y019248*
X076433Y019143*
X076538Y019063*
X076637Y019022*
Y015850*
X076649Y015791*
X076682Y015742*
X078990Y013434*
Y013250*
X079390*
Y013650*
X079206*
X076943Y015913*
Y019022*
X077042Y019063*
X077147Y019143*
X077227Y019248*
X077277Y019369*
X077288Y019450*
X076790*
Y019500*
X076740*
Y019998*
X076659Y019987*
X076538Y019937*
X076433Y019857*
X076353Y019752*
X076317Y019665*
X076263*
X076227Y019752*
X076147Y019857*
X076042Y019937*
X075921Y019987*
X075790Y020004*
G37*
G36*
X076840Y019998D02*
Y019550D01*
X077288*
X077277Y019631*
X077227Y019752*
X077147Y019857*
X077042Y019937*
X076921Y019987*
X076840Y019998*
G37*
G36*
X065340Y024803D02*
X065262Y024792D01*
X065189Y024762*
X065126Y024714*
X065078Y024651*
X065048Y024578*
X065037Y024500*
X065048Y024422*
X065078Y024349*
X065126Y024286*
X065187Y024239*
Y019211*
X065126Y019164*
X065078Y019101*
X065048Y019028*
X065037Y018950*
X065048Y018872*
X065078Y018799*
X065126Y018736*
X065189Y018688*
X065262Y018658*
X065340Y018647*
X065418Y018658*
X065491Y018688*
X065554Y018736*
X065602Y018799*
X065632Y018872*
X065643Y018950*
X065632Y019028*
X065602Y019101*
X065554Y019164*
X065493Y019211*
Y024239*
X065554Y024286*
X065602Y024349*
X065632Y024422*
X065643Y024500*
X065632Y024578*
X065602Y024651*
X065554Y024714*
X065491Y024762*
X065418Y024792*
X065340Y024803*
G37*
G36*
X068740Y016803D02*
X068662Y016792D01*
X068589Y016762*
X068579Y016755*
X064501*
X064491Y016762*
X064418Y016792*
X064340Y016803*
X064262Y016792*
X064189Y016762*
X064126Y016714*
X064078Y016651*
X064048Y016578*
X064037Y016500*
X064048Y016422*
X064078Y016349*
X064126Y016286*
X064189Y016238*
X064262Y016208*
X064340Y016197*
X064418Y016208*
X064491Y016238*
X064501Y016245*
X068579*
X068589Y016238*
X068662Y016208*
X068740Y016197*
X068818Y016208*
X068891Y016238*
X068954Y016286*
X069002Y016349*
X069032Y016422*
X069043Y016500*
X069032Y016578*
X069002Y016651*
X068954Y016714*
X068891Y016762*
X068818Y016792*
X068740Y016803*
G37*
G36*
X057890Y021603D02*
X057812Y021592D01*
X057739Y021562*
X057676Y021514*
X057628Y021451*
X057598Y021378*
X057587Y021300*
X057598Y021222*
X057628Y021149*
X057635Y021139*
Y016661*
X057628Y016651*
X057598Y016578*
X057587Y016500*
X057598Y016422*
X057628Y016349*
X057676Y016286*
X057739Y016238*
X057812Y016208*
X057890Y016197*
X057968Y016208*
X058041Y016238*
X058104Y016286*
X058152Y016349*
X058182Y016422*
X058193Y016500*
X058182Y016578*
X058152Y016651*
X058145Y016661*
Y021139*
X058152Y021149*
X058182Y021222*
X058193Y021300*
X058182Y021378*
X058152Y021451*
X058104Y021514*
X058041Y021562*
X057968Y021592*
X057890Y021603*
G37*
G36*
X081740Y015600D02*
X080940D01*
Y014800*
X081740*
Y015600*
G37*
G36*
X072640Y014497D02*
X072586Y014490D01*
X072488Y014449*
X072405Y014385*
X072341Y014302*
X072300Y014204*
X072293Y014150*
X072640*
Y014497*
G37*
G36*
X073087Y014050D02*
X072740D01*
Y013703*
X072794Y013710*
X072892Y013751*
X072975Y013815*
X073039Y013898*
X073080Y013996*
X073087Y014050*
G37*
G36*
X072640D02*
X072293D01*
X072300Y013996*
X072341Y013898*
X072405Y013815*
X072488Y013751*
X072586Y013710*
X072640Y013703*
Y014050*
G37*
G36*
X064590Y025053D02*
X064512Y025042D01*
X064439Y025012*
X064376Y024964*
X064328Y024901*
X064298Y024828*
X064287Y024750*
X064298Y024672*
X064328Y024599*
X064376Y024536*
X064437Y024489*
Y018650*
X064449Y018591*
X064482Y018542*
X065982Y017042*
X066031Y017009*
X066090Y016997*
X069829*
X069876Y016936*
X069939Y016888*
X069965Y016877*
Y016823*
X069939Y016812*
X069876Y016764*
X069828Y016701*
X069798Y016628*
X069787Y016550*
X069798Y016472*
X069828Y016399*
X069876Y016336*
X069937Y016289*
Y012863*
X069743Y012670*
X069694Y012690*
X069590Y012703*
X069486Y012690*
X069388Y012649*
X069305Y012585*
X069241Y012502*
X069200Y012404*
X069187Y012300*
X069200Y012196*
X069241Y012098*
X069305Y012015*
X069388Y011951*
X069486Y011910*
X069590Y011897*
X069694Y011910*
X069792Y011951*
X069875Y012015*
X069939Y012098*
X069980Y012196*
X069993Y012300*
X069980Y012404*
X069960Y012453*
X070198Y012692*
X070231Y012741*
X070243Y012800*
Y014048*
X070293Y014051*
X070300Y013996*
X070341Y013898*
X070405Y013815*
X070488Y013751*
X070586Y013710*
X070690Y013697*
X070794Y013710*
X070892Y013751*
X070975Y013815*
X071039Y013898*
X071080Y013996*
X071093Y014100*
X071080Y014204*
X071039Y014302*
X070975Y014385*
X070892Y014449*
X070794Y014490*
X070690Y014503*
X070586Y014490*
X070488Y014449*
X070405Y014385*
X070341Y014302*
X070300Y014204*
X070293Y014149*
X070243Y014152*
Y016289*
X070304Y016336*
X070352Y016399*
X070382Y016472*
X070393Y016550*
X070382Y016628*
X070352Y016701*
X070304Y016764*
X070241Y016812*
X070215Y016823*
Y016877*
X070241Y016888*
X070304Y016936*
X070352Y016999*
X070382Y017072*
X070393Y017150*
X070382Y017228*
X070352Y017301*
X070304Y017364*
X070290Y017375*
Y017425*
X070304Y017436*
X070352Y017499*
X070382Y017572*
X070393Y017650*
X070382Y017728*
X070352Y017801*
X070304Y017864*
X070241Y017912*
X070168Y017942*
X070090Y017953*
X070012Y017942*
X069939Y017912*
X069876Y017864*
X069829Y017803*
X067751*
X067704Y017864*
X067641Y017912*
X067568Y017942*
X067490Y017953*
X067412Y017942*
X067339Y017912*
X067276Y017864*
X067228Y017801*
X067198Y017728*
X067187Y017650*
X067198Y017572*
X067228Y017499*
X067276Y017436*
X067339Y017388*
X067412Y017358*
X067448Y017353*
X067445Y017303*
X066153*
X064743Y018713*
Y024489*
X064804Y024536*
X064852Y024599*
X064882Y024672*
X064893Y024750*
X064882Y024828*
X064852Y024901*
X064804Y024964*
X064741Y025012*
X064668Y025042*
X064590Y025053*
G37*
G36*
X079890Y013650D02*
X079490D01*
Y013250*
X079890*
Y013650*
G37*
G36*
X064940Y013789D02*
X064852Y013778D01*
X064770Y013744*
X064700Y013690*
X064646Y013620*
X064612Y013538*
X064601Y013450*
X064612Y013362*
X064646Y013280*
X064700Y013210*
X064770Y013156*
X064852Y013122*
X064940Y013111*
X065028Y013122*
X065110Y013156*
X065180Y013210*
X065234Y013280*
X065268Y013362*
X065279Y013450*
X065268Y013538*
X065234Y013620*
X065180Y013690*
X065110Y013744*
X065028Y013778*
X064940Y013789*
G37*
G36*
X079890Y013150D02*
X079490D01*
Y012750*
X079890*
Y013150*
G37*
G36*
X079390D02*
X078990D01*
Y012750*
X079390*
Y013150*
G37*
G36*
X064990Y012956D02*
Y012673D01*
X065273*
X065268Y012711*
X065234Y012793*
X065180Y012863*
X065110Y012917*
X065028Y012951*
X064990Y012956*
G37*
G36*
X062940Y012789D02*
X062852Y012778D01*
X062770Y012744*
X062700Y012690*
X062646Y012620*
X062612Y012538*
X062601Y012450*
X062612Y012362*
X062646Y012280*
X062700Y012210*
X062770Y012156*
X062852Y012122*
X062940Y012111*
X063028Y012122*
X063110Y012156*
X063180Y012210*
X063234Y012280*
X063268Y012362*
X063279Y012450*
X063268Y012538*
X063234Y012620*
X063180Y012690*
X063110Y012744*
X063028Y012778*
X062940Y012789*
G37*
G36*
X072590Y012703D02*
X072486Y012690D01*
X072388Y012649*
X072305Y012585*
X072241Y012502*
X072200Y012404*
X072187Y012300*
X072200Y012196*
X072241Y012098*
X072305Y012015*
X072388Y011951*
X072486Y011910*
X072590Y011897*
X072694Y011910*
X072792Y011951*
X072875Y012015*
X072939Y012098*
X072980Y012196*
X072993Y012300*
X072980Y012404*
X072939Y012502*
X072875Y012585*
X072792Y012649*
X072694Y012690*
X072590Y012703*
G37*
G36*
X068074Y013937D02*
X067904Y013924D01*
X067738Y013884*
X067580Y013819*
X067435Y013729*
X067305Y013619*
X067194Y013489*
X067105Y013343*
X067040Y013186*
X067000Y013020*
X066987Y012850*
X067000Y012679*
X067040Y012514*
X067105Y012356*
X067194Y012210*
X067305Y012081*
X067435Y011970*
X067580Y011881*
X067738Y011815*
X067904Y011775*
X068074Y011762*
X068244Y011775*
X068410Y011815*
X068568Y011881*
X068714Y011970*
X068843Y012081*
X068954Y012210*
X069043Y012356*
X069109Y012514*
X069148Y012679*
X069162Y012850*
X069148Y013020*
X069109Y013186*
X069043Y013343*
X068954Y013489*
X068843Y013619*
X068714Y013729*
X068568Y013819*
X068410Y013884*
X068244Y013924*
X068074Y013937*
G37*
G36*
X062890Y028803D02*
X062812Y028792D01*
X062739Y028762*
X062676Y028714*
X062628Y028651*
X062598Y028578*
X062587Y028500*
X062598Y028422*
X062628Y028349*
X062676Y028286*
X062737Y028239*
Y014100*
X062749Y014041*
X062782Y013992*
X064697Y012076*
X064687Y012000*
X064698Y011922*
X064728Y011849*
X064776Y011786*
X064839Y011738*
X064912Y011708*
X064990Y011697*
X065068Y011708*
X065141Y011738*
X065204Y011786*
X065252Y011849*
X065282Y011922*
X065293Y012000*
X065282Y012078*
X065252Y012151*
X065204Y012214*
X065141Y012262*
X065109Y012275*
Y012329*
X065110Y012330*
X065180Y012383*
X065234Y012454*
X065268Y012535*
X065273Y012573*
X064940*
Y012623*
X064890*
Y012956*
X064852Y012951*
X064770Y012917*
X064700Y012863*
X064646Y012793*
X064612Y012711*
X064607Y012670*
X064554Y012652*
X063043Y014163*
Y028239*
X063104Y028286*
X063152Y028349*
X063182Y028422*
X063193Y028500*
X063182Y028578*
X063152Y028651*
X063104Y028714*
X063041Y028762*
X062968Y028792*
X062890Y028803*
G37*
G36*
X062990Y011956D02*
Y011673D01*
X063273*
X063268Y011711*
X063234Y011793*
X063180Y011863*
X063110Y011917*
X063028Y011951*
X062990Y011956*
G37*
G36*
X062890D02*
X062852Y011951D01*
X062770Y011917*
X062700Y011863*
X062646Y011793*
X062612Y011711*
X062607Y011673*
X062890*
Y011956*
G37*
G36*
X063273Y011573D02*
X062990D01*
Y011291*
X063028Y011296*
X063110Y011330*
X063180Y011383*
X063234Y011454*
X063268Y011535*
X063273Y011573*
G37*
G36*
X062890D02*
X062607D01*
X062612Y011535*
X062646Y011454*
X062700Y011383*
X062770Y011330*
X062852Y011296*
X062890Y011291*
Y011573*
G37*
G36*
X064940Y011639D02*
X064852Y011628D01*
X064770Y011594*
X064700Y011540*
X064646Y011470*
X064612Y011388*
X064601Y011300*
X064612Y011212*
X064646Y011130*
X064700Y011060*
X064770Y011006*
X064852Y010972*
X064940Y010961*
X065028Y010972*
X065110Y011006*
X065180Y011060*
X065234Y011130*
X065268Y011212*
X065279Y011300*
X065268Y011388*
X065234Y011470*
X065180Y011540*
X065110Y011594*
X065028Y011628*
X064940Y011639*
G37*
G36*
X064990Y010806D02*
Y010523D01*
X065273*
X065268Y010561*
X065234Y010643*
X065180Y010713*
X065110Y010767*
X065028Y010801*
X064990Y010806*
G37*
G36*
X064890D02*
X064852Y010801D01*
X064770Y010767*
X064700Y010713*
X064646Y010643*
X064612Y010561*
X064607Y010523*
X064890*
Y010806*
G37*
G36*
X065273Y010423D02*
X064990D01*
Y010141*
X065028Y010146*
X065110Y010180*
X065180Y010233*
X065234Y010304*
X065268Y010385*
X065273Y010423*
G37*
G36*
X064890D02*
X064607D01*
X064612Y010385*
X064646Y010304*
X064700Y010233*
X064770Y010180*
X064852Y010146*
X064890Y010141*
Y010423*
G37*
G36*
X068074Y011021D02*
X067945Y011004D01*
X067825Y010954*
X067722Y010875*
X067643Y010772*
X067593Y010652*
X067576Y010523*
X067593Y010394*
X067643Y010274*
X067722Y010171*
X067825Y010092*
X067945Y010042*
X068074Y010025*
X068203Y010042*
X068323Y010092*
X068426Y010171*
X068506Y010274*
X068555Y010394*
X068572Y010523*
X068555Y010652*
X068506Y010772*
X068426Y010875*
X068323Y010954*
X068203Y011004*
X068074Y011021*
G37*
G36*
X069590Y010703D02*
X069486Y010690D01*
X069388Y010649*
X069305Y010585*
X069241Y010502*
X069200Y010404*
X069187Y010300*
X069200Y010196*
X069241Y010098*
X069305Y010015*
X069388Y009951*
X069486Y009910*
X069590Y009897*
X069694Y009910*
X069792Y009951*
X069875Y010015*
X069939Y010098*
X069980Y010196*
X069993Y010300*
X069980Y010404*
X069939Y010502*
X069875Y010585*
X069792Y010649*
X069694Y010690*
X069590Y010703*
G37*
%LNrwsv3-3*%
%LPD*%
G54D18*
X070740Y028050D02*
Y037050D01*
Y028050D02*
X071290Y027500D01*
X069490Y035450D02*
X070540Y034400D01*
Y027250D02*
Y034400D01*
X071890Y024500D02*
Y034500D01*
X063940Y034049D02*
Y036200D01*
X060991Y031100D02*
X063940Y034049D01*
X069590Y012300D02*
X070090Y012800D01*
Y016550*
X062890Y014100D02*
X064990Y012000D01*
X062890Y014100D02*
Y028500D01*
X071890Y024500D02*
X072440Y023950D01*
Y024950D02*
Y033200D01*
X060990Y031100D02*
X060991D01*
X060990Y023500D02*
Y031100D01*
X064590Y018650D02*
X066090Y017150D01*
X064590Y018650D02*
Y024750D01*
X066090Y017150D02*
X070090D01*
X065340Y018950D02*
Y024500D01*
X076090Y029700D02*
Y035100D01*
Y029700D02*
X077290Y028500D01*
X076640Y030150D02*
Y036650D01*
Y030150D02*
X077290Y029500D01*
X070540Y027250D02*
X071290Y026500D01*
X060090Y023150D02*
Y030500D01*
X077290Y031500D02*
Y035900D01*
X071690Y011200D02*
X072590Y010300D01*
X071690Y011200D02*
Y014100D01*
X071790Y019500D02*
X072040Y019250D01*
Y015600D02*
Y019250D01*
Y015600D02*
X074440Y013200D01*
X070613Y018050D02*
X070640D01*
X067413Y021250D02*
X070613Y018050D01*
X067490Y017650D02*
X070090D01*
X076790Y015850D02*
Y019500D01*
Y015850D02*
X079440Y013200D01*
X075790Y015850D02*
X078440Y013200D01*
X075790Y015850D02*
Y019500D01*
X074790Y015850D02*
Y019500D01*
Y015850D02*
X077440Y013200D01*
X073790Y015850D02*
X076440Y013200D01*
X073790Y015850D02*
Y019500D01*
X072790Y015850D02*
Y019500D01*
Y015850D02*
X075440Y013200D01*
G54D20*
X078490Y031350D02*
Y032950D01*
X077811Y033629D02*
X078490Y032950D01*
X077811Y033629D02*
Y037671D01*
X079340Y039200*
X070340Y018953D02*
Y022550D01*
X071540Y014250D02*
X071690Y014100D01*
X071540Y014250D02*
Y017753D01*
X070340Y018953D02*
X071540Y017753D01*
X070340Y022550D02*
X071290Y023500D01*
G54D24*
X064340Y016500D02*
X068740D01*
X057890D02*
Y021300D01*
X057438Y036102D02*
Y043948D01*
Y036102D02*
X058240Y035300D01*
X064740Y040814D02*
Y043950D01*
Y040764D02*
X064934Y040570D01*
Y039694D02*
Y040570D01*
G54D25*
X072590Y012300D03*
X069590D03*
X072590Y010300D03*
X069590D03*
X070690Y014100D03*
X071690D03*
X072690D03*
G54D26*
X081340Y015200D03*
G54D27*
X082340Y015200D03*
X081340Y016200D03*
X082340D03*
X081340Y017200D03*
X082340D03*
X081340Y018200D03*
X082340D03*
X081340Y019200D03*
X082340D03*
X081340Y020200D03*
X082340D03*
X081340Y021200D03*
X082340D03*
X081340Y022200D03*
X082340D03*
X081340Y023200D03*
X082340D03*
X081340Y024200D03*
X082340D03*
X081340Y025200D03*
X082340D03*
X081340Y026200D03*
X082340D03*
X081340Y027200D03*
X082340D03*
X081340Y028200D03*
X082340D03*
X081340Y029200D03*
X082340D03*
X081340Y030200D03*
X082340D03*
X081340Y031200D03*
X082340D03*
X081340Y032200D03*
X082340D03*
X081340Y033200D03*
X082340D03*
X081340Y034200D03*
X082340D03*
X081340Y035200D03*
X082340D03*
X081340Y036200D03*
X082340D03*
X081340Y037200D03*
X082340D03*
Y040200D03*
X081340D03*
X080340Y015200D03*
X079340Y016200D03*
X080340D03*
X079340Y017200D03*
X080340D03*
X079340Y018200D03*
X080340D03*
X079340Y019200D03*
X080340D03*
X079340Y020200D03*
X080340D03*
X079340Y021200D03*
X080340D03*
X079340Y022200D03*
X080340D03*
X079340Y023200D03*
X080340D03*
X079340Y024200D03*
X080340D03*
X079340Y025200D03*
X080340D03*
X079340Y026200D03*
X080340D03*
X079340Y027200D03*
X080340D03*
X079340Y028200D03*
X080340D03*
X079340Y029200D03*
X080340D03*
X079340Y030200D03*
X080340D03*
X079340Y031200D03*
X080340D03*
X079340Y032200D03*
X080340D03*
X079340Y033200D03*
X080340D03*
X079340Y034200D03*
X080340D03*
X079340Y035200D03*
X080340D03*
X079340Y036200D03*
X080340D03*
X079340Y037200D03*
X080340D03*
X079340Y038200D03*
X080340D03*
X079340Y039200D03*
X080340D03*
Y040200D03*
X079340D03*
X071790Y019500D03*
X072790D03*
X073790D03*
X074790D03*
X075790D03*
X076790D03*
X072440Y024950D03*
Y023950D03*
X071290Y031500D03*
Y030500D03*
Y029500D03*
Y028500D03*
Y027500D03*
Y026500D03*
Y025500D03*
Y024500D03*
Y023500D03*
Y022500D03*
Y021500D03*
Y020500D03*
X077290Y031500D03*
Y030500D03*
Y029500D03*
Y028500D03*
Y027500D03*
Y026500D03*
Y025500D03*
Y024500D03*
Y023500D03*
Y022500D03*
Y021500D03*
Y020500D03*
G54D28*
X081340Y038200D03*
X082340D03*
X081340Y039200D03*
X082340D03*
G54D29*
X079340Y015200D03*
G54D30*
X077440Y013200D03*
X078440D03*
X076440D03*
X075440D03*
X074440D03*
X076790Y041000D03*
X077790D03*
G54D31*
X079440Y013200D03*
X075790Y041000D03*
G54D32*
X062940Y011623D03*
Y012450D03*
X064940Y012623D03*
Y013450D03*
Y010473D03*
Y011300D03*
G54D33*
X083340Y041340D03*
Y043100D03*
X084040Y041750D03*
Y042700D03*
X082590Y041750D03*
Y042700D03*
X063690Y018600D03*
X062090D03*
X063690Y019450D03*
X062090D03*
Y020300D03*
X063690D03*
X067840Y038750D03*
X070740Y037050D03*
X070090Y016550D03*
X064990Y012000D03*
X062890Y028500D03*
X071890Y034500D03*
X072440Y033200D03*
X078490Y031350D03*
X063940Y036200D03*
X060990Y031100D03*
Y023500D03*
X065340Y018950D03*
Y024500D03*
X076090Y035100D03*
X069490Y035450D03*
X061990Y036050D03*
X076640Y036650D03*
X064590Y024750D03*
X070090Y017150D03*
X060090Y023150D03*
Y030500D03*
X077290Y035900D03*
X057890Y016500D03*
X064340D03*
X068740D03*
X068640Y015950D03*
X057890Y021300D03*
X057438Y043948D03*
X058240Y035300D03*
X064740Y043950D03*
X064934Y039694D03*
X056901Y024745D03*
X070640Y018050D03*
X070090Y017650D03*
X067790Y021700D03*
X067413Y021250D03*
X067490Y017650D03*
X059140Y031900D03*
X061190Y034700D03*
X058490Y036550D03*
X068390Y039900D03*
X065840Y036300D03*
X065190Y040950D03*
X055740Y025350D03*
X059340Y022800D03*
X054690Y022150D03*
X065213Y017500D03*
X065713Y018300D03*
X082540Y012700D03*
Y013700D03*
X084140Y012700D03*
Y013700D03*
X083340Y012250D03*
Y014150D03*
X048790Y011200D03*
Y012200D03*
X050390Y011200D03*
Y012200D03*
X049590Y010750D03*
Y012650D03*
X048790Y042690D03*
Y043690D03*
X050390Y042690D03*
Y043690D03*
X049590Y042240D03*
Y044140D03*
G54D34*
X083340Y042200D03*
G54D35*
X049590Y043200D03*
Y011700D03*
X083340Y013200D03*
G54D36*
X068074Y010523D03*
Y025877D03*
X078405Y033928D03*
X063051D03*
X058673Y042220D03*
Y026865D03*
X048377Y022495D03*
X063732D03*
G54D37*
X050840Y022495D03*
X058673Y039900D03*
X065540Y033928D03*
X068074Y012850D03*
G54D40*
X078838Y038360D02*
X078828Y038337D01*
X078810Y038200*
X078828Y038062*
X078881Y037935*
X078965Y037825*
X079075Y037741*
X079150Y037710*
Y037689*
X079075Y037658*
X078965Y037574*
X078881Y037464*
X078828Y037337*
X078810Y037200*
X078828Y037062*
X078881Y036935*
X078965Y036825*
X079075Y036741*
X079150Y036710*
Y036689*
X079075Y036658*
X078965Y036574*
X078881Y036464*
X078828Y036337*
X078810Y036200*
X078828Y036062*
X078881Y035935*
X078965Y035825*
X079075Y035741*
X079150Y035710*
Y035689*
X079075Y035658*
X078965Y035574*
X078881Y035464*
X078828Y035337*
X078810Y035200*
X078828Y035062*
X078881Y034935*
X078965Y034825*
X079075Y034741*
X079150Y034710*
Y034689*
X079075Y034658*
X078965Y034574*
X078881Y034464*
X078828Y034337*
X078819Y034270*
X078799Y034265*
X078774Y034297*
X078666Y034381*
X078540Y034433*
X078405Y034451*
X078269Y034433*
X078143Y034381*
X078060Y034318*
X078040Y034325*
Y037576*
X078829Y038366*
X078838Y038360*
X069858Y017418D02*
X069865Y017412D01*
Y017387*
X069858Y017381*
X069816Y017328*
X067558*
X067558Y017331*
X067574Y017333*
X067653Y017366*
X067721Y017418*
X067763Y017472*
X069816*
X069858Y017418*
M02*