%FSDAX24Y24*%
%MOIN*%
%SFA1B1*%

%IPPOS*%
%ADD45R,0.048000X0.058000*%
%ADD46R,0.058000X0.048000*%
%ADD47O,0.031600X0.065100*%
%ADD48R,0.058000X0.044000*%
%ADD49R,0.044000X0.044000*%
%ADD50O,0.065100X0.031600*%
%ADD51R,0.044000X0.058000*%
%ADD52R,0.044000X0.044000*%
%ADD53C,0.068000*%
%ADD54R,0.068000X0.068000*%
%ADD55C,0.088000*%
%ADD56O,0.088000X0.068000*%
%ADD57R,0.088000X0.088000*%
%ADD58C,0.078000*%
%ADD59R,0.078000X0.078000*%
%ADD60C,0.055200*%
%ADD61C,0.048000*%
%ADD62C,0.188000*%
%ADD63C,0.258000*%
%ADD64C,0.086700*%
%ADD65C,0.204900*%
%LNrwsv3-1*%
%LPD*%
G54D45*
X068190Y042050D03*
X067390D03*
X068190Y041250D03*
X067390D03*
X068190Y042850D03*
X067390D03*
X061490Y037650D03*
X060690D03*
X061490Y036850D03*
X060690D03*
X061490Y038450D03*
X060690D03*
X065413Y014550D03*
X066213D03*
X065413Y015350D03*
X066213D03*
X065413Y016150D03*
X066213D03*
X068190Y040450D03*
X067390D03*
X065840Y036850D03*
X065040D03*
Y037650D03*
X065840D03*
X067340D03*
X066540D03*
Y036850D03*
X067340D03*
X061490Y036050D03*
X060690D03*
X059140Y032450D03*
X058340D03*
Y033250D03*
X059140D03*
X060640D03*
X059840D03*
Y032450D03*
X060640D03*
X057240Y022800D03*
X056440D03*
X065413Y016950D03*
X066213D03*
X068563Y019750D03*
X067763D03*
Y020550D03*
X068563D03*
X066263Y019750D03*
X067063D03*
Y020550D03*
X066263D03*
X076990Y039900D03*
X077790D03*
X076990Y039100D03*
X077790D03*
G54D46*
X053590Y025150D03*
Y024350D03*
X054390Y025150D03*
Y024350D03*
X052790Y025150D03*
Y024350D03*
X065840Y038400D03*
Y039200D03*
X059140Y034000D03*
Y034800D03*
X055190Y025150D03*
Y024350D03*
X058790Y022800D03*
Y022000D03*
X057990D03*
Y022800D03*
Y024300D03*
Y023500D03*
X058790D03*
Y024300D03*
X067763Y019000D03*
Y018200D03*
X073340Y011700D03*
Y010900D03*
X073190Y032800D03*
Y033600D03*
X073990Y032800D03*
Y033600D03*
X066440Y010550D03*
Y011350D03*
Y012700D03*
Y013500D03*
X064440Y014600D03*
Y015400D03*
G54D47*
X064540Y040300D03*
X064934D03*
X065327D03*
X065721D03*
X066115D03*
X066508D03*
X057840Y035900D03*
X058234D03*
X058627D03*
X059021D03*
X059415D03*
X059809D03*
X054240Y023473D03*
X053740D03*
X053240D03*
X052740D03*
X054240Y021327D03*
X053740D03*
X053240D03*
X052740D03*
X069063Y017100D03*
X068669D03*
X068275D03*
X067882D03*
X067488D03*
X067094D03*
G54D48*
X066590Y038730D03*
X064340D03*
X059890Y034330D03*
X057640D03*
X069263Y018670D03*
X067013D03*
G54D49*
X067390Y039100D03*
Y038350D03*
X065140Y039100D03*
Y038350D03*
X060690Y034700D03*
Y033950D03*
X058440Y034700D03*
Y033950D03*
X068463Y018300D03*
Y019050D03*
X066213Y018300D03*
Y019050D03*
G54D50*
X066513Y041400D03*
Y041900D03*
Y042400D03*
Y042900D03*
X064367Y041400D03*
Y041900D03*
Y042400D03*
Y042900D03*
X059813Y037000D03*
Y037500D03*
Y038000D03*
Y038500D03*
X057667Y037000D03*
Y037500D03*
Y038000D03*
Y038500D03*
X055340Y021500D03*
Y021894D03*
Y022287D03*
Y022681D03*
Y023075D03*
Y023468D03*
X067090Y016000D03*
Y015500D03*
Y015000D03*
Y014500D03*
X069236Y016000D03*
Y015500D03*
Y015000D03*
Y014500D03*
G54D51*
X056910Y023550D03*
Y021300D03*
G54D52*
X056540Y024350D03*
X057290D03*
X056540Y022100D03*
X057290D03*
G54D53*
X072590Y012300D03*
X069590D03*
X072590Y010300D03*
X069590D03*
X070690Y014100D03*
X071690D03*
X072690D03*
G54D54*
X081340Y015200D03*
G54D55*
X082340Y015200D03*
X081340Y016200D03*
X082340D03*
X081340Y017200D03*
X082340D03*
X081340Y018200D03*
X082340D03*
X081340Y019200D03*
X082340D03*
X081340Y020200D03*
X082340D03*
X081340Y021200D03*
X082340D03*
X081340Y022200D03*
X082340D03*
X081340Y023200D03*
X082340D03*
X081340Y024200D03*
X082340D03*
X081340Y025200D03*
X082340D03*
X081340Y026200D03*
X082340D03*
X081340Y027200D03*
X082340D03*
X081340Y028200D03*
X082340D03*
X081340Y029200D03*
X082340D03*
X081340Y030200D03*
X082340D03*
X081340Y031200D03*
X082340D03*
X081340Y032200D03*
X082340D03*
X081340Y033200D03*
X082340D03*
X081340Y034200D03*
X082340D03*
X081340Y035200D03*
X082340D03*
X081340Y036200D03*
X082340D03*
X081340Y037200D03*
X082340D03*
Y040200D03*
X081340D03*
X080340Y015200D03*
X079340Y016200D03*
X080340D03*
X079340Y017200D03*
X080340D03*
X079340Y018200D03*
X080340D03*
X079340Y019200D03*
X080340D03*
X079340Y020200D03*
X080340D03*
X079340Y021200D03*
X080340D03*
X079340Y022200D03*
X080340D03*
X079340Y023200D03*
X080340D03*
X079340Y024200D03*
X080340D03*
X079340Y025200D03*
X080340D03*
X079340Y026200D03*
X080340D03*
X079340Y027200D03*
X080340D03*
X079340Y028200D03*
X080340D03*
X079340Y029200D03*
X080340D03*
X079340Y030200D03*
X080340D03*
X079340Y031200D03*
X080340D03*
X079340Y032200D03*
X080340D03*
X079340Y033200D03*
X080340D03*
X079340Y034200D03*
X080340D03*
X079340Y035200D03*
X080340D03*
X079340Y036200D03*
X080340D03*
X079340Y037200D03*
X080340D03*
X079340Y038200D03*
X080340D03*
X079340Y039200D03*
X080340D03*
Y040200D03*
X079340D03*
X071790Y019500D03*
X072790D03*
X073790D03*
X074790D03*
X075790D03*
X076790D03*
X072440Y024950D03*
Y023950D03*
X071290Y031500D03*
Y030500D03*
Y029500D03*
Y028500D03*
Y027500D03*
Y026500D03*
Y025500D03*
Y024500D03*
Y023500D03*
Y022500D03*
Y021500D03*
Y020500D03*
X077290Y031500D03*
Y030500D03*
Y029500D03*
Y028500D03*
Y027500D03*
Y026500D03*
Y025500D03*
Y024500D03*
Y023500D03*
Y022500D03*
Y021500D03*
Y020500D03*
G54D56*
X081340Y038200D03*
X082340D03*
X081340Y039200D03*
X082340D03*
G54D57*
X079340Y015200D03*
G54D58*
X077440Y013200D03*
X078440D03*
X076440D03*
X075440D03*
X074440D03*
X076790Y041000D03*
X077790D03*
G54D59*
X079440Y013200D03*
X075790Y041000D03*
G54D60*
X062940Y011623D03*
Y012450D03*
X064940Y012623D03*
Y013450D03*
Y010473D03*
Y011300D03*
G54D61*
X083340Y041340D03*
Y043100D03*
X084040Y041750D03*
Y042700D03*
X082590Y041750D03*
Y042700D03*
X063690Y018600D03*
X062090D03*
X063690Y019450D03*
X062090D03*
Y020300D03*
X063690D03*
X067840Y038750D03*
X070740Y037050D03*
X070090Y016550D03*
X064990Y012000D03*
X062890Y028500D03*
X071890Y034500D03*
X072440Y033200D03*
X078490Y031350D03*
X063940Y036200D03*
X060990Y031100D03*
Y023500D03*
X065340Y018950D03*
Y024500D03*
X076090Y035100D03*
X069490Y035450D03*
X061990Y036050D03*
X076640Y036650D03*
X064590Y024750D03*
X070090Y017150D03*
X060090Y023150D03*
Y030500D03*
X077290Y035900D03*
X057890Y016500D03*
X064340D03*
X068740D03*
X068640Y015950D03*
X057890Y021300D03*
X057438Y043948D03*
X058240Y035300D03*
X064740Y043950D03*
X064934Y039694D03*
X056901Y024745D03*
X070640Y018050D03*
X070090Y017650D03*
X067790Y021700D03*
X067413Y021250D03*
X067490Y017650D03*
X059140Y031900D03*
X061190Y034700D03*
X058490Y036550D03*
X068390Y039900D03*
X065840Y036300D03*
X065190Y040950D03*
X055740Y025350D03*
X059340Y022800D03*
X054690Y022150D03*
X065213Y017500D03*
X065713Y018300D03*
X082540Y012700D03*
Y013700D03*
X084140Y012700D03*
Y013700D03*
X083340Y012250D03*
Y014150D03*
X048790Y011200D03*
Y012200D03*
X050390Y011200D03*
Y012200D03*
X049590Y010750D03*
Y012650D03*
X048790Y042690D03*
Y043690D03*
X050390Y042690D03*
Y043690D03*
X049590Y042240D03*
Y044140D03*
G54D62*
X083340Y042200D03*
G54D63*
X049590Y043200D03*
Y011700D03*
X083340Y013200D03*
G54D64*
X068074Y010523D03*
Y025877D03*
X078405Y033928D03*
X063051D03*
X058673Y042220D03*
Y026865D03*
X048377Y022495D03*
X063732D03*
G54D65*
X050840Y022495D03*
X058673Y039900D03*
X065540Y033928D03*
X068074Y012850D03*
M02*