%FSDAX24Y24*%
%MOIN*%
%SFA1B1*%

%IPPOS*%
%ADD25C,0.060000*%
%ADD26R,0.060000X0.060000*%
%ADD27C,0.080000*%
%ADD28O,0.080000X0.060000*%
%ADD29R,0.080000X0.080000*%
%ADD30C,0.070000*%
%ADD31R,0.070000X0.070000*%
%ADD32C,0.047200*%
%LNrwsv3-1*%
%LPD*%
G54D25*
X072590Y012300D03*
X069590D03*
X072590Y010300D03*
X069590D03*
X070690Y014100D03*
X071690D03*
X072690D03*
G54D26*
X081340Y015200D03*
G54D27*
X082340Y015200D03*
X081340Y016200D03*
X082340D03*
X081340Y017200D03*
X082340D03*
X081340Y018200D03*
X082340D03*
X081340Y019200D03*
X082340D03*
X081340Y020200D03*
X082340D03*
X081340Y021200D03*
X082340D03*
X081340Y022200D03*
X082340D03*
X081340Y023200D03*
X082340D03*
X081340Y024200D03*
X082340D03*
X081340Y025200D03*
X082340D03*
X081340Y026200D03*
X082340D03*
X081340Y027200D03*
X082340D03*
X081340Y028200D03*
X082340D03*
X081340Y029200D03*
X082340D03*
X081340Y030200D03*
X082340D03*
X081340Y031200D03*
X082340D03*
X081340Y032200D03*
X082340D03*
X081340Y033200D03*
X082340D03*
X081340Y034200D03*
X082340D03*
X081340Y035200D03*
X082340D03*
X081340Y036200D03*
X082340D03*
X081340Y037200D03*
X082340D03*
Y040200D03*
X081340D03*
X080340Y015200D03*
X079340Y016200D03*
X080340D03*
X079340Y017200D03*
X080340D03*
X079340Y018200D03*
X080340D03*
X079340Y019200D03*
X080340D03*
X079340Y020200D03*
X080340D03*
X079340Y021200D03*
X080340D03*
X079340Y022200D03*
X080340D03*
X079340Y023200D03*
X080340D03*
X079340Y024200D03*
X080340D03*
X079340Y025200D03*
X080340D03*
X079340Y026200D03*
X080340D03*
X079340Y027200D03*
X080340D03*
X079340Y028200D03*
X080340D03*
X079340Y029200D03*
X080340D03*
X079340Y030200D03*
X080340D03*
X079340Y031200D03*
X080340D03*
X079340Y032200D03*
X080340D03*
X079340Y033200D03*
X080340D03*
X079340Y034200D03*
X080340D03*
X079340Y035200D03*
X080340D03*
X079340Y036200D03*
X080340D03*
X079340Y037200D03*
X080340D03*
X079340Y038200D03*
X080340D03*
X079340Y039200D03*
X080340D03*
Y040200D03*
X079340D03*
X071790Y019500D03*
X072790D03*
X073790D03*
X074790D03*
X075790D03*
X076790D03*
X072440Y024950D03*
Y023950D03*
X071290Y031500D03*
Y030500D03*
Y029500D03*
Y028500D03*
Y027500D03*
Y026500D03*
Y025500D03*
Y024500D03*
Y023500D03*
Y022500D03*
Y021500D03*
Y020500D03*
X077290Y031500D03*
Y030500D03*
Y029500D03*
Y028500D03*
Y027500D03*
Y026500D03*
Y025500D03*
Y024500D03*
Y023500D03*
Y022500D03*
Y021500D03*
Y020500D03*
G54D28*
X081340Y038200D03*
X082340D03*
X081340Y039200D03*
X082340D03*
G54D29*
X079340Y015200D03*
G54D30*
X077440Y013200D03*
X078440D03*
X076440D03*
X075440D03*
X074440D03*
X076790Y041000D03*
X077790D03*
G54D31*
X079440Y013200D03*
X075790Y041000D03*
G54D32*
X062940Y011623D03*
Y012450D03*
X064940Y012623D03*
Y013450D03*
Y010473D03*
Y011300D03*
M02*