G04 Layer_Color=8421504*
%FSLAX25Y25*%
%MOIN*%
G70*
G01*
G75*
%ADD10R,0.04000X0.05000*%
%ADD11O,0.02362X0.05906*%
%ADD12R,0.02362X0.03937*%
%ADD13R,0.05000X0.04000*%
D10*
X-128000Y85500D02*
D03*
X-136000D02*
D03*
X-335500Y331500D02*
D03*
X-327500D02*
D03*
X-335500Y323500D02*
D03*
X-327500D02*
D03*
X-72500Y151000D02*
D03*
X-80500D02*
D03*
X-72500Y189000D02*
D03*
X-80500D02*
D03*
X-130500Y151500D02*
D03*
X-138500D02*
D03*
X-131000Y188000D02*
D03*
X-139000D02*
D03*
X-189500Y151500D02*
D03*
X-197500D02*
D03*
X-189657Y188000D02*
D03*
X-197658D02*
D03*
X-80500Y159500D02*
D03*
X-72500D02*
D03*
X-138500D02*
D03*
X-130500D02*
D03*
X-197500D02*
D03*
X-189500D02*
D03*
X-193500Y86000D02*
D03*
X-201500D02*
D03*
X-179500D02*
D03*
X-187500D02*
D03*
X-215000D02*
D03*
X-207000D02*
D03*
X-229000D02*
D03*
X-221000D02*
D03*
X-23500Y84000D02*
D03*
X-15500D02*
D03*
X-61000D02*
D03*
X-53000D02*
D03*
D11*
X-79500Y216870D02*
D03*
X-74500D02*
D03*
X-69500D02*
D03*
X-64500D02*
D03*
X-79500Y238130D02*
D03*
X-74500D02*
D03*
X-69500D02*
D03*
X-64500D02*
D03*
X-138500Y216870D02*
D03*
X-133500D02*
D03*
X-128500D02*
D03*
X-123500D02*
D03*
X-138500Y238130D02*
D03*
X-133500D02*
D03*
X-128500D02*
D03*
X-123500D02*
D03*
X-197000Y216870D02*
D03*
X-192000D02*
D03*
X-187000D02*
D03*
X-182000D02*
D03*
X-197000Y238130D02*
D03*
X-192000D02*
D03*
X-187000D02*
D03*
X-182000D02*
D03*
D12*
X-72260Y178913D02*
D03*
X-76000D02*
D03*
X-79740D02*
D03*
Y168087D02*
D03*
X-72260D02*
D03*
X-130760Y178913D02*
D03*
X-134500D02*
D03*
X-138240D02*
D03*
Y168087D02*
D03*
X-130760D02*
D03*
X-189417Y178913D02*
D03*
X-193157D02*
D03*
X-196898D02*
D03*
Y168087D02*
D03*
X-189417D02*
D03*
D13*
X-72000Y204500D02*
D03*
Y196500D02*
D03*
X-64000Y181500D02*
D03*
Y189500D02*
D03*
X-130500Y203500D02*
D03*
Y195500D02*
D03*
X-122500Y180500D02*
D03*
Y188500D02*
D03*
X-189157Y203500D02*
D03*
Y195500D02*
D03*
X-181158Y180500D02*
D03*
Y188500D02*
D03*
X-80000Y204500D02*
D03*
Y196500D02*
D03*
X-64000Y204500D02*
D03*
Y196500D02*
D03*
X-138500Y203500D02*
D03*
Y195500D02*
D03*
X-122500Y203500D02*
D03*
Y195500D02*
D03*
X-197158Y203500D02*
D03*
Y195500D02*
D03*
X-181158Y203500D02*
D03*
Y195500D02*
D03*
X-15500Y53500D02*
D03*
Y61500D02*
D03*
X-23500Y76500D02*
D03*
Y68500D02*
D03*
X-53000Y53500D02*
D03*
Y61500D02*
D03*
X-61000Y76500D02*
D03*
Y68500D02*
D03*
X-23500Y61500D02*
D03*
Y53500D02*
D03*
X-15500Y76500D02*
D03*
Y68500D02*
D03*
X-61000Y61500D02*
D03*
Y53500D02*
D03*
X-53000Y76500D02*
D03*
Y68500D02*
D03*
X-42500Y43500D02*
D03*
Y35500D02*
D03*
X-185000Y112000D02*
D03*
Y104000D02*
D03*
X-195000Y112000D02*
D03*
Y104000D02*
D03*
X-62500Y43500D02*
D03*
Y35500D02*
D03*
X-82500Y43500D02*
D03*
Y35500D02*
D03*
X-102500Y43500D02*
D03*
Y35500D02*
D03*
X-140500Y32000D02*
D03*
Y40000D02*
D03*
M02*
