M48
;Layer_Color=9474304
;FILE_FORMAT=2:5
INCH,TZ
;TYPE=PLATED
T1F00S00C0.02000
T2F00S00C0.02362
T3F00S00C0.03000
T4F00S00C0.04000
T5F00S00C0.05000
T6F00S00C0.07874
T7F00S00C0.11811
T8F00S00C0.12500
T9F00S00C0.23622
%
T01
X-365500Y30000
Y40000
X-357500Y44500
X-349500Y40000
Y30000
X-357500Y25500
X-28000Y25000
Y15000
X-20000Y10500
X-12000Y15000
Y25000
X-20000Y29500
X-13000Y68500
X-50500
X-43500Y95000
X-64500Y102500
X-81500Y95000
X-119000Y102500
X-125500Y91000
X-142500Y84500
X-147000Y87000
X-154000Y112000
X-162000Y108500
X-138500Y145500
X-132500
X-133000Y173500
X-119000Y168000
X-74500Y173500
X-64500Y168000
X-177000
X-191500Y174000
X-197500Y144500
X-192500Y98500
X-177000Y102500
X-174500Y95000
Y83000
X-204250Y86000
X-312500Y190000
X-317500
Y200000
Y210000
X-322000Y323500
X-349500Y320000
Y330000
X-357500Y334500
X-365500Y330000
Y320000
X-357500Y315500
X-342400Y311500
X-317500Y220000
X-201870Y216870
X-142500Y217000
X-116500Y238000
X-84000Y217000
X-57500Y238000
X-28000Y330000
Y340000
X-20000Y344500
X-12000Y340000
Y330000
X-20000Y325500
T02
X-102500Y19232
Y27500
X-82500
Y19232
X-62500
Y27500
X-42500
Y19232
T03
X-128000Y20000
Y30000
Y40000
X-317500Y260000
Y270000
Y280000
Y290000
T04
X-357500Y55000
X-347500
X-337500
X-327500
Y42500
X-337500
X-317500
X-307500
X-297500
X-287500
X-272500Y41000
Y51000
Y31000
Y21000
X-262500Y16000
X-252500
X-242500
X-232500
X-222500
X-212500
X-202500
X-192500
X-182500
X-172500
X-162500
X-152500
Y76000
X-162500
X-140000
X-130000Y76000
Y63500
X-140000Y63500
X-75000Y60500
Y70500
Y80500
X-37000
Y70500
Y60500
X-172500Y76000
X-182500
X-192500
X-202500
X-212500
X-222500
X-232500
X-242500
X-252500
X-262500
X-272500Y71000
Y61000
X-228000Y64500
X-218000
X-327500Y65000
Y75000
Y85000
Y95000
Y105000
Y115000
Y125000
Y135000
Y145000
Y155000
Y165000
Y175000
Y185000
Y195000
Y205000
Y215000
X-337500
X-347500
X-357500
Y205000
X-347500
Y195000
X-357500
Y185000
X-347500
Y175000
X-357500
Y165000
X-347500
Y155000
X-357500
Y145000
X-347500
Y135000
X-357500
Y125000
X-347500
Y115000
X-357500
Y105000
X-347500
Y95000
X-357500
Y85000
X-347500
Y75000
X-357500
Y65000
X-347500
X-337500
Y75000
Y85000
Y95000
Y105000
Y115000
Y125000
Y135000
Y145000
Y155000
Y165000
Y175000
Y185000
Y195000
Y205000
Y225000
X-347500
Y235000
Y245000
Y255000
Y265000
Y275000
Y285000
Y295000
Y305000
X-357500
Y295000
Y285000
Y275000
Y265000
Y255000
Y245000
Y235000
Y225000
X-337500Y235000
Y245000
Y255000
Y265000
Y275000
Y285000
Y295000
Y305000
X-327500
Y295000
Y285000
Y275000
Y265000
Y255000
Y245000
Y235000
Y225000
T05
X-175000Y238000
T06
X-284500Y86000
X-35500Y324500
T07
X-245071Y144650
Y262760
T08
X-357500Y35000
X-20000Y20000
X-357500Y325000
X-20000Y335000
T09
X-104500Y68000
M30
