%FSDAX24Y24*%
%MOIN*%
%SFA1B1*%

%IPPOS*%
%ADD41C,0.002000*%
%LNbluesatpc104template-1*%
%LPD*%
G54D41*
X011513Y015650D02*
X011867D01*
X011690Y015473D02*
Y015827D01*
X011513Y014650D02*
X011867D01*
X011690Y014473D02*
Y014827D01*
X018390Y024600D02*
X018690D01*
X018540Y024450D02*
Y024750D01*
X018390Y025600D02*
X018690D01*
X018540Y025450D02*
Y025750D01*
X015490Y024600D02*
X015790D01*
X015640Y024450D02*
Y024750D01*
X015490Y025600D02*
X015790D01*
X015640Y025450D02*
Y025750D01*
X013690Y026200D02*
X013990D01*
X013840Y026050D02*
Y026350D01*
X013690Y024200D02*
X013990D01*
X013840Y024050D02*
Y024350D01*
X010690Y026200D02*
X010990D01*
X010840Y026050D02*
Y026350D01*
X010690Y024200D02*
X010990D01*
X010840Y024050D02*
Y024350D01*
X013240Y036450D02*
X013540D01*
X013390Y036300D02*
Y036600D01*
X011240Y036450D02*
X011540D01*
X011390Y036300D02*
Y036600D01*
X012240Y036450D02*
X012540D01*
X012390Y036300D02*
Y036600D01*
X012613Y034850D02*
X012967D01*
X012790Y034673D02*
Y035027D01*
X013613Y034850D02*
X013967D01*
X013790Y034673D02*
Y035027D01*
X014613Y034850D02*
X014967D01*
X014790Y034673D02*
Y035027D01*
X029490Y042700D02*
X029790D01*
X029640Y042550D02*
Y042850D01*
X029490Y041700D02*
X029790D01*
X029640Y041550D02*
Y041850D01*
X029490Y040700D02*
X029790D01*
X029640Y040550D02*
Y040850D01*
X029490Y039700D02*
X029790D01*
X029640Y039550D02*
Y039850D01*
X029490Y038700D02*
X029790D01*
X029640Y038550D02*
Y038850D01*
X029490Y037700D02*
X029790D01*
X029640Y037550D02*
Y037850D01*
X034590Y021200D02*
X034890D01*
X034740Y021050D02*
Y021350D01*
X035590Y021200D02*
X035890D01*
X035740Y021050D02*
Y021350D01*
X036590Y021200D02*
X036890D01*
X036740Y021050D02*
Y021350D01*
X037590Y021200D02*
X037890D01*
X037740Y021050D02*
Y021350D01*
X038590Y021200D02*
X038890D01*
X038740Y021050D02*
Y021350D01*
X039590Y021200D02*
X039890D01*
X039740Y021050D02*
Y021350D01*
X033390Y044200D02*
X033690D01*
X033540Y044050D02*
Y044350D01*
X034390Y044200D02*
X034690D01*
X034540Y044050D02*
Y044350D01*
X035390Y044200D02*
X035690D01*
X035540Y044050D02*
Y044350D01*
X036390Y044200D02*
X036690D01*
X036540Y044050D02*
Y044350D01*
X037390Y044200D02*
X037690D01*
X037540Y044050D02*
Y044350D01*
X038390Y044200D02*
X038690D01*
X038540Y044050D02*
Y044350D01*
X045060Y013000D02*
X046320D01*
X045690Y012370D02*
Y013630D01*
X045060Y042000D02*
X046320D01*
X045690Y041370D02*
Y042630D01*
X011310Y043500D02*
X012570D01*
X011940Y042870D02*
Y044130D01*
X011310Y011990D02*
X012570D01*
X011940Y011360D02*
Y012620D01*
X042481Y040042D02*
X042836D01*
X042659Y039865D02*
Y040219D01*
X043481Y040042D02*
X043836D01*
X043658Y039865D02*
Y040219D01*
X042481Y039042D02*
X042836D01*
X042659Y038865D02*
Y039219D01*
X043481Y039042D02*
X043836D01*
X043658Y038865D02*
Y039219D01*
X042481Y038042D02*
X042836D01*
X042659Y037865D02*
Y038219D01*
X043481Y038042D02*
X043836D01*
X043658Y037865D02*
Y038219D01*
X042481Y037042D02*
X042836D01*
X042659Y036865D02*
Y037219D01*
X043481Y037042D02*
X043836D01*
X043658Y036865D02*
Y037219D01*
X042481Y036042D02*
X042836D01*
X042659Y035865D02*
Y036219D01*
X043481Y036042D02*
X043836D01*
X043658Y035865D02*
Y036219D01*
X042481Y035042D02*
X042836D01*
X042659Y034865D02*
Y035219D01*
X043481Y035042D02*
X043836D01*
X043658Y034865D02*
Y035219D01*
X042481Y034042D02*
X042836D01*
X042659Y033865D02*
Y034219D01*
X043481Y034042D02*
X043836D01*
X043658Y033865D02*
Y034219D01*
X042481Y033042D02*
X042836D01*
X042659Y032865D02*
Y033219D01*
X043481Y033042D02*
X043836D01*
X043658Y032865D02*
Y033219D01*
X042481Y032042D02*
X042836D01*
X042659Y031865D02*
Y032219D01*
X043481Y032042D02*
X043836D01*
X043658Y031865D02*
Y032219D01*
X042481Y031042D02*
X042836D01*
X042659Y030865D02*
Y031219D01*
X043481Y031042D02*
X043836D01*
X043658Y030865D02*
Y031219D01*
X042481Y030042D02*
X042836D01*
X042659Y029865D02*
Y030219D01*
X043481Y030042D02*
X043836D01*
X043658Y029865D02*
Y030219D01*
X042481Y029042D02*
X042836D01*
X042659Y028865D02*
Y029219D01*
X043481Y029042D02*
X043836D01*
X043658Y028865D02*
Y029219D01*
X042481Y028042D02*
X042836D01*
X042659Y027865D02*
Y028219D01*
X043481Y028042D02*
X043836D01*
X043658Y027865D02*
Y028219D01*
X042481Y027042D02*
X042836D01*
X042659Y026865D02*
Y027219D01*
X043481Y027042D02*
X043836D01*
X043658Y026865D02*
Y027219D01*
X042481Y026042D02*
X042836D01*
X042659Y025865D02*
Y026219D01*
X043481Y026042D02*
X043836D01*
X043658Y025865D02*
Y026219D01*
X042481Y025042D02*
X042836D01*
X042659Y024865D02*
Y025219D01*
X043481Y025042D02*
X043836D01*
X043658Y024865D02*
Y025219D01*
X042481Y024042D02*
X042836D01*
X042659Y023865D02*
Y024219D01*
X043481Y024042D02*
X043836D01*
X043658Y023865D02*
Y024219D01*
X042481Y023042D02*
X042836D01*
X042659Y022865D02*
Y023219D01*
X043481Y023042D02*
X043836D01*
X043658Y022865D02*
Y023219D01*
X042481Y022042D02*
X042836D01*
X042659Y021865D02*
Y022219D01*
X043481Y022042D02*
X043836D01*
X043658Y021865D02*
Y022219D01*
X042481Y021042D02*
X042836D01*
X042659Y020865D02*
Y021219D01*
X043481Y021042D02*
X043836D01*
X043658Y020865D02*
Y021219D01*
X042481Y020042D02*
X042836D01*
X042659Y019865D02*
Y020219D01*
X043481Y020042D02*
X043836D01*
X043658Y019865D02*
Y020219D01*
X042481Y019042D02*
X042836D01*
X042659Y018865D02*
Y019219D01*
X043481Y019042D02*
X043836D01*
X043658Y018865D02*
Y019219D01*
X042481Y018042D02*
X042836D01*
X042659Y017865D02*
Y018219D01*
X043481Y018042D02*
X043836D01*
X043658Y017865D02*
Y018219D01*
X042481Y017042D02*
X042836D01*
X042659Y016865D02*
Y017219D01*
X043481Y017042D02*
X043836D01*
X043658Y016865D02*
Y017219D01*
X042481Y016042D02*
X042836D01*
X042659Y015865D02*
Y016219D01*
X043481Y016042D02*
X043836D01*
X043658Y015865D02*
Y016219D01*
X043481Y015042D02*
X043836D01*
X043658Y014865D02*
Y015219D01*
X042481Y015042D02*
X042836D01*
X042659Y014865D02*
Y015219D01*
X044481Y015042D02*
X044836D01*
X044658Y014865D02*
Y015219D01*
X045481Y015042D02*
X045836D01*
X045658Y014865D02*
Y015219D01*
X045481Y016042D02*
X045836D01*
X045658Y015865D02*
Y016219D01*
X044481Y016042D02*
X044836D01*
X044658Y015865D02*
Y016219D01*
X045481Y017042D02*
X045836D01*
X045658Y016865D02*
Y017219D01*
X044481Y017042D02*
X044836D01*
X044658Y016865D02*
Y017219D01*
X045481Y018042D02*
X045836D01*
X045658Y017865D02*
Y018219D01*
X044481Y018042D02*
X044836D01*
X044658Y017865D02*
Y018219D01*
X045481Y019042D02*
X045836D01*
X045658Y018865D02*
Y019219D01*
X044481Y019042D02*
X044836D01*
X044658Y018865D02*
Y019219D01*
X045481Y020042D02*
X045836D01*
X045658Y019865D02*
Y020219D01*
X044481Y020042D02*
X044836D01*
X044658Y019865D02*
Y020219D01*
X045481Y021042D02*
X045836D01*
X045658Y020865D02*
Y021219D01*
X044481Y021042D02*
X044836D01*
X044658Y020865D02*
Y021219D01*
X045481Y022042D02*
X045836D01*
X045658Y021865D02*
Y022219D01*
X044481Y022042D02*
X044836D01*
X044658Y021865D02*
Y022219D01*
X045481Y023042D02*
X045836D01*
X045658Y022865D02*
Y023219D01*
X044481Y023042D02*
X044836D01*
X044658Y022865D02*
Y023219D01*
X045481Y024042D02*
X045836D01*
X045658Y023865D02*
Y024219D01*
X044481Y024042D02*
X044836D01*
X044658Y023865D02*
Y024219D01*
X045481Y025042D02*
X045836D01*
X045658Y024865D02*
Y025219D01*
X044481Y025042D02*
X044836D01*
X044658Y024865D02*
Y025219D01*
X045481Y026042D02*
X045836D01*
X045658Y025865D02*
Y026219D01*
X044481Y026042D02*
X044836D01*
X044658Y025865D02*
Y026219D01*
X045481Y027042D02*
X045836D01*
X045658Y026865D02*
Y027219D01*
X044481Y027042D02*
X044836D01*
X044658Y026865D02*
Y027219D01*
X045481Y028042D02*
X045836D01*
X045658Y027865D02*
Y028219D01*
X044481Y028042D02*
X044836D01*
X044658Y027865D02*
Y028219D01*
X045481Y029042D02*
X045836D01*
X045658Y028865D02*
Y029219D01*
X044481Y029042D02*
X044836D01*
X044658Y028865D02*
Y029219D01*
X045481Y030042D02*
X045836D01*
X045658Y029865D02*
Y030219D01*
X044481Y030042D02*
X044836D01*
X044658Y029865D02*
Y030219D01*
X045481Y031042D02*
X045836D01*
X045658Y030865D02*
Y031219D01*
X044481Y031042D02*
X044836D01*
X044658Y030865D02*
Y031219D01*
X045481Y032042D02*
X045836D01*
X045658Y031865D02*
Y032219D01*
X044481Y032042D02*
X044836D01*
X044658Y031865D02*
Y032219D01*
X045481Y033042D02*
X045836D01*
X045658Y032865D02*
Y033219D01*
X044481Y033042D02*
X044836D01*
X044658Y032865D02*
Y033219D01*
X045481Y034042D02*
X045836D01*
X045658Y033865D02*
Y034219D01*
X044481Y034042D02*
X044836D01*
X044658Y033865D02*
Y034219D01*
X045481Y035042D02*
X045836D01*
X045658Y034865D02*
Y035219D01*
X044481Y035042D02*
X044836D01*
X044658Y034865D02*
Y035219D01*
X045481Y036042D02*
X045836D01*
X045658Y035865D02*
Y036219D01*
X044481Y036042D02*
X044836D01*
X044658Y035865D02*
Y036219D01*
X045481Y037042D02*
X045836D01*
X045658Y036865D02*
Y037219D01*
X044481Y037042D02*
X044836D01*
X044658Y036865D02*
Y037219D01*
X045481Y038042D02*
X045836D01*
X045658Y037865D02*
Y038219D01*
X044481Y038042D02*
X044836D01*
X044658Y037865D02*
Y038219D01*
X045481Y039042D02*
X045836D01*
X045658Y038865D02*
Y039219D01*
X044481Y039042D02*
X044836D01*
X044658Y038865D02*
Y039219D01*
X045481Y040042D02*
X045836D01*
X045658Y039865D02*
Y040219D01*
X044481Y040042D02*
X044836D01*
X044658Y039865D02*
Y040219D01*
X023665Y033600D02*
X023915D01*
X023790Y033475D02*
Y033725D01*
X022665Y033600D02*
X022915D01*
X022790Y033475D02*
Y033725D01*
X021665Y033600D02*
X021915D01*
X021790Y033475D02*
Y033725D01*
X020665Y033600D02*
X020915D01*
X020790Y033475D02*
Y033725D01*
X019665Y033600D02*
X019915D01*
X019790Y033475D02*
Y033725D01*
X018665Y033600D02*
X018915D01*
X018790Y033475D02*
Y033725D01*
X017665Y033600D02*
X017915D01*
X017790Y033475D02*
Y033725D01*
X016665Y033600D02*
X016915D01*
X016790Y033475D02*
Y033725D01*
X015665Y033600D02*
X015915D01*
X015790Y033475D02*
Y033725D01*
X014665Y033600D02*
X014915D01*
X014790Y033475D02*
Y033725D01*
X013665Y033600D02*
X013915D01*
X013790Y033475D02*
Y033725D01*
X012665Y033600D02*
X012915D01*
X012790Y033475D02*
Y033725D01*
X023665Y027600D02*
X023915D01*
X023790Y027475D02*
Y027725D01*
X022665Y027600D02*
X022915D01*
X022790Y027475D02*
Y027725D01*
X021665Y027600D02*
X021915D01*
X021790Y027475D02*
Y027725D01*
X020665Y027600D02*
X020915D01*
X020790Y027475D02*
Y027725D01*
X019665Y027600D02*
X019915D01*
X019790Y027475D02*
Y027725D01*
X018665Y027600D02*
X018915D01*
X018790Y027475D02*
Y027725D01*
X017665Y027600D02*
X017915D01*
X017790Y027475D02*
Y027725D01*
X016665Y027600D02*
X016915D01*
X016790Y027475D02*
Y027725D01*
X015665Y027600D02*
X015915D01*
X015790Y027475D02*
Y027725D01*
X014665Y027600D02*
X014915D01*
X014790Y027475D02*
Y027725D01*
X013665Y027600D02*
X013915D01*
X013790Y027475D02*
Y027725D01*
X012665Y027600D02*
X012915D01*
X012790Y027475D02*
Y027725D01*
X033140Y028400D02*
X033440D01*
X033290Y028250D02*
Y028550D01*
X034140Y028400D02*
X034440D01*
X034290Y028250D02*
Y028550D01*
X035140Y028400D02*
X035440D01*
X035290Y028250D02*
Y028550D01*
X036140Y028400D02*
X036440D01*
X036290Y028250D02*
Y028550D01*
X037140Y028400D02*
X037440D01*
X037290Y028250D02*
Y028550D01*
X038140Y028400D02*
X038440D01*
X038290Y028250D02*
Y028550D01*
X039140Y028400D02*
X039440D01*
X039290Y028250D02*
Y028550D01*
X040140Y028400D02*
X040440D01*
X040290Y028250D02*
Y028550D01*
X030440Y034350D02*
X030740D01*
X030590Y034200D02*
Y034500D01*
X030440Y033350D02*
X030740D01*
X030590Y033200D02*
Y033500D01*
X030440Y032350D02*
X030740D01*
X030590Y032200D02*
Y032500D01*
X030440Y031350D02*
X030740D01*
X030590Y031200D02*
Y031500D01*
X030440Y030350D02*
X030740D01*
X030590Y030200D02*
Y030500D01*
X030440Y029350D02*
X030740D01*
X030590Y029200D02*
Y029500D01*
X030440Y028350D02*
X030740D01*
X030590Y028200D02*
Y028500D01*
X030440Y027350D02*
X030740D01*
X030590Y027200D02*
Y027500D01*
X028900Y028550D02*
X029180D01*
X029040Y028410D02*
Y028690D01*
X022450Y026150D02*
X022730D01*
X022590Y026010D02*
Y026290D01*
X024400Y024050D02*
X024680D01*
X024540Y023910D02*
Y024190D01*
M02*