%FSDAX24Y24*%
%MOIN*%
%SFA1B1*%

%IPPOS*%
%ADD11C,0.010000*%
%ADD24C,0.031500*%
%ADD25C,0.005000*%
%ADD26C,0.007900*%
%ADD43C,0.020000*%
%LNbluesatpc104template-1*%
%LPD*%
G54D25*
X029904Y012304D02*
X028799D01*
Y012028*
X029846*
Y011788*
X028799*
Y011512*
X029929*
Y011225*
X028417*
Y012579*
X029904*
Y012304*
G54D11*
X029854Y012354D02*
X028749D01*
Y011978*
X029796*
Y011838*
X028749*
Y011462*
X029879*
Y011275*
X028467*
Y012529*
X029854*
Y012354*
G54D43*
X029754Y012454D02*
X028649D01*
Y011878*
X029696*
Y011938*
X028649*
Y011362*
X029779*
Y011375*
X028567*
Y012429*
X029754*
Y012454*
X028580Y011460D02*
X028620D01*
X028580Y011660D02*
X028620D01*
X028580Y011860D02*
X028620D01*
X028580Y012060D02*
X028620D01*
X028580Y012260D02*
X028620D01*
G54D25*
X031424Y012594D02*
X031454Y012593D01*
X031481Y012591*
X031507Y012589*
X031529Y012586*
X031552Y012583*
X031572Y012581*
X031587Y012578*
X031602Y012574*
X031616Y012571*
X031628Y012569*
X031635Y012568*
X031645Y012565*
X031682Y012554*
X031713Y012540*
X031739Y012528*
X031759Y012515*
X031777Y012502*
X031788Y012494*
X031798Y012484*
X031800Y012483*
X031815Y012467*
X031829Y012448*
X031840Y012429*
X031847Y012409*
X031854Y012390*
X031859Y012378*
X031861Y012373*
Y012375*
X031861Y012372*
X031866Y012340*
X031871Y012311*
X031875Y012284*
X031876Y012260*
X031878Y012237*
Y012221*
Y012214*
Y012211*
Y012208*
Y012206*
Y012186*
X031496*
Y012189*
X031495Y012199*
Y012211*
X031493Y012219*
Y012228*
X031491Y012231*
Y012230*
X031482Y012254*
X031470Y012274*
X031465Y012279*
X031461Y012296*
X031448*
X031445Y012298*
X031432Y012304*
X031410Y012314*
X031398Y012318*
X031388Y012320*
X031380Y012321*
X031381Y012321*
X031364Y012325*
X031345Y012328*
X031323Y012331*
X031304*
X031287Y012332*
X030784*
X030756Y012330*
X030730Y012328*
X030706Y012323*
X030687Y012317*
X030674Y012312*
X030663Y012309*
X030650Y012302*
X030648Y012299*
X030632Y012286*
X030619Y012270*
X030608Y012253*
X030602Y012236*
X030598Y012223*
X030596Y012210*
Y012201*
Y012198*
Y012179*
X030598Y012161*
X030602Y012147*
X030605Y012138*
X030606Y012127*
X030611Y012119*
X030611Y012122*
X030612Y012114*
X030625Y012098*
X030639Y012086*
X030666Y012072*
X030678Y012069*
X030688Y012066*
X030699Y012063*
X030692Y012064*
X030724Y012060*
X030749Y012056*
X030775Y012053*
X030800Y012051*
X030825*
X030843Y012050*
X030901*
X030946Y012048*
X031223*
X031265Y012046*
X031304*
X031339Y012045*
X031374*
X031405Y012043*
X031433Y012042*
X031459Y012040*
X031479*
X031499Y012038*
X031517Y012037*
X031527*
X031536Y012035*
X031544*
X031573Y012032*
X031599Y012030*
X031625Y012025*
X031649Y012022*
X031670Y012017*
X031691Y012012*
X031708Y012007*
X031724Y012003*
X031740Y011998*
X031753Y011993*
X031763Y011989*
X031772Y011986*
X031782Y011979*
X031793Y011977*
X031789Y011977*
X031815Y011961*
X031840Y011941*
X031859Y011922*
X031875Y011902*
X031886Y011884*
X031895Y011869*
X031898Y011864*
X031901Y011854*
X031900Y011860*
X031901Y011857*
X031911Y011824*
X031921Y011785*
X031928Y011747*
X031931Y011711*
X031933Y011692*
X031934Y011677*
Y011661*
X031936Y011648*
Y011640*
Y011632*
Y011627*
Y011625*
X031934Y011573*
X031931Y011531*
X031926Y011493*
X031924Y011475*
X031921Y011461*
X031918Y011446*
X031916Y011436*
X031913Y011427*
X031911Y011416*
X031910Y011410*
X031913Y011417*
X031906Y011413*
Y011401*
X031895Y011377*
X031880Y011351*
X031865Y011332*
X031848Y011313*
X031833Y011299*
X031821Y011289*
X031810Y011282*
X031814Y011286*
X031816*
X031781Y011267*
X031751Y011255*
X031715Y011246*
X031683Y011237*
X031652Y011231*
X031639Y011229*
X031630Y011227*
X031619Y011226*
X031613Y011225*
X031609*
X031581Y011221*
X031554Y011219*
X031496Y011216*
X031438Y011212*
X031382Y011211*
X031332Y011212*
X031312Y011210*
X030685*
X030637Y011211*
X030594Y011214*
X030575Y011216*
X030557Y011218*
X030541*
X030530Y011219*
X030517Y011221*
X030505Y011223*
X030499*
X030494Y011224*
X030490Y011224*
X030454Y011231*
X030421Y011240*
X030394Y011250*
X030370Y011258*
X030351Y011267*
X030337Y011273*
X030330Y011277*
X030307Y011294*
X030291Y011311*
X030275Y011331*
X030261Y011347*
X030253Y011360*
X030247Y011374*
X030241Y011384*
X030240Y011385*
X030232Y011410*
X030225Y011439*
X030219Y011469*
X030216Y011497*
X030215Y011522*
Y011536*
X030213Y011546*
Y011550*
Y011557*
Y011560*
Y011562*
Y011635*
X030595*
Y011639*
X030596Y011619*
X030598Y011602*
X030601Y011587*
X030603Y011576*
X030605Y011570*
X030607Y011564*
X030619Y011535*
X030634Y011516*
X030643Y011508*
X030654Y011502*
X030544Y011557*
X030674Y011489*
X030698Y011480*
X030711Y011479*
X030717Y011478*
X030724Y011476*
X030751Y011475*
X030777Y011474*
X031359Y011474*
X031380Y011475*
X031402*
X031428Y011479*
X031451Y011485*
X031459Y011489*
X031463Y011490*
X031462Y011490*
X031467*
X031493Y011507*
X031509Y011522*
X031513Y011527*
X031526Y011531*
Y011546*
X031528Y011550*
X031534Y011563*
X031540Y011587*
X031543Y011599*
Y011610*
Y011615*
Y011617*
Y011635*
X031539Y011652*
X031537Y011665*
X031533Y011679*
X031529Y011686*
X031527Y011697*
X031526Y011698*
Y011696*
X031510Y011716*
X031494Y011726*
X031481Y011735*
X031464Y011741*
X031451Y011746*
X031440Y011749*
X031431Y011753*
X031425*
X031401Y011757*
X031370Y011760*
X031341Y011763*
X031310Y011765*
X031282Y011768*
X031272*
X031262Y011769*
X031218*
X031194Y011771*
X031138*
X031083Y011772*
X030826Y011773*
X030786Y011773*
X030748Y011776*
X030714*
X030682Y011777*
X030653Y011778*
X030627Y011780*
X030605Y011782*
X030584Y011783*
X030566Y011786*
X030552*
X030541Y011787*
X030531Y011789*
X030526*
X030478Y011797*
X030434Y011807*
X030398Y011817*
X030384Y011821*
X030370Y011827*
X030358Y011832*
X030347Y011836*
X030336Y011841*
X030326Y011844*
X030326Y011845*
X030328Y011844*
X030323Y011854*
X030314*
X030297Y011865*
X030278Y011885*
X030263Y011905*
X030251Y011922*
X030243Y011939*
X030238Y011953*
X030232Y011968*
X030235Y011965*
Y011959*
X030227Y011994*
X030222Y012027*
X030219Y012064*
X030217Y012096*
X030216Y012127*
X030215Y012138*
Y012148*
Y012158*
Y012164*
Y012168*
Y012169*
Y012203*
X030216Y012235*
X030217Y012264*
X030221Y012291*
X030222Y012313*
X030225Y012330*
Y012339*
X030225Y012341*
X030226Y012345*
Y012344*
X030232Y012370*
X030239Y012395*
X030250Y012416*
X030261Y012438*
X030270Y012452*
X030278Y012463*
X030286Y012471*
X030288Y012474*
X030306Y012491*
X030331Y012508*
X030358Y012524*
X030382Y012537*
X030405Y012546*
X030417Y012550*
X030428Y012554*
X030434Y012557*
X030438Y012558*
X030437Y012558*
X030440Y012559*
X030465Y012566*
X030489Y012571*
X030539Y012581*
X030590Y012588*
X030641Y012591*
X030664Y012593*
X030685Y012594*
X030705*
X030724Y012596*
X031391*
X031423Y012594*
X030460Y011230D02*
X031640D01*
X030340Y011280D02*
X031790D01*
X030290Y011330D02*
X031860D01*
X030250Y011380D02*
X031890D01*
X030240Y011430D02*
X031900D01*
X030230Y011480D02*
X030690D01*
X031440D02*
X031910D01*
X030220Y011530D02*
X030620D01*
X031540D02*
X031920D01*
X030220Y011580D02*
X030590D01*
X031550D02*
X031940D01*
X030600Y011630D02*
X030590D01*
X031550D02*
X031940D01*
X031540Y011680D02*
X031920D01*
X031500Y011730D02*
X031920D01*
X030590Y011780D02*
X031920D01*
X030370Y011830D02*
X031900D01*
X030300Y011880D02*
X031880D01*
X030260Y011930D02*
X031840D01*
X030240Y011980D02*
X031770D01*
X030230Y012030D02*
X031530D01*
X030230Y012080D02*
X030650D01*
X030230Y012130D02*
X030600D01*
X030220Y012180D02*
X030590D01*
X030230Y012230D02*
X030590D01*
X031500D02*
X031870D01*
X030230Y012280D02*
X030620D01*
X031480D02*
X031870D01*
X030230Y012330D02*
X031860D01*
X030250Y012380D02*
X031850D01*
X030270Y012430D02*
X031830D01*
X030310Y012480D02*
X031790D01*
X030380Y012530D02*
X031730D01*
X030550Y012580D02*
X031540D01*
X034139Y011225D02*
X033716D01*
X033582Y011474*
X032679*
X032553Y011225*
X032128*
X032862Y012579*
X033394*
X034139Y011225*
G54D11*
X034055Y011275D02*
X033746D01*
X033612Y011524*
X032648*
X032522Y011275*
X032212*
X032892Y012529*
X033364*
X034055Y011275*
G54D43*
X033885Y011375D02*
X033806D01*
X033672Y011624*
X032587*
X032461Y011375*
X032380*
X032952Y012429*
X033305*
X033885Y011375*
X032490Y011470D02*
X032480D01*
X033790D02*
X033830D01*
X032590Y011670D02*
X033680D01*
X032690Y011870D02*
X033580D01*
X032790Y012070D02*
X033480D01*
X032890Y012270D02*
X033380D01*
G54D25*
X035847Y012281D02*
X035243D01*
Y011225*
X034861*
Y012281*
X034255*
Y012579*
X035847*
Y012281*
G54D11*
X035797Y012331D02*
X035193D01*
Y011275*
X034911*
Y012331*
X034305*
Y012529*
X035797*
Y012331*
G54D43*
X035697Y012431D02*
X035093D01*
Y011375*
X035011*
Y012431*
X034405*
Y012429*
X035697*
Y012431*
G54D25*
X028078Y011700D02*
X028077Y011653D01*
X028072Y011610*
X028065Y011569*
X028057Y011533*
X028048Y011500*
X028034Y011470*
X028024Y011441*
X028012Y011418*
X027998Y011395*
X027988Y011376*
X027977Y011363*
X027965Y011348*
X027958Y011339*
X027952Y011333*
X027947Y011328*
X027947Y011328*
X027921Y011308*
X027893Y011289*
X027861Y011274*
X027827Y011261*
X027793Y011248*
X027759Y011239*
X027722Y011231*
X027688Y011224*
X027655Y011219*
X027624Y011216*
X027596Y011212*
X027573Y011211*
X027552Y011212*
X027537Y011210*
X026908*
X026853Y011211*
X026805Y011214*
X026760Y011221*
X026718Y011229*
X026680Y011237*
X026645Y011248*
X026615Y011260*
X026587Y011271*
X026561Y011282*
X026541Y011292*
X026523Y011302*
X026509Y011310*
X026499Y011318*
X026490Y011325*
X026490Y011325*
X026490Y011325*
X026464Y011350*
X026446Y011376*
X026428Y011405*
X026412Y011434*
X026400Y011465*
X026388Y011496*
X026381Y011526*
X026373Y011557*
X026368Y011586*
X026363Y011613*
X026361Y011637*
X026359Y011658*
Y011676*
X026357Y011689*
Y011696*
Y011700*
Y012579*
X026739*
Y011793*
Y011767*
X026740Y011743*
X026744Y011720*
X026747Y011702*
X026750Y011681*
X026756Y011664*
X026767Y011636*
X026777Y011615*
X026787Y011598*
X026796Y011588*
X026798Y011586*
X026811Y011572*
X026826Y011561*
X026858Y011545*
X026893Y011534*
X026925Y011527*
X026954Y011524*
X026969Y011522*
X026978*
X026988Y011520*
X027455*
X027479Y011522*
X027501Y011525*
X027522Y011529*
X027539Y011535*
X027554Y011540*
X027584Y011550*
X027605Y011561*
X027622Y011573*
X027629Y011580*
X027633Y011582*
X027647Y011598*
X027657Y011615*
X027671Y011645*
X027682Y011679*
X027689Y011714*
X027692Y011744*
X027694Y011754*
X027697Y011768*
Y011779*
Y011786*
Y011791*
Y011793*
Y012579*
X028078*
Y011700*
G54D11*
X028028Y011701D02*
X028027Y011656D01*
X028022Y011617*
X028016Y011578*
X028009Y011545*
X028001Y011517*
X027988Y011489*
X027978Y011461*
X027968Y011442*
X027955Y011420*
X027946Y011404*
X027938Y011394*
X027926Y011379*
X027921Y011373*
X027916Y011369*
X027914Y011366*
X027891Y011348*
X027868Y011333*
X027841Y011320*
X027809Y011308*
X027777Y011296*
X027747Y011287*
X027712Y011280*
X027680Y011273*
X027649Y011269*
X027618Y011266*
X027592Y011262*
X027572Y011261*
X027549Y011262*
X027534Y011260*
X026908*
X026856Y011261*
X026810Y011264*
X026769Y011271*
X026727Y011278*
X026692Y011285*
X026662Y011295*
X026633Y011306*
X026606Y011317*
X026582Y011328*
X026564Y011336*
X026548Y011345*
X026537Y011352*
X026529Y011358*
X026520Y011365*
X026502Y011382*
X026488Y011403*
X026471Y011430*
X026457Y011456*
X026446Y011483*
X026436Y011511*
X026429Y011538*
X026422Y011567*
X026417Y011594*
X026413Y011619*
X026411Y011643*
X026409Y011662*
Y011680*
X026407Y011693*
Y011696*
Y011700*
Y012529*
X026689*
Y011793*
Y011766*
X026690Y011737*
X026695Y011711*
X026697Y011694*
X026701Y011669*
X026709Y011647*
X026721Y011616*
X026733Y011591*
X026746Y011569*
X026758Y011555*
X026761Y011552*
X026779Y011534*
X026800Y011518*
X026839Y011499*
X026880Y011486*
X026917Y011477*
X026948Y011474*
X026965Y011472*
X026973*
X026983Y011470*
X027457*
X027485Y011472*
X027510Y011476*
X027534Y011481*
X027554Y011487*
X027570Y011492*
X027604Y011504*
X027631Y011518*
X027654Y011534*
X027661Y011541*
X027666Y011545*
X027687Y011568*
X027701Y011592*
X027717Y011627*
X027730Y011666*
X027739Y011706*
X027742Y011737*
X027743Y011745*
X027747Y011764*
Y011779*
Y011786*
Y011791*
Y011793*
Y012529*
X028028*
Y011701*
G54D43*
X027928Y011702D02*
X027927Y011663D01*
X027923Y011631*
X027917Y011597*
X027912Y011569*
X027907Y011552*
X027895Y011527*
X027886Y011501*
X027881Y011491*
X027868Y011470*
X027862Y011460*
X027860Y011457*
X027848Y011442*
X027846Y011439*
X027846Y011439*
X027847Y011441*
X027833Y011429*
X027818Y011420*
X027802Y011412*
X027775Y011402*
X027747Y011391*
X027723Y011384*
X027691Y011378*
X027663Y011372*
X027637Y011368*
X027606Y011365*
X027583Y011362*
X027570Y011361*
X027542Y011362*
X027527Y011360*
X026910*
X026861Y011361*
X026821Y011364*
X026785Y011369*
X026746Y011376*
X026718Y011382*
X026695Y011389*
X026669Y011400*
X026645Y011409*
X026623Y011419*
X026611Y011424*
X026599Y011432*
X026588Y011438*
X026590Y011437*
X026578Y011448*
X026572Y011457*
X026558Y011480*
X026548Y011499*
X026540Y011519*
X026532Y011540*
X026526Y011563*
X026520Y011587*
X026516Y011611*
X026512Y011632*
X026511Y011653*
X026509Y011668*
Y011688*
X026507Y011701*
Y011696*
Y011700*
Y012429*
X026589*
Y011793*
Y011764*
X026590Y011725*
X026596Y011694*
X026599Y011678*
X026604Y011645*
X026615Y011613*
X026629Y011576*
X026645Y011544*
X026664Y011510*
X026683Y011489*
X026688Y011484*
X026713Y011459*
X026747Y011433*
X026802Y011406*
X026853Y011390*
X026900Y011379*
X026935Y011375*
X026957Y011372*
X026963*
X026973Y011371*
X027461Y011369*
X027497Y011373*
X027528Y011377*
X027560Y011384*
X027585Y011392*
X027602Y011397*
X027644Y011412*
X027683Y011433*
X027718Y011457*
X027732Y011470*
X027735Y011473*
X027768Y011507*
X027790Y011546*
X027811Y011591*
X027827Y011640*
X027838Y011690*
X027841Y011727*
X027842Y011728*
X027847Y011756*
Y011779*
Y011786*
Y011791*
Y011793*
Y012429*
X027928*
Y011702*
X026620Y011460D02*
X026660D01*
X027770D02*
X027810D01*
X026520Y011660D02*
X026560D01*
X027870D02*
X027930D01*
X026520Y011860D02*
X026560D01*
X027870D02*
X027930D01*
X026520Y012060D02*
X026560D01*
X027870D02*
X027930D01*
X026520Y012260D02*
X026560D01*
X027870D02*
X027930D01*
G54D25*
X016788Y011475D02*
X016560D01*
X016481Y011623*
X015933*
X015858Y011475*
X015630*
X016054Y012257*
X016357*
X016788Y011475*
G54D11*
X016703Y011525D02*
X016590D01*
X016511Y011673*
X015902*
X015827Y011525*
X015714*
X016084Y012207*
X016327*
X016703Y011525*
G54D43*
X016534Y011625D02*
X016650D01*
X016571Y011773*
X015841*
X015766Y011625*
X015882*
X016144Y012107*
X016268*
X016534Y011625*
X015830Y011720D02*
X015920D01*
X016530D02*
X016570D01*
X016080Y011920D02*
X016370D01*
G54D25*
X018895Y012266D02*
X018917Y012265D01*
X018938Y012264*
X018957Y012263*
X018974Y012262*
X018990Y012260*
X019004Y012259*
X019017Y012257*
X019030Y012255*
X019041*
X019047Y012254*
X019052Y012253*
X019057Y012252*
X019058Y012252*
X019087Y012244*
X019111Y012237*
X019129Y012229*
X019146Y012220*
X019158Y012213*
X019167Y012207*
X019168Y012206*
X019168Y012206*
X019185Y012190*
X019196Y012177*
X019203Y012164*
X019211Y012148*
X019216Y012138*
X019219Y012127*
X019220Y012126*
Y012123*
X019220Y012125*
X019220Y012125*
X019225Y012098*
X019227Y012075*
X019230Y012050*
X019231Y012030*
Y012018*
X019232Y012008*
Y012001*
Y011993*
Y011987*
Y011982*
Y011979*
X019244Y011991*
X019027Y012001*
X019025Y012021*
X019020Y012039*
X019013Y012053*
X019005Y012063*
X018997Y012073*
X018988Y012080*
X018985Y012081*
X018984Y012082*
X018965Y012091*
X018947Y012096*
X018932Y012099*
X018916Y012101*
X018902Y012102*
X018892Y012104*
X018583*
X018566Y012101*
X018552Y012099*
X018539Y012097*
X018528Y012095*
X018520Y012093*
X018514Y012091*
X018509Y012089*
X018499Y012084*
X018487Y012078*
X018478Y012071*
X018470Y012065*
X018463Y012059*
X018456Y012052*
X018465Y012055*
X018454Y012051*
X018445Y012038*
X018439Y012027*
X018434Y012017*
X018431Y012006*
X018429Y011999*
X018426Y011992*
X018425Y011985*
X018423Y011964*
X018423Y011961*
X018421Y011948*
Y011936*
X018420Y011926*
Y011918*
Y011913*
Y011911*
Y011821*
Y011804*
X018421Y011788*
X018422Y011775*
X018423Y011764*
Y011755*
X018424Y011746*
X018424Y011746*
Y011740*
X018427Y011725*
X018431Y011713*
X018435Y011704*
X018439Y011694*
X018444Y011687*
X018446Y011683*
X018450Y011677*
X018453Y011674*
X018461Y011666*
X018470Y011658*
X018488Y011647*
X018499Y011642*
X018502Y011642*
X018508Y011640*
X018467Y011650*
X018522Y011636*
X018535Y011634*
X018549Y011632*
X018562Y011631*
X018572*
X018580Y011630*
X018878*
X018891Y011631*
X018905*
X018915Y011632*
X018925*
X018933Y011633*
X018936Y011633*
X018948Y011635*
X018959Y011637*
X018967Y011641*
X018975Y011643*
X018982Y011646*
X018990Y011650*
X018984Y011649*
X018991Y011650*
X019001Y011659*
X019010Y011667*
X019019Y011681*
X019025Y011690*
X019027Y011697*
X019028Y011703*
X019028Y011701*
X019031Y011710*
X019033Y011722*
X019034Y011734*
X019035Y011744*
X019037Y011753*
Y011763*
Y011767*
Y011744*
X019243*
Y011691*
X019242Y011672*
X019241Y011656*
X019239Y011639*
X019237Y011626*
X019234Y011614*
X019232Y011606*
X019232Y011607*
X019231Y011600*
X019226Y011584*
X019221Y011571*
X019214Y011559*
X019208Y011551*
X019200Y011542*
X019194Y011532*
X019194Y011532*
X019180Y011520*
X019168Y011510*
X019154Y011503*
X019140Y011496*
X019127Y011491*
X019114Y011486*
X019113Y011485*
X019115Y011485*
X019115Y011485*
X019087Y011478*
X019062Y011473*
X019038Y011470*
X019014Y011468*
X019002*
X018992Y011467*
X018983*
X018974Y011466*
X018549*
X018517Y011466*
X018489Y011467*
X018463Y011469*
X018452Y011470*
X018442Y011471*
X018431Y011472*
X018424Y011473*
X018416Y011474*
X018410Y011475*
X018406Y011476*
X018400Y011478*
X018376Y011483*
X018355Y011489*
X018336Y011497*
X018321Y011502*
X018309Y011509*
X018299Y011515*
X018294Y011518*
X018295Y011517*
X018287Y011520*
X018293Y011518*
X018279Y011531*
X018265Y011544*
X018255Y011557*
X018245Y011571*
X018237Y011584*
X018233Y011593*
X018230Y011598*
X018227Y011602*
X018229Y011597*
X018197Y011705*
X018223Y011621*
X018217Y011645*
X018212Y011669*
X018209Y011692*
X018208Y011702*
X018208Y011711*
Y011720*
X018207Y011727*
Y011733*
Y011738*
Y011741*
Y011742*
Y011990*
X018207Y012021*
X018210Y012048*
X018212Y012061*
X018214Y012074*
X018216Y012083*
X018219Y012092*
X018221Y012102*
X018223Y012109*
X018224Y012116*
X018227Y012121*
X018228Y012129*
X018228Y012128*
X018229Y012133*
X018228Y012130*
X018237Y012147*
X018248Y012164*
X018259Y012179*
X018269Y012191*
X018280Y012200*
X018285Y012206*
X018295Y012212*
X018286Y012209*
X018294Y012213*
X018309Y012222*
X018328Y012231*
X018345Y012239*
X018361Y012245*
X018378Y012250*
X018383Y012251*
X018390Y012252*
X018392Y012254*
X018396*
X018394Y012254*
X018394Y012254*
X018423Y012258*
X018450Y012262*
X018474Y012264*
X018498Y012265*
X018509Y012266*
X018518*
X018527Y012267*
X018873*
X018895Y012266*
X018370Y011490D02*
X019120D01*
X018280Y011540D02*
X019190D01*
X018240Y011590D02*
X019220D01*
X018230Y011640D02*
X018490D01*
X018520D02*
X018510D01*
X018990D02*
X019240D01*
X018220Y011690D02*
X018430D01*
X019040D02*
X019240D01*
X018220Y011740D02*
X018410D01*
X018220Y011790D02*
X018410D01*
X018220Y011840D02*
X018410D01*
X018220Y011890D02*
X018410D01*
X018220Y011940D02*
X018410D01*
X018220Y011990D02*
X018420D01*
X019240D02*
D01*
X018220Y012040D02*
X018440D01*
X019030D02*
X019220D01*
X018230Y012090D02*
X018510D01*
X018980D02*
X019220D01*
X018250Y012140D02*
X019210D01*
X018280Y012190D02*
X019180D01*
X018360Y012240D02*
X019080D01*
X020137Y012266D02*
X020155Y012265D01*
X020171Y012264*
X020186Y012263*
X020199Y012261*
X020214Y012259*
X020225Y012258*
X020234Y012256*
X020243Y012255*
X020250Y012253*
X020257Y012252*
X020261Y012251*
X020267Y012250*
X020286Y012243*
X020305Y012235*
X020321Y012227*
X020332Y012221*
X020341Y012214*
X020347Y012209*
X020353Y012203*
X020355Y012202*
X020362Y012194*
X020370Y012184*
X020376Y012173*
X020380Y012163*
X020384Y012151*
X020387Y012145*
X020387Y012146*
X020388Y012147*
X020388Y012144*
X020391Y012125*
X020393Y012108*
X020395Y012092*
X020396Y012078*
X020397Y012065*
Y012055*
Y012051*
Y012049*
Y012047*
Y012046*
Y012045*
X020192*
Y012037*
X020191Y012043*
Y012049*
X020190Y012054*
X020188Y012060*
X020188Y012058*
X020188Y012062*
X020183Y012079*
X020175Y012093*
X020170Y012097*
X020159Y012103*
X020172Y012097*
X020156Y012110*
X020146Y012115*
X020132Y012119*
X020125Y012122*
X020118Y012123*
X020114Y012124*
X020106Y012126*
X020093Y012128*
X020079Y012130*
X020068*
X020058Y012131*
X019758*
X019741Y012129*
X019726Y012128*
X019710Y012125*
X019700Y012122*
X019692Y012120*
X019683Y012117*
X019674Y012112*
X019671Y012109*
X019660Y012101*
X019652Y012089*
X019646Y012079*
X019642Y012067*
X019639Y012058*
X019638Y012049*
Y012043*
Y012041*
Y012030*
X019639Y012018*
X019642Y012008*
X019643Y012003*
X019645Y011996*
X019648Y011989*
X019647Y011994*
X019649Y011985*
X019657Y011976*
X019666Y011967*
X019685Y011957*
X019693Y011955*
X019700Y011952*
X019707Y011951*
X019723Y011949*
X019738Y011948*
X019752Y011946*
X019769Y011945*
X019782*
X019793Y011944*
X019829*
X019855Y011943*
X020020Y011943*
X020044Y011942*
X020066Y011942*
X020088Y011941*
X020109*
X020126Y011940*
X020143Y011939*
X020159Y011938*
X020170*
X020181Y011937*
X020192Y011936*
X020198*
X020204Y011935*
X020209*
X020226Y011933*
X020240Y011932*
X020256Y011929*
X020270Y011927*
X020282Y011924*
X020293Y011921*
X020304Y011918*
X020313Y011916*
X020323Y011913*
X020330Y011910*
X020337Y011908*
X020343Y011906*
X020341Y011907*
X020374Y011889*
X020353Y011901*
X020349Y011902*
X020364Y011892*
X020378Y011882*
X020389Y011871*
X020397Y011861*
X020403Y011850*
X020409Y011840*
X020410Y011837*
X020413Y011832*
X020411Y011839*
X020419Y011811*
X020417Y011817*
X020423Y011794*
X020427Y011773*
X020429Y011751*
X020430Y011740*
X020431Y011731*
Y011723*
X020432Y011715*
Y011711*
Y011706*
Y011703*
Y011702*
X020431Y011672*
X020429Y011647*
X020426Y011625*
X020425Y011615*
X020423Y011609*
X020421Y011598*
X020420Y011592*
X020418Y011587*
X020417Y011580*
X020416Y011575*
X020418Y011580*
X020416Y011573*
X020420Y011585*
X020408Y011559*
X020400Y011545*
X020392Y011534*
X020383Y011524*
X020374Y011516*
X020367Y011510*
X020361Y011506*
X020368Y011508*
X020354Y011503*
X020346Y011499*
X020329Y011492*
X020308Y011487*
X020288Y011482*
X020272Y011478*
X020265Y011477*
X020258Y011476*
X020251Y011475*
X020249Y011475*
X020247Y011474*
X020231Y011472*
X020215Y011471*
X020180Y011469*
X020146Y011467*
X020113Y011466*
X020083Y011467*
X020071Y011466*
X019700*
X019673Y011466*
X019647Y011468*
X019636Y011469*
X019625Y011471*
X019616*
X019610Y011471*
X019602Y011472*
X019595Y011474*
X019592*
X019588Y011474*
X019585Y011474*
X019565Y011478*
X019547Y011483*
X019531Y011489*
X019517Y011494*
X019506Y011499*
X019498Y011502*
X019495Y011504*
X019494Y011505*
X019483Y011513*
X019474Y011522*
X019465Y011534*
X019458Y011542*
X019454Y011550*
X019449Y011558*
X019446Y011563*
X019447Y011562*
X019442Y011577*
X019438Y011594*
X019434Y011611*
X019432Y011627*
X019432Y011641*
Y011650*
X019430Y011658*
X019431Y011658*
Y011662*
Y011664*
Y011665*
Y011698*
X019637*
Y011709*
X019638Y011697*
X019639Y011686*
X019641Y011677*
X019642Y011671*
X019643Y011666*
X019643Y011668*
X019645Y011662*
X019653Y011644*
X019662Y011631*
X019666Y011627*
X019677Y011621*
X019632Y011643*
X019689Y011611*
X019705Y011606*
X019714Y011605*
X019715*
X019719Y011604*
X019725Y011603*
X019739Y011603*
X019754Y011602*
X020101*
X020113Y011603*
X020125*
X020142Y011605*
X020158Y011609*
X020165Y011612*
X020166Y011613*
X020162Y011612*
X020170Y011614*
X020186Y011624*
X020197Y011635*
X020199Y011637*
X020204Y011647*
X020186Y011608*
X020208Y011652*
X020213Y011660*
X020217Y011677*
X020219Y011685*
Y011693*
Y011696*
Y011697*
Y011709*
X020216Y011720*
X020215Y011729*
X020212Y011737*
X020210Y011741*
X020207Y011749*
X020208Y011743*
X020207Y011749*
X020196Y011763*
X020186Y011770*
X020177Y011776*
X020166Y011780*
X020158Y011783*
X020150Y011786*
X020143Y011788*
X020126Y011790*
X020108Y011792*
X020090Y011794*
X020071Y011795*
X020054Y011797*
X020050*
X020044Y011798*
X020016*
X020001Y011799*
X019969*
X019936Y011799*
X019784Y011800*
X019761Y011800*
X019738Y011802*
X019718*
X019699Y011802*
X019682Y011803*
X019667Y011804*
X019653Y011805*
X019640Y011806*
X019630Y011808*
X019622*
X019618Y011808*
X019611Y011810*
X019606*
X019579Y011813*
X019554Y011819*
X019533Y011825*
X019525Y011827*
X019518Y011830*
X019511Y011833*
X019504Y011837*
X019497Y011839*
X019494Y011840*
X019485Y011844*
X019492Y011842*
X019477Y011853*
X019466Y011863*
X019458Y011873*
X019453Y011882*
X019448Y011892*
X019445Y011900*
X019441Y011910*
X019442Y011904*
X019439Y011921*
X019436Y011941*
X019434Y011963*
X019433Y011981*
X019432Y012000*
X019432Y012006*
Y012012*
Y012018*
Y012022*
Y012024*
Y012025*
Y012044*
X019432Y012063*
X019433Y012080*
X019435Y012095*
X019436Y012109*
X019438Y012119*
X019438Y012123*
X019439Y012129*
X019438Y012126*
X019442Y012141*
X019446Y012154*
X019452Y012166*
X019458Y012179*
X019462Y012187*
X019466Y012192*
X019472Y012198*
X019473Y012199*
X019482Y012207*
X019496Y012217*
X019511Y012226*
X019525Y012233*
X019539Y012238*
X019545Y012241*
X019552Y012243*
X019555Y012245*
X019559Y012246*
X019556Y012246*
X019559Y012246*
X019573Y012250*
X019585Y012253*
X019615Y012258*
X019645Y012262*
X019675Y012264*
X019688Y012265*
X019700Y012266*
X019713*
X019724Y012267*
X020118*
X020137Y012266*
X019530Y011490D02*
X020320D01*
X019470Y011540D02*
X020390D01*
X019450Y011590D02*
X020410D01*
X019440Y011640D02*
X019640D01*
X020220D02*
X020430D01*
X019440Y011690D02*
X019630D01*
X020230D02*
X020430D01*
X020220Y011740D02*
X020430D01*
X020100Y011790D02*
X020410D01*
X019500Y011840D02*
X020400D01*
X019460Y011890D02*
X020350D01*
X019450Y011940D02*
X019760D01*
X019440Y011990D02*
X019640D01*
X019440Y012040D02*
X019630D01*
X020200D02*
X020390D01*
X019450Y012090D02*
X019640D01*
X020190D02*
X020390D01*
X019450Y012140D02*
X020380D01*
X019480Y012190D02*
X020350D01*
X019560Y012240D02*
X020280D01*
X024019Y012576D02*
X024057Y012573D01*
X024088Y012569*
X024103Y012568*
X024114Y012566*
X024125Y012564*
X024134Y012563*
X024142Y012561*
X024143*
X024146Y012559*
X024153*
X024185Y012551*
X024213Y012544*
X024238Y012533*
X024262Y012523*
X024278Y012515*
X024291Y012508*
X024298Y012503*
X024300Y012502*
X024321Y012487*
X024340Y012468*
X024355Y012452*
X024367Y012436*
X024376Y012420*
X024383Y012407*
X024388Y012398*
X024387Y012403*
X024392Y012386*
X024397Y012373*
X024405Y012346*
X024410Y012319*
X024415Y012293*
X024416Y012270*
X024418Y012250*
Y012246*
Y012241*
Y012237*
Y012236*
Y012204*
X024415Y012176*
X024413Y012152*
X024410Y012132*
X024406Y012114*
X024405Y012105*
X024401Y012097*
Y012091*
X024396Y012076*
X024389Y012059*
X024383Y012045*
X024377Y012033*
X024371Y012023*
X024367Y012016*
X024367Y012017*
X024367Y012017*
X024344Y011992*
X024326Y011978*
X024317Y011973*
X024308Y011967*
X024304Y011965*
X024307Y011967*
X024280Y011955*
X024266Y011950*
X024252Y011945*
X024240Y011942*
X024234Y011939*
X024221Y011926*
X024195Y011886*
X024255Y011879*
X024277Y011874*
X024297Y011868*
X024315Y011862*
X024331Y011854*
X024346Y011846*
X024360Y011839*
X024372Y011831*
X024390Y011817*
X024403Y011806*
X024415Y011792*
X024408Y011794*
Y011803*
X024421Y011782*
X024430Y011767*
X024444Y011731*
X024453Y011694*
X024461Y011657*
X024464Y011624*
X024466Y011610*
Y011595*
X024468Y011584*
Y011578*
Y011573*
X024466Y011531*
X024463Y011496*
X024458Y011466*
X024451Y011440*
X024445Y011418*
X024441Y011404*
X024437Y011395*
X024436Y011389*
X024437Y011393*
X024424Y011368*
X024412Y011348*
X024398Y011331*
X024384Y011315*
X024372Y011303*
X024363Y011294*
X024356Y011288*
X024335Y011276*
X024314Y011265*
X024293Y011256*
X024272Y011250*
X024254Y011244*
X024239Y011241*
X024232Y011238*
X024232*
X024171Y011229*
X024144Y011227*
X024117Y011226*
X024094Y011225*
X022715*
Y012579*
X023977*
X024019Y012576*
X022720Y011240D02*
X024240D01*
X022720Y011290D02*
X024350D01*
X022720Y011340D02*
X024400D01*
X022720Y011390D02*
X024430D01*
X022720Y011440D02*
X024440D01*
X022720Y011490D02*
X024450D01*
X022720Y011540D02*
X024470D01*
X022720Y011590D02*
X024470D01*
X022720Y011640D02*
X024450D01*
X022720Y011690D02*
X024440D01*
X022720Y011740D02*
X024430D01*
X022720Y011790D02*
X024410D01*
X022720Y011840D02*
X024350D01*
X022720Y011890D02*
X024190D01*
X022720Y011940D02*
X024230D01*
X022720Y011990D02*
X024330D01*
X022720Y012040D02*
X024370D01*
X022720Y012090D02*
X024390D01*
X022720Y012140D02*
X024400D01*
X022720Y012190D02*
X024410D01*
X022720Y012240D02*
X024410D01*
X022720Y012290D02*
X024410D01*
X022720Y012340D02*
X024400D01*
X022720Y012390D02*
X024380D01*
X022720Y012440D02*
X024360D01*
X022720Y012490D02*
X024310D01*
X022720Y012540D02*
X024200D01*
X017734Y012256D02*
X017765Y012255D01*
X017778Y012254*
X017791Y012253*
X017802Y012251*
X017813Y012250*
X017822Y012248*
X017831Y012246*
X017840Y012245*
X017845Y012244*
X017849Y012243*
X017855Y012242*
X017877Y012235*
X017896Y012227*
X017913Y012220*
X017927Y012212*
X017938Y012205*
X017947Y012199*
X017950Y012197*
X017950Y012197*
X017964Y012183*
X017974Y012171*
X017984Y012157*
X017991Y012145*
X017995Y012134*
X018001Y012122*
X018001Y012122*
X018002Y012117*
X018002Y012121*
X018003Y012116*
X018008Y012095*
X018013Y012075*
X018016Y012054*
X018019Y012034*
X018020Y012019*
Y012010*
X018021Y012003*
Y012000*
Y011995*
Y011993*
Y011992*
Y011739*
X018020Y011712*
X018018Y011688*
X018015Y011667*
X018012Y011649*
X018010Y011642*
X018008Y011635*
X018006Y011627*
X018005Y011622*
X018004Y011619*
X018003Y011613*
X018004Y011617*
X017995Y011597*
X017988Y011581*
X017980Y011568*
X017971Y011558*
X017963Y011547*
X017957Y011541*
X017952Y011536*
X017950Y011535*
X017938Y011524*
X017923Y011516*
X017907Y011508*
X017891Y011502*
X017876Y011496*
X017871Y011494*
X017866Y011493*
X017861Y011492*
X017855Y011490*
X017859Y011490*
X017850Y011489*
X017831Y011485*
X017805Y011481*
X017779Y011478*
X017755Y011476*
X017743Y011476*
X017723*
X017714Y011475*
X016955*
Y012257*
X017701*
X017734Y012256*
X016960Y011490D02*
X017860D01*
X016960Y011540D02*
X017950D01*
X016960Y011590D02*
X017990D01*
X016960Y011640D02*
X018000D01*
X016960Y011690D02*
X018020D01*
X016960Y011740D02*
X018020D01*
X016960Y011790D02*
X018020D01*
X016960Y011840D02*
X018020D01*
X016960Y011890D02*
X018020D01*
X016960Y011940D02*
X018020D01*
X016960Y011990D02*
X018020D01*
X016960Y012040D02*
X018020D01*
X016960Y012090D02*
X018000D01*
X016960Y012140D02*
X017990D01*
X016960Y012190D02*
X017950D01*
X016960Y012240D02*
X017840D01*
X025157Y011535D02*
X026124D01*
Y011225*
X024775*
Y012579*
X025157*
Y011535*
G54D11*
X025107Y011485D02*
X026074D01*
Y011275*
X024825*
Y012529*
X025107*
Y011485*
G54D43*
X025007Y011385D02*
X025974D01*
Y011375*
X024925*
Y012429*
X025007*
Y011385*
X025020Y011380D02*
Y011370D01*
X025220Y011380D02*
Y011370D01*
X025420Y011380D02*
Y011370D01*
X025620Y011380D02*
Y011370D01*
X025820Y011380D02*
Y011370D01*
%LNbluesatpc104template-2*%
%LPC*%
G36*
X033128Y012277D02*
X032856Y011751D01*
X033407*
X033128Y012277*
G37*
G36*
X016206Y012089D02*
X016045Y011777D01*
X016371*
X016206Y012089*
G37*
G36*
X023893Y012267D02*
X023122D01*
Y012048*
X023884*
X023905Y012050*
X023925Y012052*
X023940Y012055*
X023953Y012060*
X023965Y012065*
X023972Y012068*
X023977Y012070*
X023978Y012071*
X023990Y012083*
X023998Y012095*
X024003Y012110*
X024008Y012123*
X024010Y012136*
X024011Y012146*
Y012153*
Y012156*
X024010Y012178*
X024006Y012196*
X024001Y012211*
X023995Y012223*
X023988Y012231*
X023983Y012237*
X023980Y012241*
X023978Y012242*
X023965Y012251*
X023950Y012257*
X023933Y012261*
X023918Y012264*
X023905Y012266*
X023893Y012267*
G37*
G36*
X023905Y011758D02*
X023122D01*
Y011537*
X023893*
X023918Y011539*
X023940Y011540*
X023960Y011544*
X023977Y011547*
X023990Y011550*
X023998Y011554*
X024005Y011557*
X024006*
X024021Y011567*
X024031Y011578*
X024040Y011592*
X024045Y011607*
X024048Y011618*
X024050Y011630*
Y011637*
Y011640*
X024048Y011665*
X024043Y011685*
X024036Y011701*
X024028Y011715*
X024020Y011723*
X024013Y011730*
X024008Y011733*
X024006Y011735*
X023990Y011743*
X023970Y011748*
X023952Y011753*
X023933Y011754*
X023918Y011756*
X023905Y011758*
G37*
G36*
X017652Y012076D02*
X017186D01*
Y011664*
X017652*
X017666Y011665*
X017678Y011666*
X017688Y011667*
X017697Y011668*
X017703Y011669*
X017707Y011670*
X017708*
X017718Y011673*
X017727Y011677*
X017735Y011680*
X017742Y011684*
X017748Y011688*
X017752Y011690*
X017754Y011692*
X017755Y011693*
X017761Y011700*
X017767Y011707*
X017774Y011722*
X017777Y011728*
X017779Y011733*
X017781Y011737*
Y011738*
X017784Y011750*
X017786Y011763*
X017788Y011775*
X017789Y011787*
X017790Y011797*
Y011805*
Y011811*
Y011813*
Y011925*
Y011941*
X017789Y011956*
X017787Y011969*
X017786Y011979*
X017784Y011987*
X017782Y011994*
X017781Y011998*
Y011999*
X017777Y012010*
X017773Y012019*
X017770Y012027*
X017765Y012033*
X017761Y012037*
X017758Y012041*
X017756Y012043*
X017755Y012044*
X017748Y012050*
X017740Y012055*
X017724Y012062*
X017717Y012065*
X017712Y012067*
X017709Y012068*
X017708*
X017697Y012071*
X017685Y012073*
X017673Y012074*
X017662Y012075*
X017652Y012076*
G37*
%LNbluesatpc104template-3*%
%LPD*%
G54D11*
X026715Y033850D02*
D01*
X026713Y033893*
X026708Y033936*
X026701Y033979*
X026690Y034022*
X026677Y034063*
X026660Y034104*
X026641Y034143*
X026620Y034181*
X026595Y034217*
X026568Y034251*
X026539Y034284*
X026508Y034314*
X026474Y034342*
X026439Y034368*
X026402Y034391*
X026363Y034411*
X026324Y034429*
X026283Y034444*
X026241Y034456*
X026198Y034465*
X026155Y034471*
X026111Y034474*
X026068*
X026024Y034471*
X025981Y034465*
X025938Y034456*
X025896Y034444*
X025855Y034429*
X025816Y034411*
X025777Y034391*
X025740Y034368*
X025705Y034342*
X025671Y034314*
X025640Y034284*
X025611Y034251*
X025584Y034217*
X025559Y034181*
X025538Y034143*
X025519Y034104*
X025502Y034063*
X025489Y034022*
X025478Y033979*
X025471Y033936*
X025466Y033893*
X025465Y033850*
X025466Y033806*
X025471Y033763*
X025478Y033720*
X025489Y033677*
X025502Y033636*
X025519Y033595*
X025538Y033556*
X025559Y033518*
X025584Y033482*
X025611Y033448*
X025640Y033415*
X025671Y033385*
X025705Y033357*
X025740Y033331*
X025777Y033308*
X025816Y033288*
X025855Y033270*
X025896Y033255*
X025938Y033243*
X025981Y033234*
X026024Y033228*
X026068Y033225*
X026111*
X026155Y033228*
X026198Y033234*
X026241Y033243*
X026283Y033255*
X026324Y033270*
X026363Y033288*
X026402Y033308*
X026439Y033331*
X026474Y033357*
X026508Y033385*
X026539Y033415*
X026568Y033448*
X026595Y033482*
X026620Y033518*
X026641Y033556*
X026660Y033595*
X026677Y033636*
X026690Y033677*
X026701Y033720*
X026708Y033763*
X026713Y033806*
X026715Y033850*
Y027850D02*
D01*
X026713Y027893*
X026708Y027936*
X026701Y027979*
X026690Y028022*
X026677Y028063*
X026660Y028104*
X026641Y028143*
X026620Y028181*
X026595Y028217*
X026568Y028251*
X026539Y028284*
X026508Y028314*
X026474Y028342*
X026439Y028368*
X026402Y028391*
X026363Y028411*
X026324Y028429*
X026283Y028444*
X026241Y028456*
X026198Y028465*
X026155Y028471*
X026111Y028474*
X026068*
X026024Y028471*
X025981Y028465*
X025938Y028456*
X025896Y028444*
X025855Y028429*
X025816Y028411*
X025777Y028391*
X025740Y028368*
X025705Y028342*
X025671Y028314*
X025640Y028284*
X025611Y028251*
X025584Y028217*
X025559Y028181*
X025538Y028143*
X025519Y028104*
X025502Y028063*
X025489Y028022*
X025478Y027979*
X025471Y027936*
X025466Y027893*
X025465Y027850*
X025466Y027806*
X025471Y027763*
X025478Y027720*
X025489Y027677*
X025502Y027636*
X025519Y027595*
X025538Y027556*
X025559Y027518*
X025584Y027482*
X025611Y027448*
X025640Y027415*
X025671Y027385*
X025705Y027357*
X025740Y027331*
X025777Y027308*
X025816Y027288*
X025855Y027270*
X025896Y027255*
X025938Y027243*
X025981Y027234*
X026024Y027228*
X026068Y027225*
X026111*
X026155Y027228*
X026198Y027234*
X026241Y027243*
X026283Y027255*
X026324Y027270*
X026363Y027288*
X026402Y027308*
X026439Y027331*
X026474Y027357*
X026508Y027385*
X026539Y027415*
X026568Y027448*
X026595Y027482*
X026620Y027518*
X026641Y027556*
X026660Y027595*
X026677Y027636*
X026690Y027677*
X026701Y027720*
X026708Y027763*
X026713Y027806*
X026715Y027850*
X034415Y024150D02*
D01*
X034413Y024193*
X034408Y024236*
X034401Y024279*
X034390Y024322*
X034377Y024363*
X034360Y024404*
X034341Y024443*
X034320Y024481*
X034295Y024517*
X034268Y024551*
X034239Y024584*
X034208Y024614*
X034174Y024642*
X034139Y024668*
X034102Y024691*
X034063Y024711*
X034024Y024729*
X033983Y024744*
X033941Y024756*
X033898Y024765*
X033855Y024771*
X033811Y024774*
X033768*
X033724Y024771*
X033681Y024765*
X033638Y024756*
X033596Y024744*
X033555Y024729*
X033516Y024711*
X033477Y024691*
X033440Y024668*
X033405Y024642*
X033371Y024614*
X033340Y024584*
X033311Y024551*
X033284Y024517*
X033259Y024481*
X033238Y024443*
X033219Y024404*
X033202Y024363*
X033189Y024322*
X033178Y024279*
X033171Y024236*
X033166Y024193*
X033165Y024150*
X033166Y024106*
X033171Y024063*
X033178Y024020*
X033189Y023977*
X033202Y023936*
X033219Y023895*
X033238Y023856*
X033259Y023818*
X033284Y023782*
X033311Y023748*
X033340Y023715*
X033371Y023685*
X033405Y023657*
X033440Y023631*
X033477Y023608*
X033516Y023588*
X033555Y023570*
X033596Y023555*
X033638Y023543*
X033681Y023534*
X033724Y023528*
X033768Y023525*
X033811*
X033855Y023528*
X033898Y023534*
X033941Y023543*
X033983Y023555*
X034024Y023570*
X034063Y023588*
X034102Y023608*
X034139Y023631*
X034174Y023657*
X034208Y023685*
X034239Y023715*
X034268Y023748*
X034295Y023782*
X034320Y023818*
X034341Y023856*
X034360Y023895*
X034377Y023936*
X034390Y023977*
X034401Y024020*
X034408Y024063*
X034413Y024106*
X034415Y024150*
X040415D02*
D01*
X040413Y024193*
X040408Y024236*
X040401Y024279*
X040390Y024322*
X040377Y024363*
X040360Y024404*
X040341Y024443*
X040320Y024481*
X040295Y024517*
X040268Y024551*
X040239Y024584*
X040208Y024614*
X040174Y024642*
X040139Y024668*
X040102Y024691*
X040063Y024711*
X040024Y024729*
X039983Y024744*
X039941Y024756*
X039898Y024765*
X039855Y024771*
X039811Y024774*
X039768*
X039724Y024771*
X039681Y024765*
X039638Y024756*
X039596Y024744*
X039555Y024729*
X039516Y024711*
X039477Y024691*
X039440Y024668*
X039405Y024642*
X039371Y024614*
X039340Y024584*
X039311Y024551*
X039284Y024517*
X039259Y024481*
X039238Y024443*
X039219Y024404*
X039202Y024363*
X039189Y024322*
X039178Y024279*
X039171Y024236*
X039166Y024193*
X039165Y024150*
X039166Y024106*
X039171Y024063*
X039178Y024020*
X039189Y023977*
X039202Y023936*
X039219Y023895*
X039238Y023856*
X039259Y023818*
X039284Y023782*
X039311Y023748*
X039340Y023715*
X039371Y023685*
X039405Y023657*
X039440Y023631*
X039477Y023608*
X039516Y023588*
X039555Y023570*
X039596Y023555*
X039638Y023543*
X039681Y023534*
X039724Y023528*
X039768Y023525*
X039811*
X039855Y023528*
X039898Y023534*
X039941Y023543*
X039983Y023555*
X040024Y023570*
X040063Y023588*
X040102Y023608*
X040139Y023631*
X040174Y023657*
X040208Y023685*
X040239Y023715*
X040268Y023748*
X040295Y023782*
X040320Y023818*
X040341Y023856*
X040360Y023895*
X040377Y023936*
X040390Y023977*
X040401Y024020*
X040408Y024063*
X040413Y024106*
X040415Y024150*
X012290Y030350D02*
D01*
X012307Y030350*
X012324Y030352*
X012341Y030355*
X012358Y030359*
X012375Y030365*
X012391Y030371*
X012407Y030379*
X012422Y030387*
X012436Y030397*
X012450Y030408*
X012463Y030420*
X012475Y030432*
X012487Y030446*
X012497Y030460*
X012506Y030475*
X012514Y030490*
X012521Y030506*
X012527Y030522*
X012532Y030539*
X012536Y030556*
X012538Y030573*
X012539Y030591*
Y030608*
X012538Y030626*
X012536Y030643*
X012532Y030660*
X012527Y030677*
X012521Y030693*
X012514Y030709*
X012506Y030725*
X012497Y030739*
X012487Y030753*
X012475Y030767*
X012463Y030779*
X012450Y030791*
X012436Y030802*
X012422Y030812*
X012407Y030820*
X012391Y030828*
X012375Y030834*
X012358Y030840*
X012341Y030844*
X012324Y030847*
X012307Y030849*
X012290Y030850*
X040240Y016200D02*
D01*
X040238Y016234*
X040235Y016269*
X040229Y016303*
X040220Y016337*
X040209Y016371*
X040196Y016403*
X040181Y016434*
X040164Y016464*
X040144Y016493*
X040123Y016521*
X040099Y016547*
X040074Y016571*
X040047Y016594*
X040019Y016614*
X039990Y016633*
X039959Y016649*
X039927Y016663*
X039894Y016675*
X039860Y016685*
X039826Y016692*
X039792Y016697*
X039757Y016699*
X039722*
X039687Y016697*
X039653Y016692*
X039619Y016685*
X039585Y016675*
X039552Y016663*
X039520Y016649*
X039490Y016633*
X039460Y016614*
X039432Y016594*
X039405Y016571*
X039380Y016547*
X039356Y016521*
X039335Y016493*
X039315Y016464*
X039298Y016434*
X039283Y016403*
X039270Y016371*
X039259Y016337*
X039250Y016303*
X039244Y016269*
X039241Y016234*
X039240Y016200*
X039241Y016165*
X039244Y016130*
X039250Y016096*
X039259Y016062*
X039270Y016028*
X039283Y015996*
X039298Y015965*
X039315Y015935*
X039335Y015906*
X039356Y015878*
X039380Y015852*
X039405Y015828*
X039432Y015805*
X039460Y015785*
X039490Y015766*
X039520Y015750*
X039552Y015736*
X039585Y015724*
X039619Y015714*
X039653Y015707*
X039687Y015702*
X039722Y015700*
X039757*
X039792Y015702*
X039826Y015707*
X039860Y015714*
X039894Y015724*
X039927Y015736*
X039959Y015750*
X039990Y015766*
X040019Y015785*
X040047Y015805*
X040074Y015828*
X040099Y015852*
X040123Y015878*
X040144Y015906*
X040164Y015935*
X040181Y015965*
X040196Y015996*
X040209Y016028*
X040220Y016062*
X040229Y016096*
X040235Y016130*
X040238Y016165*
X040240Y016200*
X035240D02*
D01*
X035238Y016234*
X035235Y016269*
X035229Y016303*
X035220Y016337*
X035209Y016371*
X035196Y016403*
X035181Y016434*
X035164Y016464*
X035144Y016493*
X035123Y016521*
X035099Y016547*
X035074Y016571*
X035047Y016594*
X035019Y016614*
X034990Y016633*
X034959Y016649*
X034927Y016663*
X034894Y016675*
X034860Y016685*
X034826Y016692*
X034792Y016697*
X034757Y016699*
X034722*
X034687Y016697*
X034653Y016692*
X034619Y016685*
X034585Y016675*
X034552Y016663*
X034520Y016649*
X034490Y016633*
X034460Y016614*
X034432Y016594*
X034405Y016571*
X034380Y016547*
X034356Y016521*
X034335Y016493*
X034315Y016464*
X034298Y016434*
X034283Y016403*
X034270Y016371*
X034259Y016337*
X034250Y016303*
X034244Y016269*
X034241Y016234*
X034240Y016200*
X034241Y016165*
X034244Y016130*
X034250Y016096*
X034259Y016062*
X034270Y016028*
X034283Y015996*
X034298Y015965*
X034315Y015935*
X034335Y015906*
X034356Y015878*
X034380Y015852*
X034405Y015828*
X034432Y015805*
X034460Y015785*
X034490Y015766*
X034520Y015750*
X034552Y015736*
X034585Y015724*
X034619Y015714*
X034653Y015707*
X034687Y015702*
X034722Y015700*
X034757*
X034792Y015702*
X034826Y015707*
X034860Y015714*
X034894Y015724*
X034927Y015736*
X034959Y015750*
X034990Y015766*
X035019Y015785*
X035047Y015805*
X035074Y015828*
X035099Y015852*
X035123Y015878*
X035144Y015906*
X035164Y015935*
X035181Y015965*
X035196Y015996*
X035209Y016028*
X035220Y016062*
X035229Y016096*
X035235Y016130*
X035238Y016165*
X035240Y016200*
X016140Y024100D02*
D01*
X016208Y024137*
X016274Y024179*
X016336Y024225*
X016396Y024276*
X016451Y024331*
X016503Y024389*
X016550Y024451*
X016593Y024516*
X016632Y024584*
X016665Y024655*
X016694Y024727*
X016717Y024802*
X016735Y024878*
X016748Y024955*
X016756Y025033*
X016757Y025111*
X016754Y025188*
X016745Y025266*
X016731Y025343*
X016711Y025418*
X016686Y025492*
X016656Y025564*
X016621Y025634*
X016582Y025701*
X016537Y025766*
X016489Y025827*
X016436Y025884*
X016379Y025938*
X016319Y025987*
X016256Y026033*
X016189Y026073*
X016120Y026109*
X016048Y026140*
X015974Y026166*
X015899Y026187*
X015823Y026202*
X015745Y026213*
X015667Y026217*
X015589Y026216*
X015512Y026210*
X015435Y026199*
X015358Y026182*
X015284Y026159*
X015210Y026132*
X015140Y026100*
X015071Y026062*
X015005Y026020*
X014943Y025974*
X014883Y025923*
X014828Y025868*
X014776Y025810*
X014729Y025748*
X014686Y025683*
X014647Y025615*
X014614Y025544*
X014585Y025472*
X014562Y025397*
X014544Y025321*
X014531Y025244*
X014523Y025166*
X014522Y025088*
X014525Y025011*
X014534Y024933*
X014548Y024856*
X014568Y024781*
X014593Y024707*
X014623Y024635*
X014658Y024565*
X014697Y024498*
X014742Y024433*
X014790Y024372*
X014843Y024315*
X014900Y024261*
X014960Y024212*
X015023Y024166*
X015090Y024126*
X015140Y024100*
X019040D02*
D01*
X019108Y024137*
X019174Y024179*
X019236Y024225*
X019296Y024276*
X019351Y024331*
X019403Y024389*
X019450Y024451*
X019493Y024516*
X019532Y024584*
X019565Y024655*
X019594Y024727*
X019617Y024802*
X019635Y024878*
X019648Y024955*
X019656Y025033*
X019657Y025111*
X019654Y025188*
X019645Y025266*
X019631Y025343*
X019611Y025418*
X019586Y025492*
X019556Y025564*
X019521Y025634*
X019482Y025701*
X019437Y025766*
X019389Y025827*
X019336Y025884*
X019279Y025938*
X019219Y025987*
X019156Y026033*
X019089Y026073*
X019020Y026109*
X018948Y026140*
X018874Y026166*
X018799Y026187*
X018723Y026202*
X018645Y026213*
X018567Y026217*
X018489Y026216*
X018412Y026210*
X018335Y026199*
X018258Y026182*
X018184Y026159*
X018110Y026132*
X018040Y026100*
X017971Y026062*
X017905Y026020*
X017843Y025974*
X017783Y025923*
X017728Y025868*
X017676Y025810*
X017629Y025748*
X017586Y025683*
X017547Y025615*
X017514Y025544*
X017485Y025472*
X017462Y025397*
X017444Y025321*
X017431Y025244*
X017423Y025166*
X017422Y025088*
X017425Y025011*
X017434Y024933*
X017448Y024856*
X017468Y024781*
X017493Y024707*
X017523Y024635*
X017558Y024565*
X017597Y024498*
X017642Y024433*
X017690Y024372*
X017743Y024315*
X017800Y024261*
X017860Y024212*
X017923Y024166*
X017990Y024126*
X018040Y024100*
X013840Y011200D02*
X022090D01*
X025090Y034850D02*
X031090D01*
Y026850D02*
Y034850D01*
X025090Y026850D02*
X031090D01*
X025090D02*
Y034850D01*
X040790Y023150D02*
Y028900D01*
X032790Y023150D02*
X040790D01*
X032790D02*
Y028900D01*
X040790*
X012290Y028450D02*
Y030350D01*
Y030850D02*
Y032750D01*
X024290*
Y028450D02*
Y032750D01*
X012290Y028450D02*
X024290D01*
X013840Y010350D02*
Y012550D01*
Y010350D02*
X022090D01*
X019040D02*
Y011150D01*
X032040Y029700D02*
Y044700D01*
Y029700D02*
X040790D01*
Y044700*
X032040D02*
X040790D01*
X040740Y015200D02*
Y022200D01*
X033740Y015200D02*
X040740D01*
X033740D02*
Y022200D01*
X040740*
X031140Y035700D02*
Y044700D01*
X014640Y035700D02*
X031140D01*
X014640D02*
Y044700D01*
X031140*
X010390Y035700D02*
Y037200D01*
Y035700D02*
X014390D01*
X010390Y037200D02*
X014390D01*
Y035700D02*
Y037200D01*
X011340Y024200D02*
X013340D01*
X011340D02*
Y026200D01*
X013340*
X011840Y024700D02*
X012840D01*
X013340Y024200D02*
Y026200D01*
X011840Y025700D02*
X012840D01*
X015140Y024100D02*
X016140D01*
X018040D02*
X019040D01*
X022090Y010350D02*
Y012550D01*
X013840D02*
X022090D01*
X028580Y032925D02*
X029179D01*
X028979Y032725*
X029179Y032526*
X028580*
Y032326D02*
X029179D01*
Y032026*
X029079Y031926*
X028879*
X028780Y032026*
Y032326*
X029179Y031726D02*
X028680D01*
X028580Y031626*
Y031426*
X028680Y031326*
X029179*
Y030726D02*
X029079Y030926D01*
X028879Y031126*
X028680*
X028580Y031026*
Y030826*
X028680Y030726*
X028780*
X028879Y030826*
Y031126*
X029079Y030526D02*
X029179Y030426D01*
Y030226*
X029079Y030126*
X028680*
X028580Y030226*
Y030426*
X028680Y030526*
X029079*
X029179Y029526D02*
Y029926D01*
X028879*
X028979Y029726*
Y029626*
X028879Y029526*
X028680*
X028580Y029626*
Y029826*
X028680Y029926*
X029079Y029327D02*
X029179Y029227D01*
Y029027*
X029079Y028927*
X028680*
X028580Y029027*
Y029227*
X028680Y029327*
X029079*
X027620Y034375D02*
X028020D01*
X028220Y034175*
X028020Y033975*
X027620*
X027920*
Y034375*
X028020Y033375D02*
Y033675D01*
X027920Y033775*
X027720*
X027620Y033675*
Y033375*
X028020Y032775D02*
Y033075D01*
X027920Y033175*
X027720*
X027620Y033075*
Y032775*
Y032276D02*
Y032476D01*
X027720Y032576*
X027920*
X028020Y032476*
Y032276*
X027920Y032176*
X027820*
Y032576*
X027620Y031976D02*
Y031776D01*
Y031876*
X028220*
Y031976*
X027920Y030876D02*
Y030476D01*
X028120Y030676D02*
X027720D01*
X028120Y029277D02*
X028220Y029377D01*
Y029576*
X028120Y029676*
X027720*
X027620Y029576*
Y029377*
X027720Y029277*
X027920*
Y029476*
X028020Y029077D02*
X027720D01*
X027620Y028977*
Y028677*
X027520*
X027420Y028777*
Y028877*
X027620Y028677D02*
X028020D01*
Y028477D02*
X027620D01*
X027820*
X027920Y028377*
X028020Y028277*
Y028177*
X027620Y027777D02*
Y027577D01*
X027720Y027477*
X027920*
X028020Y027577*
Y027777*
X027920Y027877*
X027720*
X027620Y027777*
X033690Y026460D02*
Y027060D01*
X033890Y026860*
X034090Y027060*
Y026460*
X034290D02*
Y027060D01*
X034590*
X034690Y026960*
Y026760*
X034590Y026660*
X034290*
X034890Y027060D02*
Y026560D01*
X034990Y026460*
X035189*
X035289Y026560*
Y027060*
X035489Y026560D02*
X035589Y026460D01*
X035789*
X035889Y026560*
Y026960*
X035789Y027060*
X035589*
X035489Y026960*
Y026860*
X035589Y026760*
X035889*
X036489Y026460D02*
X036089D01*
X036489Y026860*
Y026960*
X036389Y027060*
X036189*
X036089Y026960*
X037089Y027060D02*
X036689D01*
Y026760*
X036889Y026860*
X036989*
X037089Y026760*
Y026560*
X036989Y026460*
X036789*
X036689Y026560*
X037289Y026960D02*
X037389Y027060D01*
X037589*
X037689Y026960*
Y026560*
X037589Y026460*
X037389*
X037289Y026560*
Y026960*
X038488Y027060D02*
X038688D01*
X038588*
Y026460*
X038488*
X038688*
X038988D02*
Y027060D01*
X039188Y026860*
X039388Y027060*
Y026460*
X039588Y027060D02*
Y026560D01*
X039688Y026460*
X039888*
X039988Y026560*
Y027060*
X033640Y026100D02*
Y025500D01*
X033940*
X034040Y025600*
Y025700*
X033940Y025800*
X033640*
X033940*
X034040Y025900*
Y026000*
X033940Y026100*
X033640*
X034240Y025500D02*
Y026100D01*
X034440Y025900*
X034640Y026100*
Y025500*
X034840D02*
Y026100D01*
X035140*
X035239Y026000*
Y025800*
X035140Y025700*
X034840*
X035839Y025500D02*
X035439D01*
X035839Y025900*
Y026000*
X035739Y026100*
X035539*
X035439Y026000*
X036039D02*
X036139Y026100D01*
X036339*
X036439Y026000*
Y025900*
X036339Y025800*
X036439Y025700*
Y025600*
X036339Y025500*
X036139*
X036039Y025600*
Y025700*
X036139Y025800*
X036039Y025900*
Y026000*
X036139Y025800D02*
X036339D01*
X036639Y026000D02*
X036739Y026100D01*
X036939*
X037039Y026000*
Y025600*
X036939Y025500*
X036739*
X036639Y025600*
Y026000*
X037839Y026100D02*
X038239D01*
X038039*
Y025500*
X038438D02*
X038838Y025900D01*
X039038Y025500D02*
Y026100D01*
X039338*
X039438Y026000*
Y025800*
X039338Y025700*
X039038*
X039738Y025900D02*
X039938D01*
X040038Y025800*
Y025500*
X039738*
X039638Y025600*
X039738Y025700*
X040038*
X019340Y010608D02*
Y010943D01*
X019452Y010831*
X019563Y010943*
Y010608*
X019730Y010831D02*
X019842D01*
X019898Y010775*
Y010608*
X019730*
X019675Y010664*
X019730Y010719*
X019898*
X020009Y010831D02*
Y010608D01*
Y010719*
X020065Y010775*
X020121Y010831*
X020176*
X020344Y010608D02*
Y010943D01*
Y010719D02*
X020511Y010831D01*
X020344Y010719D02*
X020511Y010608D01*
X021013Y010943D02*
Y010887D01*
X021124Y010775*
X021236Y010887*
Y010943*
X021124Y010775D02*
Y010608D01*
X021514D02*
X021403D01*
X021347Y010664*
Y010775*
X021403Y010831*
X021514*
X021570Y010775*
Y010719*
X021347*
X021738Y010608D02*
X021849D01*
X021905Y010664*
Y010775*
X021849Y010831*
X021738*
X021682Y010775*
Y010664*
X021738Y010608*
X014266Y010851D02*
X014210Y010907D01*
X014098*
X014042Y010851*
Y010795*
X014098Y010740*
X014210*
X014266Y010684*
Y010628*
X014210Y010572*
X014098*
X014042Y010628*
X014600Y010907D02*
X014377D01*
Y010572*
X014600*
X014377Y010740D02*
X014489D01*
X014712Y010572D02*
Y010907D01*
X014935Y010572*
Y010907*
X015269Y010851D02*
X015213Y010907D01*
X015102*
X015046Y010851*
Y010795*
X015102Y010740*
X015213*
X015269Y010684*
Y010628*
X015213Y010572*
X015102*
X015046Y010628*
X015548Y010907D02*
X015436D01*
X015381Y010851*
Y010628*
X015436Y010572*
X015548*
X015604Y010628*
Y010851*
X015548Y010907*
X015715Y010572D02*
Y010907D01*
X015882*
X015938Y010851*
Y010740*
X015882Y010684*
X015715*
X015827D02*
X015938Y010572D01*
X016384Y010907D02*
Y010572D01*
X016552*
X016607Y010628*
Y010684*
X016552Y010740*
X016384*
X016552*
X016607Y010795*
Y010851*
X016552Y010907*
X016384*
X016886D02*
X016775D01*
X016719Y010851*
Y010628*
X016775Y010572*
X016886*
X016942Y010628*
Y010851*
X016886Y010907*
X017053Y010572D02*
Y010795D01*
X017165Y010907*
X017276Y010795*
Y010572*
Y010740*
X017053*
X017388Y010572D02*
Y010907D01*
X017555*
X017611Y010851*
Y010740*
X017555Y010684*
X017388*
X017499D02*
X017611Y010572D01*
X017722Y010907D02*
Y010572D01*
X017890*
X017945Y010628*
Y010851*
X017890Y010907*
X017722*
X018391D02*
Y010684D01*
X018503Y010572*
X018614Y010684*
Y010907*
X018726Y010572D02*
X018838D01*
X018782*
Y010907*
X018726Y010851*
X034939Y038210D02*
Y037610D01*
X035239*
X035339Y037710*
Y038110*
X035239Y038210*
X034939*
X035939Y038110D02*
X035839Y038210D01*
X035639*
X035539Y038110*
Y038010*
X035639Y037910*
X035839*
X035939Y037810*
Y037710*
X035839Y037610*
X035639*
X035539Y037710*
X036139Y038110D02*
X036239Y038210D01*
X036439*
X036539Y038110*
Y038010*
X036439Y037910*
X036339*
X036439*
X036539Y037810*
Y037710*
X036439Y037610*
X036239*
X036139Y037710*
X037139Y037610D02*
X036739D01*
X037139Y038010*
Y038110*
X037039Y038210*
X036839*
X036739Y038110*
X037339D02*
X037439Y038210D01*
X037639*
X037738Y038110*
Y038010*
X037639Y037910*
X037539*
X037639*
X037738Y037810*
Y037710*
X037639Y037610*
X037439*
X037339Y037710*
X037938Y037610D02*
X038138D01*
X038038*
Y038210*
X037938Y038110*
X034639Y036650D02*
Y037250D01*
X034939*
X035039Y037150*
Y036950*
X034939Y036850*
X034639*
X034839D02*
X035039Y036650D01*
X035239Y037250D02*
X035639D01*
X035439*
Y036650*
X036239Y037150D02*
X036139Y037250D01*
X035939*
X035839Y037150*
Y036750*
X035939Y036650*
X036139*
X036239Y036750*
X036439Y036650D02*
X036639D01*
X036539*
Y037250*
X036439*
X037039Y036650D02*
X037239D01*
X037339Y036750*
Y036950*
X037239Y037050*
X037039*
X036939Y036950*
Y036750*
X037039Y036650*
X037938Y037050D02*
X037639D01*
X037539Y036950*
Y036750*
X037639Y036650*
X037938*
X038138D02*
Y037250D01*
Y036850D02*
X038438Y037050D01*
X038138Y036850D02*
X038438Y036650D01*
X035140Y019460D02*
Y018860D01*
Y019160*
X035540*
Y019460*
Y018860*
X035740D02*
Y019460D01*
X035940Y019260*
X036140Y019460*
Y018860*
X036739Y019360D02*
X036640Y019460D01*
X036440*
X036340Y019360*
Y018960*
X036440Y018860*
X036640*
X036739Y018960*
X037339Y019460D02*
X036939D01*
Y019160*
X037139Y019260*
X037239*
X037339Y019160*
Y018960*
X037239Y018860*
X037039*
X036939Y018960*
X037539Y019360D02*
X037639Y019460D01*
X037839*
X037939Y019360*
Y019260*
X037839Y019160*
X037939Y019060*
Y018960*
X037839Y018860*
X037639*
X037539Y018960*
Y019060*
X037639Y019160*
X037539Y019260*
Y019360*
X037639Y019160D02*
X037839D01*
X038139Y019360D02*
X038239Y019460D01*
X038439*
X038539Y019360*
Y019260*
X038439Y019160*
X038539Y019060*
Y018960*
X038439Y018860*
X038239*
X038139Y018960*
Y019060*
X038239Y019160*
X038139Y019260*
Y019360*
X038239Y019160D02*
X038439D01*
X038739Y019360D02*
X038839Y019460D01*
X039039*
X039139Y019360*
Y019260*
X039039Y019160*
X038939*
X039039*
X039139Y019060*
Y018960*
X039039Y018860*
X038839*
X038739Y018960*
X039339Y019460D02*
Y018860D01*
X039739*
X035840Y018400D02*
X035740Y018500D01*
X035540*
X035440Y018400*
Y018000*
X035540Y017900*
X035740*
X035840Y018000*
X036140Y017900D02*
X036340D01*
X036440Y018000*
Y018200*
X036340Y018300*
X036140*
X036040Y018200*
Y018000*
X036140Y017900*
X036640D02*
Y018300D01*
X036739*
X036839Y018200*
Y017900*
Y018200*
X036939Y018300*
X037039Y018200*
Y017900*
X037239Y017700D02*
Y018300D01*
X037539*
X037639Y018200*
Y018000*
X037539Y017900*
X037239*
X037939Y018300D02*
X038139D01*
X038239Y018200*
Y017900*
X037939*
X037839Y018000*
X037939Y018100*
X038239*
X038439Y017900D02*
X038739D01*
X038839Y018000*
X038739Y018100*
X038539*
X038439Y018200*
X038539Y018300*
X038839*
X039039Y017900D02*
X039339D01*
X039439Y018000*
X039339Y018100*
X039139*
X039039Y018200*
X039139Y018300*
X039439*
X019440Y040460D02*
Y040860D01*
X019540*
X019640Y040760*
Y040460*
Y040760*
X019740Y040860*
X019840Y040760*
Y040460*
X020040D02*
X020240D01*
X020140*
Y040860*
X020040*
X020940D02*
X020640D01*
X020540Y040760*
Y040560*
X020640Y040460*
X020940*
X021139Y040860D02*
Y040460D01*
Y040660*
X021239Y040760*
X021339Y040860*
X021439*
X021839Y040460D02*
X022039D01*
X022139Y040560*
Y040760*
X022039Y040860*
X021839*
X021739Y040760*
Y040560*
X021839Y040460*
X022739Y040960D02*
X022639Y041060D01*
X022439*
X022339Y040960*
Y040860*
X022439Y040760*
X022639*
X022739Y040660*
Y040560*
X022639Y040460*
X022439*
X022339Y040560*
X022939Y041060D02*
Y040460D01*
X023239*
X023339Y040560*
Y040960*
X023239Y041060*
X022939*
X024538Y040960D02*
X024438Y041060D01*
X024238*
X024138Y040960*
Y040560*
X024238Y040460*
X024438*
X024538Y040560*
X024838Y040860D02*
X025038D01*
X025138Y040760*
Y040460*
X024838*
X024738Y040560*
X024838Y040660*
X025138*
X025338Y040860D02*
Y040460D01*
Y040660*
X025438Y040760*
X025538Y040860*
X025638*
X026338Y041060D02*
Y040460D01*
X026038*
X025938Y040560*
Y040760*
X026038Y040860*
X026338*
X021239Y039500D02*
Y040100D01*
X021439Y039900*
X021639Y040100*
Y039500*
X021939D02*
X022139D01*
X022239Y039600*
Y039800*
X022139Y039900*
X021939*
X021839Y039800*
Y039600*
X021939Y039500*
X022839Y040100D02*
Y039500D01*
X022539*
X022439Y039600*
Y039800*
X022539Y039900*
X022839*
X023039D02*
Y039600D01*
X023139Y039500*
X023439*
Y039900*
X023639Y039500D02*
X023839D01*
X023739*
Y040100*
X023639*
X024438Y039500D02*
X024238D01*
X024138Y039600*
Y039800*
X024238Y039900*
X024438*
X024538Y039800*
Y039700*
X024138*
X015540Y034600D02*
Y035200D01*
X015840*
X015940Y035100*
Y034900*
X015840Y034800*
X015540*
X015740D02*
X015940Y034600D01*
X016140D02*
Y035000D01*
X016340Y035200*
X016540Y035000*
Y034600*
Y034900*
X016140*
X016740Y035200D02*
Y034600D01*
X016940Y034800*
X017139Y034600*
Y035200*
X017639Y034600D02*
X017339Y034900D01*
X017639Y035200*
X017939Y034600D02*
X018239Y034900D01*
X017939Y035200*
X018839D02*
X018439D01*
Y034900*
X018639Y035000*
X018739*
X018839Y034900*
Y034700*
X018739Y034600*
X018539*
X018439Y034700*
X019039Y035200D02*
Y034800D01*
X019239Y034600*
X019439Y034800*
Y035200*
X020370Y026130D02*
Y026730D01*
X020670*
X020770Y026630*
Y026430*
X020670Y026330*
X020370*
X020570D02*
X020770Y026130D01*
X021370Y026730D02*
X020970D01*
Y026430*
X021170Y026530*
X021270*
X021370Y026430*
Y026230*
X021270Y026130*
X021070*
X020970Y026230*
X021670Y026120D02*
Y026720D01*
X021970*
X022070Y026620*
Y026420*
X021970Y026320*
X021670*
X021870D02*
X022070Y026120D01*
X022570D02*
Y026720D01*
X022270Y026420*
X022670*
X017740Y025450D02*
Y024850D01*
X018140*
X019339D02*
X018940D01*
X019339Y025250*
Y025350*
X019240Y025450*
X019040*
X018940Y025350*
X014890Y025400D02*
Y024800D01*
X015290*
X016090D02*
X016290D01*
X016190*
Y025400*
X016090Y025300*
X010790Y038050D02*
X010590D01*
X010490Y037950*
Y037550*
X010590Y037450*
X010790*
X010890Y037550*
Y037950*
X010790Y038050*
X011090Y037450D02*
Y038050D01*
X011490Y037450*
Y038050*
X011990Y037450D02*
X011690Y037750D01*
X011990Y038050*
X012289Y037450D02*
X012589Y037750D01*
X012289Y038050*
X013089D02*
X012889D01*
X012789Y037950*
Y037550*
X012889Y037450*
X013089*
X013189Y037550*
Y037950*
X013089Y038050*
X013789D02*
X013389D01*
Y037750*
X013589*
X013389*
Y037450*
X014389Y038050D02*
X013989D01*
Y037750*
X014189*
X013989*
Y037450*
X022970Y026120D02*
Y026720D01*
X023270*
X023370Y026620*
Y026420*
X023270Y026320*
X022970*
X023170D02*
X023370Y026120D01*
X023570Y026620D02*
X023670Y026720D01*
X023870*
X023970Y026620*
Y026520*
X023870Y026420*
X023770*
X023870*
X023970Y026320*
Y026220*
X023870Y026120*
X023670*
X023570Y026220*
X026870Y026120D02*
Y026720D01*
X027170*
X027270Y026620*
Y026420*
X027170Y026320*
X026870*
X027070D02*
X027270Y026120D01*
X027870D02*
X027470D01*
X027870Y026520*
Y026620*
X027770Y026720*
X027570*
X027470Y026620*
X028160Y026120D02*
Y026720D01*
X028460*
X028560Y026620*
Y026420*
X028460Y026320*
X028160*
X028360D02*
X028560Y026120D01*
X028760D02*
X028960D01*
X028860*
Y026720*
X028760Y026620*
X011690Y024900D02*
Y025500D01*
X011990*
X012090Y025400*
Y025200*
X011990Y025100*
X011690*
X012290Y025500D02*
Y024900D01*
X012590*
X012690Y025000*
Y025100*
X012590Y025200*
X012290*
X012590*
X012690Y025300*
Y025400*
X012590Y025500*
X012290*
X012890Y024900D02*
X013090D01*
X012990*
Y025500*
X012890Y025400*
X015090Y044250D02*
Y043750D01*
X015190Y043650*
X015390*
X015490Y043750*
Y044250*
X016090D02*
X015890Y044150D01*
X015690Y043950*
Y043750*
X015790Y043650*
X015990*
X016090Y043750*
Y043850*
X015990Y043950*
X015690*
X025390Y032850D02*
Y032350D01*
X025490Y032250*
X025690*
X025790Y032350*
Y032850*
X026390D02*
X025990D01*
Y032550*
X026190Y032650*
X026290*
X026390Y032550*
Y032350*
X026290Y032250*
X026090*
X025990Y032350*
X033040Y027950D02*
Y027450D01*
X033140Y027350*
X033340*
X033440Y027450*
Y027950*
X033940Y027350D02*
Y027950D01*
X033640Y027650*
X034040*
X046240Y040450D02*
Y039850D01*
Y040150*
X046640*
Y040450*
Y039850*
X047240D02*
X046840D01*
X047240Y040250*
Y040350*
X047140Y040450*
X046940*
X046840Y040350*
X041240Y040450D02*
Y039850D01*
Y040150*
X041640*
Y040450*
Y039850*
X041840D02*
X042040D01*
X041940*
Y040450*
X041840Y040350*
X034040Y020350D02*
Y019850D01*
X034140Y019750*
X034340*
X034440Y019850*
Y020350*
X035040Y019750D02*
X034640D01*
X035040Y020150*
Y020250*
X034940Y020350*
X034740*
X034640Y020250*
X012590Y032500D02*
Y032000D01*
X012690Y031900*
X012890*
X012990Y032000*
Y032500*
X013190Y032400D02*
X013290Y032500D01*
X013490*
X013590Y032400*
Y032300*
X013490Y032200*
X013390*
X013490*
X013590Y032100*
Y032000*
X013490Y031900*
X013290*
X013190Y032000*
X032240Y044500D02*
Y044000D01*
X032340Y043900*
X032540*
X032640Y044000*
Y044500*
X032840Y043900D02*
X033040D01*
X032940*
Y044500*
X032840Y044400*
X010390Y016150D02*
X010990D01*
Y015850*
X010890Y015750*
X010690*
X010590Y015850*
Y016150*
X010990Y015550D02*
X010390D01*
X010590Y015350*
X010390Y015150*
X010990*
X010390Y014950D02*
X010990D01*
Y014650*
X010890Y014551*
X010690*
X010590Y014650*
Y014950*
Y014750D02*
X010390Y014551D01*
X025560Y026120D02*
Y026720D01*
X025860*
X025960Y026620*
Y026420*
X025860Y026320*
X025560*
X025760D02*
X025960Y026120D01*
X026560Y026720D02*
X026360Y026620D01*
X026160Y026420*
Y026220*
X026260Y026120*
X026460*
X026560Y026220*
Y026320*
X026460Y026420*
X026160*
X024260Y026120D02*
Y026720D01*
X024560*
X024660Y026620*
Y026420*
X024560Y026320*
X024260*
X024460D02*
X024660Y026120D01*
X024860Y026720D02*
X025260D01*
Y026620*
X024860Y026220*
Y026120*
X010940Y013850D02*
X010840Y013950D01*
X010640*
X010540Y013850*
Y013450*
X010640Y013350*
X010840*
X010940Y013450*
Y013650*
X010740*
X011140Y013350D02*
Y013950D01*
X011540Y013350*
Y013950*
X011740D02*
Y013350D01*
X012040*
X012139Y013450*
Y013850*
X012040Y013950*
X011740*
X013340Y030350D02*
Y030750D01*
X013540Y030950*
X013740Y030750*
Y030350*
Y030650*
X013340*
X013940Y030750D02*
Y030350D01*
Y030550*
X014040Y030650*
X014140Y030750*
X014240*
X014939Y030950D02*
Y030350D01*
X014640*
X014540Y030450*
Y030650*
X014640Y030750*
X014939*
X015139D02*
Y030450D01*
X015239Y030350*
X015539*
Y030750*
X015739Y030350D02*
X015939D01*
X015839*
Y030750*
X015739*
X016239Y030350D02*
Y030750D01*
X016539*
X016639Y030650*
Y030350*
X016939D02*
X017139D01*
X017239Y030450*
Y030650*
X017139Y030750*
X016939*
X016839Y030650*
Y030450*
X016939Y030350*
X018038D02*
Y030950D01*
X018338*
X018438Y030850*
Y030650*
X018338Y030550*
X018038*
X018638Y030750D02*
Y030350D01*
Y030550*
X018738Y030650*
X018838Y030750*
X018938*
X019338Y030350D02*
X019538D01*
X019638Y030450*
Y030650*
X019538Y030750*
X019338*
X019238Y030650*
Y030450*
X019338Y030350*
X020438D02*
Y030950D01*
X020638Y030750*
X020838Y030950*
Y030350*
X021038D02*
X021237D01*
X021137*
Y030750*
X021038*
X021937D02*
X021637D01*
X021537Y030650*
Y030450*
X021637Y030350*
X021937*
X022137Y030750D02*
Y030350D01*
Y030550*
X022237Y030650*
X022337Y030750*
X022437*
X022837Y030350D02*
X023037D01*
X023137Y030450*
Y030650*
X023037Y030750*
X022837*
X022737Y030650*
Y030450*
X022837Y030350*
X022940Y010922D02*
Y010529D01*
X023019Y010450*
X023176*
X023255Y010529*
Y010922*
X023412Y010450D02*
Y010922D01*
X023727Y010450*
Y010922*
X024199Y010844D02*
X024121Y010922D01*
X023963*
X023885Y010844*
Y010765*
X023963Y010686*
X024121*
X024199Y010607*
Y010529*
X024121Y010450*
X023963*
X023885Y010529*
X024357Y010922D02*
Y010450D01*
X024514Y010607*
X024672Y010450*
Y010922*
X025616Y010844D02*
X025538Y010922D01*
X025380*
X025301Y010844*
Y010765*
X025380Y010686*
X025538*
X025616Y010607*
Y010529*
X025538Y010450*
X025380*
X025301Y010529*
X025774Y010922D02*
X026089D01*
X025931*
Y010450*
X026246Y010922D02*
Y010529D01*
X026325Y010450*
X026482*
X026561Y010529*
Y010922*
X026718D02*
Y010450D01*
X026954*
X027033Y010529*
Y010844*
X026954Y010922*
X026718*
X027505D02*
X027191D01*
Y010450*
X027505*
X027191Y010686D02*
X027348D01*
X027663Y010450D02*
Y010922D01*
X027978Y010450*
Y010922*
X028135D02*
X028450D01*
X028293*
Y010450*
X029395Y010844D02*
X029316Y010922D01*
X029158*
X029080Y010844*
Y010765*
X029158Y010686*
X029316*
X029395Y010607*
Y010529*
X029316Y010450*
X029158*
X029080Y010529*
X029552Y010450D02*
Y010922D01*
X029788*
X029867Y010844*
Y010686*
X029788Y010607*
X029552*
X030024Y010450D02*
Y010765D01*
X030182Y010922*
X030339Y010765*
Y010450*
Y010686*
X030024*
X030811Y010844D02*
X030733Y010922D01*
X030575*
X030497Y010844*
Y010529*
X030575Y010450*
X030733*
X030811Y010529*
X031284Y010922D02*
X030969D01*
Y010450*
X031284*
X030969Y010686D02*
X031126D01*
X031913Y010450D02*
Y010922D01*
X032150*
X032228Y010844*
Y010686*
X032150Y010607*
X031913*
X032386Y010450D02*
Y010922D01*
X032622*
X032701Y010844*
Y010686*
X032622Y010607*
X032386*
X032543D02*
X032701Y010450D01*
X033094Y010922D02*
X032937D01*
X032858Y010844*
Y010529*
X032937Y010450*
X033094*
X033173Y010529*
Y010844*
X033094Y010922*
X033645D02*
X033488D01*
X033566*
Y010529*
X033488Y010450*
X033409*
X033330Y010529*
X034117Y010922D02*
X033803D01*
Y010450*
X034117*
X033803Y010686D02*
X033960D01*
X034590Y010844D02*
X034511Y010922D01*
X034354*
X034275Y010844*
Y010529*
X034354Y010450*
X034511*
X034590Y010529*
X034747Y010922D02*
X035062D01*
X034905*
Y010450*
G54D24*
X012987Y026498D02*
D01*
X012986Y026508*
X012985Y026519*
X012983Y026530*
X012980Y026541*
X012977Y026551*
X012973Y026561*
X012968Y026571*
X012963Y026581*
X012957Y026590*
X012950Y026598*
X012942Y026607*
X012935Y026614*
X012926Y026621*
X012917Y026628*
X012908Y026633*
X012898Y026639*
X012888Y026643*
X012878Y026647*
X012867Y026650*
X012857Y026652*
X012846Y026654*
X012835Y026654*
X012824*
X012813Y026654*
X012802Y026652*
X012792Y026650*
X012781Y026647*
X012771Y026643*
X012761Y026639*
X012751Y026633*
X012742Y026628*
X012733Y026621*
X012724Y026614*
X012717Y026607*
X012709Y026598*
X012702Y026590*
X012696Y026581*
X012691Y026571*
X012686Y026561*
X012682Y026551*
X012679Y026541*
X012676Y026530*
X012674Y026519*
X012673Y026508*
X012673Y026498*
X012673Y026487*
X012674Y026476*
X012676Y026465*
X012679Y026454*
X012682Y026444*
X012686Y026434*
X012691Y026424*
X012696Y026414*
X012702Y026405*
X012709Y026397*
X012717Y026388*
X012724Y026381*
X012733Y026374*
X012742Y026367*
X012751Y026362*
X012761Y026356*
X012771Y026352*
X012781Y026348*
X012792Y026345*
X012802Y026343*
X012813Y026341*
X012824Y026341*
X012835*
X012846Y026341*
X012857Y026343*
X012867Y026345*
X012878Y026348*
X012888Y026352*
X012898Y026356*
X012908Y026362*
X012917Y026367*
X012926Y026374*
X012935Y026381*
X012942Y026388*
X012950Y026397*
X012957Y026405*
X012963Y026414*
X012968Y026424*
X012973Y026434*
X012977Y026444*
X012980Y026454*
X012983Y026465*
X012985Y026476*
X012986Y026487*
X012987Y026498*
G54D25*
X022290Y024400D02*
Y025800D01*
X021590D02*
Y024400D01*
X022290*
X021590Y025800D02*
X022290D01*
X020990Y024400D02*
Y025800D01*
X020290D02*
Y024400D01*
X020990*
X020290Y025800D02*
X020990D01*
X023590Y024400D02*
Y025800D01*
X022890D02*
Y024400D01*
X023590*
X022890Y025800D02*
X023590D01*
X027490Y024400D02*
Y025800D01*
X026790D02*
Y024400D01*
X027490*
X026790Y025800D02*
X027490D01*
X028790Y024400D02*
Y025800D01*
X028090D02*
Y024400D01*
X028790*
X028090Y025800D02*
X028790D01*
X024190Y024400D02*
X024890D01*
X024190Y025800D02*
X024890D01*
Y024400*
X024190D02*
Y025800D01*
X025490Y024400D02*
X026190D01*
X025490Y025800D02*
X026190D01*
Y024400*
X025490D02*
Y025800D01*
X045609Y040707D02*
Y040841D01*
X045742Y040707*
X045775*
X045808Y040741*
Y040807*
X045775Y040841*
X044559D02*
Y040774D01*
Y040807*
X044758*
X044725Y040841*
X044658Y014059D02*
Y014192D01*
X044558*
X044592Y014125*
Y014092*
X044558Y014059*
X044492*
X044458Y014092*
Y014159*
X044492Y014192*
X044458Y013992D02*
Y013926D01*
Y013959*
X044658*
X044625Y013992*
X045658Y014109D02*
Y014242D01*
X045558*
X045592Y014175*
Y014142*
X045558Y014109*
X045492*
X045458Y014142*
Y014209*
X045492Y014242*
X045458Y013909D02*
Y014042D01*
X045592Y013909*
X045625*
X045658Y013942*
Y014009*
X045625Y014042*
X043658Y014109D02*
Y014242D01*
X043558*
X043592Y014175*
Y014142*
X043558Y014109*
X043492*
X043458Y014142*
Y014209*
X043492Y014242*
X043458Y013909D02*
Y014042D01*
X043592Y013909*
X043625*
X043658Y013942*
Y014009*
X043625Y014042*
X042658Y014059D02*
Y014192D01*
X042558*
X042592Y014125*
Y014092*
X042558Y014059*
X042492*
X042459Y014092*
Y014159*
X042492Y014192*
X042459Y013992D02*
Y013926D01*
Y013959*
X042658*
X042625Y013992*
X042558Y040841D02*
Y040774D01*
Y040807*
X042758*
X042725Y040841*
X043608Y040707D02*
Y040841D01*
X043742Y040707*
X043775*
X043808Y040741*
Y040807*
X043775Y040841*
G54D26*
X044359Y014441D02*
X046009D01*
X044359Y040541D02*
X045958D01*
X042358D02*
X043959D01*
X042358Y014441D02*
X044008D01*
X012290Y034350D02*
Y035350D01*
X015290*
Y034350D02*
Y035350D01*
X012290Y034350D02*
X015290D01*
X012190Y014150D02*
Y016150D01*
X011190D02*
X012190D01*
X011190Y014150D02*
Y016150D01*
Y014150D02*
X012190D01*
M02*