%FSDAX24Y24*%
%MOIN*%
%SFA1B1*%

%IPPOS*%
%ADD26C,0.005000*%
%ADD40C,0.005000*%
%LNbluesatpc104template-1*%
%LPD*%
G54D26*
X022061Y048604D02*
D01*
X022064Y048602*
X022067Y048601*
X022070Y048601*
X022074Y048600*
X022077Y048600*
X022080Y048600*
X009950Y011580D02*
D01*
X009953Y011493*
X009962Y011408*
X009978Y011323*
X009999Y011239*
X010026Y011157*
X010058Y011078*
X010096Y011000*
X010140Y010926*
X010188Y010855*
X010242Y010787*
X010300Y010723*
X010362Y010663*
X010428Y010608*
X010498Y010558*
X010571Y010512*
X010648Y010472*
X010726Y010438*
X010808Y010408*
X010891Y010385*
X010975Y010367*
X011060Y010356*
X011146Y010350*
X011190Y010350*
X022061Y048604D02*
D01*
X022064Y048602*
X022067Y048601*
X022070Y048601*
X022074Y048600*
X022077Y048600*
X022080Y048600*
X034670Y009950D02*
D01*
X034673Y009950*
X034676Y009950*
X034680Y009951*
X034683Y009951*
X034687Y009953*
X034690Y009954*
X034693Y009955*
X034694Y009956*
X034670Y009950D02*
D01*
X034673Y009950*
X034676Y009950*
X034680Y009951*
X034683Y009951*
X034687Y009953*
X034690Y009954*
X034693Y009955*
X034694Y009956*
X011190Y045210D02*
D01*
X011103Y045207*
X011018Y045198*
X010933Y045184*
X010849Y045163*
X010767Y045137*
X010687Y045105*
X010609Y045067*
X010534Y045024*
X010463Y044977*
X010394Y044924*
X010330Y044866*
X010270Y044805*
X010214Y044739*
X010163Y044669*
X010117Y044596*
X010077Y044520*
X010041Y044442*
X010011Y044361*
X009987Y044278*
X009969Y044194*
X009957Y044109*
X009950Y044023*
X009950Y043980*
X014410Y045610D02*
D01*
X014406Y045609*
X014403Y045609*
X014399Y045608*
X014396Y045608*
X014392Y045606*
X014389Y045605*
X014389Y045605*
X014410Y045610D02*
D01*
X014406Y045609*
X014403Y045609*
X014399Y045608*
X014396Y045608*
X014392Y045606*
X014389Y045605*
X014389Y045605*
X046400Y010860D02*
D01*
X046485Y010862*
X046571Y010871*
X046655Y010886*
X046739Y010907*
X046820Y010934*
X046900Y010966*
X046977Y011003*
X047051Y011046*
X047122Y011094*
X047190Y011147*
X047254Y011205*
X047314Y011266*
X047369Y011332*
X047419Y011402*
X047465Y011475*
X047505Y011550*
X047540Y011629*
X047569Y011709*
X047593Y011792*
X047611Y011876*
X047623Y011961*
X047629Y012047*
X047630Y012090*
Y014850D02*
D01*
X047629Y014853*
X047629Y014856*
X047628Y014860*
X047628Y014863*
X047626Y014867*
X047625Y014870*
X047625Y014872*
X047630Y014850D02*
D01*
X047629Y014853*
X047629Y014856*
X047628Y014860*
X047628Y014863*
X047626Y014867*
X047625Y014870*
X047625Y014873*
X041358Y045602D02*
D01*
X041355Y045603*
X041351Y045605*
X041348Y045606*
X041345Y045608*
X041341Y045609*
X041338Y045609*
X041335Y045610*
X041331Y045610*
X041330Y045610*
X041358Y045602D02*
D01*
X041355Y045603*
X041351Y045605*
X041348Y045606*
X041345Y045608*
X041341Y045609*
X041338Y045609*
X041335Y045610*
X041331Y045610*
X041330Y045610*
X047625Y040198D02*
D01*
X047626Y040201*
X047627Y040204*
X047628Y040207*
X047629Y040211*
X047629Y040214*
X047630Y040218*
X047630Y040220*
X047625Y040198D02*
D01*
X047626Y040201*
X047627Y040204*
X047628Y040207*
X047629Y040211*
X047629Y040214*
X047630Y040218*
X047630Y040220*
Y042525D02*
D01*
X047626Y042611*
X047617Y042696*
X047603Y042781*
X047582Y042865*
X047555Y042947*
X047523Y043027*
X047485Y043104*
X047442Y043179*
X047394Y043250*
X047341Y043318*
X047283Y043382*
X047221Y043442*
X047155Y043498*
X047085Y043548*
X047012Y043594*
X046936Y043635*
X046857Y043670*
X046776Y043699*
X046693Y043723*
X046609Y043741*
X046524Y043753*
X046438Y043759*
X046400Y043760*
X047630Y042520D02*
D01*
Y042520*
Y042521*
Y042522*
Y042523*
X047630Y042525*
X047630*
X011190Y010350D02*
D01*
X013070*
X014011Y009954*
X014030Y009950D02*
X034670D01*
X034694Y009956D02*
D01*
X036373Y010860*
X009950Y011580D02*
Y043980D01*
X011190Y045210D02*
D01*
X013539*
X014389Y045605*
X014410Y045610D02*
X041330D01*
X036373Y010860D02*
X046400D01*
X046890Y016332D02*
Y038698D01*
X047630Y012090D02*
Y014850D01*
X047625Y014873D02*
Y014872D01*
X046890Y016332D02*
X047625Y014873D01*
X046890Y038698D02*
X047625Y040198D01*
X044135Y043760D02*
X046400D01*
X041358Y045602D02*
X044135Y043760D01*
X047630Y040220D02*
Y042520D01*
G54D40*
X009950Y011580D03*
Y043980D03*
X014389Y045605D03*
X046400Y043760D03*
X047625Y040198D03*
M02*