G04 Layer_Color=65535*
%FSLAX25Y25*%
%MOIN*%
G70*
G01*
G75*
%ADD13C,0.01000*%
%ADD27C,0.01575*%
%ADD28C,0.00984*%
%ADD29C,0.00787*%
%ADD30C,0.00800*%
%ADD31C,0.00500*%
%ADD32R,0.10000X0.09962*%
G36*
X-186881Y32153D02*
X-197284D01*
Y30029D01*
X-187428D01*
Y27295D01*
X-197284D01*
Y25171D01*
X-186647D01*
Y22000D01*
X-201345D01*
Y35214D01*
X-186881D01*
Y32153D01*
D02*
G37*
G36*
X-172808Y35355D02*
X-172526Y35339D01*
X-172261Y35324D01*
X-172011Y35308D01*
X-171792Y35277D01*
X-171574Y35246D01*
X-171386Y35230D01*
X-171230Y35199D01*
X-171074Y35168D01*
X-170949Y35136D01*
X-170855Y35121D01*
X-170777Y35105D01*
X-170714Y35090D01*
X-170683Y35074D01*
X-170668D01*
X-170308Y34965D01*
X-169996Y34824D01*
X-169730Y34699D01*
X-169527Y34574D01*
X-169355Y34449D01*
X-169231Y34355D01*
X-169168Y34293D01*
X-169137Y34277D01*
X-168949Y34074D01*
X-168809Y33871D01*
X-168684Y33668D01*
X-168606Y33465D01*
X-168543Y33293D01*
X-168496Y33168D01*
X-168465Y33075D01*
Y33059D01*
Y33043D01*
X-168418Y32778D01*
X-168371Y32497D01*
X-168340Y32231D01*
X-168325Y31997D01*
X-168309Y31778D01*
Y31606D01*
Y31544D01*
Y31513D01*
Y31481D01*
Y31466D01*
Y31044D01*
X-172370D01*
Y31294D01*
X-172386Y31388D01*
Y31481D01*
X-172401Y31559D01*
Y31606D01*
X-172417Y31637D01*
Y31653D01*
X-172479Y31825D01*
X-172558Y31966D01*
X-172636Y32044D01*
X-172651Y32075D01*
X-172667D01*
X-172745Y32137D01*
X-172839Y32184D01*
X-173026Y32262D01*
X-173120Y32294D01*
X-173198Y32309D01*
X-173245Y32325D01*
X-173260D01*
X-173417Y32356D01*
X-173589Y32387D01*
X-173776Y32403D01*
X-173948D01*
X-174104Y32419D01*
X-178837D01*
X-179087Y32403D01*
X-179306Y32387D01*
X-179508Y32340D01*
X-179665Y32294D01*
X-179790Y32247D01*
X-179883Y32215D01*
X-179946Y32184D01*
X-179962Y32169D01*
X-180102Y32059D01*
X-180196Y31934D01*
X-180274Y31809D01*
X-180321Y31684D01*
X-180352Y31575D01*
X-180368Y31481D01*
Y31419D01*
Y31388D01*
Y31231D01*
X-180352Y31091D01*
X-180321Y30981D01*
X-180289Y30888D01*
X-180274Y30810D01*
X-180243Y30747D01*
X-180227Y30716D01*
Y30700D01*
X-180165Y30622D01*
X-180071Y30544D01*
X-179852Y30435D01*
X-179759Y30404D01*
X-179665Y30372D01*
X-179602Y30357D01*
X-179587D01*
X-179368Y30325D01*
X-179134Y30294D01*
X-178899Y30263D01*
X-178665Y30247D01*
X-178446D01*
X-178275Y30232D01*
X-177728D01*
X-177306Y30216D01*
X-174698D01*
X-174307Y30200D01*
X-173948D01*
X-173604Y30185D01*
X-173276D01*
X-172979Y30169D01*
X-172714Y30154D01*
X-172479Y30138D01*
X-172276D01*
X-172089Y30122D01*
X-171933Y30107D01*
X-171824D01*
X-171730Y30091D01*
X-171667D01*
X-171386Y30060D01*
X-171136Y30044D01*
X-170886Y29997D01*
X-170652Y29966D01*
X-170449Y29919D01*
X-170246Y29873D01*
X-170074Y29826D01*
X-169918Y29779D01*
X-169762Y29732D01*
X-169637Y29685D01*
X-169543Y29654D01*
X-169449Y29623D01*
X-169387Y29591D01*
X-169340Y29560D01*
X-169309Y29544D01*
X-169293D01*
X-168996Y29357D01*
X-168746Y29154D01*
X-168543Y28951D01*
X-168371Y28748D01*
X-168262Y28560D01*
X-168168Y28404D01*
X-168137Y28342D01*
X-168122Y28295D01*
X-168106Y28279D01*
Y28264D01*
X-167997Y27936D01*
X-167903Y27561D01*
X-167840Y27186D01*
X-167809Y26827D01*
X-167794Y26655D01*
X-167778Y26499D01*
Y26358D01*
X-167762Y26233D01*
Y26139D01*
Y26061D01*
Y26014D01*
Y25999D01*
X-167778Y25515D01*
X-167809Y25093D01*
X-167856Y24734D01*
X-167872Y24562D01*
X-167903Y24421D01*
X-167934Y24281D01*
X-167950Y24171D01*
X-167981Y24078D01*
X-167997Y23999D01*
X-168012Y23921D01*
X-168028Y23874D01*
X-168043Y23859D01*
Y23843D01*
X-168168Y23562D01*
X-168325Y23297D01*
X-168481Y23093D01*
X-168653Y22906D01*
X-168809Y22765D01*
X-168934Y22656D01*
X-169027Y22594D01*
X-169043Y22578D01*
X-169059D01*
X-169355Y22422D01*
X-169668Y22297D01*
X-170012Y22203D01*
X-170324Y22125D01*
X-170621Y22062D01*
X-170746Y22047D01*
X-170839Y22031D01*
X-170933Y22016D01*
X-170996Y22000D01*
X-171058D01*
X-171308Y21969D01*
X-171574Y21953D01*
X-172120Y21922D01*
X-172667Y21891D01*
X-173198Y21875D01*
X-173667D01*
X-173854Y21859D01*
X-179774D01*
X-180227Y21875D01*
X-180633Y21906D01*
X-180821Y21922D01*
X-180977Y21937D01*
X-181133D01*
X-181258Y21953D01*
X-181383Y21969D01*
X-181477Y21984D01*
X-181555D01*
X-181602Y22000D01*
X-181649D01*
X-181992Y22062D01*
X-182320Y22156D01*
X-182586Y22250D01*
X-182820Y22328D01*
X-183007Y22422D01*
X-183148Y22484D01*
X-183226Y22531D01*
X-183257Y22547D01*
X-183476Y22718D01*
X-183648Y22890D01*
X-183804Y23078D01*
X-183945Y23250D01*
X-184038Y23406D01*
X-184101Y23531D01*
X-184148Y23609D01*
X-184163Y23640D01*
X-184257Y23921D01*
X-184319Y24202D01*
X-184382Y24499D01*
X-184413Y24780D01*
X-184429Y25030D01*
Y25140D01*
X-184444Y25233D01*
Y25296D01*
Y25358D01*
Y25390D01*
Y25405D01*
Y26327D01*
X-180383D01*
Y26139D01*
X-180368Y25967D01*
X-180352Y25827D01*
X-180321Y25702D01*
X-180305Y25608D01*
X-180289Y25546D01*
X-180274Y25499D01*
Y25483D01*
X-180180Y25280D01*
X-180071Y25140D01*
X-179977Y25062D01*
X-179962Y25030D01*
X-179946D01*
X-179774Y24937D01*
X-179587Y24874D01*
X-179508Y24859D01*
X-179446D01*
X-179415Y24843D01*
X-179399D01*
X-179134Y24827D01*
X-178899Y24812D01*
X-173432D01*
X-173229Y24827D01*
X-173042D01*
X-172823Y24859D01*
X-172636Y24905D01*
X-172573Y24937D01*
X-172526Y24952D01*
X-172495Y24968D01*
X-172479D01*
X-172308Y25077D01*
X-172183Y25186D01*
X-172120Y25280D01*
X-172089Y25296D01*
Y25311D01*
X-172042Y25405D01*
X-171995Y25499D01*
X-171949Y25702D01*
X-171933Y25780D01*
Y25858D01*
Y25905D01*
Y25921D01*
Y26077D01*
X-171964Y26217D01*
X-171980Y26327D01*
X-172011Y26421D01*
X-172042Y26499D01*
X-172058Y26545D01*
X-172089Y26577D01*
Y26592D01*
X-172167Y26686D01*
X-172276Y26764D01*
X-172386Y26827D01*
X-172511Y26873D01*
X-172636Y26920D01*
X-172730Y26952D01*
X-172792Y26967D01*
X-172823D01*
X-173057Y27014D01*
X-173339Y27045D01*
X-173620Y27077D01*
X-173901Y27092D01*
X-174151Y27108D01*
X-174260D01*
X-174354Y27123D01*
X-174760D01*
X-174994Y27139D01*
X-175510D01*
X-176025Y27155D01*
X-178446D01*
X-178821Y27170D01*
X-179181Y27186D01*
X-179493D01*
X-179805Y27202D01*
X-180071Y27217D01*
X-180321Y27233D01*
X-180540Y27248D01*
X-180743Y27264D01*
X-180899Y27280D01*
X-181039D01*
X-181149Y27295D01*
X-181227Y27311D01*
X-181289D01*
X-181758Y27389D01*
X-182180Y27483D01*
X-182523Y27576D01*
X-182679Y27623D01*
X-182820Y27686D01*
X-182929Y27733D01*
X-183039Y27779D01*
X-183132Y27811D01*
X-183211Y27842D01*
X-183257Y27873D01*
X-183304Y27904D01*
X-183320Y27920D01*
X-183335D01*
X-183570Y28092D01*
X-183773Y28295D01*
X-183929Y28498D01*
X-184054Y28685D01*
X-184132Y28857D01*
X-184195Y28998D01*
X-184226Y29092D01*
X-184241Y29107D01*
Y29123D01*
X-184304Y29435D01*
X-184351Y29763D01*
X-184382Y30107D01*
X-184398Y30419D01*
X-184413Y30700D01*
X-184429Y30810D01*
Y30919D01*
Y31013D01*
Y31075D01*
Y31106D01*
Y31122D01*
Y31450D01*
X-184413Y31762D01*
X-184398Y32044D01*
X-184366Y32294D01*
X-184351Y32497D01*
X-184335Y32653D01*
Y32715D01*
X-184319Y32762D01*
Y32778D01*
Y32793D01*
X-184257Y33075D01*
X-184179Y33340D01*
X-184070Y33559D01*
X-183960Y33762D01*
X-183867Y33918D01*
X-183773Y34043D01*
X-183710Y34106D01*
X-183695Y34137D01*
X-183476Y34340D01*
X-183226Y34512D01*
X-182961Y34668D01*
X-182711Y34793D01*
X-182476Y34887D01*
X-182367Y34933D01*
X-182273Y34965D01*
X-182211Y34996D01*
X-182148Y35012D01*
X-182117Y35027D01*
X-182102D01*
X-181883Y35090D01*
X-181664Y35136D01*
X-181180Y35230D01*
X-180680Y35293D01*
X-180196Y35324D01*
X-179977Y35339D01*
X-179774Y35355D01*
X-179587D01*
X-179415Y35371D01*
X-173120D01*
X-172808Y35355D01*
D02*
G37*
G36*
X-146863Y22000D02*
X-151377D01*
X-152642Y24343D01*
X-160858D01*
X-162045Y22000D01*
X-166575D01*
X-159421Y35214D01*
X-154142D01*
X-146863Y22000D01*
D02*
G37*
G36*
X-130962Y31934D02*
X-136647D01*
Y22000D01*
X-140708D01*
Y31934D01*
X-146410D01*
Y35214D01*
X-130962D01*
Y31934D01*
D02*
G37*
G36*
X-204063Y26702D02*
X-204079Y26249D01*
X-204126Y25827D01*
X-204188Y25436D01*
X-204266Y25077D01*
X-204360Y24749D01*
X-204485Y24452D01*
X-204594Y24171D01*
X-204719Y23937D01*
X-204844Y23718D01*
X-204954Y23531D01*
X-205063Y23390D01*
X-205172Y23250D01*
X-205250Y23156D01*
X-205313Y23093D01*
X-205360Y23046D01*
X-205375Y23031D01*
X-205641Y22828D01*
X-205922Y22640D01*
X-206250Y22484D01*
X-206578Y22359D01*
X-206906Y22234D01*
X-207250Y22141D01*
X-207593Y22062D01*
X-207921Y22000D01*
X-208249Y21953D01*
X-208546Y21922D01*
X-208812Y21891D01*
X-209046Y21875D01*
X-209233D01*
X-209374Y21859D01*
X-215310D01*
X-215825Y21875D01*
X-216294Y21906D01*
X-216731Y21969D01*
X-217137Y22047D01*
X-217512Y22125D01*
X-217856Y22234D01*
X-218152Y22344D01*
X-218418Y22453D01*
X-218668Y22562D01*
X-218871Y22656D01*
X-219043Y22765D01*
X-219183Y22843D01*
X-219293Y22922D01*
X-219371Y22984D01*
X-219418Y23015D01*
X-219433Y23031D01*
X-219668Y23265D01*
X-219855Y23531D01*
X-220027Y23812D01*
X-220183Y24109D01*
X-220308Y24406D01*
X-220417Y24718D01*
X-220495Y25015D01*
X-220573Y25311D01*
X-220620Y25593D01*
X-220667Y25858D01*
X-220683Y26092D01*
X-220714Y26296D01*
Y26467D01*
X-220730Y26592D01*
Y26670D01*
Y26702D01*
Y35214D01*
X-216669D01*
Y27576D01*
Y27342D01*
X-216653Y27139D01*
X-216622Y26936D01*
X-216590Y26764D01*
X-216559Y26592D01*
X-216512Y26452D01*
X-216419Y26202D01*
X-216325Y26014D01*
X-216247Y25889D01*
X-216184Y25811D01*
X-216169Y25780D01*
X-216059Y25686D01*
X-215950Y25608D01*
X-215685Y25468D01*
X-215388Y25374D01*
X-215107Y25311D01*
X-214841Y25280D01*
X-214716Y25265D01*
X-214622D01*
X-214529Y25249D01*
X-210171D01*
X-209952Y25265D01*
X-209765Y25296D01*
X-209593Y25327D01*
X-209436Y25374D01*
X-209296Y25421D01*
X-209046Y25515D01*
X-208874Y25608D01*
X-208734Y25702D01*
X-208671Y25764D01*
X-208640Y25780D01*
X-208546Y25889D01*
X-208468Y26014D01*
X-208343Y26280D01*
X-208249Y26577D01*
X-208187Y26873D01*
X-208156Y27155D01*
X-208140Y27264D01*
X-208124Y27373D01*
Y27451D01*
Y27514D01*
Y27561D01*
Y27576D01*
Y35214D01*
X-204063D01*
Y26702D01*
D02*
G37*
G36*
X-19333Y86235D02*
X-20809Y85438D01*
Y80262D01*
X-19333Y79514D01*
Y76661D01*
X-27657Y81168D01*
Y84493D01*
X-19333Y89079D01*
Y86235D01*
D02*
G37*
G36*
X-21547Y113443D02*
X-21370Y113433D01*
X-21202Y113413D01*
X-21055Y113393D01*
X-20927Y113364D01*
X-20838Y113344D01*
X-20779Y113334D01*
X-20769Y113325D01*
X-20760D01*
X-20592Y113275D01*
X-20445Y113207D01*
X-20307Y113128D01*
X-20189Y113059D01*
X-20100Y112980D01*
X-20022Y112931D01*
X-19982Y112892D01*
X-19963Y112872D01*
X-19844Y112734D01*
X-19736Y112587D01*
X-19648Y112429D01*
X-19569Y112282D01*
X-19510Y112144D01*
X-19470Y112036D01*
X-19451Y111996D01*
X-19441Y111967D01*
X-19431Y111947D01*
Y111937D01*
X-19372Y111701D01*
X-19323Y111435D01*
X-19293Y111179D01*
X-19264Y110933D01*
Y110815D01*
X-19254Y110707D01*
Y110619D01*
X-19244Y110530D01*
Y110461D01*
Y110412D01*
Y110382D01*
Y110373D01*
Y106260D01*
X-19254Y105945D01*
X-19264Y105649D01*
X-19284Y105394D01*
X-19293Y105275D01*
X-19303Y105167D01*
X-19313Y105059D01*
X-19323Y104980D01*
X-19333Y104902D01*
X-19343Y104833D01*
X-19352Y104783D01*
X-19362Y104744D01*
Y104724D01*
Y104715D01*
X-19421Y104469D01*
X-19490Y104242D01*
X-19569Y104045D01*
X-19638Y103878D01*
X-19716Y103740D01*
X-19776Y103642D01*
X-19795Y103603D01*
X-19815Y103573D01*
X-19825Y103563D01*
Y103553D01*
X-19963Y103386D01*
X-20110Y103239D01*
X-20268Y103121D01*
X-20415Y103022D01*
X-20553Y102934D01*
X-20651Y102884D01*
X-20691Y102865D01*
X-20720Y102845D01*
X-20740Y102835D01*
X-20750D01*
X-20986Y102756D01*
X-21232Y102697D01*
X-21478Y102648D01*
X-21724Y102619D01*
X-21832Y102609D01*
X-21930Y102599D01*
X-22019D01*
X-22098Y102589D01*
X-24735D01*
X-25060Y102599D01*
X-25355Y102629D01*
X-25483Y102648D01*
X-25611Y102668D01*
X-25719Y102688D01*
X-25827Y102717D01*
X-25916Y102737D01*
X-25994Y102756D01*
X-26073Y102776D01*
X-26122Y102796D01*
X-26172Y102815D01*
X-26201Y102825D01*
X-26221Y102835D01*
X-26231D01*
X-26437Y102934D01*
X-26624Y103052D01*
X-26782Y103170D01*
X-26919Y103288D01*
X-27018Y103396D01*
X-27097Y103475D01*
X-27136Y103534D01*
X-27156Y103544D01*
Y103553D01*
X-27274Y103740D01*
X-27372Y103937D01*
X-27461Y104134D01*
X-27520Y104311D01*
X-27569Y104478D01*
X-27588Y104547D01*
X-27598Y104596D01*
X-27618Y104646D01*
Y104685D01*
X-27628Y104705D01*
Y104715D01*
X-27667Y104980D01*
X-27707Y105246D01*
X-27726Y105502D01*
X-27736Y105738D01*
X-27746Y105846D01*
Y105945D01*
X-27756Y106033D01*
Y106102D01*
Y106171D01*
Y106210D01*
Y106240D01*
Y106250D01*
Y109261D01*
Y109507D01*
X-27746Y109743D01*
X-27736Y109959D01*
X-27726Y110166D01*
X-27716Y110363D01*
X-27707Y110540D01*
X-27687Y110697D01*
X-27677Y110845D01*
X-27657Y110983D01*
X-27638Y111101D01*
X-27628Y111199D01*
X-27618Y111278D01*
X-27608Y111337D01*
X-27598Y111386D01*
X-27588Y111416D01*
Y111425D01*
X-27520Y111711D01*
X-27441Y111967D01*
X-27352Y112173D01*
X-27264Y112350D01*
X-27185Y112488D01*
X-27116Y112587D01*
X-27077Y112646D01*
X-27057Y112665D01*
X-26910Y112813D01*
X-26752Y112941D01*
X-26595Y113029D01*
X-26437Y113108D01*
X-26300Y113167D01*
X-26191Y113197D01*
X-26152Y113216D01*
X-26122D01*
X-26103Y113226D01*
X-26093D01*
X-25857Y113266D01*
X-25611Y113295D01*
X-25365Y113325D01*
X-25138Y113334D01*
X-25030D01*
X-24932Y113344D01*
X-24617D01*
Y110786D01*
X-24843D01*
X-25001Y110776D01*
X-25128Y110737D01*
X-25237Y110687D01*
X-25315Y110628D01*
X-25384Y110569D01*
X-25424Y110520D01*
X-25443Y110481D01*
X-25453Y110471D01*
X-25512Y110343D01*
X-25552Y110196D01*
X-25581Y110048D01*
X-25601Y109910D01*
X-25611Y109782D01*
X-25620Y109684D01*
Y109644D01*
Y109615D01*
Y109595D01*
Y109585D01*
Y106810D01*
Y106624D01*
X-25601Y106466D01*
X-25581Y106328D01*
X-25561Y106210D01*
X-25542Y106112D01*
X-25522Y106043D01*
X-25512Y106004D01*
X-25502Y105984D01*
X-25453Y105876D01*
X-25404Y105777D01*
X-25345Y105699D01*
X-25296Y105630D01*
X-25247Y105571D01*
X-25207Y105531D01*
X-25178Y105512D01*
X-25168Y105502D01*
X-25079Y105443D01*
X-24991Y105394D01*
X-24912Y105354D01*
X-24824Y105325D01*
X-24755Y105305D01*
X-24696Y105285D01*
X-24656Y105275D01*
X-24646D01*
X-24410Y105246D01*
X-24292Y105226D01*
X-24184D01*
X-24085Y105216D01*
X-22885D01*
X-22737Y105226D01*
X-22610Y105236D01*
X-22491Y105246D01*
X-22403D01*
X-22334Y105256D01*
X-22295Y105266D01*
X-22275D01*
X-22157Y105295D01*
X-22058Y105325D01*
X-21970Y105364D01*
X-21891Y105394D01*
X-21832Y105433D01*
X-21793Y105453D01*
X-21763Y105472D01*
X-21753Y105482D01*
X-21685Y105551D01*
X-21625Y105620D01*
X-21537Y105768D01*
X-21507Y105836D01*
X-21488Y105886D01*
X-21468Y105925D01*
Y105935D01*
X-21439Y106053D01*
X-21419Y106171D01*
X-21399Y106299D01*
X-21389Y106407D01*
Y106515D01*
X-21380Y106594D01*
Y106653D01*
Y106673D01*
Y109398D01*
Y109546D01*
X-21389Y109684D01*
Y109812D01*
X-21399Y109910D01*
Y109999D01*
X-21409Y110058D01*
Y110097D01*
Y110107D01*
X-21429Y110205D01*
X-21448Y110294D01*
X-21478Y110373D01*
X-21507Y110442D01*
X-21527Y110491D01*
X-21547Y110530D01*
X-21566Y110550D01*
Y110560D01*
X-21616Y110619D01*
X-21675Y110678D01*
X-21783Y110756D01*
X-21832Y110786D01*
X-21871Y110806D01*
X-21901Y110815D01*
X-21911D01*
X-21999Y110845D01*
X-22098Y110865D01*
X-22206Y110874D01*
X-22304Y110884D01*
X-22383Y110894D01*
X-22521D01*
Y113452D01*
X-21744D01*
X-21547Y113443D01*
D02*
G37*
G36*
Y125329D02*
X-21281Y125310D01*
X-21055Y125280D01*
X-20946Y125270D01*
X-20858Y125251D01*
X-20769Y125231D01*
X-20700Y125221D01*
X-20641Y125201D01*
X-20592Y125192D01*
X-20543Y125182D01*
X-20514Y125172D01*
X-20504Y125162D01*
X-20494D01*
X-20317Y125083D01*
X-20150Y124985D01*
X-20022Y124887D01*
X-19904Y124778D01*
X-19815Y124680D01*
X-19746Y124601D01*
X-19707Y124542D01*
X-19697Y124532D01*
Y124522D01*
X-19598Y124336D01*
X-19520Y124139D01*
X-19461Y123922D01*
X-19411Y123725D01*
X-19372Y123538D01*
X-19362Y123460D01*
X-19352Y123401D01*
X-19343Y123342D01*
X-19333Y123302D01*
Y123273D01*
Y123263D01*
X-19313Y123106D01*
X-19303Y122938D01*
X-19284Y122594D01*
X-19264Y122249D01*
X-19254Y121915D01*
Y121767D01*
Y121620D01*
X-19244Y121502D01*
Y121393D01*
Y121305D01*
Y121236D01*
Y121197D01*
Y121177D01*
Y118087D01*
Y117772D01*
X-19254Y117487D01*
X-19274Y117231D01*
X-19284Y117113D01*
X-19293Y117015D01*
Y116916D01*
X-19303Y116838D01*
X-19313Y116759D01*
X-19323Y116700D01*
Y116650D01*
X-19333Y116621D01*
Y116601D01*
Y116592D01*
X-19372Y116375D01*
X-19431Y116168D01*
X-19490Y116001D01*
X-19539Y115854D01*
X-19598Y115735D01*
X-19638Y115647D01*
X-19667Y115598D01*
X-19677Y115578D01*
X-19785Y115440D01*
X-19894Y115332D01*
X-20012Y115234D01*
X-20120Y115145D01*
X-20218Y115086D01*
X-20297Y115047D01*
X-20346Y115017D01*
X-20366Y115007D01*
X-20543Y114948D01*
X-20720Y114909D01*
X-20907Y114869D01*
X-21084Y114850D01*
X-21242Y114840D01*
X-21311D01*
X-21370Y114830D01*
X-22058D01*
Y117388D01*
X-21940D01*
X-21832Y117398D01*
X-21744Y117408D01*
X-21665Y117428D01*
X-21606Y117438D01*
X-21566Y117448D01*
X-21537Y117457D01*
X-21527D01*
X-21399Y117516D01*
X-21311Y117585D01*
X-21261Y117644D01*
X-21242Y117654D01*
Y117664D01*
X-21183Y117772D01*
X-21143Y117890D01*
X-21134Y117940D01*
Y117979D01*
X-21124Y117999D01*
Y118008D01*
X-21114Y118176D01*
X-21104Y118323D01*
Y118392D01*
Y118441D01*
Y118481D01*
Y118491D01*
Y121620D01*
Y121767D01*
X-21114Y121895D01*
Y121944D01*
Y121984D01*
Y122003D01*
Y122013D01*
X-21134Y122151D01*
X-21163Y122269D01*
X-21183Y122309D01*
X-21192Y122338D01*
X-21202Y122358D01*
Y122368D01*
X-21271Y122476D01*
X-21340Y122555D01*
X-21399Y122594D01*
X-21409Y122614D01*
X-21419D01*
X-21478Y122643D01*
X-21537Y122673D01*
X-21665Y122702D01*
X-21714Y122712D01*
X-21901D01*
X-21990Y122692D01*
X-22058Y122682D01*
X-22118Y122663D01*
X-22167Y122643D01*
X-22196Y122633D01*
X-22216Y122614D01*
X-22226D01*
X-22285Y122564D01*
X-22334Y122495D01*
X-22373Y122427D01*
X-22403Y122348D01*
X-22432Y122269D01*
X-22452Y122210D01*
X-22462Y122171D01*
Y122151D01*
X-22491Y122003D01*
X-22511Y121826D01*
X-22531Y121649D01*
X-22541Y121472D01*
X-22550Y121315D01*
Y121246D01*
X-22560Y121187D01*
Y121138D01*
Y121098D01*
Y121079D01*
Y121069D01*
Y120931D01*
X-22570Y120783D01*
Y120459D01*
X-22580Y120134D01*
Y119829D01*
Y119681D01*
Y119544D01*
Y119425D01*
Y119327D01*
Y119238D01*
Y119179D01*
Y119130D01*
Y119120D01*
Y118855D01*
Y118609D01*
X-22590Y118372D01*
X-22600Y118146D01*
Y117949D01*
X-22610Y117753D01*
X-22619Y117585D01*
X-22629Y117428D01*
X-22639Y117290D01*
X-22649Y117162D01*
X-22659Y117064D01*
Y116975D01*
X-22669Y116906D01*
X-22678Y116857D01*
Y116828D01*
Y116818D01*
X-22728Y116523D01*
X-22787Y116257D01*
X-22846Y116040D01*
X-22875Y115942D01*
X-22915Y115854D01*
X-22944Y115785D01*
X-22974Y115716D01*
X-22993Y115657D01*
X-23013Y115608D01*
X-23033Y115578D01*
X-23052Y115548D01*
X-23062Y115539D01*
Y115529D01*
X-23170Y115381D01*
X-23298Y115253D01*
X-23426Y115155D01*
X-23544Y115076D01*
X-23652Y115027D01*
X-23741Y114988D01*
X-23800Y114968D01*
X-23810Y114958D01*
X-23820D01*
X-24017Y114919D01*
X-24223Y114889D01*
X-24440Y114869D01*
X-24636Y114860D01*
X-24814Y114850D01*
X-24882Y114840D01*
X-25286D01*
X-25483Y114850D01*
X-25660Y114860D01*
X-25817Y114879D01*
X-25945Y114889D01*
X-26044Y114899D01*
X-26083D01*
X-26112Y114909D01*
X-26132D01*
X-26309Y114948D01*
X-26477Y114997D01*
X-26614Y115066D01*
X-26742Y115135D01*
X-26841Y115194D01*
X-26919Y115253D01*
X-26959Y115293D01*
X-26978Y115302D01*
X-27106Y115440D01*
X-27215Y115598D01*
X-27313Y115765D01*
X-27392Y115922D01*
X-27451Y116070D01*
X-27480Y116139D01*
X-27500Y116198D01*
X-27520Y116237D01*
X-27529Y116277D01*
X-27539Y116296D01*
Y116306D01*
X-27579Y116444D01*
X-27608Y116582D01*
X-27667Y116887D01*
X-27707Y117202D01*
X-27726Y117507D01*
X-27736Y117644D01*
X-27746Y117772D01*
Y117890D01*
X-27756Y117999D01*
Y118077D01*
Y118146D01*
Y118186D01*
Y118195D01*
Y121767D01*
Y121964D01*
X-27746Y122161D01*
X-27736Y122338D01*
X-27726Y122505D01*
X-27716Y122663D01*
X-27697Y122801D01*
X-27677Y122938D01*
X-27667Y123056D01*
X-27648Y123155D01*
X-27628Y123253D01*
X-27608Y123332D01*
X-27598Y123391D01*
X-27588Y123440D01*
X-27579Y123479D01*
X-27569Y123499D01*
Y123509D01*
X-27500Y123735D01*
X-27411Y123932D01*
X-27333Y124099D01*
X-27254Y124227D01*
X-27175Y124336D01*
X-27116Y124414D01*
X-27077Y124454D01*
X-27067Y124473D01*
X-26939Y124591D01*
X-26811Y124680D01*
X-26683Y124759D01*
X-26555Y124808D01*
X-26447Y124847D01*
X-26368Y124877D01*
X-26309Y124896D01*
X-26290D01*
X-26122Y124926D01*
X-25945Y124955D01*
X-25778Y124975D01*
X-25630Y124985D01*
X-25493Y124995D01*
X-25030D01*
Y122436D01*
X-25188D01*
X-25247Y122427D01*
X-25306D01*
X-25355Y122417D01*
X-25384D01*
X-25404Y122407D01*
X-25414D01*
X-25522Y122368D01*
X-25611Y122318D01*
X-25660Y122269D01*
X-25680Y122259D01*
Y122249D01*
X-25719Y122200D01*
X-25748Y122141D01*
X-25798Y122023D01*
X-25817Y121964D01*
X-25827Y121915D01*
X-25837Y121885D01*
Y121876D01*
X-25857Y121777D01*
X-25876Y121669D01*
X-25886Y121551D01*
Y121443D01*
X-25896Y121344D01*
Y121256D01*
Y121206D01*
Y121197D01*
Y121187D01*
Y118363D01*
X-25886Y118205D01*
X-25876Y118068D01*
X-25847Y117940D01*
X-25817Y117841D01*
X-25788Y117762D01*
X-25768Y117703D01*
X-25748Y117664D01*
X-25739Y117654D01*
X-25670Y117566D01*
X-25591Y117507D01*
X-25512Y117457D01*
X-25434Y117428D01*
X-25365Y117408D01*
X-25306Y117398D01*
X-25148D01*
X-25060Y117408D01*
X-24991Y117428D01*
X-24932Y117448D01*
X-24882Y117457D01*
X-24843Y117477D01*
X-24824Y117487D01*
X-24814D01*
X-24764Y117526D01*
X-24715Y117585D01*
X-24646Y117723D01*
X-24627Y117782D01*
X-24607Y117841D01*
X-24597Y117880D01*
Y117890D01*
X-24577Y118028D01*
X-24558Y118176D01*
X-24538Y118323D01*
X-24528Y118471D01*
Y118609D01*
X-24518Y118717D01*
Y118756D01*
Y118786D01*
Y118806D01*
Y118815D01*
Y118933D01*
Y119061D01*
X-24509Y119327D01*
Y119593D01*
Y119849D01*
Y119976D01*
Y120085D01*
Y120183D01*
Y120272D01*
Y120341D01*
Y120390D01*
Y120429D01*
Y120439D01*
Y120714D01*
Y120970D01*
X-24499Y121216D01*
Y121443D01*
X-24489Y121659D01*
Y121866D01*
X-24479Y122053D01*
X-24469Y122220D01*
X-24459Y122368D01*
Y122495D01*
X-24450Y122614D01*
X-24440Y122712D01*
Y122781D01*
X-24430Y122840D01*
Y122869D01*
Y122879D01*
X-24410Y123056D01*
X-24400Y123214D01*
X-24371Y123371D01*
X-24351Y123519D01*
X-24322Y123647D01*
X-24292Y123775D01*
X-24263Y123883D01*
X-24233Y123981D01*
X-24204Y124080D01*
X-24174Y124158D01*
X-24154Y124217D01*
X-24135Y124276D01*
X-24115Y124316D01*
X-24095Y124345D01*
X-24085Y124365D01*
Y124375D01*
X-23967Y124562D01*
X-23840Y124719D01*
X-23712Y124847D01*
X-23584Y124955D01*
X-23466Y125024D01*
X-23367Y125083D01*
X-23328Y125103D01*
X-23298Y125113D01*
X-23288Y125123D01*
X-23279D01*
X-23072Y125192D01*
X-22836Y125251D01*
X-22600Y125290D01*
X-22373Y125310D01*
X-22265Y125320D01*
X-22167Y125329D01*
X-22078D01*
X-21999Y125339D01*
X-21852D01*
X-21547Y125329D01*
D02*
G37*
G36*
X-242473Y35183D02*
X-242113Y35152D01*
X-241817Y35121D01*
X-241676Y35105D01*
X-241551Y35090D01*
X-241458Y35074D01*
X-241364Y35058D01*
X-241301Y35043D01*
X-241254D01*
X-241223Y35027D01*
X-241208D01*
X-240880Y34949D01*
X-240583Y34871D01*
X-240333Y34762D01*
X-240114Y34668D01*
X-239942Y34590D01*
X-239817Y34512D01*
X-239739Y34465D01*
X-239708Y34449D01*
X-239489Y34293D01*
X-239302Y34106D01*
X-239146Y33934D01*
X-239021Y33762D01*
X-238927Y33606D01*
X-238864Y33481D01*
X-238818Y33403D01*
X-238802Y33387D01*
Y33371D01*
X-238708Y33121D01*
X-238630Y32840D01*
X-238583Y32575D01*
X-238537Y32309D01*
X-238521Y32090D01*
X-238505Y31903D01*
Y31841D01*
Y31794D01*
Y31762D01*
Y31747D01*
Y31435D01*
X-238537Y31169D01*
X-238552Y30935D01*
X-238583Y30732D01*
X-238615Y30575D01*
X-238630Y30450D01*
X-238662Y30388D01*
Y30357D01*
X-238724Y30169D01*
X-238786Y29997D01*
X-238849Y29857D01*
X-238911Y29732D01*
X-238974Y29623D01*
X-239021Y29560D01*
X-239052Y29513D01*
X-239068Y29498D01*
X-239271Y29279D01*
X-239474Y29123D01*
X-239567Y29076D01*
X-239630Y29029D01*
X-239677Y29013D01*
X-239692Y28998D01*
X-239958Y28888D01*
X-240099Y28842D01*
X-240224Y28795D01*
X-240317Y28763D01*
X-240395Y28732D01*
X-240458Y28717D01*
X-240473D01*
Y28654D01*
X-240239Y28623D01*
X-240005Y28576D01*
X-239802Y28514D01*
X-239614Y28451D01*
X-239442Y28373D01*
X-239302Y28295D01*
X-239161Y28217D01*
X-239036Y28139D01*
X-238849Y27998D01*
X-238708Y27873D01*
X-238630Y27779D01*
X-238599Y27764D01*
Y27748D01*
X-238505Y27608D01*
X-238412Y27436D01*
X-238271Y27077D01*
X-238177Y26702D01*
X-238099Y26342D01*
X-238068Y26014D01*
X-238052Y25874D01*
Y25749D01*
X-238037Y25640D01*
Y25561D01*
Y25515D01*
Y25499D01*
X-238052Y25108D01*
X-238084Y24765D01*
X-238130Y24452D01*
X-238193Y24202D01*
X-238255Y23999D01*
X-238302Y23843D01*
X-238334Y23749D01*
X-238349Y23734D01*
Y23718D01*
X-238474Y23468D01*
X-238599Y23265D01*
X-238740Y23078D01*
X-238880Y22922D01*
X-239005Y22797D01*
X-239099Y22718D01*
X-239161Y22656D01*
X-239193Y22640D01*
X-239396Y22515D01*
X-239614Y22406D01*
X-239833Y22312D01*
X-240036Y22250D01*
X-240208Y22187D01*
X-240348Y22156D01*
X-240442Y22125D01*
X-240473D01*
X-241036Y22047D01*
X-241301Y22031D01*
X-241551Y22016D01*
X-241770Y22000D01*
X-255000D01*
Y35214D01*
X-242879D01*
X-242473Y35183D01*
D02*
G37*
G36*
X-231554Y25390D02*
X-222448D01*
Y22000D01*
X-235616D01*
Y35214D01*
X-231554D01*
Y25390D01*
D02*
G37*
G36*
X-21950Y101221D02*
X-21694Y101202D01*
X-21468Y101172D01*
X-21281Y101143D01*
X-21192Y101123D01*
X-21124Y101103D01*
X-21055Y101084D01*
X-21006Y101074D01*
X-20966Y101064D01*
X-20937Y101054D01*
X-20917Y101044D01*
X-20907D01*
X-20710Y100966D01*
X-20533Y100877D01*
X-20376Y100779D01*
X-20248Y100680D01*
X-20140Y100592D01*
X-20071Y100523D01*
X-20022Y100474D01*
X-20002Y100454D01*
X-19874Y100296D01*
X-19776Y100119D01*
X-19687Y99942D01*
X-19618Y99775D01*
X-19559Y99617D01*
X-19539Y99558D01*
X-19520Y99499D01*
X-19510Y99450D01*
X-19500Y99421D01*
X-19490Y99401D01*
Y99391D01*
X-19441Y99135D01*
X-19402Y98860D01*
X-19372Y98594D01*
X-19352Y98338D01*
X-19343Y98220D01*
Y98112D01*
Y98023D01*
X-19333Y97935D01*
Y97866D01*
Y97817D01*
Y97787D01*
Y97777D01*
Y90073D01*
X-27657D01*
Y97777D01*
X-27648Y98122D01*
X-27628Y98437D01*
X-27618Y98574D01*
X-27608Y98712D01*
X-27588Y98830D01*
X-27579Y98939D01*
X-27559Y99047D01*
X-27539Y99135D01*
X-27529Y99214D01*
X-27520Y99273D01*
X-27510Y99322D01*
X-27500Y99362D01*
X-27490Y99381D01*
Y99391D01*
X-27421Y99627D01*
X-27343Y99834D01*
X-27264Y100021D01*
X-27175Y100169D01*
X-27097Y100296D01*
X-27038Y100385D01*
X-26998Y100434D01*
X-26978Y100454D01*
X-26841Y100601D01*
X-26693Y100720D01*
X-26546Y100818D01*
X-26398Y100907D01*
X-26270Y100966D01*
X-26162Y101015D01*
X-26132Y101025D01*
X-26103Y101034D01*
X-26083Y101044D01*
X-26073D01*
X-25857Y101103D01*
X-25630Y101153D01*
X-25414Y101182D01*
X-25207Y101212D01*
X-25030Y101221D01*
X-24951D01*
X-24882Y101231D01*
X-22226D01*
X-21950Y101221D01*
D02*
G37*
%LPC*%
G36*
X-156781Y32137D02*
X-159343Y27186D01*
X-154157D01*
X-156781Y32137D01*
D02*
G37*
G36*
X-22600Y84484D02*
X-25719Y82830D01*
X-22600Y81217D01*
Y84484D01*
D02*
G37*
G36*
X-243675Y32044D02*
X-250939D01*
Y29982D01*
X-243769D01*
X-243566Y29997D01*
X-243379Y30013D01*
X-243238Y30044D01*
X-243113Y30091D01*
X-243004Y30138D01*
X-242941Y30169D01*
X-242895Y30185D01*
X-242879Y30200D01*
X-242770Y30310D01*
X-242691Y30419D01*
X-242645Y30560D01*
X-242598Y30685D01*
X-242582Y30810D01*
X-242566Y30903D01*
Y30966D01*
Y30997D01*
X-242582Y31200D01*
X-242613Y31372D01*
X-242660Y31513D01*
X-242723Y31622D01*
X-242785Y31700D01*
X-242832Y31762D01*
X-242863Y31794D01*
X-242879Y31809D01*
X-243004Y31888D01*
X-243144Y31950D01*
X-243301Y31981D01*
X-243441Y32012D01*
X-243566Y32028D01*
X-243675Y32044D01*
D02*
G37*
G36*
X-243566Y27248D02*
X-250939D01*
Y25171D01*
X-243675D01*
X-243441Y25186D01*
X-243238Y25202D01*
X-243051Y25233D01*
X-242895Y25265D01*
X-242770Y25296D01*
X-242691Y25327D01*
X-242629Y25358D01*
X-242613D01*
X-242473Y25452D01*
X-242379Y25561D01*
X-242301Y25686D01*
X-242254Y25827D01*
X-242223Y25936D01*
X-242207Y26046D01*
Y26108D01*
Y26139D01*
X-242223Y26374D01*
X-242270Y26561D01*
X-242332Y26717D01*
X-242410Y26842D01*
X-242488Y26920D01*
X-242551Y26983D01*
X-242598Y27014D01*
X-242613Y27030D01*
X-242770Y27108D01*
X-242957Y27155D01*
X-243129Y27202D01*
X-243301Y27217D01*
X-243441Y27233D01*
X-243566Y27248D01*
D02*
G37*
G36*
X-22806Y98673D02*
X-24243D01*
X-24390Y98663D01*
X-24518Y98643D01*
X-24627Y98633D01*
X-24705Y98614D01*
X-24774Y98594D01*
X-24814Y98584D01*
X-24824D01*
X-24932Y98545D01*
X-25020Y98506D01*
X-25099Y98466D01*
X-25158Y98417D01*
X-25207Y98378D01*
X-25247Y98348D01*
X-25266Y98328D01*
X-25276Y98319D01*
X-25335Y98250D01*
X-25384Y98171D01*
X-25453Y98014D01*
X-25483Y97945D01*
X-25502Y97895D01*
X-25512Y97856D01*
Y97846D01*
X-25542Y97738D01*
X-25561Y97620D01*
X-25571Y97502D01*
X-25581Y97394D01*
X-25591Y97295D01*
Y97216D01*
Y97167D01*
Y97148D01*
Y92631D01*
X-21468D01*
Y97148D01*
Y97295D01*
X-21478Y97433D01*
X-21488Y97551D01*
X-21507Y97650D01*
X-21517Y97738D01*
X-21527Y97797D01*
X-21537Y97836D01*
Y97846D01*
X-21566Y97954D01*
X-21606Y98043D01*
X-21635Y98122D01*
X-21675Y98191D01*
X-21714Y98250D01*
X-21734Y98289D01*
X-21753Y98309D01*
X-21763Y98319D01*
X-21832Y98378D01*
X-21901Y98437D01*
X-22049Y98515D01*
X-22118Y98545D01*
X-22167Y98565D01*
X-22206Y98584D01*
X-22216D01*
X-22334Y98614D01*
X-22462Y98633D01*
X-22580Y98653D01*
X-22698Y98663D01*
X-22806Y98673D01*
D02*
G37*
%LPD*%
D13*
X-268500Y23500D02*
G03*
X-268500Y23500I-7000J0D01*
G01*
X-264500D02*
G03*
X-264500Y23500I-9000J0D01*
G01*
X-260500D02*
G03*
X-260500Y23500I-11000J0D01*
G01*
X-135176Y37839D02*
G03*
X-142851Y37853I-3824J7330D01*
G01*
X-153676Y37839D02*
G03*
X-161351Y37853I-3824J7330D01*
G01*
X-172176Y37839D02*
G03*
X-179851Y37853I-3824J7330D01*
G01*
X-30500Y55000D02*
Y144000D01*
X-16500Y103000D02*
X-8500D01*
X-323000Y115000D02*
X-320000D01*
X-364500D02*
X-362500D01*
X-323000Y245000D02*
X-320000D01*
X-365000D02*
X-362500D01*
X-364500Y180000D02*
X-320000D01*
X-16500Y55000D02*
Y144000D01*
X-30500Y55000D02*
X-8500D01*
Y144000D01*
X-16500Y113000D02*
X-8500D01*
X-30500Y144000D02*
X-8500D01*
X-275500Y18500D02*
Y23500D01*
X-280000Y21000D02*
X-275500Y18500D01*
X-271000Y21000D01*
X-280000Y26000D02*
X-275500Y23500D01*
X-280000Y21000D02*
Y26000D01*
X-271000Y21000D02*
Y26000D01*
X-275500Y23500D02*
X-271000Y26000D01*
X-275500Y28500D02*
X-271000Y26000D01*
X-280000D02*
X-275500Y28500D01*
X-72000Y205500D02*
Y318000D01*
Y205500D02*
X-11000D01*
X-72000Y318000D02*
X-11000D01*
Y205500D02*
Y318000D01*
X-127500Y12000D02*
Y178000D01*
Y12000D02*
X-34500D01*
X-127500Y178000D02*
X-34500D01*
Y12000D02*
Y178000D01*
X-217500Y272000D02*
Y337000D01*
Y272000D02*
X-127500D01*
X-217500Y337000D02*
X-127500D01*
Y272000D02*
Y337000D01*
X-288362Y285488D02*
Y337063D01*
Y285488D02*
X-230488D01*
X-288362Y337063D02*
X-230488D01*
Y285488D02*
Y337063D01*
X-306500Y84000D02*
Y214000D01*
Y84000D02*
X-236500D01*
X-306500Y214000D02*
X-236500D01*
Y84000D02*
Y214000D01*
X-221500Y89000D02*
Y219000D01*
Y89000D02*
X-151500D01*
X-221500Y219000D02*
X-151500D01*
Y89000D02*
Y219000D01*
X-187000Y37500D02*
Y72500D01*
X-199500D02*
X-187000D01*
X-199500Y37500D02*
X-187000D01*
X-199500D02*
Y72500D01*
X-167500Y77500D02*
X-147500D01*
Y57500D02*
Y77500D01*
X-167500Y57500D02*
X-147500D01*
X-162500Y72500D02*
X-152500D01*
X-167500Y57500D02*
Y77500D01*
X-162500Y62500D02*
X-152500D01*
X-142851Y37853D02*
X-135176Y37839D01*
X-161351Y37853D02*
X-153676Y37839D01*
X-179851Y37853D02*
X-172176Y37839D01*
X-14249Y105084D02*
X-11917D01*
X-10751Y106251D01*
X-11917Y107417D01*
X-14249D01*
X-10751Y110916D02*
Y108583D01*
X-13083Y110916D01*
X-13666D01*
X-14249Y110333D01*
Y109166D01*
X-13666Y108583D01*
X-10751Y58590D02*
X-13083D01*
X-14249Y59756D01*
X-13083Y60922D01*
X-10751D01*
X-12500D01*
Y58590D01*
X-14249Y62089D02*
X-10751D01*
Y63838D01*
X-11334Y64421D01*
X-13666D01*
X-14249Y63838D01*
Y62089D01*
X-13666Y67920D02*
X-14249Y67337D01*
Y66171D01*
X-13666Y65588D01*
X-11334D01*
X-10751Y66171D01*
Y67337D01*
X-11334Y67920D01*
X-13666Y71419D02*
X-14249Y70836D01*
Y69670D01*
X-13666Y69086D01*
X-13083D01*
X-12500Y69670D01*
Y70836D01*
X-11917Y71419D01*
X-11334D01*
X-10751Y70836D01*
Y69670D01*
X-11334Y69086D01*
X-12500Y76084D02*
Y78417D01*
X-13666Y77251D02*
X-11334D01*
X-13666Y85415D02*
X-14249Y84831D01*
Y83665D01*
X-13666Y83082D01*
X-11334D01*
X-10751Y83665D01*
Y84831D01*
X-11334Y85415D01*
X-14249Y88330D02*
Y87164D01*
X-13666Y86581D01*
X-11334D01*
X-10751Y87164D01*
Y88330D01*
X-11334Y88914D01*
X-13666D01*
X-14249Y88330D01*
X-10751Y90080D02*
X-14249D01*
X-13083Y91246D01*
X-14249Y92412D01*
X-10751D01*
Y93579D02*
X-14249D01*
X-13083Y94745D01*
X-14249Y95911D01*
X-10751D01*
X-13666Y99410D02*
X-14249Y98827D01*
Y97661D01*
X-13666Y97078D01*
X-13083D01*
X-12500Y97661D01*
Y98827D01*
X-11917Y99410D01*
X-11334D01*
X-10751Y98827D01*
Y97661D01*
X-11334Y97078D01*
X-10751Y115088D02*
X-14249D01*
X-13083Y116254D01*
X-14249Y117420D01*
X-10751D01*
X-13083Y119170D02*
Y120336D01*
X-12500Y120919D01*
X-10751D01*
Y119170D01*
X-11334Y118587D01*
X-11917Y119170D01*
Y120919D01*
X-13083Y122085D02*
X-10751D01*
X-11917D01*
X-12500Y122669D01*
X-13083Y123252D01*
Y123835D01*
X-10751Y125584D02*
X-14249D01*
X-11917D02*
X-13083Y127334D01*
X-11917Y125584D02*
X-10751Y127334D01*
X-14249Y132582D02*
X-13666D01*
X-12500Y133748D01*
X-13666Y134915D01*
X-14249D01*
X-12500Y133748D02*
X-10751D01*
Y137830D02*
Y136664D01*
X-11334Y136081D01*
X-12500D01*
X-13083Y136664D01*
Y137830D01*
X-12500Y138414D01*
X-11917D01*
Y136081D01*
X-10751Y140163D02*
Y141329D01*
X-11334Y141912D01*
X-12500D01*
X-13083Y141329D01*
Y140163D01*
X-12500Y139580D01*
X-11334D01*
X-10751Y140163D01*
X-98000Y94730D02*
Y92231D01*
X-97167Y91398D01*
X-94668D01*
Y94730D01*
X-89669Y95563D02*
X-90502Y96396D01*
X-92169D01*
X-93002Y95563D01*
Y94730D01*
X-92169Y93897D01*
X-90502D01*
X-89669Y93064D01*
Y92231D01*
X-90502Y91398D01*
X-92169D01*
X-93002Y92231D01*
X-88003Y96396D02*
Y91398D01*
X-85504D01*
X-84671Y92231D01*
Y95563D01*
X-85504Y96396D01*
X-88003D01*
X-74674Y95563D02*
X-75507Y96396D01*
X-77173D01*
X-78007Y95563D01*
Y92231D01*
X-77173Y91398D01*
X-75507D01*
X-74674Y92231D01*
X-72175Y94730D02*
X-70509D01*
X-69676Y93897D01*
Y91398D01*
X-72175D01*
X-73008Y92231D01*
X-72175Y93064D01*
X-69676D01*
X-68010Y94730D02*
Y91398D01*
Y93064D01*
X-67177Y93897D01*
X-66344Y94730D01*
X-65510D01*
X-59679Y96396D02*
Y91398D01*
X-62178D01*
X-63011Y92231D01*
Y93897D01*
X-62178Y94730D01*
X-59679D01*
X-92585Y83000D02*
Y87998D01*
X-90919Y86332D01*
X-89253Y87998D01*
Y83000D01*
X-86754D02*
X-85088D01*
X-84254Y83833D01*
Y85499D01*
X-85088Y86332D01*
X-86754D01*
X-87587Y85499D01*
Y83833D01*
X-86754Y83000D01*
X-79256Y87998D02*
Y83000D01*
X-81755D01*
X-82588Y83833D01*
Y85499D01*
X-81755Y86332D01*
X-79256D01*
X-77590D02*
Y83833D01*
X-76757Y83000D01*
X-74258D01*
Y86332D01*
X-72592Y83000D02*
X-70925D01*
X-71759D01*
Y87998D01*
X-72592D01*
X-65927Y83000D02*
X-67593D01*
X-68426Y83833D01*
Y85499D01*
X-67593Y86332D01*
X-65927D01*
X-65094Y85499D01*
Y84666D01*
X-68426D01*
X-204500Y50999D02*
X-205999Y49500D01*
X-207499Y50999D01*
Y53999D02*
Y52999D01*
X-206999Y52499D01*
X-205000D01*
X-204500Y52999D01*
Y53999D01*
X-205000Y54498D01*
X-206999D01*
X-207499Y53999D01*
Y57497D02*
Y55498D01*
X-205999D01*
Y56498D01*
Y55498D01*
X-204500D01*
X-207499Y60496D02*
Y58497D01*
X-205999D01*
Y59497D01*
Y58497D01*
X-204500D01*
X-205999Y61496D02*
Y63495D01*
X-207499Y65995D02*
Y64995D01*
X-206999Y64495D01*
X-205000D01*
X-204500Y64995D01*
Y65995D01*
X-205000Y66495D01*
X-206999D01*
X-207499Y65995D01*
X-204500Y67494D02*
X-207499D01*
X-204500Y69494D01*
X-207499D01*
X-204500Y70493D02*
X-205999Y71993D01*
X-207499Y70493D01*
X-254000Y18223D02*
Y14287D01*
X-253213Y13500D01*
X-251639D01*
X-250851Y14287D01*
Y18223D01*
X-249277Y13500D02*
Y18223D01*
X-246129Y13500D01*
Y18223D01*
X-241406Y17436D02*
X-242193Y18223D01*
X-243767D01*
X-244554Y17436D01*
Y16649D01*
X-243767Y15861D01*
X-242193D01*
X-241406Y15074D01*
Y14287D01*
X-242193Y13500D01*
X-243767D01*
X-244554Y14287D01*
X-239831Y18223D02*
Y13500D01*
X-238257Y15074D01*
X-236683Y13500D01*
Y18223D01*
X-227237Y17436D02*
X-228024Y18223D01*
X-229598D01*
X-230386Y17436D01*
Y16649D01*
X-229598Y15861D01*
X-228024D01*
X-227237Y15074D01*
Y14287D01*
X-228024Y13500D01*
X-229598D01*
X-230386Y14287D01*
X-225663Y18223D02*
X-222514D01*
X-224088D01*
Y13500D01*
X-220940Y18223D02*
Y14287D01*
X-220153Y13500D01*
X-218578D01*
X-217791Y14287D01*
Y18223D01*
X-216217D02*
Y13500D01*
X-213856D01*
X-213068Y14287D01*
Y17436D01*
X-213856Y18223D01*
X-216217D01*
X-208346D02*
X-211494D01*
Y13500D01*
X-208346D01*
X-211494Y15861D02*
X-209920D01*
X-206771Y13500D02*
Y18223D01*
X-203623Y13500D01*
Y18223D01*
X-202048D02*
X-198900D01*
X-200474D01*
Y13500D01*
X-189454Y17436D02*
X-190241Y18223D01*
X-191815D01*
X-192603Y17436D01*
Y16649D01*
X-191815Y15861D01*
X-190241D01*
X-189454Y15074D01*
Y14287D01*
X-190241Y13500D01*
X-191815D01*
X-192603Y14287D01*
X-187880Y13500D02*
Y18223D01*
X-185518D01*
X-184731Y17436D01*
Y15861D01*
X-185518Y15074D01*
X-187880D01*
X-183157Y13500D02*
Y16649D01*
X-181582Y18223D01*
X-180008Y16649D01*
Y13500D01*
Y15861D01*
X-183157D01*
X-175285Y17436D02*
X-176073Y18223D01*
X-177647D01*
X-178434Y17436D01*
Y14287D01*
X-177647Y13500D01*
X-176073D01*
X-175285Y14287D01*
X-170562Y18223D02*
X-173711D01*
Y13500D01*
X-170562D01*
X-173711Y15861D02*
X-172137D01*
X-164265Y13500D02*
Y18223D01*
X-161904D01*
X-161117Y17436D01*
Y15861D01*
X-161904Y15074D01*
X-164265D01*
X-159542Y13500D02*
Y18223D01*
X-157181D01*
X-156394Y17436D01*
Y15861D01*
X-157181Y15074D01*
X-159542D01*
X-157968D02*
X-156394Y13500D01*
X-152458Y18223D02*
X-154032D01*
X-154820Y17436D01*
Y14287D01*
X-154032Y13500D01*
X-152458D01*
X-151671Y14287D01*
Y17436D01*
X-152458Y18223D01*
X-146948D02*
X-148522D01*
X-147735D01*
Y14287D01*
X-148522Y13500D01*
X-149310D01*
X-150097Y14287D01*
X-142225Y18223D02*
X-145374D01*
Y13500D01*
X-142225D01*
X-145374Y15861D02*
X-143799D01*
X-137502Y17436D02*
X-138289Y18223D01*
X-139864D01*
X-140651Y17436D01*
Y14287D01*
X-139864Y13500D01*
X-138289D01*
X-137502Y14287D01*
X-135928Y18223D02*
X-132779D01*
X-134354D01*
Y13500D01*
X-41000Y245500D02*
X-45998D01*
X-41000Y248832D01*
X-45998D01*
X-41000Y250498D02*
X-45998D01*
Y252998D01*
X-45165Y253831D01*
X-43499D01*
X-42666Y252998D01*
Y250498D01*
Y252165D02*
X-41000Y253831D01*
X-45998Y258829D02*
Y255497D01*
X-43499D01*
Y257163D01*
Y255497D01*
X-41000D01*
Y263827D02*
Y260495D01*
X-44332Y263827D01*
X-45165D01*
X-45998Y262994D01*
Y261328D01*
X-45165Y260495D01*
X-41000Y267993D02*
X-45998D01*
X-43499Y265493D01*
Y268826D01*
X-45998Y270492D02*
X-41000D01*
Y273824D01*
X-45165Y275490D02*
X-45998Y276323D01*
Y277990D01*
X-45165Y278822D01*
X-41833D01*
X-41000Y277990D01*
Y276323D01*
X-41833Y275490D01*
X-45165D01*
X-41000Y280489D02*
Y282155D01*
Y281322D01*
X-45998D01*
X-45165Y280489D01*
X-157500Y304502D02*
Y309500D01*
X-160832D01*
X-162498Y305335D02*
X-163331Y304502D01*
X-164998D01*
X-165831Y305335D01*
Y306168D01*
X-164998Y307001D01*
X-164164D01*
X-164998D01*
X-165831Y307834D01*
Y308667D01*
X-164998Y309500D01*
X-163331D01*
X-162498Y308667D01*
X-170829Y305335D02*
X-169996Y304502D01*
X-168330D01*
X-167497Y305335D01*
Y308667D01*
X-168330Y309500D01*
X-169996D01*
X-170829Y308667D01*
Y307001D01*
X-169163D01*
X-172495Y304502D02*
Y309500D01*
X-174994D01*
X-175827Y308667D01*
Y305335D01*
X-174994Y304502D01*
X-172495D01*
X-180826Y309500D02*
X-177494D01*
X-180826Y306168D01*
Y305335D01*
X-179993Y304502D01*
X-178327D01*
X-177494Y305335D01*
X-182492D02*
X-183325Y304502D01*
X-184991D01*
X-185824Y305335D01*
Y308667D01*
X-184991Y309500D01*
X-183325D01*
X-182492Y308667D01*
Y305335D01*
X-187490Y304502D02*
Y309500D01*
Y307001D01*
X-190823D01*
Y304502D01*
Y309500D01*
X-256002Y328500D02*
X-261000D01*
X-258501D01*
Y325168D01*
X-256002D01*
X-261000D01*
Y323502D02*
X-256002D01*
X-257668Y321835D01*
X-256002Y320169D01*
X-261000D01*
X-256835Y315171D02*
X-256002Y316004D01*
Y317670D01*
X-256835Y318503D01*
X-260167D01*
X-261000Y317670D01*
Y316004D01*
X-260167Y315171D01*
X-256002Y310173D02*
Y313505D01*
X-258501D01*
X-257668Y311839D01*
Y311006D01*
X-258501Y310173D01*
X-260167D01*
X-261000Y311006D01*
Y312672D01*
X-260167Y313505D01*
X-256835Y308506D02*
X-256002Y307673D01*
Y306007D01*
X-256835Y305174D01*
X-257668D01*
X-258501Y306007D01*
X-259334Y305174D01*
X-260167D01*
X-261000Y306007D01*
Y307673D01*
X-260167Y308506D01*
X-259334D01*
X-258501Y307673D01*
X-257668Y308506D01*
X-256835D01*
X-258501Y307673D02*
Y306007D01*
X-256835Y303508D02*
X-256002Y302675D01*
Y301009D01*
X-256835Y300176D01*
X-257668D01*
X-258501Y301009D01*
X-259334Y300176D01*
X-260167D01*
X-261000Y301009D01*
Y302675D01*
X-260167Y303508D01*
X-259334D01*
X-258501Y302675D01*
X-257668Y303508D01*
X-256835D01*
X-258501Y302675D02*
Y301009D01*
X-256835Y298510D02*
X-256002Y297677D01*
Y296010D01*
X-256835Y295178D01*
X-257668D01*
X-258501Y296010D01*
Y296844D01*
Y296010D01*
X-259334Y295178D01*
X-260167D01*
X-261000Y296010D01*
Y297677D01*
X-260167Y298510D01*
X-256002Y293511D02*
X-261000D01*
Y290179D01*
X-274000Y189000D02*
X-270668D01*
X-269002Y187334D01*
X-270668Y185668D01*
X-274000D01*
X-271501D01*
Y189000D01*
X-270668Y184002D02*
X-274000D01*
X-272334D01*
X-271501Y183169D01*
X-270668Y182335D01*
Y181502D01*
X-269002Y175671D02*
X-274000D01*
Y178170D01*
X-273167Y179003D01*
X-271501D01*
X-270668Y178170D01*
Y175671D01*
Y174005D02*
X-273167D01*
X-274000Y173172D01*
Y170673D01*
X-270668D01*
X-274000Y169007D02*
Y167340D01*
Y168173D01*
X-270668D01*
Y169007D01*
X-274000Y164841D02*
X-270668D01*
Y162342D01*
X-271501Y161509D01*
X-274000D01*
Y159010D02*
Y157344D01*
X-273167Y156510D01*
X-271501D01*
X-270668Y157344D01*
Y159010D01*
X-271501Y159843D01*
X-273167D01*
X-274000Y159010D01*
Y149846D02*
X-269002D01*
Y147347D01*
X-269835Y146514D01*
X-271501D01*
X-272334Y147347D01*
Y149846D01*
X-270668Y144848D02*
X-274000D01*
X-272334D01*
X-271501Y144015D01*
X-270668Y143182D01*
Y142349D01*
X-274000Y139016D02*
Y137350D01*
X-273167Y136517D01*
X-271501D01*
X-270668Y137350D01*
Y139016D01*
X-271501Y139849D01*
X-273167D01*
X-274000Y139016D01*
Y129852D02*
X-269002D01*
X-270668Y128186D01*
X-269002Y126520D01*
X-274000D01*
Y124854D02*
Y123188D01*
Y124021D01*
X-270668D01*
Y124854D01*
X-274000Y120689D02*
X-270668D01*
Y118190D01*
X-271501Y117357D01*
X-274000D01*
Y115690D02*
Y114024D01*
Y114857D01*
X-270668D01*
Y115690D01*
X-189000Y194000D02*
X-185668D01*
X-184002Y192334D01*
X-185668Y190668D01*
X-189000D01*
X-186501D01*
Y194000D01*
X-185668Y189002D02*
X-189000D01*
X-187334D01*
X-186501Y188169D01*
X-185668Y187336D01*
Y186502D01*
X-184002Y180671D02*
X-189000D01*
Y183170D01*
X-188167Y184003D01*
X-186501D01*
X-185668Y183170D01*
Y180671D01*
Y179005D02*
X-188167D01*
X-189000Y178172D01*
Y175673D01*
X-185668D01*
X-189000Y174006D02*
Y172340D01*
Y173173D01*
X-185668D01*
Y174006D01*
X-189000Y169841D02*
X-185668D01*
Y167342D01*
X-186501Y166509D01*
X-189000D01*
Y164010D02*
Y162344D01*
X-188167Y161511D01*
X-186501D01*
X-185668Y162344D01*
Y164010D01*
X-186501Y164843D01*
X-188167D01*
X-189000Y164010D01*
Y154846D02*
X-184002D01*
Y152347D01*
X-184835Y151514D01*
X-186501D01*
X-187334Y152347D01*
Y154846D01*
X-185668Y149848D02*
X-189000D01*
X-187334D01*
X-186501Y149015D01*
X-185668Y148181D01*
Y147348D01*
X-189000Y144016D02*
Y142350D01*
X-188167Y141517D01*
X-186501D01*
X-185668Y142350D01*
Y144016D01*
X-186501Y144849D01*
X-188167D01*
X-189000Y144016D01*
Y134853D02*
X-184002D01*
X-185668Y133186D01*
X-184002Y131520D01*
X-189000D01*
Y129854D02*
Y128188D01*
Y129021D01*
X-185668D01*
Y129854D01*
X-189000Y125689D02*
X-185668D01*
Y123190D01*
X-186501Y122356D01*
X-189000D01*
Y120690D02*
Y119024D01*
Y119857D01*
X-185668D01*
Y120690D01*
D27*
X-253063Y255484D02*
G03*
X-253063Y255484I-787J0D01*
G01*
D28*
X-249716Y262768D02*
G03*
X-249716Y262768I-492J0D01*
G01*
D29*
X-262000Y37500D02*
Y47500D01*
Y37500D02*
X-202000D01*
X-262000Y47500D02*
X-202000D01*
Y37500D02*
Y47500D01*
X-342500Y37500D02*
Y47500D01*
Y37500D02*
X-282500D01*
X-342500Y47500D02*
X-282500D01*
Y37500D02*
Y47500D01*
X-360500Y50016D02*
X-344500D01*
X-361000Y311016D02*
X-344500D01*
X-340500Y50016D02*
X-324500D01*
X-341000Y311016D02*
X-324500D01*
X-263299Y250366D02*
Y258634D01*
X-250701D01*
X-263299Y250366D02*
X-250701D01*
Y258634D01*
D30*
X-342500Y315500D02*
Y335500D01*
X-342500Y315500D02*
X-332500D01*
X-342500Y325500D02*
X-332500D01*
X-342500Y335500D02*
X-332500Y335500D01*
Y315500D02*
Y335500D01*
X-323500Y316000D02*
Y336000D01*
X-323500Y316000D02*
X-313500D01*
X-323500Y326000D02*
X-313500D01*
X-323500Y336000D02*
X-313500Y336000D01*
Y316000D02*
Y336000D01*
D31*
X-184500Y84500D02*
X-177500D01*
X-184500Y70500D02*
Y84500D01*
X-177500D02*
X-177500Y70500D01*
X-184500Y70500D02*
X-177500Y70500D01*
X-147500Y178000D02*
X-140500D01*
X-147500Y164000D02*
Y178000D01*
X-140500D02*
X-140500Y164000D01*
X-147500Y164000D02*
X-140500Y164000D01*
X-138500Y178000D02*
X-131500D01*
X-138500Y164000D02*
Y178000D01*
X-131500D02*
X-131500Y164000D01*
X-138500Y164000D02*
X-131500Y164000D01*
X-164000Y79500D02*
Y86500D01*
Y79500D02*
X-150000D01*
X-164000Y86500D02*
X-150000Y86500D01*
X-150000Y79500D02*
X-150000Y86500D01*
X-312500Y319000D02*
X-305500D01*
Y333000D01*
X-312500Y333000D02*
X-312500Y319000D01*
X-312500Y333000D02*
X-305500Y333000D01*
X-331500Y319000D02*
X-324500D01*
Y333000D01*
X-331500Y333000D02*
X-331500Y319000D01*
X-331500Y333000D02*
X-324500Y333000D01*
X-264000Y266500D02*
X-264000Y273500D01*
X-264000Y266500D02*
X-250000Y266500D01*
X-264000Y273500D02*
X-250000D01*
Y266500D02*
Y273500D01*
X-264000Y275000D02*
X-264000Y282000D01*
X-264000Y275000D02*
X-250000Y275000D01*
X-264000Y282000D02*
X-250000D01*
Y275000D02*
Y282000D01*
X-249000Y255000D02*
X-242000D01*
Y269000D01*
X-249000Y269000D02*
X-249000Y255000D01*
X-249000Y269000D02*
X-242000Y269000D01*
X-249000Y254000D02*
X-242000D01*
X-249000Y240000D02*
Y254000D01*
X-242000D02*
X-242000Y240000D01*
X-249000Y240000D02*
X-242000Y240000D01*
X-26000Y186000D02*
Y200000D01*
X-33000Y200000D02*
X-26000Y200000D01*
X-33000Y186000D02*
X-26000D01*
X-33000Y200000D02*
X-33000Y186000D01*
X-34500D02*
Y200000D01*
X-41500Y200000D02*
X-34500Y200000D01*
X-41500Y186000D02*
X-34500D01*
X-41500Y200000D02*
X-41500Y186000D01*
X-43000D02*
Y200000D01*
X-50000Y200000D02*
X-43000Y200000D01*
X-50000Y186000D02*
X-43000D01*
X-50000Y200000D02*
X-50000Y186000D01*
X-81000Y222000D02*
X-81000Y208000D01*
X-74000D01*
X-81000Y222000D02*
X-74000Y222000D01*
Y208000D02*
Y222000D01*
X-250000Y235500D02*
Y242500D01*
X-264000D02*
X-250000D01*
X-264000Y235500D02*
X-250000Y235500D01*
X-264000Y235500D02*
X-264000Y242500D01*
X-250000Y227000D02*
Y234000D01*
X-264000D02*
X-250000D01*
X-264000Y227000D02*
X-250000Y227000D01*
X-264000Y227000D02*
X-264000Y234000D01*
X-240000D02*
X-233000D01*
X-240000Y220000D02*
Y234000D01*
X-233000D02*
X-233000Y220000D01*
X-240000Y220000D02*
X-233000Y220000D01*
X-248500Y234000D02*
X-241500D01*
X-248500Y220000D02*
Y234000D01*
X-241500D02*
X-241500Y220000D01*
X-248500Y220000D02*
X-241500Y220000D01*
X-260500Y255499D02*
Y253833D01*
X-260167Y253500D01*
X-259500D01*
X-259167Y253833D01*
Y255499D01*
X-257168Y253500D02*
X-258501D01*
X-257168Y254833D01*
Y255166D01*
X-257501Y255499D01*
X-258167D01*
X-258501Y255166D01*
X-72000Y322999D02*
Y321000D01*
Y322000D01*
X-70667D01*
Y322999D01*
Y321000D01*
X-70001Y321333D02*
X-69667Y321000D01*
X-69001D01*
X-68668Y321333D01*
Y322666D01*
X-69001Y322999D01*
X-69667D01*
X-70001Y322666D01*
Y322333D01*
X-69667Y322000D01*
X-68668D01*
X-127500Y182999D02*
Y181000D01*
Y182000D01*
X-126167D01*
Y182999D01*
Y181000D01*
X-125501Y182666D02*
X-125167Y182999D01*
X-124501D01*
X-124168Y182666D01*
Y182333D01*
X-124501Y182000D01*
X-124168Y181667D01*
Y181333D01*
X-124501Y181000D01*
X-125167D01*
X-125501Y181333D01*
Y181667D01*
X-125167Y182000D01*
X-125501Y182333D01*
Y182666D01*
X-125167Y182000D02*
X-124501D01*
X-217500Y341999D02*
Y340000D01*
Y341000D01*
X-216167D01*
Y341999D01*
Y340000D01*
X-215501Y341999D02*
X-214168D01*
Y341666D01*
X-215501Y340333D01*
Y340000D01*
X-288400Y342099D02*
Y340100D01*
Y341100D01*
X-287067D01*
Y342099D01*
Y340100D01*
X-285068Y342099D02*
X-285734Y341766D01*
X-286401Y341100D01*
Y340433D01*
X-286067Y340100D01*
X-285401D01*
X-285068Y340433D01*
Y340766D01*
X-285401Y341100D01*
X-286401D01*
X-306500Y218999D02*
Y217000D01*
Y218000D01*
X-305167D01*
Y218999D01*
Y217000D01*
X-303168Y218999D02*
X-304501D01*
Y218000D01*
X-303834Y218333D01*
X-303501D01*
X-303168Y218000D01*
Y217333D01*
X-303501Y217000D01*
X-304167D01*
X-304501Y217333D01*
X-221500Y223999D02*
Y222000D01*
Y223000D01*
X-220167D01*
Y223999D01*
Y222000D01*
X-218501D02*
Y223999D01*
X-219501Y223000D01*
X-218168D01*
X-261900Y52399D02*
Y50400D01*
Y51400D01*
X-260567D01*
Y52399D01*
Y50400D01*
X-259901Y52066D02*
X-259567Y52399D01*
X-258901D01*
X-258568Y52066D01*
Y51733D01*
X-258901Y51400D01*
X-259234D01*
X-258901D01*
X-258568Y51066D01*
Y50733D01*
X-258901Y50400D01*
X-259567D01*
X-259901Y50733D01*
X-342400Y340399D02*
Y338400D01*
Y339400D01*
X-341067D01*
Y340399D01*
Y338400D01*
X-340401D02*
X-339734D01*
X-340067D01*
Y340399D01*
X-340401Y340066D01*
X-338735Y338400D02*
X-338068D01*
X-338401D01*
Y340399D01*
X-338735Y340066D01*
X-323400Y340899D02*
Y338900D01*
Y339900D01*
X-322067D01*
Y340899D01*
Y338900D01*
X-321401D02*
X-320734D01*
X-321067D01*
Y340899D01*
X-321401Y340566D01*
X-319735D02*
X-319401Y340899D01*
X-318735D01*
X-318402Y340566D01*
Y339233D01*
X-318735Y338900D01*
X-319401D01*
X-319735Y339233D01*
Y340566D01*
X-201067Y77166D02*
X-201400Y77499D01*
X-202067D01*
X-202400Y77166D01*
Y76833D01*
X-202067Y76500D01*
X-201400D01*
X-201067Y76166D01*
Y75833D01*
X-201400Y75500D01*
X-202067D01*
X-202400Y75833D01*
X-200401Y77499D02*
Y75500D01*
X-199734Y76166D01*
X-199068Y75500D01*
Y77499D01*
X-198401Y75500D02*
X-197735D01*
X-198068D01*
Y77499D01*
X-198401Y77166D01*
X-320000Y52999D02*
Y51000D01*
Y52000D01*
X-318667D01*
Y52999D01*
Y51000D01*
X-318001D02*
X-317334D01*
X-317667D01*
Y52999D01*
X-318001Y52666D01*
X-315002Y51000D02*
X-316335D01*
X-315002Y52333D01*
Y52666D01*
X-315335Y52999D01*
X-316001D01*
X-316335Y52666D01*
X-159500Y66500D02*
Y68499D01*
X-158500D01*
X-158167Y68166D01*
Y67500D01*
X-158500Y67166D01*
X-159500D01*
X-157501Y68499D02*
Y66500D01*
X-156501D01*
X-156168Y66833D01*
Y67166D01*
X-156501Y67500D01*
X-157501D01*
X-156501D01*
X-156168Y67833D01*
Y68166D01*
X-156501Y68499D01*
X-157501D01*
X-155501Y66500D02*
X-154835D01*
X-155168D01*
Y68499D01*
X-155501Y68166D01*
X-138500Y45499D02*
Y43500D01*
X-137500D01*
X-137167Y43833D01*
Y45166D01*
X-137500Y45499D01*
X-138500D01*
X-136501Y45166D02*
X-136167Y45499D01*
X-135501D01*
X-135168Y45166D01*
Y44833D01*
X-135501Y44500D01*
X-135834D01*
X-135501D01*
X-135168Y44166D01*
Y43833D01*
X-135501Y43500D01*
X-136167D01*
X-136501Y43833D01*
X-156500Y45499D02*
Y43500D01*
X-155500D01*
X-155167Y43833D01*
Y45166D01*
X-155500Y45499D01*
X-156500D01*
X-153168Y43500D02*
X-154501D01*
X-153168Y44833D01*
Y45166D01*
X-153501Y45499D01*
X-154167D01*
X-154501Y45166D01*
X-174500Y45499D02*
Y43500D01*
X-173500D01*
X-173167Y43833D01*
Y45166D01*
X-173500Y45499D01*
X-174500D01*
X-172501Y43500D02*
X-171834D01*
X-172167D01*
Y45499D01*
X-172501Y45166D01*
X-356500Y60499D02*
Y58500D01*
Y59500D01*
X-355167D01*
Y60499D01*
Y58500D01*
X-353168D02*
X-354501D01*
X-353168Y59833D01*
Y60166D01*
X-353501Y60499D01*
X-354167D01*
X-354501Y60166D01*
X-335000Y60499D02*
Y58500D01*
Y59500D01*
X-333667D01*
Y60499D01*
Y58500D01*
X-333001D02*
X-332334D01*
X-332667D01*
Y60499D01*
X-333001Y60166D01*
X-310867Y337366D02*
X-311200Y337699D01*
X-311867D01*
X-312200Y337366D01*
Y336033D01*
X-311867Y335700D01*
X-311200D01*
X-310867Y336033D01*
X-310201Y335700D02*
X-309534D01*
X-309867D01*
Y337699D01*
X-310201Y337366D01*
X-329867Y337466D02*
X-330200Y337799D01*
X-330867D01*
X-331200Y337466D01*
Y336133D01*
X-330867Y335800D01*
X-330200D01*
X-329867Y336133D01*
X-327868Y335800D02*
X-329201D01*
X-327868Y337133D01*
Y337466D01*
X-328201Y337799D01*
X-328867D01*
X-329201Y337466D01*
X-78167Y216166D02*
X-78500Y216499D01*
X-79167D01*
X-79500Y216166D01*
Y214833D01*
X-79167Y214500D01*
X-78500D01*
X-78167Y214833D01*
X-77501Y216166D02*
X-77167Y216499D01*
X-76501D01*
X-76168Y216166D01*
Y215833D01*
X-76501Y215500D01*
X-76834D01*
X-76501D01*
X-76168Y215166D01*
Y214833D01*
X-76501Y214500D01*
X-77167D01*
X-77501Y214833D01*
X-245667Y262666D02*
X-246000Y262999D01*
X-246667D01*
X-247000Y262666D01*
Y261333D01*
X-246667Y261000D01*
X-246000D01*
X-245667Y261333D01*
X-243668Y262999D02*
X-245001D01*
Y262000D01*
X-244334Y262333D01*
X-244001D01*
X-243668Y262000D01*
Y261333D01*
X-244001Y261000D01*
X-244667D01*
X-245001Y261333D01*
X-256000Y238000D02*
X-257999D01*
Y239000D01*
X-257666Y239333D01*
X-257000D01*
X-256666Y239000D01*
Y238000D01*
Y238666D02*
X-256000Y239333D01*
Y239999D02*
Y240666D01*
Y240333D01*
X-257999D01*
X-257666Y239999D01*
X-256000Y229000D02*
X-257999D01*
Y230000D01*
X-257666Y230333D01*
X-257000D01*
X-256666Y230000D01*
Y229000D01*
Y229666D02*
X-256000Y230333D01*
Y232332D02*
Y230999D01*
X-257333Y232332D01*
X-257666D01*
X-257999Y231999D01*
Y231333D01*
X-257666Y230999D01*
X-163700Y89300D02*
Y91299D01*
X-162700D01*
X-162367Y90966D01*
Y90300D01*
X-162700Y89966D01*
X-163700D01*
X-163033D02*
X-162367Y89300D01*
X-161701Y90966D02*
X-161367Y91299D01*
X-160701D01*
X-160368Y90966D01*
Y90633D01*
X-160701Y90300D01*
X-161034D01*
X-160701D01*
X-160368Y89966D01*
Y89633D01*
X-160701Y89300D01*
X-161367D01*
X-161701Y89633D01*
X-184200Y87200D02*
Y89199D01*
X-183200D01*
X-182867Y88866D01*
Y88200D01*
X-183200Y87866D01*
X-184200D01*
X-183534D02*
X-182867Y87200D01*
X-181201D02*
Y89199D01*
X-182201Y88200D01*
X-180868D01*
X-147300Y180800D02*
Y182799D01*
X-146300D01*
X-145967Y182466D01*
Y181800D01*
X-146300Y181466D01*
X-147300D01*
X-146634D02*
X-145967Y180800D01*
X-143968Y182799D02*
X-145301D01*
Y181800D01*
X-144634Y182133D01*
X-144301D01*
X-143968Y181800D01*
Y181133D01*
X-144301Y180800D01*
X-144967D01*
X-145301Y181133D01*
X-138200Y180700D02*
Y182699D01*
X-137200D01*
X-136867Y182366D01*
Y181700D01*
X-137200Y181367D01*
X-138200D01*
X-137533D02*
X-136867Y180700D01*
X-134868Y182699D02*
X-135534Y182366D01*
X-136201Y181700D01*
Y181033D01*
X-135867Y180700D01*
X-135201D01*
X-134868Y181033D01*
Y181367D01*
X-135201Y181700D01*
X-136201D01*
X-238000Y226000D02*
Y227999D01*
X-237000D01*
X-236667Y227666D01*
Y227000D01*
X-237000Y226666D01*
X-238000D01*
X-237334D02*
X-236667Y226000D01*
X-236001Y227999D02*
X-234668D01*
Y227666D01*
X-236001Y226333D01*
Y226000D01*
X-246500D02*
Y227999D01*
X-245500D01*
X-245167Y227666D01*
Y227000D01*
X-245500Y226666D01*
X-246500D01*
X-245834D02*
X-245167Y226000D01*
X-244501Y227666D02*
X-244167Y227999D01*
X-243501D01*
X-243168Y227666D01*
Y227333D01*
X-243501Y227000D01*
X-243168Y226666D01*
Y226333D01*
X-243501Y226000D01*
X-244167D01*
X-244501Y226333D01*
Y226666D01*
X-244167Y227000D01*
X-244501Y227333D01*
Y227666D01*
X-244167Y227000D02*
X-243501D01*
X-256000Y277000D02*
X-257999D01*
Y278000D01*
X-257666Y278333D01*
X-257000D01*
X-256666Y278000D01*
Y277000D01*
Y277666D02*
X-256000Y278333D01*
X-256333Y278999D02*
X-256000Y279333D01*
Y279999D01*
X-256333Y280332D01*
X-257666D01*
X-257999Y279999D01*
Y279333D01*
X-257666Y278999D01*
X-257333D01*
X-257000Y279333D01*
Y280332D01*
X-256000Y267500D02*
X-257999D01*
Y268500D01*
X-257666Y268833D01*
X-257000D01*
X-256666Y268500D01*
Y267500D01*
Y268166D02*
X-256000Y268833D01*
Y269499D02*
Y270166D01*
Y269833D01*
X-257999D01*
X-257666Y269499D01*
Y271165D02*
X-257999Y271499D01*
Y272165D01*
X-257666Y272498D01*
X-256333D01*
X-256000Y272165D01*
Y271499D01*
X-256333Y271165D01*
X-257666D01*
X-247500Y246000D02*
Y247999D01*
X-246500D01*
X-246167Y247666D01*
Y247000D01*
X-246500Y246666D01*
X-247500D01*
X-246834D02*
X-246167Y246000D01*
X-245501D02*
X-244834D01*
X-245167D01*
Y247999D01*
X-245501Y247666D01*
X-243834Y246000D02*
X-243168D01*
X-243501D01*
Y247999D01*
X-243834Y247666D01*
X-40500Y192000D02*
Y193999D01*
X-39500D01*
X-39167Y193666D01*
Y193000D01*
X-39500Y192666D01*
X-40500D01*
X-39834D02*
X-39167Y192000D01*
X-38501D02*
X-37834D01*
X-38167D01*
Y193999D01*
X-38501Y193666D01*
X-35502Y192000D02*
X-36834D01*
X-35502Y193333D01*
Y193666D01*
X-35835Y193999D01*
X-36501D01*
X-36834Y193666D01*
X-32000Y192000D02*
Y193999D01*
X-31000D01*
X-30667Y193666D01*
Y193000D01*
X-31000Y192666D01*
X-32000D01*
X-31334D02*
X-30667Y192000D01*
X-30001D02*
X-29334D01*
X-29667D01*
Y193999D01*
X-30001Y193666D01*
X-28335D02*
X-28001Y193999D01*
X-27335D01*
X-27002Y193666D01*
Y193333D01*
X-27335Y193000D01*
X-27668D01*
X-27335D01*
X-27002Y192666D01*
Y192333D01*
X-27335Y192000D01*
X-28001D01*
X-28335Y192333D01*
X-49000Y192000D02*
Y193999D01*
X-48000D01*
X-47667Y193666D01*
Y193000D01*
X-48000Y192666D01*
X-49000D01*
X-48334D02*
X-47667Y192000D01*
X-47001D02*
X-46334D01*
X-46667D01*
Y193999D01*
X-47001Y193666D01*
X-44335Y192000D02*
Y193999D01*
X-45335Y193000D01*
X-44002D01*
X-266166Y38333D02*
X-266499Y38000D01*
Y37333D01*
X-266166Y37000D01*
X-264833D01*
X-264500Y37333D01*
Y38000D01*
X-264833Y38333D01*
X-265500D01*
Y37666D01*
X-264500Y38999D02*
X-266499D01*
X-264500Y40332D01*
X-266499D01*
Y40999D02*
X-264500D01*
Y41998D01*
X-264833Y42332D01*
X-266166D01*
X-266499Y41998D01*
Y40999D01*
X-320167Y304999D02*
X-321500D01*
Y304000D01*
X-320834Y304333D01*
X-320500D01*
X-320167Y304000D01*
Y303333D01*
X-320500Y303000D01*
X-321167D01*
X-321500Y303333D01*
X-319501Y304999D02*
Y303666D01*
X-318834Y303000D01*
X-318168Y303666D01*
Y304999D01*
X-365834Y198667D02*
X-365501Y199000D01*
Y199667D01*
X-365834Y200000D01*
X-367167D01*
X-367500Y199667D01*
Y199000D01*
X-367167Y198667D01*
X-366500D01*
Y199334D01*
X-367500Y198001D02*
X-365501D01*
X-367500Y196668D01*
X-365501D01*
Y196001D02*
X-367500D01*
Y195002D01*
X-367167Y194668D01*
X-365834D01*
X-365501Y195002D01*
Y196001D01*
X-337166Y25833D02*
X-337499Y25500D01*
Y24833D01*
X-337166Y24500D01*
X-335833D01*
X-335500Y24833D01*
Y25500D01*
X-335833Y25833D01*
X-336500D01*
Y25166D01*
X-335500Y26499D02*
X-337499D01*
X-335500Y27832D01*
X-337499D01*
Y28499D02*
X-335500D01*
Y29498D01*
X-335833Y29832D01*
X-337166D01*
X-337499Y29498D01*
Y28499D01*
X-355500Y47349D02*
Y46016D01*
X-356833Y47349D01*
X-357166D01*
X-357499Y47015D01*
Y46349D01*
X-357166Y46016D01*
X-345500Y47016D02*
Y47682D01*
Y47349D01*
X-347499D01*
X-347166Y47016D01*
X-357499Y313349D02*
Y312016D01*
X-356500D01*
X-356833Y312682D01*
Y313015D01*
X-356500Y313349D01*
X-355833D01*
X-355500Y313015D01*
Y312349D01*
X-355833Y312016D01*
X-355500Y315348D02*
Y314015D01*
X-356833Y315348D01*
X-357166D01*
X-357499Y315015D01*
Y314348D01*
X-357166Y314015D01*
X-347999Y313849D02*
Y312516D01*
X-347000D01*
X-347333Y313182D01*
Y313515D01*
X-347000Y313849D01*
X-346333D01*
X-346000Y313515D01*
Y312849D01*
X-346333Y312516D01*
X-346000Y314515D02*
Y315181D01*
Y314848D01*
X-347999D01*
X-347666Y314515D01*
X-335500Y47349D02*
Y46016D01*
X-336833Y47349D01*
X-337166D01*
X-337499Y47015D01*
Y46349D01*
X-337166Y46016D01*
X-325500Y47016D02*
Y47682D01*
Y47349D01*
X-327499D01*
X-327166Y47016D01*
X-337499Y313349D02*
Y312016D01*
X-336500D01*
X-336833Y312682D01*
Y313015D01*
X-336500Y313349D01*
X-335833D01*
X-335500Y313015D01*
Y312349D01*
X-335833Y312016D01*
X-335500Y315348D02*
Y314015D01*
X-336833Y315348D01*
X-337166D01*
X-337499Y315015D01*
Y314348D01*
X-337166Y314015D01*
X-327999Y313849D02*
Y312516D01*
X-327000D01*
X-327333Y313182D01*
Y313515D01*
X-327000Y313849D01*
X-326333D01*
X-326000Y313515D01*
Y312849D01*
X-326333Y312516D01*
X-326000Y314515D02*
Y315181D01*
Y314848D01*
X-327999D01*
X-327666Y314515D01*
D32*
X-337500Y330519D02*
D03*
X-318500Y331019D02*
D03*
M02*
