M48
;Layer_Color=9474304
;FILE_FORMAT=2:5
INCH,TZ
;TYPE=PLATED
T1F00S00C0.02000
T2F00S00C0.02362
T3F00S00C0.03000
T4F00S00C0.03543
T5F00S00C0.03937
T6F00S00C0.04000
T7F00S00C0.12500
%
T01
X-365500Y30000
Y40000
X-357500Y44500
X-349500Y40000
Y30000
X-357500Y25500
X-28000Y25000
Y15000
X-20000Y10500
X-12000Y15000
Y25000
X-20000Y29500
X-31500Y179000
X-96500Y183500
X-135000Y161000
X-144000
X-147500Y88500
X-231500Y81000
X-236000Y77500
X-312000Y70000
X-317500Y64000
X-253500Y170000
X-349500Y320000
Y330000
X-357500Y334500
X-365500Y330000
Y320000
X-357500Y315500
X-245500Y272000
X-224500Y241500
X-220000Y230500
X-219722Y225000
X-261000
X-266000Y238500
X-286000Y221500
X-291500Y217000
X-145000Y219500
X-140000Y227000
X-146500Y241500
X-115500Y250000
X-84500Y219000
X-57000Y237500
X-47000Y234000
X-28000Y330000
Y340000
X-20000Y344500
X-12000Y340000
Y330000
X-20000Y325500
T02
X-176000Y41232
Y49500
X-157500
Y41232
X-139000
Y49500
T03
X-199500Y45000
Y55000
X-187000
Y45000
Y65000
X-199500
T04
X-337500Y42500
X-327500
X-317500
X-307500
X-297500
X-287500
X-257000
X-247000
X-237000
X-227000
X-217000
X-207000
T05
X-236000Y291000
Y301000
Y311000
Y321000
Y331000
T06
X-357500Y55000
X-347500
X-337500
X-327500
X-172500Y57500
X-142500
Y77500
X-161500Y94000
X-156500Y104000
Y114000
Y124000
Y134000
Y144000
Y154000
Y164000
Y174000
Y184000
Y194000
Y204000
Y214000
X-67000Y210500
X-57000
X-47000
X-37000
X-56500Y162000
X-66500
X-76500
X-86500
X-96500
X-106500
X-216500Y164000
Y154000
Y144000
Y134000
Y124000
Y114000
Y104000
X-211500Y94000
X-201500
X-191500
X-181500
X-171500
X-172500Y77500
X-246500Y89000
X-256500
X-266500
X-276500
X-286500
X-296500
X-301500Y99000
Y109000
Y119000
Y129000
Y139000
Y149000
Y159000
Y169000
Y179000
Y189000
Y199000
Y209000
X-241500
Y199000
Y189000
Y179000
Y169000
Y159000
Y149000
Y139000
Y129000
Y119000
Y109000
Y99000
X-206500Y139000
Y149000
X-216500Y174000
Y184000
Y194000
Y204000
Y214000
X-291500Y144000
Y134000
X-327500Y135000
X-337500
X-347500
X-357500
Y125000
Y115000
Y105000
Y95000
Y85000
Y75000
Y65000
X-347500
Y75000
Y85000
Y95000
Y105000
Y115000
Y125000
X-337500
Y115000
Y105000
Y95000
Y85000
Y75000
Y65000
X-327500
Y75000
Y85000
Y95000
Y105000
Y115000
Y125000
Y145000
X-337500
X-347500
X-357500
Y155000
Y165000
Y175000
Y185000
Y195000
Y205000
Y215000
X-347500
Y205000
Y195000
Y185000
Y175000
Y165000
Y155000
X-337500
Y165000
Y175000
Y185000
Y195000
Y205000
Y215000
X-327500
Y205000
Y195000
Y185000
Y175000
Y165000
Y155000
Y225000
X-337500
X-347500
X-357500
Y235000
Y245000
Y255000
Y265000
Y275000
Y285000
Y295000
Y305000
X-347500
Y295000
Y285000
Y275000
Y265000
Y255000
Y245000
Y235000
X-337500
Y245000
Y255000
Y265000
Y275000
Y285000
Y295000
Y305000
X-327500
Y295000
Y285000
Y275000
Y265000
Y255000
Y245000
Y235000
X-337500Y320500
X-337500Y330500
X-318500Y331000
X-318500Y321000
X-212500Y279500
X-202500
X-192500
X-182500
X-172500
X-162500
X-152500
X-142500
X-132500
X-67000Y220500
X-57000
X-47000
X-37000
T07
X-357500Y35000
X-20000Y20000
X-357500Y325000
X-20000Y335000
M30
