G04 Layer_Color=8388736*
%FSLAX25Y25*%
%MOIN*%
G70*
G01*
G75*
%ADD33R,0.05800X0.04800*%
%ADD34R,0.04800X0.05800*%
%ADD35O,0.02375X0.05918*%
%ADD36C,0.08800*%
%ADD37C,0.08674*%
%ADD38C,0.06706*%
%ADD39R,0.06706X0.06706*%
%ADD40C,0.07800*%
%ADD41R,0.07800X0.07800*%
%ADD42C,0.06800*%
%ADD43C,0.05524*%
%ADD44R,0.08800X0.08800*%
%ADD45C,0.25800*%
%ADD46C,0.04800*%
D33*
X-181000Y81500D02*
D03*
Y73500D02*
D03*
X-144000Y175000D02*
D03*
Y167000D02*
D03*
X-135000Y175000D02*
D03*
Y167000D02*
D03*
X-309000Y322000D02*
D03*
Y330000D02*
D03*
X-328000Y322000D02*
D03*
Y330000D02*
D03*
X-245500Y258000D02*
D03*
Y266000D02*
D03*
Y251000D02*
D03*
Y243000D02*
D03*
X-29500Y197000D02*
D03*
Y189000D02*
D03*
X-38000Y197000D02*
D03*
Y189000D02*
D03*
X-46500Y197000D02*
D03*
Y189000D02*
D03*
X-77500Y211000D02*
D03*
Y219000D02*
D03*
X-236500Y231000D02*
D03*
Y223000D02*
D03*
X-245000Y231000D02*
D03*
Y223000D02*
D03*
D34*
X-161000Y83000D02*
D03*
X-153000D02*
D03*
X-261000Y270000D02*
D03*
X-253000D02*
D03*
X-261000Y278500D02*
D03*
X-253000D02*
D03*
Y239000D02*
D03*
X-261000D02*
D03*
X-253000Y230500D02*
D03*
X-261000D02*
D03*
D35*
X-260839Y246232D02*
D03*
Y262768D02*
D03*
X-258279D02*
D03*
X-253161Y246232D02*
D03*
X-258279D02*
D03*
X-255720D02*
D03*
Y262768D02*
D03*
X-253161D02*
D03*
D36*
X-67000Y210500D02*
D03*
Y220500D02*
D03*
X-57000D02*
D03*
Y210500D02*
D03*
X-47000D02*
D03*
Y220500D02*
D03*
X-37000Y210500D02*
D03*
Y220500D02*
D03*
X-106500Y162000D02*
D03*
X-96500D02*
D03*
X-86500D02*
D03*
X-76500D02*
D03*
X-56500D02*
D03*
X-66500D02*
D03*
X-212500Y279500D02*
D03*
X-192500D02*
D03*
X-202500D02*
D03*
X-142500D02*
D03*
X-132500D02*
D03*
X-172500D02*
D03*
X-182500D02*
D03*
X-152500D02*
D03*
X-162500D02*
D03*
X-301500Y109000D02*
D03*
Y99000D02*
D03*
Y119000D02*
D03*
X-296500Y89000D02*
D03*
X-301500Y129000D02*
D03*
X-291500Y134000D02*
D03*
X-301500Y139000D02*
D03*
Y159000D02*
D03*
Y149000D02*
D03*
Y179000D02*
D03*
Y169000D02*
D03*
Y189000D02*
D03*
X-291500Y144000D02*
D03*
X-301500Y199000D02*
D03*
Y209000D02*
D03*
X-286500Y89000D02*
D03*
X-276500D02*
D03*
X-266500D02*
D03*
X-256500D02*
D03*
X-246500D02*
D03*
X-241500Y99000D02*
D03*
Y109000D02*
D03*
Y179000D02*
D03*
Y169000D02*
D03*
Y209000D02*
D03*
Y189000D02*
D03*
Y199000D02*
D03*
Y129000D02*
D03*
Y119000D02*
D03*
Y159000D02*
D03*
Y139000D02*
D03*
Y149000D02*
D03*
X-216500Y114000D02*
D03*
Y104000D02*
D03*
Y124000D02*
D03*
X-211500Y94000D02*
D03*
X-216500Y134000D02*
D03*
X-206500Y139000D02*
D03*
X-216500Y144000D02*
D03*
Y164000D02*
D03*
Y154000D02*
D03*
Y184000D02*
D03*
Y174000D02*
D03*
Y194000D02*
D03*
X-206500Y149000D02*
D03*
X-216500Y204000D02*
D03*
Y214000D02*
D03*
X-201500Y94000D02*
D03*
X-191500D02*
D03*
X-181500D02*
D03*
X-171500D02*
D03*
X-161500D02*
D03*
X-156500Y104000D02*
D03*
Y114000D02*
D03*
Y184000D02*
D03*
Y174000D02*
D03*
Y214000D02*
D03*
Y194000D02*
D03*
Y204000D02*
D03*
Y134000D02*
D03*
Y124000D02*
D03*
Y164000D02*
D03*
Y144000D02*
D03*
Y154000D02*
D03*
X-142500Y77500D02*
D03*
Y57500D02*
D03*
X-172500Y77500D02*
D03*
Y57500D02*
D03*
X-357500Y125000D02*
D03*
Y105000D02*
D03*
Y115000D02*
D03*
Y155000D02*
D03*
Y165000D02*
D03*
Y135000D02*
D03*
Y145000D02*
D03*
Y65000D02*
D03*
Y55000D02*
D03*
Y95000D02*
D03*
Y75000D02*
D03*
Y85000D02*
D03*
Y195000D02*
D03*
Y175000D02*
D03*
Y185000D02*
D03*
Y225000D02*
D03*
Y235000D02*
D03*
Y205000D02*
D03*
Y215000D02*
D03*
Y265000D02*
D03*
Y275000D02*
D03*
Y245000D02*
D03*
Y255000D02*
D03*
Y285000D02*
D03*
Y295000D02*
D03*
Y305000D02*
D03*
X-347500Y85000D02*
D03*
Y95000D02*
D03*
Y65000D02*
D03*
Y75000D02*
D03*
Y125000D02*
D03*
Y135000D02*
D03*
Y105000D02*
D03*
Y115000D02*
D03*
Y165000D02*
D03*
Y175000D02*
D03*
Y145000D02*
D03*
Y155000D02*
D03*
Y215000D02*
D03*
Y185000D02*
D03*
Y195000D02*
D03*
Y235000D02*
D03*
Y225000D02*
D03*
Y255000D02*
D03*
Y265000D02*
D03*
Y205000D02*
D03*
Y245000D02*
D03*
Y295000D02*
D03*
Y305000D02*
D03*
Y275000D02*
D03*
Y285000D02*
D03*
X-337500Y125000D02*
D03*
Y105000D02*
D03*
Y115000D02*
D03*
Y155000D02*
D03*
Y165000D02*
D03*
Y135000D02*
D03*
Y145000D02*
D03*
Y65000D02*
D03*
Y55000D02*
D03*
Y95000D02*
D03*
Y75000D02*
D03*
Y85000D02*
D03*
Y195000D02*
D03*
Y175000D02*
D03*
Y185000D02*
D03*
Y225000D02*
D03*
Y235000D02*
D03*
Y205000D02*
D03*
Y215000D02*
D03*
Y265000D02*
D03*
Y275000D02*
D03*
Y245000D02*
D03*
Y255000D02*
D03*
Y285000D02*
D03*
Y295000D02*
D03*
Y305000D02*
D03*
X-327500Y85000D02*
D03*
Y95000D02*
D03*
Y65000D02*
D03*
Y75000D02*
D03*
Y125000D02*
D03*
Y135000D02*
D03*
Y105000D02*
D03*
Y115000D02*
D03*
Y165000D02*
D03*
Y175000D02*
D03*
Y145000D02*
D03*
Y155000D02*
D03*
Y215000D02*
D03*
Y185000D02*
D03*
Y195000D02*
D03*
Y235000D02*
D03*
Y225000D02*
D03*
Y255000D02*
D03*
Y265000D02*
D03*
Y205000D02*
D03*
Y245000D02*
D03*
Y295000D02*
D03*
Y305000D02*
D03*
Y275000D02*
D03*
Y285000D02*
D03*
D37*
X-236000Y311000D02*
D03*
Y291000D02*
D03*
Y331000D02*
D03*
Y301000D02*
D03*
Y321000D02*
D03*
D38*
X-257000Y42500D02*
D03*
X-247000D02*
D03*
X-237000D02*
D03*
X-217000D02*
D03*
X-227000D02*
D03*
X-337500D02*
D03*
X-327500D02*
D03*
X-317500D02*
D03*
X-297500D02*
D03*
X-307500D02*
D03*
D39*
X-207000D02*
D03*
X-287500D02*
D03*
D40*
X-337500Y320500D02*
D03*
X-318500Y321000D02*
D03*
D41*
X-337500Y330500D02*
D03*
X-318500Y331000D02*
D03*
D42*
X-187000Y65000D02*
D03*
Y55000D02*
D03*
Y45000D02*
D03*
X-199500Y65000D02*
D03*
Y55000D02*
D03*
Y45000D02*
D03*
D43*
X-139000Y41232D02*
D03*
Y49500D02*
D03*
X-157500Y41232D02*
D03*
Y49500D02*
D03*
X-176000Y41232D02*
D03*
Y49500D02*
D03*
D44*
X-347500Y55000D02*
D03*
X-327500D02*
D03*
D45*
X-20000Y20000D02*
D03*
Y335000D02*
D03*
X-357500Y325000D02*
D03*
Y35000D02*
D03*
D46*
Y44500D02*
D03*
Y25500D02*
D03*
X-365500Y40000D02*
D03*
Y30000D02*
D03*
X-349500Y40000D02*
D03*
Y30000D02*
D03*
X-12000Y15000D02*
D03*
Y25000D02*
D03*
X-28000Y15000D02*
D03*
Y25000D02*
D03*
X-20000Y10500D02*
D03*
Y29500D02*
D03*
X-349500Y320000D02*
D03*
Y330000D02*
D03*
X-365500Y320000D02*
D03*
Y330000D02*
D03*
X-357500Y315500D02*
D03*
Y334500D02*
D03*
X-12000Y330000D02*
D03*
Y340000D02*
D03*
X-28000Y330000D02*
D03*
Y340000D02*
D03*
X-20000Y325500D02*
D03*
Y344500D02*
D03*
X-145000Y219500D02*
D03*
X-140000Y227000D02*
D03*
X-47000Y234000D02*
D03*
X-84500Y219000D02*
D03*
X-245500Y272000D02*
D03*
X-266000Y238500D02*
D03*
X-261000Y225000D02*
D03*
X-286000Y221500D02*
D03*
X-291500Y217000D02*
D03*
X-219722Y225000D02*
D03*
X-220000Y230500D02*
D03*
X-312000Y70000D02*
D03*
X-317500Y64000D02*
D03*
X-236000Y77500D02*
D03*
X-231500Y81000D02*
D03*
X-147500Y88500D02*
D03*
X-96500Y183500D02*
D03*
X-31500Y179000D02*
D03*
X-144000Y161000D02*
D03*
X-135000D02*
D03*
X-57000Y237500D02*
D03*
X-115500Y250000D02*
D03*
X-146500Y241500D02*
D03*
X-224500D02*
D03*
X-253500Y170000D02*
D03*
M02*
