G04 Layer_Color=255*
%FSLAX25Y25*%
%MOIN*%
G70*
G01*
G75*
%ADD10R,0.05000X0.04000*%
%ADD11R,0.04000X0.05000*%
%ADD12O,0.01575X0.05118*%
%ADD15C,0.08000*%
%ADD16C,0.07874*%
%ADD17C,0.05906*%
%ADD18R,0.05906X0.05906*%
%ADD19C,0.07000*%
%ADD20R,0.07000X0.07000*%
%ADD21C,0.06000*%
%ADD22C,0.04724*%
%ADD23R,0.08000X0.08000*%
D10*
X-181000Y81500D02*
D03*
Y73500D02*
D03*
X-144000Y175000D02*
D03*
Y167000D02*
D03*
X-135000Y175000D02*
D03*
Y167000D02*
D03*
X-309000Y322000D02*
D03*
Y330000D02*
D03*
X-328000Y322000D02*
D03*
Y330000D02*
D03*
X-245500Y258000D02*
D03*
Y266000D02*
D03*
Y251000D02*
D03*
Y243000D02*
D03*
X-29500Y197000D02*
D03*
Y189000D02*
D03*
X-38000Y197000D02*
D03*
Y189000D02*
D03*
X-46500Y197000D02*
D03*
Y189000D02*
D03*
X-77500Y211000D02*
D03*
Y219000D02*
D03*
X-236500Y231000D02*
D03*
Y223000D02*
D03*
X-245000Y231000D02*
D03*
Y223000D02*
D03*
D11*
X-161000Y83000D02*
D03*
X-153000D02*
D03*
X-261000Y270000D02*
D03*
X-253000D02*
D03*
X-261000Y278500D02*
D03*
X-253000D02*
D03*
Y239000D02*
D03*
X-261000D02*
D03*
X-253000Y230500D02*
D03*
X-261000D02*
D03*
D12*
X-260839Y246232D02*
D03*
Y262768D02*
D03*
X-258279D02*
D03*
X-253161Y246232D02*
D03*
X-258279D02*
D03*
X-255720D02*
D03*
Y262768D02*
D03*
X-253161D02*
D03*
D15*
X-67000Y210500D02*
D03*
Y220500D02*
D03*
X-57000D02*
D03*
Y210500D02*
D03*
X-47000D02*
D03*
Y220500D02*
D03*
X-37000Y210500D02*
D03*
Y220500D02*
D03*
X-106500Y162000D02*
D03*
X-96500D02*
D03*
X-86500D02*
D03*
X-76500D02*
D03*
X-56500D02*
D03*
X-66500D02*
D03*
X-212500Y279500D02*
D03*
X-192500D02*
D03*
X-202500D02*
D03*
X-142500D02*
D03*
X-132500D02*
D03*
X-172500D02*
D03*
X-182500D02*
D03*
X-152500D02*
D03*
X-162500D02*
D03*
X-301500Y109000D02*
D03*
Y99000D02*
D03*
Y119000D02*
D03*
X-296500Y89000D02*
D03*
X-301500Y129000D02*
D03*
X-291500Y134000D02*
D03*
X-301500Y139000D02*
D03*
Y159000D02*
D03*
Y149000D02*
D03*
Y179000D02*
D03*
Y169000D02*
D03*
Y189000D02*
D03*
X-291500Y144000D02*
D03*
X-301500Y199000D02*
D03*
Y209000D02*
D03*
X-286500Y89000D02*
D03*
X-276500D02*
D03*
X-266500D02*
D03*
X-256500D02*
D03*
X-246500D02*
D03*
X-241500Y99000D02*
D03*
Y109000D02*
D03*
Y179000D02*
D03*
Y169000D02*
D03*
Y209000D02*
D03*
Y189000D02*
D03*
Y199000D02*
D03*
Y129000D02*
D03*
Y119000D02*
D03*
Y159000D02*
D03*
Y139000D02*
D03*
Y149000D02*
D03*
X-216500Y114000D02*
D03*
Y104000D02*
D03*
Y124000D02*
D03*
X-211500Y94000D02*
D03*
X-216500Y134000D02*
D03*
X-206500Y139000D02*
D03*
X-216500Y144000D02*
D03*
Y164000D02*
D03*
Y154000D02*
D03*
Y184000D02*
D03*
Y174000D02*
D03*
Y194000D02*
D03*
X-206500Y149000D02*
D03*
X-216500Y204000D02*
D03*
Y214000D02*
D03*
X-201500Y94000D02*
D03*
X-191500D02*
D03*
X-181500D02*
D03*
X-171500D02*
D03*
X-161500D02*
D03*
X-156500Y104000D02*
D03*
Y114000D02*
D03*
Y184000D02*
D03*
Y174000D02*
D03*
Y214000D02*
D03*
Y194000D02*
D03*
Y204000D02*
D03*
Y134000D02*
D03*
Y124000D02*
D03*
Y164000D02*
D03*
Y144000D02*
D03*
Y154000D02*
D03*
X-142500Y77500D02*
D03*
Y57500D02*
D03*
X-172500Y77500D02*
D03*
Y57500D02*
D03*
X-357500Y125000D02*
D03*
Y105000D02*
D03*
Y115000D02*
D03*
Y155000D02*
D03*
Y165000D02*
D03*
Y135000D02*
D03*
Y145000D02*
D03*
Y65000D02*
D03*
Y55000D02*
D03*
Y95000D02*
D03*
Y75000D02*
D03*
Y85000D02*
D03*
Y195000D02*
D03*
Y175000D02*
D03*
Y185000D02*
D03*
Y225000D02*
D03*
Y235000D02*
D03*
Y205000D02*
D03*
Y215000D02*
D03*
Y265000D02*
D03*
Y275000D02*
D03*
Y245000D02*
D03*
Y255000D02*
D03*
Y285000D02*
D03*
Y295000D02*
D03*
Y305000D02*
D03*
X-347500Y85000D02*
D03*
Y95000D02*
D03*
Y65000D02*
D03*
Y75000D02*
D03*
Y125000D02*
D03*
Y135000D02*
D03*
Y105000D02*
D03*
Y115000D02*
D03*
Y165000D02*
D03*
Y175000D02*
D03*
Y145000D02*
D03*
Y155000D02*
D03*
Y215000D02*
D03*
Y185000D02*
D03*
Y195000D02*
D03*
Y235000D02*
D03*
Y225000D02*
D03*
Y255000D02*
D03*
Y265000D02*
D03*
Y205000D02*
D03*
Y245000D02*
D03*
Y295000D02*
D03*
Y305000D02*
D03*
Y275000D02*
D03*
Y285000D02*
D03*
X-337500Y125000D02*
D03*
Y105000D02*
D03*
Y115000D02*
D03*
Y155000D02*
D03*
Y165000D02*
D03*
Y135000D02*
D03*
Y145000D02*
D03*
Y65000D02*
D03*
Y55000D02*
D03*
Y95000D02*
D03*
Y75000D02*
D03*
Y85000D02*
D03*
Y195000D02*
D03*
Y175000D02*
D03*
Y185000D02*
D03*
Y225000D02*
D03*
Y235000D02*
D03*
Y205000D02*
D03*
Y215000D02*
D03*
Y265000D02*
D03*
Y275000D02*
D03*
Y245000D02*
D03*
Y255000D02*
D03*
Y285000D02*
D03*
Y295000D02*
D03*
Y305000D02*
D03*
X-327500Y85000D02*
D03*
Y95000D02*
D03*
Y65000D02*
D03*
Y75000D02*
D03*
Y125000D02*
D03*
Y135000D02*
D03*
Y105000D02*
D03*
Y115000D02*
D03*
Y165000D02*
D03*
Y175000D02*
D03*
Y145000D02*
D03*
Y155000D02*
D03*
Y215000D02*
D03*
Y185000D02*
D03*
Y195000D02*
D03*
Y235000D02*
D03*
Y225000D02*
D03*
Y255000D02*
D03*
Y265000D02*
D03*
Y205000D02*
D03*
Y245000D02*
D03*
Y295000D02*
D03*
Y305000D02*
D03*
Y275000D02*
D03*
Y285000D02*
D03*
D16*
X-236000Y311000D02*
D03*
Y291000D02*
D03*
Y331000D02*
D03*
Y301000D02*
D03*
Y321000D02*
D03*
D17*
X-257000Y42500D02*
D03*
X-247000D02*
D03*
X-237000D02*
D03*
X-217000D02*
D03*
X-227000D02*
D03*
X-337500D02*
D03*
X-327500D02*
D03*
X-317500D02*
D03*
X-297500D02*
D03*
X-307500D02*
D03*
D18*
X-207000D02*
D03*
X-287500D02*
D03*
D19*
X-337500Y320500D02*
D03*
X-318500Y321000D02*
D03*
D20*
X-337500Y330500D02*
D03*
X-318500Y331000D02*
D03*
D21*
X-187000Y65000D02*
D03*
Y55000D02*
D03*
Y45000D02*
D03*
X-199500Y65000D02*
D03*
Y55000D02*
D03*
Y45000D02*
D03*
D22*
X-139000Y41232D02*
D03*
Y49500D02*
D03*
X-157500Y41232D02*
D03*
Y49500D02*
D03*
X-176000Y41232D02*
D03*
Y49500D02*
D03*
D23*
X-347500Y55000D02*
D03*
X-327500D02*
D03*
M02*
