G04 Layer_Physical_Order=1*
G04 Layer_Color=255*
%FSLAX25Y25*%
%MOIN*%
G70*
G01*
G75*
%ADD10R,0.05000X0.04000*%
%ADD11R,0.04000X0.05000*%
%ADD12O,0.05118X0.01575*%
%ADD13C,0.03000*%
%ADD14C,0.01000*%
%ADD15C,0.07000*%
%ADD16R,0.07000X0.07000*%
%ADD17C,0.08000*%
%ADD18R,0.08000X0.08000*%
%ADD19R,0.08000X0.08000*%
%ADD20C,0.06000*%
%ADD21C,0.04724*%
%ADD22C,0.04000*%
D10*
X214000Y33000D02*
D03*
Y25000D02*
D03*
X147000Y107000D02*
D03*
Y115000D02*
D03*
X149000Y146500D02*
D03*
Y138500D02*
D03*
D11*
X74000Y13000D02*
D03*
X82000D02*
D03*
X74000Y22000D02*
D03*
X82000D02*
D03*
Y49000D02*
D03*
X74000D02*
D03*
X82000Y40000D02*
D03*
X74000D02*
D03*
X50200Y8500D02*
D03*
X42200D02*
D03*
X50200Y17500D02*
D03*
X42200D02*
D03*
X50250Y26500D02*
D03*
X42250D02*
D03*
X50250Y35500D02*
D03*
X42250D02*
D03*
X50250Y44500D02*
D03*
X42250D02*
D03*
X208000Y15000D02*
D03*
X200000D02*
D03*
X74000Y31000D02*
D03*
X82000D02*
D03*
X95500Y43500D02*
D03*
X103500D02*
D03*
X125000Y45500D02*
D03*
X117000D02*
D03*
X125000Y54000D02*
D03*
X117000D02*
D03*
D12*
X107768Y50161D02*
D03*
Y52720D02*
D03*
Y55279D02*
D03*
Y57839D02*
D03*
X91232Y50161D02*
D03*
Y52720D02*
D03*
Y55279D02*
D03*
Y57839D02*
D03*
D13*
X123500Y147000D02*
X142000D01*
X212000Y35000D02*
X214000Y33000D01*
X200500Y35000D02*
X212000D01*
X200500Y25000D02*
X214000D01*
X208500Y6000D02*
Y14500D01*
X198500Y6000D02*
Y13500D01*
X200000Y15000D01*
X185000Y6000D02*
X198500D01*
X182000Y9000D02*
X185000Y6000D01*
X147000Y107000D02*
X158500D01*
X149000Y117000D02*
X158500D01*
X147000Y115000D02*
X149000Y117000D01*
X141000Y115000D02*
X147000D01*
X142000Y147500D02*
X148000D01*
X149000Y146500D01*
X142000Y137500D02*
X148000D01*
X149000Y138500D01*
X135500Y106500D02*
X146500D01*
X147000Y107000D01*
D14*
X6500Y68500D02*
X18250D01*
X42250Y44500D01*
X6500Y58500D02*
X19250D01*
X42250Y35500D01*
X6500Y48500D02*
X20250D01*
X42250Y26500D01*
X6650Y26450D02*
X33250D01*
X42200Y17500D01*
X6650Y6450D02*
X40150D01*
X94500Y16000D02*
X124500D01*
X88000D02*
X94500D01*
X82000Y22000D02*
X88000Y16000D01*
X163000Y101500D02*
X168500Y107000D01*
X129000Y101500D02*
X163000D01*
X168500Y97000D02*
X178500Y107000D01*
X123500Y97000D02*
X168500D01*
Y87000D02*
X188500Y107000D01*
X123500Y87000D02*
X168500D01*
X178500Y117000D02*
X184000Y122500D01*
X190778D01*
X194000Y119278D01*
Y104722D02*
Y119278D01*
X166278Y77000D02*
X194000Y104722D01*
X123500Y77000D02*
X166278D01*
X50250Y93750D02*
X63500Y107000D01*
X50250Y44500D02*
Y93750D01*
X53750Y87250D02*
X63500Y97000D01*
X53750Y39000D02*
Y87250D01*
X50250Y35500D02*
X53750Y39000D01*
X55750Y59250D02*
X63500Y67000D01*
X55750Y32000D02*
Y59250D01*
X50250Y26500D02*
X55750Y32000D01*
X63500Y77000D02*
X69000Y71500D01*
X52871Y22500D02*
X57750Y27379D01*
X47200Y22500D02*
X52871D01*
X42200Y17500D02*
X47200Y22500D01*
X57750Y27379D02*
Y53250D01*
X69000Y64500D01*
Y71500D01*
X63500Y112500D02*
Y117000D01*
X65778Y112500D02*
X71000Y107278D01*
Y63672D02*
Y107278D01*
X59750Y52422D02*
X71000Y63672D01*
X59750Y20429D02*
Y52422D01*
X52821Y13500D02*
X59750Y20429D01*
X46700Y13500D02*
X52821D01*
X41700Y8000D02*
Y8500D01*
X40150Y6450D02*
X41700Y8000D01*
Y8500D02*
X46700Y13500D01*
X63500Y112500D02*
X65778D01*
X82000Y13000D02*
X85500Y9500D01*
X140500D01*
X69500Y8500D02*
X74000Y13000D01*
X50200Y8500D02*
X51500D01*
X69500D01*
X94500Y36000D02*
X124500D01*
X123500Y107000D02*
X129000Y101500D01*
X69000Y21000D02*
X73000D01*
X74000Y22000D01*
X163000Y122500D02*
X168500Y117000D01*
X123500D02*
X129000Y122500D01*
X163000D01*
X51500Y8500D02*
X74000Y31000D01*
Y40000D02*
Y49000D01*
Y31000D02*
Y40000D01*
X82000Y31000D02*
X94500Y43500D01*
X95500D01*
X91232Y47768D02*
X95500Y43500D01*
X91232Y47768D02*
Y50161D01*
X82000Y49000D02*
Y54500D01*
X85339Y57839D01*
X91232D01*
X82000Y40000D02*
X85500Y43500D01*
Y53000D01*
X87779Y55279D01*
X91232D01*
X88049Y52720D02*
X91232D01*
X87500Y52172D02*
X88049Y52720D01*
X87500Y51000D02*
Y52172D01*
Y51000D02*
X88339Y50161D01*
X91232D01*
X103500Y43500D02*
X107768Y47768D01*
Y50161D01*
Y52720D02*
X115720D01*
X117000Y54000D01*
X107768Y55279D02*
X111658D01*
X114379Y58000D01*
X121000D01*
X125000Y54000D01*
X107768Y57839D02*
X108039Y57567D01*
X100000Y52518D02*
X105049Y57567D01*
X100000Y40379D02*
Y52518D01*
Y40379D02*
X100879Y39500D01*
X119000D01*
X125000Y45500D01*
X105049Y57567D02*
X108039D01*
X117000Y45500D02*
Y49750D01*
Y54000D01*
X126000Y55000D02*
X185000D01*
X125000Y54000D02*
X126000Y55000D01*
X125500Y45000D02*
X192000D01*
X125000Y45500D02*
X125500Y45000D01*
X104000Y43000D02*
X108500D01*
X103500Y43500D02*
X104000Y43000D01*
X117000Y49750D02*
X175500D01*
D15*
X142000Y127500D02*
D03*
Y137500D02*
D03*
Y147500D02*
D03*
X145500Y187000D02*
D03*
X135500D02*
D03*
D16*
X145500Y177000D02*
D03*
X135500D02*
D03*
D17*
X6500Y58500D02*
D03*
X6500Y68500D02*
D03*
X6500Y48500D02*
D03*
X6650Y6450D02*
D03*
X6650Y26450D02*
D03*
X6650Y16450D02*
D03*
X198500Y6000D02*
D03*
X63500Y177000D02*
D03*
Y167000D02*
D03*
Y157000D02*
D03*
Y147000D02*
D03*
Y137000D02*
D03*
Y127000D02*
D03*
Y117000D02*
D03*
Y107000D02*
D03*
Y97000D02*
D03*
Y87000D02*
D03*
Y77000D02*
D03*
Y67000D02*
D03*
X123500Y177000D02*
D03*
Y167000D02*
D03*
Y157000D02*
D03*
Y147000D02*
D03*
Y137000D02*
D03*
Y127000D02*
D03*
Y117000D02*
D03*
Y107000D02*
D03*
Y97000D02*
D03*
Y87000D02*
D03*
Y77000D02*
D03*
Y67000D02*
D03*
X112000Y142500D02*
D03*
Y132500D02*
D03*
X68500Y187000D02*
D03*
X78500D02*
D03*
X88500D02*
D03*
X98500D02*
D03*
X108500D02*
D03*
X118500D02*
D03*
X158500Y107000D02*
D03*
X168500D02*
D03*
X178500D02*
D03*
X188500D02*
D03*
Y117000D02*
D03*
X178500D02*
D03*
X168500D02*
D03*
X158500D02*
D03*
X200500Y25000D02*
D03*
Y35000D02*
D03*
Y45000D02*
D03*
Y55000D02*
D03*
Y65000D02*
D03*
Y75000D02*
D03*
Y85000D02*
D03*
Y95000D02*
D03*
D18*
X6500Y78500D02*
D03*
X6650Y36450D02*
D03*
D19*
X208500Y6000D02*
D03*
D20*
X124500Y36000D02*
D03*
X94500D02*
D03*
X124500Y16000D02*
D03*
X94500D02*
D03*
X162000Y9000D02*
D03*
X172000D02*
D03*
X182000D02*
D03*
D21*
X148768Y9500D02*
D03*
X140500D02*
D03*
D22*
X85500Y43500D02*
D03*
X85339Y57839D02*
D03*
X185000Y55000D02*
D03*
X192000Y45000D02*
D03*
X50200Y17500D02*
D03*
X59200Y8500D02*
D03*
X69000Y21000D02*
D03*
X141000Y115000D02*
D03*
X108500Y43000D02*
D03*
X175500Y49750D02*
D03*
X135500Y106500D02*
D03*
M02*
