G04 Layer_Color=8388736*
%FSLAX25Y25*%
%MOIN*%
G70*
G01*
G75*
%ADD30R,0.05800X0.04800*%
%ADD31R,0.04800X0.05800*%
%ADD32O,0.05918X0.02375*%
%ADD33C,0.07800*%
%ADD34R,0.07800X0.07800*%
%ADD35C,0.08800*%
%ADD36R,0.08800X0.08800*%
%ADD37R,0.08800X0.08800*%
%ADD38C,0.06800*%
%ADD39C,0.05524*%
%ADD40C,0.04800*%
D30*
X214000Y33000D02*
D03*
Y25000D02*
D03*
X147000Y107000D02*
D03*
Y115000D02*
D03*
X149000Y146500D02*
D03*
Y138500D02*
D03*
D31*
X74000Y13000D02*
D03*
X82000D02*
D03*
X74000Y22000D02*
D03*
X82000D02*
D03*
Y49000D02*
D03*
X74000D02*
D03*
X82000Y40000D02*
D03*
X74000D02*
D03*
X50200Y8500D02*
D03*
X42200D02*
D03*
X50200Y17500D02*
D03*
X42200D02*
D03*
X50250Y26500D02*
D03*
X42250D02*
D03*
X50250Y35500D02*
D03*
X42250D02*
D03*
X50250Y44500D02*
D03*
X42250D02*
D03*
X208000Y15000D02*
D03*
X200000D02*
D03*
X74000Y31000D02*
D03*
X82000D02*
D03*
X95500Y43500D02*
D03*
X103500D02*
D03*
X125000Y45500D02*
D03*
X117000D02*
D03*
X125000Y54000D02*
D03*
X117000D02*
D03*
D32*
X107768Y50161D02*
D03*
Y52720D02*
D03*
Y55279D02*
D03*
Y57839D02*
D03*
X91232Y50161D02*
D03*
Y52720D02*
D03*
Y55279D02*
D03*
Y57839D02*
D03*
D33*
X142000Y127500D02*
D03*
Y137500D02*
D03*
Y147500D02*
D03*
X145500Y187000D02*
D03*
X135500D02*
D03*
D34*
X145500Y177000D02*
D03*
X135500D02*
D03*
D35*
X6500Y58500D02*
D03*
X6500Y68500D02*
D03*
X6500Y48500D02*
D03*
X6650Y6450D02*
D03*
X6650Y26450D02*
D03*
X6650Y16450D02*
D03*
X198500Y6000D02*
D03*
X63500Y177000D02*
D03*
Y167000D02*
D03*
Y157000D02*
D03*
Y147000D02*
D03*
Y137000D02*
D03*
Y127000D02*
D03*
Y117000D02*
D03*
Y107000D02*
D03*
Y97000D02*
D03*
Y87000D02*
D03*
Y77000D02*
D03*
Y67000D02*
D03*
X123500Y177000D02*
D03*
Y167000D02*
D03*
Y157000D02*
D03*
Y147000D02*
D03*
Y137000D02*
D03*
Y127000D02*
D03*
Y117000D02*
D03*
Y107000D02*
D03*
Y97000D02*
D03*
Y87000D02*
D03*
Y77000D02*
D03*
Y67000D02*
D03*
X112000Y142500D02*
D03*
Y132500D02*
D03*
X68500Y187000D02*
D03*
X78500D02*
D03*
X88500D02*
D03*
X98500D02*
D03*
X108500D02*
D03*
X118500D02*
D03*
X158500Y107000D02*
D03*
X168500D02*
D03*
X178500D02*
D03*
X188500D02*
D03*
Y117000D02*
D03*
X178500D02*
D03*
X168500D02*
D03*
X158500D02*
D03*
X200500Y25000D02*
D03*
Y35000D02*
D03*
Y45000D02*
D03*
Y55000D02*
D03*
Y65000D02*
D03*
Y75000D02*
D03*
Y85000D02*
D03*
Y95000D02*
D03*
D36*
X6500Y78500D02*
D03*
X6650Y36450D02*
D03*
D37*
X208500Y6000D02*
D03*
D38*
X124500Y36000D02*
D03*
X94500D02*
D03*
X124500Y16000D02*
D03*
X94500D02*
D03*
X162000Y9000D02*
D03*
X172000D02*
D03*
X182000D02*
D03*
D39*
X148768Y9500D02*
D03*
X140500D02*
D03*
D40*
X85500Y43500D02*
D03*
X85339Y57839D02*
D03*
X185000Y55000D02*
D03*
X192000Y45000D02*
D03*
X50200Y17500D02*
D03*
X59200Y8500D02*
D03*
X69000Y21000D02*
D03*
X141000Y115000D02*
D03*
X108500Y43000D02*
D03*
X175500Y49750D02*
D03*
X135500Y106500D02*
D03*
M02*
