G04 Layer_Color=12632256*
%FSLAX25Y25*%
%MOIN*%
G70*
G01*
G75*
%ADD15C,0.07000*%
%ADD16R,0.07000X0.07000*%
%ADD17C,0.08000*%
%ADD18R,0.08000X0.08000*%
%ADD19R,0.08000X0.08000*%
%ADD20C,0.06000*%
%ADD21C,0.04724*%
D15*
X142000Y127500D02*
D03*
Y137500D02*
D03*
Y147500D02*
D03*
X145500Y187000D02*
D03*
X135500D02*
D03*
D16*
X145500Y177000D02*
D03*
X135500D02*
D03*
D17*
X6500Y58500D02*
D03*
X6500Y68500D02*
D03*
X6500Y48500D02*
D03*
X6650Y6450D02*
D03*
X6650Y26450D02*
D03*
X6650Y16450D02*
D03*
X198500Y6000D02*
D03*
X63500Y177000D02*
D03*
Y167000D02*
D03*
Y157000D02*
D03*
Y147000D02*
D03*
Y137000D02*
D03*
Y127000D02*
D03*
Y117000D02*
D03*
Y107000D02*
D03*
Y97000D02*
D03*
Y87000D02*
D03*
Y77000D02*
D03*
Y67000D02*
D03*
X123500Y177000D02*
D03*
Y167000D02*
D03*
Y157000D02*
D03*
Y147000D02*
D03*
Y137000D02*
D03*
Y127000D02*
D03*
Y117000D02*
D03*
Y107000D02*
D03*
Y97000D02*
D03*
Y87000D02*
D03*
Y77000D02*
D03*
Y67000D02*
D03*
X112000Y142500D02*
D03*
Y132500D02*
D03*
X68500Y187000D02*
D03*
X78500D02*
D03*
X88500D02*
D03*
X98500D02*
D03*
X108500D02*
D03*
X118500D02*
D03*
X158500Y107000D02*
D03*
X168500D02*
D03*
X178500D02*
D03*
X188500D02*
D03*
Y117000D02*
D03*
X178500D02*
D03*
X168500D02*
D03*
X158500D02*
D03*
X200500Y25000D02*
D03*
Y35000D02*
D03*
Y45000D02*
D03*
Y55000D02*
D03*
Y65000D02*
D03*
Y75000D02*
D03*
Y85000D02*
D03*
Y95000D02*
D03*
D18*
X6500Y78500D02*
D03*
X6650Y36450D02*
D03*
D19*
X208500Y6000D02*
D03*
D20*
X124500Y36000D02*
D03*
X94500D02*
D03*
X124500Y16000D02*
D03*
X94500D02*
D03*
X162000Y9000D02*
D03*
X172000D02*
D03*
X182000D02*
D03*
D21*
X148768Y9500D02*
D03*
X140500D02*
D03*
M02*
