M48
;Layer_Color=9474304
;FILE_FORMAT=2:5
INCH,TZ
;TYPE=PLATED
T1F00S00C0.02000
T2F00S00C0.02362
T3F00S00C0.03000
T4F00S00C0.03500
T5F00S00C0.04000
%
T01
X50200Y17500
X59200Y8500
X69000Y21000
X85500Y43500
X85339Y57839
X108500Y43000
X175500Y49750
X185000Y55000
X192000Y45000
X135500Y106500
X141000Y115000
T02
X140500Y9500
X148768
T03
X94500Y16000
Y36000
X124500
Y16000
X162000Y9000
X172000
X182000
T04
X142000Y127500
Y137500
Y147500
T05
X6650Y6450
X6650Y16450
X6650Y26450
X6650Y36450
X6500Y48500
X6500Y58500
X200500Y55000
Y45000
Y35000
Y25000
X198500Y6000
X208500Y6000
X200500Y65000
Y75000
Y85000
Y95000
X188500Y107000
X178500
X168500
X158500
Y117000
X168500
X178500
X188500
X123500
Y127000
Y137000
Y147000
Y157000
Y167000
Y177000
X135500
X145500
X145500Y187000
X135500
X118500Y187000
X108500
X98500
X88500
X78500
X68500
X63500Y177000
Y167000
Y157000
Y147000
Y137000
Y127000
Y117000
Y107000
Y97000
Y87000
Y77000
Y67000
X6500Y68500
X6500Y78500
X123500Y77000
Y87000
Y97000
Y107000
X112000Y132500
Y142500
X123500Y67000
M30
