G04 Layer_Physical_Order=2*
G04 Layer_Color=16711680*
%FSLAX25Y25*%
%MOIN*%
G70*
G01*
G75*
%ADD13C,0.03000*%
%ADD14C,0.01000*%
%ADD15C,0.07000*%
%ADD16R,0.07000X0.07000*%
%ADD17C,0.08000*%
%ADD18R,0.08000X0.08000*%
%ADD19R,0.08000X0.08000*%
%ADD20C,0.06000*%
%ADD21C,0.04724*%
%ADD22C,0.04000*%
G36*
X216535Y0D02*
X0D01*
Y216535D01*
X216535D01*
Y0D01*
D02*
G37*
%LPC*%
G36*
X118500Y192043D02*
X117195Y191871D01*
X115978Y191367D01*
X114934Y190566D01*
X114132Y189522D01*
X113771Y188648D01*
X113229D01*
X112867Y189522D01*
X112066Y190566D01*
X111022Y191367D01*
X109805Y191871D01*
X108500Y192043D01*
X107195Y191871D01*
X105978Y191367D01*
X104934Y190566D01*
X104132Y189522D01*
X103771Y188648D01*
X103229D01*
X102867Y189522D01*
X102066Y190566D01*
X101022Y191367D01*
X99805Y191871D01*
X98500Y192043D01*
X97195Y191871D01*
X95978Y191367D01*
X94934Y190566D01*
X94133Y189522D01*
X93771Y188648D01*
X93229D01*
X92867Y189522D01*
X92066Y190566D01*
X91022Y191367D01*
X89805Y191871D01*
X88500Y192043D01*
X87195Y191871D01*
X85978Y191367D01*
X84934Y190566D01*
X84132Y189522D01*
X83771Y188648D01*
X83229D01*
X82867Y189522D01*
X82066Y190566D01*
X81022Y191367D01*
X79805Y191871D01*
X78500Y192043D01*
X77195Y191871D01*
X75978Y191367D01*
X74934Y190566D01*
X74133Y189522D01*
X73771Y188648D01*
X73229D01*
X72868Y189522D01*
X72066Y190566D01*
X71022Y191367D01*
X69805Y191871D01*
X69000Y191977D01*
Y187000D01*
Y182023D01*
X69805Y182129D01*
X71022Y182633D01*
X72066Y183434D01*
X72868Y184478D01*
X73229Y185352D01*
X73771D01*
X74133Y184478D01*
X74934Y183434D01*
X75978Y182633D01*
X77195Y182129D01*
X78500Y181957D01*
X79805Y182129D01*
X81022Y182633D01*
X82066Y183434D01*
X82867Y184478D01*
X83229Y185352D01*
X83771D01*
X84132Y184478D01*
X84934Y183434D01*
X85978Y182633D01*
X87195Y182129D01*
X88500Y181957D01*
X89805Y182129D01*
X91022Y182633D01*
X92066Y183434D01*
X92867Y184478D01*
X93229Y185352D01*
X93771D01*
X94133Y184478D01*
X94934Y183434D01*
X95978Y182633D01*
X97195Y182129D01*
X98500Y181957D01*
X99805Y182129D01*
X101022Y182633D01*
X102066Y183434D01*
X102867Y184478D01*
X103229Y185352D01*
X103771D01*
X104132Y184478D01*
X104934Y183434D01*
X105978Y182633D01*
X107195Y182129D01*
X108500Y181957D01*
X109805Y182129D01*
X111022Y182633D01*
X112066Y183434D01*
X112867Y184478D01*
X113229Y185352D01*
X113771D01*
X114132Y184478D01*
X114934Y183434D01*
X115978Y182633D01*
X117195Y182129D01*
X118500Y181957D01*
X119805Y182129D01*
X121022Y182633D01*
X122066Y183434D01*
X122868Y184478D01*
X123371Y185695D01*
X123543Y187000D01*
X123371Y188305D01*
X122868Y189522D01*
X122066Y190566D01*
X121022Y191367D01*
X119805Y191871D01*
X118500Y192043D01*
D02*
G37*
G36*
X68000Y191977D02*
X67195Y191871D01*
X65978Y191367D01*
X64934Y190566D01*
X64132Y189522D01*
X63629Y188305D01*
X63523Y187500D01*
X68000D01*
Y191977D01*
D02*
G37*
G36*
Y186500D02*
X63523D01*
X63629Y185695D01*
X64132Y184478D01*
X64934Y183434D01*
X65978Y182633D01*
X67195Y182129D01*
X68000Y182023D01*
Y186500D01*
D02*
G37*
G36*
X150500Y196029D02*
X135929D01*
X135344Y195913D01*
X134847Y195581D01*
X129419Y190153D01*
X129087Y189656D01*
X128971Y189071D01*
Y182000D01*
X129087Y181415D01*
X129419Y180919D01*
X131000Y179337D01*
Y179077D01*
X130971Y178929D01*
X130971Y178929D01*
Y176000D01*
X131000Y175852D01*
Y173004D01*
X130500Y172797D01*
X128146Y175151D01*
X128371Y175695D01*
X128543Y177000D01*
X128371Y178305D01*
X127867Y179522D01*
X127066Y180566D01*
X126022Y181368D01*
X124805Y181871D01*
X123500Y182043D01*
X122195Y181871D01*
X120978Y181368D01*
X119934Y180566D01*
X119132Y179522D01*
X118629Y178305D01*
X118457Y177000D01*
X118629Y175695D01*
X119132Y174478D01*
X119934Y173434D01*
X120978Y172633D01*
X121852Y172271D01*
Y171729D01*
X120978Y171368D01*
X119934Y170566D01*
X119132Y169522D01*
X118629Y168305D01*
X118523Y167500D01*
X123500D01*
Y166500D01*
X118523D01*
X118629Y165695D01*
X119132Y164478D01*
X119934Y163434D01*
X120978Y162633D01*
X121852Y162271D01*
Y161729D01*
X120978Y161367D01*
X119934Y160566D01*
X119132Y159522D01*
X118629Y158305D01*
X118457Y157000D01*
X118629Y155695D01*
X119132Y154478D01*
X119934Y153434D01*
X120978Y152632D01*
X121852Y152271D01*
Y151729D01*
X120978Y151367D01*
X119934Y150566D01*
X119132Y149522D01*
X118629Y148305D01*
X118457Y147000D01*
X118629Y145695D01*
X119040Y144703D01*
X117419Y143082D01*
X116945Y143243D01*
X116871Y143805D01*
X116367Y145022D01*
X115566Y146066D01*
X114522Y146868D01*
X113305Y147371D01*
X112000Y147543D01*
X110695Y147371D01*
X109478Y146868D01*
X108434Y146066D01*
X107633Y145022D01*
X107129Y143805D01*
X106957Y142500D01*
X107129Y141195D01*
X107540Y140203D01*
X80757Y113420D01*
X80426Y112924D01*
X80309Y112339D01*
Y47161D01*
X80426Y46576D01*
X80757Y46080D01*
X82574Y44263D01*
X82474Y43500D01*
X82577Y42717D01*
X82880Y41987D01*
X83360Y41360D01*
X83987Y40879D01*
X84717Y40577D01*
X85500Y40474D01*
X86283Y40577D01*
X87013Y40879D01*
X87640Y41360D01*
X88121Y41987D01*
X88423Y42717D01*
X88526Y43500D01*
X88423Y44283D01*
X88121Y45013D01*
X87640Y45640D01*
X87013Y46121D01*
X86283Y46423D01*
X85500Y46526D01*
X84737Y46426D01*
X83368Y47795D01*
Y55004D01*
X83503Y55070D01*
X83868Y55200D01*
X84555Y54916D01*
X85339Y54813D01*
X86122Y54916D01*
X86852Y55218D01*
X87478Y55699D01*
X87959Y56326D01*
X88261Y57055D01*
X88364Y57839D01*
X88261Y58622D01*
X87959Y59351D01*
X87478Y59978D01*
X86868Y60447D01*
Y105205D01*
X109703Y128040D01*
X110695Y127629D01*
X112000Y127457D01*
X113305Y127629D01*
X114522Y128132D01*
X115566Y128934D01*
X115971Y129461D01*
X116471Y129291D01*
Y42500D01*
X116587Y41915D01*
X116919Y41419D01*
X120805Y37532D01*
X120603Y37044D01*
X120466Y36000D01*
X120603Y34956D01*
X120805Y34468D01*
X96367Y10029D01*
X61808D01*
X61340Y10640D01*
X60713Y11120D01*
X59983Y11423D01*
X59200Y11526D01*
X58437Y11426D01*
X53126Y16737D01*
X53226Y17500D01*
X53123Y18283D01*
X52820Y19013D01*
X52340Y19640D01*
X51713Y20121D01*
X50983Y20423D01*
X50200Y20526D01*
X49417Y20423D01*
X48687Y20121D01*
X48060Y19640D01*
X47580Y19013D01*
X47277Y18283D01*
X47174Y17500D01*
X47277Y16717D01*
X47580Y15987D01*
X48060Y15360D01*
X48687Y14879D01*
X49417Y14577D01*
X50200Y14474D01*
X50963Y14574D01*
X56275Y9263D01*
X56174Y8500D01*
X56277Y7717D01*
X56580Y6987D01*
X57060Y6360D01*
X57687Y5880D01*
X58417Y5577D01*
X59200Y5474D01*
X59983Y5577D01*
X60713Y5880D01*
X61340Y6360D01*
X61808Y6971D01*
X97000D01*
X97585Y7087D01*
X98081Y7419D01*
X122968Y32305D01*
X123456Y32103D01*
X124500Y31966D01*
X125544Y32103D01*
X126517Y32506D01*
X127353Y33147D01*
X127994Y33983D01*
X128397Y34956D01*
X128534Y36000D01*
X128397Y37044D01*
X127994Y38017D01*
X127353Y38853D01*
X126517Y39494D01*
X125544Y39897D01*
X124500Y40034D01*
X123456Y39897D01*
X122968Y39695D01*
X119529Y43134D01*
Y63211D01*
X120029Y63361D01*
X120978Y62633D01*
X122195Y62129D01*
X123500Y61957D01*
X124805Y62129D01*
X126022Y62633D01*
X126951Y63346D01*
X127451Y63177D01*
Y59500D01*
X127645Y58525D01*
X128198Y57698D01*
X169451Y16444D01*
Y12086D01*
X169147Y11853D01*
X168506Y11017D01*
X168103Y10044D01*
X167965Y9000D01*
X168103Y7956D01*
X168506Y6983D01*
X169147Y6147D01*
X169983Y5506D01*
X170956Y5103D01*
X172000Y4966D01*
X173044Y5103D01*
X174017Y5506D01*
X174853Y6147D01*
X175494Y6983D01*
X175897Y7956D01*
X176034Y9000D01*
X175897Y10044D01*
X175494Y11017D01*
X174853Y11853D01*
X174549Y12086D01*
Y17500D01*
X174355Y18475D01*
X173802Y19302D01*
X132549Y60556D01*
Y169692D01*
X132355Y170668D01*
X131802Y171495D01*
X131297Y172000D01*
X131504Y172500D01*
X138971D01*
Y171000D01*
X139087Y170415D01*
X139419Y169919D01*
X145471Y163866D01*
Y151139D01*
X144971Y150893D01*
X144269Y151431D01*
X143175Y151884D01*
X142000Y152039D01*
X140825Y151884D01*
X139731Y151431D01*
X138791Y150709D01*
X138069Y149769D01*
X137616Y148675D01*
X137461Y147500D01*
X137616Y146325D01*
X138069Y145231D01*
X138791Y144291D01*
X139731Y143569D01*
X140825Y143116D01*
X142000Y142961D01*
X143175Y143116D01*
X144269Y143569D01*
X144971Y144107D01*
X145471Y143861D01*
Y141139D01*
X144971Y140893D01*
X144269Y141431D01*
X143175Y141884D01*
X142500Y141973D01*
Y137500D01*
Y133027D01*
X143175Y133116D01*
X144269Y133569D01*
X144971Y134107D01*
X145471Y133861D01*
Y131139D01*
X144971Y130893D01*
X144269Y131431D01*
X143175Y131884D01*
X142000Y132039D01*
X140825Y131884D01*
X139731Y131431D01*
X138791Y130709D01*
X138069Y129769D01*
X137616Y128675D01*
X137461Y127500D01*
X137616Y126325D01*
X138069Y125231D01*
X138451Y124733D01*
Y116606D01*
X138380Y116513D01*
X138077Y115783D01*
X137974Y115000D01*
X138077Y114217D01*
X138380Y113487D01*
X138451Y113394D01*
Y84500D01*
X138645Y83525D01*
X139198Y82698D01*
X172524Y49371D01*
X172577Y48967D01*
X172880Y48237D01*
X173360Y47610D01*
X173987Y47129D01*
X174717Y46827D01*
X175121Y46774D01*
X195624Y26271D01*
X195457Y25000D01*
X195629Y23695D01*
X196133Y22478D01*
X196934Y21434D01*
X197978Y20632D01*
X199195Y20129D01*
X200500Y19957D01*
X201805Y20129D01*
X203022Y20632D01*
X204066Y21434D01*
X204868Y22478D01*
X205371Y23695D01*
X205543Y25000D01*
X205371Y26305D01*
X204868Y27522D01*
X204066Y28566D01*
X203022Y29368D01*
X202148Y29729D01*
Y30271D01*
X203022Y30632D01*
X204066Y31434D01*
X204868Y32478D01*
X205371Y33695D01*
X205477Y34500D01*
X200500D01*
X195523D01*
X195555Y34257D01*
X195081Y34024D01*
X178317Y50787D01*
X178121Y51263D01*
X177640Y51890D01*
X177013Y52371D01*
X176537Y52567D01*
X143549Y85556D01*
Y113394D01*
X143621Y113487D01*
X143923Y114217D01*
X144026Y115000D01*
X143923Y115783D01*
X143621Y116513D01*
X143549Y116606D01*
Y123271D01*
X144269Y123569D01*
X144971Y124107D01*
X145471Y123861D01*
Y93000D01*
X145587Y92415D01*
X145919Y91919D01*
X182074Y55763D01*
X181974Y55000D01*
X182077Y54217D01*
X182379Y53487D01*
X182860Y52860D01*
X183487Y52380D01*
X184217Y52077D01*
X185000Y51974D01*
X185783Y52077D01*
X186513Y52380D01*
X187140Y52860D01*
X187620Y53487D01*
X187923Y54217D01*
X187980Y54650D01*
X188508Y54829D01*
X190471Y52867D01*
Y47608D01*
X189860Y47140D01*
X189380Y46513D01*
X189077Y45783D01*
X188974Y45000D01*
X189077Y44217D01*
X189380Y43487D01*
X189860Y42860D01*
X190487Y42380D01*
X191217Y42077D01*
X192000Y41974D01*
X192783Y42077D01*
X193513Y42380D01*
X194140Y42860D01*
X194621Y43487D01*
X194923Y44217D01*
X194989Y44721D01*
X195493D01*
X195629Y43695D01*
X196133Y42478D01*
X196934Y41434D01*
X197978Y40633D01*
X198852Y40271D01*
Y39729D01*
X197978Y39367D01*
X196934Y38566D01*
X196133Y37522D01*
X195629Y36305D01*
X195523Y35500D01*
X200500D01*
X205477D01*
X205371Y36305D01*
X204868Y37522D01*
X204066Y38566D01*
X203022Y39367D01*
X202148Y39729D01*
Y40271D01*
X203022Y40633D01*
X204066Y41434D01*
X204868Y42478D01*
X205371Y43695D01*
X205543Y45000D01*
X205371Y46305D01*
X204960Y47297D01*
X209081Y51419D01*
X209413Y51915D01*
X209529Y52500D01*
Y137000D01*
X209413Y137585D01*
X209081Y138081D01*
X151581Y195581D01*
X151085Y195913D01*
X150500Y196029D01*
D02*
G37*
G36*
X63500Y182043D02*
X62195Y181871D01*
X60978Y181368D01*
X59934Y180566D01*
X59132Y179522D01*
X58629Y178305D01*
X58457Y177000D01*
X58629Y175695D01*
X59132Y174478D01*
X59934Y173434D01*
X60978Y172633D01*
X61852Y172271D01*
Y171729D01*
X60978Y171368D01*
X59934Y170566D01*
X59132Y169522D01*
X58629Y168305D01*
X58457Y167000D01*
X58629Y165695D01*
X59132Y164478D01*
X59934Y163434D01*
X60978Y162633D01*
X61852Y162271D01*
Y161729D01*
X60978Y161367D01*
X59934Y160566D01*
X59132Y159522D01*
X58629Y158305D01*
X58457Y157000D01*
X58629Y155695D01*
X59132Y154478D01*
X59934Y153434D01*
X60978Y152632D01*
X61852Y152271D01*
Y151729D01*
X60978Y151367D01*
X59934Y150566D01*
X59132Y149522D01*
X58629Y148305D01*
X58523Y147500D01*
X68477D01*
X68371Y148305D01*
X67867Y149522D01*
X67066Y150566D01*
X66022Y151367D01*
X65148Y151729D01*
Y152271D01*
X66022Y152632D01*
X67066Y153434D01*
X67867Y154478D01*
X68371Y155695D01*
X68543Y157000D01*
X68371Y158305D01*
X67867Y159522D01*
X67066Y160566D01*
X66022Y161367D01*
X65148Y161729D01*
Y162271D01*
X66022Y162633D01*
X67066Y163434D01*
X67867Y164478D01*
X68371Y165695D01*
X68543Y167000D01*
X68371Y168305D01*
X67867Y169522D01*
X67066Y170566D01*
X66022Y171368D01*
X65148Y171729D01*
Y172271D01*
X66022Y172633D01*
X67066Y173434D01*
X67867Y174478D01*
X68371Y175695D01*
X68543Y177000D01*
X68371Y178305D01*
X67867Y179522D01*
X67066Y180566D01*
X66022Y181368D01*
X64805Y181871D01*
X63500Y182043D01*
D02*
G37*
G36*
X141500Y141973D02*
X140825Y141884D01*
X139731Y141431D01*
X138791Y140709D01*
X138069Y139769D01*
X137616Y138675D01*
X137527Y138000D01*
X141500D01*
Y141973D01*
D02*
G37*
G36*
Y137000D02*
X137527D01*
X137616Y136325D01*
X138069Y135231D01*
X138791Y134291D01*
X139731Y133569D01*
X140825Y133116D01*
X141500Y133027D01*
Y137000D01*
D02*
G37*
G36*
X11500Y83500D02*
X7000D01*
Y79000D01*
X11500D01*
Y83500D01*
D02*
G37*
G36*
X6000D02*
X1500D01*
Y79000D01*
X6000D01*
Y83500D01*
D02*
G37*
G36*
X11500Y78000D02*
X1500D01*
Y73500D01*
X4199D01*
X4298Y73000D01*
X3978Y72868D01*
X2934Y72066D01*
X2132Y71022D01*
X1629Y69805D01*
X1457Y68500D01*
X1629Y67195D01*
X2132Y65978D01*
X2934Y64934D01*
X3978Y64132D01*
X4852Y63771D01*
Y63229D01*
X3979Y62867D01*
X2934Y62066D01*
X2132Y61022D01*
X1629Y59805D01*
X1457Y58500D01*
X1629Y57195D01*
X2132Y55978D01*
X2934Y54934D01*
X3979Y54132D01*
X4852Y53771D01*
Y53229D01*
X3979Y52868D01*
X2934Y52066D01*
X2133Y51022D01*
X1629Y49805D01*
X1457Y48500D01*
X1629Y47195D01*
X2133Y45978D01*
X2934Y44934D01*
X3979Y44133D01*
X5195Y43629D01*
X6500Y43457D01*
X7805Y43629D01*
X9022Y44133D01*
X10066Y44934D01*
X10868Y45978D01*
X11371Y47195D01*
X11543Y48500D01*
X11371Y49805D01*
X10868Y51022D01*
X10066Y52066D01*
X9022Y52868D01*
X8148Y53229D01*
Y53771D01*
X9022Y54132D01*
X10066Y54934D01*
X10868Y55978D01*
X11371Y57195D01*
X11543Y58500D01*
X11371Y59805D01*
X10868Y61022D01*
X10066Y62066D01*
X9022Y62867D01*
X8148Y63229D01*
Y63771D01*
X9022Y64132D01*
X10066Y64934D01*
X10868Y65978D01*
X11371Y67195D01*
X11543Y68500D01*
X11371Y69805D01*
X10868Y71022D01*
X10066Y72066D01*
X9022Y72868D01*
X8702Y73000D01*
X8801Y73500D01*
X11500D01*
Y78000D01*
D02*
G37*
G36*
X11650Y41450D02*
X7150D01*
Y36950D01*
X11650D01*
Y41450D01*
D02*
G37*
G36*
X6150D02*
X1650D01*
Y36950D01*
X6150D01*
Y41450D01*
D02*
G37*
G36*
X94500Y40034D02*
X93456Y39897D01*
X92483Y39494D01*
X91647Y38853D01*
X91006Y38017D01*
X90603Y37044D01*
X90465Y36000D01*
X90603Y34956D01*
X91006Y33983D01*
X91647Y33147D01*
X92483Y32506D01*
X93456Y32103D01*
X94500Y31966D01*
X95544Y32103D01*
X96517Y32506D01*
X97353Y33147D01*
X97994Y33983D01*
X98397Y34956D01*
X98535Y36000D01*
X98397Y37044D01*
X97994Y38017D01*
X97353Y38853D01*
X96517Y39494D01*
X95544Y39897D01*
X94500Y40034D01*
D02*
G37*
G36*
X11650Y35950D02*
X1650D01*
Y31450D01*
X4349D01*
X4448Y30950D01*
X4129Y30817D01*
X3084Y30016D01*
X2283Y28972D01*
X1779Y27755D01*
X1607Y26450D01*
X1779Y25145D01*
X2283Y23928D01*
X3084Y22884D01*
X4129Y22083D01*
X5002Y21721D01*
Y21179D01*
X4129Y20818D01*
X3084Y20016D01*
X2283Y18972D01*
X1779Y17755D01*
X1673Y16950D01*
X11627D01*
X11521Y17755D01*
X11018Y18972D01*
X10216Y20016D01*
X9172Y20818D01*
X8298Y21179D01*
Y21721D01*
X9172Y22083D01*
X10216Y22884D01*
X11017Y23928D01*
X11521Y25145D01*
X11693Y26450D01*
X11521Y27755D01*
X11017Y28972D01*
X10216Y30016D01*
X9172Y30817D01*
X8852Y30950D01*
X8951Y31450D01*
X11650D01*
Y35950D01*
D02*
G37*
G36*
X124500Y20034D02*
X123456Y19897D01*
X122483Y19494D01*
X121647Y18853D01*
X121006Y18017D01*
X120603Y17044D01*
X120466Y16000D01*
X120603Y14956D01*
X121006Y13983D01*
X121647Y13147D01*
X122483Y12506D01*
X123456Y12103D01*
X124500Y11965D01*
X125544Y12103D01*
X126517Y12506D01*
X127353Y13147D01*
X127994Y13983D01*
X128397Y14956D01*
X128534Y16000D01*
X128397Y17044D01*
X127994Y18017D01*
X127353Y18853D01*
X126517Y19494D01*
X125544Y19897D01*
X124500Y20034D01*
D02*
G37*
G36*
X68477Y146500D02*
X58523D01*
X58629Y145695D01*
X59132Y144478D01*
X59934Y143434D01*
X60978Y142632D01*
X61852Y142271D01*
Y141729D01*
X60978Y141367D01*
X59934Y140566D01*
X59132Y139522D01*
X58629Y138305D01*
X58457Y137000D01*
X58629Y135695D01*
X59132Y134478D01*
X59934Y133434D01*
X60978Y132633D01*
X61852Y132271D01*
Y131729D01*
X60978Y131368D01*
X59934Y130566D01*
X59132Y129522D01*
X58629Y128305D01*
X58457Y127000D01*
X58629Y125695D01*
X59132Y124478D01*
X59934Y123434D01*
X60978Y122633D01*
X61852Y122271D01*
Y121729D01*
X60978Y121368D01*
X59934Y120566D01*
X59132Y119522D01*
X58629Y118305D01*
X58457Y117000D01*
X58629Y115695D01*
X59132Y114478D01*
X59934Y113434D01*
X60978Y112633D01*
X61852Y112271D01*
Y111729D01*
X60978Y111367D01*
X59934Y110566D01*
X59132Y109522D01*
X58629Y108305D01*
X58457Y107000D01*
X58629Y105695D01*
X59132Y104478D01*
X59934Y103434D01*
X60978Y102632D01*
X61852Y102271D01*
Y101729D01*
X60978Y101367D01*
X59934Y100566D01*
X59132Y99522D01*
X58629Y98305D01*
X58457Y97000D01*
X58629Y95695D01*
X59132Y94478D01*
X59934Y93434D01*
X60978Y92633D01*
X61852Y92271D01*
Y91729D01*
X60978Y91368D01*
X59934Y90566D01*
X59132Y89522D01*
X58629Y88305D01*
X58457Y87000D01*
X58629Y85695D01*
X59132Y84478D01*
X59934Y83434D01*
X60978Y82632D01*
X61852Y82271D01*
Y81729D01*
X60978Y81367D01*
X59934Y80566D01*
X59132Y79522D01*
X58629Y78305D01*
X58457Y77000D01*
X58629Y75695D01*
X59132Y74478D01*
X59934Y73434D01*
X60978Y72632D01*
X61852Y72271D01*
Y71729D01*
X60978Y71368D01*
X59934Y70566D01*
X59132Y69522D01*
X58629Y68305D01*
X58457Y67000D01*
X58629Y65695D01*
X59132Y64478D01*
X59934Y63434D01*
X60978Y62633D01*
X62195Y62129D01*
X63500Y61957D01*
X64805Y62129D01*
X66022Y62633D01*
X66971Y63361D01*
X67471Y63211D01*
Y41500D01*
X67587Y40915D01*
X67919Y40419D01*
X90805Y17532D01*
X90603Y17044D01*
X90465Y16000D01*
X90603Y14956D01*
X91006Y13983D01*
X91647Y13147D01*
X92483Y12506D01*
X93456Y12103D01*
X94500Y11965D01*
X95544Y12103D01*
X96517Y12506D01*
X97353Y13147D01*
X97994Y13983D01*
X98397Y14956D01*
X98535Y16000D01*
X98397Y17044D01*
X97994Y18017D01*
X97353Y18853D01*
X96517Y19494D01*
X95544Y19897D01*
X94500Y20034D01*
X93456Y19897D01*
X92968Y19695D01*
X70529Y42134D01*
Y81500D01*
X70413Y82085D01*
X70081Y82581D01*
X67960Y84703D01*
X68371Y85695D01*
X68543Y87000D01*
X68371Y88305D01*
X67867Y89522D01*
X67066Y90566D01*
X66022Y91368D01*
X65148Y91729D01*
Y92271D01*
X66022Y92633D01*
X67066Y93434D01*
X67867Y94478D01*
X68371Y95695D01*
X68543Y97000D01*
X68371Y98305D01*
X67867Y99522D01*
X67066Y100566D01*
X66022Y101367D01*
X65148Y101729D01*
Y102271D01*
X66022Y102632D01*
X67066Y103434D01*
X67867Y104478D01*
X68371Y105695D01*
X68543Y107000D01*
X68371Y108305D01*
X67867Y109522D01*
X67066Y110566D01*
X66022Y111367D01*
X65148Y111729D01*
Y112271D01*
X66022Y112633D01*
X67066Y113434D01*
X67867Y114478D01*
X68371Y115695D01*
X68543Y117000D01*
X68371Y118305D01*
X67867Y119522D01*
X67066Y120566D01*
X66022Y121368D01*
X65148Y121729D01*
Y122271D01*
X66022Y122633D01*
X67066Y123434D01*
X67867Y124478D01*
X68371Y125695D01*
X68543Y127000D01*
X68371Y128305D01*
X67867Y129522D01*
X67066Y130566D01*
X66022Y131368D01*
X65148Y131729D01*
Y132271D01*
X66022Y132633D01*
X67066Y133434D01*
X67867Y134478D01*
X68371Y135695D01*
X68543Y137000D01*
X68371Y138305D01*
X67867Y139522D01*
X67066Y140566D01*
X66022Y141367D01*
X65148Y141729D01*
Y142271D01*
X66022Y142632D01*
X67066Y143434D01*
X67867Y144478D01*
X68371Y145695D01*
X68477Y146500D01*
D02*
G37*
G36*
X149268Y12825D02*
Y10000D01*
X152093D01*
X152043Y10378D01*
X151705Y11196D01*
X151166Y11898D01*
X150463Y12437D01*
X149645Y12776D01*
X149268Y12825D01*
D02*
G37*
G36*
X148268D02*
X147890Y12776D01*
X147072Y12437D01*
X146370Y11898D01*
X145831Y11196D01*
X145492Y10378D01*
X145442Y10000D01*
X148268D01*
Y12825D01*
D02*
G37*
G36*
X162500Y12969D02*
Y9500D01*
X165969D01*
X165897Y10044D01*
X165494Y11017D01*
X164853Y11853D01*
X164017Y12494D01*
X163044Y12897D01*
X162500Y12969D01*
D02*
G37*
G36*
X161500D02*
X160956Y12897D01*
X159983Y12494D01*
X159147Y11853D01*
X158506Y11017D01*
X158103Y10044D01*
X158031Y9500D01*
X161500D01*
Y12969D01*
D02*
G37*
G36*
X213500Y11000D02*
X209000D01*
Y6500D01*
X213500D01*
Y11000D01*
D02*
G37*
G36*
X152093Y9000D02*
X149268D01*
Y6175D01*
X149645Y6224D01*
X150463Y6563D01*
X151166Y7102D01*
X151705Y7804D01*
X152043Y8622D01*
X152093Y9000D01*
D02*
G37*
G36*
X148268D02*
X145442D01*
X145492Y8622D01*
X145831Y7804D01*
X146370Y7102D01*
X147072Y6563D01*
X147890Y6224D01*
X148268Y6175D01*
Y9000D01*
D02*
G37*
G36*
X140500Y12891D02*
X139622Y12776D01*
X138804Y12437D01*
X138102Y11898D01*
X137563Y11196D01*
X137224Y10378D01*
X137109Y9500D01*
X137224Y8622D01*
X137563Y7804D01*
X138102Y7102D01*
X138804Y6563D01*
X139622Y6224D01*
X140500Y6109D01*
X141378Y6224D01*
X142196Y6563D01*
X142898Y7102D01*
X143437Y7804D01*
X143776Y8622D01*
X143891Y9500D01*
X143776Y10378D01*
X143437Y11196D01*
X142898Y11898D01*
X142196Y12437D01*
X141378Y12776D01*
X140500Y12891D01*
D02*
G37*
G36*
X165969Y8500D02*
X162500D01*
Y5031D01*
X163044Y5103D01*
X164017Y5506D01*
X164853Y6147D01*
X165494Y6983D01*
X165897Y7956D01*
X165969Y8500D01*
D02*
G37*
G36*
X161500D02*
X158031D01*
X158103Y7956D01*
X158506Y6983D01*
X159147Y6147D01*
X159983Y5506D01*
X160956Y5103D01*
X161500Y5031D01*
Y8500D01*
D02*
G37*
G36*
X182000Y13035D02*
X180956Y12897D01*
X179983Y12494D01*
X179147Y11853D01*
X178506Y11017D01*
X178103Y10044D01*
X177965Y9000D01*
X178103Y7956D01*
X178506Y6983D01*
X179147Y6147D01*
X179983Y5506D01*
X180956Y5103D01*
X182000Y4966D01*
X183044Y5103D01*
X184017Y5506D01*
X184853Y6147D01*
X185494Y6983D01*
X185897Y7956D01*
X186035Y9000D01*
X185897Y10044D01*
X185494Y11017D01*
X184853Y11853D01*
X184017Y12494D01*
X183044Y12897D01*
X182000Y13035D01*
D02*
G37*
G36*
X11627Y15950D02*
X1673D01*
X1779Y15145D01*
X2283Y13928D01*
X3084Y12884D01*
X4129Y12083D01*
X5002Y11721D01*
Y11179D01*
X4129Y10818D01*
X3084Y10016D01*
X2283Y8972D01*
X1779Y7755D01*
X1607Y6450D01*
X1779Y5145D01*
X2283Y3928D01*
X3084Y2884D01*
X4129Y2083D01*
X5345Y1579D01*
X6650Y1407D01*
X7955Y1579D01*
X9172Y2083D01*
X10216Y2884D01*
X11018Y3928D01*
X11521Y5145D01*
X11693Y6450D01*
X11521Y7755D01*
X11018Y8972D01*
X10216Y10016D01*
X9172Y10818D01*
X8298Y11179D01*
Y11721D01*
X9172Y12083D01*
X10216Y12884D01*
X11018Y13928D01*
X11521Y15145D01*
X11627Y15950D01*
D02*
G37*
G36*
X213500Y5500D02*
X209000D01*
Y1000D01*
X213500D01*
Y5500D01*
D02*
G37*
G36*
X198500Y11043D02*
X197195Y10871D01*
X195978Y10368D01*
X194934Y9566D01*
X194132Y8522D01*
X193629Y7305D01*
X193457Y6000D01*
X193629Y4695D01*
X194132Y3478D01*
X194934Y2434D01*
X195978Y1633D01*
X197195Y1129D01*
X198500Y957D01*
X199805Y1129D01*
X201022Y1633D01*
X202066Y2434D01*
X202868Y3478D01*
X203000Y3798D01*
X203500Y3699D01*
Y1000D01*
X208000D01*
Y6000D01*
Y11000D01*
X203500D01*
Y8301D01*
X203000Y8202D01*
X202868Y8522D01*
X202066Y9566D01*
X201022Y10368D01*
X199805Y10871D01*
X198500Y11043D01*
D02*
G37*
%LPD*%
G36*
X148971Y171367D02*
Y164845D01*
X148471Y164795D01*
X148413Y165085D01*
X148081Y165581D01*
X142029Y171634D01*
Y172500D01*
X147837D01*
X148971Y171367D01*
D02*
G37*
G36*
X206471Y136366D02*
Y128846D01*
X206009Y128654D01*
X149578Y185085D01*
X149884Y185825D01*
X150039Y187000D01*
X149884Y188175D01*
X149431Y189269D01*
X148709Y190209D01*
X147769Y190931D01*
X146675Y191384D01*
X145500Y191539D01*
X144325Y191384D01*
X143231Y190931D01*
X142290Y190209D01*
X141569Y189269D01*
X141116Y188175D01*
X140961Y187000D01*
X141116Y185825D01*
X141569Y184731D01*
X142290Y183791D01*
X143231Y183069D01*
X144325Y182616D01*
X145500Y182461D01*
X146675Y182616D01*
X147415Y182922D01*
X148375Y181962D01*
X148184Y181500D01*
X142029D01*
Y182000D01*
X141913Y182585D01*
X141581Y183081D01*
X139578Y185085D01*
X139884Y185825D01*
X140039Y187000D01*
X139884Y188175D01*
X139431Y189269D01*
X138709Y190209D01*
X137769Y190931D01*
X136675Y191384D01*
X135798Y191499D01*
X135619Y192027D01*
X136562Y192971D01*
X149866D01*
X206471Y136366D01*
D02*
G37*
G36*
X110352Y137771D02*
Y137229D01*
X109478Y136867D01*
X108434Y136066D01*
X107633Y135022D01*
X107129Y133805D01*
X106957Y132500D01*
X107129Y131195D01*
X107540Y130202D01*
X84257Y106920D01*
X83926Y106424D01*
X83868Y106134D01*
X83368Y106183D01*
Y111705D01*
X109703Y138040D01*
X110352Y137771D01*
D02*
G37*
G36*
X204471Y125866D02*
Y98789D01*
X203971Y98639D01*
X203022Y99367D01*
X201805Y99871D01*
X200500Y100043D01*
X199195Y99871D01*
X197978Y99367D01*
X196934Y98566D01*
X196133Y97522D01*
X195629Y96305D01*
X195457Y95000D01*
X195629Y93695D01*
X196133Y92478D01*
X196934Y91434D01*
X197978Y90632D01*
X198852Y90271D01*
Y89729D01*
X197978Y89368D01*
X196934Y88566D01*
X196133Y87522D01*
X195629Y86305D01*
X195457Y85000D01*
X195629Y83695D01*
X196133Y82478D01*
X196934Y81434D01*
X197978Y80633D01*
X198852Y80271D01*
Y79729D01*
X197978Y79368D01*
X196934Y78566D01*
X196133Y77522D01*
X195629Y76305D01*
X195457Y75000D01*
X195629Y73695D01*
X196133Y72478D01*
X196934Y71434D01*
X197978Y70632D01*
X198852Y70271D01*
Y69729D01*
X197978Y69367D01*
X196934Y68566D01*
X196133Y67522D01*
X195629Y66305D01*
X195457Y65000D01*
X195629Y63695D01*
X196133Y62478D01*
X196934Y61434D01*
X197978Y60632D01*
X198852Y60271D01*
Y59729D01*
X197978Y59368D01*
X196934Y58566D01*
X196133Y57522D01*
X195629Y56305D01*
X195457Y55000D01*
X195629Y53695D01*
X196133Y52478D01*
X196934Y51434D01*
X197978Y50633D01*
X198852Y50271D01*
Y49729D01*
X197978Y49367D01*
X196934Y48566D01*
X196133Y47522D01*
X195629Y46305D01*
X195493Y45279D01*
X194989D01*
X194923Y45783D01*
X194621Y46513D01*
X194140Y47140D01*
X193529Y47608D01*
Y53500D01*
X193413Y54085D01*
X193081Y54581D01*
X152029Y95634D01*
Y172000D01*
X151913Y172585D01*
X151581Y173081D01*
X150000Y174663D01*
Y179684D01*
X150462Y179875D01*
X204471Y125866D01*
D02*
G37*
G36*
X149087Y94415D02*
X149419Y93919D01*
X184829Y58508D01*
X184679Y58066D01*
X184187Y57975D01*
X148529Y93634D01*
Y94655D01*
X149029Y94705D01*
X149087Y94415D01*
D02*
G37*
%LPC*%
G36*
X188500Y122043D02*
X187195Y121871D01*
X185978Y121368D01*
X184934Y120566D01*
X184133Y119522D01*
X183771Y118648D01*
X183229D01*
X182868Y119522D01*
X182066Y120566D01*
X181022Y121368D01*
X179805Y121871D01*
X178500Y122043D01*
X177195Y121871D01*
X175978Y121368D01*
X174934Y120566D01*
X174133Y119522D01*
X173771Y118648D01*
X173229D01*
X172868Y119522D01*
X172066Y120566D01*
X171022Y121368D01*
X169805Y121871D01*
X168500Y122043D01*
X167195Y121871D01*
X165978Y121368D01*
X164934Y120566D01*
X164132Y119522D01*
X163771Y118648D01*
X163229D01*
X162867Y119522D01*
X162066Y120566D01*
X161022Y121368D01*
X159805Y121871D01*
X158500Y122043D01*
X157195Y121871D01*
X155978Y121368D01*
X154934Y120566D01*
X154132Y119522D01*
X153629Y118305D01*
X153457Y117000D01*
X153629Y115695D01*
X154132Y114478D01*
X154934Y113434D01*
X155978Y112633D01*
X156852Y112271D01*
Y111729D01*
X155978Y111367D01*
X154934Y110566D01*
X154132Y109522D01*
X153629Y108305D01*
X153523Y107500D01*
X158500D01*
Y107000D01*
X159000D01*
Y102023D01*
X159805Y102129D01*
X161022Y102632D01*
X162066Y103434D01*
X162867Y104478D01*
X163229Y105352D01*
X163771D01*
X164132Y104478D01*
X164934Y103434D01*
X165978Y102632D01*
X167195Y102129D01*
X168500Y101957D01*
X169805Y102129D01*
X171022Y102632D01*
X172066Y103434D01*
X172868Y104478D01*
X173229Y105352D01*
X173771D01*
X174133Y104478D01*
X174934Y103434D01*
X175978Y102632D01*
X177195Y102129D01*
X178500Y101957D01*
X179805Y102129D01*
X181022Y102632D01*
X182066Y103434D01*
X182868Y104478D01*
X183229Y105352D01*
X183771D01*
X184133Y104478D01*
X184934Y103434D01*
X185978Y102632D01*
X187195Y102129D01*
X188500Y101957D01*
X189805Y102129D01*
X191022Y102632D01*
X192066Y103434D01*
X192868Y104478D01*
X193371Y105695D01*
X193543Y107000D01*
X193371Y108305D01*
X192868Y109522D01*
X192066Y110566D01*
X191022Y111367D01*
X190148Y111729D01*
Y112271D01*
X191022Y112633D01*
X192066Y113434D01*
X192868Y114478D01*
X193371Y115695D01*
X193543Y117000D01*
X193371Y118305D01*
X192868Y119522D01*
X192066Y120566D01*
X191022Y121368D01*
X189805Y121871D01*
X188500Y122043D01*
D02*
G37*
G36*
X158000Y106500D02*
X153523D01*
X153629Y105695D01*
X154132Y104478D01*
X154934Y103434D01*
X155978Y102632D01*
X157195Y102129D01*
X158000Y102023D01*
Y106500D01*
D02*
G37*
%LPD*%
D13*
X141000Y84500D02*
Y115000D01*
X172000Y9000D02*
Y17500D01*
X130000Y59500D02*
X172000Y17500D01*
X130000Y59500D02*
Y169692D01*
X123096Y176596D02*
X130000Y169692D01*
X141000Y115000D02*
Y126500D01*
X142000Y127500D01*
X141000Y84500D02*
X200500Y25000D01*
D14*
X132500Y176000D02*
Y178929D01*
X130500Y182000D02*
X135500Y177000D01*
X130500Y182000D02*
Y189071D01*
X135929Y194500D01*
X150500D01*
X147000Y93000D02*
Y164500D01*
Y93000D02*
X185000Y55000D01*
X140500Y171000D02*
X147000Y164500D01*
X150500Y95000D02*
Y172000D01*
Y95000D02*
X192000Y53500D01*
X135500Y187000D02*
X140500Y182000D01*
Y171000D02*
Y182000D01*
X206000Y60500D02*
Y126500D01*
X146000Y186500D02*
X206000Y126500D01*
X146000Y186500D02*
Y187500D01*
X208000Y52500D02*
Y137000D01*
X150500Y194500D02*
X208000Y137000D01*
X145500Y177000D02*
X150500Y172000D01*
X132500Y178929D02*
X132500Y178929D01*
X85339Y105839D02*
X112000Y132500D01*
X85339Y57839D02*
Y105839D01*
X81839Y112339D02*
X112000Y142500D01*
X81839Y47161D02*
Y112339D01*
Y47161D02*
X85500Y43500D01*
X118000Y42500D02*
X124500Y36000D01*
X118000Y42500D02*
Y141500D01*
X123500Y147000D01*
X192000Y45000D02*
Y53500D01*
X200500Y45000D02*
X208000Y52500D01*
X200500Y55000D02*
X206000Y60500D01*
X69000Y41500D02*
X94500Y16000D01*
X69000Y41500D02*
Y81500D01*
X63500Y87000D02*
X69000Y81500D01*
X50200Y17500D02*
X59200Y8500D01*
X97000D01*
X124500Y36000D01*
X123500Y147000D02*
Y148000D01*
D15*
X142000Y127500D02*
D03*
Y137500D02*
D03*
Y147500D02*
D03*
X145500Y187000D02*
D03*
X135500D02*
D03*
D16*
X145500Y177000D02*
D03*
X135500D02*
D03*
D17*
X6500Y58500D02*
D03*
X6500Y68500D02*
D03*
X6500Y48500D02*
D03*
X6650Y6450D02*
D03*
X6650Y26450D02*
D03*
X6650Y16450D02*
D03*
X198500Y6000D02*
D03*
X63500Y177000D02*
D03*
Y167000D02*
D03*
Y157000D02*
D03*
Y147000D02*
D03*
Y137000D02*
D03*
Y127000D02*
D03*
Y117000D02*
D03*
Y107000D02*
D03*
Y97000D02*
D03*
Y87000D02*
D03*
Y77000D02*
D03*
Y67000D02*
D03*
X123500Y177000D02*
D03*
Y167000D02*
D03*
Y157000D02*
D03*
Y147000D02*
D03*
Y137000D02*
D03*
Y127000D02*
D03*
Y117000D02*
D03*
Y107000D02*
D03*
Y97000D02*
D03*
Y87000D02*
D03*
Y77000D02*
D03*
Y67000D02*
D03*
X112000Y142500D02*
D03*
Y132500D02*
D03*
X68500Y187000D02*
D03*
X78500D02*
D03*
X88500D02*
D03*
X98500D02*
D03*
X108500D02*
D03*
X118500D02*
D03*
X158500Y107000D02*
D03*
X168500D02*
D03*
X178500D02*
D03*
X188500D02*
D03*
Y117000D02*
D03*
X178500D02*
D03*
X168500D02*
D03*
X158500D02*
D03*
X200500Y25000D02*
D03*
Y35000D02*
D03*
Y45000D02*
D03*
Y55000D02*
D03*
Y65000D02*
D03*
Y75000D02*
D03*
Y85000D02*
D03*
Y95000D02*
D03*
D18*
X6500Y78500D02*
D03*
X6650Y36450D02*
D03*
D19*
X208500Y6000D02*
D03*
D20*
X124500Y36000D02*
D03*
X94500D02*
D03*
X124500Y16000D02*
D03*
X94500D02*
D03*
X162000Y9000D02*
D03*
X172000D02*
D03*
X182000D02*
D03*
D21*
X148768Y9500D02*
D03*
X140500D02*
D03*
D22*
X85500Y43500D02*
D03*
X85339Y57839D02*
D03*
X185000Y55000D02*
D03*
X192000Y45000D02*
D03*
X50200Y17500D02*
D03*
X59200Y8500D02*
D03*
X69000Y21000D02*
D03*
X141000Y115000D02*
D03*
X108500Y43000D02*
D03*
X175500Y49750D02*
D03*
X135500Y106500D02*
D03*
M02*
