%FSDAX24Y24*%
%MOIN*%
%SFA1B1*%

%IPPOS*%
%ADD9500C,0.025000*%
%ADD9501C,0.028000*%
%ADD9502C,0.030000*%
%ADD9503C,0.035400*%
%ADD9504C,0.126000*%
%LNbluesatpc104template-1*%
%LPD*%
G54D9500*
X015790Y027600D03*
X016790D03*
X017790D03*
X018790D03*
X019790D03*
X020790D03*
X021790D03*
X022790D03*
X023790D03*
X014790D03*
X013790D03*
X012790D03*
Y033600D03*
X013790D03*
X014790D03*
X015790D03*
X016790D03*
X017790D03*
X018790D03*
X019790D03*
X020790D03*
X021790D03*
X022790D03*
X023790D03*
G54D9501*
X024540Y024050D03*
X022590Y026150D03*
X029040Y028550D03*
G54D9502*
X034740Y021200D03*
X035740D03*
X036740D03*
X037740D03*
X038740D03*
X039740D03*
X039290Y028400D03*
X038290D03*
X037290D03*
X036290D03*
X035290D03*
X034290D03*
X033290D03*
X040290D03*
X030590Y028350D03*
Y029350D03*
Y030350D03*
Y027350D03*
X018540Y025600D03*
Y024600D03*
X015640D03*
Y025600D03*
X013840Y026200D03*
Y024200D03*
X010840D03*
Y026200D03*
X011390Y036450D03*
X012390D03*
X013390D03*
X029640Y037700D03*
Y038700D03*
Y039700D03*
Y040700D03*
Y041700D03*
Y042700D03*
X030590Y034350D03*
Y033350D03*
Y032350D03*
Y031350D03*
X033540Y044200D03*
X034540D03*
X035540D03*
X036540D03*
X037540D03*
X038540D03*
G54D9503*
X011690Y014650D03*
X042659Y015042D03*
X043658D03*
X044658D03*
X045658D03*
Y016042D03*
X044658D03*
X043658D03*
Y017042D03*
Y018042D03*
Y019042D03*
Y020042D03*
Y021042D03*
Y022042D03*
Y023042D03*
Y024042D03*
Y025042D03*
Y026042D03*
Y027042D03*
Y028042D03*
Y029042D03*
Y030042D03*
Y031042D03*
X042659D03*
Y030042D03*
Y029042D03*
Y028042D03*
Y027042D03*
Y026042D03*
Y025042D03*
Y024042D03*
Y023042D03*
Y022042D03*
Y021042D03*
Y020042D03*
Y019042D03*
Y018042D03*
Y017042D03*
Y016042D03*
X044658Y017042D03*
X045658D03*
Y018042D03*
X044658D03*
Y019042D03*
X045658D03*
Y020042D03*
X044658D03*
Y021042D03*
X045658D03*
Y022042D03*
X044658D03*
Y023042D03*
X045658D03*
Y024042D03*
X044658D03*
Y025042D03*
X045658D03*
Y026042D03*
X044658D03*
Y027042D03*
X045658D03*
Y028042D03*
X044658D03*
Y029042D03*
X045658D03*
Y030042D03*
X044658D03*
Y031042D03*
X045658D03*
X011690Y015650D03*
X012790Y034850D03*
X013790D03*
X014790D03*
X042659Y035042D03*
Y036042D03*
Y037042D03*
Y038042D03*
Y039042D03*
Y040042D03*
X043658D03*
Y039042D03*
Y038042D03*
Y037042D03*
Y036042D03*
Y035042D03*
Y034042D03*
X042659D03*
Y033042D03*
X043658D03*
Y032042D03*
X042659D03*
X044658D03*
X045658D03*
Y033042D03*
X044658D03*
Y034042D03*
X045658D03*
Y035042D03*
X044658D03*
Y036042D03*
X045658D03*
Y037042D03*
X044658D03*
Y038042D03*
X045658D03*
Y039042D03*
X044658D03*
Y040042D03*
X045658D03*
G54D9504*
X011940Y011990D03*
X045690Y013000D03*
X011940Y043500D03*
X045690Y042000D03*
M02*