M48
;Layer_Color=9474304
;FILE_FORMAT=2:4
INCH
;TYPE=PLATED
T1F00S00C0.0200
T2F00S00C0.0236
T3F00S00C0.0300
T4F00S00C0.0400
T5F00S00C0.0787
T6F00S00C0.1250
T7F00S00C0.1969
%
T01
X048790Y011200
Y012200
X049590Y012650
X050390Y012200
Y011200
X049590Y010750
X064990Y012000
X082540Y012700
Y013700
X083340Y014150
X084140Y013700
Y012700
X083340Y012250
X070090Y016550
Y017150
Y017650
X070640Y018050
X068740Y016500
X068640Y015950
X067490Y017650
X065213Y017500
X065713Y018300
X065340Y018950
X063690Y018600
Y019450
Y020300
X064340Y016500
X067413Y021250
X067790Y021700
X065340Y024500
X064590Y024750
X062890Y028500
X060990Y031100
X060090Y030500
Y023150
X059340Y022800
X060990Y023500
X062090Y020300
Y019450
Y018600
X057890Y016500
Y021300
X054690Y022150
X055740Y025350
X056901Y024745
X059140Y031900
X058240Y035300
X058490Y036550
X061990Y036050
X061190Y034700
X057438Y043948
X050390Y043690
Y042690
X049590Y042240
X048790Y042690
Y043690
X049590Y044140
X064740Y043950
X065190Y040950
X064934Y039694
X068390Y039900
X067840Y038750
X065840Y036300
X063940Y036200
X069490Y035450
X070740Y037050
X071890Y034500
X072440Y033200
X076090Y035100
X077290Y035900
X076640Y036650
X078490Y031350
X082590Y041750
Y042700
X083340Y043100
X084040Y042700
Y041750
X083340Y041340
T02
X062940Y011623
Y012450
X064940Y012623
Y013450
Y011300
Y010473
T03
X069590Y010300
Y012300
X070690Y014100
X071690
X072690
X072590Y012300
Y010300
T04
X074440Y013200
X075440Y013200
X076440Y013200
X077440Y013200
X078440Y013200
X079440Y013200
X079340Y015200
X080340
X081340
X082340
Y016200
X081340
Y017200
X082340
Y018200
X081340
Y019200
X082340
Y020200
X081340
Y021200
X082340
Y022200
X081340
Y023200
X082340
Y024200
X081340
Y025200
X082340
Y026200
X081340
Y027200
X082340
Y028200
X081340
Y029200
X082340
Y030200
X081340
Y031200
X082340
X080340
Y030200
Y029200
Y028200
Y027200
Y026200
Y025200
Y024200
Y023200
Y022200
Y021200
Y020200
Y019200
Y018200
Y017200
Y016200
X079340
Y017200
Y018200
Y019200
Y020200
Y021200
Y022200
Y023200
Y024200
Y025200
Y026200
Y027200
Y028200
Y029200
Y030200
Y031200
X077290Y030500
Y029500
Y028500
Y027500
Y026500
Y025500
Y024500
Y023500
Y022500
Y021500
Y020500
X076790Y019500
X075790
X074790
X073790
X072790
X071790
X071290Y020500
Y021500
Y022500
Y023500
Y024500
Y025500
Y026500
Y027500
Y028500
Y029500
Y030500
X072440Y024950
Y023950
X071290Y031500
X077290
X076790Y041000
X075790Y041000
X077790Y041000
X079340Y040200
Y039200
Y038200
Y037200
Y036200
Y035200
Y034200
Y033200
Y032200
X080340
X081340
X082340
Y033200
X081340
Y034200
X082340
Y035200
X081340
Y036200
X082340
Y037200
X081340
Y038200
X082340
Y039200
X081340
Y040200
X082340
X080340
Y039200
Y038200
Y037200
Y036200
Y035200
Y034200
Y033200
T05
X068074Y010523
Y025877
X063732Y022495
X058673Y026865
X048377Y022495
X058673Y042220
X063051Y033928
X078405
T06
X049590Y011700
X083340Y013200
X049590Y043200
X083340Y042200
T07
X068074Y012850
X050840Y022495
X058673Y039900
X065540Y033928
M30
