G04 Layer_Color=16711935*
%FSAX24Y24*%
%MOIN*%
G70*
G01*
G75*
%ADD53C,0.0680*%
%ADD54R,0.0680X0.0680*%
%ADD55C,0.0880*%
%ADD56O,0.0880X0.0680*%
%ADD57R,0.0880X0.0880*%
%ADD58C,0.0780*%
%ADD59R,0.0780X0.0780*%
%ADD60C,0.0552*%
%ADD61C,0.0480*%
%ADD62C,0.1880*%
%ADD63C,0.2580*%
%ADD64C,0.0867*%
%ADD65C,0.2049*%
D53*
X072590Y012300D02*
D03*
X069590D02*
D03*
X072590Y010300D02*
D03*
X069590D02*
D03*
X070690Y014100D02*
D03*
X071690D02*
D03*
X072690D02*
D03*
D54*
X081340Y015200D02*
D03*
D55*
X082340D02*
D03*
X081340Y016200D02*
D03*
X082340D02*
D03*
X081340Y017200D02*
D03*
X082340D02*
D03*
X081340Y018200D02*
D03*
X082340D02*
D03*
X081340Y019200D02*
D03*
X082340D02*
D03*
X081340Y020200D02*
D03*
X082340D02*
D03*
X081340Y021200D02*
D03*
X082340D02*
D03*
X081340Y022200D02*
D03*
X082340D02*
D03*
X081340Y023200D02*
D03*
X082340D02*
D03*
X081340Y024200D02*
D03*
X082340D02*
D03*
X081340Y025200D02*
D03*
X082340D02*
D03*
X081340Y026200D02*
D03*
X082340D02*
D03*
X081340Y027200D02*
D03*
X082340D02*
D03*
X081340Y028200D02*
D03*
X082340D02*
D03*
X081340Y029200D02*
D03*
X082340D02*
D03*
X081340Y030200D02*
D03*
X082340D02*
D03*
X081340Y031200D02*
D03*
X082340D02*
D03*
X081340Y032200D02*
D03*
X082340D02*
D03*
X081340Y033200D02*
D03*
X082340D02*
D03*
X081340Y034200D02*
D03*
X082340D02*
D03*
X081340Y035200D02*
D03*
X082340D02*
D03*
X081340Y036200D02*
D03*
X082340D02*
D03*
X081340Y037200D02*
D03*
X082340D02*
D03*
Y040200D02*
D03*
X081340D02*
D03*
X080340Y015200D02*
D03*
X079340Y016200D02*
D03*
X080340D02*
D03*
X079340Y017200D02*
D03*
X080340D02*
D03*
X079340Y018200D02*
D03*
X080340D02*
D03*
X079340Y019200D02*
D03*
X080340D02*
D03*
X079340Y020200D02*
D03*
X080340D02*
D03*
X079340Y021200D02*
D03*
X080340D02*
D03*
X079340Y022200D02*
D03*
X080340D02*
D03*
X079340Y023200D02*
D03*
X080340D02*
D03*
X079340Y024200D02*
D03*
X080340D02*
D03*
X079340Y025200D02*
D03*
X080340D02*
D03*
X079340Y026200D02*
D03*
X080340D02*
D03*
X079340Y027200D02*
D03*
X080340D02*
D03*
X079340Y028200D02*
D03*
X080340D02*
D03*
X079340Y029200D02*
D03*
X080340D02*
D03*
X079340Y030200D02*
D03*
X080340D02*
D03*
X079340Y031200D02*
D03*
X080340D02*
D03*
X079340Y032200D02*
D03*
X080340D02*
D03*
X079340Y033200D02*
D03*
X080340D02*
D03*
X079340Y034200D02*
D03*
X080340D02*
D03*
X079340Y035200D02*
D03*
X080340D02*
D03*
X079340Y036200D02*
D03*
X080340D02*
D03*
X079340Y037200D02*
D03*
X080340D02*
D03*
X079340Y038200D02*
D03*
X080340D02*
D03*
X079340Y039200D02*
D03*
X080340D02*
D03*
Y040200D02*
D03*
X079340D02*
D03*
X071790Y019500D02*
D03*
X072790D02*
D03*
X073790D02*
D03*
X074790D02*
D03*
X075790D02*
D03*
X076790D02*
D03*
X072440Y024950D02*
D03*
Y023950D02*
D03*
X071290Y031500D02*
D03*
Y030500D02*
D03*
Y029500D02*
D03*
Y028500D02*
D03*
Y027500D02*
D03*
Y026500D02*
D03*
Y025500D02*
D03*
Y024500D02*
D03*
Y023500D02*
D03*
Y022500D02*
D03*
Y021500D02*
D03*
Y020500D02*
D03*
X077290Y031500D02*
D03*
Y030500D02*
D03*
Y029500D02*
D03*
Y028500D02*
D03*
Y027500D02*
D03*
Y026500D02*
D03*
Y025500D02*
D03*
Y024500D02*
D03*
Y023500D02*
D03*
Y022500D02*
D03*
Y021500D02*
D03*
Y020500D02*
D03*
D56*
X081340Y038200D02*
D03*
X082340D02*
D03*
X081340Y039200D02*
D03*
X082340D02*
D03*
D57*
X079340Y015200D02*
D03*
D58*
X077440Y013200D02*
D03*
X078440Y013200D02*
D03*
X076440Y013200D02*
D03*
X075440Y013200D02*
D03*
X074440Y013200D02*
D03*
X076790Y041000D02*
D03*
X077790Y041000D02*
D03*
D59*
X079440Y013200D02*
D03*
X075790Y041000D02*
D03*
D60*
X062940Y011623D02*
D03*
Y012450D02*
D03*
X064940Y012623D02*
D03*
Y013450D02*
D03*
Y010473D02*
D03*
Y011300D02*
D03*
D61*
X083340Y041340D02*
D03*
Y043100D02*
D03*
X084040Y041750D02*
D03*
Y042700D02*
D03*
X082590Y041750D02*
D03*
Y042700D02*
D03*
X063690Y018600D02*
D03*
X062090D02*
D03*
X063690Y019450D02*
D03*
X062090D02*
D03*
Y020300D02*
D03*
X063690D02*
D03*
X067840Y038750D02*
D03*
X070740Y037050D02*
D03*
X070090Y016550D02*
D03*
X064990Y012000D02*
D03*
X062890Y028500D02*
D03*
X071890Y034500D02*
D03*
X072440Y033200D02*
D03*
X078490Y031350D02*
D03*
X063940Y036200D02*
D03*
X060990Y031100D02*
D03*
Y023500D02*
D03*
X065340Y018950D02*
D03*
Y024500D02*
D03*
X076090Y035100D02*
D03*
X069490Y035450D02*
D03*
X061990Y036050D02*
D03*
X076640Y036650D02*
D03*
X064590Y024750D02*
D03*
X070090Y017150D02*
D03*
X060090Y023150D02*
D03*
Y030500D02*
D03*
X077290Y035900D02*
D03*
X057890Y016500D02*
D03*
X064340D02*
D03*
X068740D02*
D03*
X068640Y015950D02*
D03*
X057890Y021300D02*
D03*
X057438Y043948D02*
D03*
X058240Y035300D02*
D03*
X064740Y043950D02*
D03*
X064934Y039694D02*
D03*
X056901Y024745D02*
D03*
X070640Y018050D02*
D03*
X070090Y017650D02*
D03*
X067790Y021700D02*
D03*
X067413Y021250D02*
D03*
X067490Y017650D02*
D03*
X059140Y031900D02*
D03*
X061190Y034700D02*
D03*
X058490Y036550D02*
D03*
X068390Y039900D02*
D03*
X065840Y036300D02*
D03*
X065190Y040950D02*
D03*
X055740Y025350D02*
D03*
X059340Y022800D02*
D03*
X054690Y022150D02*
D03*
X065213Y017500D02*
D03*
X065713Y018300D02*
D03*
X082540Y012700D02*
D03*
Y013700D02*
D03*
X084140Y012700D02*
D03*
Y013700D02*
D03*
X083340Y012250D02*
D03*
Y014150D02*
D03*
X048790Y011200D02*
D03*
Y012200D02*
D03*
X050390Y011200D02*
D03*
Y012200D02*
D03*
X049590Y010750D02*
D03*
Y012650D02*
D03*
X048790Y042690D02*
D03*
Y043690D02*
D03*
X050390Y042690D02*
D03*
Y043690D02*
D03*
X049590Y042240D02*
D03*
Y044140D02*
D03*
D62*
X083340Y042200D02*
D03*
D63*
X049590Y043200D02*
D03*
Y011700D02*
D03*
X083340Y013200D02*
D03*
D64*
X068074Y010523D02*
D03*
Y025877D02*
D03*
X078405Y033928D02*
D03*
X063051D02*
D03*
X058673Y042220D02*
D03*
Y026865D02*
D03*
X048377Y022495D02*
D03*
X063732D02*
D03*
D65*
X050840Y022495D02*
D03*
X058673Y039900D02*
D03*
X065540Y033928D02*
D03*
X068074Y012850D02*
D03*
M02*
