G04 Layer_Color=128*
%FSAX24Y24*%
%MOIN*%
G70*
G01*
G75*
%ADD68C,0.0020*%
D68*
X072440Y012300D02*
X072740D01*
X072590Y012150D02*
Y012450D01*
X069440Y012300D02*
X069740D01*
X069590Y012150D02*
Y012450D01*
X072440Y010300D02*
X072740D01*
X072590Y010150D02*
Y010450D01*
X069440Y010300D02*
X069740D01*
X069590Y010150D02*
Y010450D01*
X081140Y015200D02*
X081540D01*
X081340Y015000D02*
Y015400D01*
X082140Y015200D02*
X082540D01*
X082340Y015000D02*
Y015400D01*
X081140Y016200D02*
X081540D01*
X081340Y016000D02*
Y016400D01*
X082140Y016200D02*
X082540D01*
X082340Y016000D02*
Y016400D01*
X081140Y017200D02*
X081540D01*
X081340Y017000D02*
Y017400D01*
X082140Y017200D02*
X082540D01*
X082340Y017000D02*
Y017400D01*
X081140Y018200D02*
X081540D01*
X081340Y018000D02*
Y018400D01*
X082140Y018200D02*
X082540D01*
X082340Y018000D02*
Y018400D01*
X081140Y019200D02*
X081540D01*
X081340Y019000D02*
Y019400D01*
X082140Y019200D02*
X082540D01*
X082340Y019000D02*
Y019400D01*
X081140Y020200D02*
X081540D01*
X081340Y020000D02*
Y020400D01*
X082140Y020200D02*
X082540D01*
X082340Y020000D02*
Y020400D01*
X081140Y021200D02*
X081540D01*
X081340Y021000D02*
Y021400D01*
X082140Y021200D02*
X082540D01*
X082340Y021000D02*
Y021400D01*
X081140Y022200D02*
X081540D01*
X081340Y022000D02*
Y022400D01*
X082140Y022200D02*
X082540D01*
X082340Y022000D02*
Y022400D01*
X081140Y023200D02*
X081540D01*
X081340Y023000D02*
Y023400D01*
X082140Y023200D02*
X082540D01*
X082340Y023000D02*
Y023400D01*
X081140Y024200D02*
X081540D01*
X081340Y024000D02*
Y024400D01*
X082140Y024200D02*
X082540D01*
X082340Y024000D02*
Y024400D01*
X081140Y025200D02*
X081540D01*
X081340Y025000D02*
Y025400D01*
X082140Y025200D02*
X082540D01*
X082340Y025000D02*
Y025400D01*
X081140Y026200D02*
X081540D01*
X081340Y026000D02*
Y026400D01*
X082140Y026200D02*
X082540D01*
X082340Y026000D02*
Y026400D01*
X081140Y027200D02*
X081540D01*
X081340Y027000D02*
Y027400D01*
X082140Y027200D02*
X082540D01*
X082340Y027000D02*
Y027400D01*
X081140Y028200D02*
X081540D01*
X081340Y028000D02*
Y028400D01*
X082140Y028200D02*
X082540D01*
X082340Y028000D02*
Y028400D01*
X081140Y029200D02*
X081540D01*
X081340Y029000D02*
Y029400D01*
X082140Y029200D02*
X082540D01*
X082340Y029000D02*
Y029400D01*
X081140Y030200D02*
X081540D01*
X081340Y030000D02*
Y030400D01*
X082140Y030200D02*
X082540D01*
X082340Y030000D02*
Y030400D01*
X081140Y031200D02*
X081540D01*
X081340Y031000D02*
Y031400D01*
X082140Y031200D02*
X082540D01*
X082340Y031000D02*
Y031400D01*
X081140Y032200D02*
X081540D01*
X081340Y032000D02*
Y032400D01*
X082140Y032200D02*
X082540D01*
X082340Y032000D02*
Y032400D01*
X081140Y033200D02*
X081540D01*
X081340Y033000D02*
Y033400D01*
X082140Y033200D02*
X082540D01*
X082340Y033000D02*
Y033400D01*
X081140Y034200D02*
X081540D01*
X081340Y034000D02*
Y034400D01*
X082140Y034200D02*
X082540D01*
X082340Y034000D02*
Y034400D01*
X081140Y035200D02*
X081540D01*
X081340Y035000D02*
Y035400D01*
X082140Y035200D02*
X082540D01*
X082340Y035000D02*
Y035400D01*
X081140Y036200D02*
X081540D01*
X081340Y036000D02*
Y036400D01*
X082140Y036200D02*
X082540D01*
X082340Y036000D02*
Y036400D01*
X081140Y037200D02*
X081540D01*
X081340Y037000D02*
Y037400D01*
X082140Y037200D02*
X082540D01*
X082340Y037000D02*
Y037400D01*
X081140Y038200D02*
X081540D01*
X081340Y038000D02*
Y038400D01*
X082140Y038200D02*
X082540D01*
X082340Y038000D02*
Y038400D01*
X081140Y039200D02*
X081540D01*
X081340Y039000D02*
Y039400D01*
X082140Y039200D02*
X082540D01*
X082340Y039000D02*
Y039400D01*
X082140Y040200D02*
X082540D01*
X082340Y040000D02*
Y040400D01*
X081140Y040200D02*
X081540D01*
X081340Y040000D02*
Y040400D01*
X079140Y015200D02*
X079540D01*
X079340Y015000D02*
Y015400D01*
X080140Y015200D02*
X080540D01*
X080340Y015000D02*
Y015400D01*
X079140Y016200D02*
X079540D01*
X079340Y016000D02*
Y016400D01*
X080140Y016200D02*
X080540D01*
X080340Y016000D02*
Y016400D01*
X079140Y017200D02*
X079540D01*
X079340Y017000D02*
Y017400D01*
X080140Y017200D02*
X080540D01*
X080340Y017000D02*
Y017400D01*
X079140Y018200D02*
X079540D01*
X079340Y018000D02*
Y018400D01*
X080140Y018200D02*
X080540D01*
X080340Y018000D02*
Y018400D01*
X079140Y019200D02*
X079540D01*
X079340Y019000D02*
Y019400D01*
X080140Y019200D02*
X080540D01*
X080340Y019000D02*
Y019400D01*
X079140Y020200D02*
X079540D01*
X079340Y020000D02*
Y020400D01*
X080140Y020200D02*
X080540D01*
X080340Y020000D02*
Y020400D01*
X079140Y021200D02*
X079540D01*
X079340Y021000D02*
Y021400D01*
X080140Y021200D02*
X080540D01*
X080340Y021000D02*
Y021400D01*
X079140Y022200D02*
X079540D01*
X079340Y022000D02*
Y022400D01*
X080140Y022200D02*
X080540D01*
X080340Y022000D02*
Y022400D01*
X079140Y023200D02*
X079540D01*
X079340Y023000D02*
Y023400D01*
X080140Y023200D02*
X080540D01*
X080340Y023000D02*
Y023400D01*
X079140Y024200D02*
X079540D01*
X079340Y024000D02*
Y024400D01*
X080140Y024200D02*
X080540D01*
X080340Y024000D02*
Y024400D01*
X079140Y025200D02*
X079540D01*
X079340Y025000D02*
Y025400D01*
X080140Y025200D02*
X080540D01*
X080340Y025000D02*
Y025400D01*
X079140Y026200D02*
X079540D01*
X079340Y026000D02*
Y026400D01*
X080140Y026200D02*
X080540D01*
X080340Y026000D02*
Y026400D01*
X079140Y027200D02*
X079540D01*
X079340Y027000D02*
Y027400D01*
X080140Y027200D02*
X080540D01*
X080340Y027000D02*
Y027400D01*
X079140Y028200D02*
X079540D01*
X079340Y028000D02*
Y028400D01*
X080140Y028200D02*
X080540D01*
X080340Y028000D02*
Y028400D01*
X079140Y029200D02*
X079540D01*
X079340Y029000D02*
Y029400D01*
X080140Y029200D02*
X080540D01*
X080340Y029000D02*
Y029400D01*
X079140Y030200D02*
X079540D01*
X079340Y030000D02*
Y030400D01*
X080140Y030200D02*
X080540D01*
X080340Y030000D02*
Y030400D01*
X079140Y031200D02*
X079540D01*
X079340Y031000D02*
Y031400D01*
X080140Y031200D02*
X080540D01*
X080340Y031000D02*
Y031400D01*
X079140Y032200D02*
X079540D01*
X079340Y032000D02*
Y032400D01*
X080140Y032200D02*
X080540D01*
X080340Y032000D02*
Y032400D01*
X079140Y033200D02*
X079540D01*
X079340Y033000D02*
Y033400D01*
X080140Y033200D02*
X080540D01*
X080340Y033000D02*
Y033400D01*
X079140Y034200D02*
X079540D01*
X079340Y034000D02*
Y034400D01*
X080140Y034200D02*
X080540D01*
X080340Y034000D02*
Y034400D01*
X079140Y035200D02*
X079540D01*
X079340Y035000D02*
Y035400D01*
X080140Y035200D02*
X080540D01*
X080340Y035000D02*
Y035400D01*
X079140Y036200D02*
X079540D01*
X079340Y036000D02*
Y036400D01*
X080140Y036200D02*
X080540D01*
X080340Y036000D02*
Y036400D01*
X079140Y037200D02*
X079540D01*
X079340Y037000D02*
Y037400D01*
X080140Y037200D02*
X080540D01*
X080340Y037000D02*
Y037400D01*
X079140Y038200D02*
X079540D01*
X079340Y038000D02*
Y038400D01*
X080140Y038200D02*
X080540D01*
X080340Y038000D02*
Y038400D01*
X079140Y039200D02*
X079540D01*
X079340Y039000D02*
Y039400D01*
X080140Y039200D02*
X080540D01*
X080340Y039000D02*
Y039400D01*
X080140Y040200D02*
X080540D01*
X080340Y040000D02*
Y040400D01*
X079140Y040200D02*
X079540D01*
X079340Y040000D02*
Y040400D01*
X077240Y013200D02*
X077640D01*
X077440Y013000D02*
Y013400D01*
X079240Y013200D02*
X079640D01*
X079440Y013000D02*
Y013400D01*
X078240Y013200D02*
X078640D01*
X078440Y013000D02*
Y013400D01*
X076240Y013200D02*
X076640D01*
X076440Y013000D02*
Y013400D01*
X075240Y013200D02*
X075640D01*
X075440Y013000D02*
Y013400D01*
X074240Y013200D02*
X074640D01*
X074440Y013000D02*
Y013400D01*
X071590Y019500D02*
X071990D01*
X071790Y019300D02*
Y019700D01*
X072590Y019500D02*
X072990D01*
X072790Y019300D02*
Y019700D01*
X073590Y019500D02*
X073990D01*
X073790Y019300D02*
Y019700D01*
X074590Y019500D02*
X074990D01*
X074790Y019300D02*
Y019700D01*
X075590Y019500D02*
X075990D01*
X075790Y019300D02*
Y019700D01*
X076590Y019500D02*
X076990D01*
X076790Y019300D02*
Y019700D01*
X072240Y024950D02*
X072640D01*
X072440Y024750D02*
Y025150D01*
X072240Y023950D02*
X072640D01*
X072440Y023750D02*
Y024150D01*
X071090Y031500D02*
X071490D01*
X071290Y031300D02*
Y031700D01*
X071090Y030500D02*
X071490D01*
X071290Y030300D02*
Y030700D01*
X071090Y029500D02*
X071490D01*
X071290Y029300D02*
Y029700D01*
X071090Y028500D02*
X071490D01*
X071290Y028300D02*
Y028700D01*
X071090Y027500D02*
X071490D01*
X071290Y027300D02*
Y027700D01*
X071090Y026500D02*
X071490D01*
X071290Y026300D02*
Y026700D01*
X071090Y025500D02*
X071490D01*
X071290Y025300D02*
Y025700D01*
X071090Y024500D02*
X071490D01*
X071290Y024300D02*
Y024700D01*
X071090Y023500D02*
X071490D01*
X071290Y023300D02*
Y023700D01*
X071090Y022500D02*
X071490D01*
X071290Y022300D02*
Y022700D01*
X071090Y021500D02*
X071490D01*
X071290Y021300D02*
Y021700D01*
X071090Y020500D02*
X071490D01*
X071290Y020300D02*
Y020700D01*
X077090Y031500D02*
X077490D01*
X077290Y031300D02*
Y031700D01*
X077090Y030500D02*
X077490D01*
X077290Y030300D02*
Y030700D01*
X077090Y029500D02*
X077490D01*
X077290Y029300D02*
Y029700D01*
X077090Y028500D02*
X077490D01*
X077290Y028300D02*
Y028700D01*
X077090Y027500D02*
X077490D01*
X077290Y027300D02*
Y027700D01*
X077090Y026500D02*
X077490D01*
X077290Y026300D02*
Y026700D01*
X077090Y025500D02*
X077490D01*
X077290Y025300D02*
Y025700D01*
X077090Y024500D02*
X077490D01*
X077290Y024300D02*
Y024700D01*
X077090Y023500D02*
X077490D01*
X077290Y023300D02*
Y023700D01*
X077090Y022500D02*
X077490D01*
X077290Y022300D02*
Y022700D01*
X077090Y021500D02*
X077490D01*
X077290Y021300D02*
Y021700D01*
X077090Y020500D02*
X077490D01*
X077290Y020300D02*
Y020700D01*
X062822Y011623D02*
X063058D01*
X062940Y011505D02*
Y011741D01*
X062822Y012450D02*
X063058D01*
X062940Y012332D02*
Y012568D01*
X064822Y012623D02*
X065058D01*
X064940Y012505D02*
Y012741D01*
X064822Y013450D02*
X065058D01*
X064940Y013332D02*
Y013568D01*
X064822Y010473D02*
X065058D01*
X064940Y010355D02*
Y010591D01*
X064822Y011300D02*
X065058D01*
X064940Y011182D02*
Y011418D01*
X076590Y041000D02*
X076990D01*
X076790Y040800D02*
Y041200D01*
X075590Y041000D02*
X075990D01*
X075790Y040800D02*
Y041200D01*
X077590Y041000D02*
X077990D01*
X077790Y040800D02*
Y041200D01*
X070540Y014100D02*
X070840D01*
X070690Y013950D02*
Y014250D01*
X071540Y014100D02*
X071840D01*
X071690Y013950D02*
Y014250D01*
X072540Y014100D02*
X072840D01*
X072690Y013950D02*
Y014250D01*
X083240Y041340D02*
X083440D01*
X083340Y041240D02*
Y041440D01*
X083240Y043100D02*
X083440D01*
X083340Y043000D02*
Y043200D01*
X083940Y041750D02*
X084140D01*
X084040Y041650D02*
Y041850D01*
X083940Y042700D02*
X084140D01*
X084040Y042600D02*
Y042800D01*
X082490Y041750D02*
X082690D01*
X082590Y041650D02*
Y041850D01*
X082490Y042700D02*
X082690D01*
X082590Y042600D02*
Y042800D01*
X063590Y018600D02*
X063790D01*
X063690Y018500D02*
Y018700D01*
X061990Y018600D02*
X062190D01*
X062090Y018500D02*
Y018700D01*
X063590Y019450D02*
X063790D01*
X063690Y019350D02*
Y019550D01*
X061990Y019450D02*
X062190D01*
X062090Y019350D02*
Y019550D01*
X061990Y020300D02*
X062190D01*
X062090Y020200D02*
Y020400D01*
X063590Y020300D02*
X063790D01*
X063690Y020200D02*
Y020400D01*
X067740Y038750D02*
X067940D01*
X067840Y038650D02*
Y038850D01*
X070640Y037050D02*
X070840D01*
X070740Y036950D02*
Y037150D01*
X069990Y016550D02*
X070190D01*
X070090Y016450D02*
Y016650D01*
X064890Y012000D02*
X065090D01*
X064990Y011900D02*
Y012100D01*
X062790Y028500D02*
X062990D01*
X062890Y028400D02*
Y028600D01*
X071790Y034500D02*
X071990D01*
X071890Y034400D02*
Y034600D01*
X072340Y033200D02*
X072540D01*
X072440Y033100D02*
Y033300D01*
X078390Y031350D02*
X078590D01*
X078490Y031250D02*
Y031450D01*
X063840Y036200D02*
X064040D01*
X063940Y036100D02*
Y036300D01*
X060890Y031100D02*
X061090D01*
X060990Y031000D02*
Y031200D01*
X060890Y023500D02*
X061090D01*
X060990Y023400D02*
Y023600D01*
X065240Y018950D02*
X065440D01*
X065340Y018850D02*
Y019050D01*
X065240Y024500D02*
X065440D01*
X065340Y024400D02*
Y024600D01*
X075990Y035100D02*
X076190D01*
X076090Y035000D02*
Y035200D01*
X069390Y035450D02*
X069590D01*
X069490Y035350D02*
Y035550D01*
X061890Y036050D02*
X062090D01*
X061990Y035950D02*
Y036150D01*
X076540Y036650D02*
X076740D01*
X076640Y036550D02*
Y036750D01*
X064490Y024750D02*
X064690D01*
X064590Y024650D02*
Y024850D01*
X069990Y017150D02*
X070190D01*
X070090Y017050D02*
Y017250D01*
X059990Y023150D02*
X060190D01*
X060090Y023050D02*
Y023250D01*
X059990Y030500D02*
X060190D01*
X060090Y030400D02*
Y030600D01*
X077190Y035900D02*
X077390D01*
X077290Y035800D02*
Y036000D01*
X057790Y016500D02*
X057990D01*
X057890Y016400D02*
Y016600D01*
X064240Y016500D02*
X064440D01*
X064340Y016400D02*
Y016600D01*
X068640Y016500D02*
X068840D01*
X068740Y016400D02*
Y016600D01*
X068540Y015950D02*
X068740D01*
X068640Y015850D02*
Y016050D01*
X057790Y021300D02*
X057990D01*
X057890Y021200D02*
Y021400D01*
X057338Y043948D02*
X057538D01*
X057438Y043848D02*
Y044048D01*
X058140Y035300D02*
X058340D01*
X058240Y035200D02*
Y035400D01*
X064640Y043950D02*
X064840D01*
X064740Y043850D02*
Y044050D01*
X064834Y039694D02*
X065034D01*
X064934Y039594D02*
Y039794D01*
X056801Y024745D02*
X057001D01*
X056901Y024645D02*
Y024845D01*
X070540Y018050D02*
X070740D01*
X070640Y017950D02*
Y018150D01*
X069990Y017650D02*
X070190D01*
X070090Y017550D02*
Y017750D01*
X067690Y021700D02*
X067890D01*
X067790Y021600D02*
Y021800D01*
X067313Y021250D02*
X067513D01*
X067413Y021150D02*
Y021350D01*
X067390Y017650D02*
X067590D01*
X067490Y017550D02*
Y017750D01*
X059040Y031900D02*
X059240D01*
X059140Y031800D02*
Y032000D01*
X061090Y034700D02*
X061290D01*
X061190Y034600D02*
Y034800D01*
X058390Y036550D02*
X058590D01*
X058490Y036450D02*
Y036650D01*
X068290Y039900D02*
X068490D01*
X068390Y039800D02*
Y040000D01*
X065740Y036300D02*
X065940D01*
X065840Y036200D02*
Y036400D01*
X065090Y040950D02*
X065290D01*
X065190Y040850D02*
Y041050D01*
X055640Y025350D02*
X055840D01*
X055740Y025250D02*
Y025450D01*
X059240Y022800D02*
X059440D01*
X059340Y022700D02*
Y022900D01*
X054590Y022150D02*
X054790D01*
X054690Y022050D02*
Y022250D01*
X065113Y017500D02*
X065313D01*
X065213Y017400D02*
Y017600D01*
X065613Y018300D02*
X065813D01*
X065713Y018200D02*
Y018400D01*
X082715Y042200D02*
X083965D01*
X083340Y041575D02*
Y042825D01*
X048965Y043200D02*
X050215D01*
X049590Y042575D02*
Y043825D01*
X048965Y011700D02*
X050215D01*
X049590Y011075D02*
Y012325D01*
X082715Y013200D02*
X083965D01*
X083340Y012575D02*
Y013825D01*
X082440Y012700D02*
X082640D01*
X082540Y012600D02*
Y012800D01*
X082440Y013700D02*
X082640D01*
X082540Y013600D02*
Y013800D01*
X084040Y012700D02*
X084240D01*
X084140Y012600D02*
Y012800D01*
X084040Y013700D02*
X084240D01*
X084140Y013600D02*
Y013800D01*
X083240Y012250D02*
X083440D01*
X083340Y012150D02*
Y012350D01*
X083240Y014150D02*
X083440D01*
X083340Y014050D02*
Y014250D01*
X048690Y011200D02*
X048890D01*
X048790Y011100D02*
Y011300D01*
X048690Y012200D02*
X048890D01*
X048790Y012100D02*
Y012300D01*
X050290Y011200D02*
X050490D01*
X050390Y011100D02*
Y011300D01*
X050290Y012200D02*
X050490D01*
X050390Y012100D02*
Y012300D01*
X049490Y010750D02*
X049690D01*
X049590Y010650D02*
Y010850D01*
X049490Y012650D02*
X049690D01*
X049590Y012550D02*
Y012750D01*
X048690Y042690D02*
X048890D01*
X048790Y042590D02*
Y042790D01*
X048690Y043690D02*
X048890D01*
X048790Y043590D02*
Y043790D01*
X050290Y042690D02*
X050490D01*
X050390Y042590D02*
Y042790D01*
X050290Y043690D02*
X050490D01*
X050390Y043590D02*
Y043790D01*
X049490Y042240D02*
X049690D01*
X049590Y042140D02*
Y042340D01*
X049490Y044140D02*
X049690D01*
X049590Y044040D02*
Y044240D01*
X067681Y010523D02*
X068468D01*
X068074Y010129D02*
Y010917D01*
X067681Y025877D02*
X068468D01*
X068074Y025483D02*
Y026271D01*
X078011Y033928D02*
X078799D01*
X078405Y033535D02*
Y034322D01*
X062657Y033928D02*
X063444D01*
X063051Y033535D02*
Y034322D01*
X058279Y042220D02*
X059066D01*
X058673Y041826D02*
Y042613D01*
X058279Y026865D02*
X059066D01*
X058673Y026472D02*
Y027259D01*
X047984Y022495D02*
X048771D01*
X048377Y022102D02*
Y022889D01*
X063338Y022495D02*
X064125D01*
X063732Y022102D02*
Y022889D01*
X049856Y022495D02*
X051824D01*
X050840Y021511D02*
Y023480D01*
X057688Y039900D02*
X059657D01*
X058673Y038916D02*
Y040884D01*
X064556Y033928D02*
X066524D01*
X065540Y032944D02*
Y034913D01*
X067090Y012850D02*
X069058D01*
X068074Y011865D02*
Y013834D01*
M02*
