G04 Layer_Physical_Order=1*
G04 Layer_Color=255*
%FSAX24Y24*%
%MOIN*%
G70*
G01*
G75*
%ADD10R,0.0400X0.0500*%
%ADD11R,0.0500X0.0400*%
%ADD12O,0.0236X0.0571*%
%ADD13R,0.0500X0.0360*%
%ADD14R,0.0360X0.0360*%
%ADD15O,0.0571X0.0236*%
%ADD16R,0.0360X0.0500*%
%ADD17R,0.0360X0.0360*%
%ADD18C,0.0100*%
%ADD19C,0.0400*%
%ADD20C,0.0200*%
%ADD21C,0.0800*%
%ADD22C,0.0250*%
%ADD23C,0.0600*%
%ADD24C,0.0300*%
%ADD25C,0.0600*%
%ADD26R,0.0600X0.0600*%
%ADD27C,0.0800*%
%ADD28O,0.0800X0.0600*%
%ADD29R,0.0800X0.0800*%
%ADD30C,0.0700*%
%ADD31R,0.0700X0.0700*%
%ADD32C,0.0472*%
%ADD33C,0.0400*%
%ADD34C,0.1800*%
%ADD35C,0.2500*%
%ADD36C,0.0787*%
%ADD37C,0.1969*%
D10*
X068190Y042050D02*
D03*
X067390D02*
D03*
X068190Y041250D02*
D03*
X067390D02*
D03*
X068190Y042850D02*
D03*
X067390D02*
D03*
X061490Y037650D02*
D03*
X060690D02*
D03*
X061490Y036850D02*
D03*
X060690D02*
D03*
X061490Y038450D02*
D03*
X060690D02*
D03*
X065413Y014550D02*
D03*
X066213D02*
D03*
X065413Y015350D02*
D03*
X066213D02*
D03*
X065413Y016150D02*
D03*
X066213D02*
D03*
X068190Y040450D02*
D03*
X067390D02*
D03*
X065840Y036850D02*
D03*
X065040D02*
D03*
Y037650D02*
D03*
X065840D02*
D03*
X067340D02*
D03*
X066540D02*
D03*
Y036850D02*
D03*
X067340D02*
D03*
X061490Y036050D02*
D03*
X060690D02*
D03*
X059140Y032450D02*
D03*
X058340D02*
D03*
Y033250D02*
D03*
X059140D02*
D03*
X060640D02*
D03*
X059840D02*
D03*
Y032450D02*
D03*
X060640D02*
D03*
X057240Y022800D02*
D03*
X056440D02*
D03*
X065413Y016950D02*
D03*
X066213D02*
D03*
X068563Y019750D02*
D03*
X067763D02*
D03*
Y020550D02*
D03*
X068563D02*
D03*
X066263Y019750D02*
D03*
X067063D02*
D03*
Y020550D02*
D03*
X066263D02*
D03*
X076990Y039900D02*
D03*
X077790D02*
D03*
X076990Y039100D02*
D03*
X077790D02*
D03*
D11*
X053590Y025150D02*
D03*
Y024350D02*
D03*
X054390Y025150D02*
D03*
Y024350D02*
D03*
X052790Y025150D02*
D03*
Y024350D02*
D03*
X065840Y038400D02*
D03*
Y039200D02*
D03*
X059140Y034000D02*
D03*
Y034800D02*
D03*
X055190Y025150D02*
D03*
Y024350D02*
D03*
X058790Y022800D02*
D03*
Y022000D02*
D03*
X057990D02*
D03*
Y022800D02*
D03*
Y024300D02*
D03*
Y023500D02*
D03*
X058790D02*
D03*
Y024300D02*
D03*
X067763Y019000D02*
D03*
Y018200D02*
D03*
X073340Y011700D02*
D03*
Y010900D02*
D03*
X073190Y032800D02*
D03*
Y033600D02*
D03*
X073990Y032800D02*
D03*
Y033600D02*
D03*
X066440Y010550D02*
D03*
Y011350D02*
D03*
Y012700D02*
D03*
Y013500D02*
D03*
X064440Y014600D02*
D03*
Y015400D02*
D03*
D12*
X064540Y040300D02*
D03*
X064934D02*
D03*
X065327D02*
D03*
X065721D02*
D03*
X066115D02*
D03*
X066508D02*
D03*
X057840Y035900D02*
D03*
X058234D02*
D03*
X058627D02*
D03*
X059021D02*
D03*
X059415D02*
D03*
X059809D02*
D03*
X054240Y023473D02*
D03*
X053740D02*
D03*
X053240D02*
D03*
X052740D02*
D03*
X054240Y021327D02*
D03*
X053740D02*
D03*
X053240D02*
D03*
X052740D02*
D03*
X069063Y017100D02*
D03*
X068669D02*
D03*
X068275D02*
D03*
X067882D02*
D03*
X067488D02*
D03*
X067094D02*
D03*
D13*
X066590Y038730D02*
D03*
X064340D02*
D03*
X059890Y034330D02*
D03*
X057640D02*
D03*
X069263Y018670D02*
D03*
X067013D02*
D03*
D14*
X067390Y039100D02*
D03*
Y038350D02*
D03*
X065140Y039100D02*
D03*
Y038350D02*
D03*
X060690Y034700D02*
D03*
Y033950D02*
D03*
X058440Y034700D02*
D03*
Y033950D02*
D03*
X068463Y018300D02*
D03*
Y019050D02*
D03*
X066213Y018300D02*
D03*
Y019050D02*
D03*
D15*
X066513Y041400D02*
D03*
Y041900D02*
D03*
Y042400D02*
D03*
Y042900D02*
D03*
X064367Y041400D02*
D03*
Y041900D02*
D03*
Y042400D02*
D03*
Y042900D02*
D03*
X059813Y037000D02*
D03*
Y037500D02*
D03*
Y038000D02*
D03*
Y038500D02*
D03*
X057667Y037000D02*
D03*
Y037500D02*
D03*
Y038000D02*
D03*
Y038500D02*
D03*
X055340Y021500D02*
D03*
Y021894D02*
D03*
Y022287D02*
D03*
Y022681D02*
D03*
Y023075D02*
D03*
Y023468D02*
D03*
X067090Y016000D02*
D03*
Y015500D02*
D03*
Y015000D02*
D03*
Y014500D02*
D03*
X069236Y016000D02*
D03*
Y015500D02*
D03*
Y015000D02*
D03*
Y014500D02*
D03*
D16*
X056910Y023550D02*
D03*
Y021300D02*
D03*
D17*
X056540Y024350D02*
D03*
X057290D02*
D03*
X056540Y022100D02*
D03*
X057290D02*
D03*
D18*
X058990Y031100D02*
X060990D01*
X057240Y032850D02*
X058990Y031100D01*
X057240Y032850D02*
Y034724D01*
X067845Y039450D02*
X070645Y036650D01*
X067740Y038750D02*
X067840D01*
X067390Y039100D02*
X067740Y038750D01*
X067840Y039950D02*
X070740Y037050D01*
X070645Y036650D02*
X076640D01*
X078440Y019524D02*
Y029350D01*
X075466Y016550D02*
X078440Y019524D01*
X070090Y016550D02*
X075466D01*
X078240Y019606D02*
Y026550D01*
X075784Y017150D02*
X078240Y019606D01*
X070090Y017150D02*
X075784D01*
X078040Y019689D02*
Y025750D01*
X076001Y017650D02*
X078040Y019689D01*
X070090Y017650D02*
X076001D01*
X077840Y019772D02*
Y024950D01*
X076118Y018050D02*
X077840Y019772D01*
X070640Y018050D02*
X076118D01*
X077290Y030500D02*
X078440Y029350D01*
X077290Y027500D02*
X078240Y026550D01*
X077290Y026500D02*
X078040Y025750D01*
X077290Y025500D02*
X077840Y024950D01*
X054240Y021700D02*
X054690Y022150D01*
X069590Y012300D02*
X072590D01*
X064990Y012000D02*
X065790D01*
X066440Y011350D01*
X062890Y028500D02*
X071290D01*
X077140Y010900D02*
X079440Y013200D01*
X073340Y010900D02*
X077140D01*
X072740Y012300D02*
X073340Y011700D01*
X072590Y012300D02*
X072740D01*
X065690Y011300D02*
X066440Y010550D01*
X064940Y011300D02*
X065690D01*
X069236Y014550D02*
X071240D01*
X066440Y013500D02*
X066846D01*
X067846Y014500D01*
X069236D01*
X065690Y013450D02*
X066440Y012700D01*
X064940Y013450D02*
X065690D01*
X064340Y016500D02*
X064440Y016400D01*
Y015400D02*
Y016400D01*
X062940Y012450D02*
X064440Y013950D01*
Y014600D01*
X073190Y032800D02*
X073990D01*
X071890Y031500D02*
X073190Y032800D01*
X071890Y024100D02*
Y031500D01*
X071290Y023500D02*
X071890Y024100D01*
Y034500D02*
X072790Y033600D01*
X073190D01*
X073990Y033200D02*
X079340D01*
X072440D02*
X073990D01*
Y033600D01*
X071890Y034500D02*
X079040D01*
X079340Y034200D01*
X060990Y023500D02*
X071290D01*
X058390Y020900D02*
X060990Y023500D01*
X056516Y020900D02*
X058390D01*
X065340Y018178D02*
Y018950D01*
Y018178D02*
X065763Y017755D01*
Y015000D02*
Y017755D01*
X065340Y024500D02*
X071290D01*
X059790Y035100D02*
X076090D01*
X059415Y035475D02*
X059790Y035100D01*
X066840Y035900D02*
X077290D01*
X060062Y034800D02*
X060290Y034572D01*
X059140Y034800D02*
X060062D01*
X060290Y032900D02*
Y034572D01*
X061390Y035450D02*
X069490D01*
X061140Y035700D02*
X061390Y035450D01*
X061140Y035700D02*
Y038000D01*
X061490Y036050D02*
X061990D01*
X071240Y014550D02*
X071690Y014100D01*
X069236Y014550D02*
Y015000D01*
X064240Y025100D02*
X064590Y024750D01*
X056640Y025100D02*
X064240D01*
X058463Y023150D02*
X060090D01*
X058113Y023500D02*
X058463Y023150D01*
X060090Y030500D02*
X071290D01*
X066190Y036538D02*
X066828Y035900D01*
X060128Y031500D02*
X071290D01*
X059490Y032138D02*
X060128Y031500D01*
X068590Y016000D02*
X069236D01*
X056910Y021300D02*
Y022330D01*
X063940Y039124D02*
X064540Y039724D01*
Y040300D01*
X063940Y036200D02*
Y039124D01*
X066190Y036538D02*
Y037177D01*
X067840Y039950D02*
Y042400D01*
X071090Y025300D02*
X071290Y025500D01*
X056190Y025300D02*
X071090D01*
X055690Y024800D02*
X056190Y025300D01*
Y024650D02*
X056640Y025100D01*
X056190Y023500D02*
Y024650D01*
X056901Y024711D02*
Y024745D01*
X056540Y024350D02*
X056901Y024711D01*
X066263Y019750D02*
Y020550D01*
X067790Y020577D02*
Y021700D01*
X067413Y020223D02*
Y021250D01*
X064340Y038730D02*
X065370D01*
X069590Y010300D02*
X072590D01*
X067763Y020550D02*
X067790Y020577D01*
X067063Y019873D02*
X067413Y020223D01*
X059140Y031900D02*
Y032450D01*
X057240Y034724D02*
X057840Y035324D01*
Y035900D01*
X059415Y035475D02*
Y035900D01*
X060690Y034700D02*
X061190D01*
X059021Y035531D02*
Y035900D01*
X058440Y034950D02*
X059021Y035531D01*
X058440Y034700D02*
Y034950D01*
X059470Y034330D02*
X059890D01*
X059140Y034000D02*
X059470Y034330D01*
X057640D02*
X058670D01*
X059140Y034800D01*
X061490Y036850D02*
Y037650D01*
Y036050D02*
Y036850D01*
X060690D02*
Y037650D01*
X058340Y033850D02*
X058440Y033950D01*
X058340Y033250D02*
Y033850D01*
Y032450D02*
Y033250D01*
X059140D02*
Y034000D01*
X060640Y033900D02*
X060690Y033950D01*
X060640Y033250D02*
Y033900D01*
X059840Y033127D02*
Y033250D01*
X059490Y032777D02*
X059840Y033127D01*
X059490Y032138D02*
Y032777D01*
X061490Y037650D02*
Y038450D01*
X060640Y038500D02*
X060690Y038450D01*
X061140Y038000D01*
X059840Y032450D02*
X060290Y032900D01*
X060640Y032450D02*
Y033250D01*
X059813Y035904D02*
Y037000D01*
Y037500D02*
X060140D01*
X060290Y037350D01*
Y036450D02*
Y037350D01*
Y036450D02*
X060690Y036050D01*
X059813Y038000D02*
X060340D01*
X060690Y037650D01*
X059813Y038500D02*
X060640D01*
X057667Y037000D02*
X058040D01*
X058627Y036413D01*
X059340Y038500D02*
X059813D01*
X057667Y037500D02*
X058340D01*
X059340Y038500D01*
X057232Y037842D02*
X057390Y038000D01*
X057232Y036858D02*
Y037842D01*
Y036858D02*
X057840Y036250D01*
Y035900D02*
Y036250D01*
X057240Y038350D02*
X057390Y038500D01*
X057240Y038150D02*
Y038350D01*
X057390Y038500D02*
X057667D01*
X057240Y038150D02*
X057390Y038000D01*
X057667D01*
X068190Y040100D02*
Y040450D01*
Y040100D02*
X068390Y039900D01*
X065840Y036300D02*
Y036850D01*
X066115Y039875D02*
Y040300D01*
Y039875D02*
X066540Y039450D01*
X067845D01*
X065721Y039931D02*
Y040300D01*
X065140Y039350D02*
X065721Y039931D01*
X065140Y039100D02*
Y039350D01*
X066170Y038730D02*
X066590D01*
X065840Y038400D02*
X066170Y038730D01*
X065370D02*
X065840Y039200D01*
X068190Y041250D02*
Y042050D01*
Y040450D02*
Y041250D01*
X067390D02*
Y042050D01*
X065040Y038250D02*
X065140Y038350D01*
X065040Y037650D02*
Y038250D01*
Y036850D02*
Y037650D01*
X065840D02*
Y038400D01*
X067340Y038300D02*
X067390Y038350D01*
X067340Y037650D02*
Y038300D01*
X066540Y037527D02*
Y037650D01*
X066190Y037177D02*
X066540Y037527D01*
X068190Y042050D02*
Y042850D01*
X067340Y042900D02*
X067390Y042850D01*
X067840Y042400D01*
X065840Y039200D02*
X066762D01*
X066990Y038972D01*
X066540Y036850D02*
X066990Y037300D01*
Y038972D01*
X067340Y036850D02*
Y037650D01*
X066513Y040304D02*
Y041400D01*
Y041900D02*
X066840D01*
X066990Y041750D01*
Y040850D02*
Y041750D01*
Y040850D02*
X067390Y040450D01*
X066513Y042400D02*
X067040D01*
X067390Y042050D01*
X066513Y042900D02*
X067340D01*
X064367Y041400D02*
X064740D01*
X065327Y040813D01*
X066040Y042900D02*
X066513D01*
X064367Y041900D02*
X065040D01*
X066040Y042900D01*
X063932Y042242D02*
X064090Y042400D01*
X063932Y041258D02*
Y042242D01*
Y041258D02*
X064540Y040650D01*
Y040300D02*
Y040650D01*
X063940Y042550D02*
X064090Y042400D01*
X063940Y042750D02*
X064090Y042900D01*
X064367D01*
X063940Y042550D02*
Y042750D01*
X064090Y042400D02*
X064367D01*
X055190Y025150D02*
X055540D01*
X055740Y025350D01*
X058790Y022800D02*
X059340D01*
X055916Y021500D02*
X056516Y020900D01*
X055340Y021500D02*
X055916D01*
X055340Y023075D02*
X055765D01*
X056190Y023500D01*
X055340Y022681D02*
X055709D01*
X056290Y022100D01*
X056540D01*
X056910Y023130D02*
Y023550D01*
Y023130D02*
X057240Y022800D01*
X056440D02*
X056910Y022330D01*
X053590Y025150D02*
X054390D01*
X055190D01*
X053590Y024350D02*
X054390D01*
X057290Y022100D02*
X057390Y022000D01*
X057990D01*
X058790D01*
X057240Y022800D02*
X057990D01*
X057290Y024350D02*
X057340Y024300D01*
X057990D01*
Y023500D02*
X058113D01*
X052790Y025150D02*
X053590D01*
X052740Y024300D02*
X052790Y024350D01*
X053240Y024800D01*
X055690D01*
X056440Y022800D02*
Y023722D01*
X056668Y023950D01*
X058340D02*
X058790Y023500D01*
X056668Y023950D02*
X058340D01*
X057990Y024300D02*
X058790D01*
X054240Y023473D02*
X055336D01*
X053740D02*
Y023800D01*
X053890Y023950D01*
X054790D01*
X055190Y024350D01*
X053240Y023473D02*
Y024000D01*
X053590Y024350D01*
X052740Y023473D02*
Y024300D01*
X054240Y021327D02*
Y021700D01*
X052740Y023000D02*
Y023473D01*
X053740Y021327D02*
Y022000D01*
X052740Y023000D02*
X053740Y022000D01*
X053240Y021050D02*
X053398Y020892D01*
X054382D01*
X054990Y021500D01*
X055340D01*
X052740Y021050D02*
X052890Y020900D01*
X053090D01*
X052740Y021050D02*
Y021327D01*
X053090Y020900D02*
X053240Y021050D01*
Y021327D01*
X066613Y020100D02*
X067063Y020550D01*
X066613Y018428D02*
Y020100D01*
Y018428D02*
X066841Y018200D01*
X067763D01*
X067063Y019750D02*
Y019873D01*
X065213Y017500D02*
X065413Y017300D01*
Y016950D02*
Y017300D01*
X065763Y015000D02*
X066213Y014550D01*
X065713Y018300D02*
X066213D01*
X067488Y017100D02*
X067490Y017650D01*
X069236Y015000D02*
X069513D01*
X065413Y014550D02*
Y015350D01*
Y016150D01*
Y016950D01*
X066213D02*
X066613Y016550D01*
Y015650D02*
Y016550D01*
Y015650D02*
X066763Y015500D01*
X067090D01*
X066213Y015350D02*
Y016150D01*
Y015350D02*
X066563Y015000D01*
X067090D01*
X069513D02*
X069671Y015158D01*
Y016142D01*
X069063Y016750D02*
Y017100D01*
Y016750D02*
X069671Y016142D01*
X067090Y014500D02*
X067563D01*
X066263D02*
X067090D01*
X066213Y014550D02*
X066263Y014500D01*
X067563D02*
X068563Y015500D01*
X069236D01*
X067090Y016000D02*
Y017096D01*
X067882Y017100D02*
Y017469D01*
X068463Y018050D01*
Y018300D01*
X068233Y018670D02*
X069263D01*
X067763Y018200D02*
X068233Y018670D01*
X068463Y019050D02*
X068563Y019150D01*
Y019750D01*
Y020550D01*
X067763Y019000D02*
Y019750D01*
X067433Y018670D02*
X067763Y019000D01*
X067013Y018670D02*
X067433D01*
X066213Y019050D02*
X066263Y019100D01*
Y019750D01*
D19*
X062090Y018600D02*
X063690D01*
X062090Y019450D02*
X063690D01*
X062090Y020300D02*
X063690D01*
X077790Y039900D02*
Y041000D01*
D20*
X072897Y013600D02*
X078690Y019393D01*
X071190Y013600D02*
X072897D01*
X078690Y019393D02*
Y031150D01*
X078490Y031350D02*
X078690Y031150D01*
X070690Y014100D02*
X071190Y013600D01*
X070690Y014093D02*
Y014100D01*
D21*
X076790Y041000D02*
Y041700D01*
X074540Y043950D02*
X076790Y041700D01*
X057540Y043950D02*
X074540D01*
X049290Y035700D02*
X057540Y043950D01*
X049290Y021550D02*
Y035700D01*
X057890Y016500D02*
X064340D01*
X054340D02*
X057890D01*
X081340Y037200D02*
X082340D01*
Y030200D02*
Y031200D01*
Y029200D02*
Y030200D01*
X049290Y021550D02*
X054340Y016500D01*
X081340Y029200D02*
X082340D01*
D22*
X054690Y022150D02*
X054827Y022287D01*
X055340D01*
X068275Y016315D02*
X068590Y016000D01*
X068275Y016315D02*
Y017100D01*
X058627Y035900D02*
Y036413D01*
X065327Y040300D02*
Y040813D01*
D23*
X082340Y037200D02*
X082690D01*
X082600Y041100D02*
X083240Y040460D01*
X077890Y041100D02*
X082600D01*
X083240Y037750D02*
Y040460D01*
X082690Y037200D02*
X083240Y037750D01*
D24*
X079240Y039100D02*
X079340Y039200D01*
X077790Y039100D02*
X079240D01*
X076890Y039900D02*
X076990D01*
Y039100D02*
Y039800D01*
X075790Y041000D02*
X076890Y039900D01*
X068669Y016571D02*
X068740Y016500D01*
X068669Y016571D02*
Y017100D01*
X056910Y021300D02*
X057890D01*
X058234Y035294D02*
Y035900D01*
X057640Y034700D02*
X058234Y035294D01*
X057640Y034330D02*
Y034700D01*
X064934Y039694D02*
Y040300D01*
X064340Y039100D02*
X064934Y039694D01*
X064340Y038730D02*
Y039100D01*
X055340Y021894D02*
X055946D01*
X056540Y021300D01*
X056910D01*
X068669Y017100D02*
Y017706D01*
X069263Y018300D01*
Y018670D01*
D25*
X072590Y012300D02*
D03*
X069590D02*
D03*
X072590Y010300D02*
D03*
X069590D02*
D03*
X070690Y014100D02*
D03*
X071690D02*
D03*
X072690D02*
D03*
D26*
X081340Y015200D02*
D03*
D27*
X082340D02*
D03*
X081340Y016200D02*
D03*
X082340D02*
D03*
X081340Y017200D02*
D03*
X082340D02*
D03*
X081340Y018200D02*
D03*
X082340D02*
D03*
X081340Y019200D02*
D03*
X082340D02*
D03*
X081340Y020200D02*
D03*
X082340D02*
D03*
X081340Y021200D02*
D03*
X082340D02*
D03*
X081340Y022200D02*
D03*
X082340D02*
D03*
X081340Y023200D02*
D03*
X082340D02*
D03*
X081340Y024200D02*
D03*
X082340D02*
D03*
X081340Y025200D02*
D03*
X082340D02*
D03*
X081340Y026200D02*
D03*
X082340D02*
D03*
X081340Y027200D02*
D03*
X082340D02*
D03*
X081340Y028200D02*
D03*
X082340D02*
D03*
X081340Y029200D02*
D03*
X082340D02*
D03*
X081340Y030200D02*
D03*
X082340D02*
D03*
X081340Y031200D02*
D03*
X082340D02*
D03*
X081340Y032200D02*
D03*
X082340D02*
D03*
X081340Y033200D02*
D03*
X082340D02*
D03*
X081340Y034200D02*
D03*
X082340D02*
D03*
X081340Y035200D02*
D03*
X082340D02*
D03*
X081340Y036200D02*
D03*
X082340D02*
D03*
X081340Y037200D02*
D03*
X082340D02*
D03*
Y040200D02*
D03*
X081340D02*
D03*
X080340Y015200D02*
D03*
X079340Y016200D02*
D03*
X080340D02*
D03*
X079340Y017200D02*
D03*
X080340D02*
D03*
X079340Y018200D02*
D03*
X080340D02*
D03*
X079340Y019200D02*
D03*
X080340D02*
D03*
X079340Y020200D02*
D03*
X080340D02*
D03*
X079340Y021200D02*
D03*
X080340D02*
D03*
X079340Y022200D02*
D03*
X080340D02*
D03*
X079340Y023200D02*
D03*
X080340D02*
D03*
X079340Y024200D02*
D03*
X080340D02*
D03*
X079340Y025200D02*
D03*
X080340D02*
D03*
X079340Y026200D02*
D03*
X080340D02*
D03*
X079340Y027200D02*
D03*
X080340D02*
D03*
X079340Y028200D02*
D03*
X080340D02*
D03*
X079340Y029200D02*
D03*
X080340D02*
D03*
X079340Y030200D02*
D03*
X080340D02*
D03*
X079340Y031200D02*
D03*
X080340D02*
D03*
X079340Y032200D02*
D03*
X080340D02*
D03*
X079340Y033200D02*
D03*
X080340D02*
D03*
X079340Y034200D02*
D03*
X080340D02*
D03*
X079340Y035200D02*
D03*
X080340D02*
D03*
X079340Y036200D02*
D03*
X080340D02*
D03*
X079340Y037200D02*
D03*
X080340D02*
D03*
X079340Y038200D02*
D03*
X080340D02*
D03*
X079340Y039200D02*
D03*
X080340D02*
D03*
Y040200D02*
D03*
X079340D02*
D03*
X071790Y019500D02*
D03*
X072790D02*
D03*
X073790D02*
D03*
X074790D02*
D03*
X075790D02*
D03*
X076790D02*
D03*
X072440Y024950D02*
D03*
Y023950D02*
D03*
X071290Y031500D02*
D03*
Y030500D02*
D03*
Y029500D02*
D03*
Y028500D02*
D03*
Y027500D02*
D03*
Y026500D02*
D03*
Y025500D02*
D03*
Y024500D02*
D03*
Y023500D02*
D03*
Y022500D02*
D03*
Y021500D02*
D03*
Y020500D02*
D03*
X077290Y031500D02*
D03*
Y030500D02*
D03*
Y029500D02*
D03*
Y028500D02*
D03*
Y027500D02*
D03*
Y026500D02*
D03*
Y025500D02*
D03*
Y024500D02*
D03*
Y023500D02*
D03*
Y022500D02*
D03*
Y021500D02*
D03*
Y020500D02*
D03*
D28*
X081340Y038200D02*
D03*
X082340D02*
D03*
X081340Y039200D02*
D03*
X082340D02*
D03*
D29*
X079340Y015200D02*
D03*
D30*
X077440Y013200D02*
D03*
X078440Y013200D02*
D03*
X076440Y013200D02*
D03*
X075440Y013200D02*
D03*
X074440Y013200D02*
D03*
X076790Y041000D02*
D03*
X077790Y041000D02*
D03*
D31*
X079440Y013200D02*
D03*
X075790Y041000D02*
D03*
D32*
X062940Y011623D02*
D03*
Y012450D02*
D03*
X064940Y012623D02*
D03*
Y013450D02*
D03*
Y010473D02*
D03*
Y011300D02*
D03*
D33*
X083340Y041340D02*
D03*
Y043100D02*
D03*
X084040Y041750D02*
D03*
Y042700D02*
D03*
X082590Y041750D02*
D03*
Y042700D02*
D03*
X063690Y018600D02*
D03*
X062090D02*
D03*
X063690Y019450D02*
D03*
X062090D02*
D03*
Y020300D02*
D03*
X063690D02*
D03*
X067840Y038750D02*
D03*
X070740Y037050D02*
D03*
X070090Y016550D02*
D03*
X064990Y012000D02*
D03*
X062890Y028500D02*
D03*
X071890Y034500D02*
D03*
X072440Y033200D02*
D03*
X078490Y031350D02*
D03*
X063940Y036200D02*
D03*
X060990Y031100D02*
D03*
Y023500D02*
D03*
X065340Y018950D02*
D03*
Y024500D02*
D03*
X076090Y035100D02*
D03*
X069490Y035450D02*
D03*
X061990Y036050D02*
D03*
X076640Y036650D02*
D03*
X064590Y024750D02*
D03*
X070090Y017150D02*
D03*
X060090Y023150D02*
D03*
Y030500D02*
D03*
X077290Y035900D02*
D03*
X057890Y016500D02*
D03*
X064340D02*
D03*
X068740D02*
D03*
X068640Y015950D02*
D03*
X057890Y021300D02*
D03*
X057438Y043948D02*
D03*
X058240Y035300D02*
D03*
X064740Y043950D02*
D03*
X064934Y039694D02*
D03*
X056901Y024745D02*
D03*
X070640Y018050D02*
D03*
X070090Y017650D02*
D03*
X067790Y021700D02*
D03*
X067413Y021250D02*
D03*
X067490Y017650D02*
D03*
X059140Y031900D02*
D03*
X061190Y034700D02*
D03*
X058490Y036550D02*
D03*
X068390Y039900D02*
D03*
X065840Y036300D02*
D03*
X065190Y040950D02*
D03*
X055740Y025350D02*
D03*
X059340Y022800D02*
D03*
X054690Y022150D02*
D03*
X065213Y017500D02*
D03*
X065713Y018300D02*
D03*
X082540Y012700D02*
D03*
Y013700D02*
D03*
X084140Y012700D02*
D03*
Y013700D02*
D03*
X083340Y012250D02*
D03*
Y014150D02*
D03*
X048790Y011200D02*
D03*
Y012200D02*
D03*
X050390Y011200D02*
D03*
Y012200D02*
D03*
X049590Y010750D02*
D03*
Y012650D02*
D03*
X048790Y042690D02*
D03*
Y043690D02*
D03*
X050390Y042690D02*
D03*
Y043690D02*
D03*
X049590Y042240D02*
D03*
Y044140D02*
D03*
D34*
X083340Y042200D02*
D03*
D35*
X049590Y043200D02*
D03*
Y011700D02*
D03*
X083340Y013200D02*
D03*
D36*
X068074Y010523D02*
D03*
Y025877D02*
D03*
X078405Y033928D02*
D03*
X063051D02*
D03*
X058673Y042220D02*
D03*
Y026865D02*
D03*
X048377Y022495D02*
D03*
X063732D02*
D03*
D37*
X050840Y022495D02*
D03*
X058673Y039900D02*
D03*
X065540Y033928D02*
D03*
X068074Y012850D02*
D03*
M02*
