G04 Layer_Color=255*
%FSAX24Y24*%
%MOIN*%
G70*
G01*
G75*
%ADD25C,0.0600*%
%ADD26R,0.0600X0.0600*%
%ADD27C,0.0800*%
%ADD28O,0.0800X0.0600*%
%ADD29R,0.0800X0.0800*%
%ADD30C,0.0700*%
%ADD31R,0.0700X0.0700*%
%ADD32C,0.0472*%
D25*
X072590Y012300D02*
D03*
X069590D02*
D03*
X072590Y010300D02*
D03*
X069590D02*
D03*
X070690Y014100D02*
D03*
X071690D02*
D03*
X072690D02*
D03*
D26*
X081340Y015200D02*
D03*
D27*
X082340D02*
D03*
X081340Y016200D02*
D03*
X082340D02*
D03*
X081340Y017200D02*
D03*
X082340D02*
D03*
X081340Y018200D02*
D03*
X082340D02*
D03*
X081340Y019200D02*
D03*
X082340D02*
D03*
X081340Y020200D02*
D03*
X082340D02*
D03*
X081340Y021200D02*
D03*
X082340D02*
D03*
X081340Y022200D02*
D03*
X082340D02*
D03*
X081340Y023200D02*
D03*
X082340D02*
D03*
X081340Y024200D02*
D03*
X082340D02*
D03*
X081340Y025200D02*
D03*
X082340D02*
D03*
X081340Y026200D02*
D03*
X082340D02*
D03*
X081340Y027200D02*
D03*
X082340D02*
D03*
X081340Y028200D02*
D03*
X082340D02*
D03*
X081340Y029200D02*
D03*
X082340D02*
D03*
X081340Y030200D02*
D03*
X082340D02*
D03*
X081340Y031200D02*
D03*
X082340D02*
D03*
X081340Y032200D02*
D03*
X082340D02*
D03*
X081340Y033200D02*
D03*
X082340D02*
D03*
X081340Y034200D02*
D03*
X082340D02*
D03*
X081340Y035200D02*
D03*
X082340D02*
D03*
X081340Y036200D02*
D03*
X082340D02*
D03*
X081340Y037200D02*
D03*
X082340D02*
D03*
Y040200D02*
D03*
X081340D02*
D03*
X080340Y015200D02*
D03*
X079340Y016200D02*
D03*
X080340D02*
D03*
X079340Y017200D02*
D03*
X080340D02*
D03*
X079340Y018200D02*
D03*
X080340D02*
D03*
X079340Y019200D02*
D03*
X080340D02*
D03*
X079340Y020200D02*
D03*
X080340D02*
D03*
X079340Y021200D02*
D03*
X080340D02*
D03*
X079340Y022200D02*
D03*
X080340D02*
D03*
X079340Y023200D02*
D03*
X080340D02*
D03*
X079340Y024200D02*
D03*
X080340D02*
D03*
X079340Y025200D02*
D03*
X080340D02*
D03*
X079340Y026200D02*
D03*
X080340D02*
D03*
X079340Y027200D02*
D03*
X080340D02*
D03*
X079340Y028200D02*
D03*
X080340D02*
D03*
X079340Y029200D02*
D03*
X080340D02*
D03*
X079340Y030200D02*
D03*
X080340D02*
D03*
X079340Y031200D02*
D03*
X080340D02*
D03*
X079340Y032200D02*
D03*
X080340D02*
D03*
X079340Y033200D02*
D03*
X080340D02*
D03*
X079340Y034200D02*
D03*
X080340D02*
D03*
X079340Y035200D02*
D03*
X080340D02*
D03*
X079340Y036200D02*
D03*
X080340D02*
D03*
X079340Y037200D02*
D03*
X080340D02*
D03*
X079340Y038200D02*
D03*
X080340D02*
D03*
X079340Y039200D02*
D03*
X080340D02*
D03*
Y040200D02*
D03*
X079340D02*
D03*
X071790Y019500D02*
D03*
X072790D02*
D03*
X073790D02*
D03*
X074790D02*
D03*
X075790D02*
D03*
X076790D02*
D03*
X072440Y024950D02*
D03*
Y023950D02*
D03*
X071290Y031500D02*
D03*
Y030500D02*
D03*
Y029500D02*
D03*
Y028500D02*
D03*
Y027500D02*
D03*
Y026500D02*
D03*
Y025500D02*
D03*
Y024500D02*
D03*
Y023500D02*
D03*
Y022500D02*
D03*
Y021500D02*
D03*
Y020500D02*
D03*
X077290Y031500D02*
D03*
Y030500D02*
D03*
Y029500D02*
D03*
Y028500D02*
D03*
Y027500D02*
D03*
Y026500D02*
D03*
Y025500D02*
D03*
Y024500D02*
D03*
Y023500D02*
D03*
Y022500D02*
D03*
Y021500D02*
D03*
Y020500D02*
D03*
D28*
X081340Y038200D02*
D03*
X082340D02*
D03*
X081340Y039200D02*
D03*
X082340D02*
D03*
D29*
X079340Y015200D02*
D03*
D30*
X077440Y013200D02*
D03*
X078440Y013200D02*
D03*
X076440Y013200D02*
D03*
X075440Y013200D02*
D03*
X074440Y013200D02*
D03*
X076790Y041000D02*
D03*
X077790Y041000D02*
D03*
D31*
X079440Y013200D02*
D03*
X075790Y041000D02*
D03*
D32*
X062940Y011623D02*
D03*
Y012450D02*
D03*
X064940Y012623D02*
D03*
Y013450D02*
D03*
Y010473D02*
D03*
Y011300D02*
D03*
M02*
