G04 Layer_Color=8421504*
%FSAX24Y24*%
%MOIN*%
G70*
G01*
G75*
%ADD10R,0.0400X0.0500*%
%ADD11R,0.0500X0.0400*%
%ADD12O,0.0236X0.0571*%
%ADD13R,0.0500X0.0360*%
%ADD14R,0.0360X0.0360*%
%ADD15O,0.0571X0.0236*%
%ADD16R,0.0360X0.0500*%
%ADD17R,0.0360X0.0360*%
D10*
X068190Y042050D02*
D03*
X067390D02*
D03*
X068190Y041250D02*
D03*
X067390D02*
D03*
X068190Y042850D02*
D03*
X067390D02*
D03*
X061490Y037650D02*
D03*
X060690D02*
D03*
X061490Y036850D02*
D03*
X060690D02*
D03*
X061490Y038450D02*
D03*
X060690D02*
D03*
X065413Y014550D02*
D03*
X066213D02*
D03*
X065413Y015350D02*
D03*
X066213D02*
D03*
X065413Y016150D02*
D03*
X066213D02*
D03*
X068190Y040450D02*
D03*
X067390D02*
D03*
X065840Y036850D02*
D03*
X065040D02*
D03*
Y037650D02*
D03*
X065840D02*
D03*
X067340D02*
D03*
X066540D02*
D03*
Y036850D02*
D03*
X067340D02*
D03*
X061490Y036050D02*
D03*
X060690D02*
D03*
X059140Y032450D02*
D03*
X058340D02*
D03*
Y033250D02*
D03*
X059140D02*
D03*
X060640D02*
D03*
X059840D02*
D03*
Y032450D02*
D03*
X060640D02*
D03*
X057240Y022800D02*
D03*
X056440D02*
D03*
X065413Y016950D02*
D03*
X066213D02*
D03*
X068563Y019750D02*
D03*
X067763D02*
D03*
Y020550D02*
D03*
X068563D02*
D03*
X066263Y019750D02*
D03*
X067063D02*
D03*
Y020550D02*
D03*
X066263D02*
D03*
X076990Y039900D02*
D03*
X077790D02*
D03*
X076990Y039100D02*
D03*
X077790D02*
D03*
D11*
X053590Y025150D02*
D03*
Y024350D02*
D03*
X054390Y025150D02*
D03*
Y024350D02*
D03*
X052790Y025150D02*
D03*
Y024350D02*
D03*
X065840Y038400D02*
D03*
Y039200D02*
D03*
X059140Y034000D02*
D03*
Y034800D02*
D03*
X055190Y025150D02*
D03*
Y024350D02*
D03*
X058790Y022800D02*
D03*
Y022000D02*
D03*
X057990D02*
D03*
Y022800D02*
D03*
Y024300D02*
D03*
Y023500D02*
D03*
X058790D02*
D03*
Y024300D02*
D03*
X067763Y019000D02*
D03*
Y018200D02*
D03*
X073340Y011700D02*
D03*
Y010900D02*
D03*
X073190Y032800D02*
D03*
Y033600D02*
D03*
X073990Y032800D02*
D03*
Y033600D02*
D03*
X066440Y010550D02*
D03*
Y011350D02*
D03*
Y012700D02*
D03*
Y013500D02*
D03*
X064440Y014600D02*
D03*
Y015400D02*
D03*
D12*
X064540Y040300D02*
D03*
X064934D02*
D03*
X065327D02*
D03*
X065721D02*
D03*
X066115D02*
D03*
X066508D02*
D03*
X057840Y035900D02*
D03*
X058234D02*
D03*
X058627D02*
D03*
X059021D02*
D03*
X059415D02*
D03*
X059809D02*
D03*
X054240Y023473D02*
D03*
X053740D02*
D03*
X053240D02*
D03*
X052740D02*
D03*
X054240Y021327D02*
D03*
X053740D02*
D03*
X053240D02*
D03*
X052740D02*
D03*
X069063Y017100D02*
D03*
X068669D02*
D03*
X068275D02*
D03*
X067882D02*
D03*
X067488D02*
D03*
X067094D02*
D03*
D13*
X066590Y038730D02*
D03*
X064340D02*
D03*
X059890Y034330D02*
D03*
X057640D02*
D03*
X069263Y018670D02*
D03*
X067013D02*
D03*
D14*
X067390Y039100D02*
D03*
Y038350D02*
D03*
X065140Y039100D02*
D03*
Y038350D02*
D03*
X060690Y034700D02*
D03*
Y033950D02*
D03*
X058440Y034700D02*
D03*
Y033950D02*
D03*
X068463Y018300D02*
D03*
Y019050D02*
D03*
X066213Y018300D02*
D03*
Y019050D02*
D03*
D15*
X066513Y041400D02*
D03*
Y041900D02*
D03*
Y042400D02*
D03*
Y042900D02*
D03*
X064367Y041400D02*
D03*
Y041900D02*
D03*
Y042400D02*
D03*
Y042900D02*
D03*
X059813Y037000D02*
D03*
Y037500D02*
D03*
Y038000D02*
D03*
Y038500D02*
D03*
X057667Y037000D02*
D03*
Y037500D02*
D03*
Y038000D02*
D03*
Y038500D02*
D03*
X055340Y021500D02*
D03*
Y021894D02*
D03*
Y022287D02*
D03*
Y022681D02*
D03*
Y023075D02*
D03*
Y023468D02*
D03*
X067090Y016000D02*
D03*
Y015500D02*
D03*
Y015000D02*
D03*
Y014500D02*
D03*
X069236Y016000D02*
D03*
Y015500D02*
D03*
Y015000D02*
D03*
Y014500D02*
D03*
D16*
X056910Y023550D02*
D03*
Y021300D02*
D03*
D17*
X056540Y024350D02*
D03*
X057290D02*
D03*
X056540Y022100D02*
D03*
X057290D02*
D03*
M02*
