G04 Layer_Color=16711935*
%FSAX24Y24*%
%MOIN*%
G70*
G01*
G75*
%ADD18C,0.0100*%
%ADD67C,0.0039*%
D18*
X084590Y042200D02*
G03*
X083340Y043450I-001250J000000D01*
G01*
Y011950D02*
G03*
X084590Y013200I000000J001250D01*
G01*
X048340Y011700D02*
G03*
X049590Y010450I001250J000000D01*
G01*
Y044450D02*
G03*
X048340Y043200I000000J-001250D01*
G01*
X082590Y043450D02*
X083340D01*
X084590Y013200D02*
Y042200D01*
X082090Y043450D02*
X082590D01*
X079840Y009700D02*
X082090Y011950D01*
X082590D01*
X083340D01*
X081090Y044450D02*
X082090Y043450D01*
X049590Y044450D02*
X081090D01*
X064370Y009700D02*
X079840D01*
X063620Y010450D02*
X064370Y009700D01*
X049590Y010450D02*
X063620D01*
X048340Y011700D02*
Y018040D01*
X047590Y018790D02*
X048340Y018040D01*
X047590Y018790D02*
Y026200D01*
X048340Y026950D01*
Y043200D01*
D67*
X066070Y041520D02*
G03*
X066070Y041520I-000197J000000D01*
G01*
X059370Y037120D02*
G03*
X059370Y037120I-000197J000000D01*
G01*
X054317Y022833D02*
G03*
X054317Y022833I-000197J000000D01*
G01*
X067927Y015880D02*
G03*
X067927Y015880I-000197J000000D01*
G01*
X066227Y041166D02*
Y043134D01*
X064653Y041166D02*
Y043134D01*
Y041166D02*
X066227D01*
X064653Y043134D02*
X066227D01*
X059527Y036766D02*
Y038734D01*
X057953Y036766D02*
Y038734D01*
Y036766D02*
X059527D01*
X057953Y038734D02*
X059527D01*
X052506Y023187D02*
X054474D01*
X052506Y021613D02*
X054474D01*
Y023187D01*
X052506Y021613D02*
Y023187D01*
X067375Y014266D02*
Y016234D01*
X068950Y014266D02*
Y016234D01*
X067375D02*
X068950D01*
X067375Y014266D02*
X068950D01*
M02*
