G04 Layer_Physical_Order=2*
G04 Layer_Color=16711680*
%FSAX24Y24*%
%MOIN*%
G70*
G01*
G75*
%ADD18C,0.0100*%
%ADD20C,0.0200*%
%ADD24C,0.0300*%
%ADD25C,0.0600*%
%ADD26R,0.0600X0.0600*%
%ADD27C,0.0800*%
%ADD28O,0.0800X0.0600*%
%ADD29R,0.0800X0.0800*%
%ADD30C,0.0700*%
%ADD31R,0.0700X0.0700*%
%ADD32C,0.0472*%
%ADD33C,0.0400*%
%ADD34C,0.1800*%
%ADD35C,0.2500*%
%ADD36C,0.0787*%
%ADD37C,0.1969*%
G36*
X082090Y043450D02*
X083422D01*
X083584Y043429D01*
X083743Y043386D01*
X083894Y043323D01*
X084036Y043242D01*
X084166Y043142D01*
X084282Y043026D01*
X084382Y042896D01*
X084464Y042754D01*
X084526Y042603D01*
X084569Y042444D01*
X084590Y042282D01*
Y042200D01*
Y013200D01*
Y013118D01*
X084569Y012956D01*
X084526Y012797D01*
X084464Y012646D01*
X084382Y012504D01*
X084282Y012374D01*
X084166Y012258D01*
X084036Y012158D01*
X083894Y012076D01*
X083743Y012014D01*
X083584Y011971D01*
X083422Y011950D01*
X082090D01*
X079840Y009700D01*
X064370D01*
X063620Y010450D01*
X049508D01*
X049346Y010471D01*
X049187Y010514D01*
X049036Y010576D01*
X048894Y010658D01*
X048764Y010758D01*
X048648Y010874D01*
X048548Y011004D01*
X048467Y011146D01*
X048404Y011297D01*
X048361Y011456D01*
X048340Y011618D01*
Y011700D01*
Y018040D01*
X047590Y018790D01*
Y026200D01*
X048340Y026950D01*
Y043200D01*
Y043282D01*
X048361Y043444D01*
X048404Y043603D01*
X048467Y043754D01*
X048548Y043896D01*
X048648Y044026D01*
X048764Y044142D01*
X048894Y044242D01*
X049036Y044324D01*
X049187Y044386D01*
X049346Y044429D01*
X049508Y044450D01*
X081090D01*
X082090Y043450D01*
D02*
G37*
%LPC*%
G36*
X058673Y042718D02*
X058544Y042701D01*
X058424Y042651D01*
X058321Y042572D01*
X058241Y042469D01*
X058192Y042349D01*
X058175Y042220D01*
X058192Y042091D01*
X058241Y041971D01*
X058321Y041868D01*
X058424Y041788D01*
X058544Y041739D01*
X058673Y041722D01*
X058802Y041739D01*
X058922Y041788D01*
X059025Y041868D01*
X059104Y041971D01*
X059154Y042091D01*
X059171Y042220D01*
X059154Y042349D01*
X059104Y042469D01*
X059025Y042572D01*
X058922Y042651D01*
X058802Y042701D01*
X058673Y042718D01*
D02*
G37*
G36*
X076240Y041450D02*
X075840D01*
Y041050D01*
X076240D01*
Y041450D01*
D02*
G37*
G36*
X075740D02*
X075340D01*
Y041050D01*
X075740D01*
Y041450D01*
D02*
G37*
G36*
X076240Y040950D02*
X075840D01*
Y040550D01*
X076240D01*
Y040950D01*
D02*
G37*
G36*
X075740D02*
X075340D01*
Y040550D01*
X075740D01*
Y040950D01*
D02*
G37*
G36*
X077790Y041454D02*
X077673Y041438D01*
X077563Y041393D01*
X077469Y041321D01*
X077397Y041227D01*
X077352Y041117D01*
X077336Y041000D01*
X077352Y040883D01*
X077397Y040773D01*
X077469Y040679D01*
X077563Y040607D01*
X077673Y040562D01*
X077790Y040546D01*
X077907Y040562D01*
X078017Y040607D01*
X078111Y040679D01*
X078183Y040773D01*
X078228Y040883D01*
X078244Y041000D01*
X078228Y041117D01*
X078183Y041227D01*
X078111Y041321D01*
X078017Y041393D01*
X077907Y041438D01*
X077790Y041454D01*
D02*
G37*
G36*
X076790Y041454D02*
X076673Y041438D01*
X076563Y041393D01*
X076469Y041321D01*
X076397Y041227D01*
X076352Y041117D01*
X076336Y041000D01*
X076352Y040883D01*
X076397Y040773D01*
X076469Y040679D01*
X076563Y040607D01*
X076673Y040562D01*
X076790Y040546D01*
X076907Y040562D01*
X077017Y040607D01*
X077111Y040679D01*
X077183Y040773D01*
X077228Y040883D01*
X077244Y041000D01*
X077228Y041117D01*
X077183Y041227D01*
X077111Y041321D01*
X077017Y041393D01*
X076907Y041438D01*
X076790Y041454D01*
D02*
G37*
G36*
X082340Y040704D02*
X082209Y040687D01*
X082088Y040637D01*
X081983Y040557D01*
X081903Y040452D01*
X081867Y040365D01*
X081813D01*
X081777Y040452D01*
X081697Y040557D01*
X081592Y040637D01*
X081471Y040687D01*
X081340Y040704D01*
X081209Y040687D01*
X081088Y040637D01*
X080983Y040557D01*
X080903Y040452D01*
X080867Y040365D01*
X080813D01*
X080777Y040452D01*
X080697Y040557D01*
X080592Y040637D01*
X080471Y040687D01*
X080340Y040704D01*
X080209Y040687D01*
X080088Y040637D01*
X079983Y040557D01*
X079903Y040452D01*
X079867Y040365D01*
X079813D01*
X079777Y040452D01*
X079697Y040557D01*
X079592Y040637D01*
X079471Y040687D01*
X079340Y040704D01*
X079209Y040687D01*
X079088Y040637D01*
X078983Y040557D01*
X078903Y040452D01*
X078853Y040331D01*
X078836Y040200D01*
X078853Y040069D01*
X078903Y039948D01*
X078983Y039843D01*
X079088Y039763D01*
X079175Y039727D01*
Y039673D01*
X079088Y039637D01*
X078983Y039557D01*
X078903Y039452D01*
X078853Y039331D01*
X078836Y039200D01*
X078853Y039069D01*
X078873Y039021D01*
X077667Y037815D01*
X077623Y037749D01*
X077607Y037671D01*
Y036048D01*
X077557Y036039D01*
X077552Y036051D01*
X077504Y036114D01*
X077441Y036162D01*
X077368Y036192D01*
X077290Y036203D01*
X077212Y036192D01*
X077139Y036162D01*
X077076Y036114D01*
X077028Y036051D01*
X076998Y035978D01*
X076987Y035900D01*
X076998Y035822D01*
X077028Y035749D01*
X077076Y035686D01*
X077137Y035639D01*
Y031978D01*
X077038Y031937D01*
X076933Y031857D01*
X076853Y031752D01*
X076843Y031727D01*
X076793Y031737D01*
Y036389D01*
X076854Y036436D01*
X076902Y036499D01*
X076932Y036572D01*
X076943Y036650D01*
X076932Y036728D01*
X076902Y036801D01*
X076854Y036864D01*
X076791Y036912D01*
X076718Y036942D01*
X076640Y036953D01*
X076562Y036942D01*
X076489Y036912D01*
X076426Y036864D01*
X076378Y036801D01*
X076348Y036728D01*
X076337Y036650D01*
X076348Y036572D01*
X076378Y036499D01*
X076426Y036436D01*
X076487Y036389D01*
Y030150D01*
X076499Y030091D01*
X076532Y030042D01*
X076844Y029730D01*
X076803Y029631D01*
X076786Y029500D01*
X076803Y029369D01*
X076853Y029248D01*
X076933Y029143D01*
X077038Y029063D01*
X077125Y029027D01*
Y028973D01*
X077060Y028946D01*
X076243Y029763D01*
Y034839D01*
X076304Y034886D01*
X076352Y034949D01*
X076382Y035022D01*
X076393Y035100D01*
X076382Y035178D01*
X076352Y035251D01*
X076304Y035314D01*
X076241Y035362D01*
X076168Y035392D01*
X076090Y035403D01*
X076012Y035392D01*
X075939Y035362D01*
X075876Y035314D01*
X075828Y035251D01*
X075798Y035178D01*
X075787Y035100D01*
X075798Y035022D01*
X075828Y034949D01*
X075876Y034886D01*
X075937Y034839D01*
Y029700D01*
X075949Y029641D01*
X075982Y029592D01*
X076844Y028730D01*
X076803Y028631D01*
X076786Y028500D01*
X076803Y028369D01*
X076853Y028248D01*
X076933Y028143D01*
X077038Y028063D01*
X077125Y028027D01*
Y027973D01*
X077038Y027937D01*
X076933Y027857D01*
X076853Y027752D01*
X076803Y027631D01*
X076786Y027500D01*
X076803Y027369D01*
X076853Y027248D01*
X076933Y027143D01*
X077038Y027063D01*
X077125Y027027D01*
Y026973D01*
X077038Y026937D01*
X076933Y026857D01*
X076853Y026752D01*
X076803Y026631D01*
X076786Y026500D01*
X076803Y026369D01*
X076853Y026248D01*
X076933Y026143D01*
X077038Y026063D01*
X077125Y026027D01*
Y025973D01*
X077038Y025937D01*
X076933Y025857D01*
X076853Y025752D01*
X076803Y025631D01*
X076786Y025500D01*
X076803Y025369D01*
X076853Y025248D01*
X076933Y025143D01*
X077038Y025063D01*
X077125Y025027D01*
Y024973D01*
X077038Y024937D01*
X076933Y024857D01*
X076853Y024752D01*
X076803Y024631D01*
X076786Y024500D01*
X076803Y024369D01*
X076853Y024248D01*
X076933Y024143D01*
X077038Y024063D01*
X077125Y024027D01*
Y023973D01*
X077038Y023937D01*
X076933Y023857D01*
X076853Y023752D01*
X076803Y023631D01*
X076792Y023550D01*
X077290D01*
X077788D01*
X077777Y023631D01*
X077727Y023752D01*
X077647Y023857D01*
X077542Y023937D01*
X077455Y023973D01*
Y024027D01*
X077542Y024063D01*
X077647Y024143D01*
X077727Y024248D01*
X077777Y024369D01*
X077794Y024500D01*
X077777Y024631D01*
X077727Y024752D01*
X077647Y024857D01*
X077542Y024937D01*
X077455Y024973D01*
Y025027D01*
X077542Y025063D01*
X077647Y025143D01*
X077727Y025248D01*
X077777Y025369D01*
X077794Y025500D01*
X077777Y025631D01*
X077727Y025752D01*
X077647Y025857D01*
X077542Y025937D01*
X077455Y025973D01*
Y026027D01*
X077542Y026063D01*
X077647Y026143D01*
X077727Y026248D01*
X077777Y026369D01*
X077794Y026500D01*
X077777Y026631D01*
X077727Y026752D01*
X077647Y026857D01*
X077542Y026937D01*
X077455Y026973D01*
Y027027D01*
X077542Y027063D01*
X077647Y027143D01*
X077727Y027248D01*
X077777Y027369D01*
X077794Y027500D01*
X077777Y027631D01*
X077727Y027752D01*
X077647Y027857D01*
X077542Y027937D01*
X077455Y027973D01*
Y028027D01*
X077542Y028063D01*
X077647Y028143D01*
X077727Y028248D01*
X077777Y028369D01*
X077794Y028500D01*
X077777Y028631D01*
X077727Y028752D01*
X077647Y028857D01*
X077542Y028937D01*
X077455Y028973D01*
Y029027D01*
X077542Y029063D01*
X077647Y029143D01*
X077727Y029248D01*
X077777Y029369D01*
X077794Y029500D01*
X077777Y029631D01*
X077727Y029752D01*
X077647Y029857D01*
X077542Y029937D01*
X077455Y029973D01*
Y030027D01*
X077542Y030063D01*
X077647Y030143D01*
X077727Y030248D01*
X077777Y030369D01*
X077794Y030500D01*
X077777Y030631D01*
X077727Y030752D01*
X077647Y030857D01*
X077542Y030937D01*
X077455Y030973D01*
Y031027D01*
X077542Y031063D01*
X077647Y031143D01*
X077727Y031248D01*
X077777Y031369D01*
X077794Y031500D01*
X077777Y031631D01*
X077727Y031752D01*
X077647Y031857D01*
X077542Y031937D01*
X077443Y031978D01*
Y035639D01*
X077504Y035686D01*
X077552Y035749D01*
X077557Y035761D01*
X077607Y035752D01*
Y033629D01*
X077623Y033551D01*
X077667Y033485D01*
X078286Y032866D01*
Y031572D01*
X078276Y031564D01*
X078228Y031501D01*
X078198Y031428D01*
X078187Y031350D01*
X078198Y031272D01*
X078228Y031199D01*
X078276Y031136D01*
X078339Y031088D01*
X078412Y031058D01*
X078490Y031047D01*
X078568Y031058D01*
X078641Y031088D01*
X078704Y031136D01*
X078752Y031199D01*
X078782Y031272D01*
X078793Y031350D01*
X078782Y031428D01*
X078752Y031501D01*
X078704Y031564D01*
X078694Y031572D01*
Y032950D01*
X078678Y033028D01*
X078634Y033094D01*
X078337Y033392D01*
X078359Y033436D01*
X078405Y033430D01*
X078534Y033447D01*
X078654Y033497D01*
X078757Y033576D01*
X078836Y033679D01*
X078886Y033799D01*
X078896Y033875D01*
X078948Y033889D01*
X078983Y033843D01*
X079088Y033763D01*
X079175Y033727D01*
Y033673D01*
X079088Y033637D01*
X078983Y033557D01*
X078903Y033452D01*
X078853Y033331D01*
X078836Y033200D01*
X078853Y033069D01*
X078903Y032948D01*
X078983Y032843D01*
X079088Y032763D01*
X079175Y032727D01*
Y032673D01*
X079088Y032637D01*
X078983Y032557D01*
X078903Y032452D01*
X078853Y032331D01*
X078836Y032200D01*
X078853Y032069D01*
X078903Y031948D01*
X078983Y031843D01*
X079088Y031763D01*
X079175Y031727D01*
Y031673D01*
X079088Y031637D01*
X078983Y031557D01*
X078903Y031452D01*
X078853Y031331D01*
X078836Y031200D01*
X078853Y031069D01*
X078903Y030948D01*
X078983Y030843D01*
X079088Y030763D01*
X079175Y030727D01*
Y030673D01*
X079088Y030637D01*
X078983Y030557D01*
X078903Y030452D01*
X078853Y030331D01*
X078836Y030200D01*
X078853Y030069D01*
X078903Y029948D01*
X078983Y029843D01*
X079088Y029763D01*
X079175Y029727D01*
Y029673D01*
X079088Y029637D01*
X078983Y029557D01*
X078903Y029452D01*
X078853Y029331D01*
X078836Y029200D01*
X078853Y029069D01*
X078903Y028948D01*
X078983Y028843D01*
X079088Y028763D01*
X079175Y028727D01*
Y028673D01*
X079088Y028637D01*
X078983Y028557D01*
X078903Y028452D01*
X078853Y028331D01*
X078836Y028200D01*
X078853Y028069D01*
X078903Y027948D01*
X078983Y027843D01*
X079088Y027763D01*
X079175Y027727D01*
Y027673D01*
X079088Y027637D01*
X078983Y027557D01*
X078903Y027452D01*
X078853Y027331D01*
X078836Y027200D01*
X078853Y027069D01*
X078903Y026948D01*
X078983Y026843D01*
X079088Y026763D01*
X079175Y026727D01*
Y026673D01*
X079088Y026637D01*
X078983Y026557D01*
X078903Y026452D01*
X078853Y026331D01*
X078836Y026200D01*
X078853Y026069D01*
X078903Y025948D01*
X078983Y025843D01*
X079088Y025763D01*
X079175Y025727D01*
Y025673D01*
X079088Y025637D01*
X078983Y025557D01*
X078903Y025452D01*
X078853Y025331D01*
X078836Y025200D01*
X078853Y025069D01*
X078903Y024948D01*
X078983Y024843D01*
X079088Y024763D01*
X079175Y024727D01*
Y024673D01*
X079088Y024637D01*
X078983Y024557D01*
X078903Y024452D01*
X078853Y024331D01*
X078836Y024200D01*
X078853Y024069D01*
X078903Y023948D01*
X078983Y023843D01*
X079088Y023763D01*
X079175Y023727D01*
Y023673D01*
X079088Y023637D01*
X078983Y023557D01*
X078903Y023452D01*
X078853Y023331D01*
X078836Y023200D01*
X078853Y023069D01*
X078903Y022948D01*
X078983Y022843D01*
X079088Y022763D01*
X079175Y022727D01*
Y022673D01*
X079088Y022637D01*
X078983Y022557D01*
X078903Y022452D01*
X078853Y022331D01*
X078836Y022200D01*
X078853Y022069D01*
X078903Y021948D01*
X078983Y021843D01*
X079088Y021763D01*
X079175Y021727D01*
Y021673D01*
X079088Y021637D01*
X078983Y021557D01*
X078903Y021452D01*
X078853Y021331D01*
X078836Y021200D01*
X078853Y021069D01*
X078903Y020948D01*
X078983Y020843D01*
X079088Y020763D01*
X079175Y020727D01*
Y020673D01*
X079088Y020637D01*
X078983Y020557D01*
X078903Y020452D01*
X078853Y020331D01*
X078836Y020200D01*
X078853Y020069D01*
X078903Y019948D01*
X078983Y019843D01*
X079088Y019763D01*
X079175Y019727D01*
Y019673D01*
X079088Y019637D01*
X078983Y019557D01*
X078903Y019452D01*
X078853Y019331D01*
X078836Y019200D01*
X078853Y019069D01*
X078903Y018948D01*
X078983Y018843D01*
X079088Y018763D01*
X079175Y018727D01*
Y018673D01*
X079088Y018637D01*
X078983Y018557D01*
X078903Y018452D01*
X078853Y018331D01*
X078836Y018200D01*
X078853Y018069D01*
X078903Y017948D01*
X078983Y017843D01*
X079088Y017763D01*
X079175Y017727D01*
Y017673D01*
X079088Y017637D01*
X078983Y017557D01*
X078903Y017452D01*
X078853Y017331D01*
X078836Y017200D01*
X078853Y017069D01*
X078903Y016948D01*
X078983Y016843D01*
X079088Y016763D01*
X079175Y016727D01*
Y016673D01*
X079088Y016637D01*
X078983Y016557D01*
X078903Y016452D01*
X078853Y016331D01*
X078836Y016200D01*
X078853Y016069D01*
X078903Y015948D01*
X078983Y015843D01*
X079088Y015763D01*
X079120Y015750D01*
X079110Y015700D01*
X078840D01*
Y014700D01*
X079840D01*
Y014970D01*
X079890Y014980D01*
X079903Y014948D01*
X079983Y014843D01*
X080088Y014763D01*
X080209Y014713D01*
X080340Y014696D01*
X080471Y014713D01*
X080592Y014763D01*
X080697Y014843D01*
X080777Y014948D01*
X080827Y015069D01*
X080844Y015200D01*
X080827Y015331D01*
X080777Y015452D01*
X080697Y015557D01*
X080592Y015637D01*
X080505Y015673D01*
Y015727D01*
X080592Y015763D01*
X080697Y015843D01*
X080777Y015948D01*
X080813Y016035D01*
X080867D01*
X080903Y015948D01*
X080983Y015843D01*
X081088Y015763D01*
X081209Y015713D01*
X081340Y015696D01*
X081471Y015713D01*
X081592Y015763D01*
X081697Y015843D01*
X081777Y015948D01*
X081813Y016035D01*
X081867D01*
X081903Y015948D01*
X081983Y015843D01*
X082088Y015763D01*
X082175Y015727D01*
Y015673D01*
X082088Y015637D01*
X081983Y015557D01*
X081903Y015452D01*
X081853Y015331D01*
X081836Y015200D01*
X081853Y015069D01*
X081903Y014948D01*
X081983Y014843D01*
X082088Y014763D01*
X082209Y014713D01*
X082340Y014696D01*
X082471Y014713D01*
X082592Y014763D01*
X082697Y014843D01*
X082777Y014948D01*
X082827Y015069D01*
X082844Y015200D01*
X082827Y015331D01*
X082777Y015452D01*
X082697Y015557D01*
X082592Y015637D01*
X082505Y015673D01*
Y015727D01*
X082592Y015763D01*
X082697Y015843D01*
X082777Y015948D01*
X082827Y016069D01*
X082844Y016200D01*
X082827Y016331D01*
X082777Y016452D01*
X082697Y016557D01*
X082592Y016637D01*
X082505Y016673D01*
Y016727D01*
X082592Y016763D01*
X082697Y016843D01*
X082777Y016948D01*
X082827Y017069D01*
X082844Y017200D01*
X082827Y017331D01*
X082777Y017452D01*
X082697Y017557D01*
X082592Y017637D01*
X082505Y017673D01*
Y017727D01*
X082592Y017763D01*
X082697Y017843D01*
X082777Y017948D01*
X082827Y018069D01*
X082844Y018200D01*
X082827Y018331D01*
X082777Y018452D01*
X082697Y018557D01*
X082592Y018637D01*
X082505Y018673D01*
Y018727D01*
X082592Y018763D01*
X082697Y018843D01*
X082777Y018948D01*
X082827Y019069D01*
X082844Y019200D01*
X082827Y019331D01*
X082777Y019452D01*
X082697Y019557D01*
X082592Y019637D01*
X082505Y019673D01*
Y019727D01*
X082592Y019763D01*
X082697Y019843D01*
X082777Y019948D01*
X082827Y020069D01*
X082844Y020200D01*
X082827Y020331D01*
X082777Y020452D01*
X082697Y020557D01*
X082592Y020637D01*
X082505Y020673D01*
Y020727D01*
X082592Y020763D01*
X082697Y020843D01*
X082777Y020948D01*
X082827Y021069D01*
X082844Y021200D01*
X082827Y021331D01*
X082777Y021452D01*
X082697Y021557D01*
X082592Y021637D01*
X082505Y021673D01*
Y021727D01*
X082592Y021763D01*
X082697Y021843D01*
X082777Y021948D01*
X082827Y022069D01*
X082844Y022200D01*
X082827Y022331D01*
X082777Y022452D01*
X082697Y022557D01*
X082592Y022637D01*
X082505Y022673D01*
Y022727D01*
X082592Y022763D01*
X082697Y022843D01*
X082777Y022948D01*
X082827Y023069D01*
X082844Y023200D01*
X082827Y023331D01*
X082777Y023452D01*
X082697Y023557D01*
X082592Y023637D01*
X082505Y023673D01*
Y023727D01*
X082592Y023763D01*
X082697Y023843D01*
X082777Y023948D01*
X082827Y024069D01*
X082844Y024200D01*
X082827Y024331D01*
X082777Y024452D01*
X082697Y024557D01*
X082592Y024637D01*
X082505Y024673D01*
Y024727D01*
X082592Y024763D01*
X082697Y024843D01*
X082777Y024948D01*
X082827Y025069D01*
X082844Y025200D01*
X082827Y025331D01*
X082777Y025452D01*
X082697Y025557D01*
X082592Y025637D01*
X082505Y025673D01*
Y025727D01*
X082592Y025763D01*
X082697Y025843D01*
X082777Y025948D01*
X082827Y026069D01*
X082844Y026200D01*
X082827Y026331D01*
X082777Y026452D01*
X082697Y026557D01*
X082592Y026637D01*
X082505Y026673D01*
Y026727D01*
X082592Y026763D01*
X082697Y026843D01*
X082777Y026948D01*
X082827Y027069D01*
X082844Y027200D01*
X082827Y027331D01*
X082777Y027452D01*
X082697Y027557D01*
X082592Y027637D01*
X082505Y027673D01*
Y027727D01*
X082592Y027763D01*
X082697Y027843D01*
X082777Y027948D01*
X082827Y028069D01*
X082844Y028200D01*
X082827Y028331D01*
X082777Y028452D01*
X082697Y028557D01*
X082592Y028637D01*
X082505Y028673D01*
Y028727D01*
X082592Y028763D01*
X082697Y028843D01*
X082777Y028948D01*
X082827Y029069D01*
X082838Y029150D01*
X082340D01*
Y029250D01*
X082838D01*
X082827Y029331D01*
X082777Y029452D01*
X082697Y029557D01*
X082592Y029637D01*
X082505Y029673D01*
Y029727D01*
X082592Y029763D01*
X082697Y029843D01*
X082777Y029948D01*
X082827Y030069D01*
X082838Y030150D01*
X082340D01*
Y030250D01*
X082838D01*
X082827Y030331D01*
X082777Y030452D01*
X082697Y030557D01*
X082592Y030637D01*
X082505Y030673D01*
Y030727D01*
X082592Y030763D01*
X082697Y030843D01*
X082777Y030948D01*
X082827Y031069D01*
X082838Y031150D01*
X082340D01*
Y031250D01*
X082838D01*
X082827Y031331D01*
X082777Y031452D01*
X082697Y031557D01*
X082592Y031637D01*
X082505Y031673D01*
Y031727D01*
X082592Y031763D01*
X082697Y031843D01*
X082777Y031948D01*
X082827Y032069D01*
X082844Y032200D01*
X082827Y032331D01*
X082777Y032452D01*
X082697Y032557D01*
X082592Y032637D01*
X082505Y032673D01*
Y032727D01*
X082592Y032763D01*
X082697Y032843D01*
X082777Y032948D01*
X082827Y033069D01*
X082844Y033200D01*
X082827Y033331D01*
X082777Y033452D01*
X082697Y033557D01*
X082592Y033637D01*
X082505Y033673D01*
Y033727D01*
X082592Y033763D01*
X082697Y033843D01*
X082777Y033948D01*
X082827Y034069D01*
X082844Y034200D01*
X082827Y034331D01*
X082777Y034452D01*
X082697Y034557D01*
X082592Y034637D01*
X082505Y034673D01*
Y034727D01*
X082592Y034763D01*
X082697Y034843D01*
X082777Y034948D01*
X082827Y035069D01*
X082844Y035200D01*
X082827Y035331D01*
X082777Y035452D01*
X082697Y035557D01*
X082592Y035637D01*
X082505Y035673D01*
Y035727D01*
X082592Y035763D01*
X082697Y035843D01*
X082777Y035948D01*
X082827Y036069D01*
X082844Y036200D01*
X082827Y036331D01*
X082777Y036452D01*
X082697Y036557D01*
X082592Y036637D01*
X082505Y036673D01*
Y036727D01*
X082592Y036763D01*
X082697Y036843D01*
X082777Y036948D01*
X082827Y037069D01*
X082844Y037200D01*
X082827Y037331D01*
X082777Y037452D01*
X082697Y037557D01*
X082592Y037637D01*
X082471Y037687D01*
X082340Y037704D01*
X082209Y037687D01*
X082088Y037637D01*
X081983Y037557D01*
X081903Y037452D01*
X081867Y037365D01*
X081813D01*
X081777Y037452D01*
X081697Y037557D01*
X081592Y037637D01*
X081471Y037687D01*
X081340Y037704D01*
X081209Y037687D01*
X081088Y037637D01*
X080983Y037557D01*
X080903Y037452D01*
X080867Y037365D01*
X080813D01*
X080777Y037452D01*
X080697Y037557D01*
X080592Y037637D01*
X080505Y037673D01*
Y037727D01*
X080592Y037763D01*
X080697Y037843D01*
X080777Y037948D01*
X080817Y038045D01*
X080871D01*
X080891Y037998D01*
X080955Y037915D01*
X081038Y037851D01*
X081136Y037810D01*
X081240Y037797D01*
X081440D01*
X081544Y037810D01*
X081642Y037851D01*
X081725Y037915D01*
X081789Y037998D01*
X081813Y038055D01*
X081867D01*
X081891Y037998D01*
X081955Y037915D01*
X082038Y037851D01*
X082136Y037810D01*
X082240Y037797D01*
X082440D01*
X082544Y037810D01*
X082642Y037851D01*
X082725Y037915D01*
X082789Y037998D01*
X082830Y038096D01*
X082843Y038200D01*
X082830Y038304D01*
X082789Y038402D01*
X082725Y038485D01*
X082642Y038549D01*
X082544Y038590D01*
X082440Y038603D01*
X082240D01*
X082136Y038590D01*
X082038Y038549D01*
X081955Y038485D01*
X081891Y038402D01*
X081867Y038345D01*
X081813D01*
X081789Y038402D01*
X081725Y038485D01*
X081642Y038549D01*
X081544Y038590D01*
X081440Y038603D01*
X081240D01*
X081136Y038590D01*
X081038Y038549D01*
X080955Y038485D01*
X080891Y038402D01*
X080871Y038355D01*
X080817D01*
X080777Y038452D01*
X080697Y038557D01*
X080592Y038637D01*
X080505Y038673D01*
Y038727D01*
X080592Y038763D01*
X080697Y038843D01*
X080777Y038948D01*
X080817Y039045D01*
X080871D01*
X080891Y038998D01*
X080955Y038915D01*
X081038Y038851D01*
X081136Y038810D01*
X081240Y038797D01*
X081440D01*
X081544Y038810D01*
X081642Y038851D01*
X081725Y038915D01*
X081789Y038998D01*
X081813Y039055D01*
X081867D01*
X081891Y038998D01*
X081955Y038915D01*
X082038Y038851D01*
X082136Y038810D01*
X082240Y038797D01*
X082440D01*
X082544Y038810D01*
X082642Y038851D01*
X082725Y038915D01*
X082789Y038998D01*
X082830Y039096D01*
X082843Y039200D01*
X082830Y039304D01*
X082789Y039402D01*
X082725Y039485D01*
X082642Y039549D01*
X082544Y039590D01*
X082440Y039603D01*
X082240D01*
X082136Y039590D01*
X082038Y039549D01*
X081955Y039485D01*
X081891Y039402D01*
X081867Y039345D01*
X081813D01*
X081789Y039402D01*
X081725Y039485D01*
X081642Y039549D01*
X081544Y039590D01*
X081440Y039603D01*
X081240D01*
X081136Y039590D01*
X081038Y039549D01*
X080955Y039485D01*
X080891Y039402D01*
X080871Y039355D01*
X080817D01*
X080777Y039452D01*
X080697Y039557D01*
X080592Y039637D01*
X080505Y039673D01*
Y039727D01*
X080592Y039763D01*
X080697Y039843D01*
X080777Y039948D01*
X080813Y040035D01*
X080867D01*
X080903Y039948D01*
X080983Y039843D01*
X081088Y039763D01*
X081209Y039713D01*
X081340Y039696D01*
X081471Y039713D01*
X081592Y039763D01*
X081697Y039843D01*
X081777Y039948D01*
X081813Y040035D01*
X081867D01*
X081903Y039948D01*
X081983Y039843D01*
X082088Y039763D01*
X082209Y039713D01*
X082340Y039696D01*
X082471Y039713D01*
X082592Y039763D01*
X082697Y039843D01*
X082777Y039948D01*
X082827Y040069D01*
X082844Y040200D01*
X082827Y040331D01*
X082777Y040452D01*
X082697Y040557D01*
X082592Y040637D01*
X082471Y040687D01*
X082340Y040704D01*
D02*
G37*
G36*
X064740Y044253D02*
X064662Y044242D01*
X064589Y044212D01*
X064526Y044164D01*
X064478Y044101D01*
X064448Y044028D01*
X064437Y043950D01*
X064448Y043872D01*
X064478Y043799D01*
X064485Y043789D01*
Y040814D01*
X064490Y040789D01*
X064485Y040764D01*
X064504Y040666D01*
X064560Y040583D01*
X064679Y040464D01*
Y039854D01*
X064672Y039845D01*
X064641Y039772D01*
X064631Y039694D01*
X064641Y039615D01*
X064672Y039542D01*
X064720Y039480D01*
X064782Y039432D01*
X064855Y039401D01*
X064934Y039391D01*
X065012Y039401D01*
X065085Y039432D01*
X065148Y039480D01*
X065196Y039542D01*
X065226Y039615D01*
X065236Y039694D01*
X065226Y039772D01*
X065196Y039845D01*
X065189Y039854D01*
Y040570D01*
X065169Y040667D01*
X065114Y040750D01*
X064995Y040869D01*
Y043789D01*
X065002Y043799D01*
X065032Y043872D01*
X065043Y043950D01*
X065032Y044028D01*
X065002Y044101D01*
X064954Y044164D01*
X064891Y044212D01*
X064818Y044242D01*
X064740Y044253D01*
D02*
G37*
G36*
X057438Y044251D02*
X057360Y044241D01*
X057287Y044210D01*
X057224Y044162D01*
X057176Y044100D01*
X057146Y044027D01*
X057136Y043948D01*
X057146Y043870D01*
X057176Y043797D01*
X057184Y043788D01*
Y036102D01*
X057203Y036004D01*
X057258Y035921D01*
X057946Y035233D01*
X057948Y035222D01*
X057978Y035149D01*
X058026Y035086D01*
X058089Y035038D01*
X058162Y035008D01*
X058240Y034997D01*
X058318Y035008D01*
X058391Y035038D01*
X058454Y035086D01*
X058502Y035149D01*
X058532Y035222D01*
X058543Y035300D01*
X058532Y035378D01*
X058502Y035451D01*
X058454Y035514D01*
X058391Y035562D01*
X058318Y035592D01*
X058307Y035594D01*
X057693Y036207D01*
Y039327D01*
X057743Y039341D01*
X057793Y039261D01*
X057904Y039131D01*
X058033Y039020D01*
X058179Y038931D01*
X058337Y038866D01*
X058503Y038826D01*
X058673Y038812D01*
X058843Y038826D01*
X059009Y038866D01*
X059166Y038931D01*
X059312Y039020D01*
X059442Y039131D01*
X059553Y039261D01*
X059642Y039406D01*
X059707Y039564D01*
X059747Y039730D01*
X059760Y039900D01*
X059747Y040070D01*
X059707Y040236D01*
X059642Y040394D01*
X059553Y040539D01*
X059442Y040669D01*
X059312Y040780D01*
X059166Y040869D01*
X059009Y040934D01*
X058843Y040974D01*
X058673Y040988D01*
X058503Y040974D01*
X058337Y040934D01*
X058179Y040869D01*
X058033Y040780D01*
X057904Y040669D01*
X057793Y040539D01*
X057743Y040459D01*
X057693Y040473D01*
Y043788D01*
X057700Y043797D01*
X057731Y043870D01*
X057741Y043948D01*
X057731Y044027D01*
X057700Y044100D01*
X057652Y044162D01*
X057590Y044210D01*
X057517Y044241D01*
X057438Y044251D01*
D02*
G37*
G36*
X070740Y037353D02*
X070662Y037342D01*
X070589Y037312D01*
X070526Y037264D01*
X070478Y037201D01*
X070448Y037128D01*
X070437Y037050D01*
X070448Y036972D01*
X070478Y036899D01*
X070526Y036836D01*
X070587Y036789D01*
Y034635D01*
X070541Y034615D01*
X069783Y035374D01*
X069793Y035450D01*
X069782Y035528D01*
X069752Y035601D01*
X069704Y035664D01*
X069641Y035712D01*
X069568Y035742D01*
X069490Y035753D01*
X069412Y035742D01*
X069339Y035712D01*
X069276Y035664D01*
X069228Y035601D01*
X069198Y035528D01*
X069187Y035450D01*
X069198Y035372D01*
X069228Y035299D01*
X069276Y035236D01*
X069339Y035188D01*
X069412Y035158D01*
X069490Y035147D01*
X069566Y035157D01*
X070387Y034337D01*
Y027250D01*
X070399Y027191D01*
X070432Y027142D01*
X070844Y026730D01*
X070803Y026631D01*
X070786Y026500D01*
X070803Y026369D01*
X070853Y026248D01*
X070933Y026143D01*
X071038Y026063D01*
X071125Y026027D01*
Y025973D01*
X071038Y025937D01*
X070933Y025857D01*
X070853Y025752D01*
X070803Y025631D01*
X070786Y025500D01*
X070803Y025369D01*
X070853Y025248D01*
X070933Y025143D01*
X071038Y025063D01*
X071125Y025027D01*
Y024973D01*
X071038Y024937D01*
X070933Y024857D01*
X070853Y024752D01*
X070803Y024631D01*
X070786Y024500D01*
X070803Y024369D01*
X070853Y024248D01*
X070933Y024143D01*
X071038Y024063D01*
X071125Y024027D01*
Y023973D01*
X071038Y023937D01*
X070933Y023857D01*
X070853Y023752D01*
X070803Y023631D01*
X070786Y023500D01*
X070803Y023369D01*
X070823Y023321D01*
X070196Y022694D01*
X070152Y022628D01*
X070136Y022550D01*
Y018953D01*
X070152Y018875D01*
X070196Y018809D01*
X070606Y018399D01*
X070589Y018348D01*
X070570Y018343D01*
X070562Y018342D01*
X070557Y018340D01*
X070542Y018337D01*
X067705Y021174D01*
X067715Y021250D01*
X067705Y021328D01*
X067675Y021401D01*
X067627Y021464D01*
X067564Y021512D01*
X067491Y021542D01*
X067413Y021553D01*
X067335Y021542D01*
X067262Y021512D01*
X067199Y021464D01*
X067151Y021401D01*
X067121Y021328D01*
X067110Y021250D01*
X067121Y021172D01*
X067151Y021099D01*
X067199Y021036D01*
X067262Y020988D01*
X067335Y020958D01*
X067413Y020947D01*
X067489Y020957D01*
X070344Y018102D01*
X070337Y018050D01*
X070348Y017972D01*
X070378Y017899D01*
X070426Y017836D01*
X070489Y017788D01*
X070562Y017758D01*
X070640Y017747D01*
X070718Y017758D01*
X070791Y017788D01*
X070854Y017836D01*
X070902Y017899D01*
X070932Y017972D01*
X070936Y017998D01*
X070989Y018016D01*
X071336Y017668D01*
Y014291D01*
X071300Y014204D01*
X071287Y014100D01*
X071300Y013996D01*
X071341Y013898D01*
X071405Y013815D01*
X071488Y013751D01*
X071537Y013730D01*
Y011200D01*
X071549Y011141D01*
X071582Y011092D01*
X072221Y010453D01*
X072200Y010404D01*
X072187Y010300D01*
X072200Y010196D01*
X072241Y010098D01*
X072305Y010015D01*
X072388Y009951D01*
X072486Y009910D01*
X072590Y009897D01*
X072694Y009910D01*
X072792Y009951D01*
X072875Y010015D01*
X072939Y010098D01*
X072980Y010196D01*
X072993Y010300D01*
X072980Y010404D01*
X072939Y010502D01*
X072875Y010585D01*
X072792Y010649D01*
X072694Y010690D01*
X072590Y010703D01*
X072486Y010690D01*
X072437Y010669D01*
X071843Y011263D01*
Y013730D01*
X071892Y013751D01*
X071975Y013815D01*
X072039Y013898D01*
X072080Y013996D01*
X072093Y014100D01*
X072080Y014204D01*
X072039Y014302D01*
X071975Y014385D01*
X071892Y014449D01*
X071794Y014490D01*
X071744Y014496D01*
Y017753D01*
X071728Y017831D01*
X071684Y017897D01*
X070544Y019037D01*
Y022466D01*
X070777Y022699D01*
X070819Y022670D01*
X070803Y022631D01*
X070786Y022500D01*
X070803Y022369D01*
X070853Y022248D01*
X070933Y022143D01*
X071038Y022063D01*
X071125Y022027D01*
Y021973D01*
X071038Y021937D01*
X070933Y021857D01*
X070853Y021752D01*
X070803Y021631D01*
X070792Y021550D01*
X071290D01*
X071788D01*
X071777Y021631D01*
X071727Y021752D01*
X071647Y021857D01*
X071542Y021937D01*
X071455Y021973D01*
Y022027D01*
X071542Y022063D01*
X071647Y022143D01*
X071727Y022248D01*
X071777Y022369D01*
X071794Y022500D01*
X071777Y022631D01*
X071727Y022752D01*
X071647Y022857D01*
X071542Y022937D01*
X071455Y022973D01*
Y023027D01*
X071542Y023063D01*
X071647Y023143D01*
X071727Y023248D01*
X071777Y023369D01*
X071794Y023500D01*
X071777Y023631D01*
X071727Y023752D01*
X071647Y023857D01*
X071542Y023937D01*
X071455Y023973D01*
Y024027D01*
X071542Y024063D01*
X071647Y024143D01*
X071727Y024248D01*
X071764Y024339D01*
X071823Y024350D01*
X071994Y024180D01*
X071953Y024081D01*
X071936Y023950D01*
X071953Y023819D01*
X072003Y023698D01*
X072083Y023593D01*
X072188Y023513D01*
X072309Y023463D01*
X072440Y023446D01*
X072571Y023463D01*
X072692Y023513D01*
X072797Y023593D01*
X072877Y023698D01*
X072927Y023819D01*
X072944Y023950D01*
X072927Y024081D01*
X072877Y024202D01*
X072797Y024307D01*
X072692Y024387D01*
X072605Y024423D01*
Y024477D01*
X072692Y024513D01*
X072797Y024593D01*
X072877Y024698D01*
X072927Y024819D01*
X072944Y024950D01*
X072927Y025081D01*
X072877Y025202D01*
X072797Y025307D01*
X072692Y025387D01*
X072593Y025428D01*
Y032939D01*
X072654Y032986D01*
X072702Y033049D01*
X072732Y033122D01*
X072743Y033200D01*
X072732Y033278D01*
X072702Y033351D01*
X072654Y033414D01*
X072591Y033462D01*
X072518Y033492D01*
X072440Y033503D01*
X072362Y033492D01*
X072289Y033462D01*
X072226Y033414D01*
X072178Y033351D01*
X072148Y033278D01*
X072137Y033200D01*
X072148Y033122D01*
X072178Y033049D01*
X072226Y032986D01*
X072287Y032939D01*
Y025428D01*
X072188Y025387D01*
X072093Y025314D01*
X072043Y025329D01*
Y034239D01*
X072104Y034286D01*
X072152Y034349D01*
X072182Y034422D01*
X072193Y034500D01*
X072182Y034578D01*
X072152Y034651D01*
X072104Y034714D01*
X072041Y034762D01*
X071968Y034792D01*
X071890Y034803D01*
X071812Y034792D01*
X071739Y034762D01*
X071676Y034714D01*
X071628Y034651D01*
X071598Y034578D01*
X071587Y034500D01*
X071598Y034422D01*
X071628Y034349D01*
X071676Y034286D01*
X071737Y034239D01*
Y031821D01*
X071687Y031804D01*
X071647Y031857D01*
X071542Y031937D01*
X071421Y031987D01*
X071290Y032004D01*
X071159Y031987D01*
X071038Y031937D01*
X070943Y031864D01*
X070893Y031879D01*
Y036789D01*
X070954Y036836D01*
X071002Y036899D01*
X071032Y036972D01*
X071043Y037050D01*
X071032Y037128D01*
X071002Y037201D01*
X070954Y037264D01*
X070891Y037312D01*
X070818Y037342D01*
X070740Y037353D01*
D02*
G37*
G36*
X063940Y036503D02*
X063862Y036492D01*
X063789Y036462D01*
X063726Y036414D01*
X063678Y036351D01*
X063648Y036278D01*
X063637Y036200D01*
X063648Y036122D01*
X063678Y036049D01*
X063726Y035986D01*
X063787Y035939D01*
Y034112D01*
X063594Y033919D01*
X063547Y033943D01*
X063532Y034057D01*
X063482Y034177D01*
X063403Y034280D01*
X063300Y034360D01*
X063180Y034409D01*
X063051Y034426D01*
X062922Y034409D01*
X062802Y034360D01*
X062699Y034280D01*
X062619Y034177D01*
X062570Y034057D01*
X062553Y033928D01*
X062570Y033799D01*
X062619Y033679D01*
X062699Y033576D01*
X062802Y033497D01*
X062922Y033447D01*
X063036Y033432D01*
X063060Y033385D01*
X061067Y031392D01*
X060990Y031403D01*
X060912Y031392D01*
X060839Y031362D01*
X060776Y031314D01*
X060728Y031251D01*
X060698Y031178D01*
X060687Y031100D01*
X060698Y031022D01*
X060728Y030949D01*
X060776Y030886D01*
X060837Y030839D01*
Y023761D01*
X060776Y023714D01*
X060728Y023651D01*
X060698Y023578D01*
X060687Y023500D01*
X060698Y023422D01*
X060728Y023349D01*
X060776Y023286D01*
X060839Y023238D01*
X060912Y023208D01*
X060990Y023197D01*
X061068Y023208D01*
X061141Y023238D01*
X061204Y023286D01*
X061252Y023349D01*
X061282Y023422D01*
X061293Y023500D01*
X061282Y023578D01*
X061252Y023651D01*
X061204Y023714D01*
X061143Y023761D01*
Y030839D01*
X061204Y030886D01*
X061252Y030949D01*
X061282Y031022D01*
X061293Y031100D01*
X061283Y031175D01*
X064048Y033941D01*
X064081Y033990D01*
X064093Y034049D01*
Y035939D01*
X064154Y035986D01*
X064202Y036049D01*
X064232Y036122D01*
X064243Y036200D01*
X064232Y036278D01*
X064202Y036351D01*
X064154Y036414D01*
X064091Y036462D01*
X064018Y036492D01*
X063940Y036503D01*
D02*
G37*
G36*
X065540Y035016D02*
X065370Y035003D01*
X065204Y034963D01*
X065046Y034897D01*
X064901Y034808D01*
X064771Y034697D01*
X064660Y034568D01*
X064571Y034422D01*
X064506Y034264D01*
X064466Y034098D01*
X064452Y033928D01*
X064466Y033758D01*
X064506Y033592D01*
X064571Y033435D01*
X064660Y033289D01*
X064771Y033159D01*
X064901Y033048D01*
X065046Y032959D01*
X065204Y032894D01*
X065370Y032854D01*
X065540Y032841D01*
X065710Y032854D01*
X065876Y032894D01*
X066034Y032959D01*
X066179Y033048D01*
X066309Y033159D01*
X066420Y033289D01*
X066509Y033435D01*
X066574Y033592D01*
X066614Y033758D01*
X066628Y033928D01*
X066614Y034098D01*
X066574Y034264D01*
X066509Y034422D01*
X066420Y034568D01*
X066309Y034697D01*
X066179Y034808D01*
X066034Y034897D01*
X065876Y034963D01*
X065710Y035003D01*
X065540Y035016D01*
D02*
G37*
G36*
X058673Y027363D02*
X058544Y027346D01*
X058424Y027297D01*
X058321Y027217D01*
X058241Y027114D01*
X058192Y026994D01*
X058175Y026865D01*
X058192Y026736D01*
X058241Y026616D01*
X058321Y026513D01*
X058424Y026434D01*
X058544Y026384D01*
X058673Y026367D01*
X058802Y026384D01*
X058922Y026434D01*
X059025Y026513D01*
X059104Y026616D01*
X059154Y026736D01*
X059171Y026865D01*
X059154Y026994D01*
X059104Y027114D01*
X059025Y027217D01*
X058922Y027297D01*
X058802Y027346D01*
X058673Y027363D01*
D02*
G37*
G36*
X068074Y026375D02*
X067945Y026358D01*
X067825Y026308D01*
X067722Y026229D01*
X067643Y026126D01*
X067593Y026006D01*
X067576Y025877D01*
X067593Y025748D01*
X067643Y025628D01*
X067722Y025525D01*
X067825Y025446D01*
X067945Y025396D01*
X068074Y025379D01*
X068203Y025396D01*
X068323Y025446D01*
X068426Y025525D01*
X068506Y025628D01*
X068555Y025748D01*
X068572Y025877D01*
X068555Y026006D01*
X068506Y026126D01*
X068426Y026229D01*
X068323Y026308D01*
X068203Y026358D01*
X068074Y026375D01*
D02*
G37*
G36*
X060090Y030803D02*
X060012Y030792D01*
X059939Y030762D01*
X059876Y030714D01*
X059828Y030651D01*
X059798Y030578D01*
X059787Y030500D01*
X059798Y030422D01*
X059828Y030349D01*
X059876Y030286D01*
X059937Y030239D01*
Y023411D01*
X059876Y023364D01*
X059828Y023301D01*
X059798Y023228D01*
X059787Y023150D01*
X059798Y023072D01*
X059828Y022999D01*
X059876Y022936D01*
X059939Y022888D01*
X060012Y022858D01*
X060090Y022847D01*
X060168Y022858D01*
X060241Y022888D01*
X060304Y022936D01*
X060352Y022999D01*
X060382Y023072D01*
X060393Y023150D01*
X060382Y023228D01*
X060352Y023301D01*
X060304Y023364D01*
X060243Y023411D01*
Y030239D01*
X060304Y030286D01*
X060352Y030349D01*
X060382Y030422D01*
X060393Y030500D01*
X060382Y030578D01*
X060352Y030651D01*
X060304Y030714D01*
X060241Y030762D01*
X060168Y030792D01*
X060090Y030803D01*
D02*
G37*
G36*
X063732Y022993D02*
X063603Y022976D01*
X063483Y022927D01*
X063380Y022847D01*
X063300Y022744D01*
X063251Y022624D01*
X063234Y022495D01*
X063251Y022366D01*
X063300Y022246D01*
X063380Y022143D01*
X063483Y022064D01*
X063603Y022014D01*
X063732Y021997D01*
X063861Y022014D01*
X063981Y022064D01*
X064084Y022143D01*
X064163Y022246D01*
X064213Y022366D01*
X064230Y022495D01*
X064213Y022624D01*
X064163Y022744D01*
X064084Y022847D01*
X063981Y022927D01*
X063861Y022976D01*
X063732Y022993D01*
D02*
G37*
G36*
X048377D02*
X048249Y022976D01*
X048128Y022927D01*
X048025Y022847D01*
X047946Y022744D01*
X047896Y022624D01*
X047879Y022495D01*
X047896Y022366D01*
X047946Y022246D01*
X048025Y022143D01*
X048128Y022064D01*
X048249Y022014D01*
X048377Y021997D01*
X048506Y022014D01*
X048626Y022064D01*
X048730Y022143D01*
X048809Y022246D01*
X048858Y022366D01*
X048875Y022495D01*
X048858Y022624D01*
X048809Y022744D01*
X048730Y022847D01*
X048626Y022927D01*
X048506Y022976D01*
X048377Y022993D01*
D02*
G37*
G36*
X050840Y023583D02*
X050670Y023570D01*
X050504Y023530D01*
X050346Y023464D01*
X050201Y023375D01*
X050071Y023264D01*
X049960Y023135D01*
X049871Y022989D01*
X049806Y022831D01*
X049766Y022665D01*
X049752Y022495D01*
X049766Y022325D01*
X049806Y022159D01*
X049871Y022002D01*
X049960Y021856D01*
X050071Y021726D01*
X050201Y021615D01*
X050346Y021526D01*
X050504Y021461D01*
X050670Y021421D01*
X050840Y021408D01*
X051010Y021421D01*
X051176Y021461D01*
X051334Y021526D01*
X051479Y021615D01*
X051609Y021726D01*
X051720Y021856D01*
X051809Y022002D01*
X051874Y022159D01*
X051914Y022325D01*
X051928Y022495D01*
X051914Y022665D01*
X051874Y022831D01*
X051809Y022989D01*
X051720Y023135D01*
X051609Y023264D01*
X051479Y023375D01*
X051334Y023464D01*
X051176Y023530D01*
X051010Y023570D01*
X050840Y023583D01*
D02*
G37*
G36*
X077788Y023450D02*
X077290D01*
X076792D01*
X076803Y023369D01*
X076853Y023248D01*
X076933Y023143D01*
X077038Y023063D01*
X077125Y023027D01*
Y022973D01*
X077038Y022937D01*
X076933Y022857D01*
X076853Y022752D01*
X076803Y022631D01*
X076786Y022500D01*
X076803Y022369D01*
X076853Y022248D01*
X076933Y022143D01*
X077038Y022063D01*
X077125Y022027D01*
Y021973D01*
X077038Y021937D01*
X076933Y021857D01*
X076853Y021752D01*
X076803Y021631D01*
X076786Y021500D01*
X076803Y021369D01*
X076853Y021248D01*
X076933Y021143D01*
X077038Y021063D01*
X077125Y021027D01*
Y020973D01*
X077038Y020937D01*
X076933Y020857D01*
X076853Y020752D01*
X076803Y020631D01*
X076786Y020500D01*
X076803Y020369D01*
X076853Y020248D01*
X076933Y020143D01*
X077038Y020063D01*
X077159Y020013D01*
X077290Y019996D01*
X077421Y020013D01*
X077542Y020063D01*
X077647Y020143D01*
X077727Y020248D01*
X077777Y020369D01*
X077794Y020500D01*
X077777Y020631D01*
X077727Y020752D01*
X077647Y020857D01*
X077542Y020937D01*
X077455Y020973D01*
Y021027D01*
X077542Y021063D01*
X077647Y021143D01*
X077727Y021248D01*
X077777Y021369D01*
X077794Y021500D01*
X077777Y021631D01*
X077727Y021752D01*
X077647Y021857D01*
X077542Y021937D01*
X077455Y021973D01*
Y022027D01*
X077542Y022063D01*
X077647Y022143D01*
X077727Y022248D01*
X077777Y022369D01*
X077794Y022500D01*
X077777Y022631D01*
X077727Y022752D01*
X077647Y022857D01*
X077542Y022937D01*
X077455Y022973D01*
Y023027D01*
X077542Y023063D01*
X077647Y023143D01*
X077727Y023248D01*
X077777Y023369D01*
X077788Y023450D01*
D02*
G37*
G36*
X071788Y021450D02*
X071290D01*
X070792D01*
X070803Y021369D01*
X070853Y021248D01*
X070933Y021143D01*
X071038Y021063D01*
X071125Y021027D01*
Y020973D01*
X071038Y020937D01*
X070933Y020857D01*
X070853Y020752D01*
X070803Y020631D01*
X070786Y020500D01*
X070803Y020369D01*
X070853Y020248D01*
X070933Y020143D01*
X071038Y020063D01*
X071159Y020013D01*
X071290Y019996D01*
X071421Y020013D01*
X071542Y020063D01*
X071647Y020143D01*
X071727Y020248D01*
X071777Y020369D01*
X071794Y020500D01*
X071777Y020631D01*
X071727Y020752D01*
X071647Y020857D01*
X071542Y020937D01*
X071455Y020973D01*
Y021027D01*
X071542Y021063D01*
X071647Y021143D01*
X071727Y021248D01*
X071777Y021369D01*
X071788Y021450D01*
D02*
G37*
G36*
X075790Y020004D02*
X075659Y019987D01*
X075538Y019937D01*
X075433Y019857D01*
X075353Y019752D01*
X075317Y019665D01*
X075263D01*
X075227Y019752D01*
X075147Y019857D01*
X075042Y019937D01*
X074921Y019987D01*
X074790Y020004D01*
X074659Y019987D01*
X074538Y019937D01*
X074433Y019857D01*
X074353Y019752D01*
X074317Y019665D01*
X074263D01*
X074227Y019752D01*
X074147Y019857D01*
X074042Y019937D01*
X073921Y019987D01*
X073790Y020004D01*
X073659Y019987D01*
X073538Y019937D01*
X073433Y019857D01*
X073353Y019752D01*
X073317Y019665D01*
X073263D01*
X073227Y019752D01*
X073147Y019857D01*
X073042Y019937D01*
X072921Y019987D01*
X072790Y020004D01*
X072659Y019987D01*
X072538Y019937D01*
X072433Y019857D01*
X072353Y019752D01*
X072317Y019665D01*
X072263D01*
X072227Y019752D01*
X072147Y019857D01*
X072042Y019937D01*
X071921Y019987D01*
X071790Y020004D01*
X071659Y019987D01*
X071538Y019937D01*
X071433Y019857D01*
X071353Y019752D01*
X071303Y019631D01*
X071286Y019500D01*
X071303Y019369D01*
X071353Y019248D01*
X071433Y019143D01*
X071538Y019063D01*
X071659Y019013D01*
X071790Y018996D01*
X071849Y019004D01*
X071887Y018971D01*
Y015600D01*
X071899Y015541D01*
X071932Y015492D01*
X072976Y014448D01*
X072943Y014410D01*
X072892Y014449D01*
X072794Y014490D01*
X072740Y014497D01*
Y014150D01*
X073087D01*
X073080Y014204D01*
X073039Y014302D01*
X073000Y014353D01*
X073038Y014386D01*
X074032Y013391D01*
X074002Y013317D01*
X073986Y013200D01*
X074002Y013083D01*
X074047Y012973D01*
X074119Y012879D01*
X074213Y012807D01*
X074323Y012762D01*
X074440Y012746D01*
X074557Y012762D01*
X074667Y012807D01*
X074761Y012879D01*
X074833Y012973D01*
X074878Y013083D01*
X074894Y013200D01*
X074878Y013317D01*
X074833Y013427D01*
X074761Y013521D01*
X074667Y013593D01*
X074557Y013638D01*
X074440Y013654D01*
X074323Y013638D01*
X074249Y013608D01*
X072193Y015663D01*
Y019204D01*
X072227Y019248D01*
X072263Y019335D01*
X072317D01*
X072353Y019248D01*
X072433Y019143D01*
X072538Y019063D01*
X072637Y019022D01*
Y015850D01*
X072649Y015791D01*
X072682Y015742D01*
X075032Y013391D01*
X075002Y013317D01*
X074986Y013200D01*
X075002Y013083D01*
X075047Y012973D01*
X075119Y012879D01*
X075213Y012807D01*
X075323Y012762D01*
X075440Y012746D01*
X075557Y012762D01*
X075667Y012807D01*
X075761Y012879D01*
X075833Y012973D01*
X075878Y013083D01*
X075894Y013200D01*
X075878Y013317D01*
X075833Y013427D01*
X075761Y013521D01*
X075667Y013593D01*
X075557Y013638D01*
X075440Y013654D01*
X075323Y013638D01*
X075249Y013608D01*
X072943Y015913D01*
Y019022D01*
X073042Y019063D01*
X073147Y019143D01*
X073227Y019248D01*
X073263Y019335D01*
X073317D01*
X073353Y019248D01*
X073433Y019143D01*
X073538Y019063D01*
X073637Y019022D01*
Y015850D01*
X073649Y015791D01*
X073682Y015742D01*
X076032Y013391D01*
X076002Y013317D01*
X075986Y013200D01*
X076002Y013083D01*
X076047Y012973D01*
X076119Y012879D01*
X076213Y012807D01*
X076323Y012762D01*
X076440Y012746D01*
X076557Y012762D01*
X076667Y012807D01*
X076761Y012879D01*
X076833Y012973D01*
X076878Y013083D01*
X076894Y013200D01*
X076878Y013317D01*
X076833Y013427D01*
X076761Y013521D01*
X076667Y013593D01*
X076557Y013638D01*
X076440Y013654D01*
X076323Y013638D01*
X076249Y013608D01*
X073943Y015913D01*
Y019022D01*
X074042Y019063D01*
X074147Y019143D01*
X074227Y019248D01*
X074263Y019335D01*
X074317D01*
X074353Y019248D01*
X074433Y019143D01*
X074538Y019063D01*
X074637Y019022D01*
Y015850D01*
X074649Y015791D01*
X074682Y015742D01*
X077032Y013391D01*
X077002Y013317D01*
X076986Y013200D01*
X077002Y013083D01*
X077047Y012973D01*
X077119Y012879D01*
X077213Y012807D01*
X077323Y012762D01*
X077440Y012746D01*
X077557Y012762D01*
X077667Y012807D01*
X077761Y012879D01*
X077833Y012973D01*
X077878Y013083D01*
X077894Y013200D01*
X077878Y013317D01*
X077833Y013427D01*
X077761Y013521D01*
X077667Y013593D01*
X077557Y013638D01*
X077440Y013654D01*
X077323Y013638D01*
X077249Y013608D01*
X074943Y015913D01*
Y019022D01*
X075042Y019063D01*
X075147Y019143D01*
X075227Y019248D01*
X075263Y019335D01*
X075317D01*
X075353Y019248D01*
X075433Y019143D01*
X075538Y019063D01*
X075637Y019022D01*
Y015850D01*
X075649Y015791D01*
X075682Y015742D01*
X078032Y013391D01*
X078002Y013317D01*
X077986Y013200D01*
X078002Y013083D01*
X078047Y012973D01*
X078119Y012879D01*
X078213Y012807D01*
X078323Y012762D01*
X078440Y012746D01*
X078557Y012762D01*
X078667Y012807D01*
X078761Y012879D01*
X078833Y012973D01*
X078878Y013083D01*
X078894Y013200D01*
X078878Y013317D01*
X078833Y013427D01*
X078761Y013521D01*
X078667Y013593D01*
X078557Y013638D01*
X078440Y013654D01*
X078323Y013638D01*
X078249Y013608D01*
X075943Y015913D01*
Y019022D01*
X076042Y019063D01*
X076147Y019143D01*
X076227Y019248D01*
X076263Y019335D01*
X076317D01*
X076353Y019248D01*
X076433Y019143D01*
X076538Y019063D01*
X076637Y019022D01*
Y015850D01*
X076649Y015791D01*
X076682Y015742D01*
X078990Y013434D01*
Y013250D01*
X079390D01*
Y013650D01*
X079206D01*
X076943Y015913D01*
Y019022D01*
X077042Y019063D01*
X077147Y019143D01*
X077227Y019248D01*
X077277Y019369D01*
X077288Y019450D01*
X076790D01*
Y019500D01*
X076740D01*
Y019998D01*
X076659Y019987D01*
X076538Y019937D01*
X076433Y019857D01*
X076353Y019752D01*
X076317Y019665D01*
X076263D01*
X076227Y019752D01*
X076147Y019857D01*
X076042Y019937D01*
X075921Y019987D01*
X075790Y020004D01*
D02*
G37*
G36*
X076840Y019998D02*
Y019550D01*
X077288D01*
X077277Y019631D01*
X077227Y019752D01*
X077147Y019857D01*
X077042Y019937D01*
X076921Y019987D01*
X076840Y019998D01*
D02*
G37*
G36*
X065340Y024803D02*
X065262Y024792D01*
X065189Y024762D01*
X065126Y024714D01*
X065078Y024651D01*
X065048Y024578D01*
X065037Y024500D01*
X065048Y024422D01*
X065078Y024349D01*
X065126Y024286D01*
X065187Y024239D01*
Y019211D01*
X065126Y019164D01*
X065078Y019101D01*
X065048Y019028D01*
X065037Y018950D01*
X065048Y018872D01*
X065078Y018799D01*
X065126Y018736D01*
X065189Y018688D01*
X065262Y018658D01*
X065340Y018647D01*
X065418Y018658D01*
X065491Y018688D01*
X065554Y018736D01*
X065602Y018799D01*
X065632Y018872D01*
X065643Y018950D01*
X065632Y019028D01*
X065602Y019101D01*
X065554Y019164D01*
X065493Y019211D01*
Y024239D01*
X065554Y024286D01*
X065602Y024349D01*
X065632Y024422D01*
X065643Y024500D01*
X065632Y024578D01*
X065602Y024651D01*
X065554Y024714D01*
X065491Y024762D01*
X065418Y024792D01*
X065340Y024803D01*
D02*
G37*
G36*
X068740Y016803D02*
X068662Y016792D01*
X068589Y016762D01*
X068579Y016755D01*
X064501D01*
X064491Y016762D01*
X064418Y016792D01*
X064340Y016803D01*
X064262Y016792D01*
X064189Y016762D01*
X064126Y016714D01*
X064078Y016651D01*
X064048Y016578D01*
X064037Y016500D01*
X064048Y016422D01*
X064078Y016349D01*
X064126Y016286D01*
X064189Y016238D01*
X064262Y016208D01*
X064340Y016197D01*
X064418Y016208D01*
X064491Y016238D01*
X064501Y016245D01*
X068579D01*
X068589Y016238D01*
X068662Y016208D01*
X068740Y016197D01*
X068818Y016208D01*
X068891Y016238D01*
X068954Y016286D01*
X069002Y016349D01*
X069032Y016422D01*
X069043Y016500D01*
X069032Y016578D01*
X069002Y016651D01*
X068954Y016714D01*
X068891Y016762D01*
X068818Y016792D01*
X068740Y016803D01*
D02*
G37*
G36*
X057890Y021603D02*
X057812Y021592D01*
X057739Y021562D01*
X057676Y021514D01*
X057628Y021451D01*
X057598Y021378D01*
X057587Y021300D01*
X057598Y021222D01*
X057628Y021149D01*
X057635Y021139D01*
Y016661D01*
X057628Y016651D01*
X057598Y016578D01*
X057587Y016500D01*
X057598Y016422D01*
X057628Y016349D01*
X057676Y016286D01*
X057739Y016238D01*
X057812Y016208D01*
X057890Y016197D01*
X057968Y016208D01*
X058041Y016238D01*
X058104Y016286D01*
X058152Y016349D01*
X058182Y016422D01*
X058193Y016500D01*
X058182Y016578D01*
X058152Y016651D01*
X058145Y016661D01*
Y021139D01*
X058152Y021149D01*
X058182Y021222D01*
X058193Y021300D01*
X058182Y021378D01*
X058152Y021451D01*
X058104Y021514D01*
X058041Y021562D01*
X057968Y021592D01*
X057890Y021603D01*
D02*
G37*
G36*
X081740Y015600D02*
X080940D01*
Y014800D01*
X081740D01*
Y015600D01*
D02*
G37*
G36*
X072640Y014497D02*
X072586Y014490D01*
X072488Y014449D01*
X072405Y014385D01*
X072341Y014302D01*
X072300Y014204D01*
X072293Y014150D01*
X072640D01*
Y014497D01*
D02*
G37*
G36*
X073087Y014050D02*
X072740D01*
Y013703D01*
X072794Y013710D01*
X072892Y013751D01*
X072975Y013815D01*
X073039Y013898D01*
X073080Y013996D01*
X073087Y014050D01*
D02*
G37*
G36*
X072640D02*
X072293D01*
X072300Y013996D01*
X072341Y013898D01*
X072405Y013815D01*
X072488Y013751D01*
X072586Y013710D01*
X072640Y013703D01*
Y014050D01*
D02*
G37*
G36*
X064590Y025053D02*
X064512Y025042D01*
X064439Y025012D01*
X064376Y024964D01*
X064328Y024901D01*
X064298Y024828D01*
X064287Y024750D01*
X064298Y024672D01*
X064328Y024599D01*
X064376Y024536D01*
X064437Y024489D01*
Y018650D01*
X064449Y018591D01*
X064482Y018542D01*
X065982Y017042D01*
X066031Y017009D01*
X066090Y016997D01*
X069829D01*
X069876Y016936D01*
X069939Y016888D01*
X069965Y016877D01*
Y016823D01*
X069939Y016812D01*
X069876Y016764D01*
X069828Y016701D01*
X069798Y016628D01*
X069787Y016550D01*
X069798Y016472D01*
X069828Y016399D01*
X069876Y016336D01*
X069937Y016289D01*
Y012863D01*
X069743Y012670D01*
X069694Y012690D01*
X069590Y012703D01*
X069486Y012690D01*
X069388Y012649D01*
X069305Y012585D01*
X069241Y012502D01*
X069200Y012404D01*
X069187Y012300D01*
X069200Y012196D01*
X069241Y012098D01*
X069305Y012015D01*
X069388Y011951D01*
X069486Y011910D01*
X069590Y011897D01*
X069694Y011910D01*
X069792Y011951D01*
X069875Y012015D01*
X069939Y012098D01*
X069980Y012196D01*
X069993Y012300D01*
X069980Y012404D01*
X069960Y012453D01*
X070198Y012692D01*
X070231Y012741D01*
X070243Y012800D01*
Y014048D01*
X070293Y014051D01*
X070300Y013996D01*
X070341Y013898D01*
X070405Y013815D01*
X070488Y013751D01*
X070586Y013710D01*
X070690Y013697D01*
X070794Y013710D01*
X070892Y013751D01*
X070975Y013815D01*
X071039Y013898D01*
X071080Y013996D01*
X071093Y014100D01*
X071080Y014204D01*
X071039Y014302D01*
X070975Y014385D01*
X070892Y014449D01*
X070794Y014490D01*
X070690Y014503D01*
X070586Y014490D01*
X070488Y014449D01*
X070405Y014385D01*
X070341Y014302D01*
X070300Y014204D01*
X070293Y014149D01*
X070243Y014152D01*
Y016289D01*
X070304Y016336D01*
X070352Y016399D01*
X070382Y016472D01*
X070393Y016550D01*
X070382Y016628D01*
X070352Y016701D01*
X070304Y016764D01*
X070241Y016812D01*
X070215Y016823D01*
Y016877D01*
X070241Y016888D01*
X070304Y016936D01*
X070352Y016999D01*
X070382Y017072D01*
X070393Y017150D01*
X070382Y017228D01*
X070352Y017301D01*
X070304Y017364D01*
X070290Y017375D01*
Y017425D01*
X070304Y017436D01*
X070352Y017499D01*
X070382Y017572D01*
X070393Y017650D01*
X070382Y017728D01*
X070352Y017801D01*
X070304Y017864D01*
X070241Y017912D01*
X070168Y017942D01*
X070090Y017953D01*
X070012Y017942D01*
X069939Y017912D01*
X069876Y017864D01*
X069829Y017803D01*
X067751D01*
X067704Y017864D01*
X067641Y017912D01*
X067568Y017942D01*
X067490Y017953D01*
X067412Y017942D01*
X067339Y017912D01*
X067276Y017864D01*
X067228Y017801D01*
X067198Y017728D01*
X067187Y017650D01*
X067198Y017572D01*
X067228Y017499D01*
X067276Y017436D01*
X067339Y017388D01*
X067412Y017358D01*
X067448Y017353D01*
X067445Y017303D01*
X066153D01*
X064743Y018713D01*
Y024489D01*
X064804Y024536D01*
X064852Y024599D01*
X064882Y024672D01*
X064893Y024750D01*
X064882Y024828D01*
X064852Y024901D01*
X064804Y024964D01*
X064741Y025012D01*
X064668Y025042D01*
X064590Y025053D01*
D02*
G37*
G36*
X079890Y013650D02*
X079490D01*
Y013250D01*
X079890D01*
Y013650D01*
D02*
G37*
G36*
X064940Y013789D02*
X064852Y013778D01*
X064770Y013744D01*
X064700Y013690D01*
X064646Y013620D01*
X064612Y013538D01*
X064601Y013450D01*
X064612Y013362D01*
X064646Y013280D01*
X064700Y013210D01*
X064770Y013156D01*
X064852Y013122D01*
X064940Y013111D01*
X065028Y013122D01*
X065110Y013156D01*
X065180Y013210D01*
X065234Y013280D01*
X065268Y013362D01*
X065279Y013450D01*
X065268Y013538D01*
X065234Y013620D01*
X065180Y013690D01*
X065110Y013744D01*
X065028Y013778D01*
X064940Y013789D01*
D02*
G37*
G36*
X079890Y013150D02*
X079490D01*
Y012750D01*
X079890D01*
Y013150D01*
D02*
G37*
G36*
X079390D02*
X078990D01*
Y012750D01*
X079390D01*
Y013150D01*
D02*
G37*
G36*
X064990Y012956D02*
Y012673D01*
X065273D01*
X065268Y012711D01*
X065234Y012793D01*
X065180Y012863D01*
X065110Y012917D01*
X065028Y012951D01*
X064990Y012956D01*
D02*
G37*
G36*
X062940Y012789D02*
X062852Y012778D01*
X062770Y012744D01*
X062700Y012690D01*
X062646Y012620D01*
X062612Y012538D01*
X062601Y012450D01*
X062612Y012362D01*
X062646Y012280D01*
X062700Y012210D01*
X062770Y012156D01*
X062852Y012122D01*
X062940Y012111D01*
X063028Y012122D01*
X063110Y012156D01*
X063180Y012210D01*
X063234Y012280D01*
X063268Y012362D01*
X063279Y012450D01*
X063268Y012538D01*
X063234Y012620D01*
X063180Y012690D01*
X063110Y012744D01*
X063028Y012778D01*
X062940Y012789D01*
D02*
G37*
G36*
X072590Y012703D02*
X072486Y012690D01*
X072388Y012649D01*
X072305Y012585D01*
X072241Y012502D01*
X072200Y012404D01*
X072187Y012300D01*
X072200Y012196D01*
X072241Y012098D01*
X072305Y012015D01*
X072388Y011951D01*
X072486Y011910D01*
X072590Y011897D01*
X072694Y011910D01*
X072792Y011951D01*
X072875Y012015D01*
X072939Y012098D01*
X072980Y012196D01*
X072993Y012300D01*
X072980Y012404D01*
X072939Y012502D01*
X072875Y012585D01*
X072792Y012649D01*
X072694Y012690D01*
X072590Y012703D01*
D02*
G37*
G36*
X068074Y013937D02*
X067904Y013924D01*
X067738Y013884D01*
X067580Y013819D01*
X067435Y013729D01*
X067305Y013619D01*
X067194Y013489D01*
X067105Y013343D01*
X067040Y013186D01*
X067000Y013020D01*
X066987Y012850D01*
X067000Y012679D01*
X067040Y012514D01*
X067105Y012356D01*
X067194Y012210D01*
X067305Y012081D01*
X067435Y011970D01*
X067580Y011881D01*
X067738Y011815D01*
X067904Y011775D01*
X068074Y011762D01*
X068244Y011775D01*
X068410Y011815D01*
X068568Y011881D01*
X068714Y011970D01*
X068843Y012081D01*
X068954Y012210D01*
X069043Y012356D01*
X069109Y012514D01*
X069148Y012679D01*
X069162Y012850D01*
X069148Y013020D01*
X069109Y013186D01*
X069043Y013343D01*
X068954Y013489D01*
X068843Y013619D01*
X068714Y013729D01*
X068568Y013819D01*
X068410Y013884D01*
X068244Y013924D01*
X068074Y013937D01*
D02*
G37*
G36*
X062890Y028803D02*
X062812Y028792D01*
X062739Y028762D01*
X062676Y028714D01*
X062628Y028651D01*
X062598Y028578D01*
X062587Y028500D01*
X062598Y028422D01*
X062628Y028349D01*
X062676Y028286D01*
X062737Y028239D01*
Y014100D01*
X062749Y014041D01*
X062782Y013992D01*
X064697Y012076D01*
X064687Y012000D01*
X064698Y011922D01*
X064728Y011849D01*
X064776Y011786D01*
X064839Y011738D01*
X064912Y011708D01*
X064990Y011697D01*
X065068Y011708D01*
X065141Y011738D01*
X065204Y011786D01*
X065252Y011849D01*
X065282Y011922D01*
X065293Y012000D01*
X065282Y012078D01*
X065252Y012151D01*
X065204Y012214D01*
X065141Y012262D01*
X065109Y012275D01*
Y012329D01*
X065110Y012330D01*
X065180Y012383D01*
X065234Y012454D01*
X065268Y012535D01*
X065273Y012573D01*
X064940D01*
Y012623D01*
X064890D01*
Y012956D01*
X064852Y012951D01*
X064770Y012917D01*
X064700Y012863D01*
X064646Y012793D01*
X064612Y012711D01*
X064607Y012670D01*
X064554Y012652D01*
X063043Y014163D01*
Y028239D01*
X063104Y028286D01*
X063152Y028349D01*
X063182Y028422D01*
X063193Y028500D01*
X063182Y028578D01*
X063152Y028651D01*
X063104Y028714D01*
X063041Y028762D01*
X062968Y028792D01*
X062890Y028803D01*
D02*
G37*
G36*
X062990Y011956D02*
Y011673D01*
X063273D01*
X063268Y011711D01*
X063234Y011793D01*
X063180Y011863D01*
X063110Y011917D01*
X063028Y011951D01*
X062990Y011956D01*
D02*
G37*
G36*
X062890D02*
X062852Y011951D01*
X062770Y011917D01*
X062700Y011863D01*
X062646Y011793D01*
X062612Y011711D01*
X062607Y011673D01*
X062890D01*
Y011956D01*
D02*
G37*
G36*
X063273Y011573D02*
X062990D01*
Y011291D01*
X063028Y011296D01*
X063110Y011330D01*
X063180Y011383D01*
X063234Y011454D01*
X063268Y011535D01*
X063273Y011573D01*
D02*
G37*
G36*
X062890D02*
X062607D01*
X062612Y011535D01*
X062646Y011454D01*
X062700Y011383D01*
X062770Y011330D01*
X062852Y011296D01*
X062890Y011291D01*
Y011573D01*
D02*
G37*
G36*
X064940Y011639D02*
X064852Y011628D01*
X064770Y011594D01*
X064700Y011540D01*
X064646Y011470D01*
X064612Y011388D01*
X064601Y011300D01*
X064612Y011212D01*
X064646Y011130D01*
X064700Y011060D01*
X064770Y011006D01*
X064852Y010972D01*
X064940Y010961D01*
X065028Y010972D01*
X065110Y011006D01*
X065180Y011060D01*
X065234Y011130D01*
X065268Y011212D01*
X065279Y011300D01*
X065268Y011388D01*
X065234Y011470D01*
X065180Y011540D01*
X065110Y011594D01*
X065028Y011628D01*
X064940Y011639D01*
D02*
G37*
G36*
X064990Y010806D02*
Y010523D01*
X065273D01*
X065268Y010561D01*
X065234Y010643D01*
X065180Y010713D01*
X065110Y010767D01*
X065028Y010801D01*
X064990Y010806D01*
D02*
G37*
G36*
X064890D02*
X064852Y010801D01*
X064770Y010767D01*
X064700Y010713D01*
X064646Y010643D01*
X064612Y010561D01*
X064607Y010523D01*
X064890D01*
Y010806D01*
D02*
G37*
G36*
X065273Y010423D02*
X064990D01*
Y010141D01*
X065028Y010146D01*
X065110Y010180D01*
X065180Y010233D01*
X065234Y010304D01*
X065268Y010385D01*
X065273Y010423D01*
D02*
G37*
G36*
X064890D02*
X064607D01*
X064612Y010385D01*
X064646Y010304D01*
X064700Y010233D01*
X064770Y010180D01*
X064852Y010146D01*
X064890Y010141D01*
Y010423D01*
D02*
G37*
G36*
X068074Y011021D02*
X067945Y011004D01*
X067825Y010954D01*
X067722Y010875D01*
X067643Y010772D01*
X067593Y010652D01*
X067576Y010523D01*
X067593Y010394D01*
X067643Y010274D01*
X067722Y010171D01*
X067825Y010092D01*
X067945Y010042D01*
X068074Y010025D01*
X068203Y010042D01*
X068323Y010092D01*
X068426Y010171D01*
X068506Y010274D01*
X068555Y010394D01*
X068572Y010523D01*
X068555Y010652D01*
X068506Y010772D01*
X068426Y010875D01*
X068323Y010954D01*
X068203Y011004D01*
X068074Y011021D01*
D02*
G37*
G36*
X069590Y010703D02*
X069486Y010690D01*
X069388Y010649D01*
X069305Y010585D01*
X069241Y010502D01*
X069200Y010404D01*
X069187Y010300D01*
X069200Y010196D01*
X069241Y010098D01*
X069305Y010015D01*
X069388Y009951D01*
X069486Y009910D01*
X069590Y009897D01*
X069694Y009910D01*
X069792Y009951D01*
X069875Y010015D01*
X069939Y010098D01*
X069980Y010196D01*
X069993Y010300D01*
X069980Y010404D01*
X069939Y010502D01*
X069875Y010585D01*
X069792Y010649D01*
X069694Y010690D01*
X069590Y010703D01*
D02*
G37*
%LPD*%
G36*
X078869Y038370D02*
X078853Y038331D01*
X078836Y038200D01*
X078853Y038069D01*
X078903Y037948D01*
X078983Y037843D01*
X079088Y037763D01*
X079175Y037727D01*
Y037673D01*
X079088Y037637D01*
X078983Y037557D01*
X078903Y037452D01*
X078853Y037331D01*
X078836Y037200D01*
X078853Y037069D01*
X078903Y036948D01*
X078983Y036843D01*
X079088Y036763D01*
X079175Y036727D01*
Y036673D01*
X079088Y036637D01*
X078983Y036557D01*
X078903Y036452D01*
X078853Y036331D01*
X078836Y036200D01*
X078853Y036069D01*
X078903Y035948D01*
X078983Y035843D01*
X079088Y035763D01*
X079175Y035727D01*
Y035673D01*
X079088Y035637D01*
X078983Y035557D01*
X078903Y035452D01*
X078853Y035331D01*
X078836Y035200D01*
X078853Y035069D01*
X078903Y034948D01*
X078983Y034843D01*
X079088Y034763D01*
X079175Y034727D01*
Y034673D01*
X079088Y034637D01*
X078983Y034557D01*
X078903Y034452D01*
X078853Y034331D01*
X078842Y034251D01*
X078790Y034237D01*
X078757Y034280D01*
X078654Y034360D01*
X078534Y034409D01*
X078405Y034426D01*
X078276Y034409D01*
X078156Y034360D01*
X078065Y034290D01*
X078015Y034308D01*
Y037587D01*
X078827Y038399D01*
X078869Y038370D01*
D02*
G37*
G36*
X069876Y017436D02*
X069890Y017425D01*
Y017375D01*
X069876Y017364D01*
X069829Y017303D01*
X067535D01*
X067532Y017353D01*
X067568Y017358D01*
X067641Y017388D01*
X067704Y017436D01*
X067751Y017497D01*
X069829D01*
X069876Y017436D01*
D02*
G37*
D18*
X070740Y028050D02*
Y037050D01*
Y028050D02*
X071290Y027500D01*
X069490Y035450D02*
X070540Y034400D01*
Y027250D02*
Y034400D01*
X071890Y024500D02*
Y034500D01*
X063940Y034049D02*
Y036200D01*
X060991Y031100D02*
X063940Y034049D01*
X069590Y012300D02*
X070090Y012800D01*
Y016550D01*
X062890Y014100D02*
X064990Y012000D01*
X062890Y014100D02*
Y028500D01*
X071890Y024500D02*
X072440Y023950D01*
Y024950D02*
Y033200D01*
X060990Y031100D02*
X060991D01*
X060990Y023500D02*
Y031100D01*
X064590Y018650D02*
X066090Y017150D01*
X064590Y018650D02*
Y024750D01*
X066090Y017150D02*
X070090D01*
X065340Y018950D02*
Y024500D01*
X076090Y029700D02*
Y035100D01*
Y029700D02*
X077290Y028500D01*
X076640Y030150D02*
Y036650D01*
Y030150D02*
X077290Y029500D01*
X070540Y027250D02*
X071290Y026500D01*
X060090Y023150D02*
Y030500D01*
X077290Y031500D02*
Y035900D01*
X071690Y011200D02*
X072590Y010300D01*
X071690Y011200D02*
Y014100D01*
X071790Y019500D02*
X072040Y019250D01*
Y015600D02*
Y019250D01*
Y015600D02*
X074440Y013200D01*
X070613Y018050D02*
X070640D01*
X067413Y021250D02*
X070613Y018050D01*
X067490Y017650D02*
X070090D01*
X076790Y015850D02*
Y019500D01*
Y015850D02*
X079440Y013200D01*
X075790Y015850D02*
X078440Y013200D01*
X075790Y015850D02*
Y019500D01*
X074790Y015850D02*
Y019500D01*
Y015850D02*
X077440Y013200D01*
X073790Y015850D02*
X076440Y013200D01*
X073790Y015850D02*
Y019500D01*
X072790Y015850D02*
Y019500D01*
Y015850D02*
X075440Y013200D01*
D20*
X078490Y031350D02*
Y032950D01*
X077811Y033629D02*
X078490Y032950D01*
X077811Y033629D02*
Y037671D01*
X079340Y039200D01*
X070340Y018953D02*
Y022550D01*
X071540Y014250D02*
X071690Y014100D01*
X071540Y014250D02*
Y017753D01*
X070340Y018953D02*
X071540Y017753D01*
X070340Y022550D02*
X071290Y023500D01*
D24*
X064340Y016500D02*
X068740D01*
X057890D02*
Y021300D01*
X057438Y036102D02*
Y043948D01*
Y036102D02*
X058240Y035300D01*
X064740Y040814D02*
Y043950D01*
Y040764D02*
X064934Y040570D01*
Y039694D02*
Y040570D01*
D25*
X072590Y012300D02*
D03*
X069590D02*
D03*
X072590Y010300D02*
D03*
X069590D02*
D03*
X070690Y014100D02*
D03*
X071690D02*
D03*
X072690D02*
D03*
D26*
X081340Y015200D02*
D03*
D27*
X082340D02*
D03*
X081340Y016200D02*
D03*
X082340D02*
D03*
X081340Y017200D02*
D03*
X082340D02*
D03*
X081340Y018200D02*
D03*
X082340D02*
D03*
X081340Y019200D02*
D03*
X082340D02*
D03*
X081340Y020200D02*
D03*
X082340D02*
D03*
X081340Y021200D02*
D03*
X082340D02*
D03*
X081340Y022200D02*
D03*
X082340D02*
D03*
X081340Y023200D02*
D03*
X082340D02*
D03*
X081340Y024200D02*
D03*
X082340D02*
D03*
X081340Y025200D02*
D03*
X082340D02*
D03*
X081340Y026200D02*
D03*
X082340D02*
D03*
X081340Y027200D02*
D03*
X082340D02*
D03*
X081340Y028200D02*
D03*
X082340D02*
D03*
X081340Y029200D02*
D03*
X082340D02*
D03*
X081340Y030200D02*
D03*
X082340D02*
D03*
X081340Y031200D02*
D03*
X082340D02*
D03*
X081340Y032200D02*
D03*
X082340D02*
D03*
X081340Y033200D02*
D03*
X082340D02*
D03*
X081340Y034200D02*
D03*
X082340D02*
D03*
X081340Y035200D02*
D03*
X082340D02*
D03*
X081340Y036200D02*
D03*
X082340D02*
D03*
X081340Y037200D02*
D03*
X082340D02*
D03*
Y040200D02*
D03*
X081340D02*
D03*
X080340Y015200D02*
D03*
X079340Y016200D02*
D03*
X080340D02*
D03*
X079340Y017200D02*
D03*
X080340D02*
D03*
X079340Y018200D02*
D03*
X080340D02*
D03*
X079340Y019200D02*
D03*
X080340D02*
D03*
X079340Y020200D02*
D03*
X080340D02*
D03*
X079340Y021200D02*
D03*
X080340D02*
D03*
X079340Y022200D02*
D03*
X080340D02*
D03*
X079340Y023200D02*
D03*
X080340D02*
D03*
X079340Y024200D02*
D03*
X080340D02*
D03*
X079340Y025200D02*
D03*
X080340D02*
D03*
X079340Y026200D02*
D03*
X080340D02*
D03*
X079340Y027200D02*
D03*
X080340D02*
D03*
X079340Y028200D02*
D03*
X080340D02*
D03*
X079340Y029200D02*
D03*
X080340D02*
D03*
X079340Y030200D02*
D03*
X080340D02*
D03*
X079340Y031200D02*
D03*
X080340D02*
D03*
X079340Y032200D02*
D03*
X080340D02*
D03*
X079340Y033200D02*
D03*
X080340D02*
D03*
X079340Y034200D02*
D03*
X080340D02*
D03*
X079340Y035200D02*
D03*
X080340D02*
D03*
X079340Y036200D02*
D03*
X080340D02*
D03*
X079340Y037200D02*
D03*
X080340D02*
D03*
X079340Y038200D02*
D03*
X080340D02*
D03*
X079340Y039200D02*
D03*
X080340D02*
D03*
Y040200D02*
D03*
X079340D02*
D03*
X071790Y019500D02*
D03*
X072790D02*
D03*
X073790D02*
D03*
X074790D02*
D03*
X075790D02*
D03*
X076790D02*
D03*
X072440Y024950D02*
D03*
Y023950D02*
D03*
X071290Y031500D02*
D03*
Y030500D02*
D03*
Y029500D02*
D03*
Y028500D02*
D03*
Y027500D02*
D03*
Y026500D02*
D03*
Y025500D02*
D03*
Y024500D02*
D03*
Y023500D02*
D03*
Y022500D02*
D03*
Y021500D02*
D03*
Y020500D02*
D03*
X077290Y031500D02*
D03*
Y030500D02*
D03*
Y029500D02*
D03*
Y028500D02*
D03*
Y027500D02*
D03*
Y026500D02*
D03*
Y025500D02*
D03*
Y024500D02*
D03*
Y023500D02*
D03*
Y022500D02*
D03*
Y021500D02*
D03*
Y020500D02*
D03*
D28*
X081340Y038200D02*
D03*
X082340D02*
D03*
X081340Y039200D02*
D03*
X082340D02*
D03*
D29*
X079340Y015200D02*
D03*
D30*
X077440Y013200D02*
D03*
X078440Y013200D02*
D03*
X076440Y013200D02*
D03*
X075440Y013200D02*
D03*
X074440Y013200D02*
D03*
X076790Y041000D02*
D03*
X077790Y041000D02*
D03*
D31*
X079440Y013200D02*
D03*
X075790Y041000D02*
D03*
D32*
X062940Y011623D02*
D03*
Y012450D02*
D03*
X064940Y012623D02*
D03*
Y013450D02*
D03*
Y010473D02*
D03*
Y011300D02*
D03*
D33*
X083340Y041340D02*
D03*
Y043100D02*
D03*
X084040Y041750D02*
D03*
Y042700D02*
D03*
X082590Y041750D02*
D03*
Y042700D02*
D03*
X063690Y018600D02*
D03*
X062090D02*
D03*
X063690Y019450D02*
D03*
X062090D02*
D03*
Y020300D02*
D03*
X063690D02*
D03*
X067840Y038750D02*
D03*
X070740Y037050D02*
D03*
X070090Y016550D02*
D03*
X064990Y012000D02*
D03*
X062890Y028500D02*
D03*
X071890Y034500D02*
D03*
X072440Y033200D02*
D03*
X078490Y031350D02*
D03*
X063940Y036200D02*
D03*
X060990Y031100D02*
D03*
Y023500D02*
D03*
X065340Y018950D02*
D03*
Y024500D02*
D03*
X076090Y035100D02*
D03*
X069490Y035450D02*
D03*
X061990Y036050D02*
D03*
X076640Y036650D02*
D03*
X064590Y024750D02*
D03*
X070090Y017150D02*
D03*
X060090Y023150D02*
D03*
Y030500D02*
D03*
X077290Y035900D02*
D03*
X057890Y016500D02*
D03*
X064340D02*
D03*
X068740D02*
D03*
X068640Y015950D02*
D03*
X057890Y021300D02*
D03*
X057438Y043948D02*
D03*
X058240Y035300D02*
D03*
X064740Y043950D02*
D03*
X064934Y039694D02*
D03*
X056901Y024745D02*
D03*
X070640Y018050D02*
D03*
X070090Y017650D02*
D03*
X067790Y021700D02*
D03*
X067413Y021250D02*
D03*
X067490Y017650D02*
D03*
X059140Y031900D02*
D03*
X061190Y034700D02*
D03*
X058490Y036550D02*
D03*
X068390Y039900D02*
D03*
X065840Y036300D02*
D03*
X065190Y040950D02*
D03*
X055740Y025350D02*
D03*
X059340Y022800D02*
D03*
X054690Y022150D02*
D03*
X065213Y017500D02*
D03*
X065713Y018300D02*
D03*
X082540Y012700D02*
D03*
Y013700D02*
D03*
X084140Y012700D02*
D03*
Y013700D02*
D03*
X083340Y012250D02*
D03*
Y014150D02*
D03*
X048790Y011200D02*
D03*
Y012200D02*
D03*
X050390Y011200D02*
D03*
Y012200D02*
D03*
X049590Y010750D02*
D03*
Y012650D02*
D03*
X048790Y042690D02*
D03*
Y043690D02*
D03*
X050390Y042690D02*
D03*
Y043690D02*
D03*
X049590Y042240D02*
D03*
Y044140D02*
D03*
D34*
X083340Y042200D02*
D03*
D35*
X049590Y043200D02*
D03*
Y011700D02*
D03*
X083340Y013200D02*
D03*
D36*
X068074Y010523D02*
D03*
Y025877D02*
D03*
X078405Y033928D02*
D03*
X063051D02*
D03*
X058673Y042220D02*
D03*
Y026865D02*
D03*
X048377Y022495D02*
D03*
X063732D02*
D03*
D37*
X050840Y022495D02*
D03*
X058673Y039900D02*
D03*
X065540Y033928D02*
D03*
X068074Y012850D02*
D03*
M02*
