G04 Layer_Color=2752767*
%FSAX24Y24*%
%MOIN*%
G70*
G01*
G75*
%ADD68C,0.0020*%
%ADD69C,0.0027*%
D68*
X072510Y012220D02*
Y012380D01*
X072670D01*
Y012220D01*
X072510D01*
X069510D02*
Y012380D01*
X069670D01*
Y012220D01*
X069510D01*
X072510Y010220D02*
Y010380D01*
X072670D01*
Y010220D01*
X072510D01*
X069510D02*
Y010380D01*
X069670D01*
Y010220D01*
X069510D01*
X062940Y011543D02*
X062860Y011703D01*
X063020D01*
X062940Y011543D01*
Y012370D02*
X062860Y012530D01*
X063020D01*
X062940Y012370D01*
X064940Y012543D02*
X064860Y012703D01*
X065020D01*
X064940Y012543D01*
Y013370D02*
X064860Y013530D01*
X065020D01*
X064940Y013370D01*
Y010393D02*
X064860Y010553D01*
X065020D01*
X064940Y010393D01*
Y011220D02*
X064860Y011380D01*
X065020D01*
X064940Y011220D01*
X070610Y014020D02*
Y014180D01*
X070770D01*
Y014020D01*
X070610D01*
X071610D02*
Y014180D01*
X071770D01*
Y014020D01*
X071610D01*
X072610D02*
Y014180D01*
X072770D01*
Y014020D01*
X072610D01*
X083340Y041260D02*
X083380Y041300D01*
X083420D01*
X083380Y041340D01*
X083420Y041380D01*
X083380D01*
X083340Y041420D01*
X083300Y041380D01*
X083260D01*
X083300Y041340D01*
X083260Y041300D01*
X083300D01*
X083340Y041260D01*
Y043020D02*
X083380Y043060D01*
X083420D01*
X083380Y043100D01*
X083420Y043140D01*
X083380D01*
X083340Y043180D01*
X083300Y043140D01*
X083260D01*
X083300Y043100D01*
X083260Y043060D01*
X083300D01*
X083340Y043020D01*
X084040Y041670D02*
X084080Y041710D01*
X084120D01*
X084080Y041750D01*
X084120Y041790D01*
X084080D01*
X084040Y041830D01*
X084000Y041790D01*
X083960D01*
X084000Y041750D01*
X083960Y041710D01*
X084000D01*
X084040Y041670D01*
Y042620D02*
X084080Y042660D01*
X084120D01*
X084080Y042700D01*
X084120Y042740D01*
X084080D01*
X084040Y042780D01*
X084000Y042740D01*
X083960D01*
X084000Y042700D01*
X083960Y042660D01*
X084000D01*
X084040Y042620D01*
X082590Y041670D02*
X082630Y041710D01*
X082670D01*
X082630Y041750D01*
X082670Y041790D01*
X082630D01*
X082590Y041830D01*
X082550Y041790D01*
X082510D01*
X082550Y041750D01*
X082510Y041710D01*
X082550D01*
X082590Y041670D01*
Y042620D02*
X082630Y042660D01*
X082670D01*
X082630Y042700D01*
X082670Y042740D01*
X082630D01*
X082590Y042780D01*
X082550Y042740D01*
X082510D01*
X082550Y042700D01*
X082510Y042660D01*
X082550D01*
X082590Y042620D01*
X063690Y018520D02*
X063730Y018560D01*
X063770D01*
X063730Y018600D01*
X063770Y018640D01*
X063730D01*
X063690Y018680D01*
X063650Y018640D01*
X063610D01*
X063650Y018600D01*
X063610Y018560D01*
X063650D01*
X063690Y018520D01*
X062090D02*
X062130Y018560D01*
X062170D01*
X062130Y018600D01*
X062170Y018640D01*
X062130D01*
X062090Y018680D01*
X062050Y018640D01*
X062010D01*
X062050Y018600D01*
X062010Y018560D01*
X062050D01*
X062090Y018520D01*
X063690Y019370D02*
X063730Y019410D01*
X063770D01*
X063730Y019450D01*
X063770Y019490D01*
X063730D01*
X063690Y019530D01*
X063650Y019490D01*
X063610D01*
X063650Y019450D01*
X063610Y019410D01*
X063650D01*
X063690Y019370D01*
X062090D02*
X062130Y019410D01*
X062170D01*
X062130Y019450D01*
X062170Y019490D01*
X062130D01*
X062090Y019530D01*
X062050Y019490D01*
X062010D01*
X062050Y019450D01*
X062010Y019410D01*
X062050D01*
X062090Y019370D01*
Y020220D02*
X062130Y020260D01*
X062170D01*
X062130Y020300D01*
X062170Y020340D01*
X062130D01*
X062090Y020380D01*
X062050Y020340D01*
X062010D01*
X062050Y020300D01*
X062010Y020260D01*
X062050D01*
X062090Y020220D01*
X063690D02*
X063730Y020260D01*
X063770D01*
X063730Y020300D01*
X063770Y020340D01*
X063730D01*
X063690Y020380D01*
X063650Y020340D01*
X063610D01*
X063650Y020300D01*
X063610Y020260D01*
X063650D01*
X063690Y020220D01*
X067840Y038670D02*
X067880Y038710D01*
X067920D01*
X067880Y038750D01*
X067920Y038790D01*
X067880D01*
X067840Y038830D01*
X067800Y038790D01*
X067760D01*
X067800Y038750D01*
X067760Y038710D01*
X067800D01*
X067840Y038670D01*
X070740Y036970D02*
X070780Y037010D01*
X070820D01*
X070780Y037050D01*
X070820Y037090D01*
X070780D01*
X070740Y037130D01*
X070700Y037090D01*
X070660D01*
X070700Y037050D01*
X070660Y037010D01*
X070700D01*
X070740Y036970D01*
X070090Y016470D02*
X070130Y016510D01*
X070170D01*
X070130Y016550D01*
X070170Y016590D01*
X070130D01*
X070090Y016630D01*
X070050Y016590D01*
X070010D01*
X070050Y016550D01*
X070010Y016510D01*
X070050D01*
X070090Y016470D01*
X064990Y011920D02*
X065030Y011960D01*
X065070D01*
X065030Y012000D01*
X065070Y012040D01*
X065030D01*
X064990Y012080D01*
X064950Y012040D01*
X064910D01*
X064950Y012000D01*
X064910Y011960D01*
X064950D01*
X064990Y011920D01*
X062890Y028420D02*
X062930Y028460D01*
X062970D01*
X062930Y028500D01*
X062970Y028540D01*
X062930D01*
X062890Y028580D01*
X062850Y028540D01*
X062810D01*
X062850Y028500D01*
X062810Y028460D01*
X062850D01*
X062890Y028420D01*
X071890Y034420D02*
X071930Y034460D01*
X071970D01*
X071930Y034500D01*
X071970Y034540D01*
X071930D01*
X071890Y034580D01*
X071850Y034540D01*
X071810D01*
X071850Y034500D01*
X071810Y034460D01*
X071850D01*
X071890Y034420D01*
X072440Y033120D02*
X072480Y033160D01*
X072520D01*
X072480Y033200D01*
X072520Y033240D01*
X072480D01*
X072440Y033280D01*
X072400Y033240D01*
X072360D01*
X072400Y033200D01*
X072360Y033160D01*
X072400D01*
X072440Y033120D01*
X078490Y031270D02*
X078530Y031310D01*
X078570D01*
X078530Y031350D01*
X078570Y031390D01*
X078530D01*
X078490Y031430D01*
X078450Y031390D01*
X078410D01*
X078450Y031350D01*
X078410Y031310D01*
X078450D01*
X078490Y031270D01*
X063940Y036120D02*
X063980Y036160D01*
X064020D01*
X063980Y036200D01*
X064020Y036240D01*
X063980D01*
X063940Y036280D01*
X063900Y036240D01*
X063860D01*
X063900Y036200D01*
X063860Y036160D01*
X063900D01*
X063940Y036120D01*
X060990Y031020D02*
X061030Y031060D01*
X061070D01*
X061030Y031100D01*
X061070Y031140D01*
X061030D01*
X060990Y031180D01*
X060950Y031140D01*
X060910D01*
X060950Y031100D01*
X060910Y031060D01*
X060950D01*
X060990Y031020D01*
Y023420D02*
X061030Y023460D01*
X061070D01*
X061030Y023500D01*
X061070Y023540D01*
X061030D01*
X060990Y023580D01*
X060950Y023540D01*
X060910D01*
X060950Y023500D01*
X060910Y023460D01*
X060950D01*
X060990Y023420D01*
X065340Y018870D02*
X065380Y018910D01*
X065420D01*
X065380Y018950D01*
X065420Y018990D01*
X065380D01*
X065340Y019030D01*
X065300Y018990D01*
X065260D01*
X065300Y018950D01*
X065260Y018910D01*
X065300D01*
X065340Y018870D01*
Y024420D02*
X065380Y024460D01*
X065420D01*
X065380Y024500D01*
X065420Y024540D01*
X065380D01*
X065340Y024580D01*
X065300Y024540D01*
X065260D01*
X065300Y024500D01*
X065260Y024460D01*
X065300D01*
X065340Y024420D01*
X076090Y035020D02*
X076130Y035060D01*
X076170D01*
X076130Y035100D01*
X076170Y035140D01*
X076130D01*
X076090Y035180D01*
X076050Y035140D01*
X076010D01*
X076050Y035100D01*
X076010Y035060D01*
X076050D01*
X076090Y035020D01*
X069490Y035370D02*
X069530Y035410D01*
X069570D01*
X069530Y035450D01*
X069570Y035490D01*
X069530D01*
X069490Y035530D01*
X069450Y035490D01*
X069410D01*
X069450Y035450D01*
X069410Y035410D01*
X069450D01*
X069490Y035370D01*
X061990Y035970D02*
X062030Y036010D01*
X062070D01*
X062030Y036050D01*
X062070Y036090D01*
X062030D01*
X061990Y036130D01*
X061950Y036090D01*
X061910D01*
X061950Y036050D01*
X061910Y036010D01*
X061950D01*
X061990Y035970D01*
X076640Y036570D02*
X076680Y036610D01*
X076720D01*
X076680Y036650D01*
X076720Y036690D01*
X076680D01*
X076640Y036730D01*
X076600Y036690D01*
X076560D01*
X076600Y036650D01*
X076560Y036610D01*
X076600D01*
X076640Y036570D01*
X064590Y024670D02*
X064630Y024710D01*
X064670D01*
X064630Y024750D01*
X064670Y024790D01*
X064630D01*
X064590Y024830D01*
X064550Y024790D01*
X064510D01*
X064550Y024750D01*
X064510Y024710D01*
X064550D01*
X064590Y024670D01*
X070090Y017070D02*
X070130Y017110D01*
X070170D01*
X070130Y017150D01*
X070170Y017190D01*
X070130D01*
X070090Y017230D01*
X070050Y017190D01*
X070010D01*
X070050Y017150D01*
X070010Y017110D01*
X070050D01*
X070090Y017070D01*
X060090Y023070D02*
X060130Y023110D01*
X060170D01*
X060130Y023150D01*
X060170Y023190D01*
X060130D01*
X060090Y023230D01*
X060050Y023190D01*
X060010D01*
X060050Y023150D01*
X060010Y023110D01*
X060050D01*
X060090Y023070D01*
Y030420D02*
X060130Y030460D01*
X060170D01*
X060130Y030500D01*
X060170Y030540D01*
X060130D01*
X060090Y030580D01*
X060050Y030540D01*
X060010D01*
X060050Y030500D01*
X060010Y030460D01*
X060050D01*
X060090Y030420D01*
X077290Y035820D02*
X077330Y035860D01*
X077370D01*
X077330Y035900D01*
X077370Y035940D01*
X077330D01*
X077290Y035980D01*
X077250Y035940D01*
X077210D01*
X077250Y035900D01*
X077210Y035860D01*
X077250D01*
X077290Y035820D01*
X057890Y016420D02*
X057930Y016460D01*
X057970D01*
X057930Y016500D01*
X057970Y016540D01*
X057930D01*
X057890Y016580D01*
X057850Y016540D01*
X057810D01*
X057850Y016500D01*
X057810Y016460D01*
X057850D01*
X057890Y016420D01*
X064340D02*
X064380Y016460D01*
X064420D01*
X064380Y016500D01*
X064420Y016540D01*
X064380D01*
X064340Y016580D01*
X064300Y016540D01*
X064260D01*
X064300Y016500D01*
X064260Y016460D01*
X064300D01*
X064340Y016420D01*
X068740D02*
X068780Y016460D01*
X068820D01*
X068780Y016500D01*
X068820Y016540D01*
X068780D01*
X068740Y016580D01*
X068700Y016540D01*
X068660D01*
X068700Y016500D01*
X068660Y016460D01*
X068700D01*
X068740Y016420D01*
X068640Y015870D02*
X068680Y015910D01*
X068720D01*
X068680Y015950D01*
X068720Y015990D01*
X068680D01*
X068640Y016030D01*
X068600Y015990D01*
X068560D01*
X068600Y015950D01*
X068560Y015910D01*
X068600D01*
X068640Y015870D01*
X057890Y021220D02*
X057930Y021260D01*
X057970D01*
X057930Y021300D01*
X057970Y021340D01*
X057930D01*
X057890Y021380D01*
X057850Y021340D01*
X057810D01*
X057850Y021300D01*
X057810Y021260D01*
X057850D01*
X057890Y021220D01*
X057438Y043868D02*
X057478Y043908D01*
X057518D01*
X057478Y043948D01*
X057518Y043988D01*
X057478D01*
X057438Y044028D01*
X057398Y043988D01*
X057358D01*
X057398Y043948D01*
X057358Y043908D01*
X057398D01*
X057438Y043868D01*
X058240Y035220D02*
X058280Y035260D01*
X058320D01*
X058280Y035300D01*
X058320Y035340D01*
X058280D01*
X058240Y035380D01*
X058200Y035340D01*
X058160D01*
X058200Y035300D01*
X058160Y035260D01*
X058200D01*
X058240Y035220D01*
X064740Y043870D02*
X064780Y043910D01*
X064820D01*
X064780Y043950D01*
X064820Y043990D01*
X064780D01*
X064740Y044030D01*
X064700Y043990D01*
X064660D01*
X064700Y043950D01*
X064660Y043910D01*
X064700D01*
X064740Y043870D01*
X064934Y039614D02*
X064974Y039654D01*
X065014D01*
X064974Y039694D01*
X065014Y039734D01*
X064974D01*
X064934Y039774D01*
X064894Y039734D01*
X064854D01*
X064894Y039694D01*
X064854Y039654D01*
X064894D01*
X064934Y039614D01*
X056901Y024665D02*
X056941Y024705D01*
X056981D01*
X056941Y024745D01*
X056981Y024785D01*
X056941D01*
X056901Y024825D01*
X056861Y024785D01*
X056821D01*
X056861Y024745D01*
X056821Y024705D01*
X056861D01*
X056901Y024665D01*
X070640Y017970D02*
X070680Y018010D01*
X070720D01*
X070680Y018050D01*
X070720Y018090D01*
X070680D01*
X070640Y018130D01*
X070600Y018090D01*
X070560D01*
X070600Y018050D01*
X070560Y018010D01*
X070600D01*
X070640Y017970D01*
X070090Y017570D02*
X070130Y017610D01*
X070170D01*
X070130Y017650D01*
X070170Y017690D01*
X070130D01*
X070090Y017730D01*
X070050Y017690D01*
X070010D01*
X070050Y017650D01*
X070010Y017610D01*
X070050D01*
X070090Y017570D01*
X067790Y021620D02*
X067830Y021660D01*
X067870D01*
X067830Y021700D01*
X067870Y021740D01*
X067830D01*
X067790Y021780D01*
X067750Y021740D01*
X067710D01*
X067750Y021700D01*
X067710Y021660D01*
X067750D01*
X067790Y021620D01*
X067413Y021170D02*
X067453Y021210D01*
X067493D01*
X067453Y021250D01*
X067493Y021290D01*
X067453D01*
X067413Y021330D01*
X067373Y021290D01*
X067333D01*
X067373Y021250D01*
X067333Y021210D01*
X067373D01*
X067413Y021170D01*
X067490Y017570D02*
X067530Y017610D01*
X067570D01*
X067530Y017650D01*
X067570Y017690D01*
X067530D01*
X067490Y017730D01*
X067450Y017690D01*
X067410D01*
X067450Y017650D01*
X067410Y017610D01*
X067450D01*
X067490Y017570D01*
X059140Y031820D02*
X059180Y031860D01*
X059220D01*
X059180Y031900D01*
X059220Y031940D01*
X059180D01*
X059140Y031980D01*
X059100Y031940D01*
X059060D01*
X059100Y031900D01*
X059060Y031860D01*
X059100D01*
X059140Y031820D01*
X061190Y034620D02*
X061230Y034660D01*
X061270D01*
X061230Y034700D01*
X061270Y034740D01*
X061230D01*
X061190Y034780D01*
X061150Y034740D01*
X061110D01*
X061150Y034700D01*
X061110Y034660D01*
X061150D01*
X061190Y034620D01*
X058490Y036470D02*
X058530Y036510D01*
X058570D01*
X058530Y036550D01*
X058570Y036590D01*
X058530D01*
X058490Y036630D01*
X058450Y036590D01*
X058410D01*
X058450Y036550D01*
X058410Y036510D01*
X058450D01*
X058490Y036470D01*
X068390Y039820D02*
X068430Y039860D01*
X068470D01*
X068430Y039900D01*
X068470Y039940D01*
X068430D01*
X068390Y039980D01*
X068350Y039940D01*
X068310D01*
X068350Y039900D01*
X068310Y039860D01*
X068350D01*
X068390Y039820D01*
X065840Y036220D02*
X065880Y036260D01*
X065920D01*
X065880Y036300D01*
X065920Y036340D01*
X065880D01*
X065840Y036380D01*
X065800Y036340D01*
X065760D01*
X065800Y036300D01*
X065760Y036260D01*
X065800D01*
X065840Y036220D01*
X065190Y040870D02*
X065230Y040910D01*
X065270D01*
X065230Y040950D01*
X065270Y040990D01*
X065230D01*
X065190Y041030D01*
X065150Y040990D01*
X065110D01*
X065150Y040950D01*
X065110Y040910D01*
X065150D01*
X065190Y040870D01*
X055740Y025270D02*
X055780Y025310D01*
X055820D01*
X055780Y025350D01*
X055820Y025390D01*
X055780D01*
X055740Y025430D01*
X055700Y025390D01*
X055660D01*
X055700Y025350D01*
X055660Y025310D01*
X055700D01*
X055740Y025270D01*
X059340Y022720D02*
X059380Y022760D01*
X059420D01*
X059380Y022800D01*
X059420Y022840D01*
X059380D01*
X059340Y022880D01*
X059300Y022840D01*
X059260D01*
X059300Y022800D01*
X059260Y022760D01*
X059300D01*
X059340Y022720D01*
X054690Y022070D02*
X054730Y022110D01*
X054770D01*
X054730Y022150D01*
X054770Y022190D01*
X054730D01*
X054690Y022230D01*
X054650Y022190D01*
X054610D01*
X054650Y022150D01*
X054610Y022110D01*
X054650D01*
X054690Y022070D01*
X065213Y017420D02*
X065253Y017460D01*
X065293D01*
X065253Y017500D01*
X065293Y017540D01*
X065253D01*
X065213Y017580D01*
X065173Y017540D01*
X065133D01*
X065173Y017500D01*
X065133Y017460D01*
X065173D01*
X065213Y017420D01*
X065713Y018220D02*
X065753Y018260D01*
X065793D01*
X065753Y018300D01*
X065793Y018340D01*
X065753D01*
X065713Y018380D01*
X065673Y018340D01*
X065633D01*
X065673Y018300D01*
X065633Y018260D01*
X065673D01*
X065713Y018220D01*
X083260Y042120D02*
X083300Y042200D01*
X083260Y042280D01*
X083340Y042240D01*
X083420Y042280D01*
X083380Y042200D01*
X083420Y042120D01*
X083340Y042160D01*
X083260Y042120D01*
X049510Y043120D02*
X049550Y043200D01*
X049510Y043280D01*
X049590Y043240D01*
X049670Y043280D01*
X049630Y043200D01*
X049670Y043120D01*
X049590Y043160D01*
X049510Y043120D01*
Y011620D02*
X049550Y011700D01*
X049510Y011780D01*
X049590Y011740D01*
X049670Y011780D01*
X049630Y011700D01*
X049670Y011620D01*
X049590Y011660D01*
X049510Y011620D01*
X083260Y013120D02*
X083300Y013200D01*
X083260Y013280D01*
X083340Y013240D01*
X083420Y013280D01*
X083380Y013200D01*
X083420Y013120D01*
X083340Y013160D01*
X083260Y013120D01*
X082540Y012620D02*
X082580Y012660D01*
X082620D01*
X082580Y012700D01*
X082620Y012740D01*
X082580D01*
X082540Y012780D01*
X082500Y012740D01*
X082460D01*
X082500Y012700D01*
X082460Y012660D01*
X082500D01*
X082540Y012620D01*
Y013620D02*
X082580Y013660D01*
X082620D01*
X082580Y013700D01*
X082620Y013740D01*
X082580D01*
X082540Y013780D01*
X082500Y013740D01*
X082460D01*
X082500Y013700D01*
X082460Y013660D01*
X082500D01*
X082540Y013620D01*
X084140Y012620D02*
X084180Y012660D01*
X084220D01*
X084180Y012700D01*
X084220Y012740D01*
X084180D01*
X084140Y012780D01*
X084100Y012740D01*
X084060D01*
X084100Y012700D01*
X084060Y012660D01*
X084100D01*
X084140Y012620D01*
Y013620D02*
X084180Y013660D01*
X084220D01*
X084180Y013700D01*
X084220Y013740D01*
X084180D01*
X084140Y013780D01*
X084100Y013740D01*
X084060D01*
X084100Y013700D01*
X084060Y013660D01*
X084100D01*
X084140Y013620D01*
X083340Y012170D02*
X083380Y012210D01*
X083420D01*
X083380Y012250D01*
X083420Y012290D01*
X083380D01*
X083340Y012330D01*
X083300Y012290D01*
X083260D01*
X083300Y012250D01*
X083260Y012210D01*
X083300D01*
X083340Y012170D01*
Y014070D02*
X083380Y014110D01*
X083420D01*
X083380Y014150D01*
X083420Y014190D01*
X083380D01*
X083340Y014230D01*
X083300Y014190D01*
X083260D01*
X083300Y014150D01*
X083260Y014110D01*
X083300D01*
X083340Y014070D01*
X048790Y011120D02*
X048830Y011160D01*
X048870D01*
X048830Y011200D01*
X048870Y011240D01*
X048830D01*
X048790Y011280D01*
X048750Y011240D01*
X048710D01*
X048750Y011200D01*
X048710Y011160D01*
X048750D01*
X048790Y011120D01*
Y012120D02*
X048830Y012160D01*
X048870D01*
X048830Y012200D01*
X048870Y012240D01*
X048830D01*
X048790Y012280D01*
X048750Y012240D01*
X048710D01*
X048750Y012200D01*
X048710Y012160D01*
X048750D01*
X048790Y012120D01*
X050390Y011120D02*
X050430Y011160D01*
X050470D01*
X050430Y011200D01*
X050470Y011240D01*
X050430D01*
X050390Y011280D01*
X050350Y011240D01*
X050310D01*
X050350Y011200D01*
X050310Y011160D01*
X050350D01*
X050390Y011120D01*
Y012120D02*
X050430Y012160D01*
X050470D01*
X050430Y012200D01*
X050470Y012240D01*
X050430D01*
X050390Y012280D01*
X050350Y012240D01*
X050310D01*
X050350Y012200D01*
X050310Y012160D01*
X050350D01*
X050390Y012120D01*
X049590Y010670D02*
X049630Y010710D01*
X049670D01*
X049630Y010750D01*
X049670Y010790D01*
X049630D01*
X049590Y010830D01*
X049550Y010790D01*
X049510D01*
X049550Y010750D01*
X049510Y010710D01*
X049550D01*
X049590Y010670D01*
Y012570D02*
X049630Y012610D01*
X049670D01*
X049630Y012650D01*
X049670Y012690D01*
X049630D01*
X049590Y012730D01*
X049550Y012690D01*
X049510D01*
X049550Y012650D01*
X049510Y012610D01*
X049550D01*
X049590Y012570D01*
X048790Y042610D02*
X048830Y042650D01*
X048870D01*
X048830Y042690D01*
X048870Y042730D01*
X048830D01*
X048790Y042770D01*
X048750Y042730D01*
X048710D01*
X048750Y042690D01*
X048710Y042650D01*
X048750D01*
X048790Y042610D01*
Y043610D02*
X048830Y043650D01*
X048870D01*
X048830Y043690D01*
X048870Y043730D01*
X048830D01*
X048790Y043770D01*
X048750Y043730D01*
X048710D01*
X048750Y043690D01*
X048710Y043650D01*
X048750D01*
X048790Y043610D01*
X050390Y042610D02*
X050430Y042650D01*
X050470D01*
X050430Y042690D01*
X050470Y042730D01*
X050430D01*
X050390Y042770D01*
X050350Y042730D01*
X050310D01*
X050350Y042690D01*
X050310Y042650D01*
X050350D01*
X050390Y042610D01*
Y043610D02*
X050430Y043650D01*
X050470D01*
X050430Y043690D01*
X050470Y043730D01*
X050430D01*
X050390Y043770D01*
X050350Y043730D01*
X050310D01*
X050350Y043690D01*
X050310Y043650D01*
X050350D01*
X050390Y043610D01*
X049590Y042160D02*
X049630Y042200D01*
X049670D01*
X049630Y042240D01*
X049670Y042280D01*
X049630D01*
X049590Y042320D01*
X049550Y042280D01*
X049510D01*
X049550Y042240D01*
X049510Y042200D01*
X049550D01*
X049590Y042160D01*
Y044060D02*
X049630Y044100D01*
X049670D01*
X049630Y044140D01*
X049670Y044180D01*
X049630D01*
X049590Y044220D01*
X049550Y044180D01*
X049510D01*
X049550Y044140D01*
X049510Y044100D01*
X049550D01*
X049590Y044060D01*
X068034Y010483D02*
Y010443D01*
X068114D01*
Y010483D01*
X068154D01*
Y010563D01*
X068114D01*
Y010603D01*
X068034D01*
Y010563D01*
X067994D01*
Y010483D01*
X068034D01*
Y025837D02*
Y025797D01*
X068114D01*
Y025837D01*
X068154D01*
Y025917D01*
X068114D01*
Y025957D01*
X068034D01*
Y025917D01*
X067994D01*
Y025837D01*
X068034D01*
X078365Y033888D02*
Y033848D01*
X078445D01*
Y033888D01*
X078485D01*
Y033968D01*
X078445D01*
Y034008D01*
X078365D01*
Y033968D01*
X078325D01*
Y033888D01*
X078365D01*
X063011D02*
Y033848D01*
X063091D01*
Y033888D01*
X063131D01*
Y033968D01*
X063091D01*
Y034008D01*
X063011D01*
Y033968D01*
X062971D01*
Y033888D01*
X063011D01*
X058633Y042180D02*
Y042140D01*
X058713D01*
Y042180D01*
X058753D01*
Y042260D01*
X058713D01*
Y042300D01*
X058633D01*
Y042260D01*
X058593D01*
Y042180D01*
X058633D01*
Y026825D02*
Y026785D01*
X058713D01*
Y026825D01*
X058753D01*
Y026905D01*
X058713D01*
Y026945D01*
X058633D01*
Y026905D01*
X058593D01*
Y026825D01*
X058633D01*
X048337Y022455D02*
Y022415D01*
X048417D01*
Y022455D01*
X048457D01*
Y022535D01*
X048417D01*
Y022575D01*
X048337D01*
Y022535D01*
X048297D01*
Y022455D01*
X048337D01*
X063692D02*
Y022415D01*
X063772D01*
Y022455D01*
X063812D01*
Y022535D01*
X063772D01*
Y022575D01*
X063692D01*
Y022535D01*
X063652D01*
Y022455D01*
X063692D01*
X050760Y022415D02*
X050800D01*
X050840Y022455D01*
X050880Y022415D01*
X050920D01*
Y022455D01*
X050880Y022495D01*
X050920Y022535D01*
Y022575D01*
X050880D01*
X050840Y022535D01*
X050800Y022575D01*
X050760D01*
Y022535D01*
X050800Y022495D01*
X050760Y022455D01*
Y022415D01*
X058593Y039820D02*
X058633D01*
X058673Y039860D01*
X058713Y039820D01*
X058753D01*
Y039860D01*
X058713Y039900D01*
X058753Y039940D01*
Y039980D01*
X058713D01*
X058673Y039940D01*
X058633Y039980D01*
X058593D01*
Y039940D01*
X058633Y039900D01*
X058593Y039860D01*
Y039820D01*
X065460Y033848D02*
X065500D01*
X065540Y033888D01*
X065580Y033848D01*
X065620D01*
Y033888D01*
X065580Y033928D01*
X065620Y033968D01*
Y034008D01*
X065580D01*
X065540Y033968D01*
X065500Y034008D01*
X065460D01*
Y033968D01*
X065500Y033928D01*
X065460Y033888D01*
Y033848D01*
X067994Y012770D02*
X068034D01*
X068074Y012810D01*
X068114Y012770D01*
X068154D01*
Y012810D01*
X068114Y012850D01*
X068154Y012890D01*
Y012930D01*
X068114D01*
X068074Y012890D01*
X068034Y012930D01*
X067994D01*
Y012890D01*
X068034Y012850D01*
X067994Y012810D01*
Y012770D01*
D69*
X081420Y015200D02*
G03*
X081420Y015200I-000080J000000D01*
G01*
X082420D02*
G03*
X082420Y015200I-000080J000000D01*
G01*
X081420Y016200D02*
G03*
X081420Y016200I-000080J000000D01*
G01*
X082420D02*
G03*
X082420Y016200I-000080J000000D01*
G01*
X081420Y017200D02*
G03*
X081420Y017200I-000080J000000D01*
G01*
X082420D02*
G03*
X082420Y017200I-000080J000000D01*
G01*
X081420Y018200D02*
G03*
X081420Y018200I-000080J000000D01*
G01*
X082420D02*
G03*
X082420Y018200I-000080J000000D01*
G01*
X081420Y019200D02*
G03*
X081420Y019200I-000080J000000D01*
G01*
X082420D02*
G03*
X082420Y019200I-000080J000000D01*
G01*
X081420Y020200D02*
G03*
X081420Y020200I-000080J000000D01*
G01*
X082420D02*
G03*
X082420Y020200I-000080J000000D01*
G01*
X081420Y021200D02*
G03*
X081420Y021200I-000080J000000D01*
G01*
X082420D02*
G03*
X082420Y021200I-000080J000000D01*
G01*
X081420Y022200D02*
G03*
X081420Y022200I-000080J000000D01*
G01*
X082420D02*
G03*
X082420Y022200I-000080J000000D01*
G01*
X081420Y023200D02*
G03*
X081420Y023200I-000080J000000D01*
G01*
X082420D02*
G03*
X082420Y023200I-000080J000000D01*
G01*
X081420Y024200D02*
G03*
X081420Y024200I-000080J000000D01*
G01*
X082420D02*
G03*
X082420Y024200I-000080J000000D01*
G01*
X081420Y025200D02*
G03*
X081420Y025200I-000080J000000D01*
G01*
X082420D02*
G03*
X082420Y025200I-000080J000000D01*
G01*
X081420Y026200D02*
G03*
X081420Y026200I-000080J000000D01*
G01*
X082420D02*
G03*
X082420Y026200I-000080J000000D01*
G01*
X081420Y027200D02*
G03*
X081420Y027200I-000080J000000D01*
G01*
X082420D02*
G03*
X082420Y027200I-000080J000000D01*
G01*
X081420Y028200D02*
G03*
X081420Y028200I-000080J000000D01*
G01*
X082420D02*
G03*
X082420Y028200I-000080J000000D01*
G01*
X081420Y029200D02*
G03*
X081420Y029200I-000080J000000D01*
G01*
X082420D02*
G03*
X082420Y029200I-000080J000000D01*
G01*
X081420Y030200D02*
G03*
X081420Y030200I-000080J000000D01*
G01*
X082420D02*
G03*
X082420Y030200I-000080J000000D01*
G01*
X081420Y031200D02*
G03*
X081420Y031200I-000080J000000D01*
G01*
X082420D02*
G03*
X082420Y031200I-000080J000000D01*
G01*
X081420Y032200D02*
G03*
X081420Y032200I-000080J000000D01*
G01*
X082420D02*
G03*
X082420Y032200I-000080J000000D01*
G01*
X081420Y033200D02*
G03*
X081420Y033200I-000080J000000D01*
G01*
X082420D02*
G03*
X082420Y033200I-000080J000000D01*
G01*
X081420Y034200D02*
G03*
X081420Y034200I-000080J000000D01*
G01*
X082420D02*
G03*
X082420Y034200I-000080J000000D01*
G01*
X081420Y035200D02*
G03*
X081420Y035200I-000080J000000D01*
G01*
X082420D02*
G03*
X082420Y035200I-000080J000000D01*
G01*
X081420Y036200D02*
G03*
X081420Y036200I-000080J000000D01*
G01*
X082420D02*
G03*
X082420Y036200I-000080J000000D01*
G01*
X081420Y037200D02*
G03*
X081420Y037200I-000080J000000D01*
G01*
X082420D02*
G03*
X082420Y037200I-000080J000000D01*
G01*
X081420Y038200D02*
G03*
X081420Y038200I-000080J000000D01*
G01*
X082420D02*
G03*
X082420Y038200I-000080J000000D01*
G01*
X081420Y039200D02*
G03*
X081420Y039200I-000080J000000D01*
G01*
X082420D02*
G03*
X082420Y039200I-000080J000000D01*
G01*
Y040200D02*
G03*
X082420Y040200I-000080J000000D01*
G01*
X081420D02*
G03*
X081420Y040200I-000080J000000D01*
G01*
X079420Y015200D02*
G03*
X079420Y015200I-000080J000000D01*
G01*
X080420D02*
G03*
X080420Y015200I-000080J000000D01*
G01*
X079420Y016200D02*
G03*
X079420Y016200I-000080J000000D01*
G01*
X080420D02*
G03*
X080420Y016200I-000080J000000D01*
G01*
X079420Y017200D02*
G03*
X079420Y017200I-000080J000000D01*
G01*
X080420D02*
G03*
X080420Y017200I-000080J000000D01*
G01*
X079420Y018200D02*
G03*
X079420Y018200I-000080J000000D01*
G01*
X080420D02*
G03*
X080420Y018200I-000080J000000D01*
G01*
X079420Y019200D02*
G03*
X079420Y019200I-000080J000000D01*
G01*
X080420D02*
G03*
X080420Y019200I-000080J000000D01*
G01*
X079420Y020200D02*
G03*
X079420Y020200I-000080J000000D01*
G01*
X080420D02*
G03*
X080420Y020200I-000080J000000D01*
G01*
X079420Y021200D02*
G03*
X079420Y021200I-000080J000000D01*
G01*
X080420D02*
G03*
X080420Y021200I-000080J000000D01*
G01*
X079420Y022200D02*
G03*
X079420Y022200I-000080J000000D01*
G01*
X080420D02*
G03*
X080420Y022200I-000080J000000D01*
G01*
X079420Y023200D02*
G03*
X079420Y023200I-000080J000000D01*
G01*
X080420D02*
G03*
X080420Y023200I-000080J000000D01*
G01*
X079420Y024200D02*
G03*
X079420Y024200I-000080J000000D01*
G01*
X080420D02*
G03*
X080420Y024200I-000080J000000D01*
G01*
X079420Y025200D02*
G03*
X079420Y025200I-000080J000000D01*
G01*
X080420D02*
G03*
X080420Y025200I-000080J000000D01*
G01*
X079420Y026200D02*
G03*
X079420Y026200I-000080J000000D01*
G01*
X080420D02*
G03*
X080420Y026200I-000080J000000D01*
G01*
X079420Y027200D02*
G03*
X079420Y027200I-000080J000000D01*
G01*
X080420D02*
G03*
X080420Y027200I-000080J000000D01*
G01*
X079420Y028200D02*
G03*
X079420Y028200I-000080J000000D01*
G01*
X080420D02*
G03*
X080420Y028200I-000080J000000D01*
G01*
X079420Y029200D02*
G03*
X079420Y029200I-000080J000000D01*
G01*
X080420D02*
G03*
X080420Y029200I-000080J000000D01*
G01*
X079420Y030200D02*
G03*
X079420Y030200I-000080J000000D01*
G01*
X080420D02*
G03*
X080420Y030200I-000080J000000D01*
G01*
X079420Y031200D02*
G03*
X079420Y031200I-000080J000000D01*
G01*
X080420D02*
G03*
X080420Y031200I-000080J000000D01*
G01*
X079420Y032200D02*
G03*
X079420Y032200I-000080J000000D01*
G01*
X080420D02*
G03*
X080420Y032200I-000080J000000D01*
G01*
X079420Y033200D02*
G03*
X079420Y033200I-000080J000000D01*
G01*
X080420D02*
G03*
X080420Y033200I-000080J000000D01*
G01*
X079420Y034200D02*
G03*
X079420Y034200I-000080J000000D01*
G01*
X080420D02*
G03*
X080420Y034200I-000080J000000D01*
G01*
X079420Y035200D02*
G03*
X079420Y035200I-000080J000000D01*
G01*
X080420D02*
G03*
X080420Y035200I-000080J000000D01*
G01*
X079420Y036200D02*
G03*
X079420Y036200I-000080J000000D01*
G01*
X080420D02*
G03*
X080420Y036200I-000080J000000D01*
G01*
X079420Y037200D02*
G03*
X079420Y037200I-000080J000000D01*
G01*
X080420D02*
G03*
X080420Y037200I-000080J000000D01*
G01*
X079420Y038200D02*
G03*
X079420Y038200I-000080J000000D01*
G01*
X080420D02*
G03*
X080420Y038200I-000080J000000D01*
G01*
X079420Y039200D02*
G03*
X079420Y039200I-000080J000000D01*
G01*
X080420D02*
G03*
X080420Y039200I-000080J000000D01*
G01*
Y040200D02*
G03*
X080420Y040200I-000080J000000D01*
G01*
X079420D02*
G03*
X079420Y040200I-000080J000000D01*
G01*
X077520Y013200D02*
G03*
X077520Y013200I-000080J000000D01*
G01*
X079520Y013200D02*
G03*
X079520Y013200I-000080J000000D01*
G01*
X078520Y013200D02*
G03*
X078520Y013200I-000080J000000D01*
G01*
X076520Y013200D02*
G03*
X076520Y013200I-000080J000000D01*
G01*
X075520Y013200D02*
G03*
X075520Y013200I-000080J000000D01*
G01*
X074520Y013200D02*
G03*
X074520Y013200I-000080J000000D01*
G01*
X071870Y019500D02*
G03*
X071870Y019500I-000080J000000D01*
G01*
X072870D02*
G03*
X072870Y019500I-000080J000000D01*
G01*
X073870D02*
G03*
X073870Y019500I-000080J000000D01*
G01*
X074870D02*
G03*
X074870Y019500I-000080J000000D01*
G01*
X075870D02*
G03*
X075870Y019500I-000080J000000D01*
G01*
X076870D02*
G03*
X076870Y019500I-000080J000000D01*
G01*
X072520Y024950D02*
G03*
X072520Y024950I-000080J000000D01*
G01*
Y023950D02*
G03*
X072520Y023950I-000080J000000D01*
G01*
X071370Y031500D02*
G03*
X071370Y031500I-000080J000000D01*
G01*
Y030500D02*
G03*
X071370Y030500I-000080J000000D01*
G01*
Y029500D02*
G03*
X071370Y029500I-000080J000000D01*
G01*
Y028500D02*
G03*
X071370Y028500I-000080J000000D01*
G01*
Y027500D02*
G03*
X071370Y027500I-000080J000000D01*
G01*
Y026500D02*
G03*
X071370Y026500I-000080J000000D01*
G01*
Y025500D02*
G03*
X071370Y025500I-000080J000000D01*
G01*
Y024500D02*
G03*
X071370Y024500I-000080J000000D01*
G01*
Y023500D02*
G03*
X071370Y023500I-000080J000000D01*
G01*
Y022500D02*
G03*
X071370Y022500I-000080J000000D01*
G01*
Y021500D02*
G03*
X071370Y021500I-000080J000000D01*
G01*
Y020500D02*
G03*
X071370Y020500I-000080J000000D01*
G01*
X077370Y031500D02*
G03*
X077370Y031500I-000080J000000D01*
G01*
Y030500D02*
G03*
X077370Y030500I-000080J000000D01*
G01*
Y029500D02*
G03*
X077370Y029500I-000080J000000D01*
G01*
Y028500D02*
G03*
X077370Y028500I-000080J000000D01*
G01*
Y027500D02*
G03*
X077370Y027500I-000080J000000D01*
G01*
Y026500D02*
G03*
X077370Y026500I-000080J000000D01*
G01*
Y025500D02*
G03*
X077370Y025500I-000080J000000D01*
G01*
Y024500D02*
G03*
X077370Y024500I-000080J000000D01*
G01*
Y023500D02*
G03*
X077370Y023500I-000080J000000D01*
G01*
Y022500D02*
G03*
X077370Y022500I-000080J000000D01*
G01*
Y021500D02*
G03*
X077370Y021500I-000080J000000D01*
G01*
Y020500D02*
G03*
X077370Y020500I-000080J000000D01*
G01*
X076870Y041000D02*
G03*
X076870Y041000I-000080J000000D01*
G01*
X075870Y041000D02*
G03*
X075870Y041000I-000080J000000D01*
G01*
X077870Y041000D02*
G03*
X077870Y041000I-000080J000000D01*
G01*
M02*
